M48
; DRILL file {KiCad (5.1.5)-3} date 5/17/2020 8:08:02 PM
; FORMAT={-:-/ absolute / inch / decimal}
; #@! TF.CreationDate,2020-05-17T20:08:02+05:30
; #@! TF.GenerationSoftware,Kicad,Pcbnew,(5.1.5)-3
; #@! TF.FileFunction,Plated,1,4,PTH
FMAT,2
INCH
T1C0.0157
T2C0.0866
%
G90
G05
T1
X2.6496Y-2.3287
X2.6752Y-2.248
X2.75Y-2.5965
X2.7559Y-2.8425
X2.8445Y-2.2579
X2.874Y-2.3465
X2.878Y-2.872
X2.8878Y-2.2421
X2.9291Y-2.628
X2.9528Y-2.9195
X2.9803Y-2.3465
X3.0079Y-2.5118
X3.0945Y-2.7776
X3.128Y-2.9961
X3.1732Y-2.7382
X3.1988Y-2.2224
X3.2067Y-2.0138
X3.25Y-2.2205
X3.25Y-2.5217
X3.2697Y-2.5551
X3.315Y-2.0236
X3.3839Y-2.4173
X3.4114Y-2.1673
X3.4154Y-2.9154
X3.4646Y-2.9646
X3.4764Y-2.1654
X3.4823Y-2.0256
X3.5079Y-2.5177
X3.5118Y-2.4547
X3.5157Y-2.5768
X3.5335Y-2.4016
X3.563Y-2.6654
X3.5709Y-2.2539
X3.624Y-2.1929
X3.7106Y-2.5807
X3.7126Y-2.1909
X3.7185Y-2.1201
X3.752Y-2.6299
X3.7559Y-2.5079
X3.7618Y-2.3504
X3.7913Y-2.998
X3.7953Y-2.2579
X3.7972Y-2.8465
X3.7972Y-2.9016
X3.815Y-2.2008
X3.8386Y-3.0256
X3.8445Y-2.3169
X3.8642Y-2.1614
X3.8701Y-2.4783
X3.876Y-2.7028
X3.8858Y-2.3622
X3.9094Y-2.7244
X3.9173Y-2.1319
X3.9291Y-2.3622
X3.9368Y-2.6975
X3.9429Y-2.9508
X3.9429Y-3.002
X3.9646Y-2.748
X3.9705Y-2.3681
X4.0138Y-2.3681
X4.0394Y-3.0827
X4.0492Y-2.1693
X4.063Y-2.1142
X4.0689Y-2.6969
X4.0709Y-2.8091
X4.1201Y-2.687
X4.1319Y-2.2835
X4.1319Y-2.8819
X4.2028Y-2.6024
X4.2067Y-2.2224
X4.2087Y-2.3681
X4.2146Y-2.5059
X4.2185Y-2.1181
X4.2343Y-2.3189
X4.2457Y-2.5317
X4.2461Y-2.568
X4.248Y-2.3858
X4.252Y-2.4961
X4.2854Y-2.4016
X4.2874Y-2.4409
X4.2933Y-2.4783
X4.4094Y-2.6024
X4.4094Y-2.6811
X4.4094Y-2.7598
X4.4094Y-2.8386
X4.4094Y-2.9173
X4.4244Y-3.0205
X4.5295Y-2.8327
X4.5531Y-2.374
X4.5965Y-2.8307
X4.5996Y-2.3634
X4.6398Y-2.9331
X4.7079Y-2.6238
X4.7197Y-2.0559
X4.7197Y-2.2921
X4.7197Y-2.3709
X4.7323Y-2.9705
X4.7623Y-2.9401
X4.7697Y-2.2953
X4.7795Y-2.4173
X4.7807Y-2.4673
X4.7843Y-2.5425
X4.7933Y-2.2539
X4.7935Y-2.9584
X4.8071Y-2.5984
X4.8181Y-2.9297
X4.8346Y-2.0551
X4.8386Y-2.1024
X4.8386Y-2.1457
X4.8425Y-2.189
X4.8465Y-2.2323
X4.8642Y-2.9587
X4.9035Y-2.9547
X4.935Y-2.6516
X4.9362Y-3.0205
X4.937Y-2.4685
X4.937Y-2.5472
X4.9803Y-2.6102
X4.981Y-2.7511
X4.9862Y-2.8996
X4.9882Y-2.8445
X5.0Y-2.4055
X5.015Y-3.0205
X5.0157Y-2.4685
X5.0157Y-2.5472
X5.0504Y-2.0008
X5.0827Y-2.7815
X5.0937Y-3.0205
X5.0945Y-2.4685
X5.0945Y-2.5472
X5.1181Y-2.626
X5.1181Y-2.6614
X5.1291Y-2.0008
X5.1724Y-3.0205
X5.1732Y-2.1496
X5.1732Y-2.4685
X5.1732Y-2.5472
X5.2047Y-2.1181
X5.2079Y-2.0008
X5.2087Y-2.6535
X5.2185Y-2.3189
X5.2205Y-2.4055
X5.2512Y-3.0205
X5.252Y-2.4685
X5.252Y-2.5472
X5.2866Y-2.0008
X5.2913Y-2.9685
X5.3299Y-3.0205
X5.3465Y-2.6654
X5.3654Y-2.0008
X5.3661Y-2.937
X5.3701Y-2.4685
X5.3701Y-2.5472
X5.3799Y-2.878
X5.3819Y-2.1594
X5.3937Y-2.6811
X5.4087Y-3.0205
X5.4203Y-2.314
X5.4252Y-2.2657
X5.4272Y-2.6634
X5.4441Y-2.0008
X5.4488Y-2.4685
X5.4488Y-2.5472
X5.4874Y-3.0205
X5.5Y-2.8937
X5.5118Y-2.2598
X5.5157Y-2.6811
X5.5228Y-2.0008
X5.5276Y-2.4685
X5.5276Y-2.5472
X5.5472Y-2.2402
X5.5551Y-2.8543
X5.5661Y-3.0205
X5.6016Y-2.0008
X5.6063Y-2.4685
X5.6063Y-2.5472
X5.6378Y-2.1811
X5.6449Y-3.0205
X5.6457Y-2.8504
X5.6732Y-2.685
X5.6803Y-2.0008
X5.6831Y-2.2303
X5.689Y-2.3307
X5.7236Y-3.0205
X5.7244Y-2.4685
X5.7244Y-2.5472
X5.7591Y-2.0008
X5.7953Y-2.1772
X5.7972Y-3.0138
X5.7992Y-2.9055
X5.8031Y-2.0354
X5.8031Y-2.1063
X5.8031Y-2.4685
X5.8031Y-2.5472
X5.878Y-2.3307
X5.8819Y-2.7992
X5.8937Y-2.689
X5.937Y-2.5472
X5.939Y-2.2106
X5.9409Y-2.4685
X5.9528Y-2.7992
X5.9567Y-2.685
X5.9587Y-2.3287
X5.8563Y-1.9961
X5.8753Y-1.9501
X5.8753Y-2.042
X5.9213Y-1.9311
X5.9213Y-2.061
X5.9672Y-1.9501
X5.9672Y-2.042
X5.9862Y-1.9961
X2.4075Y-3.0197
X2.4265Y-2.9738
X2.4265Y-3.0656
X2.4724Y-2.9547
X2.4724Y-3.0846
X2.5184Y-2.9738
X2.5184Y-3.0656
X2.5374Y-3.0197
X2.4075Y-1.9961
X2.4265Y-1.9501
X2.4265Y-2.042
X2.4724Y-1.9311
X2.4724Y-2.061
X2.5184Y-1.9501
X2.5184Y-2.042
X2.5374Y-1.9961
X5.8563Y-3.0197
X5.8753Y-2.9738
X5.8753Y-3.0656
X5.9213Y-2.9547
X5.9213Y-3.0846
X5.9672Y-2.9738
X5.9672Y-3.0656
X5.9862Y-3.0197
T2
X5.9213Y-1.9961
X2.4724Y-3.0197
X2.4724Y-1.9961
X5.9213Y-3.0197
T0
M30
