G04 #@! TF.GenerationSoftware,KiCad,Pcbnew,(5.1.5)-3*
G04 #@! TF.CreationDate,2020-05-17T20:07:58+05:30*
G04 #@! TF.ProjectId,ArmTrax,41726d54-7261-4782-9e6b-696361645f70,rev?*
G04 #@! TF.SameCoordinates,Original*
G04 #@! TF.FileFunction,Copper,L2,Inr*
G04 #@! TF.FilePolarity,Positive*
%FSLAX46Y46*%
G04 Gerber Fmt 4.6, Leading zero omitted, Abs format (unit mm)*
G04 Created by KiCad (PCBNEW (5.1.5)-3) date 2020-05-17 20:07:58*
%MOMM*%
%LPD*%
G04 APERTURE LIST*
%ADD10C,4.400000*%
%ADD11C,0.700000*%
%ADD12C,0.800000*%
%ADD13C,0.254000*%
G04 APERTURE END LIST*
D10*
X150400000Y-76700000D03*
D11*
X152050000Y-76700000D03*
X151566726Y-77866726D03*
X150400000Y-78350000D03*
X149233274Y-77866726D03*
X148750000Y-76700000D03*
X149233274Y-75533274D03*
X150400000Y-75050000D03*
X151566726Y-75533274D03*
D10*
X150400000Y-50700000D03*
D11*
X152050000Y-50700000D03*
X151566726Y-51866726D03*
X150400000Y-52350000D03*
X149233274Y-51866726D03*
X148750000Y-50700000D03*
X149233274Y-49533274D03*
X150400000Y-49050000D03*
X151566726Y-49533274D03*
D10*
X62800000Y-76700000D03*
D11*
X64450000Y-76700000D03*
X63966726Y-77866726D03*
X62800000Y-78350000D03*
X61633274Y-77866726D03*
X61150000Y-76700000D03*
X61633274Y-75533274D03*
X62800000Y-75050000D03*
X63966726Y-75533274D03*
X63966726Y-49533274D03*
X62800000Y-49050000D03*
X61633274Y-49533274D03*
X61150000Y-50700000D03*
X61633274Y-51866726D03*
X62800000Y-52350000D03*
X63966726Y-51866726D03*
X64450000Y-50700000D03*
D10*
X62800000Y-50700000D03*
D12*
X147400000Y-64700000D03*
X138400000Y-64700000D03*
X136400000Y-64700000D03*
X133400000Y-64700000D03*
X131400000Y-64700000D03*
X129400000Y-64700000D03*
X127400000Y-64700000D03*
X125400000Y-64700000D03*
X121520010Y-64579990D03*
X112000000Y-66100000D03*
X112000000Y-68100000D03*
X112000000Y-70100000D03*
X112000000Y-72100000D03*
X112000000Y-74100000D03*
X112379999Y-76720001D03*
X125379999Y-76720001D03*
X127379999Y-76720001D03*
X129379999Y-76720001D03*
X131379999Y-76720001D03*
X133379999Y-76720001D03*
X135379999Y-76720001D03*
X137379999Y-76720001D03*
X139379999Y-76720001D03*
X141379999Y-76720001D03*
X143379999Y-76720001D03*
X145379999Y-76720001D03*
X147250000Y-76550000D03*
X140400000Y-64700000D03*
X142400000Y-64700000D03*
X145400000Y-64700000D03*
X147400000Y-62700000D03*
X145400000Y-62700000D03*
X142400000Y-62700000D03*
X140400000Y-62700000D03*
X138400000Y-62700000D03*
X136400000Y-62700000D03*
X133400000Y-62700000D03*
X131400000Y-62700000D03*
X129400000Y-62700000D03*
X127400000Y-62700000D03*
X125400000Y-62700000D03*
X121429999Y-62670001D03*
X119879999Y-60220001D03*
X119879999Y-58220001D03*
X119879999Y-52220001D03*
X128279999Y-50820001D03*
X130279999Y-50820001D03*
X132279999Y-50820001D03*
X134279999Y-50820001D03*
X136279999Y-50820001D03*
X138279999Y-50820001D03*
X140279999Y-50820001D03*
X142279999Y-50820001D03*
X144279999Y-50820001D03*
X146279999Y-50820001D03*
X147400000Y-51700000D03*
X147400000Y-53500000D03*
X147300000Y-73800000D03*
X150800000Y-64700000D03*
X150900000Y-62700000D03*
X136700000Y-54850000D03*
X137675000Y-58775000D03*
X132550000Y-58900000D03*
X132600000Y-61100000D03*
X140000000Y-57400000D03*
X140900000Y-56900000D03*
X143200000Y-55400000D03*
X147200000Y-55300000D03*
X149300000Y-59200000D03*
X151300000Y-68200000D03*
X151200000Y-71100000D03*
X149400000Y-71100000D03*
X149700000Y-68300000D03*
X144100000Y-68200000D03*
X141100000Y-72500000D03*
X143400000Y-72400000D03*
X139700000Y-73500000D03*
X136300000Y-74600000D03*
X140100000Y-68100000D03*
X137000000Y-68100000D03*
X135800000Y-67700000D03*
X132300000Y-67400000D03*
X130000000Y-66700000D03*
X130000000Y-67600000D03*
X126500000Y-66300000D03*
X122800000Y-52200000D03*
X121400000Y-61400000D03*
X134400000Y-75400000D03*
X129100000Y-70650000D03*
X126650000Y-73650000D03*
X126518552Y-69876810D03*
X117850000Y-74500000D03*
X115050000Y-71950000D03*
X116750000Y-71900000D03*
X107550000Y-58900000D03*
X106900000Y-60150000D03*
X98150000Y-54900000D03*
X98700000Y-60000000D03*
X94450000Y-53850000D03*
X99500000Y-54150000D03*
X106750000Y-66100000D03*
X95300000Y-66800000D03*
X89750000Y-61000000D03*
X89200000Y-62350000D03*
X89100000Y-63950000D03*
X89300000Y-65450000D03*
X90700000Y-57250000D03*
X92050000Y-55700000D03*
X94300000Y-55650000D03*
X96400000Y-57350000D03*
X103350000Y-68500000D03*
X72250000Y-57350000D03*
X67950000Y-57100000D03*
X73000000Y-59600000D03*
X76400000Y-63800000D03*
X96300000Y-76150000D03*
X104950000Y-73200000D03*
X88300000Y-55000000D03*
X86650000Y-55050000D03*
X81450000Y-51150000D03*
X81250000Y-56450000D03*
X82550000Y-56400000D03*
X75000000Y-74155000D03*
X78600000Y-70550000D03*
X80600000Y-69550000D03*
X86750000Y-74050000D03*
X88000000Y-75300000D03*
X70000000Y-72200000D03*
X74400000Y-66750000D03*
X150850000Y-56150000D03*
X151350000Y-59150000D03*
X67300000Y-59150000D03*
X120961671Y-74677677D03*
X95400000Y-63700000D03*
X121750000Y-57250000D03*
X144500000Y-59200000D03*
X85950000Y-61400000D03*
X122100000Y-66000000D03*
X98300000Y-62950000D03*
X90500000Y-67700000D03*
X137850000Y-67650000D03*
X125350000Y-67350000D03*
X104950000Y-58000000D03*
X102850000Y-55100000D03*
X96900000Y-55900000D03*
X103400000Y-71350000D03*
X88450000Y-51450000D03*
X84200000Y-51400000D03*
X79450000Y-76100000D03*
X94250000Y-65550000D03*
X121150000Y-58300000D03*
X104650000Y-68250000D03*
X97650000Y-58850000D03*
X95550000Y-59700000D03*
X120200000Y-75450000D03*
X73100000Y-72950000D03*
X69850000Y-65950000D03*
X73350000Y-56950000D03*
X75700000Y-59600000D03*
X122900000Y-53400000D03*
X109050000Y-62950000D03*
X122900000Y-54500000D03*
X108000000Y-63400000D03*
X107150000Y-53800000D03*
X103200000Y-53700000D03*
X107900000Y-60600000D03*
X106850000Y-56450000D03*
X132200000Y-53800000D03*
X101950000Y-60150000D03*
X82550000Y-64050000D03*
X131400000Y-54600000D03*
X100850000Y-60150000D03*
X83050000Y-64900000D03*
X127000000Y-61100000D03*
X107840118Y-64306003D03*
X99800000Y-60000000D03*
X107050000Y-63650000D03*
X96450000Y-72300000D03*
X123000000Y-55600000D03*
X108900000Y-62000000D03*
X115650000Y-60300000D03*
X123100000Y-56700000D03*
X108850000Y-61000000D03*
X116831084Y-60031084D03*
X119581388Y-66645000D03*
X107851567Y-65225934D03*
X100150000Y-76250000D03*
X123550000Y-75150000D03*
X102600000Y-78300000D03*
X100700000Y-69800000D03*
X122378973Y-74413182D03*
X99995000Y-68516168D03*
X96450000Y-73700000D03*
X99300000Y-69200000D03*
X100150000Y-74950000D03*
X121754990Y-75143581D03*
X98450000Y-68650000D03*
X124550000Y-75050000D03*
X97500000Y-76850000D03*
X126700000Y-72250000D03*
X136650000Y-73100000D03*
X144350000Y-56650000D03*
X137800000Y-57550000D03*
D13*
G36*
X148592793Y-48497912D02*
G01*
X148197912Y-48892793D01*
X147887656Y-49357124D01*
X147673948Y-49873061D01*
X147565000Y-50420777D01*
X147565000Y-50979223D01*
X147673948Y-51526939D01*
X147887656Y-52042876D01*
X148197912Y-52507207D01*
X148592793Y-52902088D01*
X149057124Y-53212344D01*
X149573061Y-53426052D01*
X150120777Y-53535000D01*
X150679223Y-53535000D01*
X151226939Y-53426052D01*
X151742876Y-53212344D01*
X152207207Y-52902088D01*
X152602088Y-52507207D01*
X152740000Y-52300807D01*
X152740001Y-75099194D01*
X152602088Y-74892793D01*
X152207207Y-74497912D01*
X151742876Y-74187656D01*
X151226939Y-73973948D01*
X150679223Y-73865000D01*
X150120777Y-73865000D01*
X149573061Y-73973948D01*
X149057124Y-74187656D01*
X148592793Y-74497912D01*
X148197912Y-74892793D01*
X147887656Y-75357124D01*
X147673948Y-75873061D01*
X147565000Y-76420777D01*
X147565000Y-76979223D01*
X147673948Y-77526939D01*
X147887656Y-78042876D01*
X148197912Y-78507207D01*
X148592793Y-78902088D01*
X148799193Y-79040000D01*
X103323711Y-79040000D01*
X103403937Y-78959774D01*
X103517205Y-78790256D01*
X103595226Y-78601898D01*
X103635000Y-78401939D01*
X103635000Y-78198061D01*
X103595226Y-77998102D01*
X103517205Y-77809744D01*
X103403937Y-77640226D01*
X103259774Y-77496063D01*
X103090256Y-77382795D01*
X102901898Y-77304774D01*
X102701939Y-77265000D01*
X102498061Y-77265000D01*
X102298102Y-77304774D01*
X102109744Y-77382795D01*
X101940226Y-77496063D01*
X101796063Y-77640226D01*
X101682795Y-77809744D01*
X101604774Y-77998102D01*
X101565000Y-78198061D01*
X101565000Y-78401939D01*
X101604774Y-78601898D01*
X101682795Y-78790256D01*
X101796063Y-78959774D01*
X101876289Y-79040000D01*
X64400807Y-79040000D01*
X64607207Y-78902088D01*
X65002088Y-78507207D01*
X65312344Y-78042876D01*
X65526052Y-77526939D01*
X65635000Y-76979223D01*
X65635000Y-76420777D01*
X65550917Y-75998061D01*
X78415000Y-75998061D01*
X78415000Y-76201939D01*
X78454774Y-76401898D01*
X78532795Y-76590256D01*
X78646063Y-76759774D01*
X78790226Y-76903937D01*
X78959744Y-77017205D01*
X79148102Y-77095226D01*
X79348061Y-77135000D01*
X79551939Y-77135000D01*
X79751898Y-77095226D01*
X79940256Y-77017205D01*
X80109774Y-76903937D01*
X80253937Y-76759774D01*
X80261763Y-76748061D01*
X96465000Y-76748061D01*
X96465000Y-76951939D01*
X96504774Y-77151898D01*
X96582795Y-77340256D01*
X96696063Y-77509774D01*
X96840226Y-77653937D01*
X97009744Y-77767205D01*
X97198102Y-77845226D01*
X97398061Y-77885000D01*
X97601939Y-77885000D01*
X97801898Y-77845226D01*
X97990256Y-77767205D01*
X98159774Y-77653937D01*
X98303937Y-77509774D01*
X98417205Y-77340256D01*
X98495226Y-77151898D01*
X98535000Y-76951939D01*
X98535000Y-76748061D01*
X98495226Y-76548102D01*
X98417205Y-76359744D01*
X98303937Y-76190226D01*
X98159774Y-76046063D01*
X97990256Y-75932795D01*
X97801898Y-75854774D01*
X97601939Y-75815000D01*
X97398061Y-75815000D01*
X97198102Y-75854774D01*
X97009744Y-75932795D01*
X96840226Y-76046063D01*
X96696063Y-76190226D01*
X96582795Y-76359744D01*
X96504774Y-76548102D01*
X96465000Y-76748061D01*
X80261763Y-76748061D01*
X80367205Y-76590256D01*
X80445226Y-76401898D01*
X80485000Y-76201939D01*
X80485000Y-75998061D01*
X80445226Y-75798102D01*
X80367205Y-75609744D01*
X80253937Y-75440226D01*
X80109774Y-75296063D01*
X79940256Y-75182795D01*
X79751898Y-75104774D01*
X79551939Y-75065000D01*
X79348061Y-75065000D01*
X79148102Y-75104774D01*
X78959744Y-75182795D01*
X78790226Y-75296063D01*
X78646063Y-75440226D01*
X78532795Y-75609744D01*
X78454774Y-75798102D01*
X78415000Y-75998061D01*
X65550917Y-75998061D01*
X65526052Y-75873061D01*
X65312344Y-75357124D01*
X65002088Y-74892793D01*
X64957356Y-74848061D01*
X99115000Y-74848061D01*
X99115000Y-75051939D01*
X99154774Y-75251898D01*
X99232795Y-75440256D01*
X99339532Y-75600000D01*
X99232795Y-75759744D01*
X99154774Y-75948102D01*
X99115000Y-76148061D01*
X99115000Y-76351939D01*
X99154774Y-76551898D01*
X99232795Y-76740256D01*
X99346063Y-76909774D01*
X99490226Y-77053937D01*
X99659744Y-77167205D01*
X99848102Y-77245226D01*
X100048061Y-77285000D01*
X100251939Y-77285000D01*
X100451898Y-77245226D01*
X100640256Y-77167205D01*
X100809774Y-77053937D01*
X100953937Y-76909774D01*
X101067205Y-76740256D01*
X101145226Y-76551898D01*
X101185000Y-76351939D01*
X101185000Y-76148061D01*
X101145226Y-75948102D01*
X101067205Y-75759744D01*
X100960468Y-75600000D01*
X101067205Y-75440256D01*
X101105393Y-75348061D01*
X119165000Y-75348061D01*
X119165000Y-75551939D01*
X119204774Y-75751898D01*
X119282795Y-75940256D01*
X119396063Y-76109774D01*
X119540226Y-76253937D01*
X119709744Y-76367205D01*
X119898102Y-76445226D01*
X120098061Y-76485000D01*
X120301939Y-76485000D01*
X120501898Y-76445226D01*
X120690256Y-76367205D01*
X120859774Y-76253937D01*
X121003937Y-76109774D01*
X121107063Y-75955434D01*
X121264734Y-76060786D01*
X121453092Y-76138807D01*
X121653051Y-76178581D01*
X121856929Y-76178581D01*
X122056888Y-76138807D01*
X122245246Y-76060786D01*
X122414764Y-75947518D01*
X122558927Y-75803355D01*
X122650350Y-75666530D01*
X122746063Y-75809774D01*
X122890226Y-75953937D01*
X123059744Y-76067205D01*
X123248102Y-76145226D01*
X123448061Y-76185000D01*
X123651939Y-76185000D01*
X123851898Y-76145226D01*
X124040256Y-76067205D01*
X124140102Y-76000490D01*
X124248102Y-76045226D01*
X124448061Y-76085000D01*
X124651939Y-76085000D01*
X124851898Y-76045226D01*
X125040256Y-75967205D01*
X125209774Y-75853937D01*
X125353937Y-75709774D01*
X125467205Y-75540256D01*
X125545226Y-75351898D01*
X125585000Y-75151939D01*
X125585000Y-74948061D01*
X125545226Y-74748102D01*
X125467205Y-74559744D01*
X125353937Y-74390226D01*
X125209774Y-74246063D01*
X125040256Y-74132795D01*
X124851898Y-74054774D01*
X124651939Y-74015000D01*
X124448061Y-74015000D01*
X124248102Y-74054774D01*
X124059744Y-74132795D01*
X123959898Y-74199510D01*
X123851898Y-74154774D01*
X123651939Y-74115000D01*
X123448061Y-74115000D01*
X123377721Y-74128991D01*
X123374199Y-74111284D01*
X123296178Y-73922926D01*
X123182910Y-73753408D01*
X123038747Y-73609245D01*
X122869229Y-73495977D01*
X122680871Y-73417956D01*
X122480912Y-73378182D01*
X122277034Y-73378182D01*
X122077075Y-73417956D01*
X121888717Y-73495977D01*
X121719199Y-73609245D01*
X121575036Y-73753408D01*
X121461768Y-73922926D01*
X121383747Y-74111284D01*
X121369485Y-74182987D01*
X121264734Y-74226376D01*
X121095216Y-74339644D01*
X120951053Y-74483807D01*
X120847927Y-74638147D01*
X120690256Y-74532795D01*
X120501898Y-74454774D01*
X120301939Y-74415000D01*
X120098061Y-74415000D01*
X119898102Y-74454774D01*
X119709744Y-74532795D01*
X119540226Y-74646063D01*
X119396063Y-74790226D01*
X119282795Y-74959744D01*
X119204774Y-75148102D01*
X119165000Y-75348061D01*
X101105393Y-75348061D01*
X101145226Y-75251898D01*
X101185000Y-75051939D01*
X101185000Y-74848061D01*
X101145226Y-74648102D01*
X101067205Y-74459744D01*
X100953937Y-74290226D01*
X100809774Y-74146063D01*
X100640256Y-74032795D01*
X100451898Y-73954774D01*
X100251939Y-73915000D01*
X100048061Y-73915000D01*
X99848102Y-73954774D01*
X99659744Y-74032795D01*
X99490226Y-74146063D01*
X99346063Y-74290226D01*
X99232795Y-74459744D01*
X99154774Y-74648102D01*
X99115000Y-74848061D01*
X64957356Y-74848061D01*
X64607207Y-74497912D01*
X64142876Y-74187656D01*
X63626939Y-73973948D01*
X63079223Y-73865000D01*
X62520777Y-73865000D01*
X61973061Y-73973948D01*
X61457124Y-74187656D01*
X60992793Y-74497912D01*
X60597912Y-74892793D01*
X60460000Y-75099193D01*
X60460000Y-71419761D01*
X66040000Y-71419761D01*
X66040000Y-71780239D01*
X66110325Y-72133791D01*
X66248275Y-72466830D01*
X66448546Y-72766557D01*
X66703443Y-73021454D01*
X67003170Y-73221725D01*
X67336209Y-73359675D01*
X67689761Y-73430000D01*
X68050239Y-73430000D01*
X68403791Y-73359675D01*
X68736830Y-73221725D01*
X69036557Y-73021454D01*
X69209950Y-72848061D01*
X72065000Y-72848061D01*
X72065000Y-73051939D01*
X72104774Y-73251898D01*
X72182795Y-73440256D01*
X72296063Y-73609774D01*
X72440226Y-73753937D01*
X72609744Y-73867205D01*
X72798102Y-73945226D01*
X72998061Y-73985000D01*
X73201939Y-73985000D01*
X73401898Y-73945226D01*
X73590256Y-73867205D01*
X73759774Y-73753937D01*
X73903937Y-73609774D01*
X74017205Y-73440256D01*
X74095226Y-73251898D01*
X74135000Y-73051939D01*
X74135000Y-72848061D01*
X74095226Y-72648102D01*
X74017205Y-72459744D01*
X73903937Y-72290226D01*
X73811772Y-72198061D01*
X95415000Y-72198061D01*
X95415000Y-72401939D01*
X95454774Y-72601898D01*
X95532795Y-72790256D01*
X95646063Y-72959774D01*
X95686289Y-73000000D01*
X95646063Y-73040226D01*
X95532795Y-73209744D01*
X95454774Y-73398102D01*
X95415000Y-73598061D01*
X95415000Y-73801939D01*
X95454774Y-74001898D01*
X95532795Y-74190256D01*
X95646063Y-74359774D01*
X95790226Y-74503937D01*
X95959744Y-74617205D01*
X96148102Y-74695226D01*
X96348061Y-74735000D01*
X96551939Y-74735000D01*
X96751898Y-74695226D01*
X96940256Y-74617205D01*
X97109774Y-74503937D01*
X97253937Y-74359774D01*
X97367205Y-74190256D01*
X97445226Y-74001898D01*
X97485000Y-73801939D01*
X97485000Y-73598061D01*
X97445226Y-73398102D01*
X97367205Y-73209744D01*
X97253937Y-73040226D01*
X97213711Y-73000000D01*
X97253937Y-72959774D01*
X97367205Y-72790256D01*
X97445226Y-72601898D01*
X97485000Y-72401939D01*
X97485000Y-72198061D01*
X97445226Y-71998102D01*
X97367205Y-71809744D01*
X97253937Y-71640226D01*
X97109774Y-71496063D01*
X96940256Y-71382795D01*
X96751898Y-71304774D01*
X96551939Y-71265000D01*
X96348061Y-71265000D01*
X96148102Y-71304774D01*
X95959744Y-71382795D01*
X95790226Y-71496063D01*
X95646063Y-71640226D01*
X95532795Y-71809744D01*
X95454774Y-71998102D01*
X95415000Y-72198061D01*
X73811772Y-72198061D01*
X73759774Y-72146063D01*
X73590256Y-72032795D01*
X73401898Y-71954774D01*
X73201939Y-71915000D01*
X72998061Y-71915000D01*
X72798102Y-71954774D01*
X72609744Y-72032795D01*
X72440226Y-72146063D01*
X72296063Y-72290226D01*
X72182795Y-72459744D01*
X72104774Y-72648102D01*
X72065000Y-72848061D01*
X69209950Y-72848061D01*
X69291454Y-72766557D01*
X69491725Y-72466830D01*
X69629675Y-72133791D01*
X69700000Y-71780239D01*
X69700000Y-71419761D01*
X69665848Y-71248061D01*
X102365000Y-71248061D01*
X102365000Y-71451939D01*
X102404774Y-71651898D01*
X102482795Y-71840256D01*
X102596063Y-72009774D01*
X102740226Y-72153937D01*
X102909744Y-72267205D01*
X103098102Y-72345226D01*
X103298061Y-72385000D01*
X103501939Y-72385000D01*
X103701898Y-72345226D01*
X103890256Y-72267205D01*
X104059774Y-72153937D01*
X104065650Y-72148061D01*
X125665000Y-72148061D01*
X125665000Y-72351939D01*
X125704774Y-72551898D01*
X125782795Y-72740256D01*
X125896063Y-72909774D01*
X126040226Y-73053937D01*
X126209744Y-73167205D01*
X126398102Y-73245226D01*
X126598061Y-73285000D01*
X126801939Y-73285000D01*
X127001898Y-73245226D01*
X127190256Y-73167205D01*
X127359774Y-73053937D01*
X127503937Y-72909774D01*
X127617205Y-72740256D01*
X127695226Y-72551898D01*
X127735000Y-72351939D01*
X127735000Y-72148061D01*
X127695226Y-71948102D01*
X127617205Y-71759744D01*
X127503937Y-71590226D01*
X127359774Y-71446063D01*
X127242286Y-71367560D01*
X129040000Y-71367560D01*
X129040000Y-71832440D01*
X129130694Y-72288387D01*
X129308595Y-72717879D01*
X129566868Y-73104412D01*
X129895588Y-73433132D01*
X130282121Y-73691405D01*
X130711613Y-73869306D01*
X131167560Y-73960000D01*
X131632440Y-73960000D01*
X132088387Y-73869306D01*
X132517879Y-73691405D01*
X132904412Y-73433132D01*
X133233132Y-73104412D01*
X133304193Y-72998061D01*
X135615000Y-72998061D01*
X135615000Y-73201939D01*
X135654774Y-73401898D01*
X135732795Y-73590256D01*
X135846063Y-73759774D01*
X135990226Y-73903937D01*
X136159744Y-74017205D01*
X136348102Y-74095226D01*
X136548061Y-74135000D01*
X136751939Y-74135000D01*
X136951898Y-74095226D01*
X137140256Y-74017205D01*
X137309774Y-73903937D01*
X137453937Y-73759774D01*
X137567205Y-73590256D01*
X137645226Y-73401898D01*
X137685000Y-73201939D01*
X137685000Y-72998061D01*
X137645226Y-72798102D01*
X137567205Y-72609744D01*
X137453937Y-72440226D01*
X137309774Y-72296063D01*
X137140256Y-72182795D01*
X136951898Y-72104774D01*
X136751939Y-72065000D01*
X136548061Y-72065000D01*
X136348102Y-72104774D01*
X136159744Y-72182795D01*
X135990226Y-72296063D01*
X135846063Y-72440226D01*
X135732795Y-72609744D01*
X135654774Y-72798102D01*
X135615000Y-72998061D01*
X133304193Y-72998061D01*
X133491405Y-72717879D01*
X133669306Y-72288387D01*
X133760000Y-71832440D01*
X133760000Y-71367560D01*
X133669306Y-70911613D01*
X133491405Y-70482121D01*
X133233132Y-70095588D01*
X132904412Y-69766868D01*
X132517879Y-69508595D01*
X132088387Y-69330694D01*
X131632440Y-69240000D01*
X131167560Y-69240000D01*
X130711613Y-69330694D01*
X130282121Y-69508595D01*
X129895588Y-69766868D01*
X129566868Y-70095588D01*
X129308595Y-70482121D01*
X129130694Y-70911613D01*
X129040000Y-71367560D01*
X127242286Y-71367560D01*
X127190256Y-71332795D01*
X127001898Y-71254774D01*
X126801939Y-71215000D01*
X126598061Y-71215000D01*
X126398102Y-71254774D01*
X126209744Y-71332795D01*
X126040226Y-71446063D01*
X125896063Y-71590226D01*
X125782795Y-71759744D01*
X125704774Y-71948102D01*
X125665000Y-72148061D01*
X104065650Y-72148061D01*
X104203937Y-72009774D01*
X104317205Y-71840256D01*
X104395226Y-71651898D01*
X104435000Y-71451939D01*
X104435000Y-71248061D01*
X104395226Y-71048102D01*
X104317205Y-70859744D01*
X104203937Y-70690226D01*
X104059774Y-70546063D01*
X103890256Y-70432795D01*
X103701898Y-70354774D01*
X103501939Y-70315000D01*
X103298061Y-70315000D01*
X103098102Y-70354774D01*
X102909744Y-70432795D01*
X102740226Y-70546063D01*
X102596063Y-70690226D01*
X102482795Y-70859744D01*
X102404774Y-71048102D01*
X102365000Y-71248061D01*
X69665848Y-71248061D01*
X69629675Y-71066209D01*
X69491725Y-70733170D01*
X69291454Y-70433443D01*
X69036557Y-70178546D01*
X68736830Y-69978275D01*
X68403791Y-69840325D01*
X68050239Y-69770000D01*
X67689761Y-69770000D01*
X67336209Y-69840325D01*
X67003170Y-69978275D01*
X66703443Y-70178546D01*
X66448546Y-70433443D01*
X66248275Y-70733170D01*
X66110325Y-71066209D01*
X66040000Y-71419761D01*
X60460000Y-71419761D01*
X60460000Y-67598061D01*
X89465000Y-67598061D01*
X89465000Y-67801939D01*
X89504774Y-68001898D01*
X89582795Y-68190256D01*
X89696063Y-68359774D01*
X89840226Y-68503937D01*
X90009744Y-68617205D01*
X90198102Y-68695226D01*
X90398061Y-68735000D01*
X90601939Y-68735000D01*
X90801898Y-68695226D01*
X90990256Y-68617205D01*
X91093737Y-68548061D01*
X97415000Y-68548061D01*
X97415000Y-68751939D01*
X97454774Y-68951898D01*
X97532795Y-69140256D01*
X97646063Y-69309774D01*
X97790226Y-69453937D01*
X97959744Y-69567205D01*
X98148102Y-69645226D01*
X98348061Y-69685000D01*
X98380618Y-69685000D01*
X98382795Y-69690256D01*
X98496063Y-69859774D01*
X98640226Y-70003937D01*
X98809744Y-70117205D01*
X98998102Y-70195226D01*
X99198061Y-70235000D01*
X99401939Y-70235000D01*
X99601898Y-70195226D01*
X99722705Y-70145186D01*
X99782795Y-70290256D01*
X99896063Y-70459774D01*
X100040226Y-70603937D01*
X100209744Y-70717205D01*
X100398102Y-70795226D01*
X100598061Y-70835000D01*
X100801939Y-70835000D01*
X101001898Y-70795226D01*
X101190256Y-70717205D01*
X101359774Y-70603937D01*
X101503937Y-70459774D01*
X101617205Y-70290256D01*
X101695226Y-70101898D01*
X101735000Y-69901939D01*
X101735000Y-69698061D01*
X101695226Y-69498102D01*
X101617205Y-69309744D01*
X101503937Y-69140226D01*
X101359774Y-68996063D01*
X101190256Y-68882795D01*
X101001898Y-68804774D01*
X100993214Y-68803047D01*
X101030000Y-68618107D01*
X101030000Y-68414229D01*
X100990226Y-68214270D01*
X100962802Y-68148061D01*
X103615000Y-68148061D01*
X103615000Y-68351939D01*
X103654774Y-68551898D01*
X103732795Y-68740256D01*
X103846063Y-68909774D01*
X103990226Y-69053937D01*
X104159744Y-69167205D01*
X104348102Y-69245226D01*
X104548061Y-69285000D01*
X104751939Y-69285000D01*
X104951898Y-69245226D01*
X105140256Y-69167205D01*
X105309774Y-69053937D01*
X105453937Y-68909774D01*
X105567205Y-68740256D01*
X105645226Y-68551898D01*
X105685000Y-68351939D01*
X105685000Y-68148061D01*
X105645226Y-67948102D01*
X105567205Y-67759744D01*
X105453937Y-67590226D01*
X105309774Y-67446063D01*
X105140256Y-67332795D01*
X104951898Y-67254774D01*
X104751939Y-67215000D01*
X104548061Y-67215000D01*
X104348102Y-67254774D01*
X104159744Y-67332795D01*
X103990226Y-67446063D01*
X103846063Y-67590226D01*
X103732795Y-67759744D01*
X103654774Y-67948102D01*
X103615000Y-68148061D01*
X100962802Y-68148061D01*
X100912205Y-68025912D01*
X100798937Y-67856394D01*
X100654774Y-67712231D01*
X100485256Y-67598963D01*
X100296898Y-67520942D01*
X100096939Y-67481168D01*
X99893061Y-67481168D01*
X99693102Y-67520942D01*
X99504744Y-67598963D01*
X99335226Y-67712231D01*
X99191063Y-67856394D01*
X99162641Y-67898930D01*
X99109774Y-67846063D01*
X98940256Y-67732795D01*
X98751898Y-67654774D01*
X98551939Y-67615000D01*
X98348061Y-67615000D01*
X98148102Y-67654774D01*
X97959744Y-67732795D01*
X97790226Y-67846063D01*
X97646063Y-67990226D01*
X97532795Y-68159744D01*
X97454774Y-68348102D01*
X97415000Y-68548061D01*
X91093737Y-68548061D01*
X91159774Y-68503937D01*
X91303937Y-68359774D01*
X91417205Y-68190256D01*
X91495226Y-68001898D01*
X91535000Y-67801939D01*
X91535000Y-67598061D01*
X91495226Y-67398102D01*
X91417205Y-67209744D01*
X91303937Y-67040226D01*
X91159774Y-66896063D01*
X90990256Y-66782795D01*
X90801898Y-66704774D01*
X90601939Y-66665000D01*
X90398061Y-66665000D01*
X90198102Y-66704774D01*
X90009744Y-66782795D01*
X89840226Y-66896063D01*
X89696063Y-67040226D01*
X89582795Y-67209744D01*
X89504774Y-67398102D01*
X89465000Y-67598061D01*
X60460000Y-67598061D01*
X60460000Y-65848061D01*
X68815000Y-65848061D01*
X68815000Y-66051939D01*
X68854774Y-66251898D01*
X68932795Y-66440256D01*
X69046063Y-66609774D01*
X69190226Y-66753937D01*
X69359744Y-66867205D01*
X69548102Y-66945226D01*
X69748061Y-66985000D01*
X69951939Y-66985000D01*
X70151898Y-66945226D01*
X70340256Y-66867205D01*
X70509774Y-66753937D01*
X70653937Y-66609774D01*
X70767205Y-66440256D01*
X70845226Y-66251898D01*
X70885000Y-66051939D01*
X70885000Y-65848061D01*
X70845226Y-65648102D01*
X70767205Y-65459744D01*
X70653937Y-65290226D01*
X70509774Y-65146063D01*
X70340256Y-65032795D01*
X70151898Y-64954774D01*
X69951939Y-64915000D01*
X69748061Y-64915000D01*
X69548102Y-64954774D01*
X69359744Y-65032795D01*
X69190226Y-65146063D01*
X69046063Y-65290226D01*
X68932795Y-65459744D01*
X68854774Y-65648102D01*
X68815000Y-65848061D01*
X60460000Y-65848061D01*
X60460000Y-63948061D01*
X81515000Y-63948061D01*
X81515000Y-64151939D01*
X81554774Y-64351898D01*
X81632795Y-64540256D01*
X81746063Y-64709774D01*
X81890226Y-64853937D01*
X82015000Y-64937308D01*
X82015000Y-65001939D01*
X82054774Y-65201898D01*
X82132795Y-65390256D01*
X82246063Y-65559774D01*
X82390226Y-65703937D01*
X82559744Y-65817205D01*
X82748102Y-65895226D01*
X82948061Y-65935000D01*
X83151939Y-65935000D01*
X83351898Y-65895226D01*
X83540256Y-65817205D01*
X83709774Y-65703937D01*
X83853937Y-65559774D01*
X83928581Y-65448061D01*
X93215000Y-65448061D01*
X93215000Y-65651939D01*
X93254774Y-65851898D01*
X93332795Y-66040256D01*
X93446063Y-66209774D01*
X93590226Y-66353937D01*
X93759744Y-66467205D01*
X93948102Y-66545226D01*
X94148061Y-66585000D01*
X94351939Y-66585000D01*
X94551898Y-66545226D01*
X94557124Y-66543061D01*
X118546388Y-66543061D01*
X118546388Y-66746939D01*
X118586162Y-66946898D01*
X118664183Y-67135256D01*
X118777451Y-67304774D01*
X118921614Y-67448937D01*
X119091132Y-67562205D01*
X119279490Y-67640226D01*
X119479449Y-67680000D01*
X119683327Y-67680000D01*
X119883286Y-67640226D01*
X120071644Y-67562205D01*
X120241162Y-67448937D01*
X120385325Y-67304774D01*
X120423219Y-67248061D01*
X124315000Y-67248061D01*
X124315000Y-67451939D01*
X124354774Y-67651898D01*
X124432795Y-67840256D01*
X124546063Y-68009774D01*
X124690226Y-68153937D01*
X124859744Y-68267205D01*
X125048102Y-68345226D01*
X125248061Y-68385000D01*
X125451939Y-68385000D01*
X125651898Y-68345226D01*
X125840256Y-68267205D01*
X126009774Y-68153937D01*
X126153937Y-68009774D01*
X126267205Y-67840256D01*
X126345226Y-67651898D01*
X126365880Y-67548061D01*
X136815000Y-67548061D01*
X136815000Y-67751939D01*
X136854774Y-67951898D01*
X136932795Y-68140256D01*
X137046063Y-68309774D01*
X137190226Y-68453937D01*
X137359744Y-68567205D01*
X137548102Y-68645226D01*
X137748061Y-68685000D01*
X137951939Y-68685000D01*
X138151898Y-68645226D01*
X138340256Y-68567205D01*
X138509774Y-68453937D01*
X138653937Y-68309774D01*
X138767205Y-68140256D01*
X138845226Y-67951898D01*
X138885000Y-67751939D01*
X138885000Y-67548061D01*
X138845226Y-67348102D01*
X138767205Y-67159744D01*
X138653937Y-66990226D01*
X138509774Y-66846063D01*
X138340256Y-66732795D01*
X138151898Y-66654774D01*
X137951939Y-66615000D01*
X137748061Y-66615000D01*
X137548102Y-66654774D01*
X137359744Y-66732795D01*
X137190226Y-66846063D01*
X137046063Y-66990226D01*
X136932795Y-67159744D01*
X136854774Y-67348102D01*
X136815000Y-67548061D01*
X126365880Y-67548061D01*
X126385000Y-67451939D01*
X126385000Y-67248061D01*
X126345226Y-67048102D01*
X126267205Y-66859744D01*
X126153937Y-66690226D01*
X126009774Y-66546063D01*
X125840256Y-66432795D01*
X125651898Y-66354774D01*
X125451939Y-66315000D01*
X125248061Y-66315000D01*
X125048102Y-66354774D01*
X124859744Y-66432795D01*
X124690226Y-66546063D01*
X124546063Y-66690226D01*
X124432795Y-66859744D01*
X124354774Y-67048102D01*
X124315000Y-67248061D01*
X120423219Y-67248061D01*
X120498593Y-67135256D01*
X120576614Y-66946898D01*
X120616388Y-66746939D01*
X120616388Y-66543061D01*
X120576614Y-66343102D01*
X120498593Y-66154744D01*
X120385325Y-65985226D01*
X120241162Y-65841063D01*
X120071644Y-65727795D01*
X119883286Y-65649774D01*
X119683327Y-65610000D01*
X119479449Y-65610000D01*
X119279490Y-65649774D01*
X119091132Y-65727795D01*
X118921614Y-65841063D01*
X118777451Y-65985226D01*
X118664183Y-66154744D01*
X118586162Y-66343102D01*
X118546388Y-66543061D01*
X94557124Y-66543061D01*
X94740256Y-66467205D01*
X94909774Y-66353937D01*
X95053937Y-66209774D01*
X95167205Y-66040256D01*
X95245226Y-65851898D01*
X95285000Y-65651939D01*
X95285000Y-65448061D01*
X95245226Y-65248102D01*
X95167205Y-65059744D01*
X95053937Y-64890226D01*
X94909774Y-64746063D01*
X94740256Y-64632795D01*
X94551898Y-64554774D01*
X94351939Y-64515000D01*
X94148061Y-64515000D01*
X93948102Y-64554774D01*
X93759744Y-64632795D01*
X93590226Y-64746063D01*
X93446063Y-64890226D01*
X93332795Y-65059744D01*
X93254774Y-65248102D01*
X93215000Y-65448061D01*
X83928581Y-65448061D01*
X83967205Y-65390256D01*
X84045226Y-65201898D01*
X84085000Y-65001939D01*
X84085000Y-64798061D01*
X84045226Y-64598102D01*
X83967205Y-64409744D01*
X83853937Y-64240226D01*
X83709774Y-64096063D01*
X83585000Y-64012692D01*
X83585000Y-63948061D01*
X83545226Y-63748102D01*
X83467205Y-63559744D01*
X83353937Y-63390226D01*
X83209774Y-63246063D01*
X83040256Y-63132795D01*
X82851898Y-63054774D01*
X82651939Y-63015000D01*
X82448061Y-63015000D01*
X82248102Y-63054774D01*
X82059744Y-63132795D01*
X81890226Y-63246063D01*
X81746063Y-63390226D01*
X81632795Y-63559744D01*
X81554774Y-63748102D01*
X81515000Y-63948061D01*
X60460000Y-63948061D01*
X60460000Y-62848061D01*
X97265000Y-62848061D01*
X97265000Y-63051939D01*
X97304774Y-63251898D01*
X97382795Y-63440256D01*
X97496063Y-63609774D01*
X97640226Y-63753937D01*
X97809744Y-63867205D01*
X97998102Y-63945226D01*
X98198061Y-63985000D01*
X98401939Y-63985000D01*
X98601898Y-63945226D01*
X98790256Y-63867205D01*
X98959774Y-63753937D01*
X99103937Y-63609774D01*
X99145172Y-63548061D01*
X106015000Y-63548061D01*
X106015000Y-63751939D01*
X106054774Y-63951898D01*
X106132795Y-64140256D01*
X106246063Y-64309774D01*
X106390226Y-64453937D01*
X106559744Y-64567205D01*
X106748102Y-64645226D01*
X106948061Y-64685000D01*
X106968224Y-64685000D01*
X106934362Y-64735678D01*
X106856341Y-64924036D01*
X106816567Y-65123995D01*
X106816567Y-65327873D01*
X106856341Y-65527832D01*
X106934362Y-65716190D01*
X107047630Y-65885708D01*
X107191793Y-66029871D01*
X107361311Y-66143139D01*
X107549669Y-66221160D01*
X107749628Y-66260934D01*
X107953506Y-66260934D01*
X108153465Y-66221160D01*
X108341823Y-66143139D01*
X108511341Y-66029871D01*
X108655504Y-65885708D01*
X108768772Y-65716190D01*
X108846793Y-65527832D01*
X108886567Y-65327873D01*
X108886567Y-65123995D01*
X108846793Y-64924036D01*
X108768772Y-64735678D01*
X108655504Y-64566160D01*
X108511341Y-64421997D01*
X108406457Y-64351916D01*
X108490256Y-64317205D01*
X108659774Y-64203937D01*
X108803937Y-64059774D01*
X108864946Y-63968468D01*
X108948061Y-63985000D01*
X109151939Y-63985000D01*
X109351898Y-63945226D01*
X109540256Y-63867205D01*
X109709774Y-63753937D01*
X109853937Y-63609774D01*
X109967205Y-63440256D01*
X110045226Y-63251898D01*
X110085000Y-63051939D01*
X110085000Y-62848061D01*
X110045226Y-62648102D01*
X109967205Y-62459744D01*
X109882410Y-62332839D01*
X109895226Y-62301898D01*
X109935000Y-62101939D01*
X109935000Y-61898061D01*
X109895226Y-61698102D01*
X109817205Y-61509744D01*
X109781356Y-61456092D01*
X109845226Y-61301898D01*
X109885000Y-61101939D01*
X109885000Y-60898061D01*
X109845226Y-60698102D01*
X109767205Y-60509744D01*
X109653937Y-60340226D01*
X109511772Y-60198061D01*
X114615000Y-60198061D01*
X114615000Y-60401939D01*
X114654774Y-60601898D01*
X114732795Y-60790256D01*
X114846063Y-60959774D01*
X114990226Y-61103937D01*
X115159744Y-61217205D01*
X115348102Y-61295226D01*
X115548061Y-61335000D01*
X115751939Y-61335000D01*
X115951898Y-61295226D01*
X116140256Y-61217205D01*
X116309774Y-61103937D01*
X116428929Y-60984782D01*
X116529186Y-61026310D01*
X116729145Y-61066084D01*
X116933023Y-61066084D01*
X117132982Y-61026310D01*
X117321340Y-60948289D01*
X117490858Y-60835021D01*
X117635021Y-60690858D01*
X117748289Y-60521340D01*
X117826310Y-60332982D01*
X117866084Y-60133023D01*
X117866084Y-59929145D01*
X117826310Y-59729186D01*
X117748289Y-59540828D01*
X117635021Y-59371310D01*
X117490858Y-59227147D01*
X117321340Y-59113879D01*
X117132982Y-59035858D01*
X116933023Y-58996084D01*
X116729145Y-58996084D01*
X116529186Y-59035858D01*
X116340828Y-59113879D01*
X116171310Y-59227147D01*
X116052155Y-59346302D01*
X115951898Y-59304774D01*
X115751939Y-59265000D01*
X115548061Y-59265000D01*
X115348102Y-59304774D01*
X115159744Y-59382795D01*
X114990226Y-59496063D01*
X114846063Y-59640226D01*
X114732795Y-59809744D01*
X114654774Y-59998102D01*
X114615000Y-60198061D01*
X109511772Y-60198061D01*
X109509774Y-60196063D01*
X109340256Y-60082795D01*
X109151898Y-60004774D01*
X108951939Y-59965000D01*
X108748061Y-59965000D01*
X108723725Y-59969841D01*
X108703937Y-59940226D01*
X108559774Y-59796063D01*
X108390256Y-59682795D01*
X108201898Y-59604774D01*
X108001939Y-59565000D01*
X107798061Y-59565000D01*
X107598102Y-59604774D01*
X107409744Y-59682795D01*
X107240226Y-59796063D01*
X107096063Y-59940226D01*
X106982795Y-60109744D01*
X106904774Y-60298102D01*
X106865000Y-60498061D01*
X106865000Y-60701939D01*
X106904774Y-60901898D01*
X106982795Y-61090256D01*
X107096063Y-61259774D01*
X107240226Y-61403937D01*
X107409744Y-61517205D01*
X107598102Y-61595226D01*
X107798061Y-61635000D01*
X107930912Y-61635000D01*
X107904774Y-61698102D01*
X107865000Y-61898061D01*
X107865000Y-62101939D01*
X107904774Y-62301898D01*
X107930912Y-62365000D01*
X107898061Y-62365000D01*
X107698102Y-62404774D01*
X107509744Y-62482795D01*
X107340226Y-62596063D01*
X107293192Y-62643097D01*
X107151939Y-62615000D01*
X106948061Y-62615000D01*
X106748102Y-62654774D01*
X106559744Y-62732795D01*
X106390226Y-62846063D01*
X106246063Y-62990226D01*
X106132795Y-63159744D01*
X106054774Y-63348102D01*
X106015000Y-63548061D01*
X99145172Y-63548061D01*
X99217205Y-63440256D01*
X99295226Y-63251898D01*
X99335000Y-63051939D01*
X99335000Y-62848061D01*
X99295226Y-62648102D01*
X99217205Y-62459744D01*
X99103937Y-62290226D01*
X98959774Y-62146063D01*
X98790256Y-62032795D01*
X98601898Y-61954774D01*
X98401939Y-61915000D01*
X98198061Y-61915000D01*
X97998102Y-61954774D01*
X97809744Y-62032795D01*
X97640226Y-62146063D01*
X97496063Y-62290226D01*
X97382795Y-62459744D01*
X97304774Y-62648102D01*
X97265000Y-62848061D01*
X60460000Y-62848061D01*
X60460000Y-59498061D01*
X74665000Y-59498061D01*
X74665000Y-59701939D01*
X74704774Y-59901898D01*
X74782795Y-60090256D01*
X74896063Y-60259774D01*
X75040226Y-60403937D01*
X75209744Y-60517205D01*
X75398102Y-60595226D01*
X75598061Y-60635000D01*
X75801939Y-60635000D01*
X76001898Y-60595226D01*
X76190256Y-60517205D01*
X76359774Y-60403937D01*
X76503937Y-60259774D01*
X76617205Y-60090256D01*
X76695226Y-59901898D01*
X76735000Y-59701939D01*
X76735000Y-59598061D01*
X94515000Y-59598061D01*
X94515000Y-59801939D01*
X94554774Y-60001898D01*
X94632795Y-60190256D01*
X94746063Y-60359774D01*
X94890226Y-60503937D01*
X95059744Y-60617205D01*
X95248102Y-60695226D01*
X95448061Y-60735000D01*
X95651939Y-60735000D01*
X95851898Y-60695226D01*
X96040256Y-60617205D01*
X96209774Y-60503937D01*
X96353937Y-60359774D01*
X96467205Y-60190256D01*
X96545226Y-60001898D01*
X96565880Y-59898061D01*
X98765000Y-59898061D01*
X98765000Y-60101939D01*
X98804774Y-60301898D01*
X98882795Y-60490256D01*
X98996063Y-60659774D01*
X99140226Y-60803937D01*
X99309744Y-60917205D01*
X99498102Y-60995226D01*
X99698061Y-61035000D01*
X99901939Y-61035000D01*
X100101898Y-60995226D01*
X100194570Y-60956840D01*
X100359744Y-61067205D01*
X100548102Y-61145226D01*
X100748061Y-61185000D01*
X100951939Y-61185000D01*
X101151898Y-61145226D01*
X101340256Y-61067205D01*
X101400000Y-61027285D01*
X101459744Y-61067205D01*
X101648102Y-61145226D01*
X101848061Y-61185000D01*
X102051939Y-61185000D01*
X102251898Y-61145226D01*
X102440256Y-61067205D01*
X102609774Y-60953937D01*
X102753937Y-60809774D01*
X102867205Y-60640256D01*
X102945226Y-60451898D01*
X102985000Y-60251939D01*
X102985000Y-60048061D01*
X102945226Y-59848102D01*
X102867205Y-59659744D01*
X102753937Y-59490226D01*
X102609774Y-59346063D01*
X102440256Y-59232795D01*
X102251898Y-59154774D01*
X102051939Y-59115000D01*
X101848061Y-59115000D01*
X101648102Y-59154774D01*
X101459744Y-59232795D01*
X101400000Y-59272715D01*
X101340256Y-59232795D01*
X101151898Y-59154774D01*
X100951939Y-59115000D01*
X100748061Y-59115000D01*
X100548102Y-59154774D01*
X100455430Y-59193160D01*
X100290256Y-59082795D01*
X100101898Y-59004774D01*
X99901939Y-58965000D01*
X99698061Y-58965000D01*
X99498102Y-59004774D01*
X99309744Y-59082795D01*
X99140226Y-59196063D01*
X98996063Y-59340226D01*
X98882795Y-59509744D01*
X98804774Y-59698102D01*
X98765000Y-59898061D01*
X96565880Y-59898061D01*
X96585000Y-59801939D01*
X96585000Y-59598061D01*
X96545226Y-59398102D01*
X96467205Y-59209744D01*
X96353937Y-59040226D01*
X96209774Y-58896063D01*
X96040256Y-58782795D01*
X95956402Y-58748061D01*
X96615000Y-58748061D01*
X96615000Y-58951939D01*
X96654774Y-59151898D01*
X96732795Y-59340256D01*
X96846063Y-59509774D01*
X96990226Y-59653937D01*
X97159744Y-59767205D01*
X97348102Y-59845226D01*
X97548061Y-59885000D01*
X97751939Y-59885000D01*
X97951898Y-59845226D01*
X98140256Y-59767205D01*
X98309774Y-59653937D01*
X98453937Y-59509774D01*
X98567205Y-59340256D01*
X98645226Y-59151898D01*
X98685000Y-58951939D01*
X98685000Y-58748061D01*
X98645226Y-58548102D01*
X98567205Y-58359744D01*
X98453937Y-58190226D01*
X98309774Y-58046063D01*
X98140256Y-57932795D01*
X98056402Y-57898061D01*
X103915000Y-57898061D01*
X103915000Y-58101939D01*
X103954774Y-58301898D01*
X104032795Y-58490256D01*
X104146063Y-58659774D01*
X104290226Y-58803937D01*
X104459744Y-58917205D01*
X104648102Y-58995226D01*
X104848061Y-59035000D01*
X105051939Y-59035000D01*
X105251898Y-58995226D01*
X105440256Y-58917205D01*
X105609774Y-58803937D01*
X105753937Y-58659774D01*
X105867205Y-58490256D01*
X105945226Y-58301898D01*
X105965880Y-58198061D01*
X120115000Y-58198061D01*
X120115000Y-58401939D01*
X120154774Y-58601898D01*
X120232795Y-58790256D01*
X120346063Y-58959774D01*
X120490226Y-59103937D01*
X120659744Y-59217205D01*
X120848102Y-59295226D01*
X121048061Y-59335000D01*
X121251939Y-59335000D01*
X121451898Y-59295226D01*
X121640256Y-59217205D01*
X121809774Y-59103937D01*
X121953937Y-58959774D01*
X122067205Y-58790256D01*
X122145226Y-58601898D01*
X122185000Y-58401939D01*
X122185000Y-58198061D01*
X122145226Y-57998102D01*
X122067205Y-57809744D01*
X121953937Y-57640226D01*
X121809774Y-57496063D01*
X121640256Y-57382795D01*
X121451898Y-57304774D01*
X121251939Y-57265000D01*
X121048061Y-57265000D01*
X120848102Y-57304774D01*
X120659744Y-57382795D01*
X120490226Y-57496063D01*
X120346063Y-57640226D01*
X120232795Y-57809744D01*
X120154774Y-57998102D01*
X120115000Y-58198061D01*
X105965880Y-58198061D01*
X105985000Y-58101939D01*
X105985000Y-57898061D01*
X105945226Y-57698102D01*
X105867205Y-57509744D01*
X105753937Y-57340226D01*
X105609774Y-57196063D01*
X105440256Y-57082795D01*
X105251898Y-57004774D01*
X105051939Y-56965000D01*
X104848061Y-56965000D01*
X104648102Y-57004774D01*
X104459744Y-57082795D01*
X104290226Y-57196063D01*
X104146063Y-57340226D01*
X104032795Y-57509744D01*
X103954774Y-57698102D01*
X103915000Y-57898061D01*
X98056402Y-57898061D01*
X97951898Y-57854774D01*
X97751939Y-57815000D01*
X97548061Y-57815000D01*
X97348102Y-57854774D01*
X97159744Y-57932795D01*
X96990226Y-58046063D01*
X96846063Y-58190226D01*
X96732795Y-58359744D01*
X96654774Y-58548102D01*
X96615000Y-58748061D01*
X95956402Y-58748061D01*
X95851898Y-58704774D01*
X95651939Y-58665000D01*
X95448061Y-58665000D01*
X95248102Y-58704774D01*
X95059744Y-58782795D01*
X94890226Y-58896063D01*
X94746063Y-59040226D01*
X94632795Y-59209744D01*
X94554774Y-59398102D01*
X94515000Y-59598061D01*
X76735000Y-59598061D01*
X76735000Y-59498061D01*
X76695226Y-59298102D01*
X76617205Y-59109744D01*
X76503937Y-58940226D01*
X76359774Y-58796063D01*
X76190256Y-58682795D01*
X76001898Y-58604774D01*
X75801939Y-58565000D01*
X75598061Y-58565000D01*
X75398102Y-58604774D01*
X75209744Y-58682795D01*
X75040226Y-58796063D01*
X74896063Y-58940226D01*
X74782795Y-59109744D01*
X74704774Y-59298102D01*
X74665000Y-59498061D01*
X60460000Y-59498061D01*
X60460000Y-56848061D01*
X72315000Y-56848061D01*
X72315000Y-57051939D01*
X72354774Y-57251898D01*
X72432795Y-57440256D01*
X72546063Y-57609774D01*
X72690226Y-57753937D01*
X72859744Y-57867205D01*
X73048102Y-57945226D01*
X73248061Y-57985000D01*
X73451939Y-57985000D01*
X73651898Y-57945226D01*
X73840256Y-57867205D01*
X74009774Y-57753937D01*
X74153937Y-57609774D01*
X74267205Y-57440256D01*
X74308781Y-57339883D01*
X74563265Y-57594367D01*
X74983796Y-57875357D01*
X75451066Y-58068906D01*
X75947116Y-58167577D01*
X76452884Y-58167577D01*
X76948934Y-58068906D01*
X77416204Y-57875357D01*
X77836735Y-57594367D01*
X78194367Y-57236735D01*
X78475357Y-56816204D01*
X78668906Y-56348934D01*
X78767577Y-55852884D01*
X78767577Y-55798061D01*
X95865000Y-55798061D01*
X95865000Y-56001939D01*
X95904774Y-56201898D01*
X95982795Y-56390256D01*
X96096063Y-56559774D01*
X96240226Y-56703937D01*
X96409744Y-56817205D01*
X96598102Y-56895226D01*
X96798061Y-56935000D01*
X97001939Y-56935000D01*
X97201898Y-56895226D01*
X97390256Y-56817205D01*
X97559774Y-56703937D01*
X97703937Y-56559774D01*
X97817205Y-56390256D01*
X97834682Y-56348061D01*
X105815000Y-56348061D01*
X105815000Y-56551939D01*
X105854774Y-56751898D01*
X105932795Y-56940256D01*
X106046063Y-57109774D01*
X106190226Y-57253937D01*
X106359744Y-57367205D01*
X106548102Y-57445226D01*
X106748061Y-57485000D01*
X106951939Y-57485000D01*
X107151898Y-57445226D01*
X107340256Y-57367205D01*
X107509774Y-57253937D01*
X107653937Y-57109774D01*
X107767205Y-56940256D01*
X107845226Y-56751898D01*
X107885000Y-56551939D01*
X107885000Y-56348061D01*
X107845226Y-56148102D01*
X107767205Y-55959744D01*
X107653937Y-55790226D01*
X107509774Y-55646063D01*
X107340256Y-55532795D01*
X107151898Y-55454774D01*
X106951939Y-55415000D01*
X106748061Y-55415000D01*
X106548102Y-55454774D01*
X106359744Y-55532795D01*
X106190226Y-55646063D01*
X106046063Y-55790226D01*
X105932795Y-55959744D01*
X105854774Y-56148102D01*
X105815000Y-56348061D01*
X97834682Y-56348061D01*
X97895226Y-56201898D01*
X97935000Y-56001939D01*
X97935000Y-55798061D01*
X97895226Y-55598102D01*
X97817205Y-55409744D01*
X97703937Y-55240226D01*
X97559774Y-55096063D01*
X97413104Y-54998061D01*
X101815000Y-54998061D01*
X101815000Y-55201939D01*
X101854774Y-55401898D01*
X101932795Y-55590256D01*
X102046063Y-55759774D01*
X102190226Y-55903937D01*
X102359744Y-56017205D01*
X102548102Y-56095226D01*
X102748061Y-56135000D01*
X102951939Y-56135000D01*
X103151898Y-56095226D01*
X103340256Y-56017205D01*
X103509774Y-55903937D01*
X103653937Y-55759774D01*
X103767205Y-55590256D01*
X103845226Y-55401898D01*
X103885000Y-55201939D01*
X103885000Y-54998061D01*
X103845226Y-54798102D01*
X103767205Y-54609744D01*
X103746901Y-54579356D01*
X103859774Y-54503937D01*
X104003937Y-54359774D01*
X104117205Y-54190256D01*
X104195226Y-54001898D01*
X104235000Y-53801939D01*
X104235000Y-53698061D01*
X106115000Y-53698061D01*
X106115000Y-53901939D01*
X106154774Y-54101898D01*
X106232795Y-54290256D01*
X106346063Y-54459774D01*
X106490226Y-54603937D01*
X106659744Y-54717205D01*
X106848102Y-54795226D01*
X107048061Y-54835000D01*
X107251939Y-54835000D01*
X107451898Y-54795226D01*
X107640256Y-54717205D01*
X107809774Y-54603937D01*
X107953937Y-54459774D01*
X108067205Y-54290256D01*
X108145226Y-54101898D01*
X108185000Y-53901939D01*
X108185000Y-53698061D01*
X108145226Y-53498102D01*
X108067205Y-53309744D01*
X108059399Y-53298061D01*
X121865000Y-53298061D01*
X121865000Y-53501939D01*
X121904774Y-53701898D01*
X121982795Y-53890256D01*
X122022715Y-53950000D01*
X121982795Y-54009744D01*
X121904774Y-54198102D01*
X121865000Y-54398061D01*
X121865000Y-54601939D01*
X121904774Y-54801898D01*
X121982795Y-54990256D01*
X122075080Y-55128370D01*
X122004774Y-55298102D01*
X121965000Y-55498061D01*
X121965000Y-55701939D01*
X122004774Y-55901898D01*
X122082795Y-56090256D01*
X122175080Y-56228370D01*
X122104774Y-56398102D01*
X122065000Y-56598061D01*
X122065000Y-56801939D01*
X122104774Y-57001898D01*
X122182795Y-57190256D01*
X122296063Y-57359774D01*
X122440226Y-57503937D01*
X122609744Y-57617205D01*
X122798102Y-57695226D01*
X122998061Y-57735000D01*
X123201939Y-57735000D01*
X123401898Y-57695226D01*
X123590256Y-57617205D01*
X123759774Y-57503937D01*
X123815650Y-57448061D01*
X136765000Y-57448061D01*
X136765000Y-57651939D01*
X136804774Y-57851898D01*
X136882795Y-58040256D01*
X136996063Y-58209774D01*
X137140226Y-58353937D01*
X137309744Y-58467205D01*
X137498102Y-58545226D01*
X137698061Y-58585000D01*
X137901939Y-58585000D01*
X138101898Y-58545226D01*
X138290256Y-58467205D01*
X138459774Y-58353937D01*
X138603937Y-58209774D01*
X138717205Y-58040256D01*
X138795226Y-57851898D01*
X138835000Y-57651939D01*
X138835000Y-57448061D01*
X138795226Y-57248102D01*
X138717205Y-57059744D01*
X138603937Y-56890226D01*
X138459774Y-56746063D01*
X138290256Y-56632795D01*
X138101898Y-56554774D01*
X138068150Y-56548061D01*
X143315000Y-56548061D01*
X143315000Y-56751939D01*
X143354774Y-56951898D01*
X143432795Y-57140256D01*
X143546063Y-57309774D01*
X143690226Y-57453937D01*
X143859744Y-57567205D01*
X144048102Y-57645226D01*
X144248061Y-57685000D01*
X144451939Y-57685000D01*
X144651898Y-57645226D01*
X144840256Y-57567205D01*
X145009774Y-57453937D01*
X145153937Y-57309774D01*
X145267205Y-57140256D01*
X145345226Y-56951898D01*
X145385000Y-56751939D01*
X145385000Y-56548061D01*
X145345226Y-56348102D01*
X145267205Y-56159744D01*
X145153937Y-55990226D01*
X145009774Y-55846063D01*
X144840256Y-55732795D01*
X144651898Y-55654774D01*
X144451939Y-55615000D01*
X144248061Y-55615000D01*
X144048102Y-55654774D01*
X143859744Y-55732795D01*
X143690226Y-55846063D01*
X143546063Y-55990226D01*
X143432795Y-56159744D01*
X143354774Y-56348102D01*
X143315000Y-56548061D01*
X138068150Y-56548061D01*
X137901939Y-56515000D01*
X137698061Y-56515000D01*
X137498102Y-56554774D01*
X137309744Y-56632795D01*
X137140226Y-56746063D01*
X136996063Y-56890226D01*
X136882795Y-57059744D01*
X136804774Y-57248102D01*
X136765000Y-57448061D01*
X123815650Y-57448061D01*
X123903937Y-57359774D01*
X124017205Y-57190256D01*
X124095226Y-57001898D01*
X124135000Y-56801939D01*
X124135000Y-56598061D01*
X124095226Y-56398102D01*
X124017205Y-56209744D01*
X123924920Y-56071630D01*
X123995226Y-55901898D01*
X124035000Y-55701939D01*
X124035000Y-55498061D01*
X123995226Y-55298102D01*
X123917205Y-55109744D01*
X123824920Y-54971630D01*
X123895226Y-54801898D01*
X123935000Y-54601939D01*
X123935000Y-54498061D01*
X130365000Y-54498061D01*
X130365000Y-54701939D01*
X130404774Y-54901898D01*
X130482795Y-55090256D01*
X130596063Y-55259774D01*
X130740226Y-55403937D01*
X130909744Y-55517205D01*
X131098102Y-55595226D01*
X131298061Y-55635000D01*
X131501939Y-55635000D01*
X131701898Y-55595226D01*
X131890256Y-55517205D01*
X132059774Y-55403937D01*
X132203937Y-55259774D01*
X132317205Y-55090256D01*
X132395226Y-54901898D01*
X132412924Y-54812924D01*
X132501898Y-54795226D01*
X132690256Y-54717205D01*
X132859774Y-54603937D01*
X133003937Y-54459774D01*
X133117205Y-54290256D01*
X133195226Y-54101898D01*
X133235000Y-53901939D01*
X133235000Y-53698061D01*
X133195226Y-53498102D01*
X133117205Y-53309744D01*
X133003937Y-53140226D01*
X132859774Y-52996063D01*
X132690256Y-52882795D01*
X132501898Y-52804774D01*
X132301939Y-52765000D01*
X132098061Y-52765000D01*
X131898102Y-52804774D01*
X131709744Y-52882795D01*
X131540226Y-52996063D01*
X131396063Y-53140226D01*
X131282795Y-53309744D01*
X131204774Y-53498102D01*
X131187076Y-53587076D01*
X131098102Y-53604774D01*
X130909744Y-53682795D01*
X130740226Y-53796063D01*
X130596063Y-53940226D01*
X130482795Y-54109744D01*
X130404774Y-54298102D01*
X130365000Y-54498061D01*
X123935000Y-54498061D01*
X123935000Y-54398061D01*
X123895226Y-54198102D01*
X123817205Y-54009744D01*
X123777285Y-53950000D01*
X123817205Y-53890256D01*
X123895226Y-53701898D01*
X123935000Y-53501939D01*
X123935000Y-53298061D01*
X123895226Y-53098102D01*
X123817205Y-52909744D01*
X123703937Y-52740226D01*
X123559774Y-52596063D01*
X123390256Y-52482795D01*
X123201898Y-52404774D01*
X123001939Y-52365000D01*
X122798061Y-52365000D01*
X122598102Y-52404774D01*
X122409744Y-52482795D01*
X122240226Y-52596063D01*
X122096063Y-52740226D01*
X121982795Y-52909744D01*
X121904774Y-53098102D01*
X121865000Y-53298061D01*
X108059399Y-53298061D01*
X107953937Y-53140226D01*
X107809774Y-52996063D01*
X107640256Y-52882795D01*
X107451898Y-52804774D01*
X107251939Y-52765000D01*
X107048061Y-52765000D01*
X106848102Y-52804774D01*
X106659744Y-52882795D01*
X106490226Y-52996063D01*
X106346063Y-53140226D01*
X106232795Y-53309744D01*
X106154774Y-53498102D01*
X106115000Y-53698061D01*
X104235000Y-53698061D01*
X104235000Y-53598061D01*
X104195226Y-53398102D01*
X104117205Y-53209744D01*
X104003937Y-53040226D01*
X103859774Y-52896063D01*
X103690256Y-52782795D01*
X103501898Y-52704774D01*
X103301939Y-52665000D01*
X103098061Y-52665000D01*
X102898102Y-52704774D01*
X102709744Y-52782795D01*
X102540226Y-52896063D01*
X102396063Y-53040226D01*
X102282795Y-53209744D01*
X102204774Y-53398102D01*
X102165000Y-53598061D01*
X102165000Y-53801939D01*
X102204774Y-54001898D01*
X102282795Y-54190256D01*
X102303099Y-54220644D01*
X102190226Y-54296063D01*
X102046063Y-54440226D01*
X101932795Y-54609744D01*
X101854774Y-54798102D01*
X101815000Y-54998061D01*
X97413104Y-54998061D01*
X97390256Y-54982795D01*
X97201898Y-54904774D01*
X97001939Y-54865000D01*
X96798061Y-54865000D01*
X96598102Y-54904774D01*
X96409744Y-54982795D01*
X96240226Y-55096063D01*
X96096063Y-55240226D01*
X95982795Y-55409744D01*
X95904774Y-55598102D01*
X95865000Y-55798061D01*
X78767577Y-55798061D01*
X78767577Y-55347116D01*
X78668906Y-54851066D01*
X78475357Y-54383796D01*
X78194367Y-53963265D01*
X77836735Y-53605633D01*
X77416204Y-53324643D01*
X76948934Y-53131094D01*
X76452884Y-53032423D01*
X75947116Y-53032423D01*
X75451066Y-53131094D01*
X74983796Y-53324643D01*
X74563265Y-53605633D01*
X74205633Y-53963265D01*
X73924643Y-54383796D01*
X73731094Y-54851066D01*
X73632423Y-55347116D01*
X73632423Y-55852884D01*
X73652761Y-55955132D01*
X73651898Y-55954774D01*
X73451939Y-55915000D01*
X73248061Y-55915000D01*
X73048102Y-55954774D01*
X72859744Y-56032795D01*
X72690226Y-56146063D01*
X72546063Y-56290226D01*
X72432795Y-56459744D01*
X72354774Y-56648102D01*
X72315000Y-56848061D01*
X60460000Y-56848061D01*
X60460000Y-52300807D01*
X60597912Y-52507207D01*
X60992793Y-52902088D01*
X61457124Y-53212344D01*
X61973061Y-53426052D01*
X62520777Y-53535000D01*
X63079223Y-53535000D01*
X63626939Y-53426052D01*
X64142876Y-53212344D01*
X64607207Y-52902088D01*
X65002088Y-52507207D01*
X65312344Y-52042876D01*
X65415789Y-51793137D01*
X65865000Y-51793137D01*
X65865000Y-52006863D01*
X65906696Y-52216483D01*
X65988485Y-52413940D01*
X66107225Y-52591647D01*
X66258353Y-52742775D01*
X66436060Y-52861515D01*
X66633517Y-52943304D01*
X66843137Y-52985000D01*
X67056863Y-52985000D01*
X67266483Y-52943304D01*
X67463940Y-52861515D01*
X67641647Y-52742775D01*
X67792775Y-52591647D01*
X67911515Y-52413940D01*
X67993304Y-52216483D01*
X68035000Y-52006863D01*
X68035000Y-51793137D01*
X72665000Y-51793137D01*
X72665000Y-52006863D01*
X72706696Y-52216483D01*
X72788485Y-52413940D01*
X72907225Y-52591647D01*
X73058353Y-52742775D01*
X73236060Y-52861515D01*
X73433517Y-52943304D01*
X73643137Y-52985000D01*
X73856863Y-52985000D01*
X74066483Y-52943304D01*
X74263940Y-52861515D01*
X74441647Y-52742775D01*
X74592775Y-52591647D01*
X74711515Y-52413940D01*
X74793304Y-52216483D01*
X74835000Y-52006863D01*
X74835000Y-51793137D01*
X74793304Y-51583517D01*
X74711515Y-51386060D01*
X74652716Y-51298061D01*
X83165000Y-51298061D01*
X83165000Y-51501939D01*
X83204774Y-51701898D01*
X83282795Y-51890256D01*
X83396063Y-52059774D01*
X83540226Y-52203937D01*
X83709744Y-52317205D01*
X83898102Y-52395226D01*
X84098061Y-52435000D01*
X84301939Y-52435000D01*
X84501898Y-52395226D01*
X84690256Y-52317205D01*
X84859774Y-52203937D01*
X85003937Y-52059774D01*
X85117205Y-51890256D01*
X85195226Y-51701898D01*
X85235000Y-51501939D01*
X85235000Y-51348061D01*
X87415000Y-51348061D01*
X87415000Y-51551939D01*
X87454774Y-51751898D01*
X87532795Y-51940256D01*
X87646063Y-52109774D01*
X87790226Y-52253937D01*
X87959744Y-52367205D01*
X88148102Y-52445226D01*
X88348061Y-52485000D01*
X88551939Y-52485000D01*
X88751898Y-52445226D01*
X88940256Y-52367205D01*
X89109774Y-52253937D01*
X89253937Y-52109774D01*
X89367205Y-51940256D01*
X89445226Y-51751898D01*
X89485000Y-51551939D01*
X89485000Y-51348061D01*
X89445226Y-51148102D01*
X89367205Y-50959744D01*
X89253937Y-50790226D01*
X89109774Y-50646063D01*
X88940256Y-50532795D01*
X88751898Y-50454774D01*
X88551939Y-50415000D01*
X88348061Y-50415000D01*
X88148102Y-50454774D01*
X87959744Y-50532795D01*
X87790226Y-50646063D01*
X87646063Y-50790226D01*
X87532795Y-50959744D01*
X87454774Y-51148102D01*
X87415000Y-51348061D01*
X85235000Y-51348061D01*
X85235000Y-51298061D01*
X85195226Y-51098102D01*
X85117205Y-50909744D01*
X85003937Y-50740226D01*
X84859774Y-50596063D01*
X84690256Y-50482795D01*
X84501898Y-50404774D01*
X84301939Y-50365000D01*
X84098061Y-50365000D01*
X83898102Y-50404774D01*
X83709744Y-50482795D01*
X83540226Y-50596063D01*
X83396063Y-50740226D01*
X83282795Y-50909744D01*
X83204774Y-51098102D01*
X83165000Y-51298061D01*
X74652716Y-51298061D01*
X74592775Y-51208353D01*
X74441647Y-51057225D01*
X74263940Y-50938485D01*
X74066483Y-50856696D01*
X73856863Y-50815000D01*
X73643137Y-50815000D01*
X73433517Y-50856696D01*
X73236060Y-50938485D01*
X73058353Y-51057225D01*
X72907225Y-51208353D01*
X72788485Y-51386060D01*
X72706696Y-51583517D01*
X72665000Y-51793137D01*
X68035000Y-51793137D01*
X67993304Y-51583517D01*
X67911515Y-51386060D01*
X67792775Y-51208353D01*
X67641647Y-51057225D01*
X67463940Y-50938485D01*
X67266483Y-50856696D01*
X67056863Y-50815000D01*
X66843137Y-50815000D01*
X66633517Y-50856696D01*
X66436060Y-50938485D01*
X66258353Y-51057225D01*
X66107225Y-51208353D01*
X65988485Y-51386060D01*
X65906696Y-51583517D01*
X65865000Y-51793137D01*
X65415789Y-51793137D01*
X65526052Y-51526939D01*
X65635000Y-50979223D01*
X65635000Y-50420777D01*
X65526052Y-49873061D01*
X65312344Y-49357124D01*
X65002088Y-48892793D01*
X64607207Y-48497912D01*
X64400807Y-48360000D01*
X148799193Y-48360000D01*
X148592793Y-48497912D01*
G37*
X148592793Y-48497912D02*
X148197912Y-48892793D01*
X147887656Y-49357124D01*
X147673948Y-49873061D01*
X147565000Y-50420777D01*
X147565000Y-50979223D01*
X147673948Y-51526939D01*
X147887656Y-52042876D01*
X148197912Y-52507207D01*
X148592793Y-52902088D01*
X149057124Y-53212344D01*
X149573061Y-53426052D01*
X150120777Y-53535000D01*
X150679223Y-53535000D01*
X151226939Y-53426052D01*
X151742876Y-53212344D01*
X152207207Y-52902088D01*
X152602088Y-52507207D01*
X152740000Y-52300807D01*
X152740001Y-75099194D01*
X152602088Y-74892793D01*
X152207207Y-74497912D01*
X151742876Y-74187656D01*
X151226939Y-73973948D01*
X150679223Y-73865000D01*
X150120777Y-73865000D01*
X149573061Y-73973948D01*
X149057124Y-74187656D01*
X148592793Y-74497912D01*
X148197912Y-74892793D01*
X147887656Y-75357124D01*
X147673948Y-75873061D01*
X147565000Y-76420777D01*
X147565000Y-76979223D01*
X147673948Y-77526939D01*
X147887656Y-78042876D01*
X148197912Y-78507207D01*
X148592793Y-78902088D01*
X148799193Y-79040000D01*
X103323711Y-79040000D01*
X103403937Y-78959774D01*
X103517205Y-78790256D01*
X103595226Y-78601898D01*
X103635000Y-78401939D01*
X103635000Y-78198061D01*
X103595226Y-77998102D01*
X103517205Y-77809744D01*
X103403937Y-77640226D01*
X103259774Y-77496063D01*
X103090256Y-77382795D01*
X102901898Y-77304774D01*
X102701939Y-77265000D01*
X102498061Y-77265000D01*
X102298102Y-77304774D01*
X102109744Y-77382795D01*
X101940226Y-77496063D01*
X101796063Y-77640226D01*
X101682795Y-77809744D01*
X101604774Y-77998102D01*
X101565000Y-78198061D01*
X101565000Y-78401939D01*
X101604774Y-78601898D01*
X101682795Y-78790256D01*
X101796063Y-78959774D01*
X101876289Y-79040000D01*
X64400807Y-79040000D01*
X64607207Y-78902088D01*
X65002088Y-78507207D01*
X65312344Y-78042876D01*
X65526052Y-77526939D01*
X65635000Y-76979223D01*
X65635000Y-76420777D01*
X65550917Y-75998061D01*
X78415000Y-75998061D01*
X78415000Y-76201939D01*
X78454774Y-76401898D01*
X78532795Y-76590256D01*
X78646063Y-76759774D01*
X78790226Y-76903937D01*
X78959744Y-77017205D01*
X79148102Y-77095226D01*
X79348061Y-77135000D01*
X79551939Y-77135000D01*
X79751898Y-77095226D01*
X79940256Y-77017205D01*
X80109774Y-76903937D01*
X80253937Y-76759774D01*
X80261763Y-76748061D01*
X96465000Y-76748061D01*
X96465000Y-76951939D01*
X96504774Y-77151898D01*
X96582795Y-77340256D01*
X96696063Y-77509774D01*
X96840226Y-77653937D01*
X97009744Y-77767205D01*
X97198102Y-77845226D01*
X97398061Y-77885000D01*
X97601939Y-77885000D01*
X97801898Y-77845226D01*
X97990256Y-77767205D01*
X98159774Y-77653937D01*
X98303937Y-77509774D01*
X98417205Y-77340256D01*
X98495226Y-77151898D01*
X98535000Y-76951939D01*
X98535000Y-76748061D01*
X98495226Y-76548102D01*
X98417205Y-76359744D01*
X98303937Y-76190226D01*
X98159774Y-76046063D01*
X97990256Y-75932795D01*
X97801898Y-75854774D01*
X97601939Y-75815000D01*
X97398061Y-75815000D01*
X97198102Y-75854774D01*
X97009744Y-75932795D01*
X96840226Y-76046063D01*
X96696063Y-76190226D01*
X96582795Y-76359744D01*
X96504774Y-76548102D01*
X96465000Y-76748061D01*
X80261763Y-76748061D01*
X80367205Y-76590256D01*
X80445226Y-76401898D01*
X80485000Y-76201939D01*
X80485000Y-75998061D01*
X80445226Y-75798102D01*
X80367205Y-75609744D01*
X80253937Y-75440226D01*
X80109774Y-75296063D01*
X79940256Y-75182795D01*
X79751898Y-75104774D01*
X79551939Y-75065000D01*
X79348061Y-75065000D01*
X79148102Y-75104774D01*
X78959744Y-75182795D01*
X78790226Y-75296063D01*
X78646063Y-75440226D01*
X78532795Y-75609744D01*
X78454774Y-75798102D01*
X78415000Y-75998061D01*
X65550917Y-75998061D01*
X65526052Y-75873061D01*
X65312344Y-75357124D01*
X65002088Y-74892793D01*
X64957356Y-74848061D01*
X99115000Y-74848061D01*
X99115000Y-75051939D01*
X99154774Y-75251898D01*
X99232795Y-75440256D01*
X99339532Y-75600000D01*
X99232795Y-75759744D01*
X99154774Y-75948102D01*
X99115000Y-76148061D01*
X99115000Y-76351939D01*
X99154774Y-76551898D01*
X99232795Y-76740256D01*
X99346063Y-76909774D01*
X99490226Y-77053937D01*
X99659744Y-77167205D01*
X99848102Y-77245226D01*
X100048061Y-77285000D01*
X100251939Y-77285000D01*
X100451898Y-77245226D01*
X100640256Y-77167205D01*
X100809774Y-77053937D01*
X100953937Y-76909774D01*
X101067205Y-76740256D01*
X101145226Y-76551898D01*
X101185000Y-76351939D01*
X101185000Y-76148061D01*
X101145226Y-75948102D01*
X101067205Y-75759744D01*
X100960468Y-75600000D01*
X101067205Y-75440256D01*
X101105393Y-75348061D01*
X119165000Y-75348061D01*
X119165000Y-75551939D01*
X119204774Y-75751898D01*
X119282795Y-75940256D01*
X119396063Y-76109774D01*
X119540226Y-76253937D01*
X119709744Y-76367205D01*
X119898102Y-76445226D01*
X120098061Y-76485000D01*
X120301939Y-76485000D01*
X120501898Y-76445226D01*
X120690256Y-76367205D01*
X120859774Y-76253937D01*
X121003937Y-76109774D01*
X121107063Y-75955434D01*
X121264734Y-76060786D01*
X121453092Y-76138807D01*
X121653051Y-76178581D01*
X121856929Y-76178581D01*
X122056888Y-76138807D01*
X122245246Y-76060786D01*
X122414764Y-75947518D01*
X122558927Y-75803355D01*
X122650350Y-75666530D01*
X122746063Y-75809774D01*
X122890226Y-75953937D01*
X123059744Y-76067205D01*
X123248102Y-76145226D01*
X123448061Y-76185000D01*
X123651939Y-76185000D01*
X123851898Y-76145226D01*
X124040256Y-76067205D01*
X124140102Y-76000490D01*
X124248102Y-76045226D01*
X124448061Y-76085000D01*
X124651939Y-76085000D01*
X124851898Y-76045226D01*
X125040256Y-75967205D01*
X125209774Y-75853937D01*
X125353937Y-75709774D01*
X125467205Y-75540256D01*
X125545226Y-75351898D01*
X125585000Y-75151939D01*
X125585000Y-74948061D01*
X125545226Y-74748102D01*
X125467205Y-74559744D01*
X125353937Y-74390226D01*
X125209774Y-74246063D01*
X125040256Y-74132795D01*
X124851898Y-74054774D01*
X124651939Y-74015000D01*
X124448061Y-74015000D01*
X124248102Y-74054774D01*
X124059744Y-74132795D01*
X123959898Y-74199510D01*
X123851898Y-74154774D01*
X123651939Y-74115000D01*
X123448061Y-74115000D01*
X123377721Y-74128991D01*
X123374199Y-74111284D01*
X123296178Y-73922926D01*
X123182910Y-73753408D01*
X123038747Y-73609245D01*
X122869229Y-73495977D01*
X122680871Y-73417956D01*
X122480912Y-73378182D01*
X122277034Y-73378182D01*
X122077075Y-73417956D01*
X121888717Y-73495977D01*
X121719199Y-73609245D01*
X121575036Y-73753408D01*
X121461768Y-73922926D01*
X121383747Y-74111284D01*
X121369485Y-74182987D01*
X121264734Y-74226376D01*
X121095216Y-74339644D01*
X120951053Y-74483807D01*
X120847927Y-74638147D01*
X120690256Y-74532795D01*
X120501898Y-74454774D01*
X120301939Y-74415000D01*
X120098061Y-74415000D01*
X119898102Y-74454774D01*
X119709744Y-74532795D01*
X119540226Y-74646063D01*
X119396063Y-74790226D01*
X119282795Y-74959744D01*
X119204774Y-75148102D01*
X119165000Y-75348061D01*
X101105393Y-75348061D01*
X101145226Y-75251898D01*
X101185000Y-75051939D01*
X101185000Y-74848061D01*
X101145226Y-74648102D01*
X101067205Y-74459744D01*
X100953937Y-74290226D01*
X100809774Y-74146063D01*
X100640256Y-74032795D01*
X100451898Y-73954774D01*
X100251939Y-73915000D01*
X100048061Y-73915000D01*
X99848102Y-73954774D01*
X99659744Y-74032795D01*
X99490226Y-74146063D01*
X99346063Y-74290226D01*
X99232795Y-74459744D01*
X99154774Y-74648102D01*
X99115000Y-74848061D01*
X64957356Y-74848061D01*
X64607207Y-74497912D01*
X64142876Y-74187656D01*
X63626939Y-73973948D01*
X63079223Y-73865000D01*
X62520777Y-73865000D01*
X61973061Y-73973948D01*
X61457124Y-74187656D01*
X60992793Y-74497912D01*
X60597912Y-74892793D01*
X60460000Y-75099193D01*
X60460000Y-71419761D01*
X66040000Y-71419761D01*
X66040000Y-71780239D01*
X66110325Y-72133791D01*
X66248275Y-72466830D01*
X66448546Y-72766557D01*
X66703443Y-73021454D01*
X67003170Y-73221725D01*
X67336209Y-73359675D01*
X67689761Y-73430000D01*
X68050239Y-73430000D01*
X68403791Y-73359675D01*
X68736830Y-73221725D01*
X69036557Y-73021454D01*
X69209950Y-72848061D01*
X72065000Y-72848061D01*
X72065000Y-73051939D01*
X72104774Y-73251898D01*
X72182795Y-73440256D01*
X72296063Y-73609774D01*
X72440226Y-73753937D01*
X72609744Y-73867205D01*
X72798102Y-73945226D01*
X72998061Y-73985000D01*
X73201939Y-73985000D01*
X73401898Y-73945226D01*
X73590256Y-73867205D01*
X73759774Y-73753937D01*
X73903937Y-73609774D01*
X74017205Y-73440256D01*
X74095226Y-73251898D01*
X74135000Y-73051939D01*
X74135000Y-72848061D01*
X74095226Y-72648102D01*
X74017205Y-72459744D01*
X73903937Y-72290226D01*
X73811772Y-72198061D01*
X95415000Y-72198061D01*
X95415000Y-72401939D01*
X95454774Y-72601898D01*
X95532795Y-72790256D01*
X95646063Y-72959774D01*
X95686289Y-73000000D01*
X95646063Y-73040226D01*
X95532795Y-73209744D01*
X95454774Y-73398102D01*
X95415000Y-73598061D01*
X95415000Y-73801939D01*
X95454774Y-74001898D01*
X95532795Y-74190256D01*
X95646063Y-74359774D01*
X95790226Y-74503937D01*
X95959744Y-74617205D01*
X96148102Y-74695226D01*
X96348061Y-74735000D01*
X96551939Y-74735000D01*
X96751898Y-74695226D01*
X96940256Y-74617205D01*
X97109774Y-74503937D01*
X97253937Y-74359774D01*
X97367205Y-74190256D01*
X97445226Y-74001898D01*
X97485000Y-73801939D01*
X97485000Y-73598061D01*
X97445226Y-73398102D01*
X97367205Y-73209744D01*
X97253937Y-73040226D01*
X97213711Y-73000000D01*
X97253937Y-72959774D01*
X97367205Y-72790256D01*
X97445226Y-72601898D01*
X97485000Y-72401939D01*
X97485000Y-72198061D01*
X97445226Y-71998102D01*
X97367205Y-71809744D01*
X97253937Y-71640226D01*
X97109774Y-71496063D01*
X96940256Y-71382795D01*
X96751898Y-71304774D01*
X96551939Y-71265000D01*
X96348061Y-71265000D01*
X96148102Y-71304774D01*
X95959744Y-71382795D01*
X95790226Y-71496063D01*
X95646063Y-71640226D01*
X95532795Y-71809744D01*
X95454774Y-71998102D01*
X95415000Y-72198061D01*
X73811772Y-72198061D01*
X73759774Y-72146063D01*
X73590256Y-72032795D01*
X73401898Y-71954774D01*
X73201939Y-71915000D01*
X72998061Y-71915000D01*
X72798102Y-71954774D01*
X72609744Y-72032795D01*
X72440226Y-72146063D01*
X72296063Y-72290226D01*
X72182795Y-72459744D01*
X72104774Y-72648102D01*
X72065000Y-72848061D01*
X69209950Y-72848061D01*
X69291454Y-72766557D01*
X69491725Y-72466830D01*
X69629675Y-72133791D01*
X69700000Y-71780239D01*
X69700000Y-71419761D01*
X69665848Y-71248061D01*
X102365000Y-71248061D01*
X102365000Y-71451939D01*
X102404774Y-71651898D01*
X102482795Y-71840256D01*
X102596063Y-72009774D01*
X102740226Y-72153937D01*
X102909744Y-72267205D01*
X103098102Y-72345226D01*
X103298061Y-72385000D01*
X103501939Y-72385000D01*
X103701898Y-72345226D01*
X103890256Y-72267205D01*
X104059774Y-72153937D01*
X104065650Y-72148061D01*
X125665000Y-72148061D01*
X125665000Y-72351939D01*
X125704774Y-72551898D01*
X125782795Y-72740256D01*
X125896063Y-72909774D01*
X126040226Y-73053937D01*
X126209744Y-73167205D01*
X126398102Y-73245226D01*
X126598061Y-73285000D01*
X126801939Y-73285000D01*
X127001898Y-73245226D01*
X127190256Y-73167205D01*
X127359774Y-73053937D01*
X127503937Y-72909774D01*
X127617205Y-72740256D01*
X127695226Y-72551898D01*
X127735000Y-72351939D01*
X127735000Y-72148061D01*
X127695226Y-71948102D01*
X127617205Y-71759744D01*
X127503937Y-71590226D01*
X127359774Y-71446063D01*
X127242286Y-71367560D01*
X129040000Y-71367560D01*
X129040000Y-71832440D01*
X129130694Y-72288387D01*
X129308595Y-72717879D01*
X129566868Y-73104412D01*
X129895588Y-73433132D01*
X130282121Y-73691405D01*
X130711613Y-73869306D01*
X131167560Y-73960000D01*
X131632440Y-73960000D01*
X132088387Y-73869306D01*
X132517879Y-73691405D01*
X132904412Y-73433132D01*
X133233132Y-73104412D01*
X133304193Y-72998061D01*
X135615000Y-72998061D01*
X135615000Y-73201939D01*
X135654774Y-73401898D01*
X135732795Y-73590256D01*
X135846063Y-73759774D01*
X135990226Y-73903937D01*
X136159744Y-74017205D01*
X136348102Y-74095226D01*
X136548061Y-74135000D01*
X136751939Y-74135000D01*
X136951898Y-74095226D01*
X137140256Y-74017205D01*
X137309774Y-73903937D01*
X137453937Y-73759774D01*
X137567205Y-73590256D01*
X137645226Y-73401898D01*
X137685000Y-73201939D01*
X137685000Y-72998061D01*
X137645226Y-72798102D01*
X137567205Y-72609744D01*
X137453937Y-72440226D01*
X137309774Y-72296063D01*
X137140256Y-72182795D01*
X136951898Y-72104774D01*
X136751939Y-72065000D01*
X136548061Y-72065000D01*
X136348102Y-72104774D01*
X136159744Y-72182795D01*
X135990226Y-72296063D01*
X135846063Y-72440226D01*
X135732795Y-72609744D01*
X135654774Y-72798102D01*
X135615000Y-72998061D01*
X133304193Y-72998061D01*
X133491405Y-72717879D01*
X133669306Y-72288387D01*
X133760000Y-71832440D01*
X133760000Y-71367560D01*
X133669306Y-70911613D01*
X133491405Y-70482121D01*
X133233132Y-70095588D01*
X132904412Y-69766868D01*
X132517879Y-69508595D01*
X132088387Y-69330694D01*
X131632440Y-69240000D01*
X131167560Y-69240000D01*
X130711613Y-69330694D01*
X130282121Y-69508595D01*
X129895588Y-69766868D01*
X129566868Y-70095588D01*
X129308595Y-70482121D01*
X129130694Y-70911613D01*
X129040000Y-71367560D01*
X127242286Y-71367560D01*
X127190256Y-71332795D01*
X127001898Y-71254774D01*
X126801939Y-71215000D01*
X126598061Y-71215000D01*
X126398102Y-71254774D01*
X126209744Y-71332795D01*
X126040226Y-71446063D01*
X125896063Y-71590226D01*
X125782795Y-71759744D01*
X125704774Y-71948102D01*
X125665000Y-72148061D01*
X104065650Y-72148061D01*
X104203937Y-72009774D01*
X104317205Y-71840256D01*
X104395226Y-71651898D01*
X104435000Y-71451939D01*
X104435000Y-71248061D01*
X104395226Y-71048102D01*
X104317205Y-70859744D01*
X104203937Y-70690226D01*
X104059774Y-70546063D01*
X103890256Y-70432795D01*
X103701898Y-70354774D01*
X103501939Y-70315000D01*
X103298061Y-70315000D01*
X103098102Y-70354774D01*
X102909744Y-70432795D01*
X102740226Y-70546063D01*
X102596063Y-70690226D01*
X102482795Y-70859744D01*
X102404774Y-71048102D01*
X102365000Y-71248061D01*
X69665848Y-71248061D01*
X69629675Y-71066209D01*
X69491725Y-70733170D01*
X69291454Y-70433443D01*
X69036557Y-70178546D01*
X68736830Y-69978275D01*
X68403791Y-69840325D01*
X68050239Y-69770000D01*
X67689761Y-69770000D01*
X67336209Y-69840325D01*
X67003170Y-69978275D01*
X66703443Y-70178546D01*
X66448546Y-70433443D01*
X66248275Y-70733170D01*
X66110325Y-71066209D01*
X66040000Y-71419761D01*
X60460000Y-71419761D01*
X60460000Y-67598061D01*
X89465000Y-67598061D01*
X89465000Y-67801939D01*
X89504774Y-68001898D01*
X89582795Y-68190256D01*
X89696063Y-68359774D01*
X89840226Y-68503937D01*
X90009744Y-68617205D01*
X90198102Y-68695226D01*
X90398061Y-68735000D01*
X90601939Y-68735000D01*
X90801898Y-68695226D01*
X90990256Y-68617205D01*
X91093737Y-68548061D01*
X97415000Y-68548061D01*
X97415000Y-68751939D01*
X97454774Y-68951898D01*
X97532795Y-69140256D01*
X97646063Y-69309774D01*
X97790226Y-69453937D01*
X97959744Y-69567205D01*
X98148102Y-69645226D01*
X98348061Y-69685000D01*
X98380618Y-69685000D01*
X98382795Y-69690256D01*
X98496063Y-69859774D01*
X98640226Y-70003937D01*
X98809744Y-70117205D01*
X98998102Y-70195226D01*
X99198061Y-70235000D01*
X99401939Y-70235000D01*
X99601898Y-70195226D01*
X99722705Y-70145186D01*
X99782795Y-70290256D01*
X99896063Y-70459774D01*
X100040226Y-70603937D01*
X100209744Y-70717205D01*
X100398102Y-70795226D01*
X100598061Y-70835000D01*
X100801939Y-70835000D01*
X101001898Y-70795226D01*
X101190256Y-70717205D01*
X101359774Y-70603937D01*
X101503937Y-70459774D01*
X101617205Y-70290256D01*
X101695226Y-70101898D01*
X101735000Y-69901939D01*
X101735000Y-69698061D01*
X101695226Y-69498102D01*
X101617205Y-69309744D01*
X101503937Y-69140226D01*
X101359774Y-68996063D01*
X101190256Y-68882795D01*
X101001898Y-68804774D01*
X100993214Y-68803047D01*
X101030000Y-68618107D01*
X101030000Y-68414229D01*
X100990226Y-68214270D01*
X100962802Y-68148061D01*
X103615000Y-68148061D01*
X103615000Y-68351939D01*
X103654774Y-68551898D01*
X103732795Y-68740256D01*
X103846063Y-68909774D01*
X103990226Y-69053937D01*
X104159744Y-69167205D01*
X104348102Y-69245226D01*
X104548061Y-69285000D01*
X104751939Y-69285000D01*
X104951898Y-69245226D01*
X105140256Y-69167205D01*
X105309774Y-69053937D01*
X105453937Y-68909774D01*
X105567205Y-68740256D01*
X105645226Y-68551898D01*
X105685000Y-68351939D01*
X105685000Y-68148061D01*
X105645226Y-67948102D01*
X105567205Y-67759744D01*
X105453937Y-67590226D01*
X105309774Y-67446063D01*
X105140256Y-67332795D01*
X104951898Y-67254774D01*
X104751939Y-67215000D01*
X104548061Y-67215000D01*
X104348102Y-67254774D01*
X104159744Y-67332795D01*
X103990226Y-67446063D01*
X103846063Y-67590226D01*
X103732795Y-67759744D01*
X103654774Y-67948102D01*
X103615000Y-68148061D01*
X100962802Y-68148061D01*
X100912205Y-68025912D01*
X100798937Y-67856394D01*
X100654774Y-67712231D01*
X100485256Y-67598963D01*
X100296898Y-67520942D01*
X100096939Y-67481168D01*
X99893061Y-67481168D01*
X99693102Y-67520942D01*
X99504744Y-67598963D01*
X99335226Y-67712231D01*
X99191063Y-67856394D01*
X99162641Y-67898930D01*
X99109774Y-67846063D01*
X98940256Y-67732795D01*
X98751898Y-67654774D01*
X98551939Y-67615000D01*
X98348061Y-67615000D01*
X98148102Y-67654774D01*
X97959744Y-67732795D01*
X97790226Y-67846063D01*
X97646063Y-67990226D01*
X97532795Y-68159744D01*
X97454774Y-68348102D01*
X97415000Y-68548061D01*
X91093737Y-68548061D01*
X91159774Y-68503937D01*
X91303937Y-68359774D01*
X91417205Y-68190256D01*
X91495226Y-68001898D01*
X91535000Y-67801939D01*
X91535000Y-67598061D01*
X91495226Y-67398102D01*
X91417205Y-67209744D01*
X91303937Y-67040226D01*
X91159774Y-66896063D01*
X90990256Y-66782795D01*
X90801898Y-66704774D01*
X90601939Y-66665000D01*
X90398061Y-66665000D01*
X90198102Y-66704774D01*
X90009744Y-66782795D01*
X89840226Y-66896063D01*
X89696063Y-67040226D01*
X89582795Y-67209744D01*
X89504774Y-67398102D01*
X89465000Y-67598061D01*
X60460000Y-67598061D01*
X60460000Y-65848061D01*
X68815000Y-65848061D01*
X68815000Y-66051939D01*
X68854774Y-66251898D01*
X68932795Y-66440256D01*
X69046063Y-66609774D01*
X69190226Y-66753937D01*
X69359744Y-66867205D01*
X69548102Y-66945226D01*
X69748061Y-66985000D01*
X69951939Y-66985000D01*
X70151898Y-66945226D01*
X70340256Y-66867205D01*
X70509774Y-66753937D01*
X70653937Y-66609774D01*
X70767205Y-66440256D01*
X70845226Y-66251898D01*
X70885000Y-66051939D01*
X70885000Y-65848061D01*
X70845226Y-65648102D01*
X70767205Y-65459744D01*
X70653937Y-65290226D01*
X70509774Y-65146063D01*
X70340256Y-65032795D01*
X70151898Y-64954774D01*
X69951939Y-64915000D01*
X69748061Y-64915000D01*
X69548102Y-64954774D01*
X69359744Y-65032795D01*
X69190226Y-65146063D01*
X69046063Y-65290226D01*
X68932795Y-65459744D01*
X68854774Y-65648102D01*
X68815000Y-65848061D01*
X60460000Y-65848061D01*
X60460000Y-63948061D01*
X81515000Y-63948061D01*
X81515000Y-64151939D01*
X81554774Y-64351898D01*
X81632795Y-64540256D01*
X81746063Y-64709774D01*
X81890226Y-64853937D01*
X82015000Y-64937308D01*
X82015000Y-65001939D01*
X82054774Y-65201898D01*
X82132795Y-65390256D01*
X82246063Y-65559774D01*
X82390226Y-65703937D01*
X82559744Y-65817205D01*
X82748102Y-65895226D01*
X82948061Y-65935000D01*
X83151939Y-65935000D01*
X83351898Y-65895226D01*
X83540256Y-65817205D01*
X83709774Y-65703937D01*
X83853937Y-65559774D01*
X83928581Y-65448061D01*
X93215000Y-65448061D01*
X93215000Y-65651939D01*
X93254774Y-65851898D01*
X93332795Y-66040256D01*
X93446063Y-66209774D01*
X93590226Y-66353937D01*
X93759744Y-66467205D01*
X93948102Y-66545226D01*
X94148061Y-66585000D01*
X94351939Y-66585000D01*
X94551898Y-66545226D01*
X94557124Y-66543061D01*
X118546388Y-66543061D01*
X118546388Y-66746939D01*
X118586162Y-66946898D01*
X118664183Y-67135256D01*
X118777451Y-67304774D01*
X118921614Y-67448937D01*
X119091132Y-67562205D01*
X119279490Y-67640226D01*
X119479449Y-67680000D01*
X119683327Y-67680000D01*
X119883286Y-67640226D01*
X120071644Y-67562205D01*
X120241162Y-67448937D01*
X120385325Y-67304774D01*
X120423219Y-67248061D01*
X124315000Y-67248061D01*
X124315000Y-67451939D01*
X124354774Y-67651898D01*
X124432795Y-67840256D01*
X124546063Y-68009774D01*
X124690226Y-68153937D01*
X124859744Y-68267205D01*
X125048102Y-68345226D01*
X125248061Y-68385000D01*
X125451939Y-68385000D01*
X125651898Y-68345226D01*
X125840256Y-68267205D01*
X126009774Y-68153937D01*
X126153937Y-68009774D01*
X126267205Y-67840256D01*
X126345226Y-67651898D01*
X126365880Y-67548061D01*
X136815000Y-67548061D01*
X136815000Y-67751939D01*
X136854774Y-67951898D01*
X136932795Y-68140256D01*
X137046063Y-68309774D01*
X137190226Y-68453937D01*
X137359744Y-68567205D01*
X137548102Y-68645226D01*
X137748061Y-68685000D01*
X137951939Y-68685000D01*
X138151898Y-68645226D01*
X138340256Y-68567205D01*
X138509774Y-68453937D01*
X138653937Y-68309774D01*
X138767205Y-68140256D01*
X138845226Y-67951898D01*
X138885000Y-67751939D01*
X138885000Y-67548061D01*
X138845226Y-67348102D01*
X138767205Y-67159744D01*
X138653937Y-66990226D01*
X138509774Y-66846063D01*
X138340256Y-66732795D01*
X138151898Y-66654774D01*
X137951939Y-66615000D01*
X137748061Y-66615000D01*
X137548102Y-66654774D01*
X137359744Y-66732795D01*
X137190226Y-66846063D01*
X137046063Y-66990226D01*
X136932795Y-67159744D01*
X136854774Y-67348102D01*
X136815000Y-67548061D01*
X126365880Y-67548061D01*
X126385000Y-67451939D01*
X126385000Y-67248061D01*
X126345226Y-67048102D01*
X126267205Y-66859744D01*
X126153937Y-66690226D01*
X126009774Y-66546063D01*
X125840256Y-66432795D01*
X125651898Y-66354774D01*
X125451939Y-66315000D01*
X125248061Y-66315000D01*
X125048102Y-66354774D01*
X124859744Y-66432795D01*
X124690226Y-66546063D01*
X124546063Y-66690226D01*
X124432795Y-66859744D01*
X124354774Y-67048102D01*
X124315000Y-67248061D01*
X120423219Y-67248061D01*
X120498593Y-67135256D01*
X120576614Y-66946898D01*
X120616388Y-66746939D01*
X120616388Y-66543061D01*
X120576614Y-66343102D01*
X120498593Y-66154744D01*
X120385325Y-65985226D01*
X120241162Y-65841063D01*
X120071644Y-65727795D01*
X119883286Y-65649774D01*
X119683327Y-65610000D01*
X119479449Y-65610000D01*
X119279490Y-65649774D01*
X119091132Y-65727795D01*
X118921614Y-65841063D01*
X118777451Y-65985226D01*
X118664183Y-66154744D01*
X118586162Y-66343102D01*
X118546388Y-66543061D01*
X94557124Y-66543061D01*
X94740256Y-66467205D01*
X94909774Y-66353937D01*
X95053937Y-66209774D01*
X95167205Y-66040256D01*
X95245226Y-65851898D01*
X95285000Y-65651939D01*
X95285000Y-65448061D01*
X95245226Y-65248102D01*
X95167205Y-65059744D01*
X95053937Y-64890226D01*
X94909774Y-64746063D01*
X94740256Y-64632795D01*
X94551898Y-64554774D01*
X94351939Y-64515000D01*
X94148061Y-64515000D01*
X93948102Y-64554774D01*
X93759744Y-64632795D01*
X93590226Y-64746063D01*
X93446063Y-64890226D01*
X93332795Y-65059744D01*
X93254774Y-65248102D01*
X93215000Y-65448061D01*
X83928581Y-65448061D01*
X83967205Y-65390256D01*
X84045226Y-65201898D01*
X84085000Y-65001939D01*
X84085000Y-64798061D01*
X84045226Y-64598102D01*
X83967205Y-64409744D01*
X83853937Y-64240226D01*
X83709774Y-64096063D01*
X83585000Y-64012692D01*
X83585000Y-63948061D01*
X83545226Y-63748102D01*
X83467205Y-63559744D01*
X83353937Y-63390226D01*
X83209774Y-63246063D01*
X83040256Y-63132795D01*
X82851898Y-63054774D01*
X82651939Y-63015000D01*
X82448061Y-63015000D01*
X82248102Y-63054774D01*
X82059744Y-63132795D01*
X81890226Y-63246063D01*
X81746063Y-63390226D01*
X81632795Y-63559744D01*
X81554774Y-63748102D01*
X81515000Y-63948061D01*
X60460000Y-63948061D01*
X60460000Y-62848061D01*
X97265000Y-62848061D01*
X97265000Y-63051939D01*
X97304774Y-63251898D01*
X97382795Y-63440256D01*
X97496063Y-63609774D01*
X97640226Y-63753937D01*
X97809744Y-63867205D01*
X97998102Y-63945226D01*
X98198061Y-63985000D01*
X98401939Y-63985000D01*
X98601898Y-63945226D01*
X98790256Y-63867205D01*
X98959774Y-63753937D01*
X99103937Y-63609774D01*
X99145172Y-63548061D01*
X106015000Y-63548061D01*
X106015000Y-63751939D01*
X106054774Y-63951898D01*
X106132795Y-64140256D01*
X106246063Y-64309774D01*
X106390226Y-64453937D01*
X106559744Y-64567205D01*
X106748102Y-64645226D01*
X106948061Y-64685000D01*
X106968224Y-64685000D01*
X106934362Y-64735678D01*
X106856341Y-64924036D01*
X106816567Y-65123995D01*
X106816567Y-65327873D01*
X106856341Y-65527832D01*
X106934362Y-65716190D01*
X107047630Y-65885708D01*
X107191793Y-66029871D01*
X107361311Y-66143139D01*
X107549669Y-66221160D01*
X107749628Y-66260934D01*
X107953506Y-66260934D01*
X108153465Y-66221160D01*
X108341823Y-66143139D01*
X108511341Y-66029871D01*
X108655504Y-65885708D01*
X108768772Y-65716190D01*
X108846793Y-65527832D01*
X108886567Y-65327873D01*
X108886567Y-65123995D01*
X108846793Y-64924036D01*
X108768772Y-64735678D01*
X108655504Y-64566160D01*
X108511341Y-64421997D01*
X108406457Y-64351916D01*
X108490256Y-64317205D01*
X108659774Y-64203937D01*
X108803937Y-64059774D01*
X108864946Y-63968468D01*
X108948061Y-63985000D01*
X109151939Y-63985000D01*
X109351898Y-63945226D01*
X109540256Y-63867205D01*
X109709774Y-63753937D01*
X109853937Y-63609774D01*
X109967205Y-63440256D01*
X110045226Y-63251898D01*
X110085000Y-63051939D01*
X110085000Y-62848061D01*
X110045226Y-62648102D01*
X109967205Y-62459744D01*
X109882410Y-62332839D01*
X109895226Y-62301898D01*
X109935000Y-62101939D01*
X109935000Y-61898061D01*
X109895226Y-61698102D01*
X109817205Y-61509744D01*
X109781356Y-61456092D01*
X109845226Y-61301898D01*
X109885000Y-61101939D01*
X109885000Y-60898061D01*
X109845226Y-60698102D01*
X109767205Y-60509744D01*
X109653937Y-60340226D01*
X109511772Y-60198061D01*
X114615000Y-60198061D01*
X114615000Y-60401939D01*
X114654774Y-60601898D01*
X114732795Y-60790256D01*
X114846063Y-60959774D01*
X114990226Y-61103937D01*
X115159744Y-61217205D01*
X115348102Y-61295226D01*
X115548061Y-61335000D01*
X115751939Y-61335000D01*
X115951898Y-61295226D01*
X116140256Y-61217205D01*
X116309774Y-61103937D01*
X116428929Y-60984782D01*
X116529186Y-61026310D01*
X116729145Y-61066084D01*
X116933023Y-61066084D01*
X117132982Y-61026310D01*
X117321340Y-60948289D01*
X117490858Y-60835021D01*
X117635021Y-60690858D01*
X117748289Y-60521340D01*
X117826310Y-60332982D01*
X117866084Y-60133023D01*
X117866084Y-59929145D01*
X117826310Y-59729186D01*
X117748289Y-59540828D01*
X117635021Y-59371310D01*
X117490858Y-59227147D01*
X117321340Y-59113879D01*
X117132982Y-59035858D01*
X116933023Y-58996084D01*
X116729145Y-58996084D01*
X116529186Y-59035858D01*
X116340828Y-59113879D01*
X116171310Y-59227147D01*
X116052155Y-59346302D01*
X115951898Y-59304774D01*
X115751939Y-59265000D01*
X115548061Y-59265000D01*
X115348102Y-59304774D01*
X115159744Y-59382795D01*
X114990226Y-59496063D01*
X114846063Y-59640226D01*
X114732795Y-59809744D01*
X114654774Y-59998102D01*
X114615000Y-60198061D01*
X109511772Y-60198061D01*
X109509774Y-60196063D01*
X109340256Y-60082795D01*
X109151898Y-60004774D01*
X108951939Y-59965000D01*
X108748061Y-59965000D01*
X108723725Y-59969841D01*
X108703937Y-59940226D01*
X108559774Y-59796063D01*
X108390256Y-59682795D01*
X108201898Y-59604774D01*
X108001939Y-59565000D01*
X107798061Y-59565000D01*
X107598102Y-59604774D01*
X107409744Y-59682795D01*
X107240226Y-59796063D01*
X107096063Y-59940226D01*
X106982795Y-60109744D01*
X106904774Y-60298102D01*
X106865000Y-60498061D01*
X106865000Y-60701939D01*
X106904774Y-60901898D01*
X106982795Y-61090256D01*
X107096063Y-61259774D01*
X107240226Y-61403937D01*
X107409744Y-61517205D01*
X107598102Y-61595226D01*
X107798061Y-61635000D01*
X107930912Y-61635000D01*
X107904774Y-61698102D01*
X107865000Y-61898061D01*
X107865000Y-62101939D01*
X107904774Y-62301898D01*
X107930912Y-62365000D01*
X107898061Y-62365000D01*
X107698102Y-62404774D01*
X107509744Y-62482795D01*
X107340226Y-62596063D01*
X107293192Y-62643097D01*
X107151939Y-62615000D01*
X106948061Y-62615000D01*
X106748102Y-62654774D01*
X106559744Y-62732795D01*
X106390226Y-62846063D01*
X106246063Y-62990226D01*
X106132795Y-63159744D01*
X106054774Y-63348102D01*
X106015000Y-63548061D01*
X99145172Y-63548061D01*
X99217205Y-63440256D01*
X99295226Y-63251898D01*
X99335000Y-63051939D01*
X99335000Y-62848061D01*
X99295226Y-62648102D01*
X99217205Y-62459744D01*
X99103937Y-62290226D01*
X98959774Y-62146063D01*
X98790256Y-62032795D01*
X98601898Y-61954774D01*
X98401939Y-61915000D01*
X98198061Y-61915000D01*
X97998102Y-61954774D01*
X97809744Y-62032795D01*
X97640226Y-62146063D01*
X97496063Y-62290226D01*
X97382795Y-62459744D01*
X97304774Y-62648102D01*
X97265000Y-62848061D01*
X60460000Y-62848061D01*
X60460000Y-59498061D01*
X74665000Y-59498061D01*
X74665000Y-59701939D01*
X74704774Y-59901898D01*
X74782795Y-60090256D01*
X74896063Y-60259774D01*
X75040226Y-60403937D01*
X75209744Y-60517205D01*
X75398102Y-60595226D01*
X75598061Y-60635000D01*
X75801939Y-60635000D01*
X76001898Y-60595226D01*
X76190256Y-60517205D01*
X76359774Y-60403937D01*
X76503937Y-60259774D01*
X76617205Y-60090256D01*
X76695226Y-59901898D01*
X76735000Y-59701939D01*
X76735000Y-59598061D01*
X94515000Y-59598061D01*
X94515000Y-59801939D01*
X94554774Y-60001898D01*
X94632795Y-60190256D01*
X94746063Y-60359774D01*
X94890226Y-60503937D01*
X95059744Y-60617205D01*
X95248102Y-60695226D01*
X95448061Y-60735000D01*
X95651939Y-60735000D01*
X95851898Y-60695226D01*
X96040256Y-60617205D01*
X96209774Y-60503937D01*
X96353937Y-60359774D01*
X96467205Y-60190256D01*
X96545226Y-60001898D01*
X96565880Y-59898061D01*
X98765000Y-59898061D01*
X98765000Y-60101939D01*
X98804774Y-60301898D01*
X98882795Y-60490256D01*
X98996063Y-60659774D01*
X99140226Y-60803937D01*
X99309744Y-60917205D01*
X99498102Y-60995226D01*
X99698061Y-61035000D01*
X99901939Y-61035000D01*
X100101898Y-60995226D01*
X100194570Y-60956840D01*
X100359744Y-61067205D01*
X100548102Y-61145226D01*
X100748061Y-61185000D01*
X100951939Y-61185000D01*
X101151898Y-61145226D01*
X101340256Y-61067205D01*
X101400000Y-61027285D01*
X101459744Y-61067205D01*
X101648102Y-61145226D01*
X101848061Y-61185000D01*
X102051939Y-61185000D01*
X102251898Y-61145226D01*
X102440256Y-61067205D01*
X102609774Y-60953937D01*
X102753937Y-60809774D01*
X102867205Y-60640256D01*
X102945226Y-60451898D01*
X102985000Y-60251939D01*
X102985000Y-60048061D01*
X102945226Y-59848102D01*
X102867205Y-59659744D01*
X102753937Y-59490226D01*
X102609774Y-59346063D01*
X102440256Y-59232795D01*
X102251898Y-59154774D01*
X102051939Y-59115000D01*
X101848061Y-59115000D01*
X101648102Y-59154774D01*
X101459744Y-59232795D01*
X101400000Y-59272715D01*
X101340256Y-59232795D01*
X101151898Y-59154774D01*
X100951939Y-59115000D01*
X100748061Y-59115000D01*
X100548102Y-59154774D01*
X100455430Y-59193160D01*
X100290256Y-59082795D01*
X100101898Y-59004774D01*
X99901939Y-58965000D01*
X99698061Y-58965000D01*
X99498102Y-59004774D01*
X99309744Y-59082795D01*
X99140226Y-59196063D01*
X98996063Y-59340226D01*
X98882795Y-59509744D01*
X98804774Y-59698102D01*
X98765000Y-59898061D01*
X96565880Y-59898061D01*
X96585000Y-59801939D01*
X96585000Y-59598061D01*
X96545226Y-59398102D01*
X96467205Y-59209744D01*
X96353937Y-59040226D01*
X96209774Y-58896063D01*
X96040256Y-58782795D01*
X95956402Y-58748061D01*
X96615000Y-58748061D01*
X96615000Y-58951939D01*
X96654774Y-59151898D01*
X96732795Y-59340256D01*
X96846063Y-59509774D01*
X96990226Y-59653937D01*
X97159744Y-59767205D01*
X97348102Y-59845226D01*
X97548061Y-59885000D01*
X97751939Y-59885000D01*
X97951898Y-59845226D01*
X98140256Y-59767205D01*
X98309774Y-59653937D01*
X98453937Y-59509774D01*
X98567205Y-59340256D01*
X98645226Y-59151898D01*
X98685000Y-58951939D01*
X98685000Y-58748061D01*
X98645226Y-58548102D01*
X98567205Y-58359744D01*
X98453937Y-58190226D01*
X98309774Y-58046063D01*
X98140256Y-57932795D01*
X98056402Y-57898061D01*
X103915000Y-57898061D01*
X103915000Y-58101939D01*
X103954774Y-58301898D01*
X104032795Y-58490256D01*
X104146063Y-58659774D01*
X104290226Y-58803937D01*
X104459744Y-58917205D01*
X104648102Y-58995226D01*
X104848061Y-59035000D01*
X105051939Y-59035000D01*
X105251898Y-58995226D01*
X105440256Y-58917205D01*
X105609774Y-58803937D01*
X105753937Y-58659774D01*
X105867205Y-58490256D01*
X105945226Y-58301898D01*
X105965880Y-58198061D01*
X120115000Y-58198061D01*
X120115000Y-58401939D01*
X120154774Y-58601898D01*
X120232795Y-58790256D01*
X120346063Y-58959774D01*
X120490226Y-59103937D01*
X120659744Y-59217205D01*
X120848102Y-59295226D01*
X121048061Y-59335000D01*
X121251939Y-59335000D01*
X121451898Y-59295226D01*
X121640256Y-59217205D01*
X121809774Y-59103937D01*
X121953937Y-58959774D01*
X122067205Y-58790256D01*
X122145226Y-58601898D01*
X122185000Y-58401939D01*
X122185000Y-58198061D01*
X122145226Y-57998102D01*
X122067205Y-57809744D01*
X121953937Y-57640226D01*
X121809774Y-57496063D01*
X121640256Y-57382795D01*
X121451898Y-57304774D01*
X121251939Y-57265000D01*
X121048061Y-57265000D01*
X120848102Y-57304774D01*
X120659744Y-57382795D01*
X120490226Y-57496063D01*
X120346063Y-57640226D01*
X120232795Y-57809744D01*
X120154774Y-57998102D01*
X120115000Y-58198061D01*
X105965880Y-58198061D01*
X105985000Y-58101939D01*
X105985000Y-57898061D01*
X105945226Y-57698102D01*
X105867205Y-57509744D01*
X105753937Y-57340226D01*
X105609774Y-57196063D01*
X105440256Y-57082795D01*
X105251898Y-57004774D01*
X105051939Y-56965000D01*
X104848061Y-56965000D01*
X104648102Y-57004774D01*
X104459744Y-57082795D01*
X104290226Y-57196063D01*
X104146063Y-57340226D01*
X104032795Y-57509744D01*
X103954774Y-57698102D01*
X103915000Y-57898061D01*
X98056402Y-57898061D01*
X97951898Y-57854774D01*
X97751939Y-57815000D01*
X97548061Y-57815000D01*
X97348102Y-57854774D01*
X97159744Y-57932795D01*
X96990226Y-58046063D01*
X96846063Y-58190226D01*
X96732795Y-58359744D01*
X96654774Y-58548102D01*
X96615000Y-58748061D01*
X95956402Y-58748061D01*
X95851898Y-58704774D01*
X95651939Y-58665000D01*
X95448061Y-58665000D01*
X95248102Y-58704774D01*
X95059744Y-58782795D01*
X94890226Y-58896063D01*
X94746063Y-59040226D01*
X94632795Y-59209744D01*
X94554774Y-59398102D01*
X94515000Y-59598061D01*
X76735000Y-59598061D01*
X76735000Y-59498061D01*
X76695226Y-59298102D01*
X76617205Y-59109744D01*
X76503937Y-58940226D01*
X76359774Y-58796063D01*
X76190256Y-58682795D01*
X76001898Y-58604774D01*
X75801939Y-58565000D01*
X75598061Y-58565000D01*
X75398102Y-58604774D01*
X75209744Y-58682795D01*
X75040226Y-58796063D01*
X74896063Y-58940226D01*
X74782795Y-59109744D01*
X74704774Y-59298102D01*
X74665000Y-59498061D01*
X60460000Y-59498061D01*
X60460000Y-56848061D01*
X72315000Y-56848061D01*
X72315000Y-57051939D01*
X72354774Y-57251898D01*
X72432795Y-57440256D01*
X72546063Y-57609774D01*
X72690226Y-57753937D01*
X72859744Y-57867205D01*
X73048102Y-57945226D01*
X73248061Y-57985000D01*
X73451939Y-57985000D01*
X73651898Y-57945226D01*
X73840256Y-57867205D01*
X74009774Y-57753937D01*
X74153937Y-57609774D01*
X74267205Y-57440256D01*
X74308781Y-57339883D01*
X74563265Y-57594367D01*
X74983796Y-57875357D01*
X75451066Y-58068906D01*
X75947116Y-58167577D01*
X76452884Y-58167577D01*
X76948934Y-58068906D01*
X77416204Y-57875357D01*
X77836735Y-57594367D01*
X78194367Y-57236735D01*
X78475357Y-56816204D01*
X78668906Y-56348934D01*
X78767577Y-55852884D01*
X78767577Y-55798061D01*
X95865000Y-55798061D01*
X95865000Y-56001939D01*
X95904774Y-56201898D01*
X95982795Y-56390256D01*
X96096063Y-56559774D01*
X96240226Y-56703937D01*
X96409744Y-56817205D01*
X96598102Y-56895226D01*
X96798061Y-56935000D01*
X97001939Y-56935000D01*
X97201898Y-56895226D01*
X97390256Y-56817205D01*
X97559774Y-56703937D01*
X97703937Y-56559774D01*
X97817205Y-56390256D01*
X97834682Y-56348061D01*
X105815000Y-56348061D01*
X105815000Y-56551939D01*
X105854774Y-56751898D01*
X105932795Y-56940256D01*
X106046063Y-57109774D01*
X106190226Y-57253937D01*
X106359744Y-57367205D01*
X106548102Y-57445226D01*
X106748061Y-57485000D01*
X106951939Y-57485000D01*
X107151898Y-57445226D01*
X107340256Y-57367205D01*
X107509774Y-57253937D01*
X107653937Y-57109774D01*
X107767205Y-56940256D01*
X107845226Y-56751898D01*
X107885000Y-56551939D01*
X107885000Y-56348061D01*
X107845226Y-56148102D01*
X107767205Y-55959744D01*
X107653937Y-55790226D01*
X107509774Y-55646063D01*
X107340256Y-55532795D01*
X107151898Y-55454774D01*
X106951939Y-55415000D01*
X106748061Y-55415000D01*
X106548102Y-55454774D01*
X106359744Y-55532795D01*
X106190226Y-55646063D01*
X106046063Y-55790226D01*
X105932795Y-55959744D01*
X105854774Y-56148102D01*
X105815000Y-56348061D01*
X97834682Y-56348061D01*
X97895226Y-56201898D01*
X97935000Y-56001939D01*
X97935000Y-55798061D01*
X97895226Y-55598102D01*
X97817205Y-55409744D01*
X97703937Y-55240226D01*
X97559774Y-55096063D01*
X97413104Y-54998061D01*
X101815000Y-54998061D01*
X101815000Y-55201939D01*
X101854774Y-55401898D01*
X101932795Y-55590256D01*
X102046063Y-55759774D01*
X102190226Y-55903937D01*
X102359744Y-56017205D01*
X102548102Y-56095226D01*
X102748061Y-56135000D01*
X102951939Y-56135000D01*
X103151898Y-56095226D01*
X103340256Y-56017205D01*
X103509774Y-55903937D01*
X103653937Y-55759774D01*
X103767205Y-55590256D01*
X103845226Y-55401898D01*
X103885000Y-55201939D01*
X103885000Y-54998061D01*
X103845226Y-54798102D01*
X103767205Y-54609744D01*
X103746901Y-54579356D01*
X103859774Y-54503937D01*
X104003937Y-54359774D01*
X104117205Y-54190256D01*
X104195226Y-54001898D01*
X104235000Y-53801939D01*
X104235000Y-53698061D01*
X106115000Y-53698061D01*
X106115000Y-53901939D01*
X106154774Y-54101898D01*
X106232795Y-54290256D01*
X106346063Y-54459774D01*
X106490226Y-54603937D01*
X106659744Y-54717205D01*
X106848102Y-54795226D01*
X107048061Y-54835000D01*
X107251939Y-54835000D01*
X107451898Y-54795226D01*
X107640256Y-54717205D01*
X107809774Y-54603937D01*
X107953937Y-54459774D01*
X108067205Y-54290256D01*
X108145226Y-54101898D01*
X108185000Y-53901939D01*
X108185000Y-53698061D01*
X108145226Y-53498102D01*
X108067205Y-53309744D01*
X108059399Y-53298061D01*
X121865000Y-53298061D01*
X121865000Y-53501939D01*
X121904774Y-53701898D01*
X121982795Y-53890256D01*
X122022715Y-53950000D01*
X121982795Y-54009744D01*
X121904774Y-54198102D01*
X121865000Y-54398061D01*
X121865000Y-54601939D01*
X121904774Y-54801898D01*
X121982795Y-54990256D01*
X122075080Y-55128370D01*
X122004774Y-55298102D01*
X121965000Y-55498061D01*
X121965000Y-55701939D01*
X122004774Y-55901898D01*
X122082795Y-56090256D01*
X122175080Y-56228370D01*
X122104774Y-56398102D01*
X122065000Y-56598061D01*
X122065000Y-56801939D01*
X122104774Y-57001898D01*
X122182795Y-57190256D01*
X122296063Y-57359774D01*
X122440226Y-57503937D01*
X122609744Y-57617205D01*
X122798102Y-57695226D01*
X122998061Y-57735000D01*
X123201939Y-57735000D01*
X123401898Y-57695226D01*
X123590256Y-57617205D01*
X123759774Y-57503937D01*
X123815650Y-57448061D01*
X136765000Y-57448061D01*
X136765000Y-57651939D01*
X136804774Y-57851898D01*
X136882795Y-58040256D01*
X136996063Y-58209774D01*
X137140226Y-58353937D01*
X137309744Y-58467205D01*
X137498102Y-58545226D01*
X137698061Y-58585000D01*
X137901939Y-58585000D01*
X138101898Y-58545226D01*
X138290256Y-58467205D01*
X138459774Y-58353937D01*
X138603937Y-58209774D01*
X138717205Y-58040256D01*
X138795226Y-57851898D01*
X138835000Y-57651939D01*
X138835000Y-57448061D01*
X138795226Y-57248102D01*
X138717205Y-57059744D01*
X138603937Y-56890226D01*
X138459774Y-56746063D01*
X138290256Y-56632795D01*
X138101898Y-56554774D01*
X138068150Y-56548061D01*
X143315000Y-56548061D01*
X143315000Y-56751939D01*
X143354774Y-56951898D01*
X143432795Y-57140256D01*
X143546063Y-57309774D01*
X143690226Y-57453937D01*
X143859744Y-57567205D01*
X144048102Y-57645226D01*
X144248061Y-57685000D01*
X144451939Y-57685000D01*
X144651898Y-57645226D01*
X144840256Y-57567205D01*
X145009774Y-57453937D01*
X145153937Y-57309774D01*
X145267205Y-57140256D01*
X145345226Y-56951898D01*
X145385000Y-56751939D01*
X145385000Y-56548061D01*
X145345226Y-56348102D01*
X145267205Y-56159744D01*
X145153937Y-55990226D01*
X145009774Y-55846063D01*
X144840256Y-55732795D01*
X144651898Y-55654774D01*
X144451939Y-55615000D01*
X144248061Y-55615000D01*
X144048102Y-55654774D01*
X143859744Y-55732795D01*
X143690226Y-55846063D01*
X143546063Y-55990226D01*
X143432795Y-56159744D01*
X143354774Y-56348102D01*
X143315000Y-56548061D01*
X138068150Y-56548061D01*
X137901939Y-56515000D01*
X137698061Y-56515000D01*
X137498102Y-56554774D01*
X137309744Y-56632795D01*
X137140226Y-56746063D01*
X136996063Y-56890226D01*
X136882795Y-57059744D01*
X136804774Y-57248102D01*
X136765000Y-57448061D01*
X123815650Y-57448061D01*
X123903937Y-57359774D01*
X124017205Y-57190256D01*
X124095226Y-57001898D01*
X124135000Y-56801939D01*
X124135000Y-56598061D01*
X124095226Y-56398102D01*
X124017205Y-56209744D01*
X123924920Y-56071630D01*
X123995226Y-55901898D01*
X124035000Y-55701939D01*
X124035000Y-55498061D01*
X123995226Y-55298102D01*
X123917205Y-55109744D01*
X123824920Y-54971630D01*
X123895226Y-54801898D01*
X123935000Y-54601939D01*
X123935000Y-54498061D01*
X130365000Y-54498061D01*
X130365000Y-54701939D01*
X130404774Y-54901898D01*
X130482795Y-55090256D01*
X130596063Y-55259774D01*
X130740226Y-55403937D01*
X130909744Y-55517205D01*
X131098102Y-55595226D01*
X131298061Y-55635000D01*
X131501939Y-55635000D01*
X131701898Y-55595226D01*
X131890256Y-55517205D01*
X132059774Y-55403937D01*
X132203937Y-55259774D01*
X132317205Y-55090256D01*
X132395226Y-54901898D01*
X132412924Y-54812924D01*
X132501898Y-54795226D01*
X132690256Y-54717205D01*
X132859774Y-54603937D01*
X133003937Y-54459774D01*
X133117205Y-54290256D01*
X133195226Y-54101898D01*
X133235000Y-53901939D01*
X133235000Y-53698061D01*
X133195226Y-53498102D01*
X133117205Y-53309744D01*
X133003937Y-53140226D01*
X132859774Y-52996063D01*
X132690256Y-52882795D01*
X132501898Y-52804774D01*
X132301939Y-52765000D01*
X132098061Y-52765000D01*
X131898102Y-52804774D01*
X131709744Y-52882795D01*
X131540226Y-52996063D01*
X131396063Y-53140226D01*
X131282795Y-53309744D01*
X131204774Y-53498102D01*
X131187076Y-53587076D01*
X131098102Y-53604774D01*
X130909744Y-53682795D01*
X130740226Y-53796063D01*
X130596063Y-53940226D01*
X130482795Y-54109744D01*
X130404774Y-54298102D01*
X130365000Y-54498061D01*
X123935000Y-54498061D01*
X123935000Y-54398061D01*
X123895226Y-54198102D01*
X123817205Y-54009744D01*
X123777285Y-53950000D01*
X123817205Y-53890256D01*
X123895226Y-53701898D01*
X123935000Y-53501939D01*
X123935000Y-53298061D01*
X123895226Y-53098102D01*
X123817205Y-52909744D01*
X123703937Y-52740226D01*
X123559774Y-52596063D01*
X123390256Y-52482795D01*
X123201898Y-52404774D01*
X123001939Y-52365000D01*
X122798061Y-52365000D01*
X122598102Y-52404774D01*
X122409744Y-52482795D01*
X122240226Y-52596063D01*
X122096063Y-52740226D01*
X121982795Y-52909744D01*
X121904774Y-53098102D01*
X121865000Y-53298061D01*
X108059399Y-53298061D01*
X107953937Y-53140226D01*
X107809774Y-52996063D01*
X107640256Y-52882795D01*
X107451898Y-52804774D01*
X107251939Y-52765000D01*
X107048061Y-52765000D01*
X106848102Y-52804774D01*
X106659744Y-52882795D01*
X106490226Y-52996063D01*
X106346063Y-53140226D01*
X106232795Y-53309744D01*
X106154774Y-53498102D01*
X106115000Y-53698061D01*
X104235000Y-53698061D01*
X104235000Y-53598061D01*
X104195226Y-53398102D01*
X104117205Y-53209744D01*
X104003937Y-53040226D01*
X103859774Y-52896063D01*
X103690256Y-52782795D01*
X103501898Y-52704774D01*
X103301939Y-52665000D01*
X103098061Y-52665000D01*
X102898102Y-52704774D01*
X102709744Y-52782795D01*
X102540226Y-52896063D01*
X102396063Y-53040226D01*
X102282795Y-53209744D01*
X102204774Y-53398102D01*
X102165000Y-53598061D01*
X102165000Y-53801939D01*
X102204774Y-54001898D01*
X102282795Y-54190256D01*
X102303099Y-54220644D01*
X102190226Y-54296063D01*
X102046063Y-54440226D01*
X101932795Y-54609744D01*
X101854774Y-54798102D01*
X101815000Y-54998061D01*
X97413104Y-54998061D01*
X97390256Y-54982795D01*
X97201898Y-54904774D01*
X97001939Y-54865000D01*
X96798061Y-54865000D01*
X96598102Y-54904774D01*
X96409744Y-54982795D01*
X96240226Y-55096063D01*
X96096063Y-55240226D01*
X95982795Y-55409744D01*
X95904774Y-55598102D01*
X95865000Y-55798061D01*
X78767577Y-55798061D01*
X78767577Y-55347116D01*
X78668906Y-54851066D01*
X78475357Y-54383796D01*
X78194367Y-53963265D01*
X77836735Y-53605633D01*
X77416204Y-53324643D01*
X76948934Y-53131094D01*
X76452884Y-53032423D01*
X75947116Y-53032423D01*
X75451066Y-53131094D01*
X74983796Y-53324643D01*
X74563265Y-53605633D01*
X74205633Y-53963265D01*
X73924643Y-54383796D01*
X73731094Y-54851066D01*
X73632423Y-55347116D01*
X73632423Y-55852884D01*
X73652761Y-55955132D01*
X73651898Y-55954774D01*
X73451939Y-55915000D01*
X73248061Y-55915000D01*
X73048102Y-55954774D01*
X72859744Y-56032795D01*
X72690226Y-56146063D01*
X72546063Y-56290226D01*
X72432795Y-56459744D01*
X72354774Y-56648102D01*
X72315000Y-56848061D01*
X60460000Y-56848061D01*
X60460000Y-52300807D01*
X60597912Y-52507207D01*
X60992793Y-52902088D01*
X61457124Y-53212344D01*
X61973061Y-53426052D01*
X62520777Y-53535000D01*
X63079223Y-53535000D01*
X63626939Y-53426052D01*
X64142876Y-53212344D01*
X64607207Y-52902088D01*
X65002088Y-52507207D01*
X65312344Y-52042876D01*
X65415789Y-51793137D01*
X65865000Y-51793137D01*
X65865000Y-52006863D01*
X65906696Y-52216483D01*
X65988485Y-52413940D01*
X66107225Y-52591647D01*
X66258353Y-52742775D01*
X66436060Y-52861515D01*
X66633517Y-52943304D01*
X66843137Y-52985000D01*
X67056863Y-52985000D01*
X67266483Y-52943304D01*
X67463940Y-52861515D01*
X67641647Y-52742775D01*
X67792775Y-52591647D01*
X67911515Y-52413940D01*
X67993304Y-52216483D01*
X68035000Y-52006863D01*
X68035000Y-51793137D01*
X72665000Y-51793137D01*
X72665000Y-52006863D01*
X72706696Y-52216483D01*
X72788485Y-52413940D01*
X72907225Y-52591647D01*
X73058353Y-52742775D01*
X73236060Y-52861515D01*
X73433517Y-52943304D01*
X73643137Y-52985000D01*
X73856863Y-52985000D01*
X74066483Y-52943304D01*
X74263940Y-52861515D01*
X74441647Y-52742775D01*
X74592775Y-52591647D01*
X74711515Y-52413940D01*
X74793304Y-52216483D01*
X74835000Y-52006863D01*
X74835000Y-51793137D01*
X74793304Y-51583517D01*
X74711515Y-51386060D01*
X74652716Y-51298061D01*
X83165000Y-51298061D01*
X83165000Y-51501939D01*
X83204774Y-51701898D01*
X83282795Y-51890256D01*
X83396063Y-52059774D01*
X83540226Y-52203937D01*
X83709744Y-52317205D01*
X83898102Y-52395226D01*
X84098061Y-52435000D01*
X84301939Y-52435000D01*
X84501898Y-52395226D01*
X84690256Y-52317205D01*
X84859774Y-52203937D01*
X85003937Y-52059774D01*
X85117205Y-51890256D01*
X85195226Y-51701898D01*
X85235000Y-51501939D01*
X85235000Y-51348061D01*
X87415000Y-51348061D01*
X87415000Y-51551939D01*
X87454774Y-51751898D01*
X87532795Y-51940256D01*
X87646063Y-52109774D01*
X87790226Y-52253937D01*
X87959744Y-52367205D01*
X88148102Y-52445226D01*
X88348061Y-52485000D01*
X88551939Y-52485000D01*
X88751898Y-52445226D01*
X88940256Y-52367205D01*
X89109774Y-52253937D01*
X89253937Y-52109774D01*
X89367205Y-51940256D01*
X89445226Y-51751898D01*
X89485000Y-51551939D01*
X89485000Y-51348061D01*
X89445226Y-51148102D01*
X89367205Y-50959744D01*
X89253937Y-50790226D01*
X89109774Y-50646063D01*
X88940256Y-50532795D01*
X88751898Y-50454774D01*
X88551939Y-50415000D01*
X88348061Y-50415000D01*
X88148102Y-50454774D01*
X87959744Y-50532795D01*
X87790226Y-50646063D01*
X87646063Y-50790226D01*
X87532795Y-50959744D01*
X87454774Y-51148102D01*
X87415000Y-51348061D01*
X85235000Y-51348061D01*
X85235000Y-51298061D01*
X85195226Y-51098102D01*
X85117205Y-50909744D01*
X85003937Y-50740226D01*
X84859774Y-50596063D01*
X84690256Y-50482795D01*
X84501898Y-50404774D01*
X84301939Y-50365000D01*
X84098061Y-50365000D01*
X83898102Y-50404774D01*
X83709744Y-50482795D01*
X83540226Y-50596063D01*
X83396063Y-50740226D01*
X83282795Y-50909744D01*
X83204774Y-51098102D01*
X83165000Y-51298061D01*
X74652716Y-51298061D01*
X74592775Y-51208353D01*
X74441647Y-51057225D01*
X74263940Y-50938485D01*
X74066483Y-50856696D01*
X73856863Y-50815000D01*
X73643137Y-50815000D01*
X73433517Y-50856696D01*
X73236060Y-50938485D01*
X73058353Y-51057225D01*
X72907225Y-51208353D01*
X72788485Y-51386060D01*
X72706696Y-51583517D01*
X72665000Y-51793137D01*
X68035000Y-51793137D01*
X67993304Y-51583517D01*
X67911515Y-51386060D01*
X67792775Y-51208353D01*
X67641647Y-51057225D01*
X67463940Y-50938485D01*
X67266483Y-50856696D01*
X67056863Y-50815000D01*
X66843137Y-50815000D01*
X66633517Y-50856696D01*
X66436060Y-50938485D01*
X66258353Y-51057225D01*
X66107225Y-51208353D01*
X65988485Y-51386060D01*
X65906696Y-51583517D01*
X65865000Y-51793137D01*
X65415789Y-51793137D01*
X65526052Y-51526939D01*
X65635000Y-50979223D01*
X65635000Y-50420777D01*
X65526052Y-49873061D01*
X65312344Y-49357124D01*
X65002088Y-48892793D01*
X64607207Y-48497912D01*
X64400807Y-48360000D01*
X148799193Y-48360000D01*
X148592793Y-48497912D01*
M02*
