G04 #@! TF.GenerationSoftware,KiCad,Pcbnew,(5.1.5)-3*
G04 #@! TF.CreationDate,2020-05-17T20:07:58+05:30*
G04 #@! TF.ProjectId,ArmTrax,41726d54-7261-4782-9e6b-696361645f70,rev?*
G04 #@! TF.SameCoordinates,Original*
G04 #@! TF.FileFunction,Legend,Bot*
G04 #@! TF.FilePolarity,Positive*
%FSLAX46Y46*%
G04 Gerber Fmt 4.6, Leading zero omitted, Abs format (unit mm)*
G04 Created by KiCad (PCBNEW (5.1.5)-3) date 2020-05-17 20:07:58*
%MOMM*%
%LPD*%
G04 APERTURE LIST*
%ADD10C,0.120000*%
%ADD11C,0.150000*%
%ADD12C,0.075000*%
G04 APERTURE END LIST*
D10*
X61300000Y-68350000D02*
X61300000Y-70850000D01*
X60050000Y-69600000D02*
X62550000Y-69600000D01*
X147550000Y-69600000D02*
X145050000Y-69600000D01*
X142440000Y-67040000D02*
X142440000Y-74020000D01*
X142440000Y-74040000D02*
X65160000Y-74040000D01*
X65160000Y-74040000D02*
X65160000Y-67040000D01*
X142440000Y-60160000D02*
X142440000Y-53160000D01*
X142440000Y-53160000D02*
X65160000Y-53160000D01*
X65160000Y-53160000D02*
X65160000Y-60160000D01*
X65160000Y-67040000D02*
X60800000Y-67040000D01*
D11*
X104133333Y-74552380D02*
X104133333Y-75266666D01*
X104180952Y-75409523D01*
X104276190Y-75504761D01*
X104419047Y-75552380D01*
X104514285Y-75552380D01*
X103704761Y-74647619D02*
X103657142Y-74600000D01*
X103561904Y-74552380D01*
X103323809Y-74552380D01*
X103228571Y-74600000D01*
X103180952Y-74647619D01*
X103133333Y-74742857D01*
X103133333Y-74838095D01*
X103180952Y-74980952D01*
X103752380Y-75552380D01*
X103133333Y-75552380D01*
D12*
X145898333Y-67056190D02*
X146065000Y-66818095D01*
X146184047Y-67056190D02*
X146184047Y-66556190D01*
X145993571Y-66556190D01*
X145945952Y-66580000D01*
X145922142Y-66603809D01*
X145898333Y-66651428D01*
X145898333Y-66722857D01*
X145922142Y-66770476D01*
X145945952Y-66794285D01*
X145993571Y-66818095D01*
X146184047Y-66818095D01*
X145469761Y-66722857D02*
X145469761Y-67056190D01*
X145588809Y-66532380D02*
X145707857Y-66889523D01*
X145398333Y-66889523D01*
M02*
