G04 #@! TF.GenerationSoftware,KiCad,Pcbnew,(5.1.5)-3*
G04 #@! TF.CreationDate,2020-05-17T20:07:59+05:30*
G04 #@! TF.ProjectId,ArmTrax,41726d54-7261-4782-9e6b-696361645f70,rev?*
G04 #@! TF.SameCoordinates,Original*
G04 #@! TF.FileFunction,Soldermask,Bot*
G04 #@! TF.FilePolarity,Negative*
%FSLAX46Y46*%
G04 Gerber Fmt 4.6, Leading zero omitted, Abs format (unit mm)*
G04 Created by KiCad (PCBNEW (5.1.5)-3) date 2020-05-17 20:07:59*
%MOMM*%
%LPD*%
G04 APERTURE LIST*
%ADD10C,0.100000*%
G04 APERTURE END LIST*
D10*
G36*
X150675880Y-74459776D02*
G01*
X151056593Y-74535504D01*
X151466249Y-74705189D01*
X151834929Y-74951534D01*
X152148466Y-75265071D01*
X152394811Y-75633751D01*
X152564496Y-76043407D01*
X152651000Y-76478296D01*
X152651000Y-76921704D01*
X152564496Y-77356593D01*
X152394811Y-77766249D01*
X152148466Y-78134929D01*
X151834929Y-78448466D01*
X151466249Y-78694811D01*
X151056593Y-78864496D01*
X150675880Y-78940224D01*
X150621705Y-78951000D01*
X150178295Y-78951000D01*
X150124120Y-78940224D01*
X149743407Y-78864496D01*
X149333751Y-78694811D01*
X148965071Y-78448466D01*
X148651534Y-78134929D01*
X148405189Y-77766249D01*
X148235504Y-77356593D01*
X148149000Y-76921704D01*
X148149000Y-76478296D01*
X148235504Y-76043407D01*
X148405189Y-75633751D01*
X148651534Y-75265071D01*
X148965071Y-74951534D01*
X149333751Y-74705189D01*
X149743407Y-74535504D01*
X150124120Y-74459776D01*
X150178295Y-74449000D01*
X150621705Y-74449000D01*
X150675880Y-74459776D01*
G37*
G36*
X63075880Y-74459776D02*
G01*
X63456593Y-74535504D01*
X63866249Y-74705189D01*
X64234929Y-74951534D01*
X64548466Y-75265071D01*
X64794811Y-75633751D01*
X64964496Y-76043407D01*
X65051000Y-76478296D01*
X65051000Y-76921704D01*
X64964496Y-77356593D01*
X64794811Y-77766249D01*
X64548466Y-78134929D01*
X64234929Y-78448466D01*
X63866249Y-78694811D01*
X63456593Y-78864496D01*
X63075880Y-78940224D01*
X63021705Y-78951000D01*
X62578295Y-78951000D01*
X62524120Y-78940224D01*
X62143407Y-78864496D01*
X61733751Y-78694811D01*
X61365071Y-78448466D01*
X61051534Y-78134929D01*
X60805189Y-77766249D01*
X60635504Y-77356593D01*
X60549000Y-76921704D01*
X60549000Y-76478296D01*
X60635504Y-76043407D01*
X60805189Y-75633751D01*
X61051534Y-75265071D01*
X61365071Y-74951534D01*
X61733751Y-74705189D01*
X62143407Y-74535504D01*
X62524120Y-74459776D01*
X62578295Y-74449000D01*
X63021705Y-74449000D01*
X63075880Y-74459776D01*
G37*
G36*
X131918039Y-69892250D02*
G01*
X132107372Y-69970675D01*
X132241251Y-70026129D01*
X132532134Y-70220491D01*
X132779509Y-70467866D01*
X132973871Y-70758749D01*
X132973871Y-70758750D01*
X133107750Y-71081961D01*
X133176000Y-71425078D01*
X133176000Y-71774922D01*
X133107750Y-72118039D01*
X133077859Y-72190201D01*
X132973871Y-72441251D01*
X132779509Y-72732134D01*
X132532134Y-72979509D01*
X132241251Y-73173871D01*
X132107372Y-73229325D01*
X131918039Y-73307750D01*
X131574922Y-73376000D01*
X131225078Y-73376000D01*
X130881961Y-73307750D01*
X130692628Y-73229325D01*
X130558749Y-73173871D01*
X130267866Y-72979509D01*
X130020491Y-72732134D01*
X129826129Y-72441251D01*
X129722141Y-72190201D01*
X129692250Y-72118039D01*
X129624000Y-71774922D01*
X129624000Y-71425078D01*
X129692250Y-71081961D01*
X129826129Y-70758750D01*
X129826129Y-70758749D01*
X130020491Y-70467866D01*
X130267866Y-70220491D01*
X130558749Y-70026129D01*
X130692628Y-69970675D01*
X130881961Y-69892250D01*
X131225078Y-69824000D01*
X131574922Y-69824000D01*
X131918039Y-69892250D01*
G37*
G36*
X152351000Y-73251000D02*
G01*
X148049000Y-73251000D01*
X148049000Y-71799000D01*
X152351000Y-71799000D01*
X152351000Y-73251000D01*
G37*
G36*
X68233444Y-70401882D02*
G01*
X68460201Y-70495808D01*
X68460202Y-70495809D01*
X68664279Y-70632168D01*
X68837832Y-70805721D01*
X68928944Y-70942081D01*
X68974192Y-71009799D01*
X69068118Y-71236556D01*
X69116000Y-71477278D01*
X69116000Y-71722722D01*
X69068118Y-71963444D01*
X68974192Y-72190201D01*
X68974191Y-72190202D01*
X68837832Y-72394279D01*
X68664279Y-72567832D01*
X68527919Y-72658944D01*
X68460201Y-72704192D01*
X68233444Y-72798118D01*
X67992722Y-72846000D01*
X67747278Y-72846000D01*
X67506556Y-72798118D01*
X67279799Y-72704192D01*
X67212081Y-72658944D01*
X67075721Y-72567832D01*
X66902168Y-72394279D01*
X66765809Y-72190202D01*
X66765808Y-72190201D01*
X66671882Y-71963444D01*
X66624000Y-71722722D01*
X66624000Y-71477278D01*
X66671882Y-71236556D01*
X66765808Y-71009799D01*
X66811056Y-70942081D01*
X66902168Y-70805721D01*
X67075721Y-70632168D01*
X67279798Y-70495809D01*
X67279799Y-70495808D01*
X67506556Y-70401882D01*
X67747278Y-70354000D01*
X67992722Y-70354000D01*
X68233444Y-70401882D01*
G37*
G36*
X146556938Y-67631716D02*
G01*
X146577557Y-67637971D01*
X146596553Y-67648124D01*
X146613208Y-67661792D01*
X146626876Y-67678447D01*
X146637029Y-67697443D01*
X146643284Y-67718062D01*
X146646000Y-67745640D01*
X146646000Y-68254360D01*
X146643284Y-68281938D01*
X146637029Y-68302557D01*
X146626876Y-68321553D01*
X146613208Y-68338208D01*
X146596553Y-68351876D01*
X146577557Y-68362029D01*
X146556938Y-68368284D01*
X146529360Y-68371000D01*
X146070640Y-68371000D01*
X146043062Y-68368284D01*
X146022443Y-68362029D01*
X146003447Y-68351876D01*
X145986792Y-68338208D01*
X145973124Y-68321553D01*
X145962971Y-68302557D01*
X145956716Y-68281938D01*
X145954000Y-68254360D01*
X145954000Y-67745640D01*
X145956716Y-67718062D01*
X145962971Y-67697443D01*
X145973124Y-67678447D01*
X145986792Y-67661792D01*
X146003447Y-67648124D01*
X146022443Y-67637971D01*
X146043062Y-67631716D01*
X146070640Y-67629000D01*
X146529360Y-67629000D01*
X146556938Y-67631716D01*
G37*
G36*
X145586938Y-67631716D02*
G01*
X145607557Y-67637971D01*
X145626553Y-67648124D01*
X145643208Y-67661792D01*
X145656876Y-67678447D01*
X145667029Y-67697443D01*
X145673284Y-67718062D01*
X145676000Y-67745640D01*
X145676000Y-68254360D01*
X145673284Y-68281938D01*
X145667029Y-68302557D01*
X145656876Y-68321553D01*
X145643208Y-68338208D01*
X145626553Y-68351876D01*
X145607557Y-68362029D01*
X145586938Y-68368284D01*
X145559360Y-68371000D01*
X145100640Y-68371000D01*
X145073062Y-68368284D01*
X145052443Y-68362029D01*
X145033447Y-68351876D01*
X145016792Y-68338208D01*
X145003124Y-68321553D01*
X144992971Y-68302557D01*
X144986716Y-68281938D01*
X144984000Y-68254360D01*
X144984000Y-67745640D01*
X144986716Y-67718062D01*
X144992971Y-67697443D01*
X145003124Y-67678447D01*
X145016792Y-67661792D01*
X145033447Y-67648124D01*
X145052443Y-67637971D01*
X145073062Y-67631716D01*
X145100640Y-67629000D01*
X145559360Y-67629000D01*
X145586938Y-67631716D01*
G37*
G36*
X152351000Y-67601000D02*
G01*
X148049000Y-67601000D01*
X148049000Y-66149000D01*
X152351000Y-66149000D01*
X152351000Y-67601000D01*
G37*
G36*
X146851000Y-66826000D02*
G01*
X139409000Y-66826000D01*
X139409000Y-60374000D01*
X146851000Y-60374000D01*
X146851000Y-66826000D01*
G37*
G36*
X68191000Y-66826000D02*
G01*
X60749000Y-66826000D01*
X60749000Y-60374000D01*
X68191000Y-60374000D01*
X68191000Y-66826000D01*
G37*
G36*
X152351000Y-61251000D02*
G01*
X148049000Y-61251000D01*
X148049000Y-59799000D01*
X152351000Y-59799000D01*
X152351000Y-61251000D01*
G37*
G36*
X76718039Y-53892250D02*
G01*
X76907372Y-53970675D01*
X77041251Y-54026129D01*
X77332134Y-54220491D01*
X77579509Y-54467866D01*
X77773871Y-54758749D01*
X77773871Y-54758750D01*
X77907750Y-55081961D01*
X77976000Y-55425078D01*
X77976000Y-55774922D01*
X77907750Y-56118039D01*
X77829325Y-56307372D01*
X77773871Y-56441251D01*
X77579509Y-56732134D01*
X77332134Y-56979509D01*
X77041251Y-57173871D01*
X76907372Y-57229325D01*
X76718039Y-57307750D01*
X76374922Y-57376000D01*
X76025078Y-57376000D01*
X75681961Y-57307750D01*
X75492628Y-57229325D01*
X75358749Y-57173871D01*
X75067866Y-56979509D01*
X74820491Y-56732134D01*
X74626129Y-56441251D01*
X74570675Y-56307372D01*
X74492250Y-56118039D01*
X74424000Y-55774922D01*
X74424000Y-55425078D01*
X74492250Y-55081961D01*
X74626129Y-54758750D01*
X74626129Y-54758749D01*
X74820491Y-54467866D01*
X75067866Y-54220491D01*
X75358749Y-54026129D01*
X75492628Y-53970675D01*
X75681961Y-53892250D01*
X76025078Y-53824000D01*
X76374922Y-53824000D01*
X76718039Y-53892250D01*
G37*
G36*
X152351000Y-55601000D02*
G01*
X148049000Y-55601000D01*
X148049000Y-54149000D01*
X152351000Y-54149000D01*
X152351000Y-55601000D01*
G37*
G36*
X63075880Y-48459776D02*
G01*
X63456593Y-48535504D01*
X63866249Y-48705189D01*
X64234929Y-48951534D01*
X64548466Y-49265071D01*
X64794811Y-49633751D01*
X64964496Y-50043407D01*
X65051000Y-50478296D01*
X65051000Y-50921704D01*
X64964496Y-51356593D01*
X64794811Y-51766249D01*
X64548466Y-52134929D01*
X64234929Y-52448466D01*
X63866249Y-52694811D01*
X63456593Y-52864496D01*
X63075880Y-52940224D01*
X63021705Y-52951000D01*
X62578295Y-52951000D01*
X62524120Y-52940224D01*
X62143407Y-52864496D01*
X61733751Y-52694811D01*
X61365071Y-52448466D01*
X61051534Y-52134929D01*
X60805189Y-51766249D01*
X60635504Y-51356593D01*
X60549000Y-50921704D01*
X60549000Y-50478296D01*
X60635504Y-50043407D01*
X60805189Y-49633751D01*
X61051534Y-49265071D01*
X61365071Y-48951534D01*
X61733751Y-48705189D01*
X62143407Y-48535504D01*
X62524120Y-48459776D01*
X62578295Y-48449000D01*
X63021705Y-48449000D01*
X63075880Y-48459776D01*
G37*
G36*
X150675880Y-48459776D02*
G01*
X151056593Y-48535504D01*
X151466249Y-48705189D01*
X151834929Y-48951534D01*
X152148466Y-49265071D01*
X152394811Y-49633751D01*
X152564496Y-50043407D01*
X152651000Y-50478296D01*
X152651000Y-50921704D01*
X152564496Y-51356593D01*
X152394811Y-51766249D01*
X152148466Y-52134929D01*
X151834929Y-52448466D01*
X151466249Y-52694811D01*
X151056593Y-52864496D01*
X150675880Y-52940224D01*
X150621705Y-52951000D01*
X150178295Y-52951000D01*
X150124120Y-52940224D01*
X149743407Y-52864496D01*
X149333751Y-52694811D01*
X148965071Y-52448466D01*
X148651534Y-52134929D01*
X148405189Y-51766249D01*
X148235504Y-51356593D01*
X148149000Y-50921704D01*
X148149000Y-50478296D01*
X148235504Y-50043407D01*
X148405189Y-49633751D01*
X148651534Y-49265071D01*
X148965071Y-48951534D01*
X149333751Y-48705189D01*
X149743407Y-48535504D01*
X150124120Y-48459776D01*
X150178295Y-48449000D01*
X150621705Y-48449000D01*
X150675880Y-48459776D01*
G37*
G36*
X73847740Y-51408627D02*
G01*
X73896136Y-51418253D01*
X73933902Y-51433896D01*
X73987311Y-51456019D01*
X74024901Y-51481136D01*
X74069369Y-51510848D01*
X74139152Y-51580631D01*
X74139153Y-51580633D01*
X74193981Y-51662689D01*
X74199818Y-51676781D01*
X74231747Y-51753864D01*
X74241373Y-51802260D01*
X74251000Y-51850655D01*
X74251000Y-51949345D01*
X74231747Y-52046135D01*
X74193981Y-52137311D01*
X74193980Y-52137312D01*
X74139152Y-52219369D01*
X74069369Y-52289152D01*
X74028062Y-52316752D01*
X73987311Y-52343981D01*
X73933902Y-52366104D01*
X73896136Y-52381747D01*
X73857184Y-52389495D01*
X73799345Y-52401000D01*
X73700655Y-52401000D01*
X73642816Y-52389495D01*
X73603864Y-52381747D01*
X73566098Y-52366104D01*
X73512689Y-52343981D01*
X73471938Y-52316752D01*
X73430631Y-52289152D01*
X73360848Y-52219369D01*
X73306020Y-52137312D01*
X73306019Y-52137311D01*
X73268253Y-52046135D01*
X73249000Y-51949345D01*
X73249000Y-51850655D01*
X73258626Y-51802260D01*
X73268253Y-51753864D01*
X73300182Y-51676781D01*
X73306019Y-51662689D01*
X73360847Y-51580633D01*
X73360848Y-51580631D01*
X73430631Y-51510848D01*
X73475099Y-51481136D01*
X73512689Y-51456019D01*
X73566098Y-51433896D01*
X73603864Y-51418253D01*
X73652260Y-51408627D01*
X73700655Y-51399000D01*
X73799345Y-51399000D01*
X73847740Y-51408627D01*
G37*
G36*
X67047740Y-51408627D02*
G01*
X67096136Y-51418253D01*
X67133902Y-51433896D01*
X67187311Y-51456019D01*
X67224901Y-51481136D01*
X67269369Y-51510848D01*
X67339152Y-51580631D01*
X67339153Y-51580633D01*
X67393981Y-51662689D01*
X67399818Y-51676781D01*
X67431747Y-51753864D01*
X67441373Y-51802260D01*
X67451000Y-51850655D01*
X67451000Y-51949345D01*
X67431747Y-52046135D01*
X67393981Y-52137311D01*
X67393980Y-52137312D01*
X67339152Y-52219369D01*
X67269369Y-52289152D01*
X67228062Y-52316752D01*
X67187311Y-52343981D01*
X67133902Y-52366104D01*
X67096136Y-52381747D01*
X67057184Y-52389495D01*
X66999345Y-52401000D01*
X66900655Y-52401000D01*
X66842816Y-52389495D01*
X66803864Y-52381747D01*
X66766098Y-52366104D01*
X66712689Y-52343981D01*
X66671938Y-52316752D01*
X66630631Y-52289152D01*
X66560848Y-52219369D01*
X66506020Y-52137312D01*
X66506019Y-52137311D01*
X66468253Y-52046135D01*
X66449000Y-51949345D01*
X66449000Y-51850655D01*
X66458626Y-51802260D01*
X66468253Y-51753864D01*
X66500182Y-51676781D01*
X66506019Y-51662689D01*
X66560847Y-51580633D01*
X66560848Y-51580631D01*
X66630631Y-51510848D01*
X66675099Y-51481136D01*
X66712689Y-51456019D01*
X66766098Y-51433896D01*
X66803864Y-51418253D01*
X66852260Y-51408627D01*
X66900655Y-51399000D01*
X66999345Y-51399000D01*
X67047740Y-51408627D01*
G37*
M02*
