G04 #@! TF.GenerationSoftware,KiCad,Pcbnew,(5.1.5)-3*
G04 #@! TF.CreationDate,2020-05-17T20:08:29+05:30*
G04 #@! TF.ProjectId,panel,70616e65-6c2e-46b6-9963-61645f706362,rev?*
G04 #@! TF.SameCoordinates,Original*
G04 #@! TF.FileFunction,Paste,Bot*
G04 #@! TF.FilePolarity,Positive*
%FSLAX46Y46*%
G04 Gerber Fmt 4.6, Leading zero omitted, Abs format (unit mm)*
G04 Created by KiCad (PCBNEW (5.1.5)-3) date 2020-05-17 20:08:29*
%MOMM*%
%LPD*%
G04 APERTURE LIST*
%ADD10R,4.200000X1.350000*%
%ADD11C,0.100000*%
%ADD12R,7.340000X6.350000*%
G04 APERTURE END LIST*
D10*
X220800000Y-144175000D03*
X220800000Y-149825000D03*
X220800000Y-109175000D03*
X220800000Y-114825000D03*
X220800000Y-132175000D03*
X220800000Y-137825000D03*
X220800000Y-97175000D03*
X220800000Y-102825000D03*
D11*
G36*
X217061958Y-144980710D02*
G01*
X217076276Y-144982834D01*
X217090317Y-144986351D01*
X217103946Y-144991228D01*
X217117031Y-144997417D01*
X217129447Y-145004858D01*
X217141073Y-145013481D01*
X217151798Y-145023202D01*
X217161519Y-145033927D01*
X217170142Y-145045553D01*
X217177583Y-145057969D01*
X217183772Y-145071054D01*
X217188649Y-145084683D01*
X217192166Y-145098724D01*
X217194290Y-145113042D01*
X217195000Y-145127500D01*
X217195000Y-145472500D01*
X217194290Y-145486958D01*
X217192166Y-145501276D01*
X217188649Y-145515317D01*
X217183772Y-145528946D01*
X217177583Y-145542031D01*
X217170142Y-145554447D01*
X217161519Y-145566073D01*
X217151798Y-145576798D01*
X217141073Y-145586519D01*
X217129447Y-145595142D01*
X217117031Y-145602583D01*
X217103946Y-145608772D01*
X217090317Y-145613649D01*
X217076276Y-145617166D01*
X217061958Y-145619290D01*
X217047500Y-145620000D01*
X216752500Y-145620000D01*
X216738042Y-145619290D01*
X216723724Y-145617166D01*
X216709683Y-145613649D01*
X216696054Y-145608772D01*
X216682969Y-145602583D01*
X216670553Y-145595142D01*
X216658927Y-145586519D01*
X216648202Y-145576798D01*
X216638481Y-145566073D01*
X216629858Y-145554447D01*
X216622417Y-145542031D01*
X216616228Y-145528946D01*
X216611351Y-145515317D01*
X216607834Y-145501276D01*
X216605710Y-145486958D01*
X216605000Y-145472500D01*
X216605000Y-145127500D01*
X216605710Y-145113042D01*
X216607834Y-145098724D01*
X216611351Y-145084683D01*
X216616228Y-145071054D01*
X216622417Y-145057969D01*
X216629858Y-145045553D01*
X216638481Y-145033927D01*
X216648202Y-145023202D01*
X216658927Y-145013481D01*
X216670553Y-145004858D01*
X216682969Y-144997417D01*
X216696054Y-144991228D01*
X216709683Y-144986351D01*
X216723724Y-144982834D01*
X216738042Y-144980710D01*
X216752500Y-144980000D01*
X217047500Y-144980000D01*
X217061958Y-144980710D01*
G37*
G36*
X216091958Y-144980710D02*
G01*
X216106276Y-144982834D01*
X216120317Y-144986351D01*
X216133946Y-144991228D01*
X216147031Y-144997417D01*
X216159447Y-145004858D01*
X216171073Y-145013481D01*
X216181798Y-145023202D01*
X216191519Y-145033927D01*
X216200142Y-145045553D01*
X216207583Y-145057969D01*
X216213772Y-145071054D01*
X216218649Y-145084683D01*
X216222166Y-145098724D01*
X216224290Y-145113042D01*
X216225000Y-145127500D01*
X216225000Y-145472500D01*
X216224290Y-145486958D01*
X216222166Y-145501276D01*
X216218649Y-145515317D01*
X216213772Y-145528946D01*
X216207583Y-145542031D01*
X216200142Y-145554447D01*
X216191519Y-145566073D01*
X216181798Y-145576798D01*
X216171073Y-145586519D01*
X216159447Y-145595142D01*
X216147031Y-145602583D01*
X216133946Y-145608772D01*
X216120317Y-145613649D01*
X216106276Y-145617166D01*
X216091958Y-145619290D01*
X216077500Y-145620000D01*
X215782500Y-145620000D01*
X215768042Y-145619290D01*
X215753724Y-145617166D01*
X215739683Y-145613649D01*
X215726054Y-145608772D01*
X215712969Y-145602583D01*
X215700553Y-145595142D01*
X215688927Y-145586519D01*
X215678202Y-145576798D01*
X215668481Y-145566073D01*
X215659858Y-145554447D01*
X215652417Y-145542031D01*
X215646228Y-145528946D01*
X215641351Y-145515317D01*
X215637834Y-145501276D01*
X215635710Y-145486958D01*
X215635000Y-145472500D01*
X215635000Y-145127500D01*
X215635710Y-145113042D01*
X215637834Y-145098724D01*
X215641351Y-145084683D01*
X215646228Y-145071054D01*
X215652417Y-145057969D01*
X215659858Y-145045553D01*
X215668481Y-145033927D01*
X215678202Y-145023202D01*
X215688927Y-145013481D01*
X215700553Y-145004858D01*
X215712969Y-144997417D01*
X215726054Y-144991228D01*
X215739683Y-144986351D01*
X215753724Y-144982834D01*
X215768042Y-144980710D01*
X215782500Y-144980000D01*
X216077500Y-144980000D01*
X216091958Y-144980710D01*
G37*
G36*
X217061958Y-109980710D02*
G01*
X217076276Y-109982834D01*
X217090317Y-109986351D01*
X217103946Y-109991228D01*
X217117031Y-109997417D01*
X217129447Y-110004858D01*
X217141073Y-110013481D01*
X217151798Y-110023202D01*
X217161519Y-110033927D01*
X217170142Y-110045553D01*
X217177583Y-110057969D01*
X217183772Y-110071054D01*
X217188649Y-110084683D01*
X217192166Y-110098724D01*
X217194290Y-110113042D01*
X217195000Y-110127500D01*
X217195000Y-110472500D01*
X217194290Y-110486958D01*
X217192166Y-110501276D01*
X217188649Y-110515317D01*
X217183772Y-110528946D01*
X217177583Y-110542031D01*
X217170142Y-110554447D01*
X217161519Y-110566073D01*
X217151798Y-110576798D01*
X217141073Y-110586519D01*
X217129447Y-110595142D01*
X217117031Y-110602583D01*
X217103946Y-110608772D01*
X217090317Y-110613649D01*
X217076276Y-110617166D01*
X217061958Y-110619290D01*
X217047500Y-110620000D01*
X216752500Y-110620000D01*
X216738042Y-110619290D01*
X216723724Y-110617166D01*
X216709683Y-110613649D01*
X216696054Y-110608772D01*
X216682969Y-110602583D01*
X216670553Y-110595142D01*
X216658927Y-110586519D01*
X216648202Y-110576798D01*
X216638481Y-110566073D01*
X216629858Y-110554447D01*
X216622417Y-110542031D01*
X216616228Y-110528946D01*
X216611351Y-110515317D01*
X216607834Y-110501276D01*
X216605710Y-110486958D01*
X216605000Y-110472500D01*
X216605000Y-110127500D01*
X216605710Y-110113042D01*
X216607834Y-110098724D01*
X216611351Y-110084683D01*
X216616228Y-110071054D01*
X216622417Y-110057969D01*
X216629858Y-110045553D01*
X216638481Y-110033927D01*
X216648202Y-110023202D01*
X216658927Y-110013481D01*
X216670553Y-110004858D01*
X216682969Y-109997417D01*
X216696054Y-109991228D01*
X216709683Y-109986351D01*
X216723724Y-109982834D01*
X216738042Y-109980710D01*
X216752500Y-109980000D01*
X217047500Y-109980000D01*
X217061958Y-109980710D01*
G37*
G36*
X216091958Y-109980710D02*
G01*
X216106276Y-109982834D01*
X216120317Y-109986351D01*
X216133946Y-109991228D01*
X216147031Y-109997417D01*
X216159447Y-110004858D01*
X216171073Y-110013481D01*
X216181798Y-110023202D01*
X216191519Y-110033927D01*
X216200142Y-110045553D01*
X216207583Y-110057969D01*
X216213772Y-110071054D01*
X216218649Y-110084683D01*
X216222166Y-110098724D01*
X216224290Y-110113042D01*
X216225000Y-110127500D01*
X216225000Y-110472500D01*
X216224290Y-110486958D01*
X216222166Y-110501276D01*
X216218649Y-110515317D01*
X216213772Y-110528946D01*
X216207583Y-110542031D01*
X216200142Y-110554447D01*
X216191519Y-110566073D01*
X216181798Y-110576798D01*
X216171073Y-110586519D01*
X216159447Y-110595142D01*
X216147031Y-110602583D01*
X216133946Y-110608772D01*
X216120317Y-110613649D01*
X216106276Y-110617166D01*
X216091958Y-110619290D01*
X216077500Y-110620000D01*
X215782500Y-110620000D01*
X215768042Y-110619290D01*
X215753724Y-110617166D01*
X215739683Y-110613649D01*
X215726054Y-110608772D01*
X215712969Y-110602583D01*
X215700553Y-110595142D01*
X215688927Y-110586519D01*
X215678202Y-110576798D01*
X215668481Y-110566073D01*
X215659858Y-110554447D01*
X215652417Y-110542031D01*
X215646228Y-110528946D01*
X215641351Y-110515317D01*
X215637834Y-110501276D01*
X215635710Y-110486958D01*
X215635000Y-110472500D01*
X215635000Y-110127500D01*
X215635710Y-110113042D01*
X215637834Y-110098724D01*
X215641351Y-110084683D01*
X215646228Y-110071054D01*
X215652417Y-110057969D01*
X215659858Y-110045553D01*
X215668481Y-110033927D01*
X215678202Y-110023202D01*
X215688927Y-110013481D01*
X215700553Y-110004858D01*
X215712969Y-109997417D01*
X215726054Y-109991228D01*
X215739683Y-109986351D01*
X215753724Y-109982834D01*
X215768042Y-109980710D01*
X215782500Y-109980000D01*
X216077500Y-109980000D01*
X216091958Y-109980710D01*
G37*
D12*
X135070000Y-140900000D03*
X213730000Y-140900000D03*
X135070000Y-105900000D03*
X213730000Y-105900000D03*
X213730000Y-70900000D03*
X135070000Y-70900000D03*
D11*
G36*
X216091958Y-74980710D02*
G01*
X216106276Y-74982834D01*
X216120317Y-74986351D01*
X216133946Y-74991228D01*
X216147031Y-74997417D01*
X216159447Y-75004858D01*
X216171073Y-75013481D01*
X216181798Y-75023202D01*
X216191519Y-75033927D01*
X216200142Y-75045553D01*
X216207583Y-75057969D01*
X216213772Y-75071054D01*
X216218649Y-75084683D01*
X216222166Y-75098724D01*
X216224290Y-75113042D01*
X216225000Y-75127500D01*
X216225000Y-75472500D01*
X216224290Y-75486958D01*
X216222166Y-75501276D01*
X216218649Y-75515317D01*
X216213772Y-75528946D01*
X216207583Y-75542031D01*
X216200142Y-75554447D01*
X216191519Y-75566073D01*
X216181798Y-75576798D01*
X216171073Y-75586519D01*
X216159447Y-75595142D01*
X216147031Y-75602583D01*
X216133946Y-75608772D01*
X216120317Y-75613649D01*
X216106276Y-75617166D01*
X216091958Y-75619290D01*
X216077500Y-75620000D01*
X215782500Y-75620000D01*
X215768042Y-75619290D01*
X215753724Y-75617166D01*
X215739683Y-75613649D01*
X215726054Y-75608772D01*
X215712969Y-75602583D01*
X215700553Y-75595142D01*
X215688927Y-75586519D01*
X215678202Y-75576798D01*
X215668481Y-75566073D01*
X215659858Y-75554447D01*
X215652417Y-75542031D01*
X215646228Y-75528946D01*
X215641351Y-75515317D01*
X215637834Y-75501276D01*
X215635710Y-75486958D01*
X215635000Y-75472500D01*
X215635000Y-75127500D01*
X215635710Y-75113042D01*
X215637834Y-75098724D01*
X215641351Y-75084683D01*
X215646228Y-75071054D01*
X215652417Y-75057969D01*
X215659858Y-75045553D01*
X215668481Y-75033927D01*
X215678202Y-75023202D01*
X215688927Y-75013481D01*
X215700553Y-75004858D01*
X215712969Y-74997417D01*
X215726054Y-74991228D01*
X215739683Y-74986351D01*
X215753724Y-74982834D01*
X215768042Y-74980710D01*
X215782500Y-74980000D01*
X216077500Y-74980000D01*
X216091958Y-74980710D01*
G37*
G36*
X217061958Y-74980710D02*
G01*
X217076276Y-74982834D01*
X217090317Y-74986351D01*
X217103946Y-74991228D01*
X217117031Y-74997417D01*
X217129447Y-75004858D01*
X217141073Y-75013481D01*
X217151798Y-75023202D01*
X217161519Y-75033927D01*
X217170142Y-75045553D01*
X217177583Y-75057969D01*
X217183772Y-75071054D01*
X217188649Y-75084683D01*
X217192166Y-75098724D01*
X217194290Y-75113042D01*
X217195000Y-75127500D01*
X217195000Y-75472500D01*
X217194290Y-75486958D01*
X217192166Y-75501276D01*
X217188649Y-75515317D01*
X217183772Y-75528946D01*
X217177583Y-75542031D01*
X217170142Y-75554447D01*
X217161519Y-75566073D01*
X217151798Y-75576798D01*
X217141073Y-75586519D01*
X217129447Y-75595142D01*
X217117031Y-75602583D01*
X217103946Y-75608772D01*
X217090317Y-75613649D01*
X217076276Y-75617166D01*
X217061958Y-75619290D01*
X217047500Y-75620000D01*
X216752500Y-75620000D01*
X216738042Y-75619290D01*
X216723724Y-75617166D01*
X216709683Y-75613649D01*
X216696054Y-75608772D01*
X216682969Y-75602583D01*
X216670553Y-75595142D01*
X216658927Y-75586519D01*
X216648202Y-75576798D01*
X216638481Y-75566073D01*
X216629858Y-75554447D01*
X216622417Y-75542031D01*
X216616228Y-75528946D01*
X216611351Y-75515317D01*
X216607834Y-75501276D01*
X216605710Y-75486958D01*
X216605000Y-75472500D01*
X216605000Y-75127500D01*
X216605710Y-75113042D01*
X216607834Y-75098724D01*
X216611351Y-75084683D01*
X216616228Y-75071054D01*
X216622417Y-75057969D01*
X216629858Y-75045553D01*
X216638481Y-75033927D01*
X216648202Y-75023202D01*
X216658927Y-75013481D01*
X216670553Y-75004858D01*
X216682969Y-74997417D01*
X216696054Y-74991228D01*
X216709683Y-74986351D01*
X216723724Y-74982834D01*
X216738042Y-74980710D01*
X216752500Y-74980000D01*
X217047500Y-74980000D01*
X217061958Y-74980710D01*
G37*
D10*
X220800000Y-67825000D03*
X220800000Y-62175000D03*
X220800000Y-79825000D03*
X220800000Y-74175000D03*
M02*
