G04 #@! TF.GenerationSoftware,KiCad,Pcbnew,(5.1.5)-3*
G04 #@! TF.CreationDate,2020-05-17T20:08:31+05:30*
G04 #@! TF.ProjectId,panel,70616e65-6c2e-46b6-9963-61645f706362,rev?*
G04 #@! TF.SameCoordinates,Original*
G04 #@! TF.FileFunction,Other,Comment*
%FSLAX46Y46*%
G04 Gerber Fmt 4.6, Leading zero omitted, Abs format (unit mm)*
G04 Created by KiCad (PCBNEW (5.1.5)-3) date 2020-05-17 20:08:31*
%MOMM*%
%LPD*%
G04 APERTURE LIST*
%ADD10C,0.150000*%
G04 APERTURE END LIST*
D10*
X129257142Y-73904761D02*
X129304761Y-73952380D01*
X129352380Y-74095238D01*
X129352380Y-74190476D01*
X129304761Y-74333333D01*
X129209523Y-74428571D01*
X129114285Y-74476190D01*
X128923809Y-74523809D01*
X128780952Y-74523809D01*
X128590476Y-74476190D01*
X128495238Y-74428571D01*
X128400000Y-74333333D01*
X128352380Y-74190476D01*
X128352380Y-74095238D01*
X128400000Y-73952380D01*
X128447619Y-73904761D01*
X128352380Y-73476190D02*
X129161904Y-73476190D01*
X129257142Y-73428571D01*
X129304761Y-73380952D01*
X129352380Y-73285714D01*
X129352380Y-73095238D01*
X129304761Y-73000000D01*
X129257142Y-72952380D01*
X129161904Y-72904761D01*
X128352380Y-72904761D01*
X128352380Y-72571428D02*
X128352380Y-72000000D01*
X129352380Y-72285714D02*
X128352380Y-72285714D01*
X128352380Y-70714285D02*
X128352380Y-70523809D01*
X128400000Y-70428571D01*
X128495238Y-70333333D01*
X128685714Y-70285714D01*
X129019047Y-70285714D01*
X129209523Y-70333333D01*
X129304761Y-70428571D01*
X129352380Y-70523809D01*
X129352380Y-70714285D01*
X129304761Y-70809523D01*
X129209523Y-70904761D01*
X129019047Y-70952380D01*
X128685714Y-70952380D01*
X128495238Y-70904761D01*
X128400000Y-70809523D01*
X128352380Y-70714285D01*
X128352380Y-69857142D02*
X129161904Y-69857142D01*
X129257142Y-69809523D01*
X129304761Y-69761904D01*
X129352380Y-69666666D01*
X129352380Y-69476190D01*
X129304761Y-69380952D01*
X129257142Y-69333333D01*
X129161904Y-69285714D01*
X128352380Y-69285714D01*
X128352380Y-68952380D02*
X128352380Y-68380952D01*
X129352380Y-68666666D02*
X128352380Y-68666666D01*
X129257142Y-63804761D02*
X129304761Y-63852380D01*
X129352380Y-63995238D01*
X129352380Y-64090476D01*
X129304761Y-64233333D01*
X129209523Y-64328571D01*
X129114285Y-64376190D01*
X128923809Y-64423809D01*
X128780952Y-64423809D01*
X128590476Y-64376190D01*
X128495238Y-64328571D01*
X128400000Y-64233333D01*
X128352380Y-64090476D01*
X128352380Y-63995238D01*
X128400000Y-63852380D01*
X128447619Y-63804761D01*
X128352380Y-63376190D02*
X129161904Y-63376190D01*
X129257142Y-63328571D01*
X129304761Y-63280952D01*
X129352380Y-63185714D01*
X129352380Y-62995238D01*
X129304761Y-62900000D01*
X129257142Y-62852380D01*
X129161904Y-62804761D01*
X128352380Y-62804761D01*
X128352380Y-62471428D02*
X128352380Y-61900000D01*
X129352380Y-62185714D02*
X128352380Y-62185714D01*
X128352380Y-60614285D02*
X128352380Y-60423809D01*
X128400000Y-60328571D01*
X128495238Y-60233333D01*
X128685714Y-60185714D01*
X129019047Y-60185714D01*
X129209523Y-60233333D01*
X129304761Y-60328571D01*
X129352380Y-60423809D01*
X129352380Y-60614285D01*
X129304761Y-60709523D01*
X129209523Y-60804761D01*
X129019047Y-60852380D01*
X128685714Y-60852380D01*
X128495238Y-60804761D01*
X128400000Y-60709523D01*
X128352380Y-60614285D01*
X128352380Y-59757142D02*
X129161904Y-59757142D01*
X129257142Y-59709523D01*
X129304761Y-59661904D01*
X129352380Y-59566666D01*
X129352380Y-59376190D01*
X129304761Y-59280952D01*
X129257142Y-59233333D01*
X129161904Y-59185714D01*
X128352380Y-59185714D01*
X128352380Y-58852380D02*
X128352380Y-58280952D01*
X129352380Y-58566666D02*
X128352380Y-58566666D01*
X129157142Y-83504761D02*
X129204761Y-83552380D01*
X129252380Y-83695238D01*
X129252380Y-83790476D01*
X129204761Y-83933333D01*
X129109523Y-84028571D01*
X129014285Y-84076190D01*
X128823809Y-84123809D01*
X128680952Y-84123809D01*
X128490476Y-84076190D01*
X128395238Y-84028571D01*
X128300000Y-83933333D01*
X128252380Y-83790476D01*
X128252380Y-83695238D01*
X128300000Y-83552380D01*
X128347619Y-83504761D01*
X128252380Y-83076190D02*
X129061904Y-83076190D01*
X129157142Y-83028571D01*
X129204761Y-82980952D01*
X129252380Y-82885714D01*
X129252380Y-82695238D01*
X129204761Y-82600000D01*
X129157142Y-82552380D01*
X129061904Y-82504761D01*
X128252380Y-82504761D01*
X128252380Y-82171428D02*
X128252380Y-81600000D01*
X129252380Y-81885714D02*
X128252380Y-81885714D01*
X128252380Y-80314285D02*
X128252380Y-80123809D01*
X128300000Y-80028571D01*
X128395238Y-79933333D01*
X128585714Y-79885714D01*
X128919047Y-79885714D01*
X129109523Y-79933333D01*
X129204761Y-80028571D01*
X129252380Y-80123809D01*
X129252380Y-80314285D01*
X129204761Y-80409523D01*
X129109523Y-80504761D01*
X128919047Y-80552380D01*
X128585714Y-80552380D01*
X128395238Y-80504761D01*
X128300000Y-80409523D01*
X128252380Y-80314285D01*
X128252380Y-79457142D02*
X129061904Y-79457142D01*
X129157142Y-79409523D01*
X129204761Y-79361904D01*
X129252380Y-79266666D01*
X129252380Y-79076190D01*
X129204761Y-78980952D01*
X129157142Y-78933333D01*
X129061904Y-78885714D01*
X128252380Y-78885714D01*
X128252380Y-78552380D02*
X128252380Y-77980952D01*
X129252380Y-78266666D02*
X128252380Y-78266666D01*
X129257142Y-108604761D02*
X129304761Y-108652380D01*
X129352380Y-108795238D01*
X129352380Y-108890476D01*
X129304761Y-109033333D01*
X129209523Y-109128571D01*
X129114285Y-109176190D01*
X128923809Y-109223809D01*
X128780952Y-109223809D01*
X128590476Y-109176190D01*
X128495238Y-109128571D01*
X128400000Y-109033333D01*
X128352380Y-108890476D01*
X128352380Y-108795238D01*
X128400000Y-108652380D01*
X128447619Y-108604761D01*
X128352380Y-108176190D02*
X129161904Y-108176190D01*
X129257142Y-108128571D01*
X129304761Y-108080952D01*
X129352380Y-107985714D01*
X129352380Y-107795238D01*
X129304761Y-107700000D01*
X129257142Y-107652380D01*
X129161904Y-107604761D01*
X128352380Y-107604761D01*
X128352380Y-107271428D02*
X128352380Y-106700000D01*
X129352380Y-106985714D02*
X128352380Y-106985714D01*
X128352380Y-105414285D02*
X128352380Y-105223809D01*
X128400000Y-105128571D01*
X128495238Y-105033333D01*
X128685714Y-104985714D01*
X129019047Y-104985714D01*
X129209523Y-105033333D01*
X129304761Y-105128571D01*
X129352380Y-105223809D01*
X129352380Y-105414285D01*
X129304761Y-105509523D01*
X129209523Y-105604761D01*
X129019047Y-105652380D01*
X128685714Y-105652380D01*
X128495238Y-105604761D01*
X128400000Y-105509523D01*
X128352380Y-105414285D01*
X128352380Y-104557142D02*
X129161904Y-104557142D01*
X129257142Y-104509523D01*
X129304761Y-104461904D01*
X129352380Y-104366666D01*
X129352380Y-104176190D01*
X129304761Y-104080952D01*
X129257142Y-104033333D01*
X129161904Y-103985714D01*
X128352380Y-103985714D01*
X128352380Y-103652380D02*
X128352380Y-103080952D01*
X129352380Y-103366666D02*
X128352380Y-103366666D01*
X129357142Y-118604761D02*
X129404761Y-118652380D01*
X129452380Y-118795238D01*
X129452380Y-118890476D01*
X129404761Y-119033333D01*
X129309523Y-119128571D01*
X129214285Y-119176190D01*
X129023809Y-119223809D01*
X128880952Y-119223809D01*
X128690476Y-119176190D01*
X128595238Y-119128571D01*
X128500000Y-119033333D01*
X128452380Y-118890476D01*
X128452380Y-118795238D01*
X128500000Y-118652380D01*
X128547619Y-118604761D01*
X128452380Y-118176190D02*
X129261904Y-118176190D01*
X129357142Y-118128571D01*
X129404761Y-118080952D01*
X129452380Y-117985714D01*
X129452380Y-117795238D01*
X129404761Y-117700000D01*
X129357142Y-117652380D01*
X129261904Y-117604761D01*
X128452380Y-117604761D01*
X128452380Y-117271428D02*
X128452380Y-116700000D01*
X129452380Y-116985714D02*
X128452380Y-116985714D01*
X128452380Y-115414285D02*
X128452380Y-115223809D01*
X128500000Y-115128571D01*
X128595238Y-115033333D01*
X128785714Y-114985714D01*
X129119047Y-114985714D01*
X129309523Y-115033333D01*
X129404761Y-115128571D01*
X129452380Y-115223809D01*
X129452380Y-115414285D01*
X129404761Y-115509523D01*
X129309523Y-115604761D01*
X129119047Y-115652380D01*
X128785714Y-115652380D01*
X128595238Y-115604761D01*
X128500000Y-115509523D01*
X128452380Y-115414285D01*
X128452380Y-114557142D02*
X129261904Y-114557142D01*
X129357142Y-114509523D01*
X129404761Y-114461904D01*
X129452380Y-114366666D01*
X129452380Y-114176190D01*
X129404761Y-114080952D01*
X129357142Y-114033333D01*
X129261904Y-113985714D01*
X128452380Y-113985714D01*
X128452380Y-113652380D02*
X128452380Y-113080952D01*
X129452380Y-113366666D02*
X128452380Y-113366666D01*
X129257142Y-99004761D02*
X129304761Y-99052380D01*
X129352380Y-99195238D01*
X129352380Y-99290476D01*
X129304761Y-99433333D01*
X129209523Y-99528571D01*
X129114285Y-99576190D01*
X128923809Y-99623809D01*
X128780952Y-99623809D01*
X128590476Y-99576190D01*
X128495238Y-99528571D01*
X128400000Y-99433333D01*
X128352380Y-99290476D01*
X128352380Y-99195238D01*
X128400000Y-99052380D01*
X128447619Y-99004761D01*
X128352380Y-98576190D02*
X129161904Y-98576190D01*
X129257142Y-98528571D01*
X129304761Y-98480952D01*
X129352380Y-98385714D01*
X129352380Y-98195238D01*
X129304761Y-98100000D01*
X129257142Y-98052380D01*
X129161904Y-98004761D01*
X128352380Y-98004761D01*
X128352380Y-97671428D02*
X128352380Y-97100000D01*
X129352380Y-97385714D02*
X128352380Y-97385714D01*
X128352380Y-95814285D02*
X128352380Y-95623809D01*
X128400000Y-95528571D01*
X128495238Y-95433333D01*
X128685714Y-95385714D01*
X129019047Y-95385714D01*
X129209523Y-95433333D01*
X129304761Y-95528571D01*
X129352380Y-95623809D01*
X129352380Y-95814285D01*
X129304761Y-95909523D01*
X129209523Y-96004761D01*
X129019047Y-96052380D01*
X128685714Y-96052380D01*
X128495238Y-96004761D01*
X128400000Y-95909523D01*
X128352380Y-95814285D01*
X128352380Y-94957142D02*
X129161904Y-94957142D01*
X129257142Y-94909523D01*
X129304761Y-94861904D01*
X129352380Y-94766666D01*
X129352380Y-94576190D01*
X129304761Y-94480952D01*
X129257142Y-94433333D01*
X129161904Y-94385714D01*
X128352380Y-94385714D01*
X128352380Y-94052380D02*
X128352380Y-93480952D01*
X129352380Y-93766666D02*
X128352380Y-93766666D01*
X129357142Y-143504761D02*
X129404761Y-143552380D01*
X129452380Y-143695238D01*
X129452380Y-143790476D01*
X129404761Y-143933333D01*
X129309523Y-144028571D01*
X129214285Y-144076190D01*
X129023809Y-144123809D01*
X128880952Y-144123809D01*
X128690476Y-144076190D01*
X128595238Y-144028571D01*
X128500000Y-143933333D01*
X128452380Y-143790476D01*
X128452380Y-143695238D01*
X128500000Y-143552380D01*
X128547619Y-143504761D01*
X128452380Y-143076190D02*
X129261904Y-143076190D01*
X129357142Y-143028571D01*
X129404761Y-142980952D01*
X129452380Y-142885714D01*
X129452380Y-142695238D01*
X129404761Y-142600000D01*
X129357142Y-142552380D01*
X129261904Y-142504761D01*
X128452380Y-142504761D01*
X128452380Y-142171428D02*
X128452380Y-141600000D01*
X129452380Y-141885714D02*
X128452380Y-141885714D01*
X128452380Y-140314285D02*
X128452380Y-140123809D01*
X128500000Y-140028571D01*
X128595238Y-139933333D01*
X128785714Y-139885714D01*
X129119047Y-139885714D01*
X129309523Y-139933333D01*
X129404761Y-140028571D01*
X129452380Y-140123809D01*
X129452380Y-140314285D01*
X129404761Y-140409523D01*
X129309523Y-140504761D01*
X129119047Y-140552380D01*
X128785714Y-140552380D01*
X128595238Y-140504761D01*
X128500000Y-140409523D01*
X128452380Y-140314285D01*
X128452380Y-139457142D02*
X129261904Y-139457142D01*
X129357142Y-139409523D01*
X129404761Y-139361904D01*
X129452380Y-139266666D01*
X129452380Y-139076190D01*
X129404761Y-138980952D01*
X129357142Y-138933333D01*
X129261904Y-138885714D01*
X128452380Y-138885714D01*
X128452380Y-138552380D02*
X128452380Y-137980952D01*
X129452380Y-138266666D02*
X128452380Y-138266666D01*
X129257142Y-153304761D02*
X129304761Y-153352380D01*
X129352380Y-153495238D01*
X129352380Y-153590476D01*
X129304761Y-153733333D01*
X129209523Y-153828571D01*
X129114285Y-153876190D01*
X128923809Y-153923809D01*
X128780952Y-153923809D01*
X128590476Y-153876190D01*
X128495238Y-153828571D01*
X128400000Y-153733333D01*
X128352380Y-153590476D01*
X128352380Y-153495238D01*
X128400000Y-153352380D01*
X128447619Y-153304761D01*
X128352380Y-152876190D02*
X129161904Y-152876190D01*
X129257142Y-152828571D01*
X129304761Y-152780952D01*
X129352380Y-152685714D01*
X129352380Y-152495238D01*
X129304761Y-152400000D01*
X129257142Y-152352380D01*
X129161904Y-152304761D01*
X128352380Y-152304761D01*
X128352380Y-151971428D02*
X128352380Y-151400000D01*
X129352380Y-151685714D02*
X128352380Y-151685714D01*
X128352380Y-150114285D02*
X128352380Y-149923809D01*
X128400000Y-149828571D01*
X128495238Y-149733333D01*
X128685714Y-149685714D01*
X129019047Y-149685714D01*
X129209523Y-149733333D01*
X129304761Y-149828571D01*
X129352380Y-149923809D01*
X129352380Y-150114285D01*
X129304761Y-150209523D01*
X129209523Y-150304761D01*
X129019047Y-150352380D01*
X128685714Y-150352380D01*
X128495238Y-150304761D01*
X128400000Y-150209523D01*
X128352380Y-150114285D01*
X128352380Y-149257142D02*
X129161904Y-149257142D01*
X129257142Y-149209523D01*
X129304761Y-149161904D01*
X129352380Y-149066666D01*
X129352380Y-148876190D01*
X129304761Y-148780952D01*
X129257142Y-148733333D01*
X129161904Y-148685714D01*
X128352380Y-148685714D01*
X128352380Y-148352380D02*
X128352380Y-147780952D01*
X129352380Y-148066666D02*
X128352380Y-148066666D01*
X129357142Y-134004761D02*
X129404761Y-134052380D01*
X129452380Y-134195238D01*
X129452380Y-134290476D01*
X129404761Y-134433333D01*
X129309523Y-134528571D01*
X129214285Y-134576190D01*
X129023809Y-134623809D01*
X128880952Y-134623809D01*
X128690476Y-134576190D01*
X128595238Y-134528571D01*
X128500000Y-134433333D01*
X128452380Y-134290476D01*
X128452380Y-134195238D01*
X128500000Y-134052380D01*
X128547619Y-134004761D01*
X128452380Y-133576190D02*
X129261904Y-133576190D01*
X129357142Y-133528571D01*
X129404761Y-133480952D01*
X129452380Y-133385714D01*
X129452380Y-133195238D01*
X129404761Y-133100000D01*
X129357142Y-133052380D01*
X129261904Y-133004761D01*
X128452380Y-133004761D01*
X128452380Y-132671428D02*
X128452380Y-132100000D01*
X129452380Y-132385714D02*
X128452380Y-132385714D01*
X128452380Y-130814285D02*
X128452380Y-130623809D01*
X128500000Y-130528571D01*
X128595238Y-130433333D01*
X128785714Y-130385714D01*
X129119047Y-130385714D01*
X129309523Y-130433333D01*
X129404761Y-130528571D01*
X129452380Y-130623809D01*
X129452380Y-130814285D01*
X129404761Y-130909523D01*
X129309523Y-131004761D01*
X129119047Y-131052380D01*
X128785714Y-131052380D01*
X128595238Y-131004761D01*
X128500000Y-130909523D01*
X128452380Y-130814285D01*
X128452380Y-129957142D02*
X129261904Y-129957142D01*
X129357142Y-129909523D01*
X129404761Y-129861904D01*
X129452380Y-129766666D01*
X129452380Y-129576190D01*
X129404761Y-129480952D01*
X129357142Y-129433333D01*
X129261904Y-129385714D01*
X128452380Y-129385714D01*
X128452380Y-129052380D02*
X128452380Y-128480952D01*
X129452380Y-128766666D02*
X128452380Y-128766666D01*
X215795238Y-159057142D02*
X215747619Y-159104761D01*
X215604761Y-159152380D01*
X215509523Y-159152380D01*
X215366666Y-159104761D01*
X215271428Y-159009523D01*
X215223809Y-158914285D01*
X215176190Y-158723809D01*
X215176190Y-158580952D01*
X215223809Y-158390476D01*
X215271428Y-158295238D01*
X215366666Y-158200000D01*
X215509523Y-158152380D01*
X215604761Y-158152380D01*
X215747619Y-158200000D01*
X215795238Y-158247619D01*
X216223809Y-158152380D02*
X216223809Y-158961904D01*
X216271428Y-159057142D01*
X216319047Y-159104761D01*
X216414285Y-159152380D01*
X216604761Y-159152380D01*
X216700000Y-159104761D01*
X216747619Y-159057142D01*
X216795238Y-158961904D01*
X216795238Y-158152380D01*
X217128571Y-158152380D02*
X217700000Y-158152380D01*
X217414285Y-159152380D02*
X217414285Y-158152380D01*
X218985714Y-158152380D02*
X219176190Y-158152380D01*
X219271428Y-158200000D01*
X219366666Y-158295238D01*
X219414285Y-158485714D01*
X219414285Y-158819047D01*
X219366666Y-159009523D01*
X219271428Y-159104761D01*
X219176190Y-159152380D01*
X218985714Y-159152380D01*
X218890476Y-159104761D01*
X218795238Y-159009523D01*
X218747619Y-158819047D01*
X218747619Y-158485714D01*
X218795238Y-158295238D01*
X218890476Y-158200000D01*
X218985714Y-158152380D01*
X219842857Y-158152380D02*
X219842857Y-158961904D01*
X219890476Y-159057142D01*
X219938095Y-159104761D01*
X220033333Y-159152380D01*
X220223809Y-159152380D01*
X220319047Y-159104761D01*
X220366666Y-159057142D01*
X220414285Y-158961904D01*
X220414285Y-158152380D01*
X220747619Y-158152380D02*
X221319047Y-158152380D01*
X221033333Y-159152380D02*
X221033333Y-158152380D01*
X178395238Y-158957142D02*
X178347619Y-159004761D01*
X178204761Y-159052380D01*
X178109523Y-159052380D01*
X177966666Y-159004761D01*
X177871428Y-158909523D01*
X177823809Y-158814285D01*
X177776190Y-158623809D01*
X177776190Y-158480952D01*
X177823809Y-158290476D01*
X177871428Y-158195238D01*
X177966666Y-158100000D01*
X178109523Y-158052380D01*
X178204761Y-158052380D01*
X178347619Y-158100000D01*
X178395238Y-158147619D01*
X178823809Y-158052380D02*
X178823809Y-158861904D01*
X178871428Y-158957142D01*
X178919047Y-159004761D01*
X179014285Y-159052380D01*
X179204761Y-159052380D01*
X179300000Y-159004761D01*
X179347619Y-158957142D01*
X179395238Y-158861904D01*
X179395238Y-158052380D01*
X179728571Y-158052380D02*
X180300000Y-158052380D01*
X180014285Y-159052380D02*
X180014285Y-158052380D01*
X181585714Y-158052380D02*
X181776190Y-158052380D01*
X181871428Y-158100000D01*
X181966666Y-158195238D01*
X182014285Y-158385714D01*
X182014285Y-158719047D01*
X181966666Y-158909523D01*
X181871428Y-159004761D01*
X181776190Y-159052380D01*
X181585714Y-159052380D01*
X181490476Y-159004761D01*
X181395238Y-158909523D01*
X181347619Y-158719047D01*
X181347619Y-158385714D01*
X181395238Y-158195238D01*
X181490476Y-158100000D01*
X181585714Y-158052380D01*
X182442857Y-158052380D02*
X182442857Y-158861904D01*
X182490476Y-158957142D01*
X182538095Y-159004761D01*
X182633333Y-159052380D01*
X182823809Y-159052380D01*
X182919047Y-159004761D01*
X182966666Y-158957142D01*
X183014285Y-158861904D01*
X183014285Y-158052380D01*
X183347619Y-158052380D02*
X183919047Y-158052380D01*
X183633333Y-159052380D02*
X183633333Y-158052380D01*
X168895238Y-159057142D02*
X168847619Y-159104761D01*
X168704761Y-159152380D01*
X168609523Y-159152380D01*
X168466666Y-159104761D01*
X168371428Y-159009523D01*
X168323809Y-158914285D01*
X168276190Y-158723809D01*
X168276190Y-158580952D01*
X168323809Y-158390476D01*
X168371428Y-158295238D01*
X168466666Y-158200000D01*
X168609523Y-158152380D01*
X168704761Y-158152380D01*
X168847619Y-158200000D01*
X168895238Y-158247619D01*
X169323809Y-158152380D02*
X169323809Y-158961904D01*
X169371428Y-159057142D01*
X169419047Y-159104761D01*
X169514285Y-159152380D01*
X169704761Y-159152380D01*
X169800000Y-159104761D01*
X169847619Y-159057142D01*
X169895238Y-158961904D01*
X169895238Y-158152380D01*
X170228571Y-158152380D02*
X170800000Y-158152380D01*
X170514285Y-159152380D02*
X170514285Y-158152380D01*
X172085714Y-158152380D02*
X172276190Y-158152380D01*
X172371428Y-158200000D01*
X172466666Y-158295238D01*
X172514285Y-158485714D01*
X172514285Y-158819047D01*
X172466666Y-159009523D01*
X172371428Y-159104761D01*
X172276190Y-159152380D01*
X172085714Y-159152380D01*
X171990476Y-159104761D01*
X171895238Y-159009523D01*
X171847619Y-158819047D01*
X171847619Y-158485714D01*
X171895238Y-158295238D01*
X171990476Y-158200000D01*
X172085714Y-158152380D01*
X172942857Y-158152380D02*
X172942857Y-158961904D01*
X172990476Y-159057142D01*
X173038095Y-159104761D01*
X173133333Y-159152380D01*
X173323809Y-159152380D01*
X173419047Y-159104761D01*
X173466666Y-159057142D01*
X173514285Y-158961904D01*
X173514285Y-158152380D01*
X173847619Y-158152380D02*
X174419047Y-158152380D01*
X174133333Y-159152380D02*
X174133333Y-158152380D01*
X134095238Y-158957142D02*
X134047619Y-159004761D01*
X133904761Y-159052380D01*
X133809523Y-159052380D01*
X133666666Y-159004761D01*
X133571428Y-158909523D01*
X133523809Y-158814285D01*
X133476190Y-158623809D01*
X133476190Y-158480952D01*
X133523809Y-158290476D01*
X133571428Y-158195238D01*
X133666666Y-158100000D01*
X133809523Y-158052380D01*
X133904761Y-158052380D01*
X134047619Y-158100000D01*
X134095238Y-158147619D01*
X134523809Y-158052380D02*
X134523809Y-158861904D01*
X134571428Y-158957142D01*
X134619047Y-159004761D01*
X134714285Y-159052380D01*
X134904761Y-159052380D01*
X135000000Y-159004761D01*
X135047619Y-158957142D01*
X135095238Y-158861904D01*
X135095238Y-158052380D01*
X135428571Y-158052380D02*
X136000000Y-158052380D01*
X135714285Y-159052380D02*
X135714285Y-158052380D01*
X137285714Y-158052380D02*
X137476190Y-158052380D01*
X137571428Y-158100000D01*
X137666666Y-158195238D01*
X137714285Y-158385714D01*
X137714285Y-158719047D01*
X137666666Y-158909523D01*
X137571428Y-159004761D01*
X137476190Y-159052380D01*
X137285714Y-159052380D01*
X137190476Y-159004761D01*
X137095238Y-158909523D01*
X137047619Y-158719047D01*
X137047619Y-158385714D01*
X137095238Y-158195238D01*
X137190476Y-158100000D01*
X137285714Y-158052380D01*
X138142857Y-158052380D02*
X138142857Y-158861904D01*
X138190476Y-158957142D01*
X138238095Y-159004761D01*
X138333333Y-159052380D01*
X138523809Y-159052380D01*
X138619047Y-159004761D01*
X138666666Y-158957142D01*
X138714285Y-158861904D01*
X138714285Y-158052380D01*
X139047619Y-158052380D02*
X139619047Y-158052380D01*
X139333333Y-159052380D02*
X139333333Y-158052380D01*
X215595238Y-124057142D02*
X215547619Y-124104761D01*
X215404761Y-124152380D01*
X215309523Y-124152380D01*
X215166666Y-124104761D01*
X215071428Y-124009523D01*
X215023809Y-123914285D01*
X214976190Y-123723809D01*
X214976190Y-123580952D01*
X215023809Y-123390476D01*
X215071428Y-123295238D01*
X215166666Y-123200000D01*
X215309523Y-123152380D01*
X215404761Y-123152380D01*
X215547619Y-123200000D01*
X215595238Y-123247619D01*
X216023809Y-123152380D02*
X216023809Y-123961904D01*
X216071428Y-124057142D01*
X216119047Y-124104761D01*
X216214285Y-124152380D01*
X216404761Y-124152380D01*
X216500000Y-124104761D01*
X216547619Y-124057142D01*
X216595238Y-123961904D01*
X216595238Y-123152380D01*
X216928571Y-123152380D02*
X217500000Y-123152380D01*
X217214285Y-124152380D02*
X217214285Y-123152380D01*
X218785714Y-123152380D02*
X218976190Y-123152380D01*
X219071428Y-123200000D01*
X219166666Y-123295238D01*
X219214285Y-123485714D01*
X219214285Y-123819047D01*
X219166666Y-124009523D01*
X219071428Y-124104761D01*
X218976190Y-124152380D01*
X218785714Y-124152380D01*
X218690476Y-124104761D01*
X218595238Y-124009523D01*
X218547619Y-123819047D01*
X218547619Y-123485714D01*
X218595238Y-123295238D01*
X218690476Y-123200000D01*
X218785714Y-123152380D01*
X219642857Y-123152380D02*
X219642857Y-123961904D01*
X219690476Y-124057142D01*
X219738095Y-124104761D01*
X219833333Y-124152380D01*
X220023809Y-124152380D01*
X220119047Y-124104761D01*
X220166666Y-124057142D01*
X220214285Y-123961904D01*
X220214285Y-123152380D01*
X220547619Y-123152380D02*
X221119047Y-123152380D01*
X220833333Y-124152380D02*
X220833333Y-123152380D01*
X178795238Y-123957142D02*
X178747619Y-124004761D01*
X178604761Y-124052380D01*
X178509523Y-124052380D01*
X178366666Y-124004761D01*
X178271428Y-123909523D01*
X178223809Y-123814285D01*
X178176190Y-123623809D01*
X178176190Y-123480952D01*
X178223809Y-123290476D01*
X178271428Y-123195238D01*
X178366666Y-123100000D01*
X178509523Y-123052380D01*
X178604761Y-123052380D01*
X178747619Y-123100000D01*
X178795238Y-123147619D01*
X179223809Y-123052380D02*
X179223809Y-123861904D01*
X179271428Y-123957142D01*
X179319047Y-124004761D01*
X179414285Y-124052380D01*
X179604761Y-124052380D01*
X179700000Y-124004761D01*
X179747619Y-123957142D01*
X179795238Y-123861904D01*
X179795238Y-123052380D01*
X180128571Y-123052380D02*
X180700000Y-123052380D01*
X180414285Y-124052380D02*
X180414285Y-123052380D01*
X181985714Y-123052380D02*
X182176190Y-123052380D01*
X182271428Y-123100000D01*
X182366666Y-123195238D01*
X182414285Y-123385714D01*
X182414285Y-123719047D01*
X182366666Y-123909523D01*
X182271428Y-124004761D01*
X182176190Y-124052380D01*
X181985714Y-124052380D01*
X181890476Y-124004761D01*
X181795238Y-123909523D01*
X181747619Y-123719047D01*
X181747619Y-123385714D01*
X181795238Y-123195238D01*
X181890476Y-123100000D01*
X181985714Y-123052380D01*
X182842857Y-123052380D02*
X182842857Y-123861904D01*
X182890476Y-123957142D01*
X182938095Y-124004761D01*
X183033333Y-124052380D01*
X183223809Y-124052380D01*
X183319047Y-124004761D01*
X183366666Y-123957142D01*
X183414285Y-123861904D01*
X183414285Y-123052380D01*
X183747619Y-123052380D02*
X184319047Y-123052380D01*
X184033333Y-124052380D02*
X184033333Y-123052380D01*
X168795238Y-123957142D02*
X168747619Y-124004761D01*
X168604761Y-124052380D01*
X168509523Y-124052380D01*
X168366666Y-124004761D01*
X168271428Y-123909523D01*
X168223809Y-123814285D01*
X168176190Y-123623809D01*
X168176190Y-123480952D01*
X168223809Y-123290476D01*
X168271428Y-123195238D01*
X168366666Y-123100000D01*
X168509523Y-123052380D01*
X168604761Y-123052380D01*
X168747619Y-123100000D01*
X168795238Y-123147619D01*
X169223809Y-123052380D02*
X169223809Y-123861904D01*
X169271428Y-123957142D01*
X169319047Y-124004761D01*
X169414285Y-124052380D01*
X169604761Y-124052380D01*
X169700000Y-124004761D01*
X169747619Y-123957142D01*
X169795238Y-123861904D01*
X169795238Y-123052380D01*
X170128571Y-123052380D02*
X170700000Y-123052380D01*
X170414285Y-124052380D02*
X170414285Y-123052380D01*
X171985714Y-123052380D02*
X172176190Y-123052380D01*
X172271428Y-123100000D01*
X172366666Y-123195238D01*
X172414285Y-123385714D01*
X172414285Y-123719047D01*
X172366666Y-123909523D01*
X172271428Y-124004761D01*
X172176190Y-124052380D01*
X171985714Y-124052380D01*
X171890476Y-124004761D01*
X171795238Y-123909523D01*
X171747619Y-123719047D01*
X171747619Y-123385714D01*
X171795238Y-123195238D01*
X171890476Y-123100000D01*
X171985714Y-123052380D01*
X172842857Y-123052380D02*
X172842857Y-123861904D01*
X172890476Y-123957142D01*
X172938095Y-124004761D01*
X173033333Y-124052380D01*
X173223809Y-124052380D01*
X173319047Y-124004761D01*
X173366666Y-123957142D01*
X173414285Y-123861904D01*
X173414285Y-123052380D01*
X173747619Y-123052380D02*
X174319047Y-123052380D01*
X174033333Y-124052380D02*
X174033333Y-123052380D01*
X133695238Y-123857142D02*
X133647619Y-123904761D01*
X133504761Y-123952380D01*
X133409523Y-123952380D01*
X133266666Y-123904761D01*
X133171428Y-123809523D01*
X133123809Y-123714285D01*
X133076190Y-123523809D01*
X133076190Y-123380952D01*
X133123809Y-123190476D01*
X133171428Y-123095238D01*
X133266666Y-123000000D01*
X133409523Y-122952380D01*
X133504761Y-122952380D01*
X133647619Y-123000000D01*
X133695238Y-123047619D01*
X134123809Y-122952380D02*
X134123809Y-123761904D01*
X134171428Y-123857142D01*
X134219047Y-123904761D01*
X134314285Y-123952380D01*
X134504761Y-123952380D01*
X134600000Y-123904761D01*
X134647619Y-123857142D01*
X134695238Y-123761904D01*
X134695238Y-122952380D01*
X135028571Y-122952380D02*
X135600000Y-122952380D01*
X135314285Y-123952380D02*
X135314285Y-122952380D01*
X136885714Y-122952380D02*
X137076190Y-122952380D01*
X137171428Y-123000000D01*
X137266666Y-123095238D01*
X137314285Y-123285714D01*
X137314285Y-123619047D01*
X137266666Y-123809523D01*
X137171428Y-123904761D01*
X137076190Y-123952380D01*
X136885714Y-123952380D01*
X136790476Y-123904761D01*
X136695238Y-123809523D01*
X136647619Y-123619047D01*
X136647619Y-123285714D01*
X136695238Y-123095238D01*
X136790476Y-123000000D01*
X136885714Y-122952380D01*
X137742857Y-122952380D02*
X137742857Y-123761904D01*
X137790476Y-123857142D01*
X137838095Y-123904761D01*
X137933333Y-123952380D01*
X138123809Y-123952380D01*
X138219047Y-123904761D01*
X138266666Y-123857142D01*
X138314285Y-123761904D01*
X138314285Y-122952380D01*
X138647619Y-122952380D02*
X139219047Y-122952380D01*
X138933333Y-123952380D02*
X138933333Y-122952380D01*
X215695238Y-88957142D02*
X215647619Y-89004761D01*
X215504761Y-89052380D01*
X215409523Y-89052380D01*
X215266666Y-89004761D01*
X215171428Y-88909523D01*
X215123809Y-88814285D01*
X215076190Y-88623809D01*
X215076190Y-88480952D01*
X215123809Y-88290476D01*
X215171428Y-88195238D01*
X215266666Y-88100000D01*
X215409523Y-88052380D01*
X215504761Y-88052380D01*
X215647619Y-88100000D01*
X215695238Y-88147619D01*
X216123809Y-88052380D02*
X216123809Y-88861904D01*
X216171428Y-88957142D01*
X216219047Y-89004761D01*
X216314285Y-89052380D01*
X216504761Y-89052380D01*
X216600000Y-89004761D01*
X216647619Y-88957142D01*
X216695238Y-88861904D01*
X216695238Y-88052380D01*
X217028571Y-88052380D02*
X217600000Y-88052380D01*
X217314285Y-89052380D02*
X217314285Y-88052380D01*
X218885714Y-88052380D02*
X219076190Y-88052380D01*
X219171428Y-88100000D01*
X219266666Y-88195238D01*
X219314285Y-88385714D01*
X219314285Y-88719047D01*
X219266666Y-88909523D01*
X219171428Y-89004761D01*
X219076190Y-89052380D01*
X218885714Y-89052380D01*
X218790476Y-89004761D01*
X218695238Y-88909523D01*
X218647619Y-88719047D01*
X218647619Y-88385714D01*
X218695238Y-88195238D01*
X218790476Y-88100000D01*
X218885714Y-88052380D01*
X219742857Y-88052380D02*
X219742857Y-88861904D01*
X219790476Y-88957142D01*
X219838095Y-89004761D01*
X219933333Y-89052380D01*
X220123809Y-89052380D01*
X220219047Y-89004761D01*
X220266666Y-88957142D01*
X220314285Y-88861904D01*
X220314285Y-88052380D01*
X220647619Y-88052380D02*
X221219047Y-88052380D01*
X220933333Y-89052380D02*
X220933333Y-88052380D01*
X178495238Y-88957142D02*
X178447619Y-89004761D01*
X178304761Y-89052380D01*
X178209523Y-89052380D01*
X178066666Y-89004761D01*
X177971428Y-88909523D01*
X177923809Y-88814285D01*
X177876190Y-88623809D01*
X177876190Y-88480952D01*
X177923809Y-88290476D01*
X177971428Y-88195238D01*
X178066666Y-88100000D01*
X178209523Y-88052380D01*
X178304761Y-88052380D01*
X178447619Y-88100000D01*
X178495238Y-88147619D01*
X178923809Y-88052380D02*
X178923809Y-88861904D01*
X178971428Y-88957142D01*
X179019047Y-89004761D01*
X179114285Y-89052380D01*
X179304761Y-89052380D01*
X179400000Y-89004761D01*
X179447619Y-88957142D01*
X179495238Y-88861904D01*
X179495238Y-88052380D01*
X179828571Y-88052380D02*
X180400000Y-88052380D01*
X180114285Y-89052380D02*
X180114285Y-88052380D01*
X181685714Y-88052380D02*
X181876190Y-88052380D01*
X181971428Y-88100000D01*
X182066666Y-88195238D01*
X182114285Y-88385714D01*
X182114285Y-88719047D01*
X182066666Y-88909523D01*
X181971428Y-89004761D01*
X181876190Y-89052380D01*
X181685714Y-89052380D01*
X181590476Y-89004761D01*
X181495238Y-88909523D01*
X181447619Y-88719047D01*
X181447619Y-88385714D01*
X181495238Y-88195238D01*
X181590476Y-88100000D01*
X181685714Y-88052380D01*
X182542857Y-88052380D02*
X182542857Y-88861904D01*
X182590476Y-88957142D01*
X182638095Y-89004761D01*
X182733333Y-89052380D01*
X182923809Y-89052380D01*
X183019047Y-89004761D01*
X183066666Y-88957142D01*
X183114285Y-88861904D01*
X183114285Y-88052380D01*
X183447619Y-88052380D02*
X184019047Y-88052380D01*
X183733333Y-89052380D02*
X183733333Y-88052380D01*
X168295238Y-88957142D02*
X168247619Y-89004761D01*
X168104761Y-89052380D01*
X168009523Y-89052380D01*
X167866666Y-89004761D01*
X167771428Y-88909523D01*
X167723809Y-88814285D01*
X167676190Y-88623809D01*
X167676190Y-88480952D01*
X167723809Y-88290476D01*
X167771428Y-88195238D01*
X167866666Y-88100000D01*
X168009523Y-88052380D01*
X168104761Y-88052380D01*
X168247619Y-88100000D01*
X168295238Y-88147619D01*
X168723809Y-88052380D02*
X168723809Y-88861904D01*
X168771428Y-88957142D01*
X168819047Y-89004761D01*
X168914285Y-89052380D01*
X169104761Y-89052380D01*
X169200000Y-89004761D01*
X169247619Y-88957142D01*
X169295238Y-88861904D01*
X169295238Y-88052380D01*
X169628571Y-88052380D02*
X170200000Y-88052380D01*
X169914285Y-89052380D02*
X169914285Y-88052380D01*
X171485714Y-88052380D02*
X171676190Y-88052380D01*
X171771428Y-88100000D01*
X171866666Y-88195238D01*
X171914285Y-88385714D01*
X171914285Y-88719047D01*
X171866666Y-88909523D01*
X171771428Y-89004761D01*
X171676190Y-89052380D01*
X171485714Y-89052380D01*
X171390476Y-89004761D01*
X171295238Y-88909523D01*
X171247619Y-88719047D01*
X171247619Y-88385714D01*
X171295238Y-88195238D01*
X171390476Y-88100000D01*
X171485714Y-88052380D01*
X172342857Y-88052380D02*
X172342857Y-88861904D01*
X172390476Y-88957142D01*
X172438095Y-89004761D01*
X172533333Y-89052380D01*
X172723809Y-89052380D01*
X172819047Y-89004761D01*
X172866666Y-88957142D01*
X172914285Y-88861904D01*
X172914285Y-88052380D01*
X173247619Y-88052380D02*
X173819047Y-88052380D01*
X173533333Y-89052380D02*
X173533333Y-88052380D01*
X133995238Y-88857142D02*
X133947619Y-88904761D01*
X133804761Y-88952380D01*
X133709523Y-88952380D01*
X133566666Y-88904761D01*
X133471428Y-88809523D01*
X133423809Y-88714285D01*
X133376190Y-88523809D01*
X133376190Y-88380952D01*
X133423809Y-88190476D01*
X133471428Y-88095238D01*
X133566666Y-88000000D01*
X133709523Y-87952380D01*
X133804761Y-87952380D01*
X133947619Y-88000000D01*
X133995238Y-88047619D01*
X134423809Y-87952380D02*
X134423809Y-88761904D01*
X134471428Y-88857142D01*
X134519047Y-88904761D01*
X134614285Y-88952380D01*
X134804761Y-88952380D01*
X134900000Y-88904761D01*
X134947619Y-88857142D01*
X134995238Y-88761904D01*
X134995238Y-87952380D01*
X135328571Y-87952380D02*
X135900000Y-87952380D01*
X135614285Y-88952380D02*
X135614285Y-87952380D01*
X137185714Y-87952380D02*
X137376190Y-87952380D01*
X137471428Y-88000000D01*
X137566666Y-88095238D01*
X137614285Y-88285714D01*
X137614285Y-88619047D01*
X137566666Y-88809523D01*
X137471428Y-88904761D01*
X137376190Y-88952380D01*
X137185714Y-88952380D01*
X137090476Y-88904761D01*
X136995238Y-88809523D01*
X136947619Y-88619047D01*
X136947619Y-88285714D01*
X136995238Y-88095238D01*
X137090476Y-88000000D01*
X137185714Y-87952380D01*
X138042857Y-87952380D02*
X138042857Y-88761904D01*
X138090476Y-88857142D01*
X138138095Y-88904761D01*
X138233333Y-88952380D01*
X138423809Y-88952380D01*
X138519047Y-88904761D01*
X138566666Y-88857142D01*
X138614285Y-88761904D01*
X138614285Y-87952380D01*
X138947619Y-87952380D02*
X139519047Y-87952380D01*
X139233333Y-88952380D02*
X139233333Y-87952380D01*
X225957142Y-117804761D02*
X226004761Y-117852380D01*
X226052380Y-117995238D01*
X226052380Y-118090476D01*
X226004761Y-118233333D01*
X225909523Y-118328571D01*
X225814285Y-118376190D01*
X225623809Y-118423809D01*
X225480952Y-118423809D01*
X225290476Y-118376190D01*
X225195238Y-118328571D01*
X225100000Y-118233333D01*
X225052380Y-118090476D01*
X225052380Y-117995238D01*
X225100000Y-117852380D01*
X225147619Y-117804761D01*
X225052380Y-117376190D02*
X225861904Y-117376190D01*
X225957142Y-117328571D01*
X226004761Y-117280952D01*
X226052380Y-117185714D01*
X226052380Y-116995238D01*
X226004761Y-116900000D01*
X225957142Y-116852380D01*
X225861904Y-116804761D01*
X225052380Y-116804761D01*
X225052380Y-116471428D02*
X225052380Y-115900000D01*
X226052380Y-116185714D02*
X225052380Y-116185714D01*
X225052380Y-114614285D02*
X225052380Y-114423809D01*
X225100000Y-114328571D01*
X225195238Y-114233333D01*
X225385714Y-114185714D01*
X225719047Y-114185714D01*
X225909523Y-114233333D01*
X226004761Y-114328571D01*
X226052380Y-114423809D01*
X226052380Y-114614285D01*
X226004761Y-114709523D01*
X225909523Y-114804761D01*
X225719047Y-114852380D01*
X225385714Y-114852380D01*
X225195238Y-114804761D01*
X225100000Y-114709523D01*
X225052380Y-114614285D01*
X225052380Y-113757142D02*
X225861904Y-113757142D01*
X225957142Y-113709523D01*
X226004761Y-113661904D01*
X226052380Y-113566666D01*
X226052380Y-113376190D01*
X226004761Y-113280952D01*
X225957142Y-113233333D01*
X225861904Y-113185714D01*
X225052380Y-113185714D01*
X225052380Y-112852380D02*
X225052380Y-112280952D01*
X226052380Y-112566666D02*
X225052380Y-112566666D01*
X226057142Y-99104761D02*
X226104761Y-99152380D01*
X226152380Y-99295238D01*
X226152380Y-99390476D01*
X226104761Y-99533333D01*
X226009523Y-99628571D01*
X225914285Y-99676190D01*
X225723809Y-99723809D01*
X225580952Y-99723809D01*
X225390476Y-99676190D01*
X225295238Y-99628571D01*
X225200000Y-99533333D01*
X225152380Y-99390476D01*
X225152380Y-99295238D01*
X225200000Y-99152380D01*
X225247619Y-99104761D01*
X225152380Y-98676190D02*
X225961904Y-98676190D01*
X226057142Y-98628571D01*
X226104761Y-98580952D01*
X226152380Y-98485714D01*
X226152380Y-98295238D01*
X226104761Y-98200000D01*
X226057142Y-98152380D01*
X225961904Y-98104761D01*
X225152380Y-98104761D01*
X225152380Y-97771428D02*
X225152380Y-97200000D01*
X226152380Y-97485714D02*
X225152380Y-97485714D01*
X225152380Y-95914285D02*
X225152380Y-95723809D01*
X225200000Y-95628571D01*
X225295238Y-95533333D01*
X225485714Y-95485714D01*
X225819047Y-95485714D01*
X226009523Y-95533333D01*
X226104761Y-95628571D01*
X226152380Y-95723809D01*
X226152380Y-95914285D01*
X226104761Y-96009523D01*
X226009523Y-96104761D01*
X225819047Y-96152380D01*
X225485714Y-96152380D01*
X225295238Y-96104761D01*
X225200000Y-96009523D01*
X225152380Y-95914285D01*
X225152380Y-95057142D02*
X225961904Y-95057142D01*
X226057142Y-95009523D01*
X226104761Y-94961904D01*
X226152380Y-94866666D01*
X226152380Y-94676190D01*
X226104761Y-94580952D01*
X226057142Y-94533333D01*
X225961904Y-94485714D01*
X225152380Y-94485714D01*
X225152380Y-94152380D02*
X225152380Y-93580952D01*
X226152380Y-93866666D02*
X225152380Y-93866666D01*
X225857142Y-82604761D02*
X225904761Y-82652380D01*
X225952380Y-82795238D01*
X225952380Y-82890476D01*
X225904761Y-83033333D01*
X225809523Y-83128571D01*
X225714285Y-83176190D01*
X225523809Y-83223809D01*
X225380952Y-83223809D01*
X225190476Y-83176190D01*
X225095238Y-83128571D01*
X225000000Y-83033333D01*
X224952380Y-82890476D01*
X224952380Y-82795238D01*
X225000000Y-82652380D01*
X225047619Y-82604761D01*
X224952380Y-82176190D02*
X225761904Y-82176190D01*
X225857142Y-82128571D01*
X225904761Y-82080952D01*
X225952380Y-81985714D01*
X225952380Y-81795238D01*
X225904761Y-81700000D01*
X225857142Y-81652380D01*
X225761904Y-81604761D01*
X224952380Y-81604761D01*
X224952380Y-81271428D02*
X224952380Y-80700000D01*
X225952380Y-80985714D02*
X224952380Y-80985714D01*
X224952380Y-79414285D02*
X224952380Y-79223809D01*
X225000000Y-79128571D01*
X225095238Y-79033333D01*
X225285714Y-78985714D01*
X225619047Y-78985714D01*
X225809523Y-79033333D01*
X225904761Y-79128571D01*
X225952380Y-79223809D01*
X225952380Y-79414285D01*
X225904761Y-79509523D01*
X225809523Y-79604761D01*
X225619047Y-79652380D01*
X225285714Y-79652380D01*
X225095238Y-79604761D01*
X225000000Y-79509523D01*
X224952380Y-79414285D01*
X224952380Y-78557142D02*
X225761904Y-78557142D01*
X225857142Y-78509523D01*
X225904761Y-78461904D01*
X225952380Y-78366666D01*
X225952380Y-78176190D01*
X225904761Y-78080952D01*
X225857142Y-78033333D01*
X225761904Y-77985714D01*
X224952380Y-77985714D01*
X224952380Y-77652380D02*
X224952380Y-77080952D01*
X225952380Y-77366666D02*
X224952380Y-77366666D01*
X225757142Y-71704761D02*
X225804761Y-71752380D01*
X225852380Y-71895238D01*
X225852380Y-71990476D01*
X225804761Y-72133333D01*
X225709523Y-72228571D01*
X225614285Y-72276190D01*
X225423809Y-72323809D01*
X225280952Y-72323809D01*
X225090476Y-72276190D01*
X224995238Y-72228571D01*
X224900000Y-72133333D01*
X224852380Y-71990476D01*
X224852380Y-71895238D01*
X224900000Y-71752380D01*
X224947619Y-71704761D01*
X224852380Y-71276190D02*
X225661904Y-71276190D01*
X225757142Y-71228571D01*
X225804761Y-71180952D01*
X225852380Y-71085714D01*
X225852380Y-70895238D01*
X225804761Y-70800000D01*
X225757142Y-70752380D01*
X225661904Y-70704761D01*
X224852380Y-70704761D01*
X224852380Y-70371428D02*
X224852380Y-69800000D01*
X225852380Y-70085714D02*
X224852380Y-70085714D01*
X224852380Y-68514285D02*
X224852380Y-68323809D01*
X224900000Y-68228571D01*
X224995238Y-68133333D01*
X225185714Y-68085714D01*
X225519047Y-68085714D01*
X225709523Y-68133333D01*
X225804761Y-68228571D01*
X225852380Y-68323809D01*
X225852380Y-68514285D01*
X225804761Y-68609523D01*
X225709523Y-68704761D01*
X225519047Y-68752380D01*
X225185714Y-68752380D01*
X224995238Y-68704761D01*
X224900000Y-68609523D01*
X224852380Y-68514285D01*
X224852380Y-67657142D02*
X225661904Y-67657142D01*
X225757142Y-67609523D01*
X225804761Y-67561904D01*
X225852380Y-67466666D01*
X225852380Y-67276190D01*
X225804761Y-67180952D01*
X225757142Y-67133333D01*
X225661904Y-67085714D01*
X224852380Y-67085714D01*
X224852380Y-66752380D02*
X224852380Y-66180952D01*
X225852380Y-66466666D02*
X224852380Y-66466666D01*
X225957142Y-58204761D02*
X226004761Y-58252380D01*
X226052380Y-58395238D01*
X226052380Y-58490476D01*
X226004761Y-58633333D01*
X225909523Y-58728571D01*
X225814285Y-58776190D01*
X225623809Y-58823809D01*
X225480952Y-58823809D01*
X225290476Y-58776190D01*
X225195238Y-58728571D01*
X225100000Y-58633333D01*
X225052380Y-58490476D01*
X225052380Y-58395238D01*
X225100000Y-58252380D01*
X225147619Y-58204761D01*
X225052380Y-57776190D02*
X225861904Y-57776190D01*
X225957142Y-57728571D01*
X226004761Y-57680952D01*
X226052380Y-57585714D01*
X226052380Y-57395238D01*
X226004761Y-57300000D01*
X225957142Y-57252380D01*
X225861904Y-57204761D01*
X225052380Y-57204761D01*
X225052380Y-56871428D02*
X225052380Y-56300000D01*
X226052380Y-56585714D02*
X225052380Y-56585714D01*
X225052380Y-55014285D02*
X225052380Y-54823809D01*
X225100000Y-54728571D01*
X225195238Y-54633333D01*
X225385714Y-54585714D01*
X225719047Y-54585714D01*
X225909523Y-54633333D01*
X226004761Y-54728571D01*
X226052380Y-54823809D01*
X226052380Y-55014285D01*
X226004761Y-55109523D01*
X225909523Y-55204761D01*
X225719047Y-55252380D01*
X225385714Y-55252380D01*
X225195238Y-55204761D01*
X225100000Y-55109523D01*
X225052380Y-55014285D01*
X225052380Y-54157142D02*
X225861904Y-54157142D01*
X225957142Y-54109523D01*
X226004761Y-54061904D01*
X226052380Y-53966666D01*
X226052380Y-53776190D01*
X226004761Y-53680952D01*
X225957142Y-53633333D01*
X225861904Y-53585714D01*
X225052380Y-53585714D01*
X225052380Y-53252380D02*
X225052380Y-52680952D01*
X226052380Y-52966666D02*
X225052380Y-52966666D01*
X214795238Y-53757142D02*
X214747619Y-53804761D01*
X214604761Y-53852380D01*
X214509523Y-53852380D01*
X214366666Y-53804761D01*
X214271428Y-53709523D01*
X214223809Y-53614285D01*
X214176190Y-53423809D01*
X214176190Y-53280952D01*
X214223809Y-53090476D01*
X214271428Y-52995238D01*
X214366666Y-52900000D01*
X214509523Y-52852380D01*
X214604761Y-52852380D01*
X214747619Y-52900000D01*
X214795238Y-52947619D01*
X215223809Y-52852380D02*
X215223809Y-53661904D01*
X215271428Y-53757142D01*
X215319047Y-53804761D01*
X215414285Y-53852380D01*
X215604761Y-53852380D01*
X215700000Y-53804761D01*
X215747619Y-53757142D01*
X215795238Y-53661904D01*
X215795238Y-52852380D01*
X216128571Y-52852380D02*
X216700000Y-52852380D01*
X216414285Y-53852380D02*
X216414285Y-52852380D01*
X217985714Y-52852380D02*
X218176190Y-52852380D01*
X218271428Y-52900000D01*
X218366666Y-52995238D01*
X218414285Y-53185714D01*
X218414285Y-53519047D01*
X218366666Y-53709523D01*
X218271428Y-53804761D01*
X218176190Y-53852380D01*
X217985714Y-53852380D01*
X217890476Y-53804761D01*
X217795238Y-53709523D01*
X217747619Y-53519047D01*
X217747619Y-53185714D01*
X217795238Y-52995238D01*
X217890476Y-52900000D01*
X217985714Y-52852380D01*
X218842857Y-52852380D02*
X218842857Y-53661904D01*
X218890476Y-53757142D01*
X218938095Y-53804761D01*
X219033333Y-53852380D01*
X219223809Y-53852380D01*
X219319047Y-53804761D01*
X219366666Y-53757142D01*
X219414285Y-53661904D01*
X219414285Y-52852380D01*
X219747619Y-52852380D02*
X220319047Y-52852380D01*
X220033333Y-53852380D02*
X220033333Y-52852380D01*
X199195238Y-53757142D02*
X199147619Y-53804761D01*
X199004761Y-53852380D01*
X198909523Y-53852380D01*
X198766666Y-53804761D01*
X198671428Y-53709523D01*
X198623809Y-53614285D01*
X198576190Y-53423809D01*
X198576190Y-53280952D01*
X198623809Y-53090476D01*
X198671428Y-52995238D01*
X198766666Y-52900000D01*
X198909523Y-52852380D01*
X199004761Y-52852380D01*
X199147619Y-52900000D01*
X199195238Y-52947619D01*
X199623809Y-52852380D02*
X199623809Y-53661904D01*
X199671428Y-53757142D01*
X199719047Y-53804761D01*
X199814285Y-53852380D01*
X200004761Y-53852380D01*
X200100000Y-53804761D01*
X200147619Y-53757142D01*
X200195238Y-53661904D01*
X200195238Y-52852380D01*
X200528571Y-52852380D02*
X201100000Y-52852380D01*
X200814285Y-53852380D02*
X200814285Y-52852380D01*
X202385714Y-52852380D02*
X202576190Y-52852380D01*
X202671428Y-52900000D01*
X202766666Y-52995238D01*
X202814285Y-53185714D01*
X202814285Y-53519047D01*
X202766666Y-53709523D01*
X202671428Y-53804761D01*
X202576190Y-53852380D01*
X202385714Y-53852380D01*
X202290476Y-53804761D01*
X202195238Y-53709523D01*
X202147619Y-53519047D01*
X202147619Y-53185714D01*
X202195238Y-52995238D01*
X202290476Y-52900000D01*
X202385714Y-52852380D01*
X203242857Y-52852380D02*
X203242857Y-53661904D01*
X203290476Y-53757142D01*
X203338095Y-53804761D01*
X203433333Y-53852380D01*
X203623809Y-53852380D01*
X203719047Y-53804761D01*
X203766666Y-53757142D01*
X203814285Y-53661904D01*
X203814285Y-52852380D01*
X204147619Y-52852380D02*
X204719047Y-52852380D01*
X204433333Y-53852380D02*
X204433333Y-52852380D01*
X180795238Y-53757142D02*
X180747619Y-53804761D01*
X180604761Y-53852380D01*
X180509523Y-53852380D01*
X180366666Y-53804761D01*
X180271428Y-53709523D01*
X180223809Y-53614285D01*
X180176190Y-53423809D01*
X180176190Y-53280952D01*
X180223809Y-53090476D01*
X180271428Y-52995238D01*
X180366666Y-52900000D01*
X180509523Y-52852380D01*
X180604761Y-52852380D01*
X180747619Y-52900000D01*
X180795238Y-52947619D01*
X181223809Y-52852380D02*
X181223809Y-53661904D01*
X181271428Y-53757142D01*
X181319047Y-53804761D01*
X181414285Y-53852380D01*
X181604761Y-53852380D01*
X181700000Y-53804761D01*
X181747619Y-53757142D01*
X181795238Y-53661904D01*
X181795238Y-52852380D01*
X182128571Y-52852380D02*
X182700000Y-52852380D01*
X182414285Y-53852380D02*
X182414285Y-52852380D01*
X183985714Y-52852380D02*
X184176190Y-52852380D01*
X184271428Y-52900000D01*
X184366666Y-52995238D01*
X184414285Y-53185714D01*
X184414285Y-53519047D01*
X184366666Y-53709523D01*
X184271428Y-53804761D01*
X184176190Y-53852380D01*
X183985714Y-53852380D01*
X183890476Y-53804761D01*
X183795238Y-53709523D01*
X183747619Y-53519047D01*
X183747619Y-53185714D01*
X183795238Y-52995238D01*
X183890476Y-52900000D01*
X183985714Y-52852380D01*
X184842857Y-52852380D02*
X184842857Y-53661904D01*
X184890476Y-53757142D01*
X184938095Y-53804761D01*
X185033333Y-53852380D01*
X185223809Y-53852380D01*
X185319047Y-53804761D01*
X185366666Y-53757142D01*
X185414285Y-53661904D01*
X185414285Y-52852380D01*
X185747619Y-52852380D02*
X186319047Y-52852380D01*
X186033333Y-53852380D02*
X186033333Y-52852380D01*
X168095238Y-53857142D02*
X168047619Y-53904761D01*
X167904761Y-53952380D01*
X167809523Y-53952380D01*
X167666666Y-53904761D01*
X167571428Y-53809523D01*
X167523809Y-53714285D01*
X167476190Y-53523809D01*
X167476190Y-53380952D01*
X167523809Y-53190476D01*
X167571428Y-53095238D01*
X167666666Y-53000000D01*
X167809523Y-52952380D01*
X167904761Y-52952380D01*
X168047619Y-53000000D01*
X168095238Y-53047619D01*
X168523809Y-52952380D02*
X168523809Y-53761904D01*
X168571428Y-53857142D01*
X168619047Y-53904761D01*
X168714285Y-53952380D01*
X168904761Y-53952380D01*
X169000000Y-53904761D01*
X169047619Y-53857142D01*
X169095238Y-53761904D01*
X169095238Y-52952380D01*
X169428571Y-52952380D02*
X170000000Y-52952380D01*
X169714285Y-53952380D02*
X169714285Y-52952380D01*
X171285714Y-52952380D02*
X171476190Y-52952380D01*
X171571428Y-53000000D01*
X171666666Y-53095238D01*
X171714285Y-53285714D01*
X171714285Y-53619047D01*
X171666666Y-53809523D01*
X171571428Y-53904761D01*
X171476190Y-53952380D01*
X171285714Y-53952380D01*
X171190476Y-53904761D01*
X171095238Y-53809523D01*
X171047619Y-53619047D01*
X171047619Y-53285714D01*
X171095238Y-53095238D01*
X171190476Y-53000000D01*
X171285714Y-52952380D01*
X172142857Y-52952380D02*
X172142857Y-53761904D01*
X172190476Y-53857142D01*
X172238095Y-53904761D01*
X172333333Y-53952380D01*
X172523809Y-53952380D01*
X172619047Y-53904761D01*
X172666666Y-53857142D01*
X172714285Y-53761904D01*
X172714285Y-52952380D01*
X173047619Y-52952380D02*
X173619047Y-52952380D01*
X173333333Y-53952380D02*
X173333333Y-52952380D01*
X151795238Y-53857142D02*
X151747619Y-53904761D01*
X151604761Y-53952380D01*
X151509523Y-53952380D01*
X151366666Y-53904761D01*
X151271428Y-53809523D01*
X151223809Y-53714285D01*
X151176190Y-53523809D01*
X151176190Y-53380952D01*
X151223809Y-53190476D01*
X151271428Y-53095238D01*
X151366666Y-53000000D01*
X151509523Y-52952380D01*
X151604761Y-52952380D01*
X151747619Y-53000000D01*
X151795238Y-53047619D01*
X152223809Y-52952380D02*
X152223809Y-53761904D01*
X152271428Y-53857142D01*
X152319047Y-53904761D01*
X152414285Y-53952380D01*
X152604761Y-53952380D01*
X152700000Y-53904761D01*
X152747619Y-53857142D01*
X152795238Y-53761904D01*
X152795238Y-52952380D01*
X153128571Y-52952380D02*
X153700000Y-52952380D01*
X153414285Y-53952380D02*
X153414285Y-52952380D01*
X154985714Y-52952380D02*
X155176190Y-52952380D01*
X155271428Y-53000000D01*
X155366666Y-53095238D01*
X155414285Y-53285714D01*
X155414285Y-53619047D01*
X155366666Y-53809523D01*
X155271428Y-53904761D01*
X155176190Y-53952380D01*
X154985714Y-53952380D01*
X154890476Y-53904761D01*
X154795238Y-53809523D01*
X154747619Y-53619047D01*
X154747619Y-53285714D01*
X154795238Y-53095238D01*
X154890476Y-53000000D01*
X154985714Y-52952380D01*
X155842857Y-52952380D02*
X155842857Y-53761904D01*
X155890476Y-53857142D01*
X155938095Y-53904761D01*
X156033333Y-53952380D01*
X156223809Y-53952380D01*
X156319047Y-53904761D01*
X156366666Y-53857142D01*
X156414285Y-53761904D01*
X156414285Y-52952380D01*
X156747619Y-52952380D02*
X157319047Y-52952380D01*
X157033333Y-53952380D02*
X157033333Y-52952380D01*
X133995238Y-53857142D02*
X133947619Y-53904761D01*
X133804761Y-53952380D01*
X133709523Y-53952380D01*
X133566666Y-53904761D01*
X133471428Y-53809523D01*
X133423809Y-53714285D01*
X133376190Y-53523809D01*
X133376190Y-53380952D01*
X133423809Y-53190476D01*
X133471428Y-53095238D01*
X133566666Y-53000000D01*
X133709523Y-52952380D01*
X133804761Y-52952380D01*
X133947619Y-53000000D01*
X133995238Y-53047619D01*
X134423809Y-52952380D02*
X134423809Y-53761904D01*
X134471428Y-53857142D01*
X134519047Y-53904761D01*
X134614285Y-53952380D01*
X134804761Y-53952380D01*
X134900000Y-53904761D01*
X134947619Y-53857142D01*
X134995238Y-53761904D01*
X134995238Y-52952380D01*
X135328571Y-52952380D02*
X135900000Y-52952380D01*
X135614285Y-53952380D02*
X135614285Y-52952380D01*
X137185714Y-52952380D02*
X137376190Y-52952380D01*
X137471428Y-53000000D01*
X137566666Y-53095238D01*
X137614285Y-53285714D01*
X137614285Y-53619047D01*
X137566666Y-53809523D01*
X137471428Y-53904761D01*
X137376190Y-53952380D01*
X137185714Y-53952380D01*
X137090476Y-53904761D01*
X136995238Y-53809523D01*
X136947619Y-53619047D01*
X136947619Y-53285714D01*
X136995238Y-53095238D01*
X137090476Y-53000000D01*
X137185714Y-52952380D01*
X138042857Y-52952380D02*
X138042857Y-53761904D01*
X138090476Y-53857142D01*
X138138095Y-53904761D01*
X138233333Y-53952380D01*
X138423809Y-53952380D01*
X138519047Y-53904761D01*
X138566666Y-53857142D01*
X138614285Y-53761904D01*
X138614285Y-52952380D01*
X138947619Y-52952380D02*
X139519047Y-52952380D01*
X139233333Y-53952380D02*
X139233333Y-52952380D01*
X143295238Y-49257142D02*
X143247619Y-49304761D01*
X143104761Y-49352380D01*
X143009523Y-49352380D01*
X142866666Y-49304761D01*
X142771428Y-49209523D01*
X142723809Y-49114285D01*
X142676190Y-48923809D01*
X142676190Y-48780952D01*
X142723809Y-48590476D01*
X142771428Y-48495238D01*
X142866666Y-48400000D01*
X143009523Y-48352380D01*
X143104761Y-48352380D01*
X143247619Y-48400000D01*
X143295238Y-48447619D01*
X143723809Y-48352380D02*
X143723809Y-49161904D01*
X143771428Y-49257142D01*
X143819047Y-49304761D01*
X143914285Y-49352380D01*
X144104761Y-49352380D01*
X144200000Y-49304761D01*
X144247619Y-49257142D01*
X144295238Y-49161904D01*
X144295238Y-48352380D01*
X144628571Y-48352380D02*
X145200000Y-48352380D01*
X144914285Y-49352380D02*
X144914285Y-48352380D01*
X146485714Y-48352380D02*
X146676190Y-48352380D01*
X146771428Y-48400000D01*
X146866666Y-48495238D01*
X146914285Y-48685714D01*
X146914285Y-49019047D01*
X146866666Y-49209523D01*
X146771428Y-49304761D01*
X146676190Y-49352380D01*
X146485714Y-49352380D01*
X146390476Y-49304761D01*
X146295238Y-49209523D01*
X146247619Y-49019047D01*
X146247619Y-48685714D01*
X146295238Y-48495238D01*
X146390476Y-48400000D01*
X146485714Y-48352380D01*
X147342857Y-48352380D02*
X147342857Y-49161904D01*
X147390476Y-49257142D01*
X147438095Y-49304761D01*
X147533333Y-49352380D01*
X147723809Y-49352380D01*
X147819047Y-49304761D01*
X147866666Y-49257142D01*
X147914285Y-49161904D01*
X147914285Y-48352380D01*
X148247619Y-48352380D02*
X148819047Y-48352380D01*
X148533333Y-49352380D02*
X148533333Y-48352380D01*
X223200000Y-154000000D02*
G75*
G03X223200000Y-154000000I-2200000J0D01*
G01*
X223200000Y-119000000D02*
G75*
G03X223200000Y-119000000I-2200000J0D01*
G01*
X223200000Y-128000000D02*
G75*
G03X223200000Y-128000000I-2200000J0D01*
G01*
X223200000Y-93000000D02*
G75*
G03X223200000Y-93000000I-2200000J0D01*
G01*
X135600000Y-128000000D02*
G75*
G03X135600000Y-128000000I-2200000J0D01*
G01*
X135600000Y-93000000D02*
G75*
G03X135600000Y-93000000I-2200000J0D01*
G01*
X135600000Y-154000000D02*
G75*
G03X135600000Y-154000000I-2200000J0D01*
G01*
X135600000Y-119000000D02*
G75*
G03X135600000Y-119000000I-2200000J0D01*
G01*
X223200000Y-84000000D02*
G75*
G03X223200000Y-84000000I-2200000J0D01*
G01*
X223200000Y-58000000D02*
G75*
G03X223200000Y-58000000I-2200000J0D01*
G01*
X135600000Y-84000000D02*
G75*
G03X135600000Y-84000000I-2200000J0D01*
G01*
X135600000Y-58000000D02*
G75*
G03X135600000Y-58000000I-2200000J0D01*
G01*
M02*
