G04 #@! TF.GenerationSoftware,KiCad,Pcbnew,(5.1.5)-3*
G04 #@! TF.CreationDate,2020-05-17T20:08:31+05:30*
G04 #@! TF.ProjectId,panel,70616e65-6c2e-46b6-9963-61645f706362,rev?*
G04 #@! TF.SameCoordinates,Original*
G04 #@! TF.FileFunction,Other,ECO1*
%FSLAX46Y46*%
G04 Gerber Fmt 4.6, Leading zero omitted, Abs format (unit mm)*
G04 Created by KiCad (PCBNEW (5.1.5)-3) date 2020-05-17 20:08:31*
%MOMM*%
%LPD*%
G04 APERTURE LIST*
%ADD10C,0.150000*%
%ADD11C,3.000000*%
G04 APERTURE END LIST*
D10*
X190195238Y-53757142D02*
X190147619Y-53804761D01*
X190004761Y-53852380D01*
X189909523Y-53852380D01*
X189766666Y-53804761D01*
X189671428Y-53709523D01*
X189623809Y-53614285D01*
X189576190Y-53423809D01*
X189576190Y-53280952D01*
X189623809Y-53090476D01*
X189671428Y-52995238D01*
X189766666Y-52900000D01*
X189909523Y-52852380D01*
X190004761Y-52852380D01*
X190147619Y-52900000D01*
X190195238Y-52947619D01*
X190623809Y-52852380D02*
X190623809Y-53661904D01*
X190671428Y-53757142D01*
X190719047Y-53804761D01*
X190814285Y-53852380D01*
X191004761Y-53852380D01*
X191100000Y-53804761D01*
X191147619Y-53757142D01*
X191195238Y-53661904D01*
X191195238Y-52852380D01*
X191528571Y-52852380D02*
X192100000Y-52852380D01*
X191814285Y-53852380D02*
X191814285Y-52852380D01*
X193385714Y-52852380D02*
X193576190Y-52852380D01*
X193671428Y-52900000D01*
X193766666Y-52995238D01*
X193814285Y-53185714D01*
X193814285Y-53519047D01*
X193766666Y-53709523D01*
X193671428Y-53804761D01*
X193576190Y-53852380D01*
X193385714Y-53852380D01*
X193290476Y-53804761D01*
X193195238Y-53709523D01*
X193147619Y-53519047D01*
X193147619Y-53185714D01*
X193195238Y-52995238D01*
X193290476Y-52900000D01*
X193385714Y-52852380D01*
X194242857Y-52852380D02*
X194242857Y-53661904D01*
X194290476Y-53757142D01*
X194338095Y-53804761D01*
X194433333Y-53852380D01*
X194623809Y-53852380D01*
X194719047Y-53804761D01*
X194766666Y-53757142D01*
X194814285Y-53661904D01*
X194814285Y-52852380D01*
X195147619Y-52852380D02*
X195719047Y-52852380D01*
X195433333Y-53852380D02*
X195433333Y-52852380D01*
X180795238Y-53957142D02*
X180747619Y-54004761D01*
X180604761Y-54052380D01*
X180509523Y-54052380D01*
X180366666Y-54004761D01*
X180271428Y-53909523D01*
X180223809Y-53814285D01*
X180176190Y-53623809D01*
X180176190Y-53480952D01*
X180223809Y-53290476D01*
X180271428Y-53195238D01*
X180366666Y-53100000D01*
X180509523Y-53052380D01*
X180604761Y-53052380D01*
X180747619Y-53100000D01*
X180795238Y-53147619D01*
X181223809Y-53052380D02*
X181223809Y-53861904D01*
X181271428Y-53957142D01*
X181319047Y-54004761D01*
X181414285Y-54052380D01*
X181604761Y-54052380D01*
X181700000Y-54004761D01*
X181747619Y-53957142D01*
X181795238Y-53861904D01*
X181795238Y-53052380D01*
X182128571Y-53052380D02*
X182700000Y-53052380D01*
X182414285Y-54052380D02*
X182414285Y-53052380D01*
X183985714Y-53052380D02*
X184176190Y-53052380D01*
X184271428Y-53100000D01*
X184366666Y-53195238D01*
X184414285Y-53385714D01*
X184414285Y-53719047D01*
X184366666Y-53909523D01*
X184271428Y-54004761D01*
X184176190Y-54052380D01*
X183985714Y-54052380D01*
X183890476Y-54004761D01*
X183795238Y-53909523D01*
X183747619Y-53719047D01*
X183747619Y-53385714D01*
X183795238Y-53195238D01*
X183890476Y-53100000D01*
X183985714Y-53052380D01*
X184842857Y-53052380D02*
X184842857Y-53861904D01*
X184890476Y-53957142D01*
X184938095Y-54004761D01*
X185033333Y-54052380D01*
X185223809Y-54052380D01*
X185319047Y-54004761D01*
X185366666Y-53957142D01*
X185414285Y-53861904D01*
X185414285Y-53052380D01*
X185747619Y-53052380D02*
X186319047Y-53052380D01*
X186033333Y-54052380D02*
X186033333Y-53052380D01*
X151195238Y-53957142D02*
X151147619Y-54004761D01*
X151004761Y-54052380D01*
X150909523Y-54052380D01*
X150766666Y-54004761D01*
X150671428Y-53909523D01*
X150623809Y-53814285D01*
X150576190Y-53623809D01*
X150576190Y-53480952D01*
X150623809Y-53290476D01*
X150671428Y-53195238D01*
X150766666Y-53100000D01*
X150909523Y-53052380D01*
X151004761Y-53052380D01*
X151147619Y-53100000D01*
X151195238Y-53147619D01*
X151623809Y-53052380D02*
X151623809Y-53861904D01*
X151671428Y-53957142D01*
X151719047Y-54004761D01*
X151814285Y-54052380D01*
X152004761Y-54052380D01*
X152100000Y-54004761D01*
X152147619Y-53957142D01*
X152195238Y-53861904D01*
X152195238Y-53052380D01*
X152528571Y-53052380D02*
X153100000Y-53052380D01*
X152814285Y-54052380D02*
X152814285Y-53052380D01*
X154385714Y-53052380D02*
X154576190Y-53052380D01*
X154671428Y-53100000D01*
X154766666Y-53195238D01*
X154814285Y-53385714D01*
X154814285Y-53719047D01*
X154766666Y-53909523D01*
X154671428Y-54004761D01*
X154576190Y-54052380D01*
X154385714Y-54052380D01*
X154290476Y-54004761D01*
X154195238Y-53909523D01*
X154147619Y-53719047D01*
X154147619Y-53385714D01*
X154195238Y-53195238D01*
X154290476Y-53100000D01*
X154385714Y-53052380D01*
X155242857Y-53052380D02*
X155242857Y-53861904D01*
X155290476Y-53957142D01*
X155338095Y-54004761D01*
X155433333Y-54052380D01*
X155623809Y-54052380D01*
X155719047Y-54004761D01*
X155766666Y-53957142D01*
X155814285Y-53861904D01*
X155814285Y-53052380D01*
X156147619Y-53052380D02*
X156719047Y-53052380D01*
X156433333Y-54052380D02*
X156433333Y-53052380D01*
X170495238Y-53957142D02*
X170447619Y-54004761D01*
X170304761Y-54052380D01*
X170209523Y-54052380D01*
X170066666Y-54004761D01*
X169971428Y-53909523D01*
X169923809Y-53814285D01*
X169876190Y-53623809D01*
X169876190Y-53480952D01*
X169923809Y-53290476D01*
X169971428Y-53195238D01*
X170066666Y-53100000D01*
X170209523Y-53052380D01*
X170304761Y-53052380D01*
X170447619Y-53100000D01*
X170495238Y-53147619D01*
X170923809Y-53052380D02*
X170923809Y-53861904D01*
X170971428Y-53957142D01*
X171019047Y-54004761D01*
X171114285Y-54052380D01*
X171304761Y-54052380D01*
X171400000Y-54004761D01*
X171447619Y-53957142D01*
X171495238Y-53861904D01*
X171495238Y-53052380D01*
X171828571Y-53052380D02*
X172400000Y-53052380D01*
X172114285Y-54052380D02*
X172114285Y-53052380D01*
X173685714Y-53052380D02*
X173876190Y-53052380D01*
X173971428Y-53100000D01*
X174066666Y-53195238D01*
X174114285Y-53385714D01*
X174114285Y-53719047D01*
X174066666Y-53909523D01*
X173971428Y-54004761D01*
X173876190Y-54052380D01*
X173685714Y-54052380D01*
X173590476Y-54004761D01*
X173495238Y-53909523D01*
X173447619Y-53719047D01*
X173447619Y-53385714D01*
X173495238Y-53195238D01*
X173590476Y-53100000D01*
X173685714Y-53052380D01*
X174542857Y-53052380D02*
X174542857Y-53861904D01*
X174590476Y-53957142D01*
X174638095Y-54004761D01*
X174733333Y-54052380D01*
X174923809Y-54052380D01*
X175019047Y-54004761D01*
X175066666Y-53957142D01*
X175114285Y-53861904D01*
X175114285Y-53052380D01*
X175447619Y-53052380D02*
X176019047Y-53052380D01*
X175733333Y-54052380D02*
X175733333Y-53052380D01*
X134795238Y-53757142D02*
X134747619Y-53804761D01*
X134604761Y-53852380D01*
X134509523Y-53852380D01*
X134366666Y-53804761D01*
X134271428Y-53709523D01*
X134223809Y-53614285D01*
X134176190Y-53423809D01*
X134176190Y-53280952D01*
X134223809Y-53090476D01*
X134271428Y-52995238D01*
X134366666Y-52900000D01*
X134509523Y-52852380D01*
X134604761Y-52852380D01*
X134747619Y-52900000D01*
X134795238Y-52947619D01*
X135223809Y-52852380D02*
X135223809Y-53661904D01*
X135271428Y-53757142D01*
X135319047Y-53804761D01*
X135414285Y-53852380D01*
X135604761Y-53852380D01*
X135700000Y-53804761D01*
X135747619Y-53757142D01*
X135795238Y-53661904D01*
X135795238Y-52852380D01*
X136128571Y-52852380D02*
X136700000Y-52852380D01*
X136414285Y-53852380D02*
X136414285Y-52852380D01*
X137985714Y-52852380D02*
X138176190Y-52852380D01*
X138271428Y-52900000D01*
X138366666Y-52995238D01*
X138414285Y-53185714D01*
X138414285Y-53519047D01*
X138366666Y-53709523D01*
X138271428Y-53804761D01*
X138176190Y-53852380D01*
X137985714Y-53852380D01*
X137890476Y-53804761D01*
X137795238Y-53709523D01*
X137747619Y-53519047D01*
X137747619Y-53185714D01*
X137795238Y-52995238D01*
X137890476Y-52900000D01*
X137985714Y-52852380D01*
X138842857Y-52852380D02*
X138842857Y-53661904D01*
X138890476Y-53757142D01*
X138938095Y-53804761D01*
X139033333Y-53852380D01*
X139223809Y-53852380D01*
X139319047Y-53804761D01*
X139366666Y-53757142D01*
X139414285Y-53661904D01*
X139414285Y-52852380D01*
X139747619Y-52852380D02*
X140319047Y-52852380D01*
X140033333Y-53852380D02*
X140033333Y-52852380D01*
D11*
X178710000Y-123600000D02*
X220500000Y-123500000D01*
X178600000Y-158500000D02*
X220390000Y-158500000D01*
X173600000Y-158500000D02*
X133910000Y-158500000D01*
X128900000Y-153200000D02*
X128900000Y-128790000D01*
X128900000Y-118210000D02*
X128900000Y-93800000D01*
X173690000Y-123600000D02*
X133910000Y-123500000D01*
X178400000Y-88500000D02*
X220500000Y-88500000D01*
X133910000Y-88500000D02*
X173390000Y-88500000D01*
X133800000Y-88500000D02*
X133910000Y-88500000D01*
X128900000Y-59000000D02*
X128900000Y-83210000D01*
X225500000Y-128790000D02*
X225500000Y-153200000D01*
X225500000Y-93790000D02*
X225500000Y-118200000D01*
X225500000Y-59400000D02*
X225500000Y-83210000D01*
X180510000Y-53500000D02*
X220400000Y-53500000D01*
X133910000Y-53500000D02*
X175490000Y-53500000D01*
X178610000Y-158500000D02*
X178600000Y-158500000D01*
X173590000Y-158500000D02*
X173600000Y-158500000D01*
X225500000Y-158210000D02*
X225500000Y-158200000D01*
X225500000Y-153190000D02*
X225500000Y-153200000D01*
X220390000Y-158500000D02*
X220400000Y-158500000D01*
X225410000Y-158500000D02*
X225400000Y-158500000D01*
X225500000Y-59410000D02*
X225500000Y-59400000D01*
X225500000Y-54390000D02*
X225500000Y-54400000D01*
X128900000Y-59010000D02*
X128900000Y-59000000D01*
X128900000Y-53990000D02*
X128900000Y-54000000D01*
X128900000Y-158210000D02*
X128900000Y-158200000D01*
X128900000Y-153190000D02*
X128900000Y-153200000D01*
X128890000Y-158500000D02*
X128900000Y-158500000D01*
X133910000Y-158500000D02*
X133900000Y-158500000D01*
X173690000Y-123600000D02*
X173700000Y-123600000D01*
X178710000Y-123600000D02*
X178700000Y-123600000D01*
X173390000Y-88500000D02*
X173400000Y-88500000D01*
X178410000Y-88500000D02*
X178400000Y-88500000D01*
X175490000Y-53500000D02*
X175500000Y-53500000D01*
X180510000Y-53500000D02*
X180500000Y-53500000D01*
X220390000Y-53500000D02*
X220400000Y-53500000D01*
X225410000Y-53500000D02*
X225400000Y-53500000D01*
X133910000Y-53500000D02*
X133900000Y-53500000D01*
X128890000Y-53500000D02*
X128900000Y-53500000D01*
X220490000Y-123500000D02*
X220500000Y-123500000D01*
X225500000Y-128800000D02*
X225500000Y-128790000D01*
X225500000Y-118200000D02*
X225500000Y-118210000D01*
X220490000Y-88500000D02*
X220500000Y-88500000D01*
X225500000Y-93800000D02*
X225500000Y-93790000D01*
X225500000Y-83200000D02*
X225500000Y-83210000D01*
X133910000Y-123500000D02*
X133900000Y-123500000D01*
X128900000Y-118200000D02*
X128900000Y-118210000D01*
X128900000Y-128800000D02*
X128900000Y-128790000D01*
X128900000Y-93800000D02*
X128900000Y-93790000D01*
X128900000Y-83200000D02*
X128900000Y-83210000D01*
X133910000Y-88500000D02*
X133900000Y-88500000D01*
M02*
