M48
; DRILL file {KiCad (5.1.5)-3} date 5/17/2020 8:08:34 PM
; FORMAT={-:-/ absolute / inch / decimal}
; #@! TF.CreationDate,2020-05-17T20:08:34+05:30
; #@! TF.GenerationSoftware,Kicad,Pcbnew,(5.1.5)-3
; #@! TF.FileFunction,NonPlated,1,4,NPTH
FMAT,2
INCH
T1C0.0197
T2C0.0354
T3C0.0941
T4C0.1358
%
G90
G05
T1
X5.126Y-3.3445
X5.126Y-3.374
X5.126Y-3.4035
X5.126Y-3.4843
X5.126Y-3.565
X5.126Y-3.5945
X5.126Y-3.624
X5.1437Y-3.4331
X5.1437Y-3.5354
X5.1732Y-3.4331
X5.1732Y-3.5354
X5.2028Y-3.4331
X5.2028Y-3.5354
X5.1437Y-6.189
X5.1437Y-6.2913
X5.1732Y-6.189
X5.1732Y-6.2913
X5.2028Y-6.189
X5.2028Y-6.2913
X5.0236Y-6.1004
X5.0236Y-6.1299
X5.0236Y-6.1594
X5.126Y-6.1004
X5.126Y-6.1299
X5.126Y-6.1594
X5.1437Y-2.0551
X5.1437Y-2.1575
X5.1732Y-2.0551
X5.1732Y-2.1575
X5.2028Y-2.0551
X5.2028Y-2.1575
X6.8957Y-3.4331
X6.8957Y-3.5354
X6.9252Y-3.4331
X6.9252Y-3.5354
X6.9547Y-3.4331
X6.9547Y-3.5354
X6.9035Y-6.189
X6.9035Y-6.2913
X6.9331Y-6.189
X6.9331Y-6.2913
X6.9626Y-6.189
X6.9626Y-6.2913
X6.9783Y-2.0551
X6.9783Y-2.1575
X7.0079Y-2.0551
X7.0079Y-2.1575
X7.0374Y-2.0551
X7.0374Y-2.1575
X5.0236Y-2.1949
X5.0236Y-2.2244
X5.0236Y-2.2539
X5.126Y-2.1949
X5.126Y-2.2244
X5.126Y-2.2539
X8.7461Y-2.0551
X8.7461Y-2.1575
X8.7756Y-2.0551
X8.7756Y-2.1575
X8.8051Y-2.0551
X8.8051Y-2.1575
X6.9075Y-4.815
X6.9075Y-4.9173
X6.937Y-4.815
X6.937Y-4.9173
X6.9665Y-4.815
X6.9665Y-4.9173
X8.7461Y-6.189
X8.7461Y-6.2913
X8.7756Y-6.189
X8.7756Y-6.2913
X8.8051Y-6.189
X8.8051Y-6.2913
X8.8268Y-2.2106
X8.8268Y-2.2402
X8.8268Y-2.2697
X8.9291Y-2.2106
X8.9291Y-2.2402
X8.9291Y-2.2697
X8.8268Y-6.1004
X8.8268Y-6.1299
X8.8268Y-6.1594
X8.9291Y-6.1004
X8.9291Y-6.1299
X8.9291Y-6.1594
X8.75Y-4.811
X8.75Y-4.9134
X8.7795Y-4.811
X8.7795Y-4.9134
X8.8091Y-4.811
X8.8091Y-4.9134
X8.8268Y-4.7224
X8.8268Y-4.752
X8.8268Y-4.7815
X8.8268Y-4.8622
X8.8268Y-4.9429
X8.8268Y-4.9724
X8.8268Y-5.002
X5.126Y-4.7224
X5.126Y-4.752
X5.126Y-4.7815
X5.126Y-4.8622
X5.126Y-4.9429
X5.126Y-4.9724
X5.126Y-5.002
X5.1437Y-4.811
X5.1437Y-4.9134
X5.1732Y-4.811
X5.1732Y-4.9134
X5.2028Y-4.811
X5.2028Y-4.9134
X8.75Y-3.4331
X8.75Y-3.5354
X8.7795Y-3.4331
X8.7795Y-3.5354
X8.8091Y-3.4331
X8.8091Y-3.5354
X8.8268Y-3.3445
X8.8268Y-3.374
X8.8268Y-3.4035
X8.8268Y-3.4843
X8.8268Y-3.565
X8.8268Y-3.5945
X8.8268Y-3.624
T2
X5.4154Y-2.3307
X5.6831Y-2.3307
X5.4154Y-5.0866
X5.6831Y-5.0866
X5.4154Y-3.7087
X5.6831Y-3.7087
T3
X5.4516Y-3.1063
X5.4516Y-4.4843
X5.4516Y-5.8622
T4
X5.7795Y-2.4764
X7.9528Y-3.1063
X5.7795Y-3.8543
X7.9528Y-4.4843
X5.7795Y-5.2323
X7.9528Y-5.8622
T0
M30
