M48
; DRILL file {KiCad (5.1.5)-3} date 5/17/2020 8:08:34 PM
; FORMAT={-:-/ absolute / inch / decimal}
; #@! TF.CreationDate,2020-05-17T20:08:34+05:30
; #@! TF.GenerationSoftware,Kicad,Pcbnew,(5.1.5)-3
; #@! TF.FileFunction,Plated,1,4,PTH
FMAT,2
INCH
T1C0.0157
T2C0.0866
%
G90
G05
T1
X5.4291Y-2.6161
X5.4291Y-3.9941
X5.4291Y-5.372
X5.4547Y-2.5354
X5.4547Y-3.9134
X5.4547Y-5.2913
X5.5295Y-2.8839
X5.5295Y-4.2618
X5.5295Y-5.6398
X5.5354Y-3.1299
X5.5354Y-4.5079
X5.5354Y-5.8858
X5.624Y-2.5453
X5.624Y-3.9232
X5.624Y-5.3012
X5.6535Y-2.6339
X5.6535Y-4.0118
X5.6535Y-5.3898
X5.6575Y-3.1594
X5.6575Y-4.5374
X5.6575Y-5.9154
X5.6673Y-2.5295
X5.6673Y-3.9075
X5.6673Y-5.2854
X5.7087Y-2.9154
X5.7087Y-4.2933
X5.7087Y-5.6713
X5.7323Y-3.2069
X5.7323Y-4.5848
X5.7323Y-5.9628
X5.7598Y-2.6339
X5.7598Y-4.0118
X5.7598Y-5.3898
X5.7874Y-2.7992
X5.7874Y-4.1772
X5.7874Y-5.5551
X5.874Y-3.065
X5.874Y-4.4429
X5.874Y-5.8209
X5.9075Y-3.2835
X5.9075Y-4.6614
X5.9075Y-6.0394
X5.9528Y-3.0256
X5.9528Y-4.4035
X5.9528Y-5.7815
X5.9783Y-2.5098
X5.9783Y-3.8878
X5.9783Y-5.2657
X5.9862Y-2.3012
X5.9862Y-3.6791
X5.9862Y-5.0571
X6.0295Y-2.5079
X6.0295Y-2.8091
X6.0295Y-3.8858
X6.0295Y-4.187
X6.0295Y-5.2638
X6.0295Y-5.565
X6.0492Y-2.8425
X6.0492Y-4.2205
X6.0492Y-5.5984
X6.0945Y-2.311
X6.0945Y-3.689
X6.0945Y-5.0669
X6.1634Y-2.7047
X6.1634Y-4.0827
X6.1634Y-5.4606
X6.1909Y-2.4547
X6.1909Y-3.8327
X6.1909Y-5.2106
X6.1949Y-3.2028
X6.1949Y-4.5807
X6.1949Y-5.9587
X6.2441Y-3.252
X6.2441Y-4.6299
X6.2441Y-6.0079
X6.2559Y-2.4528
X6.2559Y-3.8307
X6.2559Y-5.2087
X6.2618Y-2.313
X6.2618Y-3.6909
X6.2618Y-5.0689
X6.2874Y-2.8051
X6.2874Y-4.1831
X6.2874Y-5.561
X6.2913Y-2.7421
X6.2913Y-4.1201
X6.2913Y-5.498
X6.2953Y-2.8642
X6.2953Y-4.2421
X6.2953Y-5.6201
X6.313Y-2.689
X6.313Y-4.0669
X6.313Y-5.4449
X6.3425Y-2.9528
X6.3425Y-4.3307
X6.3425Y-5.7087
X6.3504Y-2.5413
X6.3504Y-3.9193
X6.3504Y-5.2972
X6.4035Y-2.4803
X6.4035Y-3.8583
X6.4035Y-5.2362
X6.4902Y-2.8681
X6.4902Y-4.2461
X6.4902Y-5.624
X6.4921Y-2.4783
X6.4921Y-3.8563
X6.4921Y-5.2343
X6.498Y-2.4075
X6.498Y-3.7854
X6.498Y-5.1634
X6.5315Y-2.9173
X6.5315Y-4.2953
X6.5315Y-5.6732
X6.5354Y-2.7953
X6.5354Y-4.1732
X6.5354Y-5.5512
X6.5413Y-2.6378
X6.5413Y-4.0157
X6.5413Y-5.3937
X6.5709Y-3.2854
X6.5709Y-4.6634
X6.5709Y-6.0413
X6.5748Y-2.5453
X6.5748Y-3.9232
X6.5748Y-5.3012
X6.5768Y-3.1339
X6.5768Y-3.189
X6.5768Y-4.5118
X6.5768Y-4.5669
X6.5768Y-5.8898
X6.5768Y-5.9449
X6.5945Y-2.4882
X6.5945Y-3.8661
X6.5945Y-5.2441
X6.6181Y-3.313
X6.6181Y-4.6909
X6.6181Y-6.0689
X6.624Y-2.6043
X6.624Y-3.9823
X6.624Y-5.3602
X6.6437Y-2.4488
X6.6437Y-3.8268
X6.6437Y-5.2047
X6.6496Y-2.7657
X6.6496Y-4.1437
X6.6496Y-5.5217
X6.6555Y-2.9902
X6.6555Y-4.3681
X6.6555Y-5.7461
X6.6654Y-2.6496
X6.6654Y-4.0276
X6.6654Y-5.4055
X6.689Y-3.0118
X6.689Y-4.3898
X6.689Y-5.7677
X6.6969Y-2.4193
X6.6969Y-3.7972
X6.6969Y-5.1752
X6.7087Y-2.6496
X6.7087Y-4.0276
X6.7087Y-5.4055
X6.7163Y-2.9849
X6.7163Y-4.3628
X6.7163Y-5.7408
X6.7224Y-3.2382
X6.7224Y-3.2894
X6.7224Y-4.6161
X6.7224Y-4.6673
X6.7224Y-5.9941
X6.7224Y-6.0453
X6.7441Y-3.0354
X6.7441Y-4.4134
X6.7441Y-5.7913
X6.75Y-2.6555
X6.75Y-4.0335
X6.75Y-5.4114
X6.7933Y-2.6555
X6.7933Y-4.0335
X6.7933Y-5.4114
X6.8189Y-3.3701
X6.8189Y-4.748
X6.8189Y-6.126
X6.8287Y-2.4567
X6.8287Y-3.8346
X6.8287Y-5.2126
X6.8425Y-2.4016
X6.8425Y-3.7795
X6.8425Y-5.1575
X6.8484Y-2.9843
X6.8484Y-4.3622
X6.8484Y-5.7402
X6.8504Y-3.0965
X6.8504Y-4.4744
X6.8504Y-5.8524
X6.8996Y-2.9744
X6.8996Y-4.3524
X6.8996Y-5.7303
X6.9114Y-2.5709
X6.9114Y-3.1693
X6.9114Y-3.9488
X6.9114Y-4.5472
X6.9114Y-5.3268
X6.9114Y-5.9252
X6.9823Y-2.8898
X6.9823Y-4.2677
X6.9823Y-5.6457
X6.9862Y-2.5098
X6.9862Y-3.8878
X6.9862Y-5.2657
X6.9882Y-2.6555
X6.9882Y-4.0335
X6.9882Y-5.4114
X6.9941Y-2.7933
X6.9941Y-4.1713
X6.9941Y-5.5492
X6.998Y-2.4055
X6.998Y-3.7835
X6.998Y-5.1614
X7.0138Y-2.6063
X7.0138Y-3.9843
X7.0138Y-5.3622
X7.0252Y-2.8191
X7.0252Y-4.1971
X7.0252Y-5.575
X7.0257Y-2.8554
X7.0257Y-4.2333
X7.0257Y-5.6113
X7.0276Y-2.6732
X7.0276Y-4.0512
X7.0276Y-5.4291
X7.0315Y-2.7835
X7.0315Y-4.1614
X7.0315Y-5.5394
X7.065Y-2.689
X7.065Y-4.0669
X7.065Y-5.4449
X7.0669Y-2.7283
X7.0669Y-4.1063
X7.0669Y-5.4843
X7.0728Y-2.7657
X7.0728Y-4.1437
X7.0728Y-5.5217
X7.189Y-2.8898
X7.189Y-2.9685
X7.189Y-3.0472
X7.189Y-3.126
X7.189Y-3.2047
X7.189Y-4.2677
X7.189Y-4.3465
X7.189Y-4.4252
X7.189Y-4.5039
X7.189Y-4.5827
X7.189Y-5.6457
X7.189Y-5.7244
X7.189Y-5.8031
X7.189Y-5.8819
X7.189Y-5.9606
X7.2039Y-3.3079
X7.2039Y-4.6858
X7.2039Y-6.0638
X7.3091Y-3.1201
X7.3091Y-4.498
X7.3091Y-5.876
X7.3327Y-2.6614
X7.3327Y-4.0394
X7.3327Y-5.4173
X7.376Y-3.1181
X7.376Y-4.4961
X7.376Y-5.874
X7.3792Y-2.6508
X7.3792Y-4.0288
X7.3792Y-5.4067
X7.4193Y-3.2205
X7.4193Y-4.5984
X7.4193Y-5.9764
X7.4875Y-2.9112
X7.4875Y-4.2892
X7.4875Y-5.6671
X7.4992Y-2.3433
X7.4992Y-2.5795
X7.4992Y-2.6583
X7.4992Y-3.7213
X7.4992Y-3.9575
X7.4992Y-4.0362
X7.4992Y-5.0992
X7.4992Y-5.3354
X7.4992Y-5.4142
X7.5118Y-3.2579
X7.5118Y-4.6358
X7.5118Y-6.0138
X7.5418Y-3.2275
X7.5418Y-4.6054
X7.5418Y-5.9834
X7.5492Y-2.5827
X7.5492Y-3.9606
X7.5492Y-5.3386
X7.5591Y-2.7047
X7.5591Y-4.0827
X7.5591Y-5.4606
X7.5602Y-2.7547
X7.5602Y-4.1327
X7.5602Y-5.5106
X7.5638Y-2.8299
X7.5638Y-4.2079
X7.5638Y-5.5858
X7.5728Y-2.5413
X7.5728Y-3.9193
X7.5728Y-5.2972
X7.573Y-3.2458
X7.573Y-4.6238
X7.573Y-6.0017
X7.5866Y-2.8858
X7.5866Y-4.2638
X7.5866Y-5.6417
X7.5976Y-3.2171
X7.5976Y-4.595
X7.5976Y-5.973
X7.6142Y-2.3425
X7.6142Y-3.7205
X7.6142Y-5.0984
X7.6181Y-2.3898
X7.6181Y-2.4331
X7.6181Y-3.7677
X7.6181Y-3.811
X7.6181Y-5.1457
X7.6181Y-5.189
X7.622Y-2.4764
X7.622Y-3.8543
X7.622Y-5.2323
X7.626Y-2.5197
X7.626Y-3.8976
X7.626Y-5.2756
X7.6437Y-3.2461
X7.6437Y-4.624
X7.6437Y-6.002
X7.6831Y-3.2421
X7.6831Y-4.6201
X7.6831Y-5.998
X7.7146Y-2.939
X7.7146Y-4.3169
X7.7146Y-5.6949
X7.7157Y-3.3079
X7.7157Y-4.6858
X7.7157Y-6.0638
X7.7165Y-2.7559
X7.7165Y-2.8346
X7.7165Y-4.1339
X7.7165Y-4.2126
X7.7165Y-5.5118
X7.7165Y-5.5906
X7.7598Y-2.8976
X7.7598Y-4.2756
X7.7598Y-5.6535
X7.7606Y-3.0385
X7.7606Y-4.4164
X7.7606Y-5.7944
X7.7657Y-3.187
X7.7657Y-4.565
X7.7657Y-5.9429
X7.7677Y-3.1319
X7.7677Y-4.5098
X7.7677Y-5.8878
X7.7795Y-2.6929
X7.7795Y-4.0709
X7.7795Y-5.4488
X7.7945Y-3.3079
X7.7945Y-4.6858
X7.7945Y-6.0638
X7.7953Y-2.7559
X7.7953Y-2.8346
X7.7953Y-4.1339
X7.7953Y-4.2126
X7.7953Y-5.5118
X7.7953Y-5.5906
X7.8299Y-2.2882
X7.8299Y-3.6661
X7.8299Y-5.0441
X7.8622Y-3.0689
X7.8622Y-4.4469
X7.8622Y-5.8248
X7.8732Y-3.3079
X7.8732Y-4.6858
X7.8732Y-6.0638
X7.874Y-2.7559
X7.874Y-2.8346
X7.874Y-4.1339
X7.874Y-4.2126
X7.874Y-5.5118
X7.874Y-5.5906
X7.8976Y-2.9134
X7.8976Y-2.9488
X7.8976Y-4.2913
X7.8976Y-4.3268
X7.8976Y-5.6693
X7.8976Y-5.7047
X7.9087Y-2.2882
X7.9087Y-3.6661
X7.9087Y-5.0441
X7.952Y-3.3079
X7.952Y-4.6858
X7.952Y-6.0638
X7.9528Y-2.437
X7.9528Y-2.7559
X7.9528Y-2.8346
X7.9528Y-3.815
X7.9528Y-4.1339
X7.9528Y-4.2126
X7.9528Y-5.1929
X7.9528Y-5.5118
X7.9528Y-5.5906
X7.9843Y-2.4055
X7.9843Y-3.7835
X7.9843Y-5.1614
X7.9874Y-2.2882
X7.9874Y-3.6661
X7.9874Y-5.0441
X7.9882Y-2.9409
X7.9882Y-4.3189
X7.9882Y-5.6969
X7.998Y-2.6063
X7.998Y-3.9843
X7.998Y-5.3622
X8.0Y-2.6929
X8.0Y-4.0709
X8.0Y-5.4488
X8.0307Y-3.3079
X8.0307Y-4.6858
X8.0307Y-6.0638
X8.0315Y-2.7559
X8.0315Y-2.8346
X8.0315Y-4.1339
X8.0315Y-4.2126
X8.0315Y-5.5118
X8.0315Y-5.5906
X8.0661Y-2.2882
X8.0661Y-3.6661
X8.0661Y-5.0441
X8.0709Y-3.2559
X8.0709Y-4.6339
X8.0709Y-6.0118
X8.1094Y-3.3079
X8.1094Y-4.6858
X8.1094Y-6.0638
X8.126Y-2.9528
X8.126Y-4.3307
X8.126Y-5.7087
X8.1449Y-2.2882
X8.1449Y-3.6661
X8.1449Y-5.0441
X8.1457Y-3.2244
X8.1457Y-4.6024
X8.1457Y-5.9803
X8.1496Y-2.7559
X8.1496Y-2.8346
X8.1496Y-4.1339
X8.1496Y-4.2126
X8.1496Y-5.5118
X8.1496Y-5.5906
X8.1594Y-3.1654
X8.1594Y-4.5433
X8.1594Y-5.9213
X8.1614Y-2.4469
X8.1614Y-3.8248
X8.1614Y-5.2028
X8.1732Y-2.9685
X8.1732Y-4.3465
X8.1732Y-5.7244
X8.1882Y-3.3079
X8.1882Y-4.6858
X8.1882Y-6.0638
X8.1998Y-2.6014
X8.1998Y-3.9793
X8.1998Y-5.3573
X8.2047Y-2.5531
X8.2047Y-3.9311
X8.2047Y-5.3091
X8.2067Y-2.9508
X8.2067Y-4.3287
X8.2067Y-5.7067
X8.2236Y-2.2882
X8.2236Y-3.6661
X8.2236Y-5.0441
X8.2283Y-2.7559
X8.2283Y-2.8346
X8.2283Y-4.1339
X8.2283Y-4.2126
X8.2283Y-5.5118
X8.2283Y-5.5906
X8.2669Y-3.3079
X8.2669Y-4.6858
X8.2669Y-6.0638
X8.2795Y-3.1811
X8.2795Y-4.5591
X8.2795Y-5.937
X8.2913Y-2.5472
X8.2913Y-3.9252
X8.2913Y-5.3031
X8.2953Y-2.9685
X8.2953Y-4.3465
X8.2953Y-5.7244
X8.3024Y-2.2882
X8.3024Y-3.6661
X8.3024Y-5.0441
X8.3071Y-2.7559
X8.3071Y-2.8346
X8.3071Y-4.1339
X8.3071Y-4.2126
X8.3071Y-5.5118
X8.3071Y-5.5906
X8.3268Y-2.5276
X8.3268Y-3.9055
X8.3268Y-5.2835
X8.3346Y-3.1417
X8.3346Y-4.5197
X8.3346Y-5.8976
X8.3457Y-3.3079
X8.3457Y-4.6858
X8.3457Y-6.0638
X8.3811Y-2.2882
X8.3811Y-3.6661
X8.3811Y-5.0441
X8.3858Y-2.7559
X8.3858Y-2.8346
X8.3858Y-4.1339
X8.3858Y-4.2126
X8.3858Y-5.5118
X8.3858Y-5.5906
X8.4173Y-2.4685
X8.4173Y-3.8465
X8.4173Y-5.2244
X8.4244Y-3.3079
X8.4244Y-4.6858
X8.4244Y-6.0638
X8.4252Y-3.1378
X8.4252Y-4.5157
X8.4252Y-5.8937
X8.4528Y-2.9724
X8.4528Y-4.3504
X8.4528Y-5.7283
X8.4598Y-2.2882
X8.4598Y-3.6661
X8.4598Y-5.0441
X8.4626Y-2.5177
X8.4626Y-3.8957
X8.4626Y-5.2736
X8.4685Y-2.6181
X8.4685Y-3.9961
X8.4685Y-5.374
X8.5031Y-3.3079
X8.5031Y-4.6858
X8.5031Y-6.0638
X8.5039Y-2.7559
X8.5039Y-2.8346
X8.5039Y-4.1339
X8.5039Y-4.2126
X8.5039Y-5.5118
X8.5039Y-5.5906
X8.5386Y-2.2882
X8.5386Y-3.6661
X8.5386Y-5.0441
X8.5748Y-2.4646
X8.5748Y-3.8425
X8.5748Y-5.2205
X8.5768Y-3.3012
X8.5768Y-4.6791
X8.5768Y-6.0571
X8.5787Y-3.1929
X8.5787Y-4.5709
X8.5787Y-5.9488
X8.5827Y-2.3228
X8.5827Y-2.3937
X8.5827Y-2.7559
X8.5827Y-2.8346
X8.5827Y-3.7008
X8.5827Y-3.7717
X8.5827Y-4.1339
X8.5827Y-4.2126
X8.5827Y-5.0787
X8.5827Y-5.1496
X8.5827Y-5.5118
X8.5827Y-5.5906
X8.6575Y-2.6181
X8.6575Y-3.9961
X8.6575Y-5.374
X8.6614Y-3.0866
X8.6614Y-4.4646
X8.6614Y-5.8425
X8.6732Y-2.9764
X8.6732Y-4.3543
X8.6732Y-5.7323
X8.7165Y-2.8346
X8.7165Y-4.2126
X8.7165Y-5.5906
X8.7185Y-2.498
X8.7185Y-3.876
X8.7185Y-5.2539
X8.7205Y-2.7559
X8.7205Y-4.1339
X8.7205Y-5.5118
X8.7323Y-3.0866
X8.7323Y-4.4646
X8.7323Y-5.8425
X8.7362Y-2.9724
X8.7362Y-4.3504
X8.7362Y-5.7283
X8.7382Y-2.6161
X8.7382Y-3.9941
X8.7382Y-5.372
X5.187Y-3.3071
X5.206Y-3.2612
X5.206Y-3.353
X5.252Y-3.2421
X5.252Y-3.372
X5.2979Y-3.2612
X5.2979Y-3.353
X5.3169Y-3.3071
X5.187Y-2.2835
X5.206Y-2.2375
X5.206Y-2.3294
X5.252Y-2.2185
X5.252Y-2.3484
X5.2979Y-2.2375
X5.2979Y-2.3294
X5.3169Y-2.2835
X8.6358Y-2.2835
X8.6549Y-2.2375
X8.6549Y-2.3294
X8.7008Y-2.2185
X8.7008Y-2.3484
X8.7467Y-2.2375
X8.7467Y-2.3294
X8.7657Y-2.2835
X8.6358Y-3.3071
X8.6549Y-3.2612
X8.6549Y-3.353
X8.7008Y-3.2421
X8.7008Y-3.372
X8.7467Y-3.2612
X8.7467Y-3.353
X8.7657Y-3.3071
X5.187Y-4.685
X5.206Y-4.6391
X5.206Y-4.731
X5.252Y-4.6201
X5.252Y-4.75
X5.2979Y-4.6391
X5.2979Y-4.731
X5.3169Y-4.685
X5.187Y-6.063
X5.206Y-6.0171
X5.206Y-6.1089
X5.252Y-5.998
X5.252Y-6.128
X5.2979Y-6.0171
X5.2979Y-6.1089
X5.3169Y-6.063
X8.6358Y-5.0394
X8.6549Y-4.9934
X8.6549Y-5.0853
X8.7008Y-4.9744
X8.7008Y-5.1043
X8.7467Y-4.9934
X8.7467Y-5.0853
X8.7657Y-5.0394
X5.187Y-5.0394
X5.206Y-4.9934
X5.206Y-5.0853
X5.252Y-4.9744
X5.252Y-5.1043
X5.2979Y-4.9934
X5.2979Y-5.0853
X5.3169Y-5.0394
X5.187Y-3.6614
X5.206Y-3.6155
X5.206Y-3.7074
X5.252Y-3.5965
X5.252Y-3.7264
X5.2979Y-3.6155
X5.2979Y-3.7074
X5.3169Y-3.6614
X8.6358Y-3.6614
X8.6549Y-3.6155
X8.6549Y-3.7074
X8.7008Y-3.5965
X8.7008Y-3.7264
X8.7467Y-3.6155
X8.7467Y-3.7074
X8.7657Y-3.6614
X8.6358Y-4.685
X8.6549Y-4.6391
X8.6549Y-4.731
X8.7008Y-4.6201
X8.7008Y-4.75
X8.7467Y-4.6391
X8.7467Y-4.731
X8.7657Y-4.685
X8.6358Y-6.063
X8.6549Y-6.0171
X8.6549Y-6.1089
X8.7008Y-5.998
X8.7008Y-6.128
X8.7467Y-6.0171
X8.7467Y-6.1089
X8.7657Y-6.063
T2
X5.252Y-3.3071
X5.252Y-2.2835
X8.7008Y-2.2835
X8.7008Y-3.3071
X5.252Y-4.685
X5.252Y-6.063
X8.7008Y-5.0394
X5.252Y-5.0394
X5.252Y-3.6614
X8.7008Y-3.6614
X8.7008Y-4.685
X8.7008Y-6.063
T0
M30
