G04 #@! TF.GenerationSoftware,KiCad,Pcbnew,(5.1.5)-3*
G04 #@! TF.CreationDate,2020-05-17T20:08:28+05:30*
G04 #@! TF.ProjectId,panel,70616e65-6c2e-46b6-9963-61645f706362,rev?*
G04 #@! TF.SameCoordinates,Original*
G04 #@! TF.FileFunction,Copper,L4,Bot*
G04 #@! TF.FilePolarity,Positive*
%FSLAX46Y46*%
G04 Gerber Fmt 4.6, Leading zero omitted, Abs format (unit mm)*
G04 Created by KiCad (PCBNEW (5.1.5)-3) date 2020-05-17 20:08:28*
%MOMM*%
%LPD*%
G04 APERTURE LIST*
%ADD10R,4.200000X1.350000*%
%ADD11C,0.100000*%
%ADD12C,0.700000*%
%ADD13C,4.400000*%
%ADD14R,7.340000X6.350000*%
%ADD15C,0.800000*%
%ADD16C,0.250000*%
%ADD17C,0.300000*%
G04 APERTURE END LIST*
D10*
X220800000Y-144175000D03*
X220800000Y-149825000D03*
X220800000Y-109175000D03*
X220800000Y-114825000D03*
X220800000Y-132175000D03*
X220800000Y-137825000D03*
X220800000Y-97175000D03*
X220800000Y-102825000D03*
G04 #@! TA.AperFunction,SMDPad,CuDef*
D11*
G36*
X217061958Y-144980710D02*
G01*
X217076276Y-144982834D01*
X217090317Y-144986351D01*
X217103946Y-144991228D01*
X217117031Y-144997417D01*
X217129447Y-145004858D01*
X217141073Y-145013481D01*
X217151798Y-145023202D01*
X217161519Y-145033927D01*
X217170142Y-145045553D01*
X217177583Y-145057969D01*
X217183772Y-145071054D01*
X217188649Y-145084683D01*
X217192166Y-145098724D01*
X217194290Y-145113042D01*
X217195000Y-145127500D01*
X217195000Y-145472500D01*
X217194290Y-145486958D01*
X217192166Y-145501276D01*
X217188649Y-145515317D01*
X217183772Y-145528946D01*
X217177583Y-145542031D01*
X217170142Y-145554447D01*
X217161519Y-145566073D01*
X217151798Y-145576798D01*
X217141073Y-145586519D01*
X217129447Y-145595142D01*
X217117031Y-145602583D01*
X217103946Y-145608772D01*
X217090317Y-145613649D01*
X217076276Y-145617166D01*
X217061958Y-145619290D01*
X217047500Y-145620000D01*
X216752500Y-145620000D01*
X216738042Y-145619290D01*
X216723724Y-145617166D01*
X216709683Y-145613649D01*
X216696054Y-145608772D01*
X216682969Y-145602583D01*
X216670553Y-145595142D01*
X216658927Y-145586519D01*
X216648202Y-145576798D01*
X216638481Y-145566073D01*
X216629858Y-145554447D01*
X216622417Y-145542031D01*
X216616228Y-145528946D01*
X216611351Y-145515317D01*
X216607834Y-145501276D01*
X216605710Y-145486958D01*
X216605000Y-145472500D01*
X216605000Y-145127500D01*
X216605710Y-145113042D01*
X216607834Y-145098724D01*
X216611351Y-145084683D01*
X216616228Y-145071054D01*
X216622417Y-145057969D01*
X216629858Y-145045553D01*
X216638481Y-145033927D01*
X216648202Y-145023202D01*
X216658927Y-145013481D01*
X216670553Y-145004858D01*
X216682969Y-144997417D01*
X216696054Y-144991228D01*
X216709683Y-144986351D01*
X216723724Y-144982834D01*
X216738042Y-144980710D01*
X216752500Y-144980000D01*
X217047500Y-144980000D01*
X217061958Y-144980710D01*
G37*
G04 #@! TD.AperFunction*
G04 #@! TA.AperFunction,SMDPad,CuDef*
G36*
X216091958Y-144980710D02*
G01*
X216106276Y-144982834D01*
X216120317Y-144986351D01*
X216133946Y-144991228D01*
X216147031Y-144997417D01*
X216159447Y-145004858D01*
X216171073Y-145013481D01*
X216181798Y-145023202D01*
X216191519Y-145033927D01*
X216200142Y-145045553D01*
X216207583Y-145057969D01*
X216213772Y-145071054D01*
X216218649Y-145084683D01*
X216222166Y-145098724D01*
X216224290Y-145113042D01*
X216225000Y-145127500D01*
X216225000Y-145472500D01*
X216224290Y-145486958D01*
X216222166Y-145501276D01*
X216218649Y-145515317D01*
X216213772Y-145528946D01*
X216207583Y-145542031D01*
X216200142Y-145554447D01*
X216191519Y-145566073D01*
X216181798Y-145576798D01*
X216171073Y-145586519D01*
X216159447Y-145595142D01*
X216147031Y-145602583D01*
X216133946Y-145608772D01*
X216120317Y-145613649D01*
X216106276Y-145617166D01*
X216091958Y-145619290D01*
X216077500Y-145620000D01*
X215782500Y-145620000D01*
X215768042Y-145619290D01*
X215753724Y-145617166D01*
X215739683Y-145613649D01*
X215726054Y-145608772D01*
X215712969Y-145602583D01*
X215700553Y-145595142D01*
X215688927Y-145586519D01*
X215678202Y-145576798D01*
X215668481Y-145566073D01*
X215659858Y-145554447D01*
X215652417Y-145542031D01*
X215646228Y-145528946D01*
X215641351Y-145515317D01*
X215637834Y-145501276D01*
X215635710Y-145486958D01*
X215635000Y-145472500D01*
X215635000Y-145127500D01*
X215635710Y-145113042D01*
X215637834Y-145098724D01*
X215641351Y-145084683D01*
X215646228Y-145071054D01*
X215652417Y-145057969D01*
X215659858Y-145045553D01*
X215668481Y-145033927D01*
X215678202Y-145023202D01*
X215688927Y-145013481D01*
X215700553Y-145004858D01*
X215712969Y-144997417D01*
X215726054Y-144991228D01*
X215739683Y-144986351D01*
X215753724Y-144982834D01*
X215768042Y-144980710D01*
X215782500Y-144980000D01*
X216077500Y-144980000D01*
X216091958Y-144980710D01*
G37*
G04 #@! TD.AperFunction*
G04 #@! TA.AperFunction,SMDPad,CuDef*
G36*
X217061958Y-109980710D02*
G01*
X217076276Y-109982834D01*
X217090317Y-109986351D01*
X217103946Y-109991228D01*
X217117031Y-109997417D01*
X217129447Y-110004858D01*
X217141073Y-110013481D01*
X217151798Y-110023202D01*
X217161519Y-110033927D01*
X217170142Y-110045553D01*
X217177583Y-110057969D01*
X217183772Y-110071054D01*
X217188649Y-110084683D01*
X217192166Y-110098724D01*
X217194290Y-110113042D01*
X217195000Y-110127500D01*
X217195000Y-110472500D01*
X217194290Y-110486958D01*
X217192166Y-110501276D01*
X217188649Y-110515317D01*
X217183772Y-110528946D01*
X217177583Y-110542031D01*
X217170142Y-110554447D01*
X217161519Y-110566073D01*
X217151798Y-110576798D01*
X217141073Y-110586519D01*
X217129447Y-110595142D01*
X217117031Y-110602583D01*
X217103946Y-110608772D01*
X217090317Y-110613649D01*
X217076276Y-110617166D01*
X217061958Y-110619290D01*
X217047500Y-110620000D01*
X216752500Y-110620000D01*
X216738042Y-110619290D01*
X216723724Y-110617166D01*
X216709683Y-110613649D01*
X216696054Y-110608772D01*
X216682969Y-110602583D01*
X216670553Y-110595142D01*
X216658927Y-110586519D01*
X216648202Y-110576798D01*
X216638481Y-110566073D01*
X216629858Y-110554447D01*
X216622417Y-110542031D01*
X216616228Y-110528946D01*
X216611351Y-110515317D01*
X216607834Y-110501276D01*
X216605710Y-110486958D01*
X216605000Y-110472500D01*
X216605000Y-110127500D01*
X216605710Y-110113042D01*
X216607834Y-110098724D01*
X216611351Y-110084683D01*
X216616228Y-110071054D01*
X216622417Y-110057969D01*
X216629858Y-110045553D01*
X216638481Y-110033927D01*
X216648202Y-110023202D01*
X216658927Y-110013481D01*
X216670553Y-110004858D01*
X216682969Y-109997417D01*
X216696054Y-109991228D01*
X216709683Y-109986351D01*
X216723724Y-109982834D01*
X216738042Y-109980710D01*
X216752500Y-109980000D01*
X217047500Y-109980000D01*
X217061958Y-109980710D01*
G37*
G04 #@! TD.AperFunction*
G04 #@! TA.AperFunction,SMDPad,CuDef*
G36*
X216091958Y-109980710D02*
G01*
X216106276Y-109982834D01*
X216120317Y-109986351D01*
X216133946Y-109991228D01*
X216147031Y-109997417D01*
X216159447Y-110004858D01*
X216171073Y-110013481D01*
X216181798Y-110023202D01*
X216191519Y-110033927D01*
X216200142Y-110045553D01*
X216207583Y-110057969D01*
X216213772Y-110071054D01*
X216218649Y-110084683D01*
X216222166Y-110098724D01*
X216224290Y-110113042D01*
X216225000Y-110127500D01*
X216225000Y-110472500D01*
X216224290Y-110486958D01*
X216222166Y-110501276D01*
X216218649Y-110515317D01*
X216213772Y-110528946D01*
X216207583Y-110542031D01*
X216200142Y-110554447D01*
X216191519Y-110566073D01*
X216181798Y-110576798D01*
X216171073Y-110586519D01*
X216159447Y-110595142D01*
X216147031Y-110602583D01*
X216133946Y-110608772D01*
X216120317Y-110613649D01*
X216106276Y-110617166D01*
X216091958Y-110619290D01*
X216077500Y-110620000D01*
X215782500Y-110620000D01*
X215768042Y-110619290D01*
X215753724Y-110617166D01*
X215739683Y-110613649D01*
X215726054Y-110608772D01*
X215712969Y-110602583D01*
X215700553Y-110595142D01*
X215688927Y-110586519D01*
X215678202Y-110576798D01*
X215668481Y-110566073D01*
X215659858Y-110554447D01*
X215652417Y-110542031D01*
X215646228Y-110528946D01*
X215641351Y-110515317D01*
X215637834Y-110501276D01*
X215635710Y-110486958D01*
X215635000Y-110472500D01*
X215635000Y-110127500D01*
X215635710Y-110113042D01*
X215637834Y-110098724D01*
X215641351Y-110084683D01*
X215646228Y-110071054D01*
X215652417Y-110057969D01*
X215659858Y-110045553D01*
X215668481Y-110033927D01*
X215678202Y-110023202D01*
X215688927Y-110013481D01*
X215700553Y-110004858D01*
X215712969Y-109997417D01*
X215726054Y-109991228D01*
X215739683Y-109986351D01*
X215753724Y-109982834D01*
X215768042Y-109980710D01*
X215782500Y-109980000D01*
X216077500Y-109980000D01*
X216091958Y-109980710D01*
G37*
G04 #@! TD.AperFunction*
D12*
X222166726Y-152833274D03*
X221000000Y-152350000D03*
X219833274Y-152833274D03*
X219350000Y-154000000D03*
X219833274Y-155166726D03*
X221000000Y-155650000D03*
X222166726Y-155166726D03*
X222650000Y-154000000D03*
D13*
X221000000Y-154000000D03*
D12*
X222166726Y-117833274D03*
X221000000Y-117350000D03*
X219833274Y-117833274D03*
X219350000Y-119000000D03*
X219833274Y-120166726D03*
X221000000Y-120650000D03*
X222166726Y-120166726D03*
X222650000Y-119000000D03*
D13*
X221000000Y-119000000D03*
D14*
X135070000Y-140900000D03*
X213730000Y-140900000D03*
X135070000Y-105900000D03*
X213730000Y-105900000D03*
D12*
X222166726Y-126833274D03*
X221000000Y-126350000D03*
X219833274Y-126833274D03*
X219350000Y-128000000D03*
X219833274Y-129166726D03*
X221000000Y-129650000D03*
X222166726Y-129166726D03*
X222650000Y-128000000D03*
D13*
X221000000Y-128000000D03*
D12*
X222166726Y-91833274D03*
X221000000Y-91350000D03*
X219833274Y-91833274D03*
X219350000Y-93000000D03*
X219833274Y-94166726D03*
X221000000Y-94650000D03*
X222166726Y-94166726D03*
X222650000Y-93000000D03*
D13*
X221000000Y-93000000D03*
X133400000Y-128000000D03*
D12*
X135050000Y-128000000D03*
X134566726Y-129166726D03*
X133400000Y-129650000D03*
X132233274Y-129166726D03*
X131750000Y-128000000D03*
X132233274Y-126833274D03*
X133400000Y-126350000D03*
X134566726Y-126833274D03*
D13*
X133400000Y-93000000D03*
D12*
X135050000Y-93000000D03*
X134566726Y-94166726D03*
X133400000Y-94650000D03*
X132233274Y-94166726D03*
X131750000Y-93000000D03*
X132233274Y-91833274D03*
X133400000Y-91350000D03*
X134566726Y-91833274D03*
X134566726Y-152833274D03*
X133400000Y-152350000D03*
X132233274Y-152833274D03*
X131750000Y-154000000D03*
X132233274Y-155166726D03*
X133400000Y-155650000D03*
X134566726Y-155166726D03*
X135050000Y-154000000D03*
D13*
X133400000Y-154000000D03*
D12*
X134566726Y-117833274D03*
X133400000Y-117350000D03*
X132233274Y-117833274D03*
X131750000Y-119000000D03*
X132233274Y-120166726D03*
X133400000Y-120650000D03*
X134566726Y-120166726D03*
X135050000Y-119000000D03*
D13*
X133400000Y-119000000D03*
D14*
X213730000Y-70900000D03*
X135070000Y-70900000D03*
D13*
X221000000Y-84000000D03*
D12*
X222650000Y-84000000D03*
X222166726Y-85166726D03*
X221000000Y-85650000D03*
X219833274Y-85166726D03*
X219350000Y-84000000D03*
X219833274Y-82833274D03*
X221000000Y-82350000D03*
X222166726Y-82833274D03*
D13*
X221000000Y-58000000D03*
D12*
X222650000Y-58000000D03*
X222166726Y-59166726D03*
X221000000Y-59650000D03*
X219833274Y-59166726D03*
X219350000Y-58000000D03*
X219833274Y-56833274D03*
X221000000Y-56350000D03*
X222166726Y-56833274D03*
D13*
X133400000Y-84000000D03*
D12*
X135050000Y-84000000D03*
X134566726Y-85166726D03*
X133400000Y-85650000D03*
X132233274Y-85166726D03*
X131750000Y-84000000D03*
X132233274Y-82833274D03*
X133400000Y-82350000D03*
X134566726Y-82833274D03*
X134566726Y-56833274D03*
X133400000Y-56350000D03*
X132233274Y-56833274D03*
X131750000Y-58000000D03*
X132233274Y-59166726D03*
X133400000Y-59650000D03*
X134566726Y-59166726D03*
X135050000Y-58000000D03*
D13*
X133400000Y-58000000D03*
G04 #@! TA.AperFunction,SMDPad,CuDef*
D11*
G36*
X216091958Y-74980710D02*
G01*
X216106276Y-74982834D01*
X216120317Y-74986351D01*
X216133946Y-74991228D01*
X216147031Y-74997417D01*
X216159447Y-75004858D01*
X216171073Y-75013481D01*
X216181798Y-75023202D01*
X216191519Y-75033927D01*
X216200142Y-75045553D01*
X216207583Y-75057969D01*
X216213772Y-75071054D01*
X216218649Y-75084683D01*
X216222166Y-75098724D01*
X216224290Y-75113042D01*
X216225000Y-75127500D01*
X216225000Y-75472500D01*
X216224290Y-75486958D01*
X216222166Y-75501276D01*
X216218649Y-75515317D01*
X216213772Y-75528946D01*
X216207583Y-75542031D01*
X216200142Y-75554447D01*
X216191519Y-75566073D01*
X216181798Y-75576798D01*
X216171073Y-75586519D01*
X216159447Y-75595142D01*
X216147031Y-75602583D01*
X216133946Y-75608772D01*
X216120317Y-75613649D01*
X216106276Y-75617166D01*
X216091958Y-75619290D01*
X216077500Y-75620000D01*
X215782500Y-75620000D01*
X215768042Y-75619290D01*
X215753724Y-75617166D01*
X215739683Y-75613649D01*
X215726054Y-75608772D01*
X215712969Y-75602583D01*
X215700553Y-75595142D01*
X215688927Y-75586519D01*
X215678202Y-75576798D01*
X215668481Y-75566073D01*
X215659858Y-75554447D01*
X215652417Y-75542031D01*
X215646228Y-75528946D01*
X215641351Y-75515317D01*
X215637834Y-75501276D01*
X215635710Y-75486958D01*
X215635000Y-75472500D01*
X215635000Y-75127500D01*
X215635710Y-75113042D01*
X215637834Y-75098724D01*
X215641351Y-75084683D01*
X215646228Y-75071054D01*
X215652417Y-75057969D01*
X215659858Y-75045553D01*
X215668481Y-75033927D01*
X215678202Y-75023202D01*
X215688927Y-75013481D01*
X215700553Y-75004858D01*
X215712969Y-74997417D01*
X215726054Y-74991228D01*
X215739683Y-74986351D01*
X215753724Y-74982834D01*
X215768042Y-74980710D01*
X215782500Y-74980000D01*
X216077500Y-74980000D01*
X216091958Y-74980710D01*
G37*
G04 #@! TD.AperFunction*
G04 #@! TA.AperFunction,SMDPad,CuDef*
G36*
X217061958Y-74980710D02*
G01*
X217076276Y-74982834D01*
X217090317Y-74986351D01*
X217103946Y-74991228D01*
X217117031Y-74997417D01*
X217129447Y-75004858D01*
X217141073Y-75013481D01*
X217151798Y-75023202D01*
X217161519Y-75033927D01*
X217170142Y-75045553D01*
X217177583Y-75057969D01*
X217183772Y-75071054D01*
X217188649Y-75084683D01*
X217192166Y-75098724D01*
X217194290Y-75113042D01*
X217195000Y-75127500D01*
X217195000Y-75472500D01*
X217194290Y-75486958D01*
X217192166Y-75501276D01*
X217188649Y-75515317D01*
X217183772Y-75528946D01*
X217177583Y-75542031D01*
X217170142Y-75554447D01*
X217161519Y-75566073D01*
X217151798Y-75576798D01*
X217141073Y-75586519D01*
X217129447Y-75595142D01*
X217117031Y-75602583D01*
X217103946Y-75608772D01*
X217090317Y-75613649D01*
X217076276Y-75617166D01*
X217061958Y-75619290D01*
X217047500Y-75620000D01*
X216752500Y-75620000D01*
X216738042Y-75619290D01*
X216723724Y-75617166D01*
X216709683Y-75613649D01*
X216696054Y-75608772D01*
X216682969Y-75602583D01*
X216670553Y-75595142D01*
X216658927Y-75586519D01*
X216648202Y-75576798D01*
X216638481Y-75566073D01*
X216629858Y-75554447D01*
X216622417Y-75542031D01*
X216616228Y-75528946D01*
X216611351Y-75515317D01*
X216607834Y-75501276D01*
X216605710Y-75486958D01*
X216605000Y-75472500D01*
X216605000Y-75127500D01*
X216605710Y-75113042D01*
X216607834Y-75098724D01*
X216611351Y-75084683D01*
X216616228Y-75071054D01*
X216622417Y-75057969D01*
X216629858Y-75045553D01*
X216638481Y-75033927D01*
X216648202Y-75023202D01*
X216658927Y-75013481D01*
X216670553Y-75004858D01*
X216682969Y-74997417D01*
X216696054Y-74991228D01*
X216709683Y-74986351D01*
X216723724Y-74982834D01*
X216738042Y-74980710D01*
X216752500Y-74980000D01*
X217047500Y-74980000D01*
X217061958Y-74980710D01*
G37*
G04 #@! TD.AperFunction*
D10*
X220800000Y-67825000D03*
X220800000Y-62175000D03*
X220800000Y-79825000D03*
X220800000Y-74175000D03*
D15*
X218000000Y-72000000D03*
X209000000Y-72000000D03*
X207000000Y-72000000D03*
X204000000Y-72000000D03*
X202000000Y-72000000D03*
X200000000Y-72000000D03*
X198000000Y-72000000D03*
X196000000Y-72000000D03*
X192120010Y-71879990D03*
X182600000Y-73400000D03*
X182600000Y-75400000D03*
X182600000Y-77400000D03*
X182600000Y-79400000D03*
X182600000Y-81400000D03*
X182979999Y-84020001D03*
X195979999Y-84020001D03*
X197979999Y-84020001D03*
X199979999Y-84020001D03*
X201979999Y-84020001D03*
X203979999Y-84020001D03*
X205979999Y-84020001D03*
X207979999Y-84020001D03*
X209979999Y-84020001D03*
X211979999Y-84020001D03*
X213979999Y-84020001D03*
X215979999Y-84020001D03*
X217850000Y-83850000D03*
X211000000Y-72000000D03*
X213000000Y-72000000D03*
X216000000Y-72000000D03*
X218000000Y-70000000D03*
X216000000Y-70000000D03*
X213000000Y-70000000D03*
X211000000Y-70000000D03*
X209000000Y-70000000D03*
X207000000Y-70000000D03*
X204000000Y-70000000D03*
X202000000Y-70000000D03*
X200000000Y-70000000D03*
X198000000Y-70000000D03*
X196000000Y-70000000D03*
X192029999Y-69970001D03*
X190479999Y-67520001D03*
X190479999Y-65520001D03*
X190479999Y-59520001D03*
X198879999Y-58120001D03*
X200879999Y-58120001D03*
X202879999Y-58120001D03*
X204879999Y-58120001D03*
X206879999Y-58120001D03*
X208879999Y-58120001D03*
X210879999Y-58120001D03*
X212879999Y-58120001D03*
X214879999Y-58120001D03*
X216879999Y-58120001D03*
X218000000Y-59000000D03*
X218000000Y-60800000D03*
X217900000Y-81100000D03*
X221400000Y-72000000D03*
X221500000Y-70000000D03*
X207300000Y-62150000D03*
X208275000Y-66075000D03*
X203150000Y-66200000D03*
X203200000Y-68400000D03*
X210600000Y-64700000D03*
X211500000Y-64200000D03*
X213800000Y-62700000D03*
X217800000Y-62600000D03*
X219900000Y-66500000D03*
X221900000Y-75500000D03*
X221800000Y-78400000D03*
X220000000Y-78400000D03*
X220300000Y-75600000D03*
X214700000Y-75500000D03*
X211700000Y-79800000D03*
X214000000Y-79700000D03*
X210300000Y-80800000D03*
X206900000Y-81900000D03*
X210700000Y-75400000D03*
X207600000Y-75400000D03*
X206400000Y-75000000D03*
X202900000Y-74700000D03*
X200600000Y-74000000D03*
X200600000Y-74900000D03*
X197100000Y-73600000D03*
X193400000Y-59500000D03*
X192000000Y-68700000D03*
X205000000Y-82700000D03*
X199700000Y-77950000D03*
X197250000Y-80950000D03*
X197118552Y-77176810D03*
X188450000Y-81800000D03*
X185650000Y-79250000D03*
X187350000Y-79200000D03*
X178150000Y-66200000D03*
X177500000Y-67450000D03*
X168750000Y-62200000D03*
X169300000Y-67300000D03*
X165050000Y-61150000D03*
X170100000Y-61450000D03*
X177350000Y-73400000D03*
X165900000Y-74100000D03*
X160350000Y-68300000D03*
X159800000Y-69650000D03*
X159700000Y-71250000D03*
X159900000Y-72750000D03*
X161300000Y-64550000D03*
X162650000Y-63000000D03*
X164900000Y-62950000D03*
X167000000Y-64650000D03*
X173950000Y-75800000D03*
X142850000Y-64650000D03*
X138550000Y-64400000D03*
X143600000Y-66900000D03*
X147000000Y-71100000D03*
X166900000Y-83450000D03*
X175550000Y-80500000D03*
X158900000Y-62300000D03*
X157250000Y-62350000D03*
X152050000Y-58450000D03*
X151850000Y-63750000D03*
X153150000Y-63700000D03*
X145600000Y-81455000D03*
X149200000Y-77850000D03*
X151200000Y-76850000D03*
X157350000Y-81350000D03*
X158600000Y-82600000D03*
X140600000Y-79500000D03*
X145000000Y-74050000D03*
X221450000Y-63450000D03*
X221950000Y-66450000D03*
X137900000Y-66450000D03*
X191561671Y-81977677D03*
X166000000Y-71000000D03*
X192350000Y-64550000D03*
X215100000Y-66500000D03*
X156550000Y-68700000D03*
X192700000Y-73300000D03*
X197600000Y-68400000D03*
X178440118Y-71606003D03*
X151850000Y-98750000D03*
X151850000Y-133750000D03*
X153150000Y-98700000D03*
X153150000Y-133700000D03*
X158600000Y-117600000D03*
X158600000Y-152600000D03*
X149200000Y-112850000D03*
X149200000Y-147850000D03*
X145000000Y-109050000D03*
X145000000Y-144050000D03*
X137900000Y-101450000D03*
X137900000Y-136450000D03*
X166000000Y-106000000D03*
X166000000Y-141000000D03*
X192700000Y-108300000D03*
X192700000Y-143300000D03*
X192350000Y-99550000D03*
X192350000Y-134550000D03*
X145600000Y-116455000D03*
X145600000Y-151455000D03*
X157350000Y-116350000D03*
X157350000Y-151350000D03*
X221950000Y-101450000D03*
X221950000Y-136450000D03*
X151200000Y-111850000D03*
X151200000Y-146850000D03*
X191561671Y-116977677D03*
X191561671Y-151977677D03*
X140600000Y-114500000D03*
X140600000Y-149500000D03*
X221450000Y-98450000D03*
X221450000Y-133450000D03*
X156550000Y-103700000D03*
X156550000Y-138700000D03*
X215100000Y-101500000D03*
X215100000Y-136500000D03*
X197600000Y-103400000D03*
X197600000Y-138400000D03*
X178440118Y-106606003D03*
X178440118Y-141606003D03*
X175550000Y-115500000D03*
X175550000Y-150500000D03*
X158900000Y-97300000D03*
X158900000Y-132300000D03*
X157250000Y-97350000D03*
X157250000Y-132350000D03*
X152050000Y-93450000D03*
X152050000Y-128450000D03*
X204000000Y-107000000D03*
X204000000Y-142000000D03*
X209000000Y-107000000D03*
X209000000Y-142000000D03*
X196000000Y-107000000D03*
X196000000Y-142000000D03*
X182600000Y-108400000D03*
X182600000Y-143400000D03*
X218000000Y-107000000D03*
X218000000Y-142000000D03*
X207000000Y-107000000D03*
X207000000Y-142000000D03*
X200000000Y-107000000D03*
X200000000Y-142000000D03*
X192120010Y-106879990D03*
X192120010Y-141879990D03*
X198000000Y-107000000D03*
X198000000Y-142000000D03*
X202000000Y-107000000D03*
X202000000Y-142000000D03*
X182600000Y-110400000D03*
X182600000Y-145400000D03*
X182600000Y-112400000D03*
X182600000Y-147400000D03*
X182600000Y-114400000D03*
X182600000Y-149400000D03*
X182600000Y-116400000D03*
X182600000Y-151400000D03*
X195979999Y-119020001D03*
X195979999Y-154020001D03*
X197979999Y-119020001D03*
X197979999Y-154020001D03*
X199979999Y-119020001D03*
X199979999Y-154020001D03*
X182979999Y-119020001D03*
X182979999Y-154020001D03*
X203979999Y-119020001D03*
X203979999Y-154020001D03*
X216000000Y-107000000D03*
X216000000Y-142000000D03*
X207979999Y-119020001D03*
X207979999Y-154020001D03*
X213000000Y-107000000D03*
X213000000Y-142000000D03*
X190479999Y-100520001D03*
X190479999Y-135520001D03*
X211000000Y-105000000D03*
X211000000Y-140000000D03*
X218000000Y-105000000D03*
X218000000Y-140000000D03*
X200000000Y-105000000D03*
X200000000Y-140000000D03*
X201979999Y-119020001D03*
X201979999Y-154020001D03*
X209000000Y-105000000D03*
X209000000Y-140000000D03*
X200879999Y-93120001D03*
X200879999Y-128120001D03*
X209979999Y-119020001D03*
X209979999Y-154020001D03*
X215979999Y-119020001D03*
X215979999Y-154020001D03*
X196000000Y-105000000D03*
X196000000Y-140000000D03*
X190479999Y-102520001D03*
X190479999Y-137520001D03*
X211979999Y-119020001D03*
X211979999Y-154020001D03*
X205979999Y-119020001D03*
X205979999Y-154020001D03*
X213979999Y-119020001D03*
X213979999Y-154020001D03*
X216000000Y-105000000D03*
X216000000Y-140000000D03*
X211000000Y-107000000D03*
X211000000Y-142000000D03*
X192029999Y-104970001D03*
X192029999Y-139970001D03*
X190479999Y-94520001D03*
X190479999Y-129520001D03*
X207000000Y-105000000D03*
X207000000Y-140000000D03*
X204000000Y-105000000D03*
X204000000Y-140000000D03*
X202000000Y-105000000D03*
X202000000Y-140000000D03*
X213000000Y-105000000D03*
X213000000Y-140000000D03*
X198000000Y-105000000D03*
X198000000Y-140000000D03*
X198879999Y-93120001D03*
X198879999Y-128120001D03*
X217850000Y-118850000D03*
X217850000Y-153850000D03*
X202879999Y-93120001D03*
X202879999Y-128120001D03*
X204879999Y-93120001D03*
X204879999Y-128120001D03*
X211500000Y-99200000D03*
X211500000Y-134200000D03*
X206879999Y-93120001D03*
X206879999Y-128120001D03*
X219900000Y-101500000D03*
X219900000Y-136500000D03*
X218000000Y-95800000D03*
X218000000Y-130800000D03*
X212879999Y-93120001D03*
X212879999Y-128120001D03*
X221500000Y-105000000D03*
X221500000Y-140000000D03*
X220000000Y-113400000D03*
X220000000Y-148400000D03*
X221800000Y-113400000D03*
X221800000Y-148400000D03*
X220300000Y-110600000D03*
X220300000Y-145600000D03*
X210300000Y-115800000D03*
X210300000Y-150800000D03*
X214700000Y-110500000D03*
X214700000Y-145500000D03*
X221900000Y-110500000D03*
X221900000Y-145500000D03*
X210700000Y-110400000D03*
X210700000Y-145400000D03*
X207600000Y-110400000D03*
X207600000Y-145400000D03*
X214000000Y-114700000D03*
X214000000Y-149700000D03*
X206400000Y-110000000D03*
X206400000Y-145000000D03*
X217900000Y-116100000D03*
X217900000Y-151100000D03*
X216879999Y-93120001D03*
X216879999Y-128120001D03*
X207300000Y-97150000D03*
X207300000Y-132150000D03*
X208879999Y-93120001D03*
X208879999Y-128120001D03*
X218000000Y-94000000D03*
X218000000Y-129000000D03*
X203200000Y-103400000D03*
X203200000Y-138400000D03*
X210879999Y-93120001D03*
X210879999Y-128120001D03*
X213800000Y-97700000D03*
X213800000Y-132700000D03*
X217800000Y-97600000D03*
X217800000Y-132600000D03*
X203150000Y-101200000D03*
X203150000Y-136200000D03*
X210600000Y-99700000D03*
X210600000Y-134700000D03*
X211700000Y-114800000D03*
X211700000Y-149800000D03*
X206900000Y-116900000D03*
X206900000Y-151900000D03*
X214879999Y-93120001D03*
X214879999Y-128120001D03*
X221400000Y-107000000D03*
X221400000Y-142000000D03*
X208275000Y-101075000D03*
X208275000Y-136075000D03*
X142850000Y-99650000D03*
X142850000Y-134650000D03*
X165050000Y-96150000D03*
X165050000Y-131150000D03*
X165900000Y-109100000D03*
X165900000Y-144100000D03*
X138550000Y-99400000D03*
X138550000Y-134400000D03*
X188450000Y-116800000D03*
X188450000Y-151800000D03*
X197100000Y-108600000D03*
X197100000Y-143600000D03*
X200600000Y-109000000D03*
X200600000Y-144000000D03*
X205000000Y-117700000D03*
X205000000Y-152700000D03*
X168750000Y-97200000D03*
X168750000Y-132200000D03*
X177350000Y-108400000D03*
X177350000Y-143400000D03*
X159800000Y-104650000D03*
X159800000Y-139650000D03*
X185650000Y-114250000D03*
X185650000Y-149250000D03*
X197118552Y-112176810D03*
X197118552Y-147176810D03*
X169300000Y-102300000D03*
X169300000Y-137300000D03*
X160350000Y-103300000D03*
X160350000Y-138300000D03*
X164900000Y-97950000D03*
X164900000Y-132950000D03*
X167000000Y-99650000D03*
X167000000Y-134650000D03*
X200600000Y-109900000D03*
X200600000Y-144900000D03*
X202900000Y-109700000D03*
X202900000Y-144700000D03*
X199700000Y-112950000D03*
X199700000Y-147950000D03*
X170100000Y-96450000D03*
X170100000Y-131450000D03*
X192000000Y-103700000D03*
X192000000Y-138700000D03*
X197250000Y-115950000D03*
X197250000Y-150950000D03*
X187350000Y-114200000D03*
X187350000Y-149200000D03*
X178150000Y-101200000D03*
X178150000Y-136200000D03*
X159700000Y-106250000D03*
X159700000Y-141250000D03*
X177500000Y-102450000D03*
X177500000Y-137450000D03*
X159900000Y-107750000D03*
X159900000Y-142750000D03*
X161300000Y-99550000D03*
X161300000Y-134550000D03*
X193400000Y-94500000D03*
X193400000Y-129500000D03*
X162650000Y-98000000D03*
X162650000Y-133000000D03*
X173950000Y-110800000D03*
X173950000Y-145800000D03*
X166900000Y-118450000D03*
X166900000Y-153450000D03*
X143600000Y-101900000D03*
X143600000Y-136900000D03*
X147000000Y-106100000D03*
X147000000Y-141100000D03*
X168900000Y-70250000D03*
X161100000Y-75000000D03*
X161100000Y-110000000D03*
X161100000Y-145000000D03*
X168900000Y-105250000D03*
X168900000Y-140250000D03*
X208450000Y-74950000D03*
X195950000Y-74650000D03*
X175550000Y-65300000D03*
X173450000Y-62400000D03*
X167500000Y-63200000D03*
X174000000Y-78650000D03*
X159050000Y-58750000D03*
X154800000Y-58700000D03*
X150050000Y-83400000D03*
X164850000Y-72850000D03*
X191750000Y-65600000D03*
X175250000Y-75550000D03*
X168250000Y-66150000D03*
X166150000Y-67000000D03*
X190800000Y-82750000D03*
X208450000Y-109950000D03*
X208450000Y-144950000D03*
X195950000Y-109650000D03*
X195950000Y-144650000D03*
X175550000Y-100300000D03*
X175550000Y-135300000D03*
X167500000Y-98200000D03*
X167500000Y-133200000D03*
X175250000Y-110550000D03*
X175250000Y-145550000D03*
X164850000Y-107850000D03*
X164850000Y-142850000D03*
X154800000Y-93700000D03*
X154800000Y-128700000D03*
X190800000Y-117750000D03*
X190800000Y-152750000D03*
X174000000Y-113650000D03*
X174000000Y-148650000D03*
X191750000Y-100600000D03*
X191750000Y-135600000D03*
X166150000Y-102000000D03*
X166150000Y-137000000D03*
X159050000Y-93750000D03*
X159050000Y-128750000D03*
X173450000Y-97400000D03*
X173450000Y-132400000D03*
X168250000Y-101150000D03*
X168250000Y-136150000D03*
X150050000Y-118400000D03*
X150050000Y-153400000D03*
X143700000Y-80250000D03*
X140450000Y-73250000D03*
X143950000Y-64250000D03*
X146300000Y-66900000D03*
X143950000Y-99250000D03*
X143950000Y-134250000D03*
X146300000Y-101900000D03*
X146300000Y-136900000D03*
X143700000Y-115250000D03*
X143700000Y-150250000D03*
X140450000Y-108250000D03*
X140450000Y-143250000D03*
X193500000Y-60700000D03*
X179650000Y-70250000D03*
X179650000Y-105250000D03*
X179650000Y-140250000D03*
X193500000Y-95700000D03*
X193500000Y-130700000D03*
X193500000Y-61800000D03*
X178600000Y-70700000D03*
X178600000Y-105700000D03*
X178600000Y-140700000D03*
X193500000Y-96800000D03*
X193500000Y-131800000D03*
X177750000Y-61100000D03*
X177750000Y-96100000D03*
X177750000Y-131100000D03*
X173800000Y-61000000D03*
X178500000Y-67900000D03*
X177450000Y-63750000D03*
X178500000Y-102900000D03*
X178500000Y-137900000D03*
X177450000Y-98750000D03*
X177450000Y-133750000D03*
X173800000Y-96000000D03*
X173800000Y-131000000D03*
X202800000Y-61100000D03*
X172550000Y-67450000D03*
X153150000Y-71350000D03*
X153150000Y-106350000D03*
X153150000Y-141350000D03*
X202800000Y-96100000D03*
X202800000Y-131100000D03*
X172550000Y-102450000D03*
X172550000Y-137450000D03*
X202000000Y-61900000D03*
X171450000Y-67450000D03*
X153650000Y-72200000D03*
X153650000Y-107200000D03*
X153650000Y-142200000D03*
X202000000Y-96900000D03*
X202000000Y-131900000D03*
X171450000Y-102450000D03*
X171450000Y-137450000D03*
X170400000Y-67300000D03*
X170400000Y-102300000D03*
X170400000Y-137300000D03*
X177650000Y-70950000D03*
X167050000Y-79600000D03*
X167050000Y-114600000D03*
X167050000Y-149600000D03*
X177650000Y-105950000D03*
X177650000Y-140950000D03*
X193600000Y-62900000D03*
X179500000Y-69300000D03*
X186250000Y-67600000D03*
X193600000Y-97900000D03*
X193600000Y-132900000D03*
X179500000Y-104300000D03*
X179500000Y-139300000D03*
X186250000Y-102600000D03*
X186250000Y-137600000D03*
X193700000Y-64000000D03*
X179450000Y-68300000D03*
X187431084Y-67331084D03*
X193700000Y-99000000D03*
X193700000Y-134000000D03*
X187431084Y-102331084D03*
X187431084Y-137331084D03*
X179450000Y-103300000D03*
X179450000Y-138300000D03*
X190181388Y-73945000D03*
X178451567Y-72525934D03*
X178451567Y-107525934D03*
X178451567Y-142525934D03*
X190181388Y-108945000D03*
X190181388Y-143945000D03*
X170750000Y-83550000D03*
X194150000Y-82450000D03*
X173200000Y-85600000D03*
X171300000Y-77100000D03*
X171300000Y-112100000D03*
X171300000Y-147100000D03*
X170750000Y-118550000D03*
X170750000Y-153550000D03*
X194150000Y-117450000D03*
X194150000Y-152450000D03*
X173200000Y-120600000D03*
X173200000Y-155600000D03*
X192978973Y-81713182D03*
X170595000Y-75816168D03*
X167050000Y-81000000D03*
X167050000Y-116000000D03*
X167050000Y-151000000D03*
X192978973Y-116713182D03*
X192978973Y-151713182D03*
X170595000Y-110816168D03*
X170595000Y-145816168D03*
X169900000Y-76500000D03*
X170750000Y-82250000D03*
X192354990Y-82443581D03*
X192354990Y-117443581D03*
X192354990Y-152443581D03*
X169900000Y-111500000D03*
X169900000Y-146500000D03*
X170750000Y-117250000D03*
X170750000Y-152250000D03*
X169050000Y-75950000D03*
X195150000Y-82350000D03*
X168100000Y-84150000D03*
X195150000Y-117350000D03*
X195150000Y-152350000D03*
X169050000Y-110950000D03*
X169050000Y-145950000D03*
X168100000Y-119150000D03*
X168100000Y-154150000D03*
X197300000Y-79550000D03*
X207250000Y-80400000D03*
X197300000Y-114550000D03*
X197300000Y-149550000D03*
X207250000Y-115400000D03*
X207250000Y-150400000D03*
X214950000Y-63950000D03*
X208400000Y-64850000D03*
X208400000Y-99850000D03*
X208400000Y-134850000D03*
X214950000Y-98950000D03*
X214950000Y-133950000D03*
D16*
X220800000Y-79825000D02*
X220800000Y-79400000D01*
X220800000Y-79400000D02*
X221800000Y-78400000D01*
X220800000Y-74175000D02*
X220800000Y-75100000D01*
X220800000Y-75100000D02*
X220300000Y-75600000D01*
X215930000Y-75300000D02*
X214900000Y-75300000D01*
X214900000Y-75300000D02*
X214700000Y-75500000D01*
X220800000Y-62175000D02*
X220800000Y-62800000D01*
X220800000Y-62800000D02*
X221450000Y-63450000D01*
X220800000Y-67825000D02*
X220800000Y-67600000D01*
X220800000Y-67600000D02*
X221950000Y-66450000D01*
D17*
X213334990Y-70736382D02*
X213450686Y-70620686D01*
X214700000Y-75500000D02*
X213334990Y-74134990D01*
X213334990Y-74134990D02*
X213334990Y-70736382D01*
D16*
X197034315Y-68400000D02*
X196184315Y-69250000D01*
X197600000Y-68400000D02*
X197034315Y-68400000D01*
X178440118Y-71606003D02*
X194643997Y-71606003D01*
X196184315Y-70065685D02*
X196184315Y-69250000D01*
X194643997Y-71606003D02*
X196184315Y-70065685D01*
X213730000Y-71810000D02*
X213730000Y-70900000D01*
X216900000Y-74980000D02*
X213730000Y-71810000D01*
X216900000Y-75300000D02*
X216900000Y-74980000D01*
D17*
X213334990Y-109134990D02*
X213334990Y-105736382D01*
X213334990Y-144134990D02*
X213334990Y-140736382D01*
X213334990Y-105736382D02*
X213450686Y-105620686D01*
X213334990Y-140736382D02*
X213450686Y-140620686D01*
X214700000Y-110500000D02*
X213334990Y-109134990D01*
X214700000Y-145500000D02*
X213334990Y-144134990D01*
D16*
X220800000Y-114400000D02*
X221800000Y-113400000D01*
X220800000Y-149400000D02*
X221800000Y-148400000D01*
X220800000Y-110100000D02*
X220300000Y-110600000D01*
X220800000Y-145100000D02*
X220300000Y-145600000D01*
X214900000Y-110300000D02*
X214700000Y-110500000D01*
X214900000Y-145300000D02*
X214700000Y-145500000D01*
X220800000Y-109175000D02*
X220800000Y-110100000D01*
X220800000Y-144175000D02*
X220800000Y-145100000D01*
X220800000Y-114825000D02*
X220800000Y-114400000D01*
X220800000Y-149825000D02*
X220800000Y-149400000D01*
X215930000Y-110300000D02*
X214900000Y-110300000D01*
X215930000Y-145300000D02*
X214900000Y-145300000D01*
X220800000Y-97800000D02*
X221450000Y-98450000D01*
X220800000Y-132800000D02*
X221450000Y-133450000D01*
X220800000Y-97175000D02*
X220800000Y-97800000D01*
X220800000Y-132175000D02*
X220800000Y-132800000D01*
X220800000Y-102600000D02*
X221950000Y-101450000D01*
X220800000Y-137600000D02*
X221950000Y-136450000D01*
X220800000Y-102825000D02*
X220800000Y-102600000D01*
X220800000Y-137825000D02*
X220800000Y-137600000D01*
X196184315Y-105065685D02*
X196184315Y-104250000D01*
X196184315Y-140065685D02*
X196184315Y-139250000D01*
X197600000Y-103400000D02*
X197034315Y-103400000D01*
X197600000Y-138400000D02*
X197034315Y-138400000D01*
X197034315Y-103400000D02*
X196184315Y-104250000D01*
X197034315Y-138400000D02*
X196184315Y-139250000D01*
X194643997Y-106606003D02*
X196184315Y-105065685D01*
X194643997Y-141606003D02*
X196184315Y-140065685D01*
X178440118Y-106606003D02*
X194643997Y-106606003D01*
X178440118Y-141606003D02*
X194643997Y-141606003D01*
X216900000Y-109980000D02*
X213730000Y-106810000D01*
X216900000Y-144980000D02*
X213730000Y-141810000D01*
X216900000Y-110300000D02*
X216900000Y-109980000D01*
X216900000Y-145300000D02*
X216900000Y-144980000D01*
X213730000Y-106810000D02*
X213730000Y-105900000D01*
X213730000Y-141810000D02*
X213730000Y-140900000D01*
X161300000Y-75200000D02*
X161100000Y-75000000D01*
X168900000Y-72050000D02*
X166950000Y-74000000D01*
X168900000Y-70250000D02*
X168900000Y-72050000D01*
X166950000Y-74000000D02*
X166950000Y-74004602D01*
X166950000Y-74004602D02*
X165754602Y-75200000D01*
X165754602Y-75200000D02*
X161300000Y-75200000D01*
X161300000Y-110200000D02*
X161100000Y-110000000D01*
X161300000Y-145200000D02*
X161100000Y-145000000D01*
X165754602Y-110200000D02*
X161300000Y-110200000D01*
X165754602Y-145200000D02*
X161300000Y-145200000D01*
X166950000Y-109004602D02*
X165754602Y-110200000D01*
X166950000Y-144004602D02*
X165754602Y-145200000D01*
X168900000Y-107050000D02*
X166950000Y-109000000D01*
X168900000Y-142050000D02*
X166950000Y-144000000D01*
X166950000Y-109000000D02*
X166950000Y-109004602D01*
X166950000Y-144000000D02*
X166950000Y-144004602D01*
X168900000Y-105250000D02*
X168900000Y-107050000D01*
X168900000Y-140250000D02*
X168900000Y-142050000D01*
X135070000Y-78920000D02*
X135070000Y-70900000D01*
X143700000Y-80250000D02*
X143300001Y-80649999D01*
X136799999Y-80649999D02*
X135070000Y-78920000D01*
X143300001Y-80649999D02*
X136799999Y-80649999D01*
X138100000Y-70900000D02*
X135070000Y-70900000D01*
X140450000Y-73250000D02*
X138100000Y-70900000D01*
X141290685Y-67475000D02*
X138990000Y-67475000D01*
X143950000Y-64815685D02*
X141290685Y-67475000D01*
X135565000Y-70900000D02*
X135070000Y-70900000D01*
X138990000Y-67475000D02*
X135565000Y-70900000D01*
X143950000Y-64250000D02*
X143950000Y-64815685D01*
X143950000Y-64550000D02*
X143950000Y-64250000D01*
X146300000Y-66900000D02*
X143950000Y-64550000D01*
X136799999Y-115649999D02*
X135070000Y-113920000D01*
X136799999Y-150649999D02*
X135070000Y-148920000D01*
X143300001Y-115649999D02*
X136799999Y-115649999D01*
X143300001Y-150649999D02*
X136799999Y-150649999D01*
X140450000Y-108250000D02*
X138100000Y-105900000D01*
X140450000Y-143250000D02*
X138100000Y-140900000D01*
X135070000Y-113920000D02*
X135070000Y-105900000D01*
X135070000Y-148920000D02*
X135070000Y-140900000D01*
X143950000Y-99815685D02*
X141290685Y-102475000D01*
X143950000Y-134815685D02*
X141290685Y-137475000D01*
X141290685Y-102475000D02*
X138990000Y-102475000D01*
X141290685Y-137475000D02*
X138990000Y-137475000D01*
X138100000Y-105900000D02*
X135070000Y-105900000D01*
X138100000Y-140900000D02*
X135070000Y-140900000D01*
X143700000Y-115250000D02*
X143300001Y-115649999D01*
X143700000Y-150250000D02*
X143300001Y-150649999D01*
X143950000Y-99550000D02*
X143950000Y-99250000D01*
X143950000Y-134550000D02*
X143950000Y-134250000D01*
X146300000Y-101900000D02*
X143950000Y-99550000D01*
X146300000Y-136900000D02*
X143950000Y-134550000D01*
X135565000Y-105900000D02*
X135070000Y-105900000D01*
X135565000Y-140900000D02*
X135070000Y-140900000D01*
X143950000Y-99250000D02*
X143950000Y-99815685D01*
X143950000Y-134250000D02*
X143950000Y-134815685D01*
X138990000Y-102475000D02*
X135565000Y-105900000D01*
X138990000Y-137475000D02*
X135565000Y-140900000D01*
X193500000Y-60700000D02*
X191650000Y-60700000D01*
X182100000Y-70250000D02*
X179650000Y-70250000D01*
X191650000Y-60700000D02*
X182100000Y-70250000D01*
X191650000Y-95700000D02*
X182100000Y-105250000D01*
X191650000Y-130700000D02*
X182100000Y-140250000D01*
X182100000Y-105250000D02*
X179650000Y-105250000D01*
X182100000Y-140250000D02*
X179650000Y-140250000D01*
X193500000Y-95700000D02*
X191650000Y-95700000D01*
X193500000Y-130700000D02*
X191650000Y-130700000D01*
X193500000Y-61800000D02*
X191073272Y-61800000D01*
X181773273Y-71099999D02*
X178999999Y-71099999D01*
X178999999Y-71099999D02*
X178600000Y-70700000D01*
X191073272Y-61800000D02*
X181773273Y-71099999D01*
X191073272Y-96800000D02*
X181773273Y-106099999D01*
X191073272Y-131800000D02*
X181773273Y-141099999D01*
X181773273Y-106099999D02*
X178999999Y-106099999D01*
X181773273Y-141099999D02*
X178999999Y-141099999D01*
X193500000Y-96800000D02*
X191073272Y-96800000D01*
X193500000Y-131800000D02*
X191073272Y-131800000D01*
X178999999Y-106099999D02*
X178600000Y-105700000D01*
X178999999Y-141099999D02*
X178600000Y-140700000D01*
X173800000Y-61000000D02*
X174700000Y-61000000D01*
X174700000Y-61000000D02*
X177450000Y-63750000D01*
X173800000Y-96000000D02*
X174700000Y-96000000D01*
X173800000Y-131000000D02*
X174700000Y-131000000D01*
X174700000Y-96000000D02*
X177450000Y-98750000D01*
X174700000Y-131000000D02*
X177450000Y-133750000D01*
X174354602Y-67450000D02*
X173115685Y-67450000D01*
X196850000Y-58400000D02*
X187600000Y-58400000D01*
X199150001Y-60700001D02*
X196850000Y-58400000D01*
X187600000Y-58400000D02*
X187170010Y-58829990D01*
X202800000Y-61100000D02*
X202400001Y-60700001D01*
X173115685Y-67450000D02*
X172550000Y-67450000D01*
X202400001Y-60700001D02*
X199150001Y-60700001D01*
X187170010Y-58829990D02*
X186470010Y-58829990D01*
X186470010Y-58829990D02*
X183950000Y-61350000D01*
X183950000Y-61350000D02*
X180950000Y-61350000D01*
X176600000Y-65700000D02*
X176104602Y-65700000D01*
X180950000Y-61350000D02*
X176600000Y-65700000D01*
X176104602Y-65700000D02*
X174354602Y-67450000D01*
X153715685Y-71350000D02*
X154615685Y-70450000D01*
X153150000Y-71350000D02*
X153715685Y-71350000D01*
X172150001Y-67050001D02*
X172550000Y-67450000D01*
X171754999Y-66654999D02*
X172150001Y-67050001D01*
X168990399Y-66654999D02*
X171754999Y-66654999D01*
X165350397Y-70295001D02*
X168990399Y-66654999D01*
X159604999Y-70295001D02*
X165350397Y-70295001D01*
X159450000Y-70450000D02*
X159604999Y-70295001D01*
X154615685Y-70450000D02*
X159450000Y-70450000D01*
X199150001Y-95700001D02*
X196850000Y-93400000D01*
X199150001Y-130700001D02*
X196850000Y-128400000D01*
X202800000Y-96100000D02*
X202400001Y-95700001D01*
X202800000Y-131100000D02*
X202400001Y-130700001D01*
X174354602Y-102450000D02*
X173115685Y-102450000D01*
X174354602Y-137450000D02*
X173115685Y-137450000D01*
X196850000Y-93400000D02*
X187600000Y-93400000D01*
X196850000Y-128400000D02*
X187600000Y-128400000D01*
X187600000Y-93400000D02*
X187170010Y-93829990D01*
X187600000Y-128400000D02*
X187170010Y-128829990D01*
X202400001Y-95700001D02*
X199150001Y-95700001D01*
X202400001Y-130700001D02*
X199150001Y-130700001D01*
X187170010Y-93829990D02*
X186470010Y-93829990D01*
X187170010Y-128829990D02*
X186470010Y-128829990D01*
X173115685Y-102450000D02*
X172550000Y-102450000D01*
X173115685Y-137450000D02*
X172550000Y-137450000D01*
X186470010Y-93829990D02*
X183950000Y-96350000D01*
X186470010Y-128829990D02*
X183950000Y-131350000D01*
X183950000Y-96350000D02*
X180950000Y-96350000D01*
X183950000Y-131350000D02*
X180950000Y-131350000D01*
X159450000Y-105450000D02*
X159604999Y-105295001D01*
X159450000Y-140450000D02*
X159604999Y-140295001D01*
X176600000Y-100700000D02*
X176104602Y-100700000D01*
X176600000Y-135700000D02*
X176104602Y-135700000D01*
X180950000Y-96350000D02*
X176600000Y-100700000D01*
X180950000Y-131350000D02*
X176600000Y-135700000D01*
X153150000Y-106350000D02*
X153715685Y-106350000D01*
X153150000Y-141350000D02*
X153715685Y-141350000D01*
X154615685Y-105450000D02*
X159450000Y-105450000D01*
X154615685Y-140450000D02*
X159450000Y-140450000D01*
X168990399Y-101654999D02*
X171754999Y-101654999D01*
X168990399Y-136654999D02*
X171754999Y-136654999D01*
X172150001Y-102050001D02*
X172550000Y-102450000D01*
X172150001Y-137050001D02*
X172550000Y-137450000D01*
X159604999Y-105295001D02*
X165350397Y-105295001D01*
X159604999Y-140295001D02*
X165350397Y-140295001D01*
X171754999Y-101654999D02*
X172150001Y-102050001D01*
X171754999Y-136654999D02*
X172150001Y-137050001D01*
X176104602Y-100700000D02*
X174354602Y-102450000D01*
X176104602Y-135700000D02*
X174354602Y-137450000D01*
X153715685Y-106350000D02*
X154615685Y-105450000D01*
X153715685Y-141350000D02*
X154615685Y-140450000D01*
X165350397Y-105295001D02*
X168990399Y-101654999D01*
X165350397Y-140295001D02*
X168990399Y-136654999D01*
X196704999Y-58854999D02*
X189045001Y-58854999D01*
X172550000Y-68550000D02*
X171849999Y-67849999D01*
X171849999Y-67849999D02*
X171450000Y-67450000D01*
X189045001Y-58854999D02*
X188700000Y-59200000D01*
X202000000Y-61900000D02*
X199750000Y-61900000D01*
X184254999Y-61745001D02*
X181078273Y-61745001D01*
X199750000Y-61900000D02*
X196704999Y-58854999D01*
X188700000Y-59200000D02*
X186799999Y-59200001D01*
X174273274Y-68550000D02*
X172550000Y-68550000D01*
X181078273Y-61745001D02*
X174273274Y-68550000D01*
X186799999Y-59200001D02*
X184254999Y-61745001D01*
X171050001Y-67849999D02*
X171450000Y-67450000D01*
X170954999Y-67945001D02*
X171050001Y-67849999D01*
X170250397Y-67945001D02*
X170954999Y-67945001D01*
X166090399Y-72104999D02*
X170250397Y-67945001D01*
X154310686Y-72104999D02*
X166090399Y-72104999D01*
X154215685Y-72200000D02*
X154310686Y-72104999D01*
X153650000Y-72200000D02*
X154215685Y-72200000D01*
X174273274Y-103550000D02*
X172550000Y-103550000D01*
X174273274Y-138550000D02*
X172550000Y-138550000D01*
X172550000Y-103550000D02*
X171849999Y-102849999D01*
X172550000Y-138550000D02*
X171849999Y-137849999D01*
X184254999Y-96745001D02*
X181078273Y-96745001D01*
X184254999Y-131745001D02*
X181078273Y-131745001D01*
X181078273Y-96745001D02*
X174273274Y-103550000D01*
X181078273Y-131745001D02*
X174273274Y-138550000D01*
X199750000Y-96900000D02*
X196704999Y-93854999D01*
X199750000Y-131900000D02*
X196704999Y-128854999D01*
X188700000Y-94200000D02*
X186799999Y-94200001D01*
X188700000Y-129200000D02*
X186799999Y-129200001D01*
X202000000Y-96900000D02*
X199750000Y-96900000D01*
X202000000Y-131900000D02*
X199750000Y-131900000D01*
X189045001Y-93854999D02*
X188700000Y-94200000D01*
X189045001Y-128854999D02*
X188700000Y-129200000D01*
X171849999Y-102849999D02*
X171450000Y-102450000D01*
X171849999Y-137849999D02*
X171450000Y-137450000D01*
X186799999Y-94200001D02*
X184254999Y-96745001D01*
X186799999Y-129200001D02*
X184254999Y-131745001D01*
X196704999Y-93854999D02*
X189045001Y-93854999D01*
X196704999Y-128854999D02*
X189045001Y-128854999D01*
X171050001Y-102849999D02*
X171450000Y-102450000D01*
X171050001Y-137849999D02*
X171450000Y-137450000D01*
X170250397Y-102945001D02*
X170954999Y-102945001D01*
X170250397Y-137945001D02*
X170954999Y-137945001D01*
X166090399Y-107104999D02*
X170250397Y-102945001D01*
X166090399Y-142104999D02*
X170250397Y-137945001D01*
X154310686Y-107104999D02*
X166090399Y-107104999D01*
X154310686Y-142104999D02*
X166090399Y-142104999D01*
X170954999Y-102945001D02*
X171050001Y-102849999D01*
X170954999Y-137945001D02*
X171050001Y-137849999D01*
X154215685Y-107200000D02*
X154310686Y-107104999D01*
X154215685Y-142200000D02*
X154310686Y-142104999D01*
X153650000Y-107200000D02*
X154215685Y-107200000D01*
X153650000Y-142200000D02*
X154215685Y-142200000D01*
X167050000Y-79600000D02*
X167050000Y-76300000D01*
X167050000Y-76300000D02*
X171650000Y-71700000D01*
X176900000Y-71700000D02*
X177650000Y-70950000D01*
X171650000Y-71700000D02*
X176900000Y-71700000D01*
X167050000Y-114600000D02*
X167050000Y-111300000D01*
X167050000Y-149600000D02*
X167050000Y-146300000D01*
X176900000Y-106700000D02*
X177650000Y-105950000D01*
X176900000Y-141700000D02*
X177650000Y-140950000D01*
X167050000Y-111300000D02*
X171650000Y-106700000D01*
X167050000Y-146300000D02*
X171650000Y-141700000D01*
X171650000Y-106700000D02*
X176900000Y-106700000D01*
X171650000Y-141700000D02*
X176900000Y-141700000D01*
X193034315Y-62900000D02*
X192934315Y-62800000D01*
X193600000Y-62900000D02*
X193034315Y-62900000D01*
X192934315Y-62800000D02*
X191050000Y-62800000D01*
X191050000Y-62800000D02*
X186250000Y-67600000D01*
X193034315Y-97900000D02*
X192934315Y-97800000D01*
X193034315Y-132900000D02*
X192934315Y-132800000D01*
X192934315Y-97800000D02*
X191050000Y-97800000D01*
X192934315Y-132800000D02*
X191050000Y-132800000D01*
X191050000Y-97800000D02*
X186250000Y-102600000D01*
X191050000Y-132800000D02*
X186250000Y-137600000D01*
X193600000Y-97900000D02*
X193034315Y-97900000D01*
X193600000Y-132900000D02*
X193034315Y-132900000D01*
X193134315Y-64000000D02*
X193034315Y-63900000D01*
X193700000Y-64000000D02*
X193134315Y-64000000D01*
X193034315Y-63900000D02*
X190700000Y-63900000D01*
X190700000Y-63900000D02*
X187350000Y-67250000D01*
X187350000Y-67250000D02*
X187431084Y-67331084D01*
X187350000Y-102250000D02*
X187431084Y-102331084D01*
X187350000Y-137250000D02*
X187431084Y-137331084D01*
X193134315Y-99000000D02*
X193034315Y-98900000D01*
X193134315Y-134000000D02*
X193034315Y-133900000D01*
X193034315Y-98900000D02*
X190700000Y-98900000D01*
X193034315Y-133900000D02*
X190700000Y-133900000D01*
X190700000Y-98900000D02*
X187350000Y-102250000D01*
X190700000Y-133900000D02*
X187350000Y-137250000D01*
X193700000Y-99000000D02*
X193134315Y-99000000D01*
X193700000Y-134000000D02*
X193134315Y-134000000D01*
X188762322Y-72525934D02*
X190181388Y-73945000D01*
X178451567Y-72525934D02*
X188762322Y-72525934D01*
X178451567Y-107525934D02*
X188762322Y-107525934D01*
X178451567Y-142525934D02*
X188762322Y-142525934D01*
X188762322Y-107525934D02*
X190181388Y-108945000D01*
X188762322Y-142525934D02*
X190181388Y-143945000D01*
X194150000Y-83015685D02*
X192715685Y-84450000D01*
X194150000Y-82450000D02*
X194150000Y-83015685D01*
X192715685Y-84450000D02*
X186100000Y-84450000D01*
X186100000Y-84450000D02*
X184950000Y-85600000D01*
X184950000Y-85600000D02*
X173200000Y-85600000D01*
X170750000Y-83550000D02*
X169900000Y-82700000D01*
X171300000Y-77665685D02*
X171300000Y-77100000D01*
X169900000Y-81950000D02*
X171300000Y-80550000D01*
X171300000Y-80550000D02*
X171300000Y-77665685D01*
X169900000Y-82700000D02*
X169900000Y-81950000D01*
X184950000Y-120600000D02*
X173200000Y-120600000D01*
X184950000Y-155600000D02*
X173200000Y-155600000D01*
X194150000Y-117450000D02*
X194150000Y-118015685D01*
X194150000Y-152450000D02*
X194150000Y-153015685D01*
X194150000Y-118015685D02*
X192715685Y-119450000D01*
X194150000Y-153015685D02*
X192715685Y-154450000D01*
X192715685Y-119450000D02*
X186100000Y-119450000D01*
X192715685Y-154450000D02*
X186100000Y-154450000D01*
X186100000Y-119450000D02*
X184950000Y-120600000D01*
X186100000Y-154450000D02*
X184950000Y-155600000D01*
X169900000Y-116950000D02*
X171300000Y-115550000D01*
X169900000Y-151950000D02*
X171300000Y-150550000D01*
X170750000Y-118550000D02*
X169900000Y-117700000D01*
X170750000Y-153550000D02*
X169900000Y-152700000D01*
X171300000Y-115550000D02*
X171300000Y-112665685D01*
X171300000Y-150550000D02*
X171300000Y-147665685D01*
X171300000Y-112665685D02*
X171300000Y-112100000D01*
X171300000Y-147665685D02*
X171300000Y-147100000D01*
X169900000Y-117700000D02*
X169900000Y-116950000D01*
X169900000Y-152700000D02*
X169900000Y-151950000D01*
X167050000Y-81850000D02*
X167050000Y-81000000D01*
X170050000Y-84850000D02*
X167050000Y-81850000D01*
X184850000Y-84850000D02*
X170050000Y-84850000D01*
X193000000Y-81734209D02*
X193000000Y-82900000D01*
X192978973Y-81713182D02*
X193000000Y-81734209D01*
X193000000Y-82900000D02*
X191950000Y-83950000D01*
X191950000Y-83950000D02*
X185750000Y-83950000D01*
X185750000Y-83950000D02*
X184850000Y-84850000D01*
X167050000Y-81000000D02*
X168750000Y-81000000D01*
X168750000Y-81000000D02*
X170400000Y-79350000D01*
X170400000Y-79350000D02*
X170400000Y-78500000D01*
X170595000Y-78305000D02*
X170595000Y-75816168D01*
X170400000Y-78500000D02*
X170595000Y-78305000D01*
X170400000Y-113500000D02*
X170595000Y-113305000D01*
X170400000Y-148500000D02*
X170595000Y-148305000D01*
X170050000Y-119850000D02*
X167050000Y-116850000D01*
X170050000Y-154850000D02*
X167050000Y-151850000D01*
X170400000Y-114350000D02*
X170400000Y-113500000D01*
X170400000Y-149350000D02*
X170400000Y-148500000D01*
X168750000Y-116000000D02*
X170400000Y-114350000D01*
X168750000Y-151000000D02*
X170400000Y-149350000D01*
X191950000Y-118950000D02*
X185750000Y-118950000D01*
X191950000Y-153950000D02*
X185750000Y-153950000D01*
X193000000Y-116734209D02*
X193000000Y-117900000D01*
X193000000Y-151734209D02*
X193000000Y-152900000D01*
X193000000Y-117900000D02*
X191950000Y-118950000D01*
X193000000Y-152900000D02*
X191950000Y-153950000D01*
X185750000Y-118950000D02*
X184850000Y-119850000D01*
X185750000Y-153950000D02*
X184850000Y-154850000D01*
X184850000Y-119850000D02*
X170050000Y-119850000D01*
X184850000Y-154850000D02*
X170050000Y-154850000D01*
X192978973Y-116713182D02*
X193000000Y-116734209D01*
X192978973Y-151713182D02*
X193000000Y-151734209D01*
X167050000Y-116000000D02*
X168750000Y-116000000D01*
X167050000Y-151000000D02*
X168750000Y-151000000D01*
X170595000Y-113305000D02*
X170595000Y-110816168D01*
X170595000Y-148305000D02*
X170595000Y-145816168D01*
X167050000Y-116850000D02*
X167050000Y-116000000D01*
X167050000Y-151850000D02*
X167050000Y-151000000D01*
X171945001Y-83445001D02*
X191353570Y-83445001D01*
X191954991Y-82843580D02*
X192354990Y-82443581D01*
X191353570Y-83445001D02*
X191954991Y-82843580D01*
X170750000Y-82250000D02*
X171945001Y-83445001D01*
X171945001Y-118445001D02*
X191353570Y-118445001D01*
X171945001Y-153445001D02*
X191353570Y-153445001D01*
X191353570Y-118445001D02*
X191954991Y-117843580D01*
X191353570Y-153445001D02*
X191954991Y-152843580D01*
X191954991Y-117843580D02*
X192354990Y-117443581D01*
X191954991Y-152843580D02*
X192354990Y-152443581D01*
X170750000Y-117250000D02*
X171945001Y-118445001D01*
X170750000Y-152250000D02*
X171945001Y-153445001D01*
X195150000Y-82915685D02*
X193165685Y-84900000D01*
X195150000Y-82350000D02*
X195150000Y-82915685D01*
X186173272Y-84900000D02*
X185103263Y-85970009D01*
X193165685Y-84900000D02*
X186173272Y-84900000D01*
X170195001Y-86245001D02*
X168100000Y-84150000D01*
X185103263Y-85970009D02*
X184828271Y-86245001D01*
X184828271Y-86245001D02*
X170195001Y-86245001D01*
X170195001Y-121245001D02*
X168100000Y-119150000D01*
X170195001Y-156245001D02*
X168100000Y-154150000D01*
X184828271Y-121245001D02*
X170195001Y-121245001D01*
X184828271Y-156245001D02*
X170195001Y-156245001D01*
X185103263Y-120970009D02*
X184828271Y-121245001D01*
X185103263Y-155970009D02*
X184828271Y-156245001D01*
X186173272Y-119900000D02*
X185103263Y-120970009D01*
X186173272Y-154900000D02*
X185103263Y-155970009D01*
X193165685Y-119900000D02*
X186173272Y-119900000D01*
X193165685Y-154900000D02*
X186173272Y-154900000D01*
X195150000Y-117915685D02*
X193165685Y-119900000D01*
X195150000Y-152915685D02*
X193165685Y-154900000D01*
X195150000Y-117350000D02*
X195150000Y-117915685D01*
X195150000Y-152350000D02*
X195150000Y-152915685D01*
D17*
X197865685Y-79550000D02*
X199415685Y-81100000D01*
X197300000Y-79550000D02*
X197865685Y-79550000D01*
X199415685Y-81100000D02*
X206550000Y-81100000D01*
X206550000Y-81100000D02*
X207250000Y-80400000D01*
X197865685Y-114550000D02*
X199415685Y-116100000D01*
X197865685Y-149550000D02*
X199415685Y-151100000D01*
X206550000Y-116100000D02*
X207250000Y-115400000D01*
X206550000Y-151100000D02*
X207250000Y-150400000D01*
X197300000Y-114550000D02*
X197865685Y-114550000D01*
X197300000Y-149550000D02*
X197865685Y-149550000D01*
X199415685Y-116100000D02*
X206550000Y-116100000D01*
X199415685Y-151100000D02*
X206550000Y-151100000D01*
D16*
X208895001Y-65345001D02*
X208400000Y-64850000D01*
X214950000Y-63950000D02*
X213554999Y-65345001D01*
X213554999Y-65345001D02*
X208895001Y-65345001D01*
X208895001Y-100345001D02*
X208400000Y-99850000D01*
X208895001Y-135345001D02*
X208400000Y-134850000D01*
X214950000Y-98950000D02*
X213554999Y-100345001D01*
X214950000Y-133950000D02*
X213554999Y-135345001D01*
X213554999Y-100345001D02*
X208895001Y-100345001D01*
X213554999Y-135345001D02*
X208895001Y-135345001D01*
M02*
