M48
; DRILL file {KiCad (5.1.5)-3} date 5/16/2020 9:03:10 PM
; FORMAT={-:-/ absolute / inch / decimal}
; #@! TF.CreationDate,2020-05-16T21:03:10+05:30
; #@! TF.GenerationSoftware,Kicad,Pcbnew,(5.1.5)-3
; #@! TF.FileFunction,Plated,1,2,Blind
FMAT,2
INCH
T1C0.0039
%
G90
G05
T1
X2.6772Y-2.2402
X2.7126Y-2.4252
X2.8031Y-2.8622
X2.8575Y-2.248
X2.9213Y-2.5591
X2.9823Y-2.5079
X2.9921Y-2.8661
X3.0315Y-2.4724
X3.0709Y-2.6102
X3.0787Y-2.7717
X3.0787Y-2.7913
X3.1457Y-2.9685
X3.1693Y-2.7402
X3.2047Y-2.0236
X3.2047Y-2.2244
X3.2559Y-2.2283
X3.374Y-2.378
X3.378Y-2.1614
X3.4213Y-2.9291
X3.4449Y-2.1614
X3.4724Y-3.0079
X3.5157Y-2.4606
X3.5197Y-2.5276
X3.5433Y-2.4094
X3.5827Y-2.2598
X3.5866Y-2.6063
X3.6417Y-2.1969
X3.6417Y-3.0157
X3.7087Y-2.1969
X3.7165Y-2.1181
X3.748Y-2.5157
X3.7559Y-2.6181
X3.7874Y-2.252
X3.8304Y-2.2025
X3.8665Y-2.4991
X3.8976Y-2.2441
X3.9134Y-2.3661
X3.9173Y-2.252
X3.9213Y-2.1299
X4.0669Y-2.5827
X4.0945Y-2.3819
X4.1339Y-2.8465
X4.1535Y-2.2874
X4.1772Y-2.6732
X4.2279Y-2.3202
X4.4764Y-2.7756
X4.5236Y-2.8307
X4.5866Y-2.8228
X4.6417Y-2.8976
X4.6496Y-2.7795
X4.752Y-2.9409
X4.7795Y-2.3583
X4.7953Y-2.2717
X4.8071Y-2.5827
X4.8425Y-2.063
X4.8465Y-2.3976
X4.8543Y-2.378
X4.8976Y-2.5827
X4.9252Y-2.6535
X4.9724Y-2.6063
X4.9764Y-2.748
X4.9764Y-2.8661
X4.9803Y-2.2717
X5.0472Y-2.7874
X5.0945Y-2.6811
X5.1024Y-2.6181
X5.1732Y-2.3937
X5.1811Y-2.6811
X5.2126Y-2.3268
X5.2795Y-2.9646
X5.3071Y-2.6614
X5.3622Y-2.9291
X5.3858Y-2.1693
X5.4173Y-2.3228
X5.437Y-2.6929
X5.4685Y-2.8937
X5.5039Y-2.6654
X5.5039Y-2.7047
X5.5236Y-2.2559
X5.5394Y-2.8386
X5.5591Y-2.248
X5.5709Y-2.3307
X5.5906Y-2.2165
X5.6457Y-2.8465
X5.6535Y-2.2323
X5.6811Y-2.3189
X5.8937Y-2.3307
T0
M30
