G04 #@! TF.GenerationSoftware,KiCad,Pcbnew,(5.1.5)-3*
G04 #@! TF.CreationDate,2020-05-16T21:03:05+05:30*
G04 #@! TF.ProjectId,ArmTrax,41726d54-7261-4782-9e6b-696361645f70,rev?*
G04 #@! TF.SameCoordinates,Original*
G04 #@! TF.FileFunction,Paste,Bot*
G04 #@! TF.FilePolarity,Positive*
%FSLAX46Y46*%
G04 Gerber Fmt 4.6, Leading zero omitted, Abs format (unit mm)*
G04 Created by KiCad (PCBNEW (5.1.5)-3) date 2020-05-16 21:03:05*
%MOMM*%
%LPD*%
G04 APERTURE LIST*
%ADD10R,7.340000X6.350000*%
%ADD11C,0.100000*%
%ADD12R,4.200000X1.350000*%
G04 APERTURE END LIST*
D10*
X143130000Y-63600000D03*
X64470000Y-63600000D03*
D11*
G36*
X145491958Y-67680710D02*
G01*
X145506276Y-67682834D01*
X145520317Y-67686351D01*
X145533946Y-67691228D01*
X145547031Y-67697417D01*
X145559447Y-67704858D01*
X145571073Y-67713481D01*
X145581798Y-67723202D01*
X145591519Y-67733927D01*
X145600142Y-67745553D01*
X145607583Y-67757969D01*
X145613772Y-67771054D01*
X145618649Y-67784683D01*
X145622166Y-67798724D01*
X145624290Y-67813042D01*
X145625000Y-67827500D01*
X145625000Y-68172500D01*
X145624290Y-68186958D01*
X145622166Y-68201276D01*
X145618649Y-68215317D01*
X145613772Y-68228946D01*
X145607583Y-68242031D01*
X145600142Y-68254447D01*
X145591519Y-68266073D01*
X145581798Y-68276798D01*
X145571073Y-68286519D01*
X145559447Y-68295142D01*
X145547031Y-68302583D01*
X145533946Y-68308772D01*
X145520317Y-68313649D01*
X145506276Y-68317166D01*
X145491958Y-68319290D01*
X145477500Y-68320000D01*
X145182500Y-68320000D01*
X145168042Y-68319290D01*
X145153724Y-68317166D01*
X145139683Y-68313649D01*
X145126054Y-68308772D01*
X145112969Y-68302583D01*
X145100553Y-68295142D01*
X145088927Y-68286519D01*
X145078202Y-68276798D01*
X145068481Y-68266073D01*
X145059858Y-68254447D01*
X145052417Y-68242031D01*
X145046228Y-68228946D01*
X145041351Y-68215317D01*
X145037834Y-68201276D01*
X145035710Y-68186958D01*
X145035000Y-68172500D01*
X145035000Y-67827500D01*
X145035710Y-67813042D01*
X145037834Y-67798724D01*
X145041351Y-67784683D01*
X145046228Y-67771054D01*
X145052417Y-67757969D01*
X145059858Y-67745553D01*
X145068481Y-67733927D01*
X145078202Y-67723202D01*
X145088927Y-67713481D01*
X145100553Y-67704858D01*
X145112969Y-67697417D01*
X145126054Y-67691228D01*
X145139683Y-67686351D01*
X145153724Y-67682834D01*
X145168042Y-67680710D01*
X145182500Y-67680000D01*
X145477500Y-67680000D01*
X145491958Y-67680710D01*
G37*
G36*
X146461958Y-67680710D02*
G01*
X146476276Y-67682834D01*
X146490317Y-67686351D01*
X146503946Y-67691228D01*
X146517031Y-67697417D01*
X146529447Y-67704858D01*
X146541073Y-67713481D01*
X146551798Y-67723202D01*
X146561519Y-67733927D01*
X146570142Y-67745553D01*
X146577583Y-67757969D01*
X146583772Y-67771054D01*
X146588649Y-67784683D01*
X146592166Y-67798724D01*
X146594290Y-67813042D01*
X146595000Y-67827500D01*
X146595000Y-68172500D01*
X146594290Y-68186958D01*
X146592166Y-68201276D01*
X146588649Y-68215317D01*
X146583772Y-68228946D01*
X146577583Y-68242031D01*
X146570142Y-68254447D01*
X146561519Y-68266073D01*
X146551798Y-68276798D01*
X146541073Y-68286519D01*
X146529447Y-68295142D01*
X146517031Y-68302583D01*
X146503946Y-68308772D01*
X146490317Y-68313649D01*
X146476276Y-68317166D01*
X146461958Y-68319290D01*
X146447500Y-68320000D01*
X146152500Y-68320000D01*
X146138042Y-68319290D01*
X146123724Y-68317166D01*
X146109683Y-68313649D01*
X146096054Y-68308772D01*
X146082969Y-68302583D01*
X146070553Y-68295142D01*
X146058927Y-68286519D01*
X146048202Y-68276798D01*
X146038481Y-68266073D01*
X146029858Y-68254447D01*
X146022417Y-68242031D01*
X146016228Y-68228946D01*
X146011351Y-68215317D01*
X146007834Y-68201276D01*
X146005710Y-68186958D01*
X146005000Y-68172500D01*
X146005000Y-67827500D01*
X146005710Y-67813042D01*
X146007834Y-67798724D01*
X146011351Y-67784683D01*
X146016228Y-67771054D01*
X146022417Y-67757969D01*
X146029858Y-67745553D01*
X146038481Y-67733927D01*
X146048202Y-67723202D01*
X146058927Y-67713481D01*
X146070553Y-67704858D01*
X146082969Y-67697417D01*
X146096054Y-67691228D01*
X146109683Y-67686351D01*
X146123724Y-67682834D01*
X146138042Y-67680710D01*
X146152500Y-67680000D01*
X146447500Y-67680000D01*
X146461958Y-67680710D01*
G37*
D12*
X150600000Y-54875000D03*
X150600000Y-60525000D03*
X150600000Y-66875000D03*
X150600000Y-72525000D03*
M02*
