M48
; DRILL file {KiCad (5.1.5)-3} date 5/16/2020 9:03:10 PM
; FORMAT={-:-/ absolute / inch / decimal}
; #@! TF.CreationDate,2020-05-16T21:03:10+05:30
; #@! TF.GenerationSoftware,Kicad,Pcbnew,(5.1.5)-3
; #@! TF.FileFunction,Plated,1,4,PTH
FMAT,2
INCH
T1C0.0157
T2C0.0866
%
G90
G05
T1
X2.7717Y-2.2835
X2.8307Y-2.5118
X2.8701Y-2.8701
X2.8898Y-2.6496
X2.9173Y-2.311
X2.9216Y-2.5296
X2.9764Y-2.5591
X3.3071Y-2.0197
X3.4488Y-2.5315
X3.4606Y-2.4882
X3.4724Y-2.0197
X3.4882Y-2.063
X3.7835Y-2.8386
X3.8425Y-2.748
X3.87Y-2.6968
X3.878Y-2.3701
X3.8858Y-2.5236
X3.8858Y-2.8228
X3.9052Y-2.7056
X3.9352Y-2.7259
X3.9646Y-2.1299
X3.9803Y-2.0945
X3.9803Y-2.3701
X3.9882Y-2.7165
X4.0157Y-2.1299
X4.0866Y-2.2047
X4.1553Y-2.8054
X4.189Y-2.9094
X4.2047Y-2.126
X4.2087Y-2.3976
X4.2205Y-2.6181
X4.2243Y-2.5079
X4.248Y-2.4094
X4.2559Y-2.5354
X4.2559Y-2.5787
X4.2581Y-2.4946
X4.279Y-2.4651
X4.3425Y-2.437
X4.4055Y-2.5472
X4.4055Y-2.6457
X4.4055Y-2.7244
X4.4055Y-2.8031
X4.4055Y-2.8819
X4.4488Y-2.2992
X4.4567Y-2.9331
X4.5039Y-2.5472
X4.5827Y-2.5472
X4.5866Y-2.2537
X4.6614Y-2.203
X4.6614Y-2.5472
X4.6732Y-2.6457
X4.7156Y-2.2963
X4.7156Y-2.375
X4.7165Y-2.1378
X4.7165Y-2.4685
X4.7402Y-1.9961
X4.7402Y-2.5472
X4.7717Y-2.2537
X4.7795Y-2.4685
X4.7836Y-2.945
X4.8189Y-1.9961
X4.8189Y-2.4213
X4.8189Y-2.5472
X4.8194Y-2.9508
X4.8386Y-2.2283
X4.8465Y-2.1063
X4.8465Y-2.1457
X4.8465Y-2.189
X4.8543Y-2.9606
X4.8906Y-2.9606
X4.8976Y-1.9961
X4.8976Y-2.4685
X4.8976Y-2.5472
X4.8976Y-3.0197
X4.9764Y-1.9961
X4.9764Y-2.4685
X4.9764Y-2.5472
X4.9764Y-3.0197
X5.0551Y-1.9961
X5.0551Y-2.4685
X5.0551Y-2.5472
X5.0551Y-3.0197
X5.1339Y-1.9961
X5.1339Y-2.4685
X5.1339Y-2.5472
X5.1339Y-3.0197
X5.1929Y-2.1213
X5.1929Y-2.1575
X5.2126Y-1.9961
X5.2126Y-2.4685
X5.2126Y-2.5472
X5.2126Y-3.0197
X5.2913Y-1.9961
X5.2913Y-2.4685
X5.2913Y-2.5472
X5.2913Y-3.0197
X5.3701Y-1.9961
X5.3701Y-2.4685
X5.3701Y-2.5472
X5.3701Y-3.0197
X5.4331Y-2.4134
X5.4488Y-1.9961
X5.4488Y-2.4685
X5.4488Y-2.5472
X5.4488Y-3.0197
X5.5276Y-1.9961
X5.5276Y-2.5472
X5.5276Y-3.0197
X5.6063Y-1.9961
X5.6063Y-2.5472
X5.6063Y-3.0197
X5.6417Y-2.6654
X5.6496Y-2.7126
X5.6654Y-2.7756
X5.685Y-1.9961
X5.685Y-2.5472
X5.685Y-2.7126
X5.685Y-3.0197
X5.7008Y-2.7756
X5.7205Y-2.7126
X5.7362Y-2.7756
X5.7559Y-2.7126
X5.7638Y-1.9961
X5.7638Y-2.5472
X5.7638Y-3.0197
X5.7717Y-2.7756
X5.7913Y-2.7126
X5.8031Y-2.0354
X5.8031Y-2.1142
X5.8031Y-2.9016
X5.8031Y-2.9803
X5.8071Y-2.7756
X5.8425Y-2.4685
X5.8425Y-2.5472
X5.8937Y-2.7992
X5.9016Y-2.689
X5.937Y-2.4685
X5.937Y-2.5472
X5.9488Y-2.3268
X5.9567Y-2.8031
X5.9685Y-2.2165
X2.4075Y-1.9961
X2.4265Y-1.9501
X2.4265Y-2.042
X2.4724Y-1.9311
X2.4724Y-2.061
X2.5184Y-1.9501
X2.5184Y-2.042
X2.5374Y-1.9961
X2.4075Y-3.0197
X2.4265Y-2.9738
X2.4265Y-3.0656
X2.4724Y-2.9547
X2.4724Y-3.0846
X2.5184Y-2.9738
X2.5184Y-3.0656
X2.5374Y-3.0197
X5.8563Y-3.0197
X5.8753Y-2.9738
X5.8753Y-3.0656
X5.9213Y-2.9547
X5.9213Y-3.0846
X5.9672Y-2.9738
X5.9672Y-3.0656
X5.9862Y-3.0197
X5.8563Y-1.9961
X5.8753Y-1.9501
X5.8753Y-2.042
X5.9213Y-1.9311
X5.9213Y-2.061
X5.9672Y-1.9501
X5.9672Y-2.042
X5.9862Y-1.9961
T2
X2.4724Y-1.9961
X2.4724Y-3.0197
X5.9213Y-3.0197
X5.9213Y-1.9961
T0
M30
