G04 #@! TF.GenerationSoftware,KiCad,Pcbnew,(5.1.5)-3*
G04 #@! TF.CreationDate,2020-05-16T21:03:05+05:30*
G04 #@! TF.ProjectId,ArmTrax,41726d54-7261-4782-9e6b-696361645f70,rev?*
G04 #@! TF.SameCoordinates,Original*
G04 #@! TF.FileFunction,Copper,L2,Inr*
G04 #@! TF.FilePolarity,Positive*
%FSLAX46Y46*%
G04 Gerber Fmt 4.6, Leading zero omitted, Abs format (unit mm)*
G04 Created by KiCad (PCBNEW (5.1.5)-3) date 2020-05-16 21:03:05*
%MOMM*%
%LPD*%
G04 APERTURE LIST*
%ADD10C,4.400000*%
%ADD11C,0.700000*%
%ADD12C,0.800000*%
%ADD13C,0.300000*%
%ADD14C,0.250000*%
%ADD15C,0.254000*%
G04 APERTURE END LIST*
D10*
X150400000Y-76700000D03*
D11*
X152050000Y-76700000D03*
X151566726Y-77866726D03*
X150400000Y-78350000D03*
X149233274Y-77866726D03*
X148750000Y-76700000D03*
X149233274Y-75533274D03*
X150400000Y-75050000D03*
X151566726Y-75533274D03*
D10*
X150400000Y-50700000D03*
D11*
X152050000Y-50700000D03*
X151566726Y-51866726D03*
X150400000Y-52350000D03*
X149233274Y-51866726D03*
X148750000Y-50700000D03*
X149233274Y-49533274D03*
X150400000Y-49050000D03*
X151566726Y-49533274D03*
D10*
X62800000Y-76700000D03*
D11*
X64450000Y-76700000D03*
X63966726Y-77866726D03*
X62800000Y-78350000D03*
X61633274Y-77866726D03*
X61150000Y-76700000D03*
X61633274Y-75533274D03*
X62800000Y-75050000D03*
X63966726Y-75533274D03*
X63966726Y-49533274D03*
X62800000Y-49050000D03*
X61633274Y-49533274D03*
X61150000Y-50700000D03*
X61633274Y-51866726D03*
X62800000Y-52350000D03*
X63966726Y-51866726D03*
X64450000Y-50700000D03*
D10*
X62800000Y-50700000D03*
D12*
X114400000Y-64700000D03*
X146400000Y-64700000D03*
X150800000Y-62700000D03*
X148400000Y-62700000D03*
X143500000Y-68900000D03*
X144400000Y-68900000D03*
X145300000Y-68900000D03*
X146200000Y-68900000D03*
X147100000Y-68900000D03*
X143900000Y-70500000D03*
X144800000Y-70500000D03*
X145700000Y-70500000D03*
X146600000Y-70500000D03*
X147500000Y-70500000D03*
X150800000Y-64700000D03*
D13*
X113700000Y-70500000D03*
X114900000Y-71900000D03*
X116500000Y-71700000D03*
X117900000Y-73600000D03*
X120700000Y-74700000D03*
X126400000Y-72800000D03*
X126400000Y-69800000D03*
X122100000Y-65600000D03*
X124400000Y-65600000D03*
X126300000Y-66200000D03*
X118100000Y-70600000D03*
X123100000Y-60900000D03*
X123300000Y-60400000D03*
X121800000Y-57700000D03*
X123000000Y-52400000D03*
X131400000Y-60800000D03*
X132400000Y-59100000D03*
X136800000Y-55100000D03*
X140300000Y-57300000D03*
X141200000Y-57100000D03*
X141500000Y-59200000D03*
X142000000Y-56300000D03*
X143600000Y-56700000D03*
X144300000Y-58900000D03*
X149700000Y-59200000D03*
X143400000Y-72300000D03*
X140700000Y-72100000D03*
X128200000Y-70800000D03*
X131600000Y-68100000D03*
X129400000Y-68100000D03*
X129600000Y-66500000D03*
X134800000Y-67600000D03*
X139800000Y-67700000D03*
X138900000Y-73500000D03*
X136200000Y-74400000D03*
X134100000Y-75300000D03*
X106100000Y-67900000D03*
X105000000Y-72300000D03*
X92500000Y-76600000D03*
X88200000Y-76400000D03*
X86900000Y-74400000D03*
X76000000Y-72800000D03*
X78200000Y-70400000D03*
X78200000Y-70900000D03*
X80500000Y-69600000D03*
X78000000Y-66300000D03*
X74200000Y-65000000D03*
X68900000Y-61600000D03*
X68000000Y-56900000D03*
X81400000Y-51400000D03*
X81400000Y-56500000D03*
X82700000Y-56600000D03*
X85800000Y-54900000D03*
X87500000Y-54900000D03*
X89300000Y-62500000D03*
X89400000Y-64200000D03*
X90000000Y-61200000D03*
X91100000Y-66200000D03*
X95400000Y-66500000D03*
X98209941Y-63477162D03*
X103300000Y-65600000D03*
X104000000Y-60500000D03*
X107389610Y-58933070D03*
X92500000Y-55800000D03*
X94200000Y-55800000D03*
X96200000Y-57200000D03*
X97291053Y-55944070D03*
X94400000Y-53800000D03*
X99400000Y-60100000D03*
X91000000Y-57400000D03*
X71200000Y-72700000D03*
X137600000Y-59000000D03*
X72579990Y-57098018D03*
X85700000Y-60400002D03*
X99600000Y-54100000D03*
X77000004Y-62800000D03*
D12*
X148400000Y-64700000D03*
X100700000Y-54100000D03*
X102000000Y-54100000D03*
X84000000Y-51300000D03*
X88200000Y-51300000D03*
X88600000Y-52400000D03*
X98500000Y-60200000D03*
D13*
X99000000Y-57000000D03*
X105500000Y-58100000D03*
X99500000Y-57200000D03*
X95200000Y-63900000D03*
X79900000Y-75400000D03*
X126500000Y-57700000D03*
X121400000Y-59900000D03*
X138100000Y-68400000D03*
X139800000Y-68700000D03*
X125100000Y-67400000D03*
D12*
X74100000Y-58700000D03*
X70400000Y-58000000D03*
X71900000Y-63800000D03*
X73400000Y-67300000D03*
X72900000Y-72900000D03*
X75600000Y-65000000D03*
X74209413Y-64252112D03*
X108685888Y-62612898D03*
X123100000Y-53500000D03*
X116500000Y-57245000D03*
X121200000Y-57245000D03*
X108154701Y-63364059D03*
X123100000Y-54500000D03*
X113000000Y-58400000D03*
X110300000Y-61900000D03*
X106900000Y-60900000D03*
X106800000Y-54000000D03*
X101100000Y-53200000D03*
X103800000Y-56000000D03*
X131900000Y-53879997D03*
X101100000Y-60200000D03*
X131900000Y-54800000D03*
X87900000Y-63200000D03*
X108100000Y-64400000D03*
X122400000Y-61500000D03*
X87600000Y-64300000D03*
X98700000Y-64100000D03*
X107298464Y-63700603D03*
X96100000Y-72100000D03*
X106400000Y-73900000D03*
X107200000Y-66500000D03*
X123100000Y-55600000D03*
X118400000Y-55955000D03*
X107900000Y-61200000D03*
X122900000Y-56600000D03*
X108100000Y-65500000D03*
X123300000Y-75200000D03*
X101300000Y-69000000D03*
X105543916Y-71256084D03*
X122411712Y-74950739D03*
X113200000Y-74500000D03*
X99954623Y-69237012D03*
X121503661Y-74802929D03*
X99191825Y-68722656D03*
X98700000Y-71700000D03*
X97600000Y-69800000D03*
X124220003Y-75200000D03*
X98299212Y-68499804D03*
D13*
X76196000Y-63700000D03*
D12*
X144400000Y-64700000D03*
X142400000Y-64700000D03*
X140400000Y-64700000D03*
X138400000Y-64700000D03*
X136400000Y-64700000D03*
X134400000Y-64700000D03*
X132400000Y-64700000D03*
X130400000Y-64700000D03*
X128400000Y-64700000D03*
X126400000Y-64700000D03*
X124400000Y-64700000D03*
X122400000Y-64700000D03*
X120400000Y-64700000D03*
X118400000Y-64700000D03*
X116400000Y-64700000D03*
X111900000Y-64700000D03*
X111900000Y-67200000D03*
X111900000Y-69200000D03*
X111900000Y-71200000D03*
X111900000Y-73200000D03*
X147400000Y-73700000D03*
X147400000Y-75700000D03*
X146400000Y-76700000D03*
X144400000Y-76700000D03*
X142400000Y-76700000D03*
X140400000Y-76700000D03*
X138400000Y-76700000D03*
X136400000Y-76700000D03*
X134400000Y-76700000D03*
X132400000Y-76700000D03*
X130400000Y-76700000D03*
X128400000Y-76700000D03*
X126400000Y-76700000D03*
X124400000Y-76700000D03*
X147400000Y-53700000D03*
X147400000Y-51700000D03*
X146400000Y-50700000D03*
X144400000Y-50700000D03*
X142400000Y-50700000D03*
X140400000Y-50700000D03*
X138400000Y-50700000D03*
X136400000Y-50700000D03*
X134400000Y-50700000D03*
X132400000Y-50700000D03*
X130400000Y-50700000D03*
X128400000Y-50700000D03*
X126400000Y-50700000D03*
X124400000Y-50700000D03*
X122400000Y-50700000D03*
X120400000Y-50700000D03*
X119800000Y-54300000D03*
X119774990Y-58325010D03*
X119774990Y-60325010D03*
X119800000Y-62700000D03*
X121400000Y-62700000D03*
X124400000Y-62700000D03*
X126400000Y-62700000D03*
X128400000Y-62700000D03*
X130400000Y-62700000D03*
X132400000Y-62700000D03*
X134400000Y-62700000D03*
X136400000Y-62700000D03*
X138400000Y-62700000D03*
X138000000Y-61300000D03*
X151600000Y-56300000D03*
X149900000Y-68300000D03*
X151300000Y-71200000D03*
X149700000Y-71100000D03*
X143300000Y-67700000D03*
X151100000Y-59100000D03*
D13*
X75750000Y-63700000D03*
D12*
X118700000Y-67200000D03*
D14*
X75775997Y-63700000D02*
X75775997Y-63139401D01*
X75775997Y-63139401D02*
X76610399Y-62304999D01*
X79920998Y-59554999D02*
X100245001Y-59554999D01*
X76610399Y-62304999D02*
X77170998Y-62304999D01*
X77170998Y-62304999D02*
X79920998Y-59554999D01*
X103400001Y-56399999D02*
X103800000Y-56000000D01*
X100245001Y-59554999D02*
X103400001Y-56399999D01*
D15*
G36*
X148592793Y-48497912D02*
G01*
X148197912Y-48892793D01*
X147887656Y-49357124D01*
X147673948Y-49873061D01*
X147565000Y-50420777D01*
X147565000Y-50979223D01*
X147673948Y-51526939D01*
X147887656Y-52042876D01*
X148197912Y-52507207D01*
X148592793Y-52902088D01*
X149057124Y-53212344D01*
X149573061Y-53426052D01*
X150120777Y-53535000D01*
X150679223Y-53535000D01*
X151226939Y-53426052D01*
X151742876Y-53212344D01*
X152207207Y-52902088D01*
X152602088Y-52507207D01*
X152740000Y-52300807D01*
X152740001Y-75099194D01*
X152602088Y-74892793D01*
X152207207Y-74497912D01*
X151742876Y-74187656D01*
X151226939Y-73973948D01*
X150679223Y-73865000D01*
X150120777Y-73865000D01*
X149573061Y-73973948D01*
X149057124Y-74187656D01*
X148592793Y-74497912D01*
X148197912Y-74892793D01*
X148141272Y-74977561D01*
X148059774Y-74896063D01*
X147890256Y-74782795D01*
X147701898Y-74704774D01*
X147677897Y-74700000D01*
X147701898Y-74695226D01*
X147890256Y-74617205D01*
X148059774Y-74503937D01*
X148203937Y-74359774D01*
X148317205Y-74190256D01*
X148395226Y-74001898D01*
X148435000Y-73801939D01*
X148435000Y-73598061D01*
X148395226Y-73398102D01*
X148317205Y-73209744D01*
X148203937Y-73040226D01*
X148059774Y-72896063D01*
X147890256Y-72782795D01*
X147701898Y-72704774D01*
X147501939Y-72665000D01*
X147298061Y-72665000D01*
X147098102Y-72704774D01*
X146909744Y-72782795D01*
X146740226Y-72896063D01*
X146596063Y-73040226D01*
X146482795Y-73209744D01*
X146404774Y-73398102D01*
X146365000Y-73598061D01*
X146365000Y-73801939D01*
X146404774Y-74001898D01*
X146482795Y-74190256D01*
X146596063Y-74359774D01*
X146740226Y-74503937D01*
X146909744Y-74617205D01*
X147098102Y-74695226D01*
X147122103Y-74700000D01*
X147098102Y-74704774D01*
X146909744Y-74782795D01*
X146740226Y-74896063D01*
X146596063Y-75040226D01*
X146482795Y-75209744D01*
X146404774Y-75398102D01*
X146365000Y-75598061D01*
X146365000Y-75665000D01*
X146298061Y-75665000D01*
X146098102Y-75704774D01*
X145909744Y-75782795D01*
X145740226Y-75896063D01*
X145596063Y-76040226D01*
X145482795Y-76209744D01*
X145404774Y-76398102D01*
X145400000Y-76422103D01*
X145395226Y-76398102D01*
X145317205Y-76209744D01*
X145203937Y-76040226D01*
X145059774Y-75896063D01*
X144890256Y-75782795D01*
X144701898Y-75704774D01*
X144501939Y-75665000D01*
X144298061Y-75665000D01*
X144098102Y-75704774D01*
X143909744Y-75782795D01*
X143740226Y-75896063D01*
X143596063Y-76040226D01*
X143482795Y-76209744D01*
X143404774Y-76398102D01*
X143400000Y-76422103D01*
X143395226Y-76398102D01*
X143317205Y-76209744D01*
X143203937Y-76040226D01*
X143059774Y-75896063D01*
X142890256Y-75782795D01*
X142701898Y-75704774D01*
X142501939Y-75665000D01*
X142298061Y-75665000D01*
X142098102Y-75704774D01*
X141909744Y-75782795D01*
X141740226Y-75896063D01*
X141596063Y-76040226D01*
X141482795Y-76209744D01*
X141404774Y-76398102D01*
X141400000Y-76422103D01*
X141395226Y-76398102D01*
X141317205Y-76209744D01*
X141203937Y-76040226D01*
X141059774Y-75896063D01*
X140890256Y-75782795D01*
X140701898Y-75704774D01*
X140501939Y-75665000D01*
X140298061Y-75665000D01*
X140098102Y-75704774D01*
X139909744Y-75782795D01*
X139740226Y-75896063D01*
X139596063Y-76040226D01*
X139482795Y-76209744D01*
X139404774Y-76398102D01*
X139400000Y-76422103D01*
X139395226Y-76398102D01*
X139317205Y-76209744D01*
X139203937Y-76040226D01*
X139059774Y-75896063D01*
X138890256Y-75782795D01*
X138701898Y-75704774D01*
X138501939Y-75665000D01*
X138298061Y-75665000D01*
X138098102Y-75704774D01*
X137909744Y-75782795D01*
X137740226Y-75896063D01*
X137596063Y-76040226D01*
X137482795Y-76209744D01*
X137404774Y-76398102D01*
X137400000Y-76422103D01*
X137395226Y-76398102D01*
X137317205Y-76209744D01*
X137203937Y-76040226D01*
X137059774Y-75896063D01*
X136890256Y-75782795D01*
X136701898Y-75704774D01*
X136501939Y-75665000D01*
X136298061Y-75665000D01*
X136098102Y-75704774D01*
X135909744Y-75782795D01*
X135740226Y-75896063D01*
X135596063Y-76040226D01*
X135482795Y-76209744D01*
X135404774Y-76398102D01*
X135400000Y-76422103D01*
X135395226Y-76398102D01*
X135317205Y-76209744D01*
X135203937Y-76040226D01*
X135059774Y-75896063D01*
X134890256Y-75782795D01*
X134701898Y-75704774D01*
X134501939Y-75665000D01*
X134298061Y-75665000D01*
X134098102Y-75704774D01*
X133909744Y-75782795D01*
X133740226Y-75896063D01*
X133596063Y-76040226D01*
X133482795Y-76209744D01*
X133404774Y-76398102D01*
X133400000Y-76422103D01*
X133395226Y-76398102D01*
X133317205Y-76209744D01*
X133203937Y-76040226D01*
X133059774Y-75896063D01*
X132890256Y-75782795D01*
X132701898Y-75704774D01*
X132501939Y-75665000D01*
X132298061Y-75665000D01*
X132098102Y-75704774D01*
X131909744Y-75782795D01*
X131740226Y-75896063D01*
X131596063Y-76040226D01*
X131482795Y-76209744D01*
X131404774Y-76398102D01*
X131400000Y-76422103D01*
X131395226Y-76398102D01*
X131317205Y-76209744D01*
X131203937Y-76040226D01*
X131059774Y-75896063D01*
X130890256Y-75782795D01*
X130701898Y-75704774D01*
X130501939Y-75665000D01*
X130298061Y-75665000D01*
X130098102Y-75704774D01*
X129909744Y-75782795D01*
X129740226Y-75896063D01*
X129596063Y-76040226D01*
X129482795Y-76209744D01*
X129404774Y-76398102D01*
X129400000Y-76422103D01*
X129395226Y-76398102D01*
X129317205Y-76209744D01*
X129203937Y-76040226D01*
X129059774Y-75896063D01*
X128890256Y-75782795D01*
X128701898Y-75704774D01*
X128501939Y-75665000D01*
X128298061Y-75665000D01*
X128098102Y-75704774D01*
X127909744Y-75782795D01*
X127740226Y-75896063D01*
X127596063Y-76040226D01*
X127482795Y-76209744D01*
X127404774Y-76398102D01*
X127400000Y-76422103D01*
X127395226Y-76398102D01*
X127317205Y-76209744D01*
X127203937Y-76040226D01*
X127059774Y-75896063D01*
X126890256Y-75782795D01*
X126701898Y-75704774D01*
X126501939Y-75665000D01*
X126298061Y-75665000D01*
X126098102Y-75704774D01*
X125909744Y-75782795D01*
X125740226Y-75896063D01*
X125596063Y-76040226D01*
X125482795Y-76209744D01*
X125404774Y-76398102D01*
X125400000Y-76422103D01*
X125395226Y-76398102D01*
X125317205Y-76209744D01*
X125203937Y-76040226D01*
X125059774Y-75896063D01*
X125016539Y-75867175D01*
X125023940Y-75859774D01*
X125137208Y-75690256D01*
X125215229Y-75501898D01*
X125255003Y-75301939D01*
X125255003Y-75098061D01*
X125215229Y-74898102D01*
X125137208Y-74709744D01*
X125023940Y-74540226D01*
X124879777Y-74396063D01*
X124710259Y-74282795D01*
X124521901Y-74204774D01*
X124321942Y-74165000D01*
X124118064Y-74165000D01*
X123918105Y-74204774D01*
X123760002Y-74270263D01*
X123601898Y-74204774D01*
X123401939Y-74165000D01*
X123198061Y-74165000D01*
X123107665Y-74182981D01*
X123071486Y-74146802D01*
X122901968Y-74033534D01*
X122713610Y-73955513D01*
X122513651Y-73915739D01*
X122309773Y-73915739D01*
X122109814Y-73955513D01*
X122102746Y-73958441D01*
X121993917Y-73885724D01*
X121805559Y-73807703D01*
X121605600Y-73767929D01*
X121401722Y-73767929D01*
X121201763Y-73807703D01*
X121013405Y-73885724D01*
X120843887Y-73998992D01*
X120699724Y-74143155D01*
X120586456Y-74312673D01*
X120508435Y-74501031D01*
X120468661Y-74700990D01*
X120468661Y-74904868D01*
X120508435Y-75104827D01*
X120586456Y-75293185D01*
X120699724Y-75462703D01*
X120843887Y-75606866D01*
X121013405Y-75720134D01*
X121201763Y-75798155D01*
X121401722Y-75837929D01*
X121605600Y-75837929D01*
X121805559Y-75798155D01*
X121812627Y-75795227D01*
X121921456Y-75867944D01*
X122109814Y-75945965D01*
X122309773Y-75985739D01*
X122513651Y-75985739D01*
X122604047Y-75967758D01*
X122640226Y-76003937D01*
X122809744Y-76117205D01*
X122998102Y-76195226D01*
X123198061Y-76235000D01*
X123401939Y-76235000D01*
X123478654Y-76219741D01*
X123404774Y-76398102D01*
X123365000Y-76598061D01*
X123365000Y-76801939D01*
X123404774Y-77001898D01*
X123482795Y-77190256D01*
X123596063Y-77359774D01*
X123740226Y-77503937D01*
X123909744Y-77617205D01*
X124098102Y-77695226D01*
X124298061Y-77735000D01*
X124501939Y-77735000D01*
X124701898Y-77695226D01*
X124890256Y-77617205D01*
X125059774Y-77503937D01*
X125203937Y-77359774D01*
X125317205Y-77190256D01*
X125395226Y-77001898D01*
X125400000Y-76977897D01*
X125404774Y-77001898D01*
X125482795Y-77190256D01*
X125596063Y-77359774D01*
X125740226Y-77503937D01*
X125909744Y-77617205D01*
X126098102Y-77695226D01*
X126298061Y-77735000D01*
X126501939Y-77735000D01*
X126701898Y-77695226D01*
X126890256Y-77617205D01*
X127059774Y-77503937D01*
X127203937Y-77359774D01*
X127317205Y-77190256D01*
X127395226Y-77001898D01*
X127400000Y-76977897D01*
X127404774Y-77001898D01*
X127482795Y-77190256D01*
X127596063Y-77359774D01*
X127740226Y-77503937D01*
X127909744Y-77617205D01*
X128098102Y-77695226D01*
X128298061Y-77735000D01*
X128501939Y-77735000D01*
X128701898Y-77695226D01*
X128890256Y-77617205D01*
X129059774Y-77503937D01*
X129203937Y-77359774D01*
X129317205Y-77190256D01*
X129395226Y-77001898D01*
X129400000Y-76977897D01*
X129404774Y-77001898D01*
X129482795Y-77190256D01*
X129596063Y-77359774D01*
X129740226Y-77503937D01*
X129909744Y-77617205D01*
X130098102Y-77695226D01*
X130298061Y-77735000D01*
X130501939Y-77735000D01*
X130701898Y-77695226D01*
X130890256Y-77617205D01*
X131059774Y-77503937D01*
X131203937Y-77359774D01*
X131317205Y-77190256D01*
X131395226Y-77001898D01*
X131400000Y-76977897D01*
X131404774Y-77001898D01*
X131482795Y-77190256D01*
X131596063Y-77359774D01*
X131740226Y-77503937D01*
X131909744Y-77617205D01*
X132098102Y-77695226D01*
X132298061Y-77735000D01*
X132501939Y-77735000D01*
X132701898Y-77695226D01*
X132890256Y-77617205D01*
X133059774Y-77503937D01*
X133203937Y-77359774D01*
X133317205Y-77190256D01*
X133395226Y-77001898D01*
X133400000Y-76977897D01*
X133404774Y-77001898D01*
X133482795Y-77190256D01*
X133596063Y-77359774D01*
X133740226Y-77503937D01*
X133909744Y-77617205D01*
X134098102Y-77695226D01*
X134298061Y-77735000D01*
X134501939Y-77735000D01*
X134701898Y-77695226D01*
X134890256Y-77617205D01*
X135059774Y-77503937D01*
X135203937Y-77359774D01*
X135317205Y-77190256D01*
X135395226Y-77001898D01*
X135400000Y-76977897D01*
X135404774Y-77001898D01*
X135482795Y-77190256D01*
X135596063Y-77359774D01*
X135740226Y-77503937D01*
X135909744Y-77617205D01*
X136098102Y-77695226D01*
X136298061Y-77735000D01*
X136501939Y-77735000D01*
X136701898Y-77695226D01*
X136890256Y-77617205D01*
X137059774Y-77503937D01*
X137203937Y-77359774D01*
X137317205Y-77190256D01*
X137395226Y-77001898D01*
X137400000Y-76977897D01*
X137404774Y-77001898D01*
X137482795Y-77190256D01*
X137596063Y-77359774D01*
X137740226Y-77503937D01*
X137909744Y-77617205D01*
X138098102Y-77695226D01*
X138298061Y-77735000D01*
X138501939Y-77735000D01*
X138701898Y-77695226D01*
X138890256Y-77617205D01*
X139059774Y-77503937D01*
X139203937Y-77359774D01*
X139317205Y-77190256D01*
X139395226Y-77001898D01*
X139400000Y-76977897D01*
X139404774Y-77001898D01*
X139482795Y-77190256D01*
X139596063Y-77359774D01*
X139740226Y-77503937D01*
X139909744Y-77617205D01*
X140098102Y-77695226D01*
X140298061Y-77735000D01*
X140501939Y-77735000D01*
X140701898Y-77695226D01*
X140890256Y-77617205D01*
X141059774Y-77503937D01*
X141203937Y-77359774D01*
X141317205Y-77190256D01*
X141395226Y-77001898D01*
X141400000Y-76977897D01*
X141404774Y-77001898D01*
X141482795Y-77190256D01*
X141596063Y-77359774D01*
X141740226Y-77503937D01*
X141909744Y-77617205D01*
X142098102Y-77695226D01*
X142298061Y-77735000D01*
X142501939Y-77735000D01*
X142701898Y-77695226D01*
X142890256Y-77617205D01*
X143059774Y-77503937D01*
X143203937Y-77359774D01*
X143317205Y-77190256D01*
X143395226Y-77001898D01*
X143400000Y-76977897D01*
X143404774Y-77001898D01*
X143482795Y-77190256D01*
X143596063Y-77359774D01*
X143740226Y-77503937D01*
X143909744Y-77617205D01*
X144098102Y-77695226D01*
X144298061Y-77735000D01*
X144501939Y-77735000D01*
X144701898Y-77695226D01*
X144890256Y-77617205D01*
X145059774Y-77503937D01*
X145203937Y-77359774D01*
X145317205Y-77190256D01*
X145395226Y-77001898D01*
X145400000Y-76977897D01*
X145404774Y-77001898D01*
X145482795Y-77190256D01*
X145596063Y-77359774D01*
X145740226Y-77503937D01*
X145909744Y-77617205D01*
X146098102Y-77695226D01*
X146298061Y-77735000D01*
X146501939Y-77735000D01*
X146701898Y-77695226D01*
X146890256Y-77617205D01*
X147059774Y-77503937D01*
X147203937Y-77359774D01*
X147317205Y-77190256D01*
X147395226Y-77001898D01*
X147435000Y-76801939D01*
X147435000Y-76735000D01*
X147501939Y-76735000D01*
X147565000Y-76722456D01*
X147565000Y-76979223D01*
X147673948Y-77526939D01*
X147887656Y-78042876D01*
X148197912Y-78507207D01*
X148592793Y-78902088D01*
X148799193Y-79040000D01*
X64400807Y-79040000D01*
X64607207Y-78902088D01*
X65002088Y-78507207D01*
X65312344Y-78042876D01*
X65526052Y-77526939D01*
X65635000Y-76979223D01*
X65635000Y-76420777D01*
X65526052Y-75873061D01*
X65312344Y-75357124D01*
X65289332Y-75322684D01*
X79115000Y-75322684D01*
X79115000Y-75477316D01*
X79145167Y-75628976D01*
X79204342Y-75771837D01*
X79290251Y-75900408D01*
X79399592Y-76009749D01*
X79528163Y-76095658D01*
X79671024Y-76154833D01*
X79822684Y-76185000D01*
X79977316Y-76185000D01*
X80128976Y-76154833D01*
X80271837Y-76095658D01*
X80400408Y-76009749D01*
X80509749Y-75900408D01*
X80595658Y-75771837D01*
X80654833Y-75628976D01*
X80685000Y-75477316D01*
X80685000Y-75322684D01*
X80654833Y-75171024D01*
X80595658Y-75028163D01*
X80509749Y-74899592D01*
X80400408Y-74790251D01*
X80271837Y-74704342D01*
X80128976Y-74645167D01*
X79977316Y-74615000D01*
X79822684Y-74615000D01*
X79671024Y-74645167D01*
X79528163Y-74704342D01*
X79399592Y-74790251D01*
X79290251Y-74899592D01*
X79204342Y-75028163D01*
X79145167Y-75171024D01*
X79115000Y-75322684D01*
X65289332Y-75322684D01*
X65002088Y-74892793D01*
X64607207Y-74497912D01*
X64142876Y-74187656D01*
X63626939Y-73973948D01*
X63079223Y-73865000D01*
X62520777Y-73865000D01*
X61973061Y-73973948D01*
X61457124Y-74187656D01*
X60992793Y-74497912D01*
X60597912Y-74892793D01*
X60460000Y-75099193D01*
X60460000Y-71419761D01*
X66040000Y-71419761D01*
X66040000Y-71780239D01*
X66110325Y-72133791D01*
X66248275Y-72466830D01*
X66448546Y-72766557D01*
X66703443Y-73021454D01*
X67003170Y-73221725D01*
X67336209Y-73359675D01*
X67689761Y-73430000D01*
X68050239Y-73430000D01*
X68403791Y-73359675D01*
X68736830Y-73221725D01*
X69036557Y-73021454D01*
X69259950Y-72798061D01*
X71865000Y-72798061D01*
X71865000Y-73001939D01*
X71904774Y-73201898D01*
X71982795Y-73390256D01*
X72096063Y-73559774D01*
X72240226Y-73703937D01*
X72409744Y-73817205D01*
X72598102Y-73895226D01*
X72798061Y-73935000D01*
X73001939Y-73935000D01*
X73201898Y-73895226D01*
X73390256Y-73817205D01*
X73418907Y-73798061D01*
X105365000Y-73798061D01*
X105365000Y-74001939D01*
X105404774Y-74201898D01*
X105482795Y-74390256D01*
X105596063Y-74559774D01*
X105740226Y-74703937D01*
X105909744Y-74817205D01*
X106098102Y-74895226D01*
X106298061Y-74935000D01*
X106501939Y-74935000D01*
X106701898Y-74895226D01*
X106890256Y-74817205D01*
X107059774Y-74703937D01*
X107203937Y-74559774D01*
X107317205Y-74390256D01*
X107395226Y-74201898D01*
X107435000Y-74001939D01*
X107435000Y-73798061D01*
X107395226Y-73598102D01*
X107317205Y-73409744D01*
X107203937Y-73240226D01*
X107059774Y-73096063D01*
X106890256Y-72982795D01*
X106701898Y-72904774D01*
X106501939Y-72865000D01*
X106298061Y-72865000D01*
X106098102Y-72904774D01*
X105909744Y-72982795D01*
X105740226Y-73096063D01*
X105596063Y-73240226D01*
X105482795Y-73409744D01*
X105404774Y-73598102D01*
X105365000Y-73798061D01*
X73418907Y-73798061D01*
X73559774Y-73703937D01*
X73703937Y-73559774D01*
X73817205Y-73390256D01*
X73895226Y-73201898D01*
X73935000Y-73001939D01*
X73935000Y-72798061D01*
X73895226Y-72598102D01*
X73817205Y-72409744D01*
X73703937Y-72240226D01*
X73559774Y-72096063D01*
X73413104Y-71998061D01*
X95065000Y-71998061D01*
X95065000Y-72201939D01*
X95104774Y-72401898D01*
X95182795Y-72590256D01*
X95296063Y-72759774D01*
X95440226Y-72903937D01*
X95609744Y-73017205D01*
X95798102Y-73095226D01*
X95998061Y-73135000D01*
X96201939Y-73135000D01*
X96401898Y-73095226D01*
X96590256Y-73017205D01*
X96759774Y-72903937D01*
X96903937Y-72759774D01*
X97017205Y-72590256D01*
X97095226Y-72401898D01*
X97135000Y-72201939D01*
X97135000Y-71998061D01*
X97095226Y-71798102D01*
X97017205Y-71609744D01*
X97009399Y-71598061D01*
X97665000Y-71598061D01*
X97665000Y-71801939D01*
X97704774Y-72001898D01*
X97782795Y-72190256D01*
X97896063Y-72359774D01*
X98040226Y-72503937D01*
X98209744Y-72617205D01*
X98398102Y-72695226D01*
X98598061Y-72735000D01*
X98801939Y-72735000D01*
X99001898Y-72695226D01*
X99190256Y-72617205D01*
X99359774Y-72503937D01*
X99503937Y-72359774D01*
X99617205Y-72190256D01*
X99695226Y-72001898D01*
X99735000Y-71801939D01*
X99735000Y-71598061D01*
X99695226Y-71398102D01*
X99617205Y-71209744D01*
X99580056Y-71154145D01*
X104508916Y-71154145D01*
X104508916Y-71358023D01*
X104548690Y-71557982D01*
X104626711Y-71746340D01*
X104739979Y-71915858D01*
X104884142Y-72060021D01*
X105053660Y-72173289D01*
X105242018Y-72251310D01*
X105441977Y-72291084D01*
X105645855Y-72291084D01*
X105845814Y-72251310D01*
X106034172Y-72173289D01*
X106203690Y-72060021D01*
X106347853Y-71915858D01*
X106461121Y-71746340D01*
X106539142Y-71557982D01*
X106578916Y-71358023D01*
X106578916Y-71154145D01*
X106539142Y-70954186D01*
X106461121Y-70765828D01*
X106347853Y-70596310D01*
X106203690Y-70452147D01*
X106034172Y-70338879D01*
X105845814Y-70260858D01*
X105645855Y-70221084D01*
X105441977Y-70221084D01*
X105242018Y-70260858D01*
X105053660Y-70338879D01*
X104884142Y-70452147D01*
X104739979Y-70596310D01*
X104626711Y-70765828D01*
X104548690Y-70954186D01*
X104508916Y-71154145D01*
X99580056Y-71154145D01*
X99503937Y-71040226D01*
X99359774Y-70896063D01*
X99190256Y-70782795D01*
X99001898Y-70704774D01*
X98801939Y-70665000D01*
X98598061Y-70665000D01*
X98398102Y-70704774D01*
X98209744Y-70782795D01*
X98040226Y-70896063D01*
X97896063Y-71040226D01*
X97782795Y-71209744D01*
X97704774Y-71398102D01*
X97665000Y-71598061D01*
X97009399Y-71598061D01*
X96903937Y-71440226D01*
X96759774Y-71296063D01*
X96590256Y-71182795D01*
X96401898Y-71104774D01*
X96201939Y-71065000D01*
X95998061Y-71065000D01*
X95798102Y-71104774D01*
X95609744Y-71182795D01*
X95440226Y-71296063D01*
X95296063Y-71440226D01*
X95182795Y-71609744D01*
X95104774Y-71798102D01*
X95065000Y-71998061D01*
X73413104Y-71998061D01*
X73390256Y-71982795D01*
X73201898Y-71904774D01*
X73001939Y-71865000D01*
X72798061Y-71865000D01*
X72598102Y-71904774D01*
X72409744Y-71982795D01*
X72240226Y-72096063D01*
X72096063Y-72240226D01*
X71982795Y-72409744D01*
X71904774Y-72598102D01*
X71865000Y-72798061D01*
X69259950Y-72798061D01*
X69291454Y-72766557D01*
X69491725Y-72466830D01*
X69629675Y-72133791D01*
X69700000Y-71780239D01*
X69700000Y-71419761D01*
X69629675Y-71066209D01*
X69491725Y-70733170D01*
X69291454Y-70433443D01*
X69036557Y-70178546D01*
X68736830Y-69978275D01*
X68403791Y-69840325D01*
X68050239Y-69770000D01*
X67689761Y-69770000D01*
X67336209Y-69840325D01*
X67003170Y-69978275D01*
X66703443Y-70178546D01*
X66448546Y-70433443D01*
X66248275Y-70733170D01*
X66110325Y-71066209D01*
X66040000Y-71419761D01*
X60460000Y-71419761D01*
X60460000Y-69698061D01*
X96565000Y-69698061D01*
X96565000Y-69901939D01*
X96604774Y-70101898D01*
X96682795Y-70290256D01*
X96796063Y-70459774D01*
X96940226Y-70603937D01*
X97109744Y-70717205D01*
X97298102Y-70795226D01*
X97498061Y-70835000D01*
X97701939Y-70835000D01*
X97901898Y-70795226D01*
X98090256Y-70717205D01*
X98259774Y-70603937D01*
X98403937Y-70459774D01*
X98517205Y-70290256D01*
X98595226Y-70101898D01*
X98635000Y-69901939D01*
X98635000Y-69698061D01*
X98611445Y-69579642D01*
X98701569Y-69639861D01*
X98889927Y-69717882D01*
X99052793Y-69750278D01*
X99150686Y-69896786D01*
X99294849Y-70040949D01*
X99464367Y-70154217D01*
X99652725Y-70232238D01*
X99852684Y-70272012D01*
X100056562Y-70272012D01*
X100256521Y-70232238D01*
X100444879Y-70154217D01*
X100614397Y-70040949D01*
X100758560Y-69896786D01*
X100764926Y-69887259D01*
X100809744Y-69917205D01*
X100998102Y-69995226D01*
X101198061Y-70035000D01*
X101401939Y-70035000D01*
X101601898Y-69995226D01*
X101790256Y-69917205D01*
X101959774Y-69803937D01*
X102103937Y-69659774D01*
X102217205Y-69490256D01*
X102295226Y-69301898D01*
X102335000Y-69101939D01*
X102335000Y-68898061D01*
X102295226Y-68698102D01*
X102217205Y-68509744D01*
X102103937Y-68340226D01*
X101959774Y-68196063D01*
X101790256Y-68082795D01*
X101601898Y-68004774D01*
X101401939Y-67965000D01*
X101198061Y-67965000D01*
X100998102Y-68004774D01*
X100809744Y-68082795D01*
X100640226Y-68196063D01*
X100496063Y-68340226D01*
X100489697Y-68349753D01*
X100444879Y-68319807D01*
X100256521Y-68241786D01*
X100093655Y-68209390D01*
X99995762Y-68062882D01*
X99851599Y-67918719D01*
X99682081Y-67805451D01*
X99493723Y-67727430D01*
X99293764Y-67687656D01*
X99089886Y-67687656D01*
X98973855Y-67710736D01*
X98958986Y-67695867D01*
X98789468Y-67582599D01*
X98601110Y-67504578D01*
X98401151Y-67464804D01*
X98197273Y-67464804D01*
X97997314Y-67504578D01*
X97808956Y-67582599D01*
X97639438Y-67695867D01*
X97495275Y-67840030D01*
X97382007Y-68009548D01*
X97303986Y-68197906D01*
X97264212Y-68397865D01*
X97264212Y-68601743D01*
X97303986Y-68801702D01*
X97304714Y-68803459D01*
X97298102Y-68804774D01*
X97109744Y-68882795D01*
X96940226Y-68996063D01*
X96796063Y-69140226D01*
X96682795Y-69309744D01*
X96604774Y-69498102D01*
X96565000Y-69698061D01*
X60460000Y-69698061D01*
X60460000Y-67198061D01*
X72365000Y-67198061D01*
X72365000Y-67401939D01*
X72404774Y-67601898D01*
X72482795Y-67790256D01*
X72596063Y-67959774D01*
X72740226Y-68103937D01*
X72909744Y-68217205D01*
X73098102Y-68295226D01*
X73298061Y-68335000D01*
X73501939Y-68335000D01*
X73701898Y-68295226D01*
X73890256Y-68217205D01*
X74059774Y-68103937D01*
X74203937Y-67959774D01*
X74317205Y-67790256D01*
X74395226Y-67601898D01*
X74435000Y-67401939D01*
X74435000Y-67198061D01*
X74395226Y-66998102D01*
X74317205Y-66809744D01*
X74203937Y-66640226D01*
X74059774Y-66496063D01*
X73890256Y-66382795D01*
X73701898Y-66304774D01*
X73501939Y-66265000D01*
X73298061Y-66265000D01*
X73098102Y-66304774D01*
X72909744Y-66382795D01*
X72740226Y-66496063D01*
X72596063Y-66640226D01*
X72482795Y-66809744D01*
X72404774Y-66998102D01*
X72365000Y-67198061D01*
X60460000Y-67198061D01*
X60460000Y-63698061D01*
X70865000Y-63698061D01*
X70865000Y-63901939D01*
X70904774Y-64101898D01*
X70982795Y-64290256D01*
X71096063Y-64459774D01*
X71240226Y-64603937D01*
X71409744Y-64717205D01*
X71598102Y-64795226D01*
X71798061Y-64835000D01*
X72001939Y-64835000D01*
X72201898Y-64795226D01*
X72390256Y-64717205D01*
X72559774Y-64603937D01*
X72703937Y-64459774D01*
X72817205Y-64290256D01*
X72875229Y-64150173D01*
X73174413Y-64150173D01*
X73174413Y-64354051D01*
X73214187Y-64554010D01*
X73292208Y-64742368D01*
X73405476Y-64911886D01*
X73549639Y-65056049D01*
X73719157Y-65169317D01*
X73907515Y-65247338D01*
X74107474Y-65287112D01*
X74311352Y-65287112D01*
X74511311Y-65247338D01*
X74587633Y-65215724D01*
X74604774Y-65301898D01*
X74682795Y-65490256D01*
X74796063Y-65659774D01*
X74940226Y-65803937D01*
X75109744Y-65917205D01*
X75298102Y-65995226D01*
X75498061Y-66035000D01*
X75701939Y-66035000D01*
X75901898Y-65995226D01*
X76090256Y-65917205D01*
X76259774Y-65803937D01*
X76403937Y-65659774D01*
X76517205Y-65490256D01*
X76595226Y-65301898D01*
X76635000Y-65101939D01*
X76635000Y-64898061D01*
X76595226Y-64698102D01*
X76517205Y-64509744D01*
X76468475Y-64436815D01*
X76567837Y-64395658D01*
X76696408Y-64309749D01*
X76805749Y-64200408D01*
X76807317Y-64198061D01*
X86565000Y-64198061D01*
X86565000Y-64401939D01*
X86604774Y-64601898D01*
X86682795Y-64790256D01*
X86796063Y-64959774D01*
X86940226Y-65103937D01*
X87109744Y-65217205D01*
X87298102Y-65295226D01*
X87498061Y-65335000D01*
X87701939Y-65335000D01*
X87901898Y-65295226D01*
X88090256Y-65217205D01*
X88259774Y-65103937D01*
X88403937Y-64959774D01*
X88517205Y-64790256D01*
X88595226Y-64601898D01*
X88635000Y-64401939D01*
X88635000Y-64198061D01*
X88595226Y-63998102D01*
X88586551Y-63977160D01*
X88703937Y-63859774D01*
X88817205Y-63690256D01*
X88895226Y-63501898D01*
X88935000Y-63301939D01*
X88935000Y-63098061D01*
X88895226Y-62898102D01*
X88817205Y-62709744D01*
X88703937Y-62540226D01*
X88559774Y-62396063D01*
X88390256Y-62282795D01*
X88201898Y-62204774D01*
X88001939Y-62165000D01*
X87798061Y-62165000D01*
X87598102Y-62204774D01*
X87409744Y-62282795D01*
X87240226Y-62396063D01*
X87096063Y-62540226D01*
X86982795Y-62709744D01*
X86904774Y-62898102D01*
X86865000Y-63098061D01*
X86865000Y-63301939D01*
X86904774Y-63501898D01*
X86913449Y-63522840D01*
X86796063Y-63640226D01*
X86682795Y-63809744D01*
X86604774Y-63998102D01*
X86565000Y-64198061D01*
X76807317Y-64198061D01*
X76891658Y-64071837D01*
X76950833Y-63928976D01*
X76981000Y-63777316D01*
X76981000Y-63622684D01*
X76950833Y-63471024D01*
X76891658Y-63328163D01*
X76805749Y-63199592D01*
X76798178Y-63192021D01*
X76925201Y-63064999D01*
X77133676Y-63064999D01*
X77170998Y-63068675D01*
X77208320Y-63064999D01*
X77208331Y-63064999D01*
X77319984Y-63054002D01*
X77463245Y-63010545D01*
X77595274Y-62939973D01*
X77710999Y-62845000D01*
X77734802Y-62815996D01*
X80235800Y-60314999D01*
X91448887Y-60314999D01*
X91473981Y-60515752D01*
X91482667Y-60548601D01*
X91494403Y-60570557D01*
X91510197Y-60589803D01*
X91529443Y-60605597D01*
X91551399Y-60617333D01*
X91575224Y-60624560D01*
X91600000Y-60627000D01*
X92257667Y-60627000D01*
X92452333Y-60773000D01*
X92100000Y-60773000D01*
X92064654Y-60778018D01*
X92041535Y-60787257D01*
X92020664Y-60800830D01*
X92002841Y-60818213D01*
X91988752Y-60838739D01*
X91978938Y-60861620D01*
X91973777Y-60885975D01*
X91873777Y-61785975D01*
X91873630Y-61787363D01*
X91773630Y-62787363D01*
X91773070Y-62804231D01*
X91873070Y-65804231D01*
X91874918Y-65821990D01*
X91881612Y-65845970D01*
X91892855Y-65868183D01*
X91908216Y-65887776D01*
X91927103Y-65903996D01*
X91948793Y-65916219D01*
X91972450Y-65923976D01*
X92872450Y-66123976D01*
X92887363Y-66126370D01*
X92912259Y-66126407D01*
X92936685Y-66121586D01*
X92959700Y-66112093D01*
X92980421Y-66098293D01*
X92998052Y-66080715D01*
X93011914Y-66060035D01*
X93021476Y-66037048D01*
X93026370Y-66012637D01*
X93114934Y-65127000D01*
X94100000Y-65127000D01*
X94124776Y-65124560D01*
X94148601Y-65117333D01*
X94170557Y-65105597D01*
X94189803Y-65089803D01*
X94205597Y-65070557D01*
X94217333Y-65048601D01*
X94224560Y-65024776D01*
X94227000Y-65000000D01*
X94227000Y-64461039D01*
X94494177Y-64247297D01*
X94504342Y-64271837D01*
X94590251Y-64400408D01*
X94699592Y-64509749D01*
X94828163Y-64595658D01*
X94971024Y-64654833D01*
X95122684Y-64685000D01*
X95277316Y-64685000D01*
X95428976Y-64654833D01*
X95571837Y-64595658D01*
X95700408Y-64509749D01*
X95809749Y-64400408D01*
X95895658Y-64271837D01*
X95954833Y-64128976D01*
X95980873Y-63998061D01*
X97665000Y-63998061D01*
X97665000Y-64201939D01*
X97704774Y-64401898D01*
X97782795Y-64590256D01*
X97896063Y-64759774D01*
X98040226Y-64903937D01*
X98209744Y-65017205D01*
X98398102Y-65095226D01*
X98598061Y-65135000D01*
X98801939Y-65135000D01*
X99001898Y-65095226D01*
X99190256Y-65017205D01*
X99359774Y-64903937D01*
X99503937Y-64759774D01*
X99617205Y-64590256D01*
X99695226Y-64401898D01*
X99735000Y-64201939D01*
X99735000Y-63998061D01*
X99695226Y-63798102D01*
X99617205Y-63609744D01*
X99503937Y-63440226D01*
X99359774Y-63296063D01*
X99190256Y-63182795D01*
X99001898Y-63104774D01*
X98801939Y-63065000D01*
X98598061Y-63065000D01*
X98398102Y-63104774D01*
X98209744Y-63182795D01*
X98040226Y-63296063D01*
X97896063Y-63440226D01*
X97782795Y-63609744D01*
X97704774Y-63798102D01*
X97665000Y-63998061D01*
X95980873Y-63998061D01*
X95985000Y-63977316D01*
X95985000Y-63822684D01*
X95954833Y-63671024D01*
X95895658Y-63528163D01*
X95809749Y-63399592D01*
X95700408Y-63290251D01*
X95571837Y-63204342D01*
X95428976Y-63145167D01*
X95277316Y-63115000D01*
X95122684Y-63115000D01*
X94971024Y-63145167D01*
X94828163Y-63204342D01*
X94699592Y-63290251D01*
X94645972Y-63343871D01*
X94633723Y-63245883D01*
X95052606Y-62827000D01*
X98100000Y-62827000D01*
X98112637Y-62826370D01*
X98137048Y-62821476D01*
X98160035Y-62811914D01*
X98180715Y-62798052D01*
X98198293Y-62780421D01*
X98212093Y-62759700D01*
X98221586Y-62736685D01*
X98226407Y-62712259D01*
X98226370Y-62687363D01*
X98140334Y-61827000D01*
X98200000Y-61827000D01*
X98224776Y-61824560D01*
X98248601Y-61817333D01*
X98270557Y-61805597D01*
X98289803Y-61789803D01*
X98305597Y-61770557D01*
X98317333Y-61748601D01*
X98324560Y-61724776D01*
X98327000Y-61700000D01*
X98327000Y-61220865D01*
X98398061Y-61235000D01*
X98601939Y-61235000D01*
X98801898Y-61195226D01*
X98990256Y-61117205D01*
X99159774Y-61003937D01*
X99303937Y-60859774D01*
X99417205Y-60690256D01*
X99495226Y-60501898D01*
X99532402Y-60314999D01*
X100067598Y-60314999D01*
X100104774Y-60501898D01*
X100182795Y-60690256D01*
X100296063Y-60859774D01*
X100440226Y-61003937D01*
X100609744Y-61117205D01*
X100798102Y-61195226D01*
X100998061Y-61235000D01*
X101201939Y-61235000D01*
X101401898Y-61195226D01*
X101590256Y-61117205D01*
X101759774Y-61003937D01*
X101903937Y-60859774D01*
X101945172Y-60798061D01*
X105865000Y-60798061D01*
X105865000Y-61001939D01*
X105904774Y-61201898D01*
X105982795Y-61390256D01*
X106096063Y-61559774D01*
X106240226Y-61703937D01*
X106409744Y-61817205D01*
X106598102Y-61895226D01*
X106798061Y-61935000D01*
X107001939Y-61935000D01*
X107143192Y-61906903D01*
X107240226Y-62003937D01*
X107409744Y-62117205D01*
X107598102Y-62195226D01*
X107727921Y-62221048D01*
X107690662Y-62311000D01*
X107663516Y-62447475D01*
X107494927Y-62560122D01*
X107389446Y-62665603D01*
X107196525Y-62665603D01*
X106996566Y-62705377D01*
X106808208Y-62783398D01*
X106638690Y-62896666D01*
X106494527Y-63040829D01*
X106381259Y-63210347D01*
X106303238Y-63398705D01*
X106263464Y-63598664D01*
X106263464Y-63802542D01*
X106303238Y-64002501D01*
X106381259Y-64190859D01*
X106494527Y-64360377D01*
X106638690Y-64504540D01*
X106808208Y-64617808D01*
X106996566Y-64695829D01*
X107111750Y-64718740D01*
X107182795Y-64890256D01*
X107222715Y-64950000D01*
X107182795Y-65009744D01*
X107104774Y-65198102D01*
X107065000Y-65398061D01*
X107065000Y-65471576D01*
X106898102Y-65504774D01*
X106709744Y-65582795D01*
X106540226Y-65696063D01*
X106396063Y-65840226D01*
X106282795Y-66009744D01*
X106204774Y-66198102D01*
X106165000Y-66398061D01*
X106165000Y-66601939D01*
X106204774Y-66801898D01*
X106282795Y-66990256D01*
X106396063Y-67159774D01*
X106540226Y-67303937D01*
X106709744Y-67417205D01*
X106898102Y-67495226D01*
X107098061Y-67535000D01*
X107301939Y-67535000D01*
X107501898Y-67495226D01*
X107690256Y-67417205D01*
X107859774Y-67303937D01*
X108003937Y-67159774D01*
X108045172Y-67098061D01*
X110865000Y-67098061D01*
X110865000Y-67301939D01*
X110904774Y-67501898D01*
X110982795Y-67690256D01*
X111096063Y-67859774D01*
X111240226Y-68003937D01*
X111409744Y-68117205D01*
X111598102Y-68195226D01*
X111622103Y-68200000D01*
X111598102Y-68204774D01*
X111409744Y-68282795D01*
X111240226Y-68396063D01*
X111096063Y-68540226D01*
X110982795Y-68709744D01*
X110904774Y-68898102D01*
X110865000Y-69098061D01*
X110865000Y-69301939D01*
X110904774Y-69501898D01*
X110982795Y-69690256D01*
X111096063Y-69859774D01*
X111240226Y-70003937D01*
X111409744Y-70117205D01*
X111598102Y-70195226D01*
X111622103Y-70200000D01*
X111598102Y-70204774D01*
X111409744Y-70282795D01*
X111240226Y-70396063D01*
X111096063Y-70540226D01*
X110982795Y-70709744D01*
X110904774Y-70898102D01*
X110865000Y-71098061D01*
X110865000Y-71301939D01*
X110904774Y-71501898D01*
X110982795Y-71690256D01*
X111096063Y-71859774D01*
X111240226Y-72003937D01*
X111409744Y-72117205D01*
X111598102Y-72195226D01*
X111622103Y-72200000D01*
X111598102Y-72204774D01*
X111409744Y-72282795D01*
X111240226Y-72396063D01*
X111096063Y-72540226D01*
X110982795Y-72709744D01*
X110904774Y-72898102D01*
X110865000Y-73098061D01*
X110865000Y-73301939D01*
X110904774Y-73501898D01*
X110982795Y-73690256D01*
X111096063Y-73859774D01*
X111240226Y-74003937D01*
X111409744Y-74117205D01*
X111598102Y-74195226D01*
X111798061Y-74235000D01*
X112001939Y-74235000D01*
X112201898Y-74195226D01*
X112206808Y-74193192D01*
X112204774Y-74198102D01*
X112165000Y-74398061D01*
X112165000Y-74601939D01*
X112204774Y-74801898D01*
X112282795Y-74990256D01*
X112396063Y-75159774D01*
X112540226Y-75303937D01*
X112709744Y-75417205D01*
X112898102Y-75495226D01*
X113098061Y-75535000D01*
X113301939Y-75535000D01*
X113501898Y-75495226D01*
X113690256Y-75417205D01*
X113859774Y-75303937D01*
X114003937Y-75159774D01*
X114117205Y-74990256D01*
X114195226Y-74801898D01*
X114235000Y-74601939D01*
X114235000Y-74398061D01*
X114195226Y-74198102D01*
X114117205Y-74009744D01*
X114003937Y-73840226D01*
X113859774Y-73696063D01*
X113690256Y-73582795D01*
X113501898Y-73504774D01*
X113301939Y-73465000D01*
X113098061Y-73465000D01*
X112898102Y-73504774D01*
X112893192Y-73506808D01*
X112895226Y-73501898D01*
X112935000Y-73301939D01*
X112935000Y-73098061D01*
X112895226Y-72898102D01*
X112817205Y-72709744D01*
X112703937Y-72540226D01*
X112559774Y-72396063D01*
X112390256Y-72282795D01*
X112201898Y-72204774D01*
X112177897Y-72200000D01*
X112201898Y-72195226D01*
X112390256Y-72117205D01*
X112559774Y-72003937D01*
X112703937Y-71859774D01*
X112817205Y-71690256D01*
X112895226Y-71501898D01*
X112921947Y-71367560D01*
X129040000Y-71367560D01*
X129040000Y-71832440D01*
X129130694Y-72288387D01*
X129308595Y-72717879D01*
X129566868Y-73104412D01*
X129895588Y-73433132D01*
X130282121Y-73691405D01*
X130711613Y-73869306D01*
X131167560Y-73960000D01*
X131632440Y-73960000D01*
X132088387Y-73869306D01*
X132517879Y-73691405D01*
X132904412Y-73433132D01*
X133233132Y-73104412D01*
X133491405Y-72717879D01*
X133669306Y-72288387D01*
X133760000Y-71832440D01*
X133760000Y-71367560D01*
X133669306Y-70911613D01*
X133491405Y-70482121D01*
X133233132Y-70095588D01*
X132904412Y-69766868D01*
X132517879Y-69508595D01*
X132088387Y-69330694D01*
X131632440Y-69240000D01*
X131167560Y-69240000D01*
X130711613Y-69330694D01*
X130282121Y-69508595D01*
X129895588Y-69766868D01*
X129566868Y-70095588D01*
X129308595Y-70482121D01*
X129130694Y-70911613D01*
X129040000Y-71367560D01*
X112921947Y-71367560D01*
X112935000Y-71301939D01*
X112935000Y-71098061D01*
X112895226Y-70898102D01*
X112817205Y-70709744D01*
X112703937Y-70540226D01*
X112559774Y-70396063D01*
X112390256Y-70282795D01*
X112201898Y-70204774D01*
X112177897Y-70200000D01*
X112201898Y-70195226D01*
X112390256Y-70117205D01*
X112559774Y-70003937D01*
X112703937Y-69859774D01*
X112817205Y-69690256D01*
X112895226Y-69501898D01*
X112935000Y-69301939D01*
X112935000Y-69098061D01*
X112895226Y-68898102D01*
X112817205Y-68709744D01*
X112703937Y-68540226D01*
X112559774Y-68396063D01*
X112449955Y-68322684D01*
X137315000Y-68322684D01*
X137315000Y-68477316D01*
X137345167Y-68628976D01*
X137404342Y-68771837D01*
X137490251Y-68900408D01*
X137599592Y-69009749D01*
X137728163Y-69095658D01*
X137871024Y-69154833D01*
X138022684Y-69185000D01*
X138177316Y-69185000D01*
X138328976Y-69154833D01*
X138471837Y-69095658D01*
X138600408Y-69009749D01*
X138709749Y-68900408D01*
X138795658Y-68771837D01*
X138854833Y-68628976D01*
X138856084Y-68622684D01*
X139015000Y-68622684D01*
X139015000Y-68777316D01*
X139045167Y-68928976D01*
X139104342Y-69071837D01*
X139190251Y-69200408D01*
X139299592Y-69309749D01*
X139428163Y-69395658D01*
X139571024Y-69454833D01*
X139722684Y-69485000D01*
X139877316Y-69485000D01*
X140028976Y-69454833D01*
X140171837Y-69395658D01*
X140300408Y-69309749D01*
X140409749Y-69200408D01*
X140495658Y-69071837D01*
X140554833Y-68928976D01*
X140585000Y-68777316D01*
X140585000Y-68622684D01*
X140554833Y-68471024D01*
X140495658Y-68328163D01*
X140409749Y-68199592D01*
X140300408Y-68090251D01*
X140171837Y-68004342D01*
X140028976Y-67945167D01*
X139877316Y-67915000D01*
X139722684Y-67915000D01*
X139571024Y-67945167D01*
X139428163Y-68004342D01*
X139299592Y-68090251D01*
X139190251Y-68199592D01*
X139104342Y-68328163D01*
X139045167Y-68471024D01*
X139015000Y-68622684D01*
X138856084Y-68622684D01*
X138885000Y-68477316D01*
X138885000Y-68322684D01*
X138854833Y-68171024D01*
X138795658Y-68028163D01*
X138709749Y-67899592D01*
X138600408Y-67790251D01*
X138471837Y-67704342D01*
X138328976Y-67645167D01*
X138177316Y-67615000D01*
X138022684Y-67615000D01*
X137871024Y-67645167D01*
X137728163Y-67704342D01*
X137599592Y-67790251D01*
X137490251Y-67899592D01*
X137404342Y-68028163D01*
X137345167Y-68171024D01*
X137315000Y-68322684D01*
X112449955Y-68322684D01*
X112390256Y-68282795D01*
X112201898Y-68204774D01*
X112177897Y-68200000D01*
X112201898Y-68195226D01*
X112390256Y-68117205D01*
X112559774Y-68003937D01*
X112703937Y-67859774D01*
X112817205Y-67690256D01*
X112895226Y-67501898D01*
X112935000Y-67301939D01*
X112935000Y-67098061D01*
X117665000Y-67098061D01*
X117665000Y-67301939D01*
X117704774Y-67501898D01*
X117782795Y-67690256D01*
X117896063Y-67859774D01*
X118040226Y-68003937D01*
X118209744Y-68117205D01*
X118398102Y-68195226D01*
X118598061Y-68235000D01*
X118801939Y-68235000D01*
X119001898Y-68195226D01*
X119190256Y-68117205D01*
X119359774Y-68003937D01*
X119503937Y-67859774D01*
X119617205Y-67690256D01*
X119695226Y-67501898D01*
X119730873Y-67322684D01*
X124315000Y-67322684D01*
X124315000Y-67477316D01*
X124345167Y-67628976D01*
X124404342Y-67771837D01*
X124490251Y-67900408D01*
X124599592Y-68009749D01*
X124728163Y-68095658D01*
X124871024Y-68154833D01*
X125022684Y-68185000D01*
X125177316Y-68185000D01*
X125328976Y-68154833D01*
X125471837Y-68095658D01*
X125600408Y-68009749D01*
X125709749Y-67900408D01*
X125795658Y-67771837D01*
X125854833Y-67628976D01*
X125885000Y-67477316D01*
X125885000Y-67322684D01*
X125854833Y-67171024D01*
X125795658Y-67028163D01*
X125709749Y-66899592D01*
X125600408Y-66790251D01*
X125471837Y-66704342D01*
X125328976Y-66645167D01*
X125177316Y-66615000D01*
X125022684Y-66615000D01*
X124871024Y-66645167D01*
X124728163Y-66704342D01*
X124599592Y-66790251D01*
X124490251Y-66899592D01*
X124404342Y-67028163D01*
X124345167Y-67171024D01*
X124315000Y-67322684D01*
X119730873Y-67322684D01*
X119735000Y-67301939D01*
X119735000Y-67098061D01*
X119695226Y-66898102D01*
X119617205Y-66709744D01*
X119503937Y-66540226D01*
X119359774Y-66396063D01*
X119190256Y-66282795D01*
X119001898Y-66204774D01*
X118801939Y-66165000D01*
X118598061Y-66165000D01*
X118398102Y-66204774D01*
X118209744Y-66282795D01*
X118040226Y-66396063D01*
X117896063Y-66540226D01*
X117782795Y-66709744D01*
X117704774Y-66898102D01*
X117665000Y-67098061D01*
X112935000Y-67098061D01*
X112895226Y-66898102D01*
X112817205Y-66709744D01*
X112703937Y-66540226D01*
X112559774Y-66396063D01*
X112390256Y-66282795D01*
X112201898Y-66204774D01*
X112001939Y-66165000D01*
X111798061Y-66165000D01*
X111598102Y-66204774D01*
X111409744Y-66282795D01*
X111240226Y-66396063D01*
X111096063Y-66540226D01*
X110982795Y-66709744D01*
X110904774Y-66898102D01*
X110865000Y-67098061D01*
X108045172Y-67098061D01*
X108117205Y-66990256D01*
X108195226Y-66801898D01*
X108235000Y-66601939D01*
X108235000Y-66528424D01*
X108401898Y-66495226D01*
X108590256Y-66417205D01*
X108759774Y-66303937D01*
X108903937Y-66159774D01*
X109017205Y-65990256D01*
X109095226Y-65801898D01*
X109135000Y-65601939D01*
X109135000Y-65398061D01*
X109095226Y-65198102D01*
X109017205Y-65009744D01*
X108977285Y-64950000D01*
X109017205Y-64890256D01*
X109095226Y-64701898D01*
X109115880Y-64598061D01*
X110865000Y-64598061D01*
X110865000Y-64801939D01*
X110904774Y-65001898D01*
X110982795Y-65190256D01*
X111096063Y-65359774D01*
X111240226Y-65503937D01*
X111409744Y-65617205D01*
X111598102Y-65695226D01*
X111798061Y-65735000D01*
X112001939Y-65735000D01*
X112201898Y-65695226D01*
X112390256Y-65617205D01*
X112559774Y-65503937D01*
X112703937Y-65359774D01*
X112817205Y-65190256D01*
X112895226Y-65001898D01*
X112935000Y-64801939D01*
X112935000Y-64598061D01*
X113365000Y-64598061D01*
X113365000Y-64801939D01*
X113404774Y-65001898D01*
X113482795Y-65190256D01*
X113596063Y-65359774D01*
X113740226Y-65503937D01*
X113909744Y-65617205D01*
X114098102Y-65695226D01*
X114298061Y-65735000D01*
X114501939Y-65735000D01*
X114701898Y-65695226D01*
X114890256Y-65617205D01*
X115059774Y-65503937D01*
X115203937Y-65359774D01*
X115317205Y-65190256D01*
X115395226Y-65001898D01*
X115400000Y-64977897D01*
X115404774Y-65001898D01*
X115482795Y-65190256D01*
X115596063Y-65359774D01*
X115740226Y-65503937D01*
X115909744Y-65617205D01*
X116098102Y-65695226D01*
X116298061Y-65735000D01*
X116501939Y-65735000D01*
X116701898Y-65695226D01*
X116890256Y-65617205D01*
X117059774Y-65503937D01*
X117203937Y-65359774D01*
X117317205Y-65190256D01*
X117395226Y-65001898D01*
X117400000Y-64977897D01*
X117404774Y-65001898D01*
X117482795Y-65190256D01*
X117596063Y-65359774D01*
X117740226Y-65503937D01*
X117909744Y-65617205D01*
X118098102Y-65695226D01*
X118298061Y-65735000D01*
X118501939Y-65735000D01*
X118701898Y-65695226D01*
X118890256Y-65617205D01*
X119059774Y-65503937D01*
X119203937Y-65359774D01*
X119317205Y-65190256D01*
X119395226Y-65001898D01*
X119400000Y-64977897D01*
X119404774Y-65001898D01*
X119482795Y-65190256D01*
X119596063Y-65359774D01*
X119740226Y-65503937D01*
X119909744Y-65617205D01*
X120098102Y-65695226D01*
X120298061Y-65735000D01*
X120501939Y-65735000D01*
X120701898Y-65695226D01*
X120890256Y-65617205D01*
X121059774Y-65503937D01*
X121203937Y-65359774D01*
X121317205Y-65190256D01*
X121395226Y-65001898D01*
X121400000Y-64977897D01*
X121404774Y-65001898D01*
X121482795Y-65190256D01*
X121596063Y-65359774D01*
X121740226Y-65503937D01*
X121909744Y-65617205D01*
X122098102Y-65695226D01*
X122298061Y-65735000D01*
X122501939Y-65735000D01*
X122701898Y-65695226D01*
X122890256Y-65617205D01*
X123059774Y-65503937D01*
X123203937Y-65359774D01*
X123317205Y-65190256D01*
X123395226Y-65001898D01*
X123400000Y-64977897D01*
X123404774Y-65001898D01*
X123482795Y-65190256D01*
X123596063Y-65359774D01*
X123740226Y-65503937D01*
X123909744Y-65617205D01*
X124098102Y-65695226D01*
X124298061Y-65735000D01*
X124501939Y-65735000D01*
X124701898Y-65695226D01*
X124890256Y-65617205D01*
X125059774Y-65503937D01*
X125203937Y-65359774D01*
X125317205Y-65190256D01*
X125395226Y-65001898D01*
X125400000Y-64977897D01*
X125404774Y-65001898D01*
X125482795Y-65190256D01*
X125596063Y-65359774D01*
X125740226Y-65503937D01*
X125909744Y-65617205D01*
X126098102Y-65695226D01*
X126298061Y-65735000D01*
X126501939Y-65735000D01*
X126701898Y-65695226D01*
X126890256Y-65617205D01*
X127059774Y-65503937D01*
X127203937Y-65359774D01*
X127317205Y-65190256D01*
X127395226Y-65001898D01*
X127400000Y-64977897D01*
X127404774Y-65001898D01*
X127482795Y-65190256D01*
X127596063Y-65359774D01*
X127740226Y-65503937D01*
X127909744Y-65617205D01*
X128098102Y-65695226D01*
X128298061Y-65735000D01*
X128501939Y-65735000D01*
X128701898Y-65695226D01*
X128890256Y-65617205D01*
X129059774Y-65503937D01*
X129203937Y-65359774D01*
X129317205Y-65190256D01*
X129395226Y-65001898D01*
X129400000Y-64977897D01*
X129404774Y-65001898D01*
X129482795Y-65190256D01*
X129596063Y-65359774D01*
X129740226Y-65503937D01*
X129909744Y-65617205D01*
X130098102Y-65695226D01*
X130298061Y-65735000D01*
X130501939Y-65735000D01*
X130701898Y-65695226D01*
X130890256Y-65617205D01*
X131059774Y-65503937D01*
X131203937Y-65359774D01*
X131317205Y-65190256D01*
X131395226Y-65001898D01*
X131400000Y-64977897D01*
X131404774Y-65001898D01*
X131482795Y-65190256D01*
X131596063Y-65359774D01*
X131740226Y-65503937D01*
X131909744Y-65617205D01*
X132098102Y-65695226D01*
X132298061Y-65735000D01*
X132501939Y-65735000D01*
X132701898Y-65695226D01*
X132890256Y-65617205D01*
X133059774Y-65503937D01*
X133203937Y-65359774D01*
X133317205Y-65190256D01*
X133395226Y-65001898D01*
X133400000Y-64977897D01*
X133404774Y-65001898D01*
X133482795Y-65190256D01*
X133596063Y-65359774D01*
X133740226Y-65503937D01*
X133909744Y-65617205D01*
X134098102Y-65695226D01*
X134298061Y-65735000D01*
X134501939Y-65735000D01*
X134701898Y-65695226D01*
X134890256Y-65617205D01*
X135059774Y-65503937D01*
X135203937Y-65359774D01*
X135317205Y-65190256D01*
X135395226Y-65001898D01*
X135400000Y-64977897D01*
X135404774Y-65001898D01*
X135482795Y-65190256D01*
X135596063Y-65359774D01*
X135740226Y-65503937D01*
X135909744Y-65617205D01*
X136098102Y-65695226D01*
X136298061Y-65735000D01*
X136501939Y-65735000D01*
X136701898Y-65695226D01*
X136890256Y-65617205D01*
X137059774Y-65503937D01*
X137203937Y-65359774D01*
X137317205Y-65190256D01*
X137395226Y-65001898D01*
X137400000Y-64977897D01*
X137404774Y-65001898D01*
X137482795Y-65190256D01*
X137596063Y-65359774D01*
X137740226Y-65503937D01*
X137909744Y-65617205D01*
X138098102Y-65695226D01*
X138298061Y-65735000D01*
X138501939Y-65735000D01*
X138701898Y-65695226D01*
X138890256Y-65617205D01*
X139059774Y-65503937D01*
X139203937Y-65359774D01*
X139317205Y-65190256D01*
X139395226Y-65001898D01*
X139400000Y-64977897D01*
X139404774Y-65001898D01*
X139482795Y-65190256D01*
X139596063Y-65359774D01*
X139740226Y-65503937D01*
X139909744Y-65617205D01*
X140098102Y-65695226D01*
X140298061Y-65735000D01*
X140501939Y-65735000D01*
X140701898Y-65695226D01*
X140890256Y-65617205D01*
X141059774Y-65503937D01*
X141203937Y-65359774D01*
X141317205Y-65190256D01*
X141395226Y-65001898D01*
X141400000Y-64977897D01*
X141404774Y-65001898D01*
X141482795Y-65190256D01*
X141596063Y-65359774D01*
X141740226Y-65503937D01*
X141909744Y-65617205D01*
X142098102Y-65695226D01*
X142298061Y-65735000D01*
X142501939Y-65735000D01*
X142701898Y-65695226D01*
X142890256Y-65617205D01*
X143059774Y-65503937D01*
X143203937Y-65359774D01*
X143317205Y-65190256D01*
X143395226Y-65001898D01*
X143400000Y-64977897D01*
X143404774Y-65001898D01*
X143482795Y-65190256D01*
X143596063Y-65359774D01*
X143740226Y-65503937D01*
X143909744Y-65617205D01*
X144098102Y-65695226D01*
X144298061Y-65735000D01*
X144501939Y-65735000D01*
X144701898Y-65695226D01*
X144890256Y-65617205D01*
X145059774Y-65503937D01*
X145203937Y-65359774D01*
X145317205Y-65190256D01*
X145395226Y-65001898D01*
X145400000Y-64977897D01*
X145404774Y-65001898D01*
X145482795Y-65190256D01*
X145596063Y-65359774D01*
X145740226Y-65503937D01*
X145909744Y-65617205D01*
X146098102Y-65695226D01*
X146298061Y-65735000D01*
X146501939Y-65735000D01*
X146701898Y-65695226D01*
X146890256Y-65617205D01*
X147059774Y-65503937D01*
X147203937Y-65359774D01*
X147317205Y-65190256D01*
X147395226Y-65001898D01*
X147400000Y-64977897D01*
X147404774Y-65001898D01*
X147482795Y-65190256D01*
X147596063Y-65359774D01*
X147740226Y-65503937D01*
X147909744Y-65617205D01*
X148098102Y-65695226D01*
X148298061Y-65735000D01*
X148501939Y-65735000D01*
X148701898Y-65695226D01*
X148890256Y-65617205D01*
X149059774Y-65503937D01*
X149203937Y-65359774D01*
X149317205Y-65190256D01*
X149395226Y-65001898D01*
X149435000Y-64801939D01*
X149435000Y-64598061D01*
X149765000Y-64598061D01*
X149765000Y-64801939D01*
X149804774Y-65001898D01*
X149882795Y-65190256D01*
X149996063Y-65359774D01*
X150140226Y-65503937D01*
X150309744Y-65617205D01*
X150498102Y-65695226D01*
X150698061Y-65735000D01*
X150901939Y-65735000D01*
X151101898Y-65695226D01*
X151290256Y-65617205D01*
X151459774Y-65503937D01*
X151603937Y-65359774D01*
X151717205Y-65190256D01*
X151795226Y-65001898D01*
X151835000Y-64801939D01*
X151835000Y-64598061D01*
X151795226Y-64398102D01*
X151717205Y-64209744D01*
X151603937Y-64040226D01*
X151459774Y-63896063D01*
X151290256Y-63782795D01*
X151101898Y-63704774D01*
X150901939Y-63665000D01*
X150698061Y-63665000D01*
X150498102Y-63704774D01*
X150309744Y-63782795D01*
X150140226Y-63896063D01*
X149996063Y-64040226D01*
X149882795Y-64209744D01*
X149804774Y-64398102D01*
X149765000Y-64598061D01*
X149435000Y-64598061D01*
X149395226Y-64398102D01*
X149317205Y-64209744D01*
X149203937Y-64040226D01*
X149059774Y-63896063D01*
X148890256Y-63782795D01*
X148701898Y-63704774D01*
X148501939Y-63665000D01*
X148298061Y-63665000D01*
X148098102Y-63704774D01*
X147909744Y-63782795D01*
X147740226Y-63896063D01*
X147596063Y-64040226D01*
X147482795Y-64209744D01*
X147404774Y-64398102D01*
X147400000Y-64422103D01*
X147395226Y-64398102D01*
X147317205Y-64209744D01*
X147203937Y-64040226D01*
X147059774Y-63896063D01*
X146890256Y-63782795D01*
X146701898Y-63704774D01*
X146501939Y-63665000D01*
X146298061Y-63665000D01*
X146098102Y-63704774D01*
X145909744Y-63782795D01*
X145740226Y-63896063D01*
X145596063Y-64040226D01*
X145482795Y-64209744D01*
X145404774Y-64398102D01*
X145400000Y-64422103D01*
X145395226Y-64398102D01*
X145317205Y-64209744D01*
X145203937Y-64040226D01*
X145059774Y-63896063D01*
X144890256Y-63782795D01*
X144701898Y-63704774D01*
X144501939Y-63665000D01*
X144298061Y-63665000D01*
X144098102Y-63704774D01*
X143909744Y-63782795D01*
X143740226Y-63896063D01*
X143596063Y-64040226D01*
X143482795Y-64209744D01*
X143404774Y-64398102D01*
X143400000Y-64422103D01*
X143395226Y-64398102D01*
X143317205Y-64209744D01*
X143203937Y-64040226D01*
X143059774Y-63896063D01*
X142890256Y-63782795D01*
X142701898Y-63704774D01*
X142501939Y-63665000D01*
X142298061Y-63665000D01*
X142098102Y-63704774D01*
X141909744Y-63782795D01*
X141740226Y-63896063D01*
X141596063Y-64040226D01*
X141482795Y-64209744D01*
X141404774Y-64398102D01*
X141400000Y-64422103D01*
X141395226Y-64398102D01*
X141317205Y-64209744D01*
X141203937Y-64040226D01*
X141059774Y-63896063D01*
X140890256Y-63782795D01*
X140701898Y-63704774D01*
X140501939Y-63665000D01*
X140298061Y-63665000D01*
X140098102Y-63704774D01*
X139909744Y-63782795D01*
X139740226Y-63896063D01*
X139596063Y-64040226D01*
X139482795Y-64209744D01*
X139404774Y-64398102D01*
X139400000Y-64422103D01*
X139395226Y-64398102D01*
X139317205Y-64209744D01*
X139203937Y-64040226D01*
X139059774Y-63896063D01*
X138890256Y-63782795D01*
X138701898Y-63704774D01*
X138501939Y-63665000D01*
X138298061Y-63665000D01*
X138098102Y-63704774D01*
X137909744Y-63782795D01*
X137740226Y-63896063D01*
X137596063Y-64040226D01*
X137482795Y-64209744D01*
X137404774Y-64398102D01*
X137400000Y-64422103D01*
X137395226Y-64398102D01*
X137317205Y-64209744D01*
X137203937Y-64040226D01*
X137059774Y-63896063D01*
X136890256Y-63782795D01*
X136701898Y-63704774D01*
X136501939Y-63665000D01*
X136298061Y-63665000D01*
X136098102Y-63704774D01*
X135909744Y-63782795D01*
X135740226Y-63896063D01*
X135596063Y-64040226D01*
X135482795Y-64209744D01*
X135404774Y-64398102D01*
X135400000Y-64422103D01*
X135395226Y-64398102D01*
X135317205Y-64209744D01*
X135203937Y-64040226D01*
X135059774Y-63896063D01*
X134890256Y-63782795D01*
X134701898Y-63704774D01*
X134501939Y-63665000D01*
X134298061Y-63665000D01*
X134098102Y-63704774D01*
X133909744Y-63782795D01*
X133740226Y-63896063D01*
X133596063Y-64040226D01*
X133482795Y-64209744D01*
X133404774Y-64398102D01*
X133400000Y-64422103D01*
X133395226Y-64398102D01*
X133317205Y-64209744D01*
X133203937Y-64040226D01*
X133059774Y-63896063D01*
X132890256Y-63782795D01*
X132701898Y-63704774D01*
X132501939Y-63665000D01*
X132298061Y-63665000D01*
X132098102Y-63704774D01*
X131909744Y-63782795D01*
X131740226Y-63896063D01*
X131596063Y-64040226D01*
X131482795Y-64209744D01*
X131404774Y-64398102D01*
X131400000Y-64422103D01*
X131395226Y-64398102D01*
X131317205Y-64209744D01*
X131203937Y-64040226D01*
X131059774Y-63896063D01*
X130890256Y-63782795D01*
X130701898Y-63704774D01*
X130501939Y-63665000D01*
X130298061Y-63665000D01*
X130098102Y-63704774D01*
X129909744Y-63782795D01*
X129740226Y-63896063D01*
X129596063Y-64040226D01*
X129482795Y-64209744D01*
X129404774Y-64398102D01*
X129400000Y-64422103D01*
X129395226Y-64398102D01*
X129317205Y-64209744D01*
X129203937Y-64040226D01*
X129059774Y-63896063D01*
X128890256Y-63782795D01*
X128701898Y-63704774D01*
X128501939Y-63665000D01*
X128298061Y-63665000D01*
X128098102Y-63704774D01*
X127909744Y-63782795D01*
X127740226Y-63896063D01*
X127596063Y-64040226D01*
X127482795Y-64209744D01*
X127404774Y-64398102D01*
X127400000Y-64422103D01*
X127395226Y-64398102D01*
X127317205Y-64209744D01*
X127203937Y-64040226D01*
X127059774Y-63896063D01*
X126890256Y-63782795D01*
X126701898Y-63704774D01*
X126501939Y-63665000D01*
X126298061Y-63665000D01*
X126098102Y-63704774D01*
X125909744Y-63782795D01*
X125740226Y-63896063D01*
X125596063Y-64040226D01*
X125482795Y-64209744D01*
X125404774Y-64398102D01*
X125400000Y-64422103D01*
X125395226Y-64398102D01*
X125317205Y-64209744D01*
X125203937Y-64040226D01*
X125059774Y-63896063D01*
X124890256Y-63782795D01*
X124701898Y-63704774D01*
X124501939Y-63665000D01*
X124298061Y-63665000D01*
X124098102Y-63704774D01*
X123909744Y-63782795D01*
X123740226Y-63896063D01*
X123596063Y-64040226D01*
X123482795Y-64209744D01*
X123404774Y-64398102D01*
X123400000Y-64422103D01*
X123395226Y-64398102D01*
X123317205Y-64209744D01*
X123203937Y-64040226D01*
X123059774Y-63896063D01*
X122890256Y-63782795D01*
X122701898Y-63704774D01*
X122501939Y-63665000D01*
X122298061Y-63665000D01*
X122098102Y-63704774D01*
X121909744Y-63782795D01*
X121740226Y-63896063D01*
X121596063Y-64040226D01*
X121482795Y-64209744D01*
X121404774Y-64398102D01*
X121400000Y-64422103D01*
X121395226Y-64398102D01*
X121317205Y-64209744D01*
X121203937Y-64040226D01*
X121059774Y-63896063D01*
X120890256Y-63782795D01*
X120701898Y-63704774D01*
X120501939Y-63665000D01*
X120298061Y-63665000D01*
X120098102Y-63704774D01*
X119909744Y-63782795D01*
X119740226Y-63896063D01*
X119596063Y-64040226D01*
X119482795Y-64209744D01*
X119404774Y-64398102D01*
X119400000Y-64422103D01*
X119395226Y-64398102D01*
X119317205Y-64209744D01*
X119203937Y-64040226D01*
X119059774Y-63896063D01*
X118890256Y-63782795D01*
X118701898Y-63704774D01*
X118501939Y-63665000D01*
X118298061Y-63665000D01*
X118098102Y-63704774D01*
X117909744Y-63782795D01*
X117740226Y-63896063D01*
X117596063Y-64040226D01*
X117482795Y-64209744D01*
X117404774Y-64398102D01*
X117400000Y-64422103D01*
X117395226Y-64398102D01*
X117317205Y-64209744D01*
X117203937Y-64040226D01*
X117059774Y-63896063D01*
X116890256Y-63782795D01*
X116701898Y-63704774D01*
X116501939Y-63665000D01*
X116298061Y-63665000D01*
X116098102Y-63704774D01*
X115909744Y-63782795D01*
X115740226Y-63896063D01*
X115596063Y-64040226D01*
X115482795Y-64209744D01*
X115404774Y-64398102D01*
X115400000Y-64422103D01*
X115395226Y-64398102D01*
X115317205Y-64209744D01*
X115203937Y-64040226D01*
X115059774Y-63896063D01*
X114890256Y-63782795D01*
X114701898Y-63704774D01*
X114501939Y-63665000D01*
X114298061Y-63665000D01*
X114098102Y-63704774D01*
X113909744Y-63782795D01*
X113740226Y-63896063D01*
X113596063Y-64040226D01*
X113482795Y-64209744D01*
X113404774Y-64398102D01*
X113365000Y-64598061D01*
X112935000Y-64598061D01*
X112895226Y-64398102D01*
X112817205Y-64209744D01*
X112703937Y-64040226D01*
X112559774Y-63896063D01*
X112390256Y-63782795D01*
X112201898Y-63704774D01*
X112001939Y-63665000D01*
X111798061Y-63665000D01*
X111598102Y-63704774D01*
X111409744Y-63782795D01*
X111240226Y-63896063D01*
X111096063Y-64040226D01*
X110982795Y-64209744D01*
X110904774Y-64398102D01*
X110865000Y-64598061D01*
X109115880Y-64598061D01*
X109135000Y-64501939D01*
X109135000Y-64298061D01*
X109095226Y-64098102D01*
X109023965Y-63926064D01*
X109071906Y-63854315D01*
X109149927Y-63665957D01*
X109177073Y-63529482D01*
X109345662Y-63416835D01*
X109489825Y-63272672D01*
X109603093Y-63103154D01*
X109681114Y-62914796D01*
X109713339Y-62752789D01*
X109809744Y-62817205D01*
X109998102Y-62895226D01*
X110198061Y-62935000D01*
X110401939Y-62935000D01*
X110601898Y-62895226D01*
X110790256Y-62817205D01*
X110959774Y-62703937D01*
X111103937Y-62559774D01*
X111217205Y-62390256D01*
X111295226Y-62201898D01*
X111335000Y-62001939D01*
X111335000Y-61798061D01*
X111295226Y-61598102D01*
X111217205Y-61409744D01*
X111209399Y-61398061D01*
X121365000Y-61398061D01*
X121365000Y-61601939D01*
X121404774Y-61801898D01*
X121482795Y-61990256D01*
X121596063Y-62159774D01*
X121740226Y-62303937D01*
X121909744Y-62417205D01*
X122098102Y-62495226D01*
X122298061Y-62535000D01*
X122501939Y-62535000D01*
X122701898Y-62495226D01*
X122890256Y-62417205D01*
X123059774Y-62303937D01*
X123203937Y-62159774D01*
X123317205Y-61990256D01*
X123395226Y-61801898D01*
X123435000Y-61601939D01*
X123435000Y-61398061D01*
X123395226Y-61198102D01*
X123395210Y-61198061D01*
X136965000Y-61198061D01*
X136965000Y-61401939D01*
X137004774Y-61601898D01*
X137082795Y-61790256D01*
X137196063Y-61959774D01*
X137340226Y-62103937D01*
X137509744Y-62217205D01*
X137698102Y-62295226D01*
X137898061Y-62335000D01*
X138101939Y-62335000D01*
X138301898Y-62295226D01*
X138490256Y-62217205D01*
X138659774Y-62103937D01*
X138803937Y-61959774D01*
X138917205Y-61790256D01*
X138995226Y-61601898D01*
X139035000Y-61401939D01*
X139035000Y-61198061D01*
X138995226Y-60998102D01*
X138917205Y-60809744D01*
X138803937Y-60640226D01*
X138659774Y-60496063D01*
X138490256Y-60382795D01*
X138301898Y-60304774D01*
X138101939Y-60265000D01*
X137898061Y-60265000D01*
X137698102Y-60304774D01*
X137509744Y-60382795D01*
X137340226Y-60496063D01*
X137196063Y-60640226D01*
X137082795Y-60809744D01*
X137004774Y-60998102D01*
X136965000Y-61198061D01*
X123395210Y-61198061D01*
X123317205Y-61009744D01*
X123203937Y-60840226D01*
X123059774Y-60696063D01*
X122890256Y-60582795D01*
X122701898Y-60504774D01*
X122501939Y-60465000D01*
X122298061Y-60465000D01*
X122098102Y-60504774D01*
X121909744Y-60582795D01*
X121740226Y-60696063D01*
X121596063Y-60840226D01*
X121482795Y-61009744D01*
X121404774Y-61198102D01*
X121365000Y-61398061D01*
X111209399Y-61398061D01*
X111103937Y-61240226D01*
X110959774Y-61096063D01*
X110790256Y-60982795D01*
X110601898Y-60904774D01*
X110401939Y-60865000D01*
X110198061Y-60865000D01*
X109998102Y-60904774D01*
X109809744Y-60982795D01*
X109640226Y-61096063D01*
X109496063Y-61240226D01*
X109382795Y-61409744D01*
X109304774Y-61598102D01*
X109272549Y-61760109D01*
X109176144Y-61695693D01*
X108987786Y-61617672D01*
X108857967Y-61591850D01*
X108895226Y-61501898D01*
X108935000Y-61301939D01*
X108935000Y-61098061D01*
X108895226Y-60898102D01*
X108817205Y-60709744D01*
X108703937Y-60540226D01*
X108559774Y-60396063D01*
X108390256Y-60282795D01*
X108201898Y-60204774D01*
X108001939Y-60165000D01*
X107798061Y-60165000D01*
X107656808Y-60193097D01*
X107559774Y-60096063D01*
X107390256Y-59982795D01*
X107201898Y-59904774D01*
X107001939Y-59865000D01*
X106798061Y-59865000D01*
X106598102Y-59904774D01*
X106409744Y-59982795D01*
X106240226Y-60096063D01*
X106096063Y-60240226D01*
X105982795Y-60409744D01*
X105904774Y-60598102D01*
X105865000Y-60798061D01*
X101945172Y-60798061D01*
X102017205Y-60690256D01*
X102095226Y-60501898D01*
X102135000Y-60301939D01*
X102135000Y-60098061D01*
X102095226Y-59898102D01*
X102063987Y-59822684D01*
X120615000Y-59822684D01*
X120615000Y-59977316D01*
X120645167Y-60128976D01*
X120704342Y-60271837D01*
X120790251Y-60400408D01*
X120899592Y-60509749D01*
X121028163Y-60595658D01*
X121171024Y-60654833D01*
X121322684Y-60685000D01*
X121477316Y-60685000D01*
X121628976Y-60654833D01*
X121771837Y-60595658D01*
X121900408Y-60509749D01*
X122009749Y-60400408D01*
X122095658Y-60271837D01*
X122154833Y-60128976D01*
X122185000Y-59977316D01*
X122185000Y-59822684D01*
X122154833Y-59671024D01*
X122095658Y-59528163D01*
X122009749Y-59399592D01*
X121900408Y-59290251D01*
X121771837Y-59204342D01*
X121628976Y-59145167D01*
X121477316Y-59115000D01*
X121322684Y-59115000D01*
X121171024Y-59145167D01*
X121028163Y-59204342D01*
X120899592Y-59290251D01*
X120790251Y-59399592D01*
X120704342Y-59528163D01*
X120645167Y-59671024D01*
X120615000Y-59822684D01*
X102063987Y-59822684D01*
X102017205Y-59709744D01*
X101903937Y-59540226D01*
X101759774Y-59396063D01*
X101591305Y-59283496D01*
X102852117Y-58022684D01*
X104715000Y-58022684D01*
X104715000Y-58177316D01*
X104745167Y-58328976D01*
X104804342Y-58471837D01*
X104890251Y-58600408D01*
X104999592Y-58709749D01*
X105128163Y-58795658D01*
X105271024Y-58854833D01*
X105422684Y-58885000D01*
X105577316Y-58885000D01*
X105728976Y-58854833D01*
X105871837Y-58795658D01*
X106000408Y-58709749D01*
X106109749Y-58600408D01*
X106195658Y-58471837D01*
X106254833Y-58328976D01*
X106260982Y-58298061D01*
X111965000Y-58298061D01*
X111965000Y-58501939D01*
X112004774Y-58701898D01*
X112082795Y-58890256D01*
X112196063Y-59059774D01*
X112340226Y-59203937D01*
X112509744Y-59317205D01*
X112698102Y-59395226D01*
X112898061Y-59435000D01*
X113101939Y-59435000D01*
X113301898Y-59395226D01*
X113490256Y-59317205D01*
X113659774Y-59203937D01*
X113803937Y-59059774D01*
X113917205Y-58890256D01*
X113995226Y-58701898D01*
X114035000Y-58501939D01*
X114035000Y-58298061D01*
X113995226Y-58098102D01*
X113917205Y-57909744D01*
X113803937Y-57740226D01*
X113659774Y-57596063D01*
X113490256Y-57482795D01*
X113301898Y-57404774D01*
X113101939Y-57365000D01*
X112898061Y-57365000D01*
X112698102Y-57404774D01*
X112509744Y-57482795D01*
X112340226Y-57596063D01*
X112196063Y-57740226D01*
X112082795Y-57909744D01*
X112004774Y-58098102D01*
X111965000Y-58298061D01*
X106260982Y-58298061D01*
X106285000Y-58177316D01*
X106285000Y-58022684D01*
X106254833Y-57871024D01*
X106195658Y-57728163D01*
X106109749Y-57599592D01*
X106000408Y-57490251D01*
X105871837Y-57404342D01*
X105728976Y-57345167D01*
X105577316Y-57315000D01*
X105422684Y-57315000D01*
X105271024Y-57345167D01*
X105128163Y-57404342D01*
X104999592Y-57490251D01*
X104890251Y-57599592D01*
X104804342Y-57728163D01*
X104745167Y-57871024D01*
X104715000Y-58022684D01*
X102852117Y-58022684D01*
X103731740Y-57143061D01*
X115465000Y-57143061D01*
X115465000Y-57346939D01*
X115504774Y-57546898D01*
X115582795Y-57735256D01*
X115696063Y-57904774D01*
X115840226Y-58048937D01*
X116009744Y-58162205D01*
X116198102Y-58240226D01*
X116398061Y-58280000D01*
X116601939Y-58280000D01*
X116801898Y-58240226D01*
X116990256Y-58162205D01*
X117159774Y-58048937D01*
X117303937Y-57904774D01*
X117417205Y-57735256D01*
X117495226Y-57546898D01*
X117535000Y-57346939D01*
X117535000Y-57143061D01*
X120165000Y-57143061D01*
X120165000Y-57346939D01*
X120204774Y-57546898D01*
X120282795Y-57735256D01*
X120396063Y-57904774D01*
X120540226Y-58048937D01*
X120709744Y-58162205D01*
X120898102Y-58240226D01*
X121098061Y-58280000D01*
X121301939Y-58280000D01*
X121501898Y-58240226D01*
X121690256Y-58162205D01*
X121859774Y-58048937D01*
X122003937Y-57904774D01*
X122117205Y-57735256D01*
X122195226Y-57546898D01*
X122226411Y-57390122D01*
X122240226Y-57403937D01*
X122409744Y-57517205D01*
X122598102Y-57595226D01*
X122798061Y-57635000D01*
X123001939Y-57635000D01*
X123063856Y-57622684D01*
X125715000Y-57622684D01*
X125715000Y-57777316D01*
X125745167Y-57928976D01*
X125804342Y-58071837D01*
X125890251Y-58200408D01*
X125999592Y-58309749D01*
X126128163Y-58395658D01*
X126271024Y-58454833D01*
X126422684Y-58485000D01*
X126577316Y-58485000D01*
X126728976Y-58454833D01*
X126871837Y-58395658D01*
X127000408Y-58309749D01*
X127109749Y-58200408D01*
X127195658Y-58071837D01*
X127254833Y-57928976D01*
X127285000Y-57777316D01*
X127285000Y-57622684D01*
X127254833Y-57471024D01*
X127195658Y-57328163D01*
X127109749Y-57199592D01*
X127000408Y-57090251D01*
X126871837Y-57004342D01*
X126728976Y-56945167D01*
X126577316Y-56915000D01*
X126422684Y-56915000D01*
X126271024Y-56945167D01*
X126128163Y-57004342D01*
X125999592Y-57090251D01*
X125890251Y-57199592D01*
X125804342Y-57328163D01*
X125745167Y-57471024D01*
X125715000Y-57622684D01*
X123063856Y-57622684D01*
X123201898Y-57595226D01*
X123390256Y-57517205D01*
X123559774Y-57403937D01*
X123703937Y-57259774D01*
X123817205Y-57090256D01*
X123895226Y-56901898D01*
X123935000Y-56701939D01*
X123935000Y-56498061D01*
X123895226Y-56298102D01*
X123886551Y-56277160D01*
X123903937Y-56259774D01*
X124017205Y-56090256D01*
X124095226Y-55901898D01*
X124135000Y-55701939D01*
X124135000Y-55498061D01*
X124095226Y-55298102D01*
X124017205Y-55109744D01*
X123977285Y-55050000D01*
X124017205Y-54990256D01*
X124095226Y-54801898D01*
X124135000Y-54601939D01*
X124135000Y-54398061D01*
X124095226Y-54198102D01*
X124017205Y-54009744D01*
X124010694Y-54000000D01*
X124017205Y-53990256D01*
X124095226Y-53801898D01*
X124099968Y-53778058D01*
X130865000Y-53778058D01*
X130865000Y-53981936D01*
X130904774Y-54181895D01*
X130970263Y-54339998D01*
X130904774Y-54498102D01*
X130865000Y-54698061D01*
X130865000Y-54901939D01*
X130904774Y-55101898D01*
X130982795Y-55290256D01*
X131096063Y-55459774D01*
X131240226Y-55603937D01*
X131409744Y-55717205D01*
X131598102Y-55795226D01*
X131798061Y-55835000D01*
X132001939Y-55835000D01*
X132201898Y-55795226D01*
X132390256Y-55717205D01*
X132559774Y-55603937D01*
X132703937Y-55459774D01*
X132817205Y-55290256D01*
X132895226Y-55101898D01*
X132935000Y-54901939D01*
X132935000Y-54698061D01*
X132895226Y-54498102D01*
X132829737Y-54339998D01*
X132895226Y-54181895D01*
X132935000Y-53981936D01*
X132935000Y-53778058D01*
X132895226Y-53578099D01*
X132817205Y-53389741D01*
X132703937Y-53220223D01*
X132559774Y-53076060D01*
X132390256Y-52962792D01*
X132201898Y-52884771D01*
X132001939Y-52844997D01*
X131798061Y-52844997D01*
X131598102Y-52884771D01*
X131409744Y-52962792D01*
X131240226Y-53076060D01*
X131096063Y-53220223D01*
X130982795Y-53389741D01*
X130904774Y-53578099D01*
X130865000Y-53778058D01*
X124099968Y-53778058D01*
X124135000Y-53601939D01*
X124135000Y-53398061D01*
X124095226Y-53198102D01*
X124017205Y-53009744D01*
X123903937Y-52840226D01*
X123759774Y-52696063D01*
X123590256Y-52582795D01*
X123401898Y-52504774D01*
X123201939Y-52465000D01*
X122998061Y-52465000D01*
X122798102Y-52504774D01*
X122609744Y-52582795D01*
X122440226Y-52696063D01*
X122296063Y-52840226D01*
X122182795Y-53009744D01*
X122104774Y-53198102D01*
X122065000Y-53398061D01*
X122065000Y-53601939D01*
X122104774Y-53801898D01*
X122182795Y-53990256D01*
X122189306Y-54000000D01*
X122182795Y-54009744D01*
X122104774Y-54198102D01*
X122065000Y-54398061D01*
X122065000Y-54601939D01*
X122104774Y-54801898D01*
X122182795Y-54990256D01*
X122222715Y-55050000D01*
X122182795Y-55109744D01*
X122104774Y-55298102D01*
X122065000Y-55498061D01*
X122065000Y-55701939D01*
X122104774Y-55901898D01*
X122113449Y-55922840D01*
X122096063Y-55940226D01*
X121982795Y-56109744D01*
X121904774Y-56298102D01*
X121873589Y-56454878D01*
X121859774Y-56441063D01*
X121690256Y-56327795D01*
X121501898Y-56249774D01*
X121301939Y-56210000D01*
X121098061Y-56210000D01*
X120898102Y-56249774D01*
X120709744Y-56327795D01*
X120540226Y-56441063D01*
X120396063Y-56585226D01*
X120282795Y-56754744D01*
X120204774Y-56943102D01*
X120165000Y-57143061D01*
X117535000Y-57143061D01*
X117495226Y-56943102D01*
X117417205Y-56754744D01*
X117303937Y-56585226D01*
X117159774Y-56441063D01*
X116990256Y-56327795D01*
X116801898Y-56249774D01*
X116601939Y-56210000D01*
X116398061Y-56210000D01*
X116198102Y-56249774D01*
X116009744Y-56327795D01*
X115840226Y-56441063D01*
X115696063Y-56585226D01*
X115582795Y-56754744D01*
X115504774Y-56943102D01*
X115465000Y-57143061D01*
X103731740Y-57143061D01*
X103839802Y-57035000D01*
X103901939Y-57035000D01*
X104101898Y-56995226D01*
X104290256Y-56917205D01*
X104459774Y-56803937D01*
X104603937Y-56659774D01*
X104717205Y-56490256D01*
X104795226Y-56301898D01*
X104835000Y-56101939D01*
X104835000Y-55898061D01*
X104826050Y-55853061D01*
X117365000Y-55853061D01*
X117365000Y-56056939D01*
X117404774Y-56256898D01*
X117482795Y-56445256D01*
X117596063Y-56614774D01*
X117740226Y-56758937D01*
X117909744Y-56872205D01*
X118098102Y-56950226D01*
X118298061Y-56990000D01*
X118501939Y-56990000D01*
X118701898Y-56950226D01*
X118890256Y-56872205D01*
X119059774Y-56758937D01*
X119203937Y-56614774D01*
X119317205Y-56445256D01*
X119395226Y-56256898D01*
X119435000Y-56056939D01*
X119435000Y-55853061D01*
X119395226Y-55653102D01*
X119317205Y-55464744D01*
X119203937Y-55295226D01*
X119059774Y-55151063D01*
X118890256Y-55037795D01*
X118701898Y-54959774D01*
X118501939Y-54920000D01*
X118298061Y-54920000D01*
X118098102Y-54959774D01*
X117909744Y-55037795D01*
X117740226Y-55151063D01*
X117596063Y-55295226D01*
X117482795Y-55464744D01*
X117404774Y-55653102D01*
X117365000Y-55853061D01*
X104826050Y-55853061D01*
X104795226Y-55698102D01*
X104717205Y-55509744D01*
X104603937Y-55340226D01*
X104459774Y-55196063D01*
X104290256Y-55082795D01*
X104101898Y-55004774D01*
X103901939Y-54965000D01*
X103698061Y-54965000D01*
X103498102Y-55004774D01*
X103309744Y-55082795D01*
X103140226Y-55196063D01*
X102996063Y-55340226D01*
X102882795Y-55509744D01*
X102804774Y-55698102D01*
X102765000Y-55898061D01*
X102765000Y-55960198D01*
X99930200Y-58794999D01*
X96227000Y-58794999D01*
X96227000Y-58500000D01*
X96224560Y-58475224D01*
X96217333Y-58451399D01*
X96205597Y-58429443D01*
X96189803Y-58410197D01*
X96170557Y-58394403D01*
X96148601Y-58382667D01*
X96124776Y-58375440D01*
X96100000Y-58373000D01*
X90800000Y-58373000D01*
X90775224Y-58375440D01*
X90751399Y-58382667D01*
X90729443Y-58394403D01*
X90710197Y-58410197D01*
X90694403Y-58429443D01*
X90682667Y-58451399D01*
X90675440Y-58475224D01*
X90673000Y-58500000D01*
X90673000Y-58794999D01*
X79958320Y-58794999D01*
X79920997Y-58791323D01*
X79883674Y-58794999D01*
X79883665Y-58794999D01*
X79772012Y-58805996D01*
X79628751Y-58849453D01*
X79496722Y-58920025D01*
X79380997Y-59014998D01*
X79357199Y-59043996D01*
X76856197Y-61544999D01*
X76647732Y-61544999D01*
X76610399Y-61541322D01*
X76573066Y-61544999D01*
X76461413Y-61555996D01*
X76318152Y-61599453D01*
X76186123Y-61670025D01*
X76070398Y-61764998D01*
X76046600Y-61793997D01*
X75264995Y-62575602D01*
X75235997Y-62599400D01*
X75212199Y-62628398D01*
X75212198Y-62628399D01*
X75141023Y-62715125D01*
X75104530Y-62783398D01*
X75070451Y-62847154D01*
X75026994Y-62990415D01*
X75015997Y-63102068D01*
X75015997Y-63102079D01*
X75012321Y-63139401D01*
X75015997Y-63176723D01*
X75015997Y-63420736D01*
X74995167Y-63471024D01*
X74978056Y-63557044D01*
X74869187Y-63448175D01*
X74699669Y-63334907D01*
X74511311Y-63256886D01*
X74311352Y-63217112D01*
X74107474Y-63217112D01*
X73907515Y-63256886D01*
X73719157Y-63334907D01*
X73549639Y-63448175D01*
X73405476Y-63592338D01*
X73292208Y-63761856D01*
X73214187Y-63950214D01*
X73174413Y-64150173D01*
X72875229Y-64150173D01*
X72895226Y-64101898D01*
X72935000Y-63901939D01*
X72935000Y-63698061D01*
X72895226Y-63498102D01*
X72817205Y-63309744D01*
X72703937Y-63140226D01*
X72559774Y-62996063D01*
X72390256Y-62882795D01*
X72201898Y-62804774D01*
X72001939Y-62765000D01*
X71798061Y-62765000D01*
X71598102Y-62804774D01*
X71409744Y-62882795D01*
X71240226Y-62996063D01*
X71096063Y-63140226D01*
X70982795Y-63309744D01*
X70904774Y-63498102D01*
X70865000Y-63698061D01*
X60460000Y-63698061D01*
X60460000Y-57898061D01*
X69365000Y-57898061D01*
X69365000Y-58101939D01*
X69404774Y-58301898D01*
X69482795Y-58490256D01*
X69596063Y-58659774D01*
X69740226Y-58803937D01*
X69909744Y-58917205D01*
X70098102Y-58995226D01*
X70298061Y-59035000D01*
X70501939Y-59035000D01*
X70701898Y-58995226D01*
X70890256Y-58917205D01*
X71059774Y-58803937D01*
X71203937Y-58659774D01*
X71245172Y-58598061D01*
X73065000Y-58598061D01*
X73065000Y-58801939D01*
X73104774Y-59001898D01*
X73182795Y-59190256D01*
X73296063Y-59359774D01*
X73440226Y-59503937D01*
X73609744Y-59617205D01*
X73798102Y-59695226D01*
X73998061Y-59735000D01*
X74201939Y-59735000D01*
X74401898Y-59695226D01*
X74590256Y-59617205D01*
X74759774Y-59503937D01*
X74903937Y-59359774D01*
X75017205Y-59190256D01*
X75095226Y-59001898D01*
X75135000Y-58801939D01*
X75135000Y-58598061D01*
X75095226Y-58398102D01*
X75017205Y-58209744D01*
X74903937Y-58040226D01*
X74759774Y-57896063D01*
X74590256Y-57782795D01*
X74401898Y-57704774D01*
X74201939Y-57665000D01*
X73998061Y-57665000D01*
X73798102Y-57704774D01*
X73609744Y-57782795D01*
X73440226Y-57896063D01*
X73296063Y-58040226D01*
X73182795Y-58209744D01*
X73104774Y-58398102D01*
X73065000Y-58598061D01*
X71245172Y-58598061D01*
X71317205Y-58490256D01*
X71395226Y-58301898D01*
X71435000Y-58101939D01*
X71435000Y-57898061D01*
X71395226Y-57698102D01*
X71317205Y-57509744D01*
X71203937Y-57340226D01*
X71059774Y-57196063D01*
X70890256Y-57082795D01*
X70701898Y-57004774D01*
X70501939Y-56965000D01*
X70298061Y-56965000D01*
X70098102Y-57004774D01*
X69909744Y-57082795D01*
X69740226Y-57196063D01*
X69596063Y-57340226D01*
X69482795Y-57509744D01*
X69404774Y-57698102D01*
X69365000Y-57898061D01*
X60460000Y-57898061D01*
X60460000Y-55347116D01*
X73632423Y-55347116D01*
X73632423Y-55852884D01*
X73731094Y-56348934D01*
X73924643Y-56816204D01*
X74205633Y-57236735D01*
X74563265Y-57594367D01*
X74983796Y-57875357D01*
X75451066Y-58068906D01*
X75947116Y-58167577D01*
X76452884Y-58167577D01*
X76948934Y-58068906D01*
X77416204Y-57875357D01*
X77836735Y-57594367D01*
X78194367Y-57236735D01*
X78404209Y-56922684D01*
X98215000Y-56922684D01*
X98215000Y-57077316D01*
X98245167Y-57228976D01*
X98304342Y-57371837D01*
X98390251Y-57500408D01*
X98499592Y-57609749D01*
X98628163Y-57695658D01*
X98771024Y-57754833D01*
X98922684Y-57785000D01*
X98974843Y-57785000D01*
X98999592Y-57809749D01*
X99128163Y-57895658D01*
X99271024Y-57954833D01*
X99422684Y-57985000D01*
X99577316Y-57985000D01*
X99728976Y-57954833D01*
X99871837Y-57895658D01*
X100000408Y-57809749D01*
X100109749Y-57700408D01*
X100195658Y-57571837D01*
X100254833Y-57428976D01*
X100285000Y-57277316D01*
X100285000Y-57122684D01*
X100254833Y-56971024D01*
X100195658Y-56828163D01*
X100109749Y-56699592D01*
X100000408Y-56590251D01*
X99871837Y-56504342D01*
X99728976Y-56445167D01*
X99577316Y-56415000D01*
X99525157Y-56415000D01*
X99500408Y-56390251D01*
X99371837Y-56304342D01*
X99228976Y-56245167D01*
X99077316Y-56215000D01*
X98922684Y-56215000D01*
X98771024Y-56245167D01*
X98628163Y-56304342D01*
X98499592Y-56390251D01*
X98390251Y-56499592D01*
X98304342Y-56628163D01*
X98245167Y-56771024D01*
X98215000Y-56922684D01*
X78404209Y-56922684D01*
X78475357Y-56816204D01*
X78668906Y-56348934D01*
X78767577Y-55852884D01*
X78767577Y-55347116D01*
X78668906Y-54851066D01*
X78475357Y-54383796D01*
X78217617Y-53998061D01*
X99665000Y-53998061D01*
X99665000Y-54201939D01*
X99704774Y-54401898D01*
X99782795Y-54590256D01*
X99896063Y-54759774D01*
X100040226Y-54903937D01*
X100209744Y-55017205D01*
X100398102Y-55095226D01*
X100598061Y-55135000D01*
X100801939Y-55135000D01*
X101001898Y-55095226D01*
X101190256Y-55017205D01*
X101350000Y-54910468D01*
X101509744Y-55017205D01*
X101698102Y-55095226D01*
X101898061Y-55135000D01*
X102101939Y-55135000D01*
X102301898Y-55095226D01*
X102490256Y-55017205D01*
X102659774Y-54903937D01*
X102803937Y-54759774D01*
X102917205Y-54590256D01*
X102995226Y-54401898D01*
X103035000Y-54201939D01*
X103035000Y-53998061D01*
X103015109Y-53898061D01*
X105765000Y-53898061D01*
X105765000Y-54101939D01*
X105804774Y-54301898D01*
X105882795Y-54490256D01*
X105996063Y-54659774D01*
X106140226Y-54803937D01*
X106309744Y-54917205D01*
X106498102Y-54995226D01*
X106698061Y-55035000D01*
X106901939Y-55035000D01*
X107101898Y-54995226D01*
X107290256Y-54917205D01*
X107459774Y-54803937D01*
X107603937Y-54659774D01*
X107717205Y-54490256D01*
X107795226Y-54301898D01*
X107835000Y-54101939D01*
X107835000Y-53898061D01*
X107795226Y-53698102D01*
X107717205Y-53509744D01*
X107603937Y-53340226D01*
X107459774Y-53196063D01*
X107290256Y-53082795D01*
X107101898Y-53004774D01*
X106901939Y-52965000D01*
X106698061Y-52965000D01*
X106498102Y-53004774D01*
X106309744Y-53082795D01*
X106140226Y-53196063D01*
X105996063Y-53340226D01*
X105882795Y-53509744D01*
X105804774Y-53698102D01*
X105765000Y-53898061D01*
X103015109Y-53898061D01*
X102995226Y-53798102D01*
X102917205Y-53609744D01*
X102803937Y-53440226D01*
X102659774Y-53296063D01*
X102490256Y-53182795D01*
X102301898Y-53104774D01*
X102129515Y-53070485D01*
X102095226Y-52898102D01*
X102017205Y-52709744D01*
X101903937Y-52540226D01*
X101759774Y-52396063D01*
X101590256Y-52282795D01*
X101401898Y-52204774D01*
X101201939Y-52165000D01*
X100998061Y-52165000D01*
X100798102Y-52204774D01*
X100609744Y-52282795D01*
X100440226Y-52396063D01*
X100296063Y-52540226D01*
X100182795Y-52709744D01*
X100104774Y-52898102D01*
X100065000Y-53098061D01*
X100065000Y-53279510D01*
X100040226Y-53296063D01*
X99896063Y-53440226D01*
X99782795Y-53609744D01*
X99704774Y-53798102D01*
X99665000Y-53998061D01*
X78217617Y-53998061D01*
X78194367Y-53963265D01*
X77836735Y-53605633D01*
X77416204Y-53324643D01*
X76948934Y-53131094D01*
X76452884Y-53032423D01*
X75947116Y-53032423D01*
X75451066Y-53131094D01*
X74983796Y-53324643D01*
X74563265Y-53605633D01*
X74205633Y-53963265D01*
X73924643Y-54383796D01*
X73731094Y-54851066D01*
X73632423Y-55347116D01*
X60460000Y-55347116D01*
X60460000Y-52300807D01*
X60597912Y-52507207D01*
X60992793Y-52902088D01*
X61457124Y-53212344D01*
X61973061Y-53426052D01*
X62520777Y-53535000D01*
X63079223Y-53535000D01*
X63626939Y-53426052D01*
X64142876Y-53212344D01*
X64607207Y-52902088D01*
X65002088Y-52507207D01*
X65312344Y-52042876D01*
X65415789Y-51793137D01*
X65865000Y-51793137D01*
X65865000Y-52006863D01*
X65906696Y-52216483D01*
X65988485Y-52413940D01*
X66107225Y-52591647D01*
X66258353Y-52742775D01*
X66436060Y-52861515D01*
X66633517Y-52943304D01*
X66843137Y-52985000D01*
X67056863Y-52985000D01*
X67266483Y-52943304D01*
X67463940Y-52861515D01*
X67641647Y-52742775D01*
X67792775Y-52591647D01*
X67911515Y-52413940D01*
X67993304Y-52216483D01*
X68035000Y-52006863D01*
X68035000Y-51793137D01*
X72665000Y-51793137D01*
X72665000Y-52006863D01*
X72706696Y-52216483D01*
X72788485Y-52413940D01*
X72907225Y-52591647D01*
X73058353Y-52742775D01*
X73236060Y-52861515D01*
X73433517Y-52943304D01*
X73643137Y-52985000D01*
X73856863Y-52985000D01*
X74066483Y-52943304D01*
X74263940Y-52861515D01*
X74441647Y-52742775D01*
X74592775Y-52591647D01*
X74711515Y-52413940D01*
X74793304Y-52216483D01*
X74835000Y-52006863D01*
X74835000Y-51793137D01*
X74793304Y-51583517D01*
X74711515Y-51386060D01*
X74592775Y-51208353D01*
X74582483Y-51198061D01*
X82965000Y-51198061D01*
X82965000Y-51401939D01*
X83004774Y-51601898D01*
X83082795Y-51790256D01*
X83196063Y-51959774D01*
X83340226Y-52103937D01*
X83509744Y-52217205D01*
X83698102Y-52295226D01*
X83898061Y-52335000D01*
X84101939Y-52335000D01*
X84301898Y-52295226D01*
X84490256Y-52217205D01*
X84659774Y-52103937D01*
X84803937Y-51959774D01*
X84917205Y-51790256D01*
X84995226Y-51601898D01*
X85035000Y-51401939D01*
X85035000Y-51198061D01*
X87165000Y-51198061D01*
X87165000Y-51401939D01*
X87204774Y-51601898D01*
X87282795Y-51790256D01*
X87396063Y-51959774D01*
X87540226Y-52103937D01*
X87596177Y-52141322D01*
X87565000Y-52298061D01*
X87565000Y-52501939D01*
X87604774Y-52701898D01*
X87682795Y-52890256D01*
X87796063Y-53059774D01*
X87940226Y-53203937D01*
X88109744Y-53317205D01*
X88298102Y-53395226D01*
X88498061Y-53435000D01*
X88701939Y-53435000D01*
X88901898Y-53395226D01*
X89090256Y-53317205D01*
X89259774Y-53203937D01*
X89403937Y-53059774D01*
X89517205Y-52890256D01*
X89595226Y-52701898D01*
X89635000Y-52501939D01*
X89635000Y-52298061D01*
X89595226Y-52098102D01*
X89517205Y-51909744D01*
X89403937Y-51740226D01*
X89259774Y-51596063D01*
X89203823Y-51558678D01*
X89235000Y-51401939D01*
X89235000Y-51198061D01*
X89195226Y-50998102D01*
X89117205Y-50809744D01*
X89003937Y-50640226D01*
X88859774Y-50496063D01*
X88690256Y-50382795D01*
X88501898Y-50304774D01*
X88301939Y-50265000D01*
X88098061Y-50265000D01*
X87898102Y-50304774D01*
X87709744Y-50382795D01*
X87540226Y-50496063D01*
X87396063Y-50640226D01*
X87282795Y-50809744D01*
X87204774Y-50998102D01*
X87165000Y-51198061D01*
X85035000Y-51198061D01*
X84995226Y-50998102D01*
X84917205Y-50809744D01*
X84803937Y-50640226D01*
X84659774Y-50496063D01*
X84490256Y-50382795D01*
X84301898Y-50304774D01*
X84101939Y-50265000D01*
X83898061Y-50265000D01*
X83698102Y-50304774D01*
X83509744Y-50382795D01*
X83340226Y-50496063D01*
X83196063Y-50640226D01*
X83082795Y-50809744D01*
X83004774Y-50998102D01*
X82965000Y-51198061D01*
X74582483Y-51198061D01*
X74441647Y-51057225D01*
X74263940Y-50938485D01*
X74066483Y-50856696D01*
X73856863Y-50815000D01*
X73643137Y-50815000D01*
X73433517Y-50856696D01*
X73236060Y-50938485D01*
X73058353Y-51057225D01*
X72907225Y-51208353D01*
X72788485Y-51386060D01*
X72706696Y-51583517D01*
X72665000Y-51793137D01*
X68035000Y-51793137D01*
X67993304Y-51583517D01*
X67911515Y-51386060D01*
X67792775Y-51208353D01*
X67641647Y-51057225D01*
X67463940Y-50938485D01*
X67266483Y-50856696D01*
X67056863Y-50815000D01*
X66843137Y-50815000D01*
X66633517Y-50856696D01*
X66436060Y-50938485D01*
X66258353Y-51057225D01*
X66107225Y-51208353D01*
X65988485Y-51386060D01*
X65906696Y-51583517D01*
X65865000Y-51793137D01*
X65415789Y-51793137D01*
X65526052Y-51526939D01*
X65635000Y-50979223D01*
X65635000Y-50420777D01*
X65526052Y-49873061D01*
X65312344Y-49357124D01*
X65002088Y-48892793D01*
X64607207Y-48497912D01*
X64400807Y-48360000D01*
X148799193Y-48360000D01*
X148592793Y-48497912D01*
G37*
X148592793Y-48497912D02*
X148197912Y-48892793D01*
X147887656Y-49357124D01*
X147673948Y-49873061D01*
X147565000Y-50420777D01*
X147565000Y-50979223D01*
X147673948Y-51526939D01*
X147887656Y-52042876D01*
X148197912Y-52507207D01*
X148592793Y-52902088D01*
X149057124Y-53212344D01*
X149573061Y-53426052D01*
X150120777Y-53535000D01*
X150679223Y-53535000D01*
X151226939Y-53426052D01*
X151742876Y-53212344D01*
X152207207Y-52902088D01*
X152602088Y-52507207D01*
X152740000Y-52300807D01*
X152740001Y-75099194D01*
X152602088Y-74892793D01*
X152207207Y-74497912D01*
X151742876Y-74187656D01*
X151226939Y-73973948D01*
X150679223Y-73865000D01*
X150120777Y-73865000D01*
X149573061Y-73973948D01*
X149057124Y-74187656D01*
X148592793Y-74497912D01*
X148197912Y-74892793D01*
X148141272Y-74977561D01*
X148059774Y-74896063D01*
X147890256Y-74782795D01*
X147701898Y-74704774D01*
X147677897Y-74700000D01*
X147701898Y-74695226D01*
X147890256Y-74617205D01*
X148059774Y-74503937D01*
X148203937Y-74359774D01*
X148317205Y-74190256D01*
X148395226Y-74001898D01*
X148435000Y-73801939D01*
X148435000Y-73598061D01*
X148395226Y-73398102D01*
X148317205Y-73209744D01*
X148203937Y-73040226D01*
X148059774Y-72896063D01*
X147890256Y-72782795D01*
X147701898Y-72704774D01*
X147501939Y-72665000D01*
X147298061Y-72665000D01*
X147098102Y-72704774D01*
X146909744Y-72782795D01*
X146740226Y-72896063D01*
X146596063Y-73040226D01*
X146482795Y-73209744D01*
X146404774Y-73398102D01*
X146365000Y-73598061D01*
X146365000Y-73801939D01*
X146404774Y-74001898D01*
X146482795Y-74190256D01*
X146596063Y-74359774D01*
X146740226Y-74503937D01*
X146909744Y-74617205D01*
X147098102Y-74695226D01*
X147122103Y-74700000D01*
X147098102Y-74704774D01*
X146909744Y-74782795D01*
X146740226Y-74896063D01*
X146596063Y-75040226D01*
X146482795Y-75209744D01*
X146404774Y-75398102D01*
X146365000Y-75598061D01*
X146365000Y-75665000D01*
X146298061Y-75665000D01*
X146098102Y-75704774D01*
X145909744Y-75782795D01*
X145740226Y-75896063D01*
X145596063Y-76040226D01*
X145482795Y-76209744D01*
X145404774Y-76398102D01*
X145400000Y-76422103D01*
X145395226Y-76398102D01*
X145317205Y-76209744D01*
X145203937Y-76040226D01*
X145059774Y-75896063D01*
X144890256Y-75782795D01*
X144701898Y-75704774D01*
X144501939Y-75665000D01*
X144298061Y-75665000D01*
X144098102Y-75704774D01*
X143909744Y-75782795D01*
X143740226Y-75896063D01*
X143596063Y-76040226D01*
X143482795Y-76209744D01*
X143404774Y-76398102D01*
X143400000Y-76422103D01*
X143395226Y-76398102D01*
X143317205Y-76209744D01*
X143203937Y-76040226D01*
X143059774Y-75896063D01*
X142890256Y-75782795D01*
X142701898Y-75704774D01*
X142501939Y-75665000D01*
X142298061Y-75665000D01*
X142098102Y-75704774D01*
X141909744Y-75782795D01*
X141740226Y-75896063D01*
X141596063Y-76040226D01*
X141482795Y-76209744D01*
X141404774Y-76398102D01*
X141400000Y-76422103D01*
X141395226Y-76398102D01*
X141317205Y-76209744D01*
X141203937Y-76040226D01*
X141059774Y-75896063D01*
X140890256Y-75782795D01*
X140701898Y-75704774D01*
X140501939Y-75665000D01*
X140298061Y-75665000D01*
X140098102Y-75704774D01*
X139909744Y-75782795D01*
X139740226Y-75896063D01*
X139596063Y-76040226D01*
X139482795Y-76209744D01*
X139404774Y-76398102D01*
X139400000Y-76422103D01*
X139395226Y-76398102D01*
X139317205Y-76209744D01*
X139203937Y-76040226D01*
X139059774Y-75896063D01*
X138890256Y-75782795D01*
X138701898Y-75704774D01*
X138501939Y-75665000D01*
X138298061Y-75665000D01*
X138098102Y-75704774D01*
X137909744Y-75782795D01*
X137740226Y-75896063D01*
X137596063Y-76040226D01*
X137482795Y-76209744D01*
X137404774Y-76398102D01*
X137400000Y-76422103D01*
X137395226Y-76398102D01*
X137317205Y-76209744D01*
X137203937Y-76040226D01*
X137059774Y-75896063D01*
X136890256Y-75782795D01*
X136701898Y-75704774D01*
X136501939Y-75665000D01*
X136298061Y-75665000D01*
X136098102Y-75704774D01*
X135909744Y-75782795D01*
X135740226Y-75896063D01*
X135596063Y-76040226D01*
X135482795Y-76209744D01*
X135404774Y-76398102D01*
X135400000Y-76422103D01*
X135395226Y-76398102D01*
X135317205Y-76209744D01*
X135203937Y-76040226D01*
X135059774Y-75896063D01*
X134890256Y-75782795D01*
X134701898Y-75704774D01*
X134501939Y-75665000D01*
X134298061Y-75665000D01*
X134098102Y-75704774D01*
X133909744Y-75782795D01*
X133740226Y-75896063D01*
X133596063Y-76040226D01*
X133482795Y-76209744D01*
X133404774Y-76398102D01*
X133400000Y-76422103D01*
X133395226Y-76398102D01*
X133317205Y-76209744D01*
X133203937Y-76040226D01*
X133059774Y-75896063D01*
X132890256Y-75782795D01*
X132701898Y-75704774D01*
X132501939Y-75665000D01*
X132298061Y-75665000D01*
X132098102Y-75704774D01*
X131909744Y-75782795D01*
X131740226Y-75896063D01*
X131596063Y-76040226D01*
X131482795Y-76209744D01*
X131404774Y-76398102D01*
X131400000Y-76422103D01*
X131395226Y-76398102D01*
X131317205Y-76209744D01*
X131203937Y-76040226D01*
X131059774Y-75896063D01*
X130890256Y-75782795D01*
X130701898Y-75704774D01*
X130501939Y-75665000D01*
X130298061Y-75665000D01*
X130098102Y-75704774D01*
X129909744Y-75782795D01*
X129740226Y-75896063D01*
X129596063Y-76040226D01*
X129482795Y-76209744D01*
X129404774Y-76398102D01*
X129400000Y-76422103D01*
X129395226Y-76398102D01*
X129317205Y-76209744D01*
X129203937Y-76040226D01*
X129059774Y-75896063D01*
X128890256Y-75782795D01*
X128701898Y-75704774D01*
X128501939Y-75665000D01*
X128298061Y-75665000D01*
X128098102Y-75704774D01*
X127909744Y-75782795D01*
X127740226Y-75896063D01*
X127596063Y-76040226D01*
X127482795Y-76209744D01*
X127404774Y-76398102D01*
X127400000Y-76422103D01*
X127395226Y-76398102D01*
X127317205Y-76209744D01*
X127203937Y-76040226D01*
X127059774Y-75896063D01*
X126890256Y-75782795D01*
X126701898Y-75704774D01*
X126501939Y-75665000D01*
X126298061Y-75665000D01*
X126098102Y-75704774D01*
X125909744Y-75782795D01*
X125740226Y-75896063D01*
X125596063Y-76040226D01*
X125482795Y-76209744D01*
X125404774Y-76398102D01*
X125400000Y-76422103D01*
X125395226Y-76398102D01*
X125317205Y-76209744D01*
X125203937Y-76040226D01*
X125059774Y-75896063D01*
X125016539Y-75867175D01*
X125023940Y-75859774D01*
X125137208Y-75690256D01*
X125215229Y-75501898D01*
X125255003Y-75301939D01*
X125255003Y-75098061D01*
X125215229Y-74898102D01*
X125137208Y-74709744D01*
X125023940Y-74540226D01*
X124879777Y-74396063D01*
X124710259Y-74282795D01*
X124521901Y-74204774D01*
X124321942Y-74165000D01*
X124118064Y-74165000D01*
X123918105Y-74204774D01*
X123760002Y-74270263D01*
X123601898Y-74204774D01*
X123401939Y-74165000D01*
X123198061Y-74165000D01*
X123107665Y-74182981D01*
X123071486Y-74146802D01*
X122901968Y-74033534D01*
X122713610Y-73955513D01*
X122513651Y-73915739D01*
X122309773Y-73915739D01*
X122109814Y-73955513D01*
X122102746Y-73958441D01*
X121993917Y-73885724D01*
X121805559Y-73807703D01*
X121605600Y-73767929D01*
X121401722Y-73767929D01*
X121201763Y-73807703D01*
X121013405Y-73885724D01*
X120843887Y-73998992D01*
X120699724Y-74143155D01*
X120586456Y-74312673D01*
X120508435Y-74501031D01*
X120468661Y-74700990D01*
X120468661Y-74904868D01*
X120508435Y-75104827D01*
X120586456Y-75293185D01*
X120699724Y-75462703D01*
X120843887Y-75606866D01*
X121013405Y-75720134D01*
X121201763Y-75798155D01*
X121401722Y-75837929D01*
X121605600Y-75837929D01*
X121805559Y-75798155D01*
X121812627Y-75795227D01*
X121921456Y-75867944D01*
X122109814Y-75945965D01*
X122309773Y-75985739D01*
X122513651Y-75985739D01*
X122604047Y-75967758D01*
X122640226Y-76003937D01*
X122809744Y-76117205D01*
X122998102Y-76195226D01*
X123198061Y-76235000D01*
X123401939Y-76235000D01*
X123478654Y-76219741D01*
X123404774Y-76398102D01*
X123365000Y-76598061D01*
X123365000Y-76801939D01*
X123404774Y-77001898D01*
X123482795Y-77190256D01*
X123596063Y-77359774D01*
X123740226Y-77503937D01*
X123909744Y-77617205D01*
X124098102Y-77695226D01*
X124298061Y-77735000D01*
X124501939Y-77735000D01*
X124701898Y-77695226D01*
X124890256Y-77617205D01*
X125059774Y-77503937D01*
X125203937Y-77359774D01*
X125317205Y-77190256D01*
X125395226Y-77001898D01*
X125400000Y-76977897D01*
X125404774Y-77001898D01*
X125482795Y-77190256D01*
X125596063Y-77359774D01*
X125740226Y-77503937D01*
X125909744Y-77617205D01*
X126098102Y-77695226D01*
X126298061Y-77735000D01*
X126501939Y-77735000D01*
X126701898Y-77695226D01*
X126890256Y-77617205D01*
X127059774Y-77503937D01*
X127203937Y-77359774D01*
X127317205Y-77190256D01*
X127395226Y-77001898D01*
X127400000Y-76977897D01*
X127404774Y-77001898D01*
X127482795Y-77190256D01*
X127596063Y-77359774D01*
X127740226Y-77503937D01*
X127909744Y-77617205D01*
X128098102Y-77695226D01*
X128298061Y-77735000D01*
X128501939Y-77735000D01*
X128701898Y-77695226D01*
X128890256Y-77617205D01*
X129059774Y-77503937D01*
X129203937Y-77359774D01*
X129317205Y-77190256D01*
X129395226Y-77001898D01*
X129400000Y-76977897D01*
X129404774Y-77001898D01*
X129482795Y-77190256D01*
X129596063Y-77359774D01*
X129740226Y-77503937D01*
X129909744Y-77617205D01*
X130098102Y-77695226D01*
X130298061Y-77735000D01*
X130501939Y-77735000D01*
X130701898Y-77695226D01*
X130890256Y-77617205D01*
X131059774Y-77503937D01*
X131203937Y-77359774D01*
X131317205Y-77190256D01*
X131395226Y-77001898D01*
X131400000Y-76977897D01*
X131404774Y-77001898D01*
X131482795Y-77190256D01*
X131596063Y-77359774D01*
X131740226Y-77503937D01*
X131909744Y-77617205D01*
X132098102Y-77695226D01*
X132298061Y-77735000D01*
X132501939Y-77735000D01*
X132701898Y-77695226D01*
X132890256Y-77617205D01*
X133059774Y-77503937D01*
X133203937Y-77359774D01*
X133317205Y-77190256D01*
X133395226Y-77001898D01*
X133400000Y-76977897D01*
X133404774Y-77001898D01*
X133482795Y-77190256D01*
X133596063Y-77359774D01*
X133740226Y-77503937D01*
X133909744Y-77617205D01*
X134098102Y-77695226D01*
X134298061Y-77735000D01*
X134501939Y-77735000D01*
X134701898Y-77695226D01*
X134890256Y-77617205D01*
X135059774Y-77503937D01*
X135203937Y-77359774D01*
X135317205Y-77190256D01*
X135395226Y-77001898D01*
X135400000Y-76977897D01*
X135404774Y-77001898D01*
X135482795Y-77190256D01*
X135596063Y-77359774D01*
X135740226Y-77503937D01*
X135909744Y-77617205D01*
X136098102Y-77695226D01*
X136298061Y-77735000D01*
X136501939Y-77735000D01*
X136701898Y-77695226D01*
X136890256Y-77617205D01*
X137059774Y-77503937D01*
X137203937Y-77359774D01*
X137317205Y-77190256D01*
X137395226Y-77001898D01*
X137400000Y-76977897D01*
X137404774Y-77001898D01*
X137482795Y-77190256D01*
X137596063Y-77359774D01*
X137740226Y-77503937D01*
X137909744Y-77617205D01*
X138098102Y-77695226D01*
X138298061Y-77735000D01*
X138501939Y-77735000D01*
X138701898Y-77695226D01*
X138890256Y-77617205D01*
X139059774Y-77503937D01*
X139203937Y-77359774D01*
X139317205Y-77190256D01*
X139395226Y-77001898D01*
X139400000Y-76977897D01*
X139404774Y-77001898D01*
X139482795Y-77190256D01*
X139596063Y-77359774D01*
X139740226Y-77503937D01*
X139909744Y-77617205D01*
X140098102Y-77695226D01*
X140298061Y-77735000D01*
X140501939Y-77735000D01*
X140701898Y-77695226D01*
X140890256Y-77617205D01*
X141059774Y-77503937D01*
X141203937Y-77359774D01*
X141317205Y-77190256D01*
X141395226Y-77001898D01*
X141400000Y-76977897D01*
X141404774Y-77001898D01*
X141482795Y-77190256D01*
X141596063Y-77359774D01*
X141740226Y-77503937D01*
X141909744Y-77617205D01*
X142098102Y-77695226D01*
X142298061Y-77735000D01*
X142501939Y-77735000D01*
X142701898Y-77695226D01*
X142890256Y-77617205D01*
X143059774Y-77503937D01*
X143203937Y-77359774D01*
X143317205Y-77190256D01*
X143395226Y-77001898D01*
X143400000Y-76977897D01*
X143404774Y-77001898D01*
X143482795Y-77190256D01*
X143596063Y-77359774D01*
X143740226Y-77503937D01*
X143909744Y-77617205D01*
X144098102Y-77695226D01*
X144298061Y-77735000D01*
X144501939Y-77735000D01*
X144701898Y-77695226D01*
X144890256Y-77617205D01*
X145059774Y-77503937D01*
X145203937Y-77359774D01*
X145317205Y-77190256D01*
X145395226Y-77001898D01*
X145400000Y-76977897D01*
X145404774Y-77001898D01*
X145482795Y-77190256D01*
X145596063Y-77359774D01*
X145740226Y-77503937D01*
X145909744Y-77617205D01*
X146098102Y-77695226D01*
X146298061Y-77735000D01*
X146501939Y-77735000D01*
X146701898Y-77695226D01*
X146890256Y-77617205D01*
X147059774Y-77503937D01*
X147203937Y-77359774D01*
X147317205Y-77190256D01*
X147395226Y-77001898D01*
X147435000Y-76801939D01*
X147435000Y-76735000D01*
X147501939Y-76735000D01*
X147565000Y-76722456D01*
X147565000Y-76979223D01*
X147673948Y-77526939D01*
X147887656Y-78042876D01*
X148197912Y-78507207D01*
X148592793Y-78902088D01*
X148799193Y-79040000D01*
X64400807Y-79040000D01*
X64607207Y-78902088D01*
X65002088Y-78507207D01*
X65312344Y-78042876D01*
X65526052Y-77526939D01*
X65635000Y-76979223D01*
X65635000Y-76420777D01*
X65526052Y-75873061D01*
X65312344Y-75357124D01*
X65289332Y-75322684D01*
X79115000Y-75322684D01*
X79115000Y-75477316D01*
X79145167Y-75628976D01*
X79204342Y-75771837D01*
X79290251Y-75900408D01*
X79399592Y-76009749D01*
X79528163Y-76095658D01*
X79671024Y-76154833D01*
X79822684Y-76185000D01*
X79977316Y-76185000D01*
X80128976Y-76154833D01*
X80271837Y-76095658D01*
X80400408Y-76009749D01*
X80509749Y-75900408D01*
X80595658Y-75771837D01*
X80654833Y-75628976D01*
X80685000Y-75477316D01*
X80685000Y-75322684D01*
X80654833Y-75171024D01*
X80595658Y-75028163D01*
X80509749Y-74899592D01*
X80400408Y-74790251D01*
X80271837Y-74704342D01*
X80128976Y-74645167D01*
X79977316Y-74615000D01*
X79822684Y-74615000D01*
X79671024Y-74645167D01*
X79528163Y-74704342D01*
X79399592Y-74790251D01*
X79290251Y-74899592D01*
X79204342Y-75028163D01*
X79145167Y-75171024D01*
X79115000Y-75322684D01*
X65289332Y-75322684D01*
X65002088Y-74892793D01*
X64607207Y-74497912D01*
X64142876Y-74187656D01*
X63626939Y-73973948D01*
X63079223Y-73865000D01*
X62520777Y-73865000D01*
X61973061Y-73973948D01*
X61457124Y-74187656D01*
X60992793Y-74497912D01*
X60597912Y-74892793D01*
X60460000Y-75099193D01*
X60460000Y-71419761D01*
X66040000Y-71419761D01*
X66040000Y-71780239D01*
X66110325Y-72133791D01*
X66248275Y-72466830D01*
X66448546Y-72766557D01*
X66703443Y-73021454D01*
X67003170Y-73221725D01*
X67336209Y-73359675D01*
X67689761Y-73430000D01*
X68050239Y-73430000D01*
X68403791Y-73359675D01*
X68736830Y-73221725D01*
X69036557Y-73021454D01*
X69259950Y-72798061D01*
X71865000Y-72798061D01*
X71865000Y-73001939D01*
X71904774Y-73201898D01*
X71982795Y-73390256D01*
X72096063Y-73559774D01*
X72240226Y-73703937D01*
X72409744Y-73817205D01*
X72598102Y-73895226D01*
X72798061Y-73935000D01*
X73001939Y-73935000D01*
X73201898Y-73895226D01*
X73390256Y-73817205D01*
X73418907Y-73798061D01*
X105365000Y-73798061D01*
X105365000Y-74001939D01*
X105404774Y-74201898D01*
X105482795Y-74390256D01*
X105596063Y-74559774D01*
X105740226Y-74703937D01*
X105909744Y-74817205D01*
X106098102Y-74895226D01*
X106298061Y-74935000D01*
X106501939Y-74935000D01*
X106701898Y-74895226D01*
X106890256Y-74817205D01*
X107059774Y-74703937D01*
X107203937Y-74559774D01*
X107317205Y-74390256D01*
X107395226Y-74201898D01*
X107435000Y-74001939D01*
X107435000Y-73798061D01*
X107395226Y-73598102D01*
X107317205Y-73409744D01*
X107203937Y-73240226D01*
X107059774Y-73096063D01*
X106890256Y-72982795D01*
X106701898Y-72904774D01*
X106501939Y-72865000D01*
X106298061Y-72865000D01*
X106098102Y-72904774D01*
X105909744Y-72982795D01*
X105740226Y-73096063D01*
X105596063Y-73240226D01*
X105482795Y-73409744D01*
X105404774Y-73598102D01*
X105365000Y-73798061D01*
X73418907Y-73798061D01*
X73559774Y-73703937D01*
X73703937Y-73559774D01*
X73817205Y-73390256D01*
X73895226Y-73201898D01*
X73935000Y-73001939D01*
X73935000Y-72798061D01*
X73895226Y-72598102D01*
X73817205Y-72409744D01*
X73703937Y-72240226D01*
X73559774Y-72096063D01*
X73413104Y-71998061D01*
X95065000Y-71998061D01*
X95065000Y-72201939D01*
X95104774Y-72401898D01*
X95182795Y-72590256D01*
X95296063Y-72759774D01*
X95440226Y-72903937D01*
X95609744Y-73017205D01*
X95798102Y-73095226D01*
X95998061Y-73135000D01*
X96201939Y-73135000D01*
X96401898Y-73095226D01*
X96590256Y-73017205D01*
X96759774Y-72903937D01*
X96903937Y-72759774D01*
X97017205Y-72590256D01*
X97095226Y-72401898D01*
X97135000Y-72201939D01*
X97135000Y-71998061D01*
X97095226Y-71798102D01*
X97017205Y-71609744D01*
X97009399Y-71598061D01*
X97665000Y-71598061D01*
X97665000Y-71801939D01*
X97704774Y-72001898D01*
X97782795Y-72190256D01*
X97896063Y-72359774D01*
X98040226Y-72503937D01*
X98209744Y-72617205D01*
X98398102Y-72695226D01*
X98598061Y-72735000D01*
X98801939Y-72735000D01*
X99001898Y-72695226D01*
X99190256Y-72617205D01*
X99359774Y-72503937D01*
X99503937Y-72359774D01*
X99617205Y-72190256D01*
X99695226Y-72001898D01*
X99735000Y-71801939D01*
X99735000Y-71598061D01*
X99695226Y-71398102D01*
X99617205Y-71209744D01*
X99580056Y-71154145D01*
X104508916Y-71154145D01*
X104508916Y-71358023D01*
X104548690Y-71557982D01*
X104626711Y-71746340D01*
X104739979Y-71915858D01*
X104884142Y-72060021D01*
X105053660Y-72173289D01*
X105242018Y-72251310D01*
X105441977Y-72291084D01*
X105645855Y-72291084D01*
X105845814Y-72251310D01*
X106034172Y-72173289D01*
X106203690Y-72060021D01*
X106347853Y-71915858D01*
X106461121Y-71746340D01*
X106539142Y-71557982D01*
X106578916Y-71358023D01*
X106578916Y-71154145D01*
X106539142Y-70954186D01*
X106461121Y-70765828D01*
X106347853Y-70596310D01*
X106203690Y-70452147D01*
X106034172Y-70338879D01*
X105845814Y-70260858D01*
X105645855Y-70221084D01*
X105441977Y-70221084D01*
X105242018Y-70260858D01*
X105053660Y-70338879D01*
X104884142Y-70452147D01*
X104739979Y-70596310D01*
X104626711Y-70765828D01*
X104548690Y-70954186D01*
X104508916Y-71154145D01*
X99580056Y-71154145D01*
X99503937Y-71040226D01*
X99359774Y-70896063D01*
X99190256Y-70782795D01*
X99001898Y-70704774D01*
X98801939Y-70665000D01*
X98598061Y-70665000D01*
X98398102Y-70704774D01*
X98209744Y-70782795D01*
X98040226Y-70896063D01*
X97896063Y-71040226D01*
X97782795Y-71209744D01*
X97704774Y-71398102D01*
X97665000Y-71598061D01*
X97009399Y-71598061D01*
X96903937Y-71440226D01*
X96759774Y-71296063D01*
X96590256Y-71182795D01*
X96401898Y-71104774D01*
X96201939Y-71065000D01*
X95998061Y-71065000D01*
X95798102Y-71104774D01*
X95609744Y-71182795D01*
X95440226Y-71296063D01*
X95296063Y-71440226D01*
X95182795Y-71609744D01*
X95104774Y-71798102D01*
X95065000Y-71998061D01*
X73413104Y-71998061D01*
X73390256Y-71982795D01*
X73201898Y-71904774D01*
X73001939Y-71865000D01*
X72798061Y-71865000D01*
X72598102Y-71904774D01*
X72409744Y-71982795D01*
X72240226Y-72096063D01*
X72096063Y-72240226D01*
X71982795Y-72409744D01*
X71904774Y-72598102D01*
X71865000Y-72798061D01*
X69259950Y-72798061D01*
X69291454Y-72766557D01*
X69491725Y-72466830D01*
X69629675Y-72133791D01*
X69700000Y-71780239D01*
X69700000Y-71419761D01*
X69629675Y-71066209D01*
X69491725Y-70733170D01*
X69291454Y-70433443D01*
X69036557Y-70178546D01*
X68736830Y-69978275D01*
X68403791Y-69840325D01*
X68050239Y-69770000D01*
X67689761Y-69770000D01*
X67336209Y-69840325D01*
X67003170Y-69978275D01*
X66703443Y-70178546D01*
X66448546Y-70433443D01*
X66248275Y-70733170D01*
X66110325Y-71066209D01*
X66040000Y-71419761D01*
X60460000Y-71419761D01*
X60460000Y-69698061D01*
X96565000Y-69698061D01*
X96565000Y-69901939D01*
X96604774Y-70101898D01*
X96682795Y-70290256D01*
X96796063Y-70459774D01*
X96940226Y-70603937D01*
X97109744Y-70717205D01*
X97298102Y-70795226D01*
X97498061Y-70835000D01*
X97701939Y-70835000D01*
X97901898Y-70795226D01*
X98090256Y-70717205D01*
X98259774Y-70603937D01*
X98403937Y-70459774D01*
X98517205Y-70290256D01*
X98595226Y-70101898D01*
X98635000Y-69901939D01*
X98635000Y-69698061D01*
X98611445Y-69579642D01*
X98701569Y-69639861D01*
X98889927Y-69717882D01*
X99052793Y-69750278D01*
X99150686Y-69896786D01*
X99294849Y-70040949D01*
X99464367Y-70154217D01*
X99652725Y-70232238D01*
X99852684Y-70272012D01*
X100056562Y-70272012D01*
X100256521Y-70232238D01*
X100444879Y-70154217D01*
X100614397Y-70040949D01*
X100758560Y-69896786D01*
X100764926Y-69887259D01*
X100809744Y-69917205D01*
X100998102Y-69995226D01*
X101198061Y-70035000D01*
X101401939Y-70035000D01*
X101601898Y-69995226D01*
X101790256Y-69917205D01*
X101959774Y-69803937D01*
X102103937Y-69659774D01*
X102217205Y-69490256D01*
X102295226Y-69301898D01*
X102335000Y-69101939D01*
X102335000Y-68898061D01*
X102295226Y-68698102D01*
X102217205Y-68509744D01*
X102103937Y-68340226D01*
X101959774Y-68196063D01*
X101790256Y-68082795D01*
X101601898Y-68004774D01*
X101401939Y-67965000D01*
X101198061Y-67965000D01*
X100998102Y-68004774D01*
X100809744Y-68082795D01*
X100640226Y-68196063D01*
X100496063Y-68340226D01*
X100489697Y-68349753D01*
X100444879Y-68319807D01*
X100256521Y-68241786D01*
X100093655Y-68209390D01*
X99995762Y-68062882D01*
X99851599Y-67918719D01*
X99682081Y-67805451D01*
X99493723Y-67727430D01*
X99293764Y-67687656D01*
X99089886Y-67687656D01*
X98973855Y-67710736D01*
X98958986Y-67695867D01*
X98789468Y-67582599D01*
X98601110Y-67504578D01*
X98401151Y-67464804D01*
X98197273Y-67464804D01*
X97997314Y-67504578D01*
X97808956Y-67582599D01*
X97639438Y-67695867D01*
X97495275Y-67840030D01*
X97382007Y-68009548D01*
X97303986Y-68197906D01*
X97264212Y-68397865D01*
X97264212Y-68601743D01*
X97303986Y-68801702D01*
X97304714Y-68803459D01*
X97298102Y-68804774D01*
X97109744Y-68882795D01*
X96940226Y-68996063D01*
X96796063Y-69140226D01*
X96682795Y-69309744D01*
X96604774Y-69498102D01*
X96565000Y-69698061D01*
X60460000Y-69698061D01*
X60460000Y-67198061D01*
X72365000Y-67198061D01*
X72365000Y-67401939D01*
X72404774Y-67601898D01*
X72482795Y-67790256D01*
X72596063Y-67959774D01*
X72740226Y-68103937D01*
X72909744Y-68217205D01*
X73098102Y-68295226D01*
X73298061Y-68335000D01*
X73501939Y-68335000D01*
X73701898Y-68295226D01*
X73890256Y-68217205D01*
X74059774Y-68103937D01*
X74203937Y-67959774D01*
X74317205Y-67790256D01*
X74395226Y-67601898D01*
X74435000Y-67401939D01*
X74435000Y-67198061D01*
X74395226Y-66998102D01*
X74317205Y-66809744D01*
X74203937Y-66640226D01*
X74059774Y-66496063D01*
X73890256Y-66382795D01*
X73701898Y-66304774D01*
X73501939Y-66265000D01*
X73298061Y-66265000D01*
X73098102Y-66304774D01*
X72909744Y-66382795D01*
X72740226Y-66496063D01*
X72596063Y-66640226D01*
X72482795Y-66809744D01*
X72404774Y-66998102D01*
X72365000Y-67198061D01*
X60460000Y-67198061D01*
X60460000Y-63698061D01*
X70865000Y-63698061D01*
X70865000Y-63901939D01*
X70904774Y-64101898D01*
X70982795Y-64290256D01*
X71096063Y-64459774D01*
X71240226Y-64603937D01*
X71409744Y-64717205D01*
X71598102Y-64795226D01*
X71798061Y-64835000D01*
X72001939Y-64835000D01*
X72201898Y-64795226D01*
X72390256Y-64717205D01*
X72559774Y-64603937D01*
X72703937Y-64459774D01*
X72817205Y-64290256D01*
X72875229Y-64150173D01*
X73174413Y-64150173D01*
X73174413Y-64354051D01*
X73214187Y-64554010D01*
X73292208Y-64742368D01*
X73405476Y-64911886D01*
X73549639Y-65056049D01*
X73719157Y-65169317D01*
X73907515Y-65247338D01*
X74107474Y-65287112D01*
X74311352Y-65287112D01*
X74511311Y-65247338D01*
X74587633Y-65215724D01*
X74604774Y-65301898D01*
X74682795Y-65490256D01*
X74796063Y-65659774D01*
X74940226Y-65803937D01*
X75109744Y-65917205D01*
X75298102Y-65995226D01*
X75498061Y-66035000D01*
X75701939Y-66035000D01*
X75901898Y-65995226D01*
X76090256Y-65917205D01*
X76259774Y-65803937D01*
X76403937Y-65659774D01*
X76517205Y-65490256D01*
X76595226Y-65301898D01*
X76635000Y-65101939D01*
X76635000Y-64898061D01*
X76595226Y-64698102D01*
X76517205Y-64509744D01*
X76468475Y-64436815D01*
X76567837Y-64395658D01*
X76696408Y-64309749D01*
X76805749Y-64200408D01*
X76807317Y-64198061D01*
X86565000Y-64198061D01*
X86565000Y-64401939D01*
X86604774Y-64601898D01*
X86682795Y-64790256D01*
X86796063Y-64959774D01*
X86940226Y-65103937D01*
X87109744Y-65217205D01*
X87298102Y-65295226D01*
X87498061Y-65335000D01*
X87701939Y-65335000D01*
X87901898Y-65295226D01*
X88090256Y-65217205D01*
X88259774Y-65103937D01*
X88403937Y-64959774D01*
X88517205Y-64790256D01*
X88595226Y-64601898D01*
X88635000Y-64401939D01*
X88635000Y-64198061D01*
X88595226Y-63998102D01*
X88586551Y-63977160D01*
X88703937Y-63859774D01*
X88817205Y-63690256D01*
X88895226Y-63501898D01*
X88935000Y-63301939D01*
X88935000Y-63098061D01*
X88895226Y-62898102D01*
X88817205Y-62709744D01*
X88703937Y-62540226D01*
X88559774Y-62396063D01*
X88390256Y-62282795D01*
X88201898Y-62204774D01*
X88001939Y-62165000D01*
X87798061Y-62165000D01*
X87598102Y-62204774D01*
X87409744Y-62282795D01*
X87240226Y-62396063D01*
X87096063Y-62540226D01*
X86982795Y-62709744D01*
X86904774Y-62898102D01*
X86865000Y-63098061D01*
X86865000Y-63301939D01*
X86904774Y-63501898D01*
X86913449Y-63522840D01*
X86796063Y-63640226D01*
X86682795Y-63809744D01*
X86604774Y-63998102D01*
X86565000Y-64198061D01*
X76807317Y-64198061D01*
X76891658Y-64071837D01*
X76950833Y-63928976D01*
X76981000Y-63777316D01*
X76981000Y-63622684D01*
X76950833Y-63471024D01*
X76891658Y-63328163D01*
X76805749Y-63199592D01*
X76798178Y-63192021D01*
X76925201Y-63064999D01*
X77133676Y-63064999D01*
X77170998Y-63068675D01*
X77208320Y-63064999D01*
X77208331Y-63064999D01*
X77319984Y-63054002D01*
X77463245Y-63010545D01*
X77595274Y-62939973D01*
X77710999Y-62845000D01*
X77734802Y-62815996D01*
X80235800Y-60314999D01*
X91448887Y-60314999D01*
X91473981Y-60515752D01*
X91482667Y-60548601D01*
X91494403Y-60570557D01*
X91510197Y-60589803D01*
X91529443Y-60605597D01*
X91551399Y-60617333D01*
X91575224Y-60624560D01*
X91600000Y-60627000D01*
X92257667Y-60627000D01*
X92452333Y-60773000D01*
X92100000Y-60773000D01*
X92064654Y-60778018D01*
X92041535Y-60787257D01*
X92020664Y-60800830D01*
X92002841Y-60818213D01*
X91988752Y-60838739D01*
X91978938Y-60861620D01*
X91973777Y-60885975D01*
X91873777Y-61785975D01*
X91873630Y-61787363D01*
X91773630Y-62787363D01*
X91773070Y-62804231D01*
X91873070Y-65804231D01*
X91874918Y-65821990D01*
X91881612Y-65845970D01*
X91892855Y-65868183D01*
X91908216Y-65887776D01*
X91927103Y-65903996D01*
X91948793Y-65916219D01*
X91972450Y-65923976D01*
X92872450Y-66123976D01*
X92887363Y-66126370D01*
X92912259Y-66126407D01*
X92936685Y-66121586D01*
X92959700Y-66112093D01*
X92980421Y-66098293D01*
X92998052Y-66080715D01*
X93011914Y-66060035D01*
X93021476Y-66037048D01*
X93026370Y-66012637D01*
X93114934Y-65127000D01*
X94100000Y-65127000D01*
X94124776Y-65124560D01*
X94148601Y-65117333D01*
X94170557Y-65105597D01*
X94189803Y-65089803D01*
X94205597Y-65070557D01*
X94217333Y-65048601D01*
X94224560Y-65024776D01*
X94227000Y-65000000D01*
X94227000Y-64461039D01*
X94494177Y-64247297D01*
X94504342Y-64271837D01*
X94590251Y-64400408D01*
X94699592Y-64509749D01*
X94828163Y-64595658D01*
X94971024Y-64654833D01*
X95122684Y-64685000D01*
X95277316Y-64685000D01*
X95428976Y-64654833D01*
X95571837Y-64595658D01*
X95700408Y-64509749D01*
X95809749Y-64400408D01*
X95895658Y-64271837D01*
X95954833Y-64128976D01*
X95980873Y-63998061D01*
X97665000Y-63998061D01*
X97665000Y-64201939D01*
X97704774Y-64401898D01*
X97782795Y-64590256D01*
X97896063Y-64759774D01*
X98040226Y-64903937D01*
X98209744Y-65017205D01*
X98398102Y-65095226D01*
X98598061Y-65135000D01*
X98801939Y-65135000D01*
X99001898Y-65095226D01*
X99190256Y-65017205D01*
X99359774Y-64903937D01*
X99503937Y-64759774D01*
X99617205Y-64590256D01*
X99695226Y-64401898D01*
X99735000Y-64201939D01*
X99735000Y-63998061D01*
X99695226Y-63798102D01*
X99617205Y-63609744D01*
X99503937Y-63440226D01*
X99359774Y-63296063D01*
X99190256Y-63182795D01*
X99001898Y-63104774D01*
X98801939Y-63065000D01*
X98598061Y-63065000D01*
X98398102Y-63104774D01*
X98209744Y-63182795D01*
X98040226Y-63296063D01*
X97896063Y-63440226D01*
X97782795Y-63609744D01*
X97704774Y-63798102D01*
X97665000Y-63998061D01*
X95980873Y-63998061D01*
X95985000Y-63977316D01*
X95985000Y-63822684D01*
X95954833Y-63671024D01*
X95895658Y-63528163D01*
X95809749Y-63399592D01*
X95700408Y-63290251D01*
X95571837Y-63204342D01*
X95428976Y-63145167D01*
X95277316Y-63115000D01*
X95122684Y-63115000D01*
X94971024Y-63145167D01*
X94828163Y-63204342D01*
X94699592Y-63290251D01*
X94645972Y-63343871D01*
X94633723Y-63245883D01*
X95052606Y-62827000D01*
X98100000Y-62827000D01*
X98112637Y-62826370D01*
X98137048Y-62821476D01*
X98160035Y-62811914D01*
X98180715Y-62798052D01*
X98198293Y-62780421D01*
X98212093Y-62759700D01*
X98221586Y-62736685D01*
X98226407Y-62712259D01*
X98226370Y-62687363D01*
X98140334Y-61827000D01*
X98200000Y-61827000D01*
X98224776Y-61824560D01*
X98248601Y-61817333D01*
X98270557Y-61805597D01*
X98289803Y-61789803D01*
X98305597Y-61770557D01*
X98317333Y-61748601D01*
X98324560Y-61724776D01*
X98327000Y-61700000D01*
X98327000Y-61220865D01*
X98398061Y-61235000D01*
X98601939Y-61235000D01*
X98801898Y-61195226D01*
X98990256Y-61117205D01*
X99159774Y-61003937D01*
X99303937Y-60859774D01*
X99417205Y-60690256D01*
X99495226Y-60501898D01*
X99532402Y-60314999D01*
X100067598Y-60314999D01*
X100104774Y-60501898D01*
X100182795Y-60690256D01*
X100296063Y-60859774D01*
X100440226Y-61003937D01*
X100609744Y-61117205D01*
X100798102Y-61195226D01*
X100998061Y-61235000D01*
X101201939Y-61235000D01*
X101401898Y-61195226D01*
X101590256Y-61117205D01*
X101759774Y-61003937D01*
X101903937Y-60859774D01*
X101945172Y-60798061D01*
X105865000Y-60798061D01*
X105865000Y-61001939D01*
X105904774Y-61201898D01*
X105982795Y-61390256D01*
X106096063Y-61559774D01*
X106240226Y-61703937D01*
X106409744Y-61817205D01*
X106598102Y-61895226D01*
X106798061Y-61935000D01*
X107001939Y-61935000D01*
X107143192Y-61906903D01*
X107240226Y-62003937D01*
X107409744Y-62117205D01*
X107598102Y-62195226D01*
X107727921Y-62221048D01*
X107690662Y-62311000D01*
X107663516Y-62447475D01*
X107494927Y-62560122D01*
X107389446Y-62665603D01*
X107196525Y-62665603D01*
X106996566Y-62705377D01*
X106808208Y-62783398D01*
X106638690Y-62896666D01*
X106494527Y-63040829D01*
X106381259Y-63210347D01*
X106303238Y-63398705D01*
X106263464Y-63598664D01*
X106263464Y-63802542D01*
X106303238Y-64002501D01*
X106381259Y-64190859D01*
X106494527Y-64360377D01*
X106638690Y-64504540D01*
X106808208Y-64617808D01*
X106996566Y-64695829D01*
X107111750Y-64718740D01*
X107182795Y-64890256D01*
X107222715Y-64950000D01*
X107182795Y-65009744D01*
X107104774Y-65198102D01*
X107065000Y-65398061D01*
X107065000Y-65471576D01*
X106898102Y-65504774D01*
X106709744Y-65582795D01*
X106540226Y-65696063D01*
X106396063Y-65840226D01*
X106282795Y-66009744D01*
X106204774Y-66198102D01*
X106165000Y-66398061D01*
X106165000Y-66601939D01*
X106204774Y-66801898D01*
X106282795Y-66990256D01*
X106396063Y-67159774D01*
X106540226Y-67303937D01*
X106709744Y-67417205D01*
X106898102Y-67495226D01*
X107098061Y-67535000D01*
X107301939Y-67535000D01*
X107501898Y-67495226D01*
X107690256Y-67417205D01*
X107859774Y-67303937D01*
X108003937Y-67159774D01*
X108045172Y-67098061D01*
X110865000Y-67098061D01*
X110865000Y-67301939D01*
X110904774Y-67501898D01*
X110982795Y-67690256D01*
X111096063Y-67859774D01*
X111240226Y-68003937D01*
X111409744Y-68117205D01*
X111598102Y-68195226D01*
X111622103Y-68200000D01*
X111598102Y-68204774D01*
X111409744Y-68282795D01*
X111240226Y-68396063D01*
X111096063Y-68540226D01*
X110982795Y-68709744D01*
X110904774Y-68898102D01*
X110865000Y-69098061D01*
X110865000Y-69301939D01*
X110904774Y-69501898D01*
X110982795Y-69690256D01*
X111096063Y-69859774D01*
X111240226Y-70003937D01*
X111409744Y-70117205D01*
X111598102Y-70195226D01*
X111622103Y-70200000D01*
X111598102Y-70204774D01*
X111409744Y-70282795D01*
X111240226Y-70396063D01*
X111096063Y-70540226D01*
X110982795Y-70709744D01*
X110904774Y-70898102D01*
X110865000Y-71098061D01*
X110865000Y-71301939D01*
X110904774Y-71501898D01*
X110982795Y-71690256D01*
X111096063Y-71859774D01*
X111240226Y-72003937D01*
X111409744Y-72117205D01*
X111598102Y-72195226D01*
X111622103Y-72200000D01*
X111598102Y-72204774D01*
X111409744Y-72282795D01*
X111240226Y-72396063D01*
X111096063Y-72540226D01*
X110982795Y-72709744D01*
X110904774Y-72898102D01*
X110865000Y-73098061D01*
X110865000Y-73301939D01*
X110904774Y-73501898D01*
X110982795Y-73690256D01*
X111096063Y-73859774D01*
X111240226Y-74003937D01*
X111409744Y-74117205D01*
X111598102Y-74195226D01*
X111798061Y-74235000D01*
X112001939Y-74235000D01*
X112201898Y-74195226D01*
X112206808Y-74193192D01*
X112204774Y-74198102D01*
X112165000Y-74398061D01*
X112165000Y-74601939D01*
X112204774Y-74801898D01*
X112282795Y-74990256D01*
X112396063Y-75159774D01*
X112540226Y-75303937D01*
X112709744Y-75417205D01*
X112898102Y-75495226D01*
X113098061Y-75535000D01*
X113301939Y-75535000D01*
X113501898Y-75495226D01*
X113690256Y-75417205D01*
X113859774Y-75303937D01*
X114003937Y-75159774D01*
X114117205Y-74990256D01*
X114195226Y-74801898D01*
X114235000Y-74601939D01*
X114235000Y-74398061D01*
X114195226Y-74198102D01*
X114117205Y-74009744D01*
X114003937Y-73840226D01*
X113859774Y-73696063D01*
X113690256Y-73582795D01*
X113501898Y-73504774D01*
X113301939Y-73465000D01*
X113098061Y-73465000D01*
X112898102Y-73504774D01*
X112893192Y-73506808D01*
X112895226Y-73501898D01*
X112935000Y-73301939D01*
X112935000Y-73098061D01*
X112895226Y-72898102D01*
X112817205Y-72709744D01*
X112703937Y-72540226D01*
X112559774Y-72396063D01*
X112390256Y-72282795D01*
X112201898Y-72204774D01*
X112177897Y-72200000D01*
X112201898Y-72195226D01*
X112390256Y-72117205D01*
X112559774Y-72003937D01*
X112703937Y-71859774D01*
X112817205Y-71690256D01*
X112895226Y-71501898D01*
X112921947Y-71367560D01*
X129040000Y-71367560D01*
X129040000Y-71832440D01*
X129130694Y-72288387D01*
X129308595Y-72717879D01*
X129566868Y-73104412D01*
X129895588Y-73433132D01*
X130282121Y-73691405D01*
X130711613Y-73869306D01*
X131167560Y-73960000D01*
X131632440Y-73960000D01*
X132088387Y-73869306D01*
X132517879Y-73691405D01*
X132904412Y-73433132D01*
X133233132Y-73104412D01*
X133491405Y-72717879D01*
X133669306Y-72288387D01*
X133760000Y-71832440D01*
X133760000Y-71367560D01*
X133669306Y-70911613D01*
X133491405Y-70482121D01*
X133233132Y-70095588D01*
X132904412Y-69766868D01*
X132517879Y-69508595D01*
X132088387Y-69330694D01*
X131632440Y-69240000D01*
X131167560Y-69240000D01*
X130711613Y-69330694D01*
X130282121Y-69508595D01*
X129895588Y-69766868D01*
X129566868Y-70095588D01*
X129308595Y-70482121D01*
X129130694Y-70911613D01*
X129040000Y-71367560D01*
X112921947Y-71367560D01*
X112935000Y-71301939D01*
X112935000Y-71098061D01*
X112895226Y-70898102D01*
X112817205Y-70709744D01*
X112703937Y-70540226D01*
X112559774Y-70396063D01*
X112390256Y-70282795D01*
X112201898Y-70204774D01*
X112177897Y-70200000D01*
X112201898Y-70195226D01*
X112390256Y-70117205D01*
X112559774Y-70003937D01*
X112703937Y-69859774D01*
X112817205Y-69690256D01*
X112895226Y-69501898D01*
X112935000Y-69301939D01*
X112935000Y-69098061D01*
X112895226Y-68898102D01*
X112817205Y-68709744D01*
X112703937Y-68540226D01*
X112559774Y-68396063D01*
X112449955Y-68322684D01*
X137315000Y-68322684D01*
X137315000Y-68477316D01*
X137345167Y-68628976D01*
X137404342Y-68771837D01*
X137490251Y-68900408D01*
X137599592Y-69009749D01*
X137728163Y-69095658D01*
X137871024Y-69154833D01*
X138022684Y-69185000D01*
X138177316Y-69185000D01*
X138328976Y-69154833D01*
X138471837Y-69095658D01*
X138600408Y-69009749D01*
X138709749Y-68900408D01*
X138795658Y-68771837D01*
X138854833Y-68628976D01*
X138856084Y-68622684D01*
X139015000Y-68622684D01*
X139015000Y-68777316D01*
X139045167Y-68928976D01*
X139104342Y-69071837D01*
X139190251Y-69200408D01*
X139299592Y-69309749D01*
X139428163Y-69395658D01*
X139571024Y-69454833D01*
X139722684Y-69485000D01*
X139877316Y-69485000D01*
X140028976Y-69454833D01*
X140171837Y-69395658D01*
X140300408Y-69309749D01*
X140409749Y-69200408D01*
X140495658Y-69071837D01*
X140554833Y-68928976D01*
X140585000Y-68777316D01*
X140585000Y-68622684D01*
X140554833Y-68471024D01*
X140495658Y-68328163D01*
X140409749Y-68199592D01*
X140300408Y-68090251D01*
X140171837Y-68004342D01*
X140028976Y-67945167D01*
X139877316Y-67915000D01*
X139722684Y-67915000D01*
X139571024Y-67945167D01*
X139428163Y-68004342D01*
X139299592Y-68090251D01*
X139190251Y-68199592D01*
X139104342Y-68328163D01*
X139045167Y-68471024D01*
X139015000Y-68622684D01*
X138856084Y-68622684D01*
X138885000Y-68477316D01*
X138885000Y-68322684D01*
X138854833Y-68171024D01*
X138795658Y-68028163D01*
X138709749Y-67899592D01*
X138600408Y-67790251D01*
X138471837Y-67704342D01*
X138328976Y-67645167D01*
X138177316Y-67615000D01*
X138022684Y-67615000D01*
X137871024Y-67645167D01*
X137728163Y-67704342D01*
X137599592Y-67790251D01*
X137490251Y-67899592D01*
X137404342Y-68028163D01*
X137345167Y-68171024D01*
X137315000Y-68322684D01*
X112449955Y-68322684D01*
X112390256Y-68282795D01*
X112201898Y-68204774D01*
X112177897Y-68200000D01*
X112201898Y-68195226D01*
X112390256Y-68117205D01*
X112559774Y-68003937D01*
X112703937Y-67859774D01*
X112817205Y-67690256D01*
X112895226Y-67501898D01*
X112935000Y-67301939D01*
X112935000Y-67098061D01*
X117665000Y-67098061D01*
X117665000Y-67301939D01*
X117704774Y-67501898D01*
X117782795Y-67690256D01*
X117896063Y-67859774D01*
X118040226Y-68003937D01*
X118209744Y-68117205D01*
X118398102Y-68195226D01*
X118598061Y-68235000D01*
X118801939Y-68235000D01*
X119001898Y-68195226D01*
X119190256Y-68117205D01*
X119359774Y-68003937D01*
X119503937Y-67859774D01*
X119617205Y-67690256D01*
X119695226Y-67501898D01*
X119730873Y-67322684D01*
X124315000Y-67322684D01*
X124315000Y-67477316D01*
X124345167Y-67628976D01*
X124404342Y-67771837D01*
X124490251Y-67900408D01*
X124599592Y-68009749D01*
X124728163Y-68095658D01*
X124871024Y-68154833D01*
X125022684Y-68185000D01*
X125177316Y-68185000D01*
X125328976Y-68154833D01*
X125471837Y-68095658D01*
X125600408Y-68009749D01*
X125709749Y-67900408D01*
X125795658Y-67771837D01*
X125854833Y-67628976D01*
X125885000Y-67477316D01*
X125885000Y-67322684D01*
X125854833Y-67171024D01*
X125795658Y-67028163D01*
X125709749Y-66899592D01*
X125600408Y-66790251D01*
X125471837Y-66704342D01*
X125328976Y-66645167D01*
X125177316Y-66615000D01*
X125022684Y-66615000D01*
X124871024Y-66645167D01*
X124728163Y-66704342D01*
X124599592Y-66790251D01*
X124490251Y-66899592D01*
X124404342Y-67028163D01*
X124345167Y-67171024D01*
X124315000Y-67322684D01*
X119730873Y-67322684D01*
X119735000Y-67301939D01*
X119735000Y-67098061D01*
X119695226Y-66898102D01*
X119617205Y-66709744D01*
X119503937Y-66540226D01*
X119359774Y-66396063D01*
X119190256Y-66282795D01*
X119001898Y-66204774D01*
X118801939Y-66165000D01*
X118598061Y-66165000D01*
X118398102Y-66204774D01*
X118209744Y-66282795D01*
X118040226Y-66396063D01*
X117896063Y-66540226D01*
X117782795Y-66709744D01*
X117704774Y-66898102D01*
X117665000Y-67098061D01*
X112935000Y-67098061D01*
X112895226Y-66898102D01*
X112817205Y-66709744D01*
X112703937Y-66540226D01*
X112559774Y-66396063D01*
X112390256Y-66282795D01*
X112201898Y-66204774D01*
X112001939Y-66165000D01*
X111798061Y-66165000D01*
X111598102Y-66204774D01*
X111409744Y-66282795D01*
X111240226Y-66396063D01*
X111096063Y-66540226D01*
X110982795Y-66709744D01*
X110904774Y-66898102D01*
X110865000Y-67098061D01*
X108045172Y-67098061D01*
X108117205Y-66990256D01*
X108195226Y-66801898D01*
X108235000Y-66601939D01*
X108235000Y-66528424D01*
X108401898Y-66495226D01*
X108590256Y-66417205D01*
X108759774Y-66303937D01*
X108903937Y-66159774D01*
X109017205Y-65990256D01*
X109095226Y-65801898D01*
X109135000Y-65601939D01*
X109135000Y-65398061D01*
X109095226Y-65198102D01*
X109017205Y-65009744D01*
X108977285Y-64950000D01*
X109017205Y-64890256D01*
X109095226Y-64701898D01*
X109115880Y-64598061D01*
X110865000Y-64598061D01*
X110865000Y-64801939D01*
X110904774Y-65001898D01*
X110982795Y-65190256D01*
X111096063Y-65359774D01*
X111240226Y-65503937D01*
X111409744Y-65617205D01*
X111598102Y-65695226D01*
X111798061Y-65735000D01*
X112001939Y-65735000D01*
X112201898Y-65695226D01*
X112390256Y-65617205D01*
X112559774Y-65503937D01*
X112703937Y-65359774D01*
X112817205Y-65190256D01*
X112895226Y-65001898D01*
X112935000Y-64801939D01*
X112935000Y-64598061D01*
X113365000Y-64598061D01*
X113365000Y-64801939D01*
X113404774Y-65001898D01*
X113482795Y-65190256D01*
X113596063Y-65359774D01*
X113740226Y-65503937D01*
X113909744Y-65617205D01*
X114098102Y-65695226D01*
X114298061Y-65735000D01*
X114501939Y-65735000D01*
X114701898Y-65695226D01*
X114890256Y-65617205D01*
X115059774Y-65503937D01*
X115203937Y-65359774D01*
X115317205Y-65190256D01*
X115395226Y-65001898D01*
X115400000Y-64977897D01*
X115404774Y-65001898D01*
X115482795Y-65190256D01*
X115596063Y-65359774D01*
X115740226Y-65503937D01*
X115909744Y-65617205D01*
X116098102Y-65695226D01*
X116298061Y-65735000D01*
X116501939Y-65735000D01*
X116701898Y-65695226D01*
X116890256Y-65617205D01*
X117059774Y-65503937D01*
X117203937Y-65359774D01*
X117317205Y-65190256D01*
X117395226Y-65001898D01*
X117400000Y-64977897D01*
X117404774Y-65001898D01*
X117482795Y-65190256D01*
X117596063Y-65359774D01*
X117740226Y-65503937D01*
X117909744Y-65617205D01*
X118098102Y-65695226D01*
X118298061Y-65735000D01*
X118501939Y-65735000D01*
X118701898Y-65695226D01*
X118890256Y-65617205D01*
X119059774Y-65503937D01*
X119203937Y-65359774D01*
X119317205Y-65190256D01*
X119395226Y-65001898D01*
X119400000Y-64977897D01*
X119404774Y-65001898D01*
X119482795Y-65190256D01*
X119596063Y-65359774D01*
X119740226Y-65503937D01*
X119909744Y-65617205D01*
X120098102Y-65695226D01*
X120298061Y-65735000D01*
X120501939Y-65735000D01*
X120701898Y-65695226D01*
X120890256Y-65617205D01*
X121059774Y-65503937D01*
X121203937Y-65359774D01*
X121317205Y-65190256D01*
X121395226Y-65001898D01*
X121400000Y-64977897D01*
X121404774Y-65001898D01*
X121482795Y-65190256D01*
X121596063Y-65359774D01*
X121740226Y-65503937D01*
X121909744Y-65617205D01*
X122098102Y-65695226D01*
X122298061Y-65735000D01*
X122501939Y-65735000D01*
X122701898Y-65695226D01*
X122890256Y-65617205D01*
X123059774Y-65503937D01*
X123203937Y-65359774D01*
X123317205Y-65190256D01*
X123395226Y-65001898D01*
X123400000Y-64977897D01*
X123404774Y-65001898D01*
X123482795Y-65190256D01*
X123596063Y-65359774D01*
X123740226Y-65503937D01*
X123909744Y-65617205D01*
X124098102Y-65695226D01*
X124298061Y-65735000D01*
X124501939Y-65735000D01*
X124701898Y-65695226D01*
X124890256Y-65617205D01*
X125059774Y-65503937D01*
X125203937Y-65359774D01*
X125317205Y-65190256D01*
X125395226Y-65001898D01*
X125400000Y-64977897D01*
X125404774Y-65001898D01*
X125482795Y-65190256D01*
X125596063Y-65359774D01*
X125740226Y-65503937D01*
X125909744Y-65617205D01*
X126098102Y-65695226D01*
X126298061Y-65735000D01*
X126501939Y-65735000D01*
X126701898Y-65695226D01*
X126890256Y-65617205D01*
X127059774Y-65503937D01*
X127203937Y-65359774D01*
X127317205Y-65190256D01*
X127395226Y-65001898D01*
X127400000Y-64977897D01*
X127404774Y-65001898D01*
X127482795Y-65190256D01*
X127596063Y-65359774D01*
X127740226Y-65503937D01*
X127909744Y-65617205D01*
X128098102Y-65695226D01*
X128298061Y-65735000D01*
X128501939Y-65735000D01*
X128701898Y-65695226D01*
X128890256Y-65617205D01*
X129059774Y-65503937D01*
X129203937Y-65359774D01*
X129317205Y-65190256D01*
X129395226Y-65001898D01*
X129400000Y-64977897D01*
X129404774Y-65001898D01*
X129482795Y-65190256D01*
X129596063Y-65359774D01*
X129740226Y-65503937D01*
X129909744Y-65617205D01*
X130098102Y-65695226D01*
X130298061Y-65735000D01*
X130501939Y-65735000D01*
X130701898Y-65695226D01*
X130890256Y-65617205D01*
X131059774Y-65503937D01*
X131203937Y-65359774D01*
X131317205Y-65190256D01*
X131395226Y-65001898D01*
X131400000Y-64977897D01*
X131404774Y-65001898D01*
X131482795Y-65190256D01*
X131596063Y-65359774D01*
X131740226Y-65503937D01*
X131909744Y-65617205D01*
X132098102Y-65695226D01*
X132298061Y-65735000D01*
X132501939Y-65735000D01*
X132701898Y-65695226D01*
X132890256Y-65617205D01*
X133059774Y-65503937D01*
X133203937Y-65359774D01*
X133317205Y-65190256D01*
X133395226Y-65001898D01*
X133400000Y-64977897D01*
X133404774Y-65001898D01*
X133482795Y-65190256D01*
X133596063Y-65359774D01*
X133740226Y-65503937D01*
X133909744Y-65617205D01*
X134098102Y-65695226D01*
X134298061Y-65735000D01*
X134501939Y-65735000D01*
X134701898Y-65695226D01*
X134890256Y-65617205D01*
X135059774Y-65503937D01*
X135203937Y-65359774D01*
X135317205Y-65190256D01*
X135395226Y-65001898D01*
X135400000Y-64977897D01*
X135404774Y-65001898D01*
X135482795Y-65190256D01*
X135596063Y-65359774D01*
X135740226Y-65503937D01*
X135909744Y-65617205D01*
X136098102Y-65695226D01*
X136298061Y-65735000D01*
X136501939Y-65735000D01*
X136701898Y-65695226D01*
X136890256Y-65617205D01*
X137059774Y-65503937D01*
X137203937Y-65359774D01*
X137317205Y-65190256D01*
X137395226Y-65001898D01*
X137400000Y-64977897D01*
X137404774Y-65001898D01*
X137482795Y-65190256D01*
X137596063Y-65359774D01*
X137740226Y-65503937D01*
X137909744Y-65617205D01*
X138098102Y-65695226D01*
X138298061Y-65735000D01*
X138501939Y-65735000D01*
X138701898Y-65695226D01*
X138890256Y-65617205D01*
X139059774Y-65503937D01*
X139203937Y-65359774D01*
X139317205Y-65190256D01*
X139395226Y-65001898D01*
X139400000Y-64977897D01*
X139404774Y-65001898D01*
X139482795Y-65190256D01*
X139596063Y-65359774D01*
X139740226Y-65503937D01*
X139909744Y-65617205D01*
X140098102Y-65695226D01*
X140298061Y-65735000D01*
X140501939Y-65735000D01*
X140701898Y-65695226D01*
X140890256Y-65617205D01*
X141059774Y-65503937D01*
X141203937Y-65359774D01*
X141317205Y-65190256D01*
X141395226Y-65001898D01*
X141400000Y-64977897D01*
X141404774Y-65001898D01*
X141482795Y-65190256D01*
X141596063Y-65359774D01*
X141740226Y-65503937D01*
X141909744Y-65617205D01*
X142098102Y-65695226D01*
X142298061Y-65735000D01*
X142501939Y-65735000D01*
X142701898Y-65695226D01*
X142890256Y-65617205D01*
X143059774Y-65503937D01*
X143203937Y-65359774D01*
X143317205Y-65190256D01*
X143395226Y-65001898D01*
X143400000Y-64977897D01*
X143404774Y-65001898D01*
X143482795Y-65190256D01*
X143596063Y-65359774D01*
X143740226Y-65503937D01*
X143909744Y-65617205D01*
X144098102Y-65695226D01*
X144298061Y-65735000D01*
X144501939Y-65735000D01*
X144701898Y-65695226D01*
X144890256Y-65617205D01*
X145059774Y-65503937D01*
X145203937Y-65359774D01*
X145317205Y-65190256D01*
X145395226Y-65001898D01*
X145400000Y-64977897D01*
X145404774Y-65001898D01*
X145482795Y-65190256D01*
X145596063Y-65359774D01*
X145740226Y-65503937D01*
X145909744Y-65617205D01*
X146098102Y-65695226D01*
X146298061Y-65735000D01*
X146501939Y-65735000D01*
X146701898Y-65695226D01*
X146890256Y-65617205D01*
X147059774Y-65503937D01*
X147203937Y-65359774D01*
X147317205Y-65190256D01*
X147395226Y-65001898D01*
X147400000Y-64977897D01*
X147404774Y-65001898D01*
X147482795Y-65190256D01*
X147596063Y-65359774D01*
X147740226Y-65503937D01*
X147909744Y-65617205D01*
X148098102Y-65695226D01*
X148298061Y-65735000D01*
X148501939Y-65735000D01*
X148701898Y-65695226D01*
X148890256Y-65617205D01*
X149059774Y-65503937D01*
X149203937Y-65359774D01*
X149317205Y-65190256D01*
X149395226Y-65001898D01*
X149435000Y-64801939D01*
X149435000Y-64598061D01*
X149765000Y-64598061D01*
X149765000Y-64801939D01*
X149804774Y-65001898D01*
X149882795Y-65190256D01*
X149996063Y-65359774D01*
X150140226Y-65503937D01*
X150309744Y-65617205D01*
X150498102Y-65695226D01*
X150698061Y-65735000D01*
X150901939Y-65735000D01*
X151101898Y-65695226D01*
X151290256Y-65617205D01*
X151459774Y-65503937D01*
X151603937Y-65359774D01*
X151717205Y-65190256D01*
X151795226Y-65001898D01*
X151835000Y-64801939D01*
X151835000Y-64598061D01*
X151795226Y-64398102D01*
X151717205Y-64209744D01*
X151603937Y-64040226D01*
X151459774Y-63896063D01*
X151290256Y-63782795D01*
X151101898Y-63704774D01*
X150901939Y-63665000D01*
X150698061Y-63665000D01*
X150498102Y-63704774D01*
X150309744Y-63782795D01*
X150140226Y-63896063D01*
X149996063Y-64040226D01*
X149882795Y-64209744D01*
X149804774Y-64398102D01*
X149765000Y-64598061D01*
X149435000Y-64598061D01*
X149395226Y-64398102D01*
X149317205Y-64209744D01*
X149203937Y-64040226D01*
X149059774Y-63896063D01*
X148890256Y-63782795D01*
X148701898Y-63704774D01*
X148501939Y-63665000D01*
X148298061Y-63665000D01*
X148098102Y-63704774D01*
X147909744Y-63782795D01*
X147740226Y-63896063D01*
X147596063Y-64040226D01*
X147482795Y-64209744D01*
X147404774Y-64398102D01*
X147400000Y-64422103D01*
X147395226Y-64398102D01*
X147317205Y-64209744D01*
X147203937Y-64040226D01*
X147059774Y-63896063D01*
X146890256Y-63782795D01*
X146701898Y-63704774D01*
X146501939Y-63665000D01*
X146298061Y-63665000D01*
X146098102Y-63704774D01*
X145909744Y-63782795D01*
X145740226Y-63896063D01*
X145596063Y-64040226D01*
X145482795Y-64209744D01*
X145404774Y-64398102D01*
X145400000Y-64422103D01*
X145395226Y-64398102D01*
X145317205Y-64209744D01*
X145203937Y-64040226D01*
X145059774Y-63896063D01*
X144890256Y-63782795D01*
X144701898Y-63704774D01*
X144501939Y-63665000D01*
X144298061Y-63665000D01*
X144098102Y-63704774D01*
X143909744Y-63782795D01*
X143740226Y-63896063D01*
X143596063Y-64040226D01*
X143482795Y-64209744D01*
X143404774Y-64398102D01*
X143400000Y-64422103D01*
X143395226Y-64398102D01*
X143317205Y-64209744D01*
X143203937Y-64040226D01*
X143059774Y-63896063D01*
X142890256Y-63782795D01*
X142701898Y-63704774D01*
X142501939Y-63665000D01*
X142298061Y-63665000D01*
X142098102Y-63704774D01*
X141909744Y-63782795D01*
X141740226Y-63896063D01*
X141596063Y-64040226D01*
X141482795Y-64209744D01*
X141404774Y-64398102D01*
X141400000Y-64422103D01*
X141395226Y-64398102D01*
X141317205Y-64209744D01*
X141203937Y-64040226D01*
X141059774Y-63896063D01*
X140890256Y-63782795D01*
X140701898Y-63704774D01*
X140501939Y-63665000D01*
X140298061Y-63665000D01*
X140098102Y-63704774D01*
X139909744Y-63782795D01*
X139740226Y-63896063D01*
X139596063Y-64040226D01*
X139482795Y-64209744D01*
X139404774Y-64398102D01*
X139400000Y-64422103D01*
X139395226Y-64398102D01*
X139317205Y-64209744D01*
X139203937Y-64040226D01*
X139059774Y-63896063D01*
X138890256Y-63782795D01*
X138701898Y-63704774D01*
X138501939Y-63665000D01*
X138298061Y-63665000D01*
X138098102Y-63704774D01*
X137909744Y-63782795D01*
X137740226Y-63896063D01*
X137596063Y-64040226D01*
X137482795Y-64209744D01*
X137404774Y-64398102D01*
X137400000Y-64422103D01*
X137395226Y-64398102D01*
X137317205Y-64209744D01*
X137203937Y-64040226D01*
X137059774Y-63896063D01*
X136890256Y-63782795D01*
X136701898Y-63704774D01*
X136501939Y-63665000D01*
X136298061Y-63665000D01*
X136098102Y-63704774D01*
X135909744Y-63782795D01*
X135740226Y-63896063D01*
X135596063Y-64040226D01*
X135482795Y-64209744D01*
X135404774Y-64398102D01*
X135400000Y-64422103D01*
X135395226Y-64398102D01*
X135317205Y-64209744D01*
X135203937Y-64040226D01*
X135059774Y-63896063D01*
X134890256Y-63782795D01*
X134701898Y-63704774D01*
X134501939Y-63665000D01*
X134298061Y-63665000D01*
X134098102Y-63704774D01*
X133909744Y-63782795D01*
X133740226Y-63896063D01*
X133596063Y-64040226D01*
X133482795Y-64209744D01*
X133404774Y-64398102D01*
X133400000Y-64422103D01*
X133395226Y-64398102D01*
X133317205Y-64209744D01*
X133203937Y-64040226D01*
X133059774Y-63896063D01*
X132890256Y-63782795D01*
X132701898Y-63704774D01*
X132501939Y-63665000D01*
X132298061Y-63665000D01*
X132098102Y-63704774D01*
X131909744Y-63782795D01*
X131740226Y-63896063D01*
X131596063Y-64040226D01*
X131482795Y-64209744D01*
X131404774Y-64398102D01*
X131400000Y-64422103D01*
X131395226Y-64398102D01*
X131317205Y-64209744D01*
X131203937Y-64040226D01*
X131059774Y-63896063D01*
X130890256Y-63782795D01*
X130701898Y-63704774D01*
X130501939Y-63665000D01*
X130298061Y-63665000D01*
X130098102Y-63704774D01*
X129909744Y-63782795D01*
X129740226Y-63896063D01*
X129596063Y-64040226D01*
X129482795Y-64209744D01*
X129404774Y-64398102D01*
X129400000Y-64422103D01*
X129395226Y-64398102D01*
X129317205Y-64209744D01*
X129203937Y-64040226D01*
X129059774Y-63896063D01*
X128890256Y-63782795D01*
X128701898Y-63704774D01*
X128501939Y-63665000D01*
X128298061Y-63665000D01*
X128098102Y-63704774D01*
X127909744Y-63782795D01*
X127740226Y-63896063D01*
X127596063Y-64040226D01*
X127482795Y-64209744D01*
X127404774Y-64398102D01*
X127400000Y-64422103D01*
X127395226Y-64398102D01*
X127317205Y-64209744D01*
X127203937Y-64040226D01*
X127059774Y-63896063D01*
X126890256Y-63782795D01*
X126701898Y-63704774D01*
X126501939Y-63665000D01*
X126298061Y-63665000D01*
X126098102Y-63704774D01*
X125909744Y-63782795D01*
X125740226Y-63896063D01*
X125596063Y-64040226D01*
X125482795Y-64209744D01*
X125404774Y-64398102D01*
X125400000Y-64422103D01*
X125395226Y-64398102D01*
X125317205Y-64209744D01*
X125203937Y-64040226D01*
X125059774Y-63896063D01*
X124890256Y-63782795D01*
X124701898Y-63704774D01*
X124501939Y-63665000D01*
X124298061Y-63665000D01*
X124098102Y-63704774D01*
X123909744Y-63782795D01*
X123740226Y-63896063D01*
X123596063Y-64040226D01*
X123482795Y-64209744D01*
X123404774Y-64398102D01*
X123400000Y-64422103D01*
X123395226Y-64398102D01*
X123317205Y-64209744D01*
X123203937Y-64040226D01*
X123059774Y-63896063D01*
X122890256Y-63782795D01*
X122701898Y-63704774D01*
X122501939Y-63665000D01*
X122298061Y-63665000D01*
X122098102Y-63704774D01*
X121909744Y-63782795D01*
X121740226Y-63896063D01*
X121596063Y-64040226D01*
X121482795Y-64209744D01*
X121404774Y-64398102D01*
X121400000Y-64422103D01*
X121395226Y-64398102D01*
X121317205Y-64209744D01*
X121203937Y-64040226D01*
X121059774Y-63896063D01*
X120890256Y-63782795D01*
X120701898Y-63704774D01*
X120501939Y-63665000D01*
X120298061Y-63665000D01*
X120098102Y-63704774D01*
X119909744Y-63782795D01*
X119740226Y-63896063D01*
X119596063Y-64040226D01*
X119482795Y-64209744D01*
X119404774Y-64398102D01*
X119400000Y-64422103D01*
X119395226Y-64398102D01*
X119317205Y-64209744D01*
X119203937Y-64040226D01*
X119059774Y-63896063D01*
X118890256Y-63782795D01*
X118701898Y-63704774D01*
X118501939Y-63665000D01*
X118298061Y-63665000D01*
X118098102Y-63704774D01*
X117909744Y-63782795D01*
X117740226Y-63896063D01*
X117596063Y-64040226D01*
X117482795Y-64209744D01*
X117404774Y-64398102D01*
X117400000Y-64422103D01*
X117395226Y-64398102D01*
X117317205Y-64209744D01*
X117203937Y-64040226D01*
X117059774Y-63896063D01*
X116890256Y-63782795D01*
X116701898Y-63704774D01*
X116501939Y-63665000D01*
X116298061Y-63665000D01*
X116098102Y-63704774D01*
X115909744Y-63782795D01*
X115740226Y-63896063D01*
X115596063Y-64040226D01*
X115482795Y-64209744D01*
X115404774Y-64398102D01*
X115400000Y-64422103D01*
X115395226Y-64398102D01*
X115317205Y-64209744D01*
X115203937Y-64040226D01*
X115059774Y-63896063D01*
X114890256Y-63782795D01*
X114701898Y-63704774D01*
X114501939Y-63665000D01*
X114298061Y-63665000D01*
X114098102Y-63704774D01*
X113909744Y-63782795D01*
X113740226Y-63896063D01*
X113596063Y-64040226D01*
X113482795Y-64209744D01*
X113404774Y-64398102D01*
X113365000Y-64598061D01*
X112935000Y-64598061D01*
X112895226Y-64398102D01*
X112817205Y-64209744D01*
X112703937Y-64040226D01*
X112559774Y-63896063D01*
X112390256Y-63782795D01*
X112201898Y-63704774D01*
X112001939Y-63665000D01*
X111798061Y-63665000D01*
X111598102Y-63704774D01*
X111409744Y-63782795D01*
X111240226Y-63896063D01*
X111096063Y-64040226D01*
X110982795Y-64209744D01*
X110904774Y-64398102D01*
X110865000Y-64598061D01*
X109115880Y-64598061D01*
X109135000Y-64501939D01*
X109135000Y-64298061D01*
X109095226Y-64098102D01*
X109023965Y-63926064D01*
X109071906Y-63854315D01*
X109149927Y-63665957D01*
X109177073Y-63529482D01*
X109345662Y-63416835D01*
X109489825Y-63272672D01*
X109603093Y-63103154D01*
X109681114Y-62914796D01*
X109713339Y-62752789D01*
X109809744Y-62817205D01*
X109998102Y-62895226D01*
X110198061Y-62935000D01*
X110401939Y-62935000D01*
X110601898Y-62895226D01*
X110790256Y-62817205D01*
X110959774Y-62703937D01*
X111103937Y-62559774D01*
X111217205Y-62390256D01*
X111295226Y-62201898D01*
X111335000Y-62001939D01*
X111335000Y-61798061D01*
X111295226Y-61598102D01*
X111217205Y-61409744D01*
X111209399Y-61398061D01*
X121365000Y-61398061D01*
X121365000Y-61601939D01*
X121404774Y-61801898D01*
X121482795Y-61990256D01*
X121596063Y-62159774D01*
X121740226Y-62303937D01*
X121909744Y-62417205D01*
X122098102Y-62495226D01*
X122298061Y-62535000D01*
X122501939Y-62535000D01*
X122701898Y-62495226D01*
X122890256Y-62417205D01*
X123059774Y-62303937D01*
X123203937Y-62159774D01*
X123317205Y-61990256D01*
X123395226Y-61801898D01*
X123435000Y-61601939D01*
X123435000Y-61398061D01*
X123395226Y-61198102D01*
X123395210Y-61198061D01*
X136965000Y-61198061D01*
X136965000Y-61401939D01*
X137004774Y-61601898D01*
X137082795Y-61790256D01*
X137196063Y-61959774D01*
X137340226Y-62103937D01*
X137509744Y-62217205D01*
X137698102Y-62295226D01*
X137898061Y-62335000D01*
X138101939Y-62335000D01*
X138301898Y-62295226D01*
X138490256Y-62217205D01*
X138659774Y-62103937D01*
X138803937Y-61959774D01*
X138917205Y-61790256D01*
X138995226Y-61601898D01*
X139035000Y-61401939D01*
X139035000Y-61198061D01*
X138995226Y-60998102D01*
X138917205Y-60809744D01*
X138803937Y-60640226D01*
X138659774Y-60496063D01*
X138490256Y-60382795D01*
X138301898Y-60304774D01*
X138101939Y-60265000D01*
X137898061Y-60265000D01*
X137698102Y-60304774D01*
X137509744Y-60382795D01*
X137340226Y-60496063D01*
X137196063Y-60640226D01*
X137082795Y-60809744D01*
X137004774Y-60998102D01*
X136965000Y-61198061D01*
X123395210Y-61198061D01*
X123317205Y-61009744D01*
X123203937Y-60840226D01*
X123059774Y-60696063D01*
X122890256Y-60582795D01*
X122701898Y-60504774D01*
X122501939Y-60465000D01*
X122298061Y-60465000D01*
X122098102Y-60504774D01*
X121909744Y-60582795D01*
X121740226Y-60696063D01*
X121596063Y-60840226D01*
X121482795Y-61009744D01*
X121404774Y-61198102D01*
X121365000Y-61398061D01*
X111209399Y-61398061D01*
X111103937Y-61240226D01*
X110959774Y-61096063D01*
X110790256Y-60982795D01*
X110601898Y-60904774D01*
X110401939Y-60865000D01*
X110198061Y-60865000D01*
X109998102Y-60904774D01*
X109809744Y-60982795D01*
X109640226Y-61096063D01*
X109496063Y-61240226D01*
X109382795Y-61409744D01*
X109304774Y-61598102D01*
X109272549Y-61760109D01*
X109176144Y-61695693D01*
X108987786Y-61617672D01*
X108857967Y-61591850D01*
X108895226Y-61501898D01*
X108935000Y-61301939D01*
X108935000Y-61098061D01*
X108895226Y-60898102D01*
X108817205Y-60709744D01*
X108703937Y-60540226D01*
X108559774Y-60396063D01*
X108390256Y-60282795D01*
X108201898Y-60204774D01*
X108001939Y-60165000D01*
X107798061Y-60165000D01*
X107656808Y-60193097D01*
X107559774Y-60096063D01*
X107390256Y-59982795D01*
X107201898Y-59904774D01*
X107001939Y-59865000D01*
X106798061Y-59865000D01*
X106598102Y-59904774D01*
X106409744Y-59982795D01*
X106240226Y-60096063D01*
X106096063Y-60240226D01*
X105982795Y-60409744D01*
X105904774Y-60598102D01*
X105865000Y-60798061D01*
X101945172Y-60798061D01*
X102017205Y-60690256D01*
X102095226Y-60501898D01*
X102135000Y-60301939D01*
X102135000Y-60098061D01*
X102095226Y-59898102D01*
X102063987Y-59822684D01*
X120615000Y-59822684D01*
X120615000Y-59977316D01*
X120645167Y-60128976D01*
X120704342Y-60271837D01*
X120790251Y-60400408D01*
X120899592Y-60509749D01*
X121028163Y-60595658D01*
X121171024Y-60654833D01*
X121322684Y-60685000D01*
X121477316Y-60685000D01*
X121628976Y-60654833D01*
X121771837Y-60595658D01*
X121900408Y-60509749D01*
X122009749Y-60400408D01*
X122095658Y-60271837D01*
X122154833Y-60128976D01*
X122185000Y-59977316D01*
X122185000Y-59822684D01*
X122154833Y-59671024D01*
X122095658Y-59528163D01*
X122009749Y-59399592D01*
X121900408Y-59290251D01*
X121771837Y-59204342D01*
X121628976Y-59145167D01*
X121477316Y-59115000D01*
X121322684Y-59115000D01*
X121171024Y-59145167D01*
X121028163Y-59204342D01*
X120899592Y-59290251D01*
X120790251Y-59399592D01*
X120704342Y-59528163D01*
X120645167Y-59671024D01*
X120615000Y-59822684D01*
X102063987Y-59822684D01*
X102017205Y-59709744D01*
X101903937Y-59540226D01*
X101759774Y-59396063D01*
X101591305Y-59283496D01*
X102852117Y-58022684D01*
X104715000Y-58022684D01*
X104715000Y-58177316D01*
X104745167Y-58328976D01*
X104804342Y-58471837D01*
X104890251Y-58600408D01*
X104999592Y-58709749D01*
X105128163Y-58795658D01*
X105271024Y-58854833D01*
X105422684Y-58885000D01*
X105577316Y-58885000D01*
X105728976Y-58854833D01*
X105871837Y-58795658D01*
X106000408Y-58709749D01*
X106109749Y-58600408D01*
X106195658Y-58471837D01*
X106254833Y-58328976D01*
X106260982Y-58298061D01*
X111965000Y-58298061D01*
X111965000Y-58501939D01*
X112004774Y-58701898D01*
X112082795Y-58890256D01*
X112196063Y-59059774D01*
X112340226Y-59203937D01*
X112509744Y-59317205D01*
X112698102Y-59395226D01*
X112898061Y-59435000D01*
X113101939Y-59435000D01*
X113301898Y-59395226D01*
X113490256Y-59317205D01*
X113659774Y-59203937D01*
X113803937Y-59059774D01*
X113917205Y-58890256D01*
X113995226Y-58701898D01*
X114035000Y-58501939D01*
X114035000Y-58298061D01*
X113995226Y-58098102D01*
X113917205Y-57909744D01*
X113803937Y-57740226D01*
X113659774Y-57596063D01*
X113490256Y-57482795D01*
X113301898Y-57404774D01*
X113101939Y-57365000D01*
X112898061Y-57365000D01*
X112698102Y-57404774D01*
X112509744Y-57482795D01*
X112340226Y-57596063D01*
X112196063Y-57740226D01*
X112082795Y-57909744D01*
X112004774Y-58098102D01*
X111965000Y-58298061D01*
X106260982Y-58298061D01*
X106285000Y-58177316D01*
X106285000Y-58022684D01*
X106254833Y-57871024D01*
X106195658Y-57728163D01*
X106109749Y-57599592D01*
X106000408Y-57490251D01*
X105871837Y-57404342D01*
X105728976Y-57345167D01*
X105577316Y-57315000D01*
X105422684Y-57315000D01*
X105271024Y-57345167D01*
X105128163Y-57404342D01*
X104999592Y-57490251D01*
X104890251Y-57599592D01*
X104804342Y-57728163D01*
X104745167Y-57871024D01*
X104715000Y-58022684D01*
X102852117Y-58022684D01*
X103731740Y-57143061D01*
X115465000Y-57143061D01*
X115465000Y-57346939D01*
X115504774Y-57546898D01*
X115582795Y-57735256D01*
X115696063Y-57904774D01*
X115840226Y-58048937D01*
X116009744Y-58162205D01*
X116198102Y-58240226D01*
X116398061Y-58280000D01*
X116601939Y-58280000D01*
X116801898Y-58240226D01*
X116990256Y-58162205D01*
X117159774Y-58048937D01*
X117303937Y-57904774D01*
X117417205Y-57735256D01*
X117495226Y-57546898D01*
X117535000Y-57346939D01*
X117535000Y-57143061D01*
X120165000Y-57143061D01*
X120165000Y-57346939D01*
X120204774Y-57546898D01*
X120282795Y-57735256D01*
X120396063Y-57904774D01*
X120540226Y-58048937D01*
X120709744Y-58162205D01*
X120898102Y-58240226D01*
X121098061Y-58280000D01*
X121301939Y-58280000D01*
X121501898Y-58240226D01*
X121690256Y-58162205D01*
X121859774Y-58048937D01*
X122003937Y-57904774D01*
X122117205Y-57735256D01*
X122195226Y-57546898D01*
X122226411Y-57390122D01*
X122240226Y-57403937D01*
X122409744Y-57517205D01*
X122598102Y-57595226D01*
X122798061Y-57635000D01*
X123001939Y-57635000D01*
X123063856Y-57622684D01*
X125715000Y-57622684D01*
X125715000Y-57777316D01*
X125745167Y-57928976D01*
X125804342Y-58071837D01*
X125890251Y-58200408D01*
X125999592Y-58309749D01*
X126128163Y-58395658D01*
X126271024Y-58454833D01*
X126422684Y-58485000D01*
X126577316Y-58485000D01*
X126728976Y-58454833D01*
X126871837Y-58395658D01*
X127000408Y-58309749D01*
X127109749Y-58200408D01*
X127195658Y-58071837D01*
X127254833Y-57928976D01*
X127285000Y-57777316D01*
X127285000Y-57622684D01*
X127254833Y-57471024D01*
X127195658Y-57328163D01*
X127109749Y-57199592D01*
X127000408Y-57090251D01*
X126871837Y-57004342D01*
X126728976Y-56945167D01*
X126577316Y-56915000D01*
X126422684Y-56915000D01*
X126271024Y-56945167D01*
X126128163Y-57004342D01*
X125999592Y-57090251D01*
X125890251Y-57199592D01*
X125804342Y-57328163D01*
X125745167Y-57471024D01*
X125715000Y-57622684D01*
X123063856Y-57622684D01*
X123201898Y-57595226D01*
X123390256Y-57517205D01*
X123559774Y-57403937D01*
X123703937Y-57259774D01*
X123817205Y-57090256D01*
X123895226Y-56901898D01*
X123935000Y-56701939D01*
X123935000Y-56498061D01*
X123895226Y-56298102D01*
X123886551Y-56277160D01*
X123903937Y-56259774D01*
X124017205Y-56090256D01*
X124095226Y-55901898D01*
X124135000Y-55701939D01*
X124135000Y-55498061D01*
X124095226Y-55298102D01*
X124017205Y-55109744D01*
X123977285Y-55050000D01*
X124017205Y-54990256D01*
X124095226Y-54801898D01*
X124135000Y-54601939D01*
X124135000Y-54398061D01*
X124095226Y-54198102D01*
X124017205Y-54009744D01*
X124010694Y-54000000D01*
X124017205Y-53990256D01*
X124095226Y-53801898D01*
X124099968Y-53778058D01*
X130865000Y-53778058D01*
X130865000Y-53981936D01*
X130904774Y-54181895D01*
X130970263Y-54339998D01*
X130904774Y-54498102D01*
X130865000Y-54698061D01*
X130865000Y-54901939D01*
X130904774Y-55101898D01*
X130982795Y-55290256D01*
X131096063Y-55459774D01*
X131240226Y-55603937D01*
X131409744Y-55717205D01*
X131598102Y-55795226D01*
X131798061Y-55835000D01*
X132001939Y-55835000D01*
X132201898Y-55795226D01*
X132390256Y-55717205D01*
X132559774Y-55603937D01*
X132703937Y-55459774D01*
X132817205Y-55290256D01*
X132895226Y-55101898D01*
X132935000Y-54901939D01*
X132935000Y-54698061D01*
X132895226Y-54498102D01*
X132829737Y-54339998D01*
X132895226Y-54181895D01*
X132935000Y-53981936D01*
X132935000Y-53778058D01*
X132895226Y-53578099D01*
X132817205Y-53389741D01*
X132703937Y-53220223D01*
X132559774Y-53076060D01*
X132390256Y-52962792D01*
X132201898Y-52884771D01*
X132001939Y-52844997D01*
X131798061Y-52844997D01*
X131598102Y-52884771D01*
X131409744Y-52962792D01*
X131240226Y-53076060D01*
X131096063Y-53220223D01*
X130982795Y-53389741D01*
X130904774Y-53578099D01*
X130865000Y-53778058D01*
X124099968Y-53778058D01*
X124135000Y-53601939D01*
X124135000Y-53398061D01*
X124095226Y-53198102D01*
X124017205Y-53009744D01*
X123903937Y-52840226D01*
X123759774Y-52696063D01*
X123590256Y-52582795D01*
X123401898Y-52504774D01*
X123201939Y-52465000D01*
X122998061Y-52465000D01*
X122798102Y-52504774D01*
X122609744Y-52582795D01*
X122440226Y-52696063D01*
X122296063Y-52840226D01*
X122182795Y-53009744D01*
X122104774Y-53198102D01*
X122065000Y-53398061D01*
X122065000Y-53601939D01*
X122104774Y-53801898D01*
X122182795Y-53990256D01*
X122189306Y-54000000D01*
X122182795Y-54009744D01*
X122104774Y-54198102D01*
X122065000Y-54398061D01*
X122065000Y-54601939D01*
X122104774Y-54801898D01*
X122182795Y-54990256D01*
X122222715Y-55050000D01*
X122182795Y-55109744D01*
X122104774Y-55298102D01*
X122065000Y-55498061D01*
X122065000Y-55701939D01*
X122104774Y-55901898D01*
X122113449Y-55922840D01*
X122096063Y-55940226D01*
X121982795Y-56109744D01*
X121904774Y-56298102D01*
X121873589Y-56454878D01*
X121859774Y-56441063D01*
X121690256Y-56327795D01*
X121501898Y-56249774D01*
X121301939Y-56210000D01*
X121098061Y-56210000D01*
X120898102Y-56249774D01*
X120709744Y-56327795D01*
X120540226Y-56441063D01*
X120396063Y-56585226D01*
X120282795Y-56754744D01*
X120204774Y-56943102D01*
X120165000Y-57143061D01*
X117535000Y-57143061D01*
X117495226Y-56943102D01*
X117417205Y-56754744D01*
X117303937Y-56585226D01*
X117159774Y-56441063D01*
X116990256Y-56327795D01*
X116801898Y-56249774D01*
X116601939Y-56210000D01*
X116398061Y-56210000D01*
X116198102Y-56249774D01*
X116009744Y-56327795D01*
X115840226Y-56441063D01*
X115696063Y-56585226D01*
X115582795Y-56754744D01*
X115504774Y-56943102D01*
X115465000Y-57143061D01*
X103731740Y-57143061D01*
X103839802Y-57035000D01*
X103901939Y-57035000D01*
X104101898Y-56995226D01*
X104290256Y-56917205D01*
X104459774Y-56803937D01*
X104603937Y-56659774D01*
X104717205Y-56490256D01*
X104795226Y-56301898D01*
X104835000Y-56101939D01*
X104835000Y-55898061D01*
X104826050Y-55853061D01*
X117365000Y-55853061D01*
X117365000Y-56056939D01*
X117404774Y-56256898D01*
X117482795Y-56445256D01*
X117596063Y-56614774D01*
X117740226Y-56758937D01*
X117909744Y-56872205D01*
X118098102Y-56950226D01*
X118298061Y-56990000D01*
X118501939Y-56990000D01*
X118701898Y-56950226D01*
X118890256Y-56872205D01*
X119059774Y-56758937D01*
X119203937Y-56614774D01*
X119317205Y-56445256D01*
X119395226Y-56256898D01*
X119435000Y-56056939D01*
X119435000Y-55853061D01*
X119395226Y-55653102D01*
X119317205Y-55464744D01*
X119203937Y-55295226D01*
X119059774Y-55151063D01*
X118890256Y-55037795D01*
X118701898Y-54959774D01*
X118501939Y-54920000D01*
X118298061Y-54920000D01*
X118098102Y-54959774D01*
X117909744Y-55037795D01*
X117740226Y-55151063D01*
X117596063Y-55295226D01*
X117482795Y-55464744D01*
X117404774Y-55653102D01*
X117365000Y-55853061D01*
X104826050Y-55853061D01*
X104795226Y-55698102D01*
X104717205Y-55509744D01*
X104603937Y-55340226D01*
X104459774Y-55196063D01*
X104290256Y-55082795D01*
X104101898Y-55004774D01*
X103901939Y-54965000D01*
X103698061Y-54965000D01*
X103498102Y-55004774D01*
X103309744Y-55082795D01*
X103140226Y-55196063D01*
X102996063Y-55340226D01*
X102882795Y-55509744D01*
X102804774Y-55698102D01*
X102765000Y-55898061D01*
X102765000Y-55960198D01*
X99930200Y-58794999D01*
X96227000Y-58794999D01*
X96227000Y-58500000D01*
X96224560Y-58475224D01*
X96217333Y-58451399D01*
X96205597Y-58429443D01*
X96189803Y-58410197D01*
X96170557Y-58394403D01*
X96148601Y-58382667D01*
X96124776Y-58375440D01*
X96100000Y-58373000D01*
X90800000Y-58373000D01*
X90775224Y-58375440D01*
X90751399Y-58382667D01*
X90729443Y-58394403D01*
X90710197Y-58410197D01*
X90694403Y-58429443D01*
X90682667Y-58451399D01*
X90675440Y-58475224D01*
X90673000Y-58500000D01*
X90673000Y-58794999D01*
X79958320Y-58794999D01*
X79920997Y-58791323D01*
X79883674Y-58794999D01*
X79883665Y-58794999D01*
X79772012Y-58805996D01*
X79628751Y-58849453D01*
X79496722Y-58920025D01*
X79380997Y-59014998D01*
X79357199Y-59043996D01*
X76856197Y-61544999D01*
X76647732Y-61544999D01*
X76610399Y-61541322D01*
X76573066Y-61544999D01*
X76461413Y-61555996D01*
X76318152Y-61599453D01*
X76186123Y-61670025D01*
X76070398Y-61764998D01*
X76046600Y-61793997D01*
X75264995Y-62575602D01*
X75235997Y-62599400D01*
X75212199Y-62628398D01*
X75212198Y-62628399D01*
X75141023Y-62715125D01*
X75104530Y-62783398D01*
X75070451Y-62847154D01*
X75026994Y-62990415D01*
X75015997Y-63102068D01*
X75015997Y-63102079D01*
X75012321Y-63139401D01*
X75015997Y-63176723D01*
X75015997Y-63420736D01*
X74995167Y-63471024D01*
X74978056Y-63557044D01*
X74869187Y-63448175D01*
X74699669Y-63334907D01*
X74511311Y-63256886D01*
X74311352Y-63217112D01*
X74107474Y-63217112D01*
X73907515Y-63256886D01*
X73719157Y-63334907D01*
X73549639Y-63448175D01*
X73405476Y-63592338D01*
X73292208Y-63761856D01*
X73214187Y-63950214D01*
X73174413Y-64150173D01*
X72875229Y-64150173D01*
X72895226Y-64101898D01*
X72935000Y-63901939D01*
X72935000Y-63698061D01*
X72895226Y-63498102D01*
X72817205Y-63309744D01*
X72703937Y-63140226D01*
X72559774Y-62996063D01*
X72390256Y-62882795D01*
X72201898Y-62804774D01*
X72001939Y-62765000D01*
X71798061Y-62765000D01*
X71598102Y-62804774D01*
X71409744Y-62882795D01*
X71240226Y-62996063D01*
X71096063Y-63140226D01*
X70982795Y-63309744D01*
X70904774Y-63498102D01*
X70865000Y-63698061D01*
X60460000Y-63698061D01*
X60460000Y-57898061D01*
X69365000Y-57898061D01*
X69365000Y-58101939D01*
X69404774Y-58301898D01*
X69482795Y-58490256D01*
X69596063Y-58659774D01*
X69740226Y-58803937D01*
X69909744Y-58917205D01*
X70098102Y-58995226D01*
X70298061Y-59035000D01*
X70501939Y-59035000D01*
X70701898Y-58995226D01*
X70890256Y-58917205D01*
X71059774Y-58803937D01*
X71203937Y-58659774D01*
X71245172Y-58598061D01*
X73065000Y-58598061D01*
X73065000Y-58801939D01*
X73104774Y-59001898D01*
X73182795Y-59190256D01*
X73296063Y-59359774D01*
X73440226Y-59503937D01*
X73609744Y-59617205D01*
X73798102Y-59695226D01*
X73998061Y-59735000D01*
X74201939Y-59735000D01*
X74401898Y-59695226D01*
X74590256Y-59617205D01*
X74759774Y-59503937D01*
X74903937Y-59359774D01*
X75017205Y-59190256D01*
X75095226Y-59001898D01*
X75135000Y-58801939D01*
X75135000Y-58598061D01*
X75095226Y-58398102D01*
X75017205Y-58209744D01*
X74903937Y-58040226D01*
X74759774Y-57896063D01*
X74590256Y-57782795D01*
X74401898Y-57704774D01*
X74201939Y-57665000D01*
X73998061Y-57665000D01*
X73798102Y-57704774D01*
X73609744Y-57782795D01*
X73440226Y-57896063D01*
X73296063Y-58040226D01*
X73182795Y-58209744D01*
X73104774Y-58398102D01*
X73065000Y-58598061D01*
X71245172Y-58598061D01*
X71317205Y-58490256D01*
X71395226Y-58301898D01*
X71435000Y-58101939D01*
X71435000Y-57898061D01*
X71395226Y-57698102D01*
X71317205Y-57509744D01*
X71203937Y-57340226D01*
X71059774Y-57196063D01*
X70890256Y-57082795D01*
X70701898Y-57004774D01*
X70501939Y-56965000D01*
X70298061Y-56965000D01*
X70098102Y-57004774D01*
X69909744Y-57082795D01*
X69740226Y-57196063D01*
X69596063Y-57340226D01*
X69482795Y-57509744D01*
X69404774Y-57698102D01*
X69365000Y-57898061D01*
X60460000Y-57898061D01*
X60460000Y-55347116D01*
X73632423Y-55347116D01*
X73632423Y-55852884D01*
X73731094Y-56348934D01*
X73924643Y-56816204D01*
X74205633Y-57236735D01*
X74563265Y-57594367D01*
X74983796Y-57875357D01*
X75451066Y-58068906D01*
X75947116Y-58167577D01*
X76452884Y-58167577D01*
X76948934Y-58068906D01*
X77416204Y-57875357D01*
X77836735Y-57594367D01*
X78194367Y-57236735D01*
X78404209Y-56922684D01*
X98215000Y-56922684D01*
X98215000Y-57077316D01*
X98245167Y-57228976D01*
X98304342Y-57371837D01*
X98390251Y-57500408D01*
X98499592Y-57609749D01*
X98628163Y-57695658D01*
X98771024Y-57754833D01*
X98922684Y-57785000D01*
X98974843Y-57785000D01*
X98999592Y-57809749D01*
X99128163Y-57895658D01*
X99271024Y-57954833D01*
X99422684Y-57985000D01*
X99577316Y-57985000D01*
X99728976Y-57954833D01*
X99871837Y-57895658D01*
X100000408Y-57809749D01*
X100109749Y-57700408D01*
X100195658Y-57571837D01*
X100254833Y-57428976D01*
X100285000Y-57277316D01*
X100285000Y-57122684D01*
X100254833Y-56971024D01*
X100195658Y-56828163D01*
X100109749Y-56699592D01*
X100000408Y-56590251D01*
X99871837Y-56504342D01*
X99728976Y-56445167D01*
X99577316Y-56415000D01*
X99525157Y-56415000D01*
X99500408Y-56390251D01*
X99371837Y-56304342D01*
X99228976Y-56245167D01*
X99077316Y-56215000D01*
X98922684Y-56215000D01*
X98771024Y-56245167D01*
X98628163Y-56304342D01*
X98499592Y-56390251D01*
X98390251Y-56499592D01*
X98304342Y-56628163D01*
X98245167Y-56771024D01*
X98215000Y-56922684D01*
X78404209Y-56922684D01*
X78475357Y-56816204D01*
X78668906Y-56348934D01*
X78767577Y-55852884D01*
X78767577Y-55347116D01*
X78668906Y-54851066D01*
X78475357Y-54383796D01*
X78217617Y-53998061D01*
X99665000Y-53998061D01*
X99665000Y-54201939D01*
X99704774Y-54401898D01*
X99782795Y-54590256D01*
X99896063Y-54759774D01*
X100040226Y-54903937D01*
X100209744Y-55017205D01*
X100398102Y-55095226D01*
X100598061Y-55135000D01*
X100801939Y-55135000D01*
X101001898Y-55095226D01*
X101190256Y-55017205D01*
X101350000Y-54910468D01*
X101509744Y-55017205D01*
X101698102Y-55095226D01*
X101898061Y-55135000D01*
X102101939Y-55135000D01*
X102301898Y-55095226D01*
X102490256Y-55017205D01*
X102659774Y-54903937D01*
X102803937Y-54759774D01*
X102917205Y-54590256D01*
X102995226Y-54401898D01*
X103035000Y-54201939D01*
X103035000Y-53998061D01*
X103015109Y-53898061D01*
X105765000Y-53898061D01*
X105765000Y-54101939D01*
X105804774Y-54301898D01*
X105882795Y-54490256D01*
X105996063Y-54659774D01*
X106140226Y-54803937D01*
X106309744Y-54917205D01*
X106498102Y-54995226D01*
X106698061Y-55035000D01*
X106901939Y-55035000D01*
X107101898Y-54995226D01*
X107290256Y-54917205D01*
X107459774Y-54803937D01*
X107603937Y-54659774D01*
X107717205Y-54490256D01*
X107795226Y-54301898D01*
X107835000Y-54101939D01*
X107835000Y-53898061D01*
X107795226Y-53698102D01*
X107717205Y-53509744D01*
X107603937Y-53340226D01*
X107459774Y-53196063D01*
X107290256Y-53082795D01*
X107101898Y-53004774D01*
X106901939Y-52965000D01*
X106698061Y-52965000D01*
X106498102Y-53004774D01*
X106309744Y-53082795D01*
X106140226Y-53196063D01*
X105996063Y-53340226D01*
X105882795Y-53509744D01*
X105804774Y-53698102D01*
X105765000Y-53898061D01*
X103015109Y-53898061D01*
X102995226Y-53798102D01*
X102917205Y-53609744D01*
X102803937Y-53440226D01*
X102659774Y-53296063D01*
X102490256Y-53182795D01*
X102301898Y-53104774D01*
X102129515Y-53070485D01*
X102095226Y-52898102D01*
X102017205Y-52709744D01*
X101903937Y-52540226D01*
X101759774Y-52396063D01*
X101590256Y-52282795D01*
X101401898Y-52204774D01*
X101201939Y-52165000D01*
X100998061Y-52165000D01*
X100798102Y-52204774D01*
X100609744Y-52282795D01*
X100440226Y-52396063D01*
X100296063Y-52540226D01*
X100182795Y-52709744D01*
X100104774Y-52898102D01*
X100065000Y-53098061D01*
X100065000Y-53279510D01*
X100040226Y-53296063D01*
X99896063Y-53440226D01*
X99782795Y-53609744D01*
X99704774Y-53798102D01*
X99665000Y-53998061D01*
X78217617Y-53998061D01*
X78194367Y-53963265D01*
X77836735Y-53605633D01*
X77416204Y-53324643D01*
X76948934Y-53131094D01*
X76452884Y-53032423D01*
X75947116Y-53032423D01*
X75451066Y-53131094D01*
X74983796Y-53324643D01*
X74563265Y-53605633D01*
X74205633Y-53963265D01*
X73924643Y-54383796D01*
X73731094Y-54851066D01*
X73632423Y-55347116D01*
X60460000Y-55347116D01*
X60460000Y-52300807D01*
X60597912Y-52507207D01*
X60992793Y-52902088D01*
X61457124Y-53212344D01*
X61973061Y-53426052D01*
X62520777Y-53535000D01*
X63079223Y-53535000D01*
X63626939Y-53426052D01*
X64142876Y-53212344D01*
X64607207Y-52902088D01*
X65002088Y-52507207D01*
X65312344Y-52042876D01*
X65415789Y-51793137D01*
X65865000Y-51793137D01*
X65865000Y-52006863D01*
X65906696Y-52216483D01*
X65988485Y-52413940D01*
X66107225Y-52591647D01*
X66258353Y-52742775D01*
X66436060Y-52861515D01*
X66633517Y-52943304D01*
X66843137Y-52985000D01*
X67056863Y-52985000D01*
X67266483Y-52943304D01*
X67463940Y-52861515D01*
X67641647Y-52742775D01*
X67792775Y-52591647D01*
X67911515Y-52413940D01*
X67993304Y-52216483D01*
X68035000Y-52006863D01*
X68035000Y-51793137D01*
X72665000Y-51793137D01*
X72665000Y-52006863D01*
X72706696Y-52216483D01*
X72788485Y-52413940D01*
X72907225Y-52591647D01*
X73058353Y-52742775D01*
X73236060Y-52861515D01*
X73433517Y-52943304D01*
X73643137Y-52985000D01*
X73856863Y-52985000D01*
X74066483Y-52943304D01*
X74263940Y-52861515D01*
X74441647Y-52742775D01*
X74592775Y-52591647D01*
X74711515Y-52413940D01*
X74793304Y-52216483D01*
X74835000Y-52006863D01*
X74835000Y-51793137D01*
X74793304Y-51583517D01*
X74711515Y-51386060D01*
X74592775Y-51208353D01*
X74582483Y-51198061D01*
X82965000Y-51198061D01*
X82965000Y-51401939D01*
X83004774Y-51601898D01*
X83082795Y-51790256D01*
X83196063Y-51959774D01*
X83340226Y-52103937D01*
X83509744Y-52217205D01*
X83698102Y-52295226D01*
X83898061Y-52335000D01*
X84101939Y-52335000D01*
X84301898Y-52295226D01*
X84490256Y-52217205D01*
X84659774Y-52103937D01*
X84803937Y-51959774D01*
X84917205Y-51790256D01*
X84995226Y-51601898D01*
X85035000Y-51401939D01*
X85035000Y-51198061D01*
X87165000Y-51198061D01*
X87165000Y-51401939D01*
X87204774Y-51601898D01*
X87282795Y-51790256D01*
X87396063Y-51959774D01*
X87540226Y-52103937D01*
X87596177Y-52141322D01*
X87565000Y-52298061D01*
X87565000Y-52501939D01*
X87604774Y-52701898D01*
X87682795Y-52890256D01*
X87796063Y-53059774D01*
X87940226Y-53203937D01*
X88109744Y-53317205D01*
X88298102Y-53395226D01*
X88498061Y-53435000D01*
X88701939Y-53435000D01*
X88901898Y-53395226D01*
X89090256Y-53317205D01*
X89259774Y-53203937D01*
X89403937Y-53059774D01*
X89517205Y-52890256D01*
X89595226Y-52701898D01*
X89635000Y-52501939D01*
X89635000Y-52298061D01*
X89595226Y-52098102D01*
X89517205Y-51909744D01*
X89403937Y-51740226D01*
X89259774Y-51596063D01*
X89203823Y-51558678D01*
X89235000Y-51401939D01*
X89235000Y-51198061D01*
X89195226Y-50998102D01*
X89117205Y-50809744D01*
X89003937Y-50640226D01*
X88859774Y-50496063D01*
X88690256Y-50382795D01*
X88501898Y-50304774D01*
X88301939Y-50265000D01*
X88098061Y-50265000D01*
X87898102Y-50304774D01*
X87709744Y-50382795D01*
X87540226Y-50496063D01*
X87396063Y-50640226D01*
X87282795Y-50809744D01*
X87204774Y-50998102D01*
X87165000Y-51198061D01*
X85035000Y-51198061D01*
X84995226Y-50998102D01*
X84917205Y-50809744D01*
X84803937Y-50640226D01*
X84659774Y-50496063D01*
X84490256Y-50382795D01*
X84301898Y-50304774D01*
X84101939Y-50265000D01*
X83898061Y-50265000D01*
X83698102Y-50304774D01*
X83509744Y-50382795D01*
X83340226Y-50496063D01*
X83196063Y-50640226D01*
X83082795Y-50809744D01*
X83004774Y-50998102D01*
X82965000Y-51198061D01*
X74582483Y-51198061D01*
X74441647Y-51057225D01*
X74263940Y-50938485D01*
X74066483Y-50856696D01*
X73856863Y-50815000D01*
X73643137Y-50815000D01*
X73433517Y-50856696D01*
X73236060Y-50938485D01*
X73058353Y-51057225D01*
X72907225Y-51208353D01*
X72788485Y-51386060D01*
X72706696Y-51583517D01*
X72665000Y-51793137D01*
X68035000Y-51793137D01*
X67993304Y-51583517D01*
X67911515Y-51386060D01*
X67792775Y-51208353D01*
X67641647Y-51057225D01*
X67463940Y-50938485D01*
X67266483Y-50856696D01*
X67056863Y-50815000D01*
X66843137Y-50815000D01*
X66633517Y-50856696D01*
X66436060Y-50938485D01*
X66258353Y-51057225D01*
X66107225Y-51208353D01*
X65988485Y-51386060D01*
X65906696Y-51583517D01*
X65865000Y-51793137D01*
X65415789Y-51793137D01*
X65526052Y-51526939D01*
X65635000Y-50979223D01*
X65635000Y-50420777D01*
X65526052Y-49873061D01*
X65312344Y-49357124D01*
X65002088Y-48892793D01*
X64607207Y-48497912D01*
X64400807Y-48360000D01*
X148799193Y-48360000D01*
X148592793Y-48497912D01*
M02*
