G04 #@! TF.GenerationSoftware,KiCad,Pcbnew,(5.1.5)-3*
G04 #@! TF.CreationDate,2020-05-04T17:56:06+05:30*
G04 #@! TF.ProjectId,Battery_Charger,42617474-6572-4795-9f43-686172676572,rev?*
G04 #@! TF.SameCoordinates,Original*
G04 #@! TF.FileFunction,Paste,Bot*
G04 #@! TF.FilePolarity,Positive*
%FSLAX46Y46*%
G04 Gerber Fmt 4.6, Leading zero omitted, Abs format (unit mm)*
G04 Created by KiCad (PCBNEW (5.1.5)-3) date 2020-05-04 17:56:06*
%MOMM*%
%LPD*%
G04 APERTURE LIST*
%ADD10C,0.100000*%
G04 APERTURE END LIST*
D10*
G36*
X105000378Y-64640003D02*
G01*
X105000419Y-64640001D01*
X105000460Y-64640003D01*
X105000838Y-64640006D01*
X105003529Y-64640175D01*
X105006272Y-64640329D01*
X105006477Y-64640361D01*
X105006688Y-64640374D01*
X105009358Y-64640806D01*
X105012065Y-64641225D01*
X105012272Y-64641278D01*
X105012475Y-64641311D01*
X105015044Y-64641990D01*
X105017742Y-64642683D01*
X105017945Y-64642757D01*
X105018142Y-64642809D01*
X105020639Y-64643737D01*
X105023251Y-64644688D01*
X105023442Y-64644779D01*
X105023637Y-64644852D01*
X105026058Y-64646033D01*
X105028537Y-64647221D01*
X105028719Y-64647331D01*
X105028905Y-64647422D01*
X105031211Y-64648840D01*
X105033552Y-64650258D01*
X105033719Y-64650383D01*
X105033898Y-64650493D01*
X105036084Y-64652152D01*
X105038245Y-64653769D01*
X105038398Y-64653909D01*
X105038567Y-64654037D01*
X105040582Y-64655903D01*
X105042574Y-64657722D01*
X105042714Y-64657877D01*
X105042868Y-64658020D01*
X105044642Y-64660018D01*
X105046497Y-64662078D01*
X105046626Y-64662253D01*
X105046760Y-64662404D01*
X105048360Y-64664606D01*
X105049975Y-64666797D01*
X105050078Y-64666970D01*
X105050206Y-64667146D01*
X105051607Y-64669534D01*
X105052977Y-64671832D01*
X105053066Y-64672022D01*
X105053172Y-64672202D01*
X105054301Y-64674646D01*
X105055473Y-64677136D01*
X105055544Y-64677337D01*
X105055631Y-64677524D01*
X105056522Y-64680082D01*
X105057439Y-64682658D01*
X105057489Y-64682860D01*
X105057559Y-64683060D01*
X105058204Y-64685728D01*
X105058857Y-64688346D01*
X105058887Y-64688552D01*
X105058937Y-64688757D01*
X105059312Y-64691426D01*
X105059714Y-64694145D01*
X105059724Y-64694359D01*
X105059753Y-64694562D01*
X105059867Y-64697283D01*
X105060000Y-64700000D01*
X105060000Y-70700000D01*
X105059997Y-70700378D01*
X105059999Y-70700419D01*
X105059997Y-70700460D01*
X105059994Y-70700838D01*
X105059825Y-70703529D01*
X105059671Y-70706272D01*
X105059639Y-70706477D01*
X105059626Y-70706688D01*
X105059194Y-70709358D01*
X105058775Y-70712065D01*
X105058722Y-70712272D01*
X105058689Y-70712475D01*
X105058010Y-70715044D01*
X105057317Y-70717742D01*
X105057243Y-70717945D01*
X105057191Y-70718142D01*
X105056263Y-70720639D01*
X105055312Y-70723251D01*
X105055221Y-70723442D01*
X105055148Y-70723637D01*
X105053967Y-70726058D01*
X105052779Y-70728537D01*
X105052669Y-70728719D01*
X105052578Y-70728905D01*
X105051160Y-70731211D01*
X105049742Y-70733552D01*
X105049617Y-70733719D01*
X105049507Y-70733898D01*
X105047848Y-70736084D01*
X105046231Y-70738245D01*
X105046091Y-70738398D01*
X105045963Y-70738567D01*
X105044097Y-70740582D01*
X105042278Y-70742574D01*
X105042123Y-70742714D01*
X105041980Y-70742868D01*
X105039982Y-70744642D01*
X105037922Y-70746497D01*
X105037747Y-70746626D01*
X105037596Y-70746760D01*
X105035394Y-70748360D01*
X105033203Y-70749975D01*
X105033030Y-70750078D01*
X105032854Y-70750206D01*
X105030466Y-70751607D01*
X105028168Y-70752977D01*
X105027978Y-70753066D01*
X105027798Y-70753172D01*
X105025354Y-70754301D01*
X105022864Y-70755473D01*
X105022663Y-70755544D01*
X105022476Y-70755631D01*
X105019918Y-70756522D01*
X105017342Y-70757439D01*
X105017140Y-70757489D01*
X105016940Y-70757559D01*
X105014272Y-70758204D01*
X105011654Y-70758857D01*
X105011448Y-70758887D01*
X105011243Y-70758937D01*
X105008574Y-70759312D01*
X105005855Y-70759714D01*
X105005641Y-70759724D01*
X105005438Y-70759753D01*
X105002717Y-70759867D01*
X105000000Y-70760000D01*
X103000000Y-70760000D01*
X102999622Y-70759997D01*
X102999581Y-70759999D01*
X102999540Y-70759997D01*
X102999162Y-70759994D01*
X102996471Y-70759825D01*
X102993728Y-70759671D01*
X102993523Y-70759639D01*
X102993312Y-70759626D01*
X102990642Y-70759194D01*
X102987935Y-70758775D01*
X102987728Y-70758722D01*
X102987525Y-70758689D01*
X102984956Y-70758010D01*
X102982258Y-70757317D01*
X102982055Y-70757243D01*
X102981858Y-70757191D01*
X102979361Y-70756263D01*
X102976749Y-70755312D01*
X102976558Y-70755221D01*
X102976363Y-70755148D01*
X102973942Y-70753967D01*
X102971463Y-70752779D01*
X102971281Y-70752669D01*
X102971095Y-70752578D01*
X102968789Y-70751160D01*
X102966448Y-70749742D01*
X102966281Y-70749617D01*
X102966102Y-70749507D01*
X102963916Y-70747848D01*
X102961755Y-70746231D01*
X102961602Y-70746091D01*
X102961433Y-70745963D01*
X102959418Y-70744097D01*
X102957426Y-70742278D01*
X102957286Y-70742123D01*
X102957132Y-70741980D01*
X102955358Y-70739982D01*
X102953503Y-70737922D01*
X102953374Y-70737747D01*
X102953240Y-70737596D01*
X102951611Y-70735355D01*
X102950025Y-70733203D01*
X102949922Y-70733030D01*
X102949794Y-70732854D01*
X102948393Y-70730466D01*
X102947023Y-70728168D01*
X102946934Y-70727978D01*
X102946828Y-70727798D01*
X102945699Y-70725354D01*
X102944527Y-70722864D01*
X102944456Y-70722663D01*
X102944369Y-70722476D01*
X102943478Y-70719918D01*
X102942561Y-70717342D01*
X102942511Y-70717140D01*
X102942441Y-70716940D01*
X102941796Y-70714272D01*
X102941143Y-70711654D01*
X102941113Y-70711448D01*
X102941063Y-70711243D01*
X102940688Y-70708574D01*
X102940286Y-70705855D01*
X102940276Y-70705641D01*
X102940247Y-70705438D01*
X102940133Y-70702717D01*
X102940000Y-70700000D01*
X102940000Y-68700000D01*
X102940006Y-68699162D01*
X102940164Y-68696643D01*
X102940287Y-68694143D01*
X102940348Y-68693733D01*
X102940374Y-68693312D01*
X102940778Y-68690818D01*
X102941143Y-68688344D01*
X102941244Y-68687939D01*
X102941311Y-68687525D01*
X102941949Y-68685110D01*
X102942561Y-68682657D01*
X102942704Y-68682256D01*
X102942809Y-68681858D01*
X102943680Y-68679514D01*
X102944528Y-68677134D01*
X102944706Y-68676756D01*
X102944852Y-68676363D01*
X102945951Y-68674110D01*
X102947024Y-68671830D01*
X102947241Y-68671466D01*
X102947422Y-68671095D01*
X102948725Y-68668977D01*
X102950026Y-68666794D01*
X102950276Y-68666456D01*
X102950493Y-68666102D01*
X102952004Y-68664111D01*
X102953504Y-68662077D01*
X102953785Y-68661765D01*
X102954037Y-68661433D01*
X102955762Y-68659570D01*
X102957427Y-68657721D01*
X102957735Y-68657440D01*
X102958020Y-68657132D01*
X102959892Y-68655470D01*
X102961756Y-68653768D01*
X102962094Y-68653515D01*
X102962404Y-68653240D01*
X102964483Y-68651729D01*
X102966451Y-68650257D01*
X102966799Y-68650046D01*
X102967146Y-68649794D01*
X102969350Y-68648501D01*
X102971465Y-68647220D01*
X102971841Y-68647040D01*
X102972202Y-68646828D01*
X102974467Y-68645781D01*
X102976751Y-68644687D01*
X102977150Y-68644542D01*
X102977524Y-68644369D01*
X102979885Y-68643547D01*
X102982259Y-68642683D01*
X102982663Y-68642579D01*
X102983060Y-68642441D01*
X102985498Y-68641851D01*
X102987937Y-68641225D01*
X102988355Y-68641160D01*
X102988757Y-68641063D01*
X102991211Y-68640718D01*
X102993730Y-68640328D01*
X102994154Y-68640304D01*
X102994562Y-68640247D01*
X102997051Y-68640142D01*
X102999583Y-68640001D01*
X103011868Y-68639916D01*
X103104778Y-68634070D01*
X103195423Y-68619389D01*
X103284200Y-68595933D01*
X103370275Y-68563922D01*
X103452817Y-68523664D01*
X103531022Y-68475552D01*
X103604177Y-68420024D01*
X103671554Y-68357632D01*
X103732525Y-68288959D01*
X103786497Y-68214672D01*
X103832966Y-68135469D01*
X103871486Y-68052105D01*
X103901686Y-67965382D01*
X103923280Y-67876121D01*
X103936060Y-67785185D01*
X103939906Y-67693437D01*
X103934780Y-67601759D01*
X103920729Y-67510998D01*
X103897894Y-67422060D01*
X103866483Y-67335759D01*
X103826808Y-67252951D01*
X103779237Y-67174400D01*
X103724222Y-67100861D01*
X103686911Y-67060000D01*
X103843518Y-67060000D01*
X103849403Y-67067867D01*
X103850375Y-67066275D01*
X103853903Y-67061593D01*
X103855368Y-67060000D01*
X103843518Y-67060000D01*
X103686911Y-67060000D01*
X103662310Y-67033059D01*
X103594059Y-66971606D01*
X103520151Y-66917115D01*
X103441273Y-66870094D01*
X103358183Y-66830995D01*
X103271678Y-66800191D01*
X103182561Y-66777972D01*
X103091721Y-66764558D01*
X102997069Y-66759928D01*
X102996232Y-66759881D01*
X102994989Y-66759742D01*
X102993728Y-66759671D01*
X102992067Y-66759414D01*
X102990407Y-66759228D01*
X102989187Y-66758969D01*
X102987935Y-66758775D01*
X102986295Y-66758354D01*
X102984673Y-66758009D01*
X102983487Y-66757633D01*
X102982258Y-66757317D01*
X102980662Y-66756736D01*
X102979086Y-66756236D01*
X102977948Y-66755748D01*
X102976749Y-66755312D01*
X102975225Y-66754582D01*
X102973697Y-66753927D01*
X102972600Y-66753324D01*
X102971463Y-66752779D01*
X102970021Y-66751906D01*
X102968561Y-66751103D01*
X102967530Y-66750397D01*
X102966448Y-66749742D01*
X102965106Y-66748738D01*
X102963724Y-66747792D01*
X102962758Y-66746982D01*
X102961755Y-66746231D01*
X102960519Y-66745103D01*
X102959234Y-66744024D01*
X102958353Y-66743124D01*
X102957426Y-66742278D01*
X102956309Y-66741037D01*
X102955132Y-66739836D01*
X102954344Y-66738856D01*
X102953503Y-66737922D01*
X102952507Y-66736571D01*
X102951459Y-66735267D01*
X102950768Y-66734211D01*
X102950025Y-66733203D01*
X102949172Y-66731773D01*
X102948249Y-66730362D01*
X102947664Y-66729243D01*
X102947023Y-66728168D01*
X102946312Y-66726656D01*
X102945533Y-66725167D01*
X102945061Y-66724000D01*
X102944527Y-66722864D01*
X102943965Y-66721286D01*
X102943337Y-66719731D01*
X102942981Y-66718523D01*
X102942561Y-66717342D01*
X102942158Y-66715724D01*
X102941682Y-66714108D01*
X102941445Y-66712866D01*
X102941143Y-66711654D01*
X102940898Y-66709998D01*
X102940584Y-66708350D01*
X102940471Y-66707106D01*
X102940286Y-66705855D01*
X102940204Y-66704167D01*
X102940053Y-66702512D01*
X102940062Y-66701260D01*
X102940000Y-66700000D01*
X102940000Y-64700000D01*
X102940003Y-64699622D01*
X102940001Y-64699581D01*
X102940003Y-64699540D01*
X102940006Y-64699162D01*
X102940175Y-64696471D01*
X102940329Y-64693728D01*
X102940361Y-64693523D01*
X102940374Y-64693312D01*
X102940806Y-64690642D01*
X102941225Y-64687935D01*
X102941278Y-64687728D01*
X102941311Y-64687525D01*
X102941990Y-64684956D01*
X102942683Y-64682258D01*
X102942757Y-64682055D01*
X102942809Y-64681858D01*
X102943737Y-64679361D01*
X102944688Y-64676749D01*
X102944779Y-64676558D01*
X102944852Y-64676363D01*
X102946033Y-64673942D01*
X102947221Y-64671463D01*
X102947331Y-64671281D01*
X102947422Y-64671095D01*
X102948840Y-64668789D01*
X102950258Y-64666448D01*
X102950383Y-64666281D01*
X102950493Y-64666102D01*
X102952152Y-64663916D01*
X102953769Y-64661755D01*
X102953909Y-64661602D01*
X102954037Y-64661433D01*
X102955903Y-64659418D01*
X102957722Y-64657426D01*
X102957877Y-64657286D01*
X102958020Y-64657132D01*
X102960018Y-64655358D01*
X102962078Y-64653503D01*
X102962253Y-64653374D01*
X102962404Y-64653240D01*
X102964606Y-64651640D01*
X102966797Y-64650025D01*
X102966970Y-64649922D01*
X102967146Y-64649794D01*
X102969534Y-64648393D01*
X102971832Y-64647023D01*
X102972022Y-64646934D01*
X102972202Y-64646828D01*
X102974646Y-64645699D01*
X102977136Y-64644527D01*
X102977337Y-64644456D01*
X102977524Y-64644369D01*
X102980082Y-64643478D01*
X102982658Y-64642561D01*
X102982860Y-64642511D01*
X102983060Y-64642441D01*
X102985728Y-64641796D01*
X102988346Y-64641143D01*
X102988552Y-64641113D01*
X102988757Y-64641063D01*
X102991426Y-64640688D01*
X102994145Y-64640286D01*
X102994359Y-64640276D01*
X102994562Y-64640247D01*
X102997283Y-64640133D01*
X103000000Y-64640000D01*
X105000000Y-64640000D01*
X105000378Y-64640003D01*
G37*
G36*
X105100378Y-72140003D02*
G01*
X105100419Y-72140001D01*
X105100460Y-72140003D01*
X105100838Y-72140006D01*
X105103529Y-72140175D01*
X105106272Y-72140329D01*
X105106477Y-72140361D01*
X105106688Y-72140374D01*
X105109358Y-72140806D01*
X105112065Y-72141225D01*
X105112272Y-72141278D01*
X105112475Y-72141311D01*
X105115044Y-72141990D01*
X105117742Y-72142683D01*
X105117945Y-72142757D01*
X105118142Y-72142809D01*
X105120639Y-72143737D01*
X105123251Y-72144688D01*
X105123442Y-72144779D01*
X105123637Y-72144852D01*
X105126058Y-72146033D01*
X105128537Y-72147221D01*
X105128719Y-72147331D01*
X105128905Y-72147422D01*
X105131211Y-72148840D01*
X105133552Y-72150258D01*
X105133719Y-72150383D01*
X105133898Y-72150493D01*
X105136084Y-72152152D01*
X105138245Y-72153769D01*
X105138398Y-72153909D01*
X105138567Y-72154037D01*
X105140582Y-72155903D01*
X105142574Y-72157722D01*
X105142714Y-72157877D01*
X105142868Y-72158020D01*
X105144642Y-72160018D01*
X105146497Y-72162078D01*
X105146626Y-72162253D01*
X105146760Y-72162404D01*
X105148360Y-72164606D01*
X105149975Y-72166797D01*
X105150078Y-72166970D01*
X105150206Y-72167146D01*
X105151607Y-72169534D01*
X105152977Y-72171832D01*
X105153066Y-72172022D01*
X105153172Y-72172202D01*
X105154301Y-72174646D01*
X105155473Y-72177136D01*
X105155544Y-72177337D01*
X105155631Y-72177524D01*
X105156522Y-72180082D01*
X105157439Y-72182658D01*
X105157489Y-72182860D01*
X105157559Y-72183060D01*
X105158204Y-72185728D01*
X105158857Y-72188346D01*
X105158887Y-72188552D01*
X105158937Y-72188757D01*
X105159312Y-72191426D01*
X105159714Y-72194145D01*
X105159724Y-72194359D01*
X105159753Y-72194562D01*
X105159867Y-72197283D01*
X105160000Y-72200000D01*
X105160000Y-78200000D01*
X105159997Y-78200378D01*
X105159999Y-78200419D01*
X105159997Y-78200460D01*
X105159994Y-78200838D01*
X105159825Y-78203529D01*
X105159671Y-78206272D01*
X105159639Y-78206477D01*
X105159626Y-78206688D01*
X105159194Y-78209358D01*
X105158775Y-78212065D01*
X105158722Y-78212272D01*
X105158689Y-78212475D01*
X105158010Y-78215044D01*
X105157317Y-78217742D01*
X105157243Y-78217945D01*
X105157191Y-78218142D01*
X105156263Y-78220639D01*
X105155312Y-78223251D01*
X105155221Y-78223442D01*
X105155148Y-78223637D01*
X105153967Y-78226058D01*
X105152779Y-78228537D01*
X105152669Y-78228719D01*
X105152578Y-78228905D01*
X105151160Y-78231211D01*
X105149742Y-78233552D01*
X105149617Y-78233719D01*
X105149507Y-78233898D01*
X105147848Y-78236084D01*
X105146231Y-78238245D01*
X105146091Y-78238398D01*
X105145963Y-78238567D01*
X105144097Y-78240582D01*
X105142278Y-78242574D01*
X105142123Y-78242714D01*
X105141980Y-78242868D01*
X105139982Y-78244642D01*
X105137922Y-78246497D01*
X105137747Y-78246626D01*
X105137596Y-78246760D01*
X105135394Y-78248360D01*
X105133203Y-78249975D01*
X105133030Y-78250078D01*
X105132854Y-78250206D01*
X105130466Y-78251607D01*
X105128168Y-78252977D01*
X105127978Y-78253066D01*
X105127798Y-78253172D01*
X105125354Y-78254301D01*
X105122864Y-78255473D01*
X105122663Y-78255544D01*
X105122476Y-78255631D01*
X105119918Y-78256522D01*
X105117342Y-78257439D01*
X105117140Y-78257489D01*
X105116940Y-78257559D01*
X105114272Y-78258204D01*
X105111654Y-78258857D01*
X105111448Y-78258887D01*
X105111243Y-78258937D01*
X105108574Y-78259312D01*
X105105855Y-78259714D01*
X105105641Y-78259724D01*
X105105438Y-78259753D01*
X105102717Y-78259867D01*
X105100000Y-78260000D01*
X103100000Y-78260000D01*
X103099622Y-78259997D01*
X103099581Y-78259999D01*
X103099540Y-78259997D01*
X103099162Y-78259994D01*
X103096471Y-78259825D01*
X103093728Y-78259671D01*
X103093523Y-78259639D01*
X103093312Y-78259626D01*
X103090642Y-78259194D01*
X103087935Y-78258775D01*
X103087728Y-78258722D01*
X103087525Y-78258689D01*
X103084956Y-78258010D01*
X103082258Y-78257317D01*
X103082055Y-78257243D01*
X103081858Y-78257191D01*
X103079361Y-78256263D01*
X103076749Y-78255312D01*
X103076558Y-78255221D01*
X103076363Y-78255148D01*
X103073942Y-78253967D01*
X103071463Y-78252779D01*
X103071281Y-78252669D01*
X103071095Y-78252578D01*
X103068789Y-78251160D01*
X103066448Y-78249742D01*
X103066281Y-78249617D01*
X103066102Y-78249507D01*
X103063916Y-78247848D01*
X103061755Y-78246231D01*
X103061602Y-78246091D01*
X103061433Y-78245963D01*
X103059418Y-78244097D01*
X103057426Y-78242278D01*
X103057286Y-78242123D01*
X103057132Y-78241980D01*
X103055358Y-78239982D01*
X103053503Y-78237922D01*
X103053374Y-78237747D01*
X103053240Y-78237596D01*
X103051611Y-78235355D01*
X103050025Y-78233203D01*
X103049922Y-78233030D01*
X103049794Y-78232854D01*
X103048393Y-78230466D01*
X103047023Y-78228168D01*
X103046934Y-78227978D01*
X103046828Y-78227798D01*
X103045699Y-78225354D01*
X103044527Y-78222864D01*
X103044456Y-78222663D01*
X103044369Y-78222476D01*
X103043478Y-78219918D01*
X103042561Y-78217342D01*
X103042511Y-78217140D01*
X103042441Y-78216940D01*
X103041796Y-78214272D01*
X103041143Y-78211654D01*
X103041113Y-78211448D01*
X103041063Y-78211243D01*
X103040688Y-78208574D01*
X103040286Y-78205855D01*
X103040276Y-78205641D01*
X103040247Y-78205438D01*
X103040133Y-78202717D01*
X103040000Y-78200000D01*
X103040000Y-76200000D01*
X103040006Y-76199162D01*
X103040164Y-76196643D01*
X103040287Y-76194143D01*
X103040348Y-76193733D01*
X103040374Y-76193312D01*
X103040778Y-76190818D01*
X103041143Y-76188344D01*
X103041244Y-76187939D01*
X103041311Y-76187525D01*
X103041949Y-76185110D01*
X103042561Y-76182657D01*
X103042704Y-76182256D01*
X103042809Y-76181858D01*
X103043680Y-76179514D01*
X103044528Y-76177134D01*
X103044706Y-76176756D01*
X103044852Y-76176363D01*
X103045951Y-76174110D01*
X103047024Y-76171830D01*
X103047241Y-76171466D01*
X103047422Y-76171095D01*
X103048725Y-76168977D01*
X103050026Y-76166794D01*
X103050276Y-76166456D01*
X103050493Y-76166102D01*
X103052004Y-76164111D01*
X103053504Y-76162077D01*
X103053785Y-76161765D01*
X103054037Y-76161433D01*
X103055762Y-76159570D01*
X103057427Y-76157721D01*
X103057735Y-76157440D01*
X103058020Y-76157132D01*
X103059892Y-76155470D01*
X103061756Y-76153768D01*
X103062094Y-76153515D01*
X103062404Y-76153240D01*
X103064483Y-76151729D01*
X103066451Y-76150257D01*
X103066799Y-76150046D01*
X103067146Y-76149794D01*
X103069350Y-76148501D01*
X103071465Y-76147220D01*
X103071841Y-76147040D01*
X103072202Y-76146828D01*
X103074467Y-76145781D01*
X103076751Y-76144687D01*
X103077150Y-76144542D01*
X103077524Y-76144369D01*
X103079885Y-76143547D01*
X103082259Y-76142683D01*
X103082663Y-76142579D01*
X103083060Y-76142441D01*
X103085498Y-76141851D01*
X103087937Y-76141225D01*
X103088355Y-76141160D01*
X103088757Y-76141063D01*
X103091211Y-76140718D01*
X103093730Y-76140328D01*
X103094154Y-76140304D01*
X103094562Y-76140247D01*
X103097051Y-76140142D01*
X103099583Y-76140001D01*
X103111868Y-76139916D01*
X103204778Y-76134070D01*
X103295423Y-76119389D01*
X103384200Y-76095933D01*
X103470275Y-76063922D01*
X103552817Y-76023664D01*
X103631022Y-75975552D01*
X103704177Y-75920024D01*
X103771554Y-75857632D01*
X103832525Y-75788959D01*
X103886497Y-75714672D01*
X103932966Y-75635469D01*
X103971486Y-75552105D01*
X104001686Y-75465382D01*
X104023280Y-75376121D01*
X104036060Y-75285185D01*
X104039906Y-75193437D01*
X104034780Y-75101759D01*
X104020729Y-75010998D01*
X103997894Y-74922060D01*
X103966483Y-74835759D01*
X103926808Y-74752951D01*
X103879237Y-74674400D01*
X103824222Y-74600861D01*
X103786911Y-74560000D01*
X103943518Y-74560000D01*
X103949403Y-74567867D01*
X103950375Y-74566275D01*
X103953903Y-74561593D01*
X103955368Y-74560000D01*
X103943518Y-74560000D01*
X103786911Y-74560000D01*
X103762310Y-74533059D01*
X103694059Y-74471606D01*
X103620151Y-74417115D01*
X103541273Y-74370094D01*
X103458183Y-74330995D01*
X103371678Y-74300191D01*
X103282561Y-74277972D01*
X103191721Y-74264558D01*
X103097069Y-74259928D01*
X103096232Y-74259881D01*
X103094989Y-74259742D01*
X103093728Y-74259671D01*
X103092067Y-74259414D01*
X103090407Y-74259228D01*
X103089187Y-74258969D01*
X103087935Y-74258775D01*
X103086295Y-74258354D01*
X103084673Y-74258009D01*
X103083487Y-74257633D01*
X103082258Y-74257317D01*
X103080662Y-74256736D01*
X103079086Y-74256236D01*
X103077948Y-74255748D01*
X103076749Y-74255312D01*
X103075225Y-74254582D01*
X103073697Y-74253927D01*
X103072600Y-74253324D01*
X103071463Y-74252779D01*
X103070021Y-74251906D01*
X103068561Y-74251103D01*
X103067530Y-74250397D01*
X103066448Y-74249742D01*
X103065106Y-74248738D01*
X103063724Y-74247792D01*
X103062758Y-74246982D01*
X103061755Y-74246231D01*
X103060519Y-74245103D01*
X103059234Y-74244024D01*
X103058353Y-74243124D01*
X103057426Y-74242278D01*
X103056309Y-74241037D01*
X103055132Y-74239836D01*
X103054344Y-74238856D01*
X103053503Y-74237922D01*
X103052507Y-74236571D01*
X103051459Y-74235267D01*
X103050768Y-74234211D01*
X103050025Y-74233203D01*
X103049172Y-74231773D01*
X103048249Y-74230362D01*
X103047664Y-74229243D01*
X103047023Y-74228168D01*
X103046312Y-74226656D01*
X103045533Y-74225167D01*
X103045061Y-74224000D01*
X103044527Y-74222864D01*
X103043965Y-74221286D01*
X103043337Y-74219731D01*
X103042981Y-74218523D01*
X103042561Y-74217342D01*
X103042158Y-74215724D01*
X103041682Y-74214108D01*
X103041445Y-74212866D01*
X103041143Y-74211654D01*
X103040898Y-74209998D01*
X103040584Y-74208350D01*
X103040471Y-74207106D01*
X103040286Y-74205855D01*
X103040204Y-74204167D01*
X103040053Y-74202512D01*
X103040062Y-74201260D01*
X103040000Y-74200000D01*
X103040000Y-72200000D01*
X103040003Y-72199622D01*
X103040001Y-72199581D01*
X103040003Y-72199540D01*
X103040006Y-72199162D01*
X103040175Y-72196471D01*
X103040329Y-72193728D01*
X103040361Y-72193523D01*
X103040374Y-72193312D01*
X103040806Y-72190642D01*
X103041225Y-72187935D01*
X103041278Y-72187728D01*
X103041311Y-72187525D01*
X103041990Y-72184956D01*
X103042683Y-72182258D01*
X103042757Y-72182055D01*
X103042809Y-72181858D01*
X103043737Y-72179361D01*
X103044688Y-72176749D01*
X103044779Y-72176558D01*
X103044852Y-72176363D01*
X103046033Y-72173942D01*
X103047221Y-72171463D01*
X103047331Y-72171281D01*
X103047422Y-72171095D01*
X103048840Y-72168789D01*
X103050258Y-72166448D01*
X103050383Y-72166281D01*
X103050493Y-72166102D01*
X103052152Y-72163916D01*
X103053769Y-72161755D01*
X103053909Y-72161602D01*
X103054037Y-72161433D01*
X103055903Y-72159418D01*
X103057722Y-72157426D01*
X103057877Y-72157286D01*
X103058020Y-72157132D01*
X103060018Y-72155358D01*
X103062078Y-72153503D01*
X103062253Y-72153374D01*
X103062404Y-72153240D01*
X103064606Y-72151640D01*
X103066797Y-72150025D01*
X103066970Y-72149922D01*
X103067146Y-72149794D01*
X103069534Y-72148393D01*
X103071832Y-72147023D01*
X103072022Y-72146934D01*
X103072202Y-72146828D01*
X103074646Y-72145699D01*
X103077136Y-72144527D01*
X103077337Y-72144456D01*
X103077524Y-72144369D01*
X103080082Y-72143478D01*
X103082658Y-72142561D01*
X103082860Y-72142511D01*
X103083060Y-72142441D01*
X103085728Y-72141796D01*
X103088346Y-72141143D01*
X103088552Y-72141113D01*
X103088757Y-72141063D01*
X103091426Y-72140688D01*
X103094145Y-72140286D01*
X103094359Y-72140276D01*
X103094562Y-72140247D01*
X103097283Y-72140133D01*
X103100000Y-72140000D01*
X105100000Y-72140000D01*
X105100378Y-72140003D01*
G37*
G36*
X105100378Y-79540003D02*
G01*
X105100419Y-79540001D01*
X105100460Y-79540003D01*
X105100838Y-79540006D01*
X105103529Y-79540175D01*
X105106272Y-79540329D01*
X105106477Y-79540361D01*
X105106688Y-79540374D01*
X105109358Y-79540806D01*
X105112065Y-79541225D01*
X105112272Y-79541278D01*
X105112475Y-79541311D01*
X105115044Y-79541990D01*
X105117742Y-79542683D01*
X105117945Y-79542757D01*
X105118142Y-79542809D01*
X105120639Y-79543737D01*
X105123251Y-79544688D01*
X105123442Y-79544779D01*
X105123637Y-79544852D01*
X105126058Y-79546033D01*
X105128537Y-79547221D01*
X105128719Y-79547331D01*
X105128905Y-79547422D01*
X105131211Y-79548840D01*
X105133552Y-79550258D01*
X105133719Y-79550383D01*
X105133898Y-79550493D01*
X105136084Y-79552152D01*
X105138245Y-79553769D01*
X105138398Y-79553909D01*
X105138567Y-79554037D01*
X105140582Y-79555903D01*
X105142574Y-79557722D01*
X105142714Y-79557877D01*
X105142868Y-79558020D01*
X105144642Y-79560018D01*
X105146497Y-79562078D01*
X105146626Y-79562253D01*
X105146760Y-79562404D01*
X105148360Y-79564606D01*
X105149975Y-79566797D01*
X105150078Y-79566970D01*
X105150206Y-79567146D01*
X105151607Y-79569534D01*
X105152977Y-79571832D01*
X105153066Y-79572022D01*
X105153172Y-79572202D01*
X105154301Y-79574646D01*
X105155473Y-79577136D01*
X105155544Y-79577337D01*
X105155631Y-79577524D01*
X105156522Y-79580082D01*
X105157439Y-79582658D01*
X105157489Y-79582860D01*
X105157559Y-79583060D01*
X105158204Y-79585728D01*
X105158857Y-79588346D01*
X105158887Y-79588552D01*
X105158937Y-79588757D01*
X105159312Y-79591426D01*
X105159714Y-79594145D01*
X105159724Y-79594359D01*
X105159753Y-79594562D01*
X105159867Y-79597283D01*
X105160000Y-79600000D01*
X105160000Y-85600000D01*
X105159997Y-85600378D01*
X105159999Y-85600419D01*
X105159997Y-85600460D01*
X105159994Y-85600838D01*
X105159825Y-85603529D01*
X105159671Y-85606272D01*
X105159639Y-85606477D01*
X105159626Y-85606688D01*
X105159194Y-85609358D01*
X105158775Y-85612065D01*
X105158722Y-85612272D01*
X105158689Y-85612475D01*
X105158010Y-85615044D01*
X105157317Y-85617742D01*
X105157243Y-85617945D01*
X105157191Y-85618142D01*
X105156263Y-85620639D01*
X105155312Y-85623251D01*
X105155221Y-85623442D01*
X105155148Y-85623637D01*
X105153967Y-85626058D01*
X105152779Y-85628537D01*
X105152669Y-85628719D01*
X105152578Y-85628905D01*
X105151160Y-85631211D01*
X105149742Y-85633552D01*
X105149617Y-85633719D01*
X105149507Y-85633898D01*
X105147848Y-85636084D01*
X105146231Y-85638245D01*
X105146091Y-85638398D01*
X105145963Y-85638567D01*
X105144097Y-85640582D01*
X105142278Y-85642574D01*
X105142123Y-85642714D01*
X105141980Y-85642868D01*
X105139982Y-85644642D01*
X105137922Y-85646497D01*
X105137747Y-85646626D01*
X105137596Y-85646760D01*
X105135394Y-85648360D01*
X105133203Y-85649975D01*
X105133030Y-85650078D01*
X105132854Y-85650206D01*
X105130466Y-85651607D01*
X105128168Y-85652977D01*
X105127978Y-85653066D01*
X105127798Y-85653172D01*
X105125354Y-85654301D01*
X105122864Y-85655473D01*
X105122663Y-85655544D01*
X105122476Y-85655631D01*
X105119918Y-85656522D01*
X105117342Y-85657439D01*
X105117140Y-85657489D01*
X105116940Y-85657559D01*
X105114272Y-85658204D01*
X105111654Y-85658857D01*
X105111448Y-85658887D01*
X105111243Y-85658937D01*
X105108574Y-85659312D01*
X105105855Y-85659714D01*
X105105641Y-85659724D01*
X105105438Y-85659753D01*
X105102717Y-85659867D01*
X105100000Y-85660000D01*
X103100000Y-85660000D01*
X103099622Y-85659997D01*
X103099581Y-85659999D01*
X103099540Y-85659997D01*
X103099162Y-85659994D01*
X103096471Y-85659825D01*
X103093728Y-85659671D01*
X103093523Y-85659639D01*
X103093312Y-85659626D01*
X103090642Y-85659194D01*
X103087935Y-85658775D01*
X103087728Y-85658722D01*
X103087525Y-85658689D01*
X103084956Y-85658010D01*
X103082258Y-85657317D01*
X103082055Y-85657243D01*
X103081858Y-85657191D01*
X103079361Y-85656263D01*
X103076749Y-85655312D01*
X103076558Y-85655221D01*
X103076363Y-85655148D01*
X103073942Y-85653967D01*
X103071463Y-85652779D01*
X103071281Y-85652669D01*
X103071095Y-85652578D01*
X103068789Y-85651160D01*
X103066448Y-85649742D01*
X103066281Y-85649617D01*
X103066102Y-85649507D01*
X103063916Y-85647848D01*
X103061755Y-85646231D01*
X103061602Y-85646091D01*
X103061433Y-85645963D01*
X103059418Y-85644097D01*
X103057426Y-85642278D01*
X103057286Y-85642123D01*
X103057132Y-85641980D01*
X103055358Y-85639982D01*
X103053503Y-85637922D01*
X103053374Y-85637747D01*
X103053240Y-85637596D01*
X103051611Y-85635355D01*
X103050025Y-85633203D01*
X103049922Y-85633030D01*
X103049794Y-85632854D01*
X103048393Y-85630466D01*
X103047023Y-85628168D01*
X103046934Y-85627978D01*
X103046828Y-85627798D01*
X103045699Y-85625354D01*
X103044527Y-85622864D01*
X103044456Y-85622663D01*
X103044369Y-85622476D01*
X103043478Y-85619918D01*
X103042561Y-85617342D01*
X103042511Y-85617140D01*
X103042441Y-85616940D01*
X103041796Y-85614272D01*
X103041143Y-85611654D01*
X103041113Y-85611448D01*
X103041063Y-85611243D01*
X103040688Y-85608574D01*
X103040286Y-85605855D01*
X103040276Y-85605641D01*
X103040247Y-85605438D01*
X103040133Y-85602717D01*
X103040000Y-85600000D01*
X103040000Y-83600000D01*
X103040006Y-83599162D01*
X103040164Y-83596643D01*
X103040287Y-83594143D01*
X103040348Y-83593733D01*
X103040374Y-83593312D01*
X103040778Y-83590818D01*
X103041143Y-83588344D01*
X103041244Y-83587939D01*
X103041311Y-83587525D01*
X103041949Y-83585110D01*
X103042561Y-83582657D01*
X103042704Y-83582256D01*
X103042809Y-83581858D01*
X103043680Y-83579514D01*
X103044528Y-83577134D01*
X103044706Y-83576756D01*
X103044852Y-83576363D01*
X103045951Y-83574110D01*
X103047024Y-83571830D01*
X103047241Y-83571466D01*
X103047422Y-83571095D01*
X103048725Y-83568977D01*
X103050026Y-83566794D01*
X103050276Y-83566456D01*
X103050493Y-83566102D01*
X103052004Y-83564111D01*
X103053504Y-83562077D01*
X103053785Y-83561765D01*
X103054037Y-83561433D01*
X103055762Y-83559570D01*
X103057427Y-83557721D01*
X103057735Y-83557440D01*
X103058020Y-83557132D01*
X103059892Y-83555470D01*
X103061756Y-83553768D01*
X103062094Y-83553515D01*
X103062404Y-83553240D01*
X103064483Y-83551729D01*
X103066451Y-83550257D01*
X103066799Y-83550046D01*
X103067146Y-83549794D01*
X103069350Y-83548501D01*
X103071465Y-83547220D01*
X103071841Y-83547040D01*
X103072202Y-83546828D01*
X103074467Y-83545781D01*
X103076751Y-83544687D01*
X103077150Y-83544542D01*
X103077524Y-83544369D01*
X103079885Y-83543547D01*
X103082259Y-83542683D01*
X103082663Y-83542579D01*
X103083060Y-83542441D01*
X103085498Y-83541851D01*
X103087937Y-83541225D01*
X103088355Y-83541160D01*
X103088757Y-83541063D01*
X103091211Y-83540718D01*
X103093730Y-83540328D01*
X103094154Y-83540304D01*
X103094562Y-83540247D01*
X103097051Y-83540142D01*
X103099583Y-83540001D01*
X103111868Y-83539916D01*
X103204778Y-83534070D01*
X103295423Y-83519389D01*
X103384200Y-83495933D01*
X103470275Y-83463922D01*
X103552817Y-83423664D01*
X103631022Y-83375552D01*
X103704177Y-83320024D01*
X103771554Y-83257632D01*
X103832525Y-83188959D01*
X103886497Y-83114672D01*
X103932966Y-83035469D01*
X103971486Y-82952105D01*
X104001686Y-82865382D01*
X104023280Y-82776121D01*
X104036060Y-82685185D01*
X104039906Y-82593437D01*
X104034780Y-82501759D01*
X104020729Y-82410998D01*
X103997894Y-82322060D01*
X103966483Y-82235759D01*
X103926808Y-82152951D01*
X103879237Y-82074400D01*
X103824222Y-82000861D01*
X103786911Y-81960000D01*
X103943518Y-81960000D01*
X103949403Y-81967867D01*
X103950375Y-81966275D01*
X103953903Y-81961593D01*
X103955368Y-81960000D01*
X103943518Y-81960000D01*
X103786911Y-81960000D01*
X103762310Y-81933059D01*
X103694059Y-81871606D01*
X103620151Y-81817115D01*
X103541273Y-81770094D01*
X103458183Y-81730995D01*
X103371678Y-81700191D01*
X103282561Y-81677972D01*
X103191721Y-81664558D01*
X103097069Y-81659928D01*
X103096232Y-81659881D01*
X103094989Y-81659742D01*
X103093728Y-81659671D01*
X103092067Y-81659414D01*
X103090407Y-81659228D01*
X103089187Y-81658969D01*
X103087935Y-81658775D01*
X103086295Y-81658354D01*
X103084673Y-81658009D01*
X103083487Y-81657633D01*
X103082258Y-81657317D01*
X103080662Y-81656736D01*
X103079086Y-81656236D01*
X103077948Y-81655748D01*
X103076749Y-81655312D01*
X103075225Y-81654582D01*
X103073697Y-81653927D01*
X103072600Y-81653324D01*
X103071463Y-81652779D01*
X103070021Y-81651906D01*
X103068561Y-81651103D01*
X103067530Y-81650397D01*
X103066448Y-81649742D01*
X103065106Y-81648738D01*
X103063724Y-81647792D01*
X103062758Y-81646982D01*
X103061755Y-81646231D01*
X103060519Y-81645103D01*
X103059234Y-81644024D01*
X103058353Y-81643124D01*
X103057426Y-81642278D01*
X103056309Y-81641037D01*
X103055132Y-81639836D01*
X103054344Y-81638856D01*
X103053503Y-81637922D01*
X103052507Y-81636571D01*
X103051459Y-81635267D01*
X103050768Y-81634211D01*
X103050025Y-81633203D01*
X103049172Y-81631773D01*
X103048249Y-81630362D01*
X103047664Y-81629243D01*
X103047023Y-81628168D01*
X103046312Y-81626656D01*
X103045533Y-81625167D01*
X103045061Y-81624000D01*
X103044527Y-81622864D01*
X103043965Y-81621286D01*
X103043337Y-81619731D01*
X103042981Y-81618523D01*
X103042561Y-81617342D01*
X103042158Y-81615724D01*
X103041682Y-81614108D01*
X103041445Y-81612866D01*
X103041143Y-81611654D01*
X103040898Y-81609998D01*
X103040584Y-81608350D01*
X103040471Y-81607106D01*
X103040286Y-81605855D01*
X103040204Y-81604167D01*
X103040053Y-81602512D01*
X103040062Y-81601260D01*
X103040000Y-81600000D01*
X103040000Y-79600000D01*
X103040003Y-79599622D01*
X103040001Y-79599581D01*
X103040003Y-79599540D01*
X103040006Y-79599162D01*
X103040175Y-79596471D01*
X103040329Y-79593728D01*
X103040361Y-79593523D01*
X103040374Y-79593312D01*
X103040806Y-79590642D01*
X103041225Y-79587935D01*
X103041278Y-79587728D01*
X103041311Y-79587525D01*
X103041990Y-79584956D01*
X103042683Y-79582258D01*
X103042757Y-79582055D01*
X103042809Y-79581858D01*
X103043737Y-79579361D01*
X103044688Y-79576749D01*
X103044779Y-79576558D01*
X103044852Y-79576363D01*
X103046033Y-79573942D01*
X103047221Y-79571463D01*
X103047331Y-79571281D01*
X103047422Y-79571095D01*
X103048840Y-79568789D01*
X103050258Y-79566448D01*
X103050383Y-79566281D01*
X103050493Y-79566102D01*
X103052152Y-79563916D01*
X103053769Y-79561755D01*
X103053909Y-79561602D01*
X103054037Y-79561433D01*
X103055903Y-79559418D01*
X103057722Y-79557426D01*
X103057877Y-79557286D01*
X103058020Y-79557132D01*
X103060018Y-79555358D01*
X103062078Y-79553503D01*
X103062253Y-79553374D01*
X103062404Y-79553240D01*
X103064606Y-79551640D01*
X103066797Y-79550025D01*
X103066970Y-79549922D01*
X103067146Y-79549794D01*
X103069534Y-79548393D01*
X103071832Y-79547023D01*
X103072022Y-79546934D01*
X103072202Y-79546828D01*
X103074646Y-79545699D01*
X103077136Y-79544527D01*
X103077337Y-79544456D01*
X103077524Y-79544369D01*
X103080082Y-79543478D01*
X103082658Y-79542561D01*
X103082860Y-79542511D01*
X103083060Y-79542441D01*
X103085728Y-79541796D01*
X103088346Y-79541143D01*
X103088552Y-79541113D01*
X103088757Y-79541063D01*
X103091426Y-79540688D01*
X103094145Y-79540286D01*
X103094359Y-79540276D01*
X103094562Y-79540247D01*
X103097283Y-79540133D01*
X103100000Y-79540000D01*
X105100000Y-79540000D01*
X105100378Y-79540003D01*
G37*
G36*
X135299622Y-93259997D02*
G01*
X135299581Y-93259999D01*
X135299540Y-93259997D01*
X135299162Y-93259994D01*
X135296471Y-93259825D01*
X135293728Y-93259671D01*
X135293523Y-93259639D01*
X135293312Y-93259626D01*
X135290642Y-93259194D01*
X135287935Y-93258775D01*
X135287728Y-93258722D01*
X135287525Y-93258689D01*
X135284956Y-93258010D01*
X135282258Y-93257317D01*
X135282055Y-93257243D01*
X135281858Y-93257191D01*
X135279361Y-93256263D01*
X135276749Y-93255312D01*
X135276558Y-93255221D01*
X135276363Y-93255148D01*
X135273942Y-93253967D01*
X135271463Y-93252779D01*
X135271281Y-93252669D01*
X135271095Y-93252578D01*
X135268789Y-93251160D01*
X135266448Y-93249742D01*
X135266281Y-93249617D01*
X135266102Y-93249507D01*
X135263916Y-93247848D01*
X135261755Y-93246231D01*
X135261602Y-93246091D01*
X135261433Y-93245963D01*
X135259418Y-93244097D01*
X135257426Y-93242278D01*
X135257286Y-93242123D01*
X135257132Y-93241980D01*
X135255358Y-93239982D01*
X135253503Y-93237922D01*
X135253374Y-93237747D01*
X135253240Y-93237596D01*
X135251640Y-93235394D01*
X135250025Y-93233203D01*
X135249922Y-93233030D01*
X135249794Y-93232854D01*
X135248393Y-93230466D01*
X135247023Y-93228168D01*
X135246934Y-93227978D01*
X135246828Y-93227798D01*
X135245699Y-93225354D01*
X135244527Y-93222864D01*
X135244456Y-93222663D01*
X135244369Y-93222476D01*
X135243478Y-93219918D01*
X135242561Y-93217342D01*
X135242511Y-93217140D01*
X135242441Y-93216940D01*
X135241796Y-93214272D01*
X135241143Y-93211654D01*
X135241113Y-93211448D01*
X135241063Y-93211243D01*
X135240688Y-93208574D01*
X135240286Y-93205855D01*
X135240276Y-93205641D01*
X135240247Y-93205438D01*
X135240133Y-93202717D01*
X135240000Y-93200000D01*
X135240000Y-87200000D01*
X135240003Y-87199622D01*
X135240001Y-87199581D01*
X135240003Y-87199540D01*
X135240006Y-87199162D01*
X135240175Y-87196471D01*
X135240329Y-87193728D01*
X135240361Y-87193523D01*
X135240374Y-87193312D01*
X135240806Y-87190642D01*
X135241225Y-87187935D01*
X135241278Y-87187728D01*
X135241311Y-87187525D01*
X135241990Y-87184956D01*
X135242683Y-87182258D01*
X135242757Y-87182055D01*
X135242809Y-87181858D01*
X135243737Y-87179361D01*
X135244688Y-87176749D01*
X135244779Y-87176558D01*
X135244852Y-87176363D01*
X135246033Y-87173942D01*
X135247221Y-87171463D01*
X135247331Y-87171281D01*
X135247422Y-87171095D01*
X135248840Y-87168789D01*
X135250258Y-87166448D01*
X135250383Y-87166281D01*
X135250493Y-87166102D01*
X135252152Y-87163916D01*
X135253769Y-87161755D01*
X135253909Y-87161602D01*
X135254037Y-87161433D01*
X135255903Y-87159418D01*
X135257722Y-87157426D01*
X135257877Y-87157286D01*
X135258020Y-87157132D01*
X135260018Y-87155358D01*
X135262078Y-87153503D01*
X135262253Y-87153374D01*
X135262404Y-87153240D01*
X135264606Y-87151640D01*
X135266797Y-87150025D01*
X135266970Y-87149922D01*
X135267146Y-87149794D01*
X135269534Y-87148393D01*
X135271832Y-87147023D01*
X135272022Y-87146934D01*
X135272202Y-87146828D01*
X135274646Y-87145699D01*
X135277136Y-87144527D01*
X135277337Y-87144456D01*
X135277524Y-87144369D01*
X135280082Y-87143478D01*
X135282658Y-87142561D01*
X135282860Y-87142511D01*
X135283060Y-87142441D01*
X135285728Y-87141796D01*
X135288346Y-87141143D01*
X135288552Y-87141113D01*
X135288757Y-87141063D01*
X135291426Y-87140688D01*
X135294145Y-87140286D01*
X135294359Y-87140276D01*
X135294562Y-87140247D01*
X135297283Y-87140133D01*
X135300000Y-87140000D01*
X137300000Y-87140000D01*
X137300378Y-87140003D01*
X137300419Y-87140001D01*
X137300460Y-87140003D01*
X137300838Y-87140006D01*
X137303529Y-87140175D01*
X137306272Y-87140329D01*
X137306477Y-87140361D01*
X137306688Y-87140374D01*
X137309358Y-87140806D01*
X137312065Y-87141225D01*
X137312272Y-87141278D01*
X137312475Y-87141311D01*
X137315044Y-87141990D01*
X137317742Y-87142683D01*
X137317945Y-87142757D01*
X137318142Y-87142809D01*
X137320639Y-87143737D01*
X137323251Y-87144688D01*
X137323442Y-87144779D01*
X137323637Y-87144852D01*
X137326058Y-87146033D01*
X137328537Y-87147221D01*
X137328719Y-87147331D01*
X137328905Y-87147422D01*
X137331211Y-87148840D01*
X137333552Y-87150258D01*
X137333719Y-87150383D01*
X137333898Y-87150493D01*
X137336084Y-87152152D01*
X137338245Y-87153769D01*
X137338398Y-87153909D01*
X137338567Y-87154037D01*
X137340582Y-87155903D01*
X137342574Y-87157722D01*
X137342714Y-87157877D01*
X137342868Y-87158020D01*
X137344642Y-87160018D01*
X137346497Y-87162078D01*
X137346626Y-87162253D01*
X137346760Y-87162404D01*
X137348389Y-87164645D01*
X137349975Y-87166797D01*
X137350078Y-87166970D01*
X137350206Y-87167146D01*
X137351607Y-87169534D01*
X137352977Y-87171832D01*
X137353066Y-87172022D01*
X137353172Y-87172202D01*
X137354301Y-87174646D01*
X137355473Y-87177136D01*
X137355544Y-87177337D01*
X137355631Y-87177524D01*
X137356522Y-87180082D01*
X137357439Y-87182658D01*
X137357489Y-87182860D01*
X137357559Y-87183060D01*
X137358204Y-87185728D01*
X137358857Y-87188346D01*
X137358887Y-87188552D01*
X137358937Y-87188757D01*
X137359312Y-87191426D01*
X137359714Y-87194145D01*
X137359724Y-87194359D01*
X137359753Y-87194562D01*
X137359867Y-87197283D01*
X137360000Y-87200000D01*
X137360000Y-89200000D01*
X137359994Y-89200838D01*
X137359836Y-89203357D01*
X137359713Y-89205857D01*
X137359652Y-89206267D01*
X137359626Y-89206688D01*
X137359222Y-89209182D01*
X137358857Y-89211656D01*
X137358756Y-89212061D01*
X137358689Y-89212475D01*
X137358051Y-89214890D01*
X137357439Y-89217343D01*
X137357296Y-89217744D01*
X137357191Y-89218142D01*
X137356320Y-89220486D01*
X137355472Y-89222866D01*
X137355294Y-89223244D01*
X137355148Y-89223637D01*
X137354049Y-89225890D01*
X137352976Y-89228170D01*
X137352759Y-89228534D01*
X137352578Y-89228905D01*
X137351275Y-89231023D01*
X137349974Y-89233206D01*
X137349724Y-89233544D01*
X137349507Y-89233898D01*
X137347996Y-89235889D01*
X137346496Y-89237923D01*
X137346215Y-89238235D01*
X137345963Y-89238567D01*
X137344238Y-89240430D01*
X137342573Y-89242279D01*
X137342265Y-89242560D01*
X137341980Y-89242868D01*
X137340108Y-89244530D01*
X137338244Y-89246232D01*
X137337906Y-89246485D01*
X137337596Y-89246760D01*
X137335517Y-89248271D01*
X137333549Y-89249743D01*
X137333201Y-89249954D01*
X137332854Y-89250206D01*
X137330650Y-89251499D01*
X137328535Y-89252780D01*
X137328159Y-89252960D01*
X137327798Y-89253172D01*
X137325533Y-89254219D01*
X137323249Y-89255313D01*
X137322850Y-89255458D01*
X137322476Y-89255631D01*
X137320115Y-89256453D01*
X137317741Y-89257317D01*
X137317337Y-89257421D01*
X137316940Y-89257559D01*
X137314502Y-89258149D01*
X137312063Y-89258775D01*
X137311645Y-89258840D01*
X137311243Y-89258937D01*
X137308789Y-89259282D01*
X137306270Y-89259672D01*
X137305846Y-89259696D01*
X137305438Y-89259753D01*
X137302949Y-89259858D01*
X137300417Y-89259999D01*
X137288132Y-89260084D01*
X137195222Y-89265930D01*
X137104577Y-89280611D01*
X137015800Y-89304067D01*
X136929725Y-89336078D01*
X136847183Y-89376336D01*
X136768978Y-89424448D01*
X136695823Y-89479976D01*
X136628446Y-89542368D01*
X136567475Y-89611041D01*
X136513503Y-89685328D01*
X136467034Y-89764531D01*
X136428514Y-89847895D01*
X136398314Y-89934618D01*
X136376720Y-90023879D01*
X136363940Y-90114815D01*
X136360094Y-90206563D01*
X136365220Y-90298241D01*
X136379271Y-90389002D01*
X136402106Y-90477940D01*
X136433517Y-90564241D01*
X136473192Y-90647049D01*
X136520763Y-90725600D01*
X136575778Y-90799139D01*
X136613089Y-90840000D01*
X136456482Y-90840000D01*
X136450597Y-90832133D01*
X136449625Y-90833725D01*
X136446097Y-90838407D01*
X136444632Y-90840000D01*
X136456482Y-90840000D01*
X136613089Y-90840000D01*
X136637690Y-90866941D01*
X136705941Y-90928394D01*
X136779849Y-90982885D01*
X136858727Y-91029906D01*
X136941817Y-91069005D01*
X137028322Y-91099809D01*
X137117439Y-91122028D01*
X137208279Y-91135442D01*
X137302931Y-91140072D01*
X137303768Y-91140119D01*
X137305011Y-91140258D01*
X137306272Y-91140329D01*
X137307933Y-91140586D01*
X137309593Y-91140772D01*
X137310813Y-91141031D01*
X137312065Y-91141225D01*
X137313705Y-91141646D01*
X137315327Y-91141991D01*
X137316513Y-91142367D01*
X137317742Y-91142683D01*
X137319338Y-91143264D01*
X137320914Y-91143764D01*
X137322052Y-91144252D01*
X137323251Y-91144688D01*
X137324775Y-91145418D01*
X137326303Y-91146073D01*
X137327400Y-91146676D01*
X137328537Y-91147221D01*
X137329979Y-91148094D01*
X137331439Y-91148897D01*
X137332470Y-91149603D01*
X137333552Y-91150258D01*
X137334894Y-91151262D01*
X137336276Y-91152208D01*
X137337242Y-91153018D01*
X137338245Y-91153769D01*
X137339481Y-91154897D01*
X137340766Y-91155976D01*
X137341647Y-91156876D01*
X137342574Y-91157722D01*
X137343691Y-91158963D01*
X137344868Y-91160164D01*
X137345656Y-91161144D01*
X137346497Y-91162078D01*
X137347493Y-91163429D01*
X137348541Y-91164733D01*
X137349232Y-91165789D01*
X137349975Y-91166797D01*
X137350828Y-91168227D01*
X137351751Y-91169638D01*
X137352336Y-91170757D01*
X137352977Y-91171832D01*
X137353688Y-91173344D01*
X137354467Y-91174833D01*
X137354939Y-91176000D01*
X137355473Y-91177136D01*
X137356035Y-91178714D01*
X137356663Y-91180269D01*
X137357019Y-91181477D01*
X137357439Y-91182658D01*
X137357842Y-91184276D01*
X137358318Y-91185892D01*
X137358555Y-91187134D01*
X137358857Y-91188346D01*
X137359102Y-91190002D01*
X137359416Y-91191650D01*
X137359529Y-91192894D01*
X137359714Y-91194145D01*
X137359796Y-91195833D01*
X137359947Y-91197488D01*
X137359938Y-91198740D01*
X137360000Y-91200000D01*
X137360000Y-93200000D01*
X137359997Y-93200378D01*
X137359999Y-93200419D01*
X137359997Y-93200460D01*
X137359994Y-93200838D01*
X137359825Y-93203529D01*
X137359671Y-93206272D01*
X137359639Y-93206477D01*
X137359626Y-93206688D01*
X137359194Y-93209358D01*
X137358775Y-93212065D01*
X137358722Y-93212272D01*
X137358689Y-93212475D01*
X137358010Y-93215044D01*
X137357317Y-93217742D01*
X137357243Y-93217945D01*
X137357191Y-93218142D01*
X137356263Y-93220639D01*
X137355312Y-93223251D01*
X137355221Y-93223442D01*
X137355148Y-93223637D01*
X137353967Y-93226058D01*
X137352779Y-93228537D01*
X137352669Y-93228719D01*
X137352578Y-93228905D01*
X137351160Y-93231211D01*
X137349742Y-93233552D01*
X137349617Y-93233719D01*
X137349507Y-93233898D01*
X137347848Y-93236084D01*
X137346231Y-93238245D01*
X137346091Y-93238398D01*
X137345963Y-93238567D01*
X137344097Y-93240582D01*
X137342278Y-93242574D01*
X137342123Y-93242714D01*
X137341980Y-93242868D01*
X137339982Y-93244642D01*
X137337922Y-93246497D01*
X137337747Y-93246626D01*
X137337596Y-93246760D01*
X137335394Y-93248360D01*
X137333203Y-93249975D01*
X137333030Y-93250078D01*
X137332854Y-93250206D01*
X137330466Y-93251607D01*
X137328168Y-93252977D01*
X137327978Y-93253066D01*
X137327798Y-93253172D01*
X137325354Y-93254301D01*
X137322864Y-93255473D01*
X137322663Y-93255544D01*
X137322476Y-93255631D01*
X137319918Y-93256522D01*
X137317342Y-93257439D01*
X137317140Y-93257489D01*
X137316940Y-93257559D01*
X137314272Y-93258204D01*
X137311654Y-93258857D01*
X137311448Y-93258887D01*
X137311243Y-93258937D01*
X137308574Y-93259312D01*
X137305855Y-93259714D01*
X137305641Y-93259724D01*
X137305438Y-93259753D01*
X137302717Y-93259867D01*
X137300000Y-93260000D01*
X135300000Y-93260000D01*
X135299622Y-93259997D01*
G37*
G36*
X105000378Y-87140003D02*
G01*
X105000419Y-87140001D01*
X105000460Y-87140003D01*
X105000838Y-87140006D01*
X105003529Y-87140175D01*
X105006272Y-87140329D01*
X105006477Y-87140361D01*
X105006688Y-87140374D01*
X105009358Y-87140806D01*
X105012065Y-87141225D01*
X105012272Y-87141278D01*
X105012475Y-87141311D01*
X105015044Y-87141990D01*
X105017742Y-87142683D01*
X105017945Y-87142757D01*
X105018142Y-87142809D01*
X105020639Y-87143737D01*
X105023251Y-87144688D01*
X105023442Y-87144779D01*
X105023637Y-87144852D01*
X105026058Y-87146033D01*
X105028537Y-87147221D01*
X105028719Y-87147331D01*
X105028905Y-87147422D01*
X105031211Y-87148840D01*
X105033552Y-87150258D01*
X105033719Y-87150383D01*
X105033898Y-87150493D01*
X105036084Y-87152152D01*
X105038245Y-87153769D01*
X105038398Y-87153909D01*
X105038567Y-87154037D01*
X105040582Y-87155903D01*
X105042574Y-87157722D01*
X105042714Y-87157877D01*
X105042868Y-87158020D01*
X105044642Y-87160018D01*
X105046497Y-87162078D01*
X105046626Y-87162253D01*
X105046760Y-87162404D01*
X105048360Y-87164606D01*
X105049975Y-87166797D01*
X105050078Y-87166970D01*
X105050206Y-87167146D01*
X105051607Y-87169534D01*
X105052977Y-87171832D01*
X105053066Y-87172022D01*
X105053172Y-87172202D01*
X105054301Y-87174646D01*
X105055473Y-87177136D01*
X105055544Y-87177337D01*
X105055631Y-87177524D01*
X105056522Y-87180082D01*
X105057439Y-87182658D01*
X105057489Y-87182860D01*
X105057559Y-87183060D01*
X105058204Y-87185728D01*
X105058857Y-87188346D01*
X105058887Y-87188552D01*
X105058937Y-87188757D01*
X105059312Y-87191426D01*
X105059714Y-87194145D01*
X105059724Y-87194359D01*
X105059753Y-87194562D01*
X105059867Y-87197283D01*
X105060000Y-87200000D01*
X105060000Y-93200000D01*
X105059997Y-93200378D01*
X105059999Y-93200419D01*
X105059997Y-93200460D01*
X105059994Y-93200838D01*
X105059825Y-93203529D01*
X105059671Y-93206272D01*
X105059639Y-93206477D01*
X105059626Y-93206688D01*
X105059194Y-93209358D01*
X105058775Y-93212065D01*
X105058722Y-93212272D01*
X105058689Y-93212475D01*
X105058010Y-93215044D01*
X105057317Y-93217742D01*
X105057243Y-93217945D01*
X105057191Y-93218142D01*
X105056263Y-93220639D01*
X105055312Y-93223251D01*
X105055221Y-93223442D01*
X105055148Y-93223637D01*
X105053967Y-93226058D01*
X105052779Y-93228537D01*
X105052669Y-93228719D01*
X105052578Y-93228905D01*
X105051160Y-93231211D01*
X105049742Y-93233552D01*
X105049617Y-93233719D01*
X105049507Y-93233898D01*
X105047848Y-93236084D01*
X105046231Y-93238245D01*
X105046091Y-93238398D01*
X105045963Y-93238567D01*
X105044097Y-93240582D01*
X105042278Y-93242574D01*
X105042123Y-93242714D01*
X105041980Y-93242868D01*
X105039982Y-93244642D01*
X105037922Y-93246497D01*
X105037747Y-93246626D01*
X105037596Y-93246760D01*
X105035394Y-93248360D01*
X105033203Y-93249975D01*
X105033030Y-93250078D01*
X105032854Y-93250206D01*
X105030466Y-93251607D01*
X105028168Y-93252977D01*
X105027978Y-93253066D01*
X105027798Y-93253172D01*
X105025354Y-93254301D01*
X105022864Y-93255473D01*
X105022663Y-93255544D01*
X105022476Y-93255631D01*
X105019918Y-93256522D01*
X105017342Y-93257439D01*
X105017140Y-93257489D01*
X105016940Y-93257559D01*
X105014272Y-93258204D01*
X105011654Y-93258857D01*
X105011448Y-93258887D01*
X105011243Y-93258937D01*
X105008574Y-93259312D01*
X105005855Y-93259714D01*
X105005641Y-93259724D01*
X105005438Y-93259753D01*
X105002717Y-93259867D01*
X105000000Y-93260000D01*
X103000000Y-93260000D01*
X102999622Y-93259997D01*
X102999581Y-93259999D01*
X102999540Y-93259997D01*
X102999162Y-93259994D01*
X102996471Y-93259825D01*
X102993728Y-93259671D01*
X102993523Y-93259639D01*
X102993312Y-93259626D01*
X102990642Y-93259194D01*
X102987935Y-93258775D01*
X102987728Y-93258722D01*
X102987525Y-93258689D01*
X102984956Y-93258010D01*
X102982258Y-93257317D01*
X102982055Y-93257243D01*
X102981858Y-93257191D01*
X102979361Y-93256263D01*
X102976749Y-93255312D01*
X102976558Y-93255221D01*
X102976363Y-93255148D01*
X102973942Y-93253967D01*
X102971463Y-93252779D01*
X102971281Y-93252669D01*
X102971095Y-93252578D01*
X102968789Y-93251160D01*
X102966448Y-93249742D01*
X102966281Y-93249617D01*
X102966102Y-93249507D01*
X102963916Y-93247848D01*
X102961755Y-93246231D01*
X102961602Y-93246091D01*
X102961433Y-93245963D01*
X102959418Y-93244097D01*
X102957426Y-93242278D01*
X102957286Y-93242123D01*
X102957132Y-93241980D01*
X102955358Y-93239982D01*
X102953503Y-93237922D01*
X102953374Y-93237747D01*
X102953240Y-93237596D01*
X102951611Y-93235355D01*
X102950025Y-93233203D01*
X102949922Y-93233030D01*
X102949794Y-93232854D01*
X102948393Y-93230466D01*
X102947023Y-93228168D01*
X102946934Y-93227978D01*
X102946828Y-93227798D01*
X102945699Y-93225354D01*
X102944527Y-93222864D01*
X102944456Y-93222663D01*
X102944369Y-93222476D01*
X102943478Y-93219918D01*
X102942561Y-93217342D01*
X102942511Y-93217140D01*
X102942441Y-93216940D01*
X102941796Y-93214272D01*
X102941143Y-93211654D01*
X102941113Y-93211448D01*
X102941063Y-93211243D01*
X102940688Y-93208574D01*
X102940286Y-93205855D01*
X102940276Y-93205641D01*
X102940247Y-93205438D01*
X102940133Y-93202717D01*
X102940000Y-93200000D01*
X102940000Y-91200000D01*
X102940006Y-91199162D01*
X102940164Y-91196643D01*
X102940287Y-91194143D01*
X102940348Y-91193733D01*
X102940374Y-91193312D01*
X102940778Y-91190818D01*
X102941143Y-91188344D01*
X102941244Y-91187939D01*
X102941311Y-91187525D01*
X102941949Y-91185110D01*
X102942561Y-91182657D01*
X102942704Y-91182256D01*
X102942809Y-91181858D01*
X102943680Y-91179514D01*
X102944528Y-91177134D01*
X102944706Y-91176756D01*
X102944852Y-91176363D01*
X102945951Y-91174110D01*
X102947024Y-91171830D01*
X102947241Y-91171466D01*
X102947422Y-91171095D01*
X102948725Y-91168977D01*
X102950026Y-91166794D01*
X102950276Y-91166456D01*
X102950493Y-91166102D01*
X102952004Y-91164111D01*
X102953504Y-91162077D01*
X102953785Y-91161765D01*
X102954037Y-91161433D01*
X102955762Y-91159570D01*
X102957427Y-91157721D01*
X102957735Y-91157440D01*
X102958020Y-91157132D01*
X102959892Y-91155470D01*
X102961756Y-91153768D01*
X102962094Y-91153515D01*
X102962404Y-91153240D01*
X102964483Y-91151729D01*
X102966451Y-91150257D01*
X102966799Y-91150046D01*
X102967146Y-91149794D01*
X102969350Y-91148501D01*
X102971465Y-91147220D01*
X102971841Y-91147040D01*
X102972202Y-91146828D01*
X102974467Y-91145781D01*
X102976751Y-91144687D01*
X102977150Y-91144542D01*
X102977524Y-91144369D01*
X102979885Y-91143547D01*
X102982259Y-91142683D01*
X102982663Y-91142579D01*
X102983060Y-91142441D01*
X102985498Y-91141851D01*
X102987937Y-91141225D01*
X102988355Y-91141160D01*
X102988757Y-91141063D01*
X102991211Y-91140718D01*
X102993730Y-91140328D01*
X102994154Y-91140304D01*
X102994562Y-91140247D01*
X102997051Y-91140142D01*
X102999583Y-91140001D01*
X103011868Y-91139916D01*
X103104778Y-91134070D01*
X103195423Y-91119389D01*
X103284200Y-91095933D01*
X103370275Y-91063922D01*
X103452817Y-91023664D01*
X103531022Y-90975552D01*
X103604177Y-90920024D01*
X103671554Y-90857632D01*
X103732525Y-90788959D01*
X103786497Y-90714672D01*
X103832966Y-90635469D01*
X103871486Y-90552105D01*
X103901686Y-90465382D01*
X103923280Y-90376121D01*
X103936060Y-90285185D01*
X103939906Y-90193437D01*
X103934780Y-90101759D01*
X103920729Y-90010998D01*
X103897894Y-89922060D01*
X103866483Y-89835759D01*
X103826808Y-89752951D01*
X103779237Y-89674400D01*
X103724222Y-89600861D01*
X103686911Y-89560000D01*
X103843518Y-89560000D01*
X103849403Y-89567867D01*
X103850375Y-89566275D01*
X103853903Y-89561593D01*
X103855368Y-89560000D01*
X103843518Y-89560000D01*
X103686911Y-89560000D01*
X103662310Y-89533059D01*
X103594059Y-89471606D01*
X103520151Y-89417115D01*
X103441273Y-89370094D01*
X103358183Y-89330995D01*
X103271678Y-89300191D01*
X103182561Y-89277972D01*
X103091721Y-89264558D01*
X102997069Y-89259928D01*
X102996232Y-89259881D01*
X102994989Y-89259742D01*
X102993728Y-89259671D01*
X102992067Y-89259414D01*
X102990407Y-89259228D01*
X102989187Y-89258969D01*
X102987935Y-89258775D01*
X102986295Y-89258354D01*
X102984673Y-89258009D01*
X102983487Y-89257633D01*
X102982258Y-89257317D01*
X102980662Y-89256736D01*
X102979086Y-89256236D01*
X102977948Y-89255748D01*
X102976749Y-89255312D01*
X102975225Y-89254582D01*
X102973697Y-89253927D01*
X102972600Y-89253324D01*
X102971463Y-89252779D01*
X102970021Y-89251906D01*
X102968561Y-89251103D01*
X102967530Y-89250397D01*
X102966448Y-89249742D01*
X102965106Y-89248738D01*
X102963724Y-89247792D01*
X102962758Y-89246982D01*
X102961755Y-89246231D01*
X102960519Y-89245103D01*
X102959234Y-89244024D01*
X102958353Y-89243124D01*
X102957426Y-89242278D01*
X102956309Y-89241037D01*
X102955132Y-89239836D01*
X102954344Y-89238856D01*
X102953503Y-89237922D01*
X102952507Y-89236571D01*
X102951459Y-89235267D01*
X102950768Y-89234211D01*
X102950025Y-89233203D01*
X102949172Y-89231773D01*
X102948249Y-89230362D01*
X102947664Y-89229243D01*
X102947023Y-89228168D01*
X102946312Y-89226656D01*
X102945533Y-89225167D01*
X102945061Y-89224000D01*
X102944527Y-89222864D01*
X102943965Y-89221286D01*
X102943337Y-89219731D01*
X102942981Y-89218523D01*
X102942561Y-89217342D01*
X102942158Y-89215724D01*
X102941682Y-89214108D01*
X102941445Y-89212866D01*
X102941143Y-89211654D01*
X102940898Y-89209998D01*
X102940584Y-89208350D01*
X102940471Y-89207106D01*
X102940286Y-89205855D01*
X102940204Y-89204167D01*
X102940053Y-89202512D01*
X102940062Y-89201260D01*
X102940000Y-89200000D01*
X102940000Y-87200000D01*
X102940003Y-87199622D01*
X102940001Y-87199581D01*
X102940003Y-87199540D01*
X102940006Y-87199162D01*
X102940175Y-87196471D01*
X102940329Y-87193728D01*
X102940361Y-87193523D01*
X102940374Y-87193312D01*
X102940806Y-87190642D01*
X102941225Y-87187935D01*
X102941278Y-87187728D01*
X102941311Y-87187525D01*
X102941990Y-87184956D01*
X102942683Y-87182258D01*
X102942757Y-87182055D01*
X102942809Y-87181858D01*
X102943737Y-87179361D01*
X102944688Y-87176749D01*
X102944779Y-87176558D01*
X102944852Y-87176363D01*
X102946033Y-87173942D01*
X102947221Y-87171463D01*
X102947331Y-87171281D01*
X102947422Y-87171095D01*
X102948840Y-87168789D01*
X102950258Y-87166448D01*
X102950383Y-87166281D01*
X102950493Y-87166102D01*
X102952152Y-87163916D01*
X102953769Y-87161755D01*
X102953909Y-87161602D01*
X102954037Y-87161433D01*
X102955903Y-87159418D01*
X102957722Y-87157426D01*
X102957877Y-87157286D01*
X102958020Y-87157132D01*
X102960018Y-87155358D01*
X102962078Y-87153503D01*
X102962253Y-87153374D01*
X102962404Y-87153240D01*
X102964606Y-87151640D01*
X102966797Y-87150025D01*
X102966970Y-87149922D01*
X102967146Y-87149794D01*
X102969534Y-87148393D01*
X102971832Y-87147023D01*
X102972022Y-87146934D01*
X102972202Y-87146828D01*
X102974646Y-87145699D01*
X102977136Y-87144527D01*
X102977337Y-87144456D01*
X102977524Y-87144369D01*
X102980082Y-87143478D01*
X102982658Y-87142561D01*
X102982860Y-87142511D01*
X102983060Y-87142441D01*
X102985728Y-87141796D01*
X102988346Y-87141143D01*
X102988552Y-87141113D01*
X102988757Y-87141063D01*
X102991426Y-87140688D01*
X102994145Y-87140286D01*
X102994359Y-87140276D01*
X102994562Y-87140247D01*
X102997283Y-87140133D01*
X103000000Y-87140000D01*
X105000000Y-87140000D01*
X105000378Y-87140003D01*
G37*
G36*
X135399622Y-85859997D02*
G01*
X135399581Y-85859999D01*
X135399540Y-85859997D01*
X135399162Y-85859994D01*
X135396471Y-85859825D01*
X135393728Y-85859671D01*
X135393523Y-85859639D01*
X135393312Y-85859626D01*
X135390642Y-85859194D01*
X135387935Y-85858775D01*
X135387728Y-85858722D01*
X135387525Y-85858689D01*
X135384956Y-85858010D01*
X135382258Y-85857317D01*
X135382055Y-85857243D01*
X135381858Y-85857191D01*
X135379361Y-85856263D01*
X135376749Y-85855312D01*
X135376558Y-85855221D01*
X135376363Y-85855148D01*
X135373942Y-85853967D01*
X135371463Y-85852779D01*
X135371281Y-85852669D01*
X135371095Y-85852578D01*
X135368789Y-85851160D01*
X135366448Y-85849742D01*
X135366281Y-85849617D01*
X135366102Y-85849507D01*
X135363916Y-85847848D01*
X135361755Y-85846231D01*
X135361602Y-85846091D01*
X135361433Y-85845963D01*
X135359418Y-85844097D01*
X135357426Y-85842278D01*
X135357286Y-85842123D01*
X135357132Y-85841980D01*
X135355358Y-85839982D01*
X135353503Y-85837922D01*
X135353374Y-85837747D01*
X135353240Y-85837596D01*
X135351640Y-85835394D01*
X135350025Y-85833203D01*
X135349922Y-85833030D01*
X135349794Y-85832854D01*
X135348393Y-85830466D01*
X135347023Y-85828168D01*
X135346934Y-85827978D01*
X135346828Y-85827798D01*
X135345699Y-85825354D01*
X135344527Y-85822864D01*
X135344456Y-85822663D01*
X135344369Y-85822476D01*
X135343478Y-85819918D01*
X135342561Y-85817342D01*
X135342511Y-85817140D01*
X135342441Y-85816940D01*
X135341796Y-85814272D01*
X135341143Y-85811654D01*
X135341113Y-85811448D01*
X135341063Y-85811243D01*
X135340688Y-85808574D01*
X135340286Y-85805855D01*
X135340276Y-85805641D01*
X135340247Y-85805438D01*
X135340133Y-85802717D01*
X135340000Y-85800000D01*
X135340000Y-79800000D01*
X135340003Y-79799622D01*
X135340001Y-79799581D01*
X135340003Y-79799540D01*
X135340006Y-79799162D01*
X135340175Y-79796471D01*
X135340329Y-79793728D01*
X135340361Y-79793523D01*
X135340374Y-79793312D01*
X135340806Y-79790642D01*
X135341225Y-79787935D01*
X135341278Y-79787728D01*
X135341311Y-79787525D01*
X135341990Y-79784956D01*
X135342683Y-79782258D01*
X135342757Y-79782055D01*
X135342809Y-79781858D01*
X135343737Y-79779361D01*
X135344688Y-79776749D01*
X135344779Y-79776558D01*
X135344852Y-79776363D01*
X135346033Y-79773942D01*
X135347221Y-79771463D01*
X135347331Y-79771281D01*
X135347422Y-79771095D01*
X135348840Y-79768789D01*
X135350258Y-79766448D01*
X135350383Y-79766281D01*
X135350493Y-79766102D01*
X135352152Y-79763916D01*
X135353769Y-79761755D01*
X135353909Y-79761602D01*
X135354037Y-79761433D01*
X135355903Y-79759418D01*
X135357722Y-79757426D01*
X135357877Y-79757286D01*
X135358020Y-79757132D01*
X135360018Y-79755358D01*
X135362078Y-79753503D01*
X135362253Y-79753374D01*
X135362404Y-79753240D01*
X135364606Y-79751640D01*
X135366797Y-79750025D01*
X135366970Y-79749922D01*
X135367146Y-79749794D01*
X135369534Y-79748393D01*
X135371832Y-79747023D01*
X135372022Y-79746934D01*
X135372202Y-79746828D01*
X135374646Y-79745699D01*
X135377136Y-79744527D01*
X135377337Y-79744456D01*
X135377524Y-79744369D01*
X135380082Y-79743478D01*
X135382658Y-79742561D01*
X135382860Y-79742511D01*
X135383060Y-79742441D01*
X135385728Y-79741796D01*
X135388346Y-79741143D01*
X135388552Y-79741113D01*
X135388757Y-79741063D01*
X135391426Y-79740688D01*
X135394145Y-79740286D01*
X135394359Y-79740276D01*
X135394562Y-79740247D01*
X135397283Y-79740133D01*
X135400000Y-79740000D01*
X137400000Y-79740000D01*
X137400378Y-79740003D01*
X137400419Y-79740001D01*
X137400460Y-79740003D01*
X137400838Y-79740006D01*
X137403529Y-79740175D01*
X137406272Y-79740329D01*
X137406477Y-79740361D01*
X137406688Y-79740374D01*
X137409358Y-79740806D01*
X137412065Y-79741225D01*
X137412272Y-79741278D01*
X137412475Y-79741311D01*
X137415044Y-79741990D01*
X137417742Y-79742683D01*
X137417945Y-79742757D01*
X137418142Y-79742809D01*
X137420639Y-79743737D01*
X137423251Y-79744688D01*
X137423442Y-79744779D01*
X137423637Y-79744852D01*
X137426058Y-79746033D01*
X137428537Y-79747221D01*
X137428719Y-79747331D01*
X137428905Y-79747422D01*
X137431211Y-79748840D01*
X137433552Y-79750258D01*
X137433719Y-79750383D01*
X137433898Y-79750493D01*
X137436084Y-79752152D01*
X137438245Y-79753769D01*
X137438398Y-79753909D01*
X137438567Y-79754037D01*
X137440582Y-79755903D01*
X137442574Y-79757722D01*
X137442714Y-79757877D01*
X137442868Y-79758020D01*
X137444642Y-79760018D01*
X137446497Y-79762078D01*
X137446626Y-79762253D01*
X137446760Y-79762404D01*
X137448389Y-79764645D01*
X137449975Y-79766797D01*
X137450078Y-79766970D01*
X137450206Y-79767146D01*
X137451607Y-79769534D01*
X137452977Y-79771832D01*
X137453066Y-79772022D01*
X137453172Y-79772202D01*
X137454301Y-79774646D01*
X137455473Y-79777136D01*
X137455544Y-79777337D01*
X137455631Y-79777524D01*
X137456522Y-79780082D01*
X137457439Y-79782658D01*
X137457489Y-79782860D01*
X137457559Y-79783060D01*
X137458204Y-79785728D01*
X137458857Y-79788346D01*
X137458887Y-79788552D01*
X137458937Y-79788757D01*
X137459312Y-79791426D01*
X137459714Y-79794145D01*
X137459724Y-79794359D01*
X137459753Y-79794562D01*
X137459867Y-79797283D01*
X137460000Y-79800000D01*
X137460000Y-81800000D01*
X137459994Y-81800838D01*
X137459836Y-81803357D01*
X137459713Y-81805857D01*
X137459652Y-81806267D01*
X137459626Y-81806688D01*
X137459222Y-81809182D01*
X137458857Y-81811656D01*
X137458756Y-81812061D01*
X137458689Y-81812475D01*
X137458051Y-81814890D01*
X137457439Y-81817343D01*
X137457296Y-81817744D01*
X137457191Y-81818142D01*
X137456320Y-81820486D01*
X137455472Y-81822866D01*
X137455294Y-81823244D01*
X137455148Y-81823637D01*
X137454049Y-81825890D01*
X137452976Y-81828170D01*
X137452759Y-81828534D01*
X137452578Y-81828905D01*
X137451275Y-81831023D01*
X137449974Y-81833206D01*
X137449724Y-81833544D01*
X137449507Y-81833898D01*
X137447996Y-81835889D01*
X137446496Y-81837923D01*
X137446215Y-81838235D01*
X137445963Y-81838567D01*
X137444238Y-81840430D01*
X137442573Y-81842279D01*
X137442265Y-81842560D01*
X137441980Y-81842868D01*
X137440108Y-81844530D01*
X137438244Y-81846232D01*
X137437906Y-81846485D01*
X137437596Y-81846760D01*
X137435517Y-81848271D01*
X137433549Y-81849743D01*
X137433201Y-81849954D01*
X137432854Y-81850206D01*
X137430650Y-81851499D01*
X137428535Y-81852780D01*
X137428159Y-81852960D01*
X137427798Y-81853172D01*
X137425533Y-81854219D01*
X137423249Y-81855313D01*
X137422850Y-81855458D01*
X137422476Y-81855631D01*
X137420115Y-81856453D01*
X137417741Y-81857317D01*
X137417337Y-81857421D01*
X137416940Y-81857559D01*
X137414502Y-81858149D01*
X137412063Y-81858775D01*
X137411645Y-81858840D01*
X137411243Y-81858937D01*
X137408789Y-81859282D01*
X137406270Y-81859672D01*
X137405846Y-81859696D01*
X137405438Y-81859753D01*
X137402949Y-81859858D01*
X137400417Y-81859999D01*
X137388132Y-81860084D01*
X137295222Y-81865930D01*
X137204577Y-81880611D01*
X137115800Y-81904067D01*
X137029725Y-81936078D01*
X136947183Y-81976336D01*
X136868978Y-82024448D01*
X136795823Y-82079976D01*
X136728446Y-82142368D01*
X136667475Y-82211041D01*
X136613503Y-82285328D01*
X136567034Y-82364531D01*
X136528514Y-82447895D01*
X136498314Y-82534618D01*
X136476720Y-82623879D01*
X136463940Y-82714815D01*
X136460094Y-82806563D01*
X136465220Y-82898241D01*
X136479271Y-82989002D01*
X136502106Y-83077940D01*
X136533517Y-83164241D01*
X136573192Y-83247049D01*
X136620763Y-83325600D01*
X136675778Y-83399139D01*
X136713089Y-83440000D01*
X136556482Y-83440000D01*
X136550597Y-83432133D01*
X136549625Y-83433725D01*
X136546097Y-83438407D01*
X136544632Y-83440000D01*
X136556482Y-83440000D01*
X136713089Y-83440000D01*
X136737690Y-83466941D01*
X136805941Y-83528394D01*
X136879849Y-83582885D01*
X136958727Y-83629906D01*
X137041817Y-83669005D01*
X137128322Y-83699809D01*
X137217439Y-83722028D01*
X137308279Y-83735442D01*
X137402931Y-83740072D01*
X137403768Y-83740119D01*
X137405011Y-83740258D01*
X137406272Y-83740329D01*
X137407933Y-83740586D01*
X137409593Y-83740772D01*
X137410813Y-83741031D01*
X137412065Y-83741225D01*
X137413705Y-83741646D01*
X137415327Y-83741991D01*
X137416513Y-83742367D01*
X137417742Y-83742683D01*
X137419338Y-83743264D01*
X137420914Y-83743764D01*
X137422052Y-83744252D01*
X137423251Y-83744688D01*
X137424775Y-83745418D01*
X137426303Y-83746073D01*
X137427400Y-83746676D01*
X137428537Y-83747221D01*
X137429979Y-83748094D01*
X137431439Y-83748897D01*
X137432470Y-83749603D01*
X137433552Y-83750258D01*
X137434894Y-83751262D01*
X137436276Y-83752208D01*
X137437242Y-83753018D01*
X137438245Y-83753769D01*
X137439481Y-83754897D01*
X137440766Y-83755976D01*
X137441647Y-83756876D01*
X137442574Y-83757722D01*
X137443691Y-83758963D01*
X137444868Y-83760164D01*
X137445656Y-83761144D01*
X137446497Y-83762078D01*
X137447493Y-83763429D01*
X137448541Y-83764733D01*
X137449232Y-83765789D01*
X137449975Y-83766797D01*
X137450828Y-83768227D01*
X137451751Y-83769638D01*
X137452336Y-83770757D01*
X137452977Y-83771832D01*
X137453688Y-83773344D01*
X137454467Y-83774833D01*
X137454939Y-83776000D01*
X137455473Y-83777136D01*
X137456035Y-83778714D01*
X137456663Y-83780269D01*
X137457019Y-83781477D01*
X137457439Y-83782658D01*
X137457842Y-83784276D01*
X137458318Y-83785892D01*
X137458555Y-83787134D01*
X137458857Y-83788346D01*
X137459102Y-83790002D01*
X137459416Y-83791650D01*
X137459529Y-83792894D01*
X137459714Y-83794145D01*
X137459796Y-83795833D01*
X137459947Y-83797488D01*
X137459938Y-83798740D01*
X137460000Y-83800000D01*
X137460000Y-85800000D01*
X137459997Y-85800378D01*
X137459999Y-85800419D01*
X137459997Y-85800460D01*
X137459994Y-85800838D01*
X137459825Y-85803529D01*
X137459671Y-85806272D01*
X137459639Y-85806477D01*
X137459626Y-85806688D01*
X137459194Y-85809358D01*
X137458775Y-85812065D01*
X137458722Y-85812272D01*
X137458689Y-85812475D01*
X137458010Y-85815044D01*
X137457317Y-85817742D01*
X137457243Y-85817945D01*
X137457191Y-85818142D01*
X137456263Y-85820639D01*
X137455312Y-85823251D01*
X137455221Y-85823442D01*
X137455148Y-85823637D01*
X137453967Y-85826058D01*
X137452779Y-85828537D01*
X137452669Y-85828719D01*
X137452578Y-85828905D01*
X137451160Y-85831211D01*
X137449742Y-85833552D01*
X137449617Y-85833719D01*
X137449507Y-85833898D01*
X137447848Y-85836084D01*
X137446231Y-85838245D01*
X137446091Y-85838398D01*
X137445963Y-85838567D01*
X137444097Y-85840582D01*
X137442278Y-85842574D01*
X137442123Y-85842714D01*
X137441980Y-85842868D01*
X137439982Y-85844642D01*
X137437922Y-85846497D01*
X137437747Y-85846626D01*
X137437596Y-85846760D01*
X137435394Y-85848360D01*
X137433203Y-85849975D01*
X137433030Y-85850078D01*
X137432854Y-85850206D01*
X137430466Y-85851607D01*
X137428168Y-85852977D01*
X137427978Y-85853066D01*
X137427798Y-85853172D01*
X137425354Y-85854301D01*
X137422864Y-85855473D01*
X137422663Y-85855544D01*
X137422476Y-85855631D01*
X137419918Y-85856522D01*
X137417342Y-85857439D01*
X137417140Y-85857489D01*
X137416940Y-85857559D01*
X137414272Y-85858204D01*
X137411654Y-85858857D01*
X137411448Y-85858887D01*
X137411243Y-85858937D01*
X137408574Y-85859312D01*
X137405855Y-85859714D01*
X137405641Y-85859724D01*
X137405438Y-85859753D01*
X137402717Y-85859867D01*
X137400000Y-85860000D01*
X135400000Y-85860000D01*
X135399622Y-85859997D01*
G37*
G36*
X135399622Y-78259997D02*
G01*
X135399581Y-78259999D01*
X135399540Y-78259997D01*
X135399162Y-78259994D01*
X135396471Y-78259825D01*
X135393728Y-78259671D01*
X135393523Y-78259639D01*
X135393312Y-78259626D01*
X135390642Y-78259194D01*
X135387935Y-78258775D01*
X135387728Y-78258722D01*
X135387525Y-78258689D01*
X135384956Y-78258010D01*
X135382258Y-78257317D01*
X135382055Y-78257243D01*
X135381858Y-78257191D01*
X135379361Y-78256263D01*
X135376749Y-78255312D01*
X135376558Y-78255221D01*
X135376363Y-78255148D01*
X135373942Y-78253967D01*
X135371463Y-78252779D01*
X135371281Y-78252669D01*
X135371095Y-78252578D01*
X135368789Y-78251160D01*
X135366448Y-78249742D01*
X135366281Y-78249617D01*
X135366102Y-78249507D01*
X135363916Y-78247848D01*
X135361755Y-78246231D01*
X135361602Y-78246091D01*
X135361433Y-78245963D01*
X135359418Y-78244097D01*
X135357426Y-78242278D01*
X135357286Y-78242123D01*
X135357132Y-78241980D01*
X135355358Y-78239982D01*
X135353503Y-78237922D01*
X135353374Y-78237747D01*
X135353240Y-78237596D01*
X135351640Y-78235394D01*
X135350025Y-78233203D01*
X135349922Y-78233030D01*
X135349794Y-78232854D01*
X135348393Y-78230466D01*
X135347023Y-78228168D01*
X135346934Y-78227978D01*
X135346828Y-78227798D01*
X135345699Y-78225354D01*
X135344527Y-78222864D01*
X135344456Y-78222663D01*
X135344369Y-78222476D01*
X135343478Y-78219918D01*
X135342561Y-78217342D01*
X135342511Y-78217140D01*
X135342441Y-78216940D01*
X135341796Y-78214272D01*
X135341143Y-78211654D01*
X135341113Y-78211448D01*
X135341063Y-78211243D01*
X135340688Y-78208574D01*
X135340286Y-78205855D01*
X135340276Y-78205641D01*
X135340247Y-78205438D01*
X135340133Y-78202717D01*
X135340000Y-78200000D01*
X135340000Y-72200000D01*
X135340003Y-72199622D01*
X135340001Y-72199581D01*
X135340003Y-72199540D01*
X135340006Y-72199162D01*
X135340175Y-72196471D01*
X135340329Y-72193728D01*
X135340361Y-72193523D01*
X135340374Y-72193312D01*
X135340806Y-72190642D01*
X135341225Y-72187935D01*
X135341278Y-72187728D01*
X135341311Y-72187525D01*
X135341990Y-72184956D01*
X135342683Y-72182258D01*
X135342757Y-72182055D01*
X135342809Y-72181858D01*
X135343737Y-72179361D01*
X135344688Y-72176749D01*
X135344779Y-72176558D01*
X135344852Y-72176363D01*
X135346033Y-72173942D01*
X135347221Y-72171463D01*
X135347331Y-72171281D01*
X135347422Y-72171095D01*
X135348840Y-72168789D01*
X135350258Y-72166448D01*
X135350383Y-72166281D01*
X135350493Y-72166102D01*
X135352152Y-72163916D01*
X135353769Y-72161755D01*
X135353909Y-72161602D01*
X135354037Y-72161433D01*
X135355903Y-72159418D01*
X135357722Y-72157426D01*
X135357877Y-72157286D01*
X135358020Y-72157132D01*
X135360018Y-72155358D01*
X135362078Y-72153503D01*
X135362253Y-72153374D01*
X135362404Y-72153240D01*
X135364606Y-72151640D01*
X135366797Y-72150025D01*
X135366970Y-72149922D01*
X135367146Y-72149794D01*
X135369534Y-72148393D01*
X135371832Y-72147023D01*
X135372022Y-72146934D01*
X135372202Y-72146828D01*
X135374646Y-72145699D01*
X135377136Y-72144527D01*
X135377337Y-72144456D01*
X135377524Y-72144369D01*
X135380082Y-72143478D01*
X135382658Y-72142561D01*
X135382860Y-72142511D01*
X135383060Y-72142441D01*
X135385728Y-72141796D01*
X135388346Y-72141143D01*
X135388552Y-72141113D01*
X135388757Y-72141063D01*
X135391426Y-72140688D01*
X135394145Y-72140286D01*
X135394359Y-72140276D01*
X135394562Y-72140247D01*
X135397283Y-72140133D01*
X135400000Y-72140000D01*
X137400000Y-72140000D01*
X137400378Y-72140003D01*
X137400419Y-72140001D01*
X137400460Y-72140003D01*
X137400838Y-72140006D01*
X137403529Y-72140175D01*
X137406272Y-72140329D01*
X137406477Y-72140361D01*
X137406688Y-72140374D01*
X137409358Y-72140806D01*
X137412065Y-72141225D01*
X137412272Y-72141278D01*
X137412475Y-72141311D01*
X137415044Y-72141990D01*
X137417742Y-72142683D01*
X137417945Y-72142757D01*
X137418142Y-72142809D01*
X137420639Y-72143737D01*
X137423251Y-72144688D01*
X137423442Y-72144779D01*
X137423637Y-72144852D01*
X137426058Y-72146033D01*
X137428537Y-72147221D01*
X137428719Y-72147331D01*
X137428905Y-72147422D01*
X137431211Y-72148840D01*
X137433552Y-72150258D01*
X137433719Y-72150383D01*
X137433898Y-72150493D01*
X137436084Y-72152152D01*
X137438245Y-72153769D01*
X137438398Y-72153909D01*
X137438567Y-72154037D01*
X137440582Y-72155903D01*
X137442574Y-72157722D01*
X137442714Y-72157877D01*
X137442868Y-72158020D01*
X137444642Y-72160018D01*
X137446497Y-72162078D01*
X137446626Y-72162253D01*
X137446760Y-72162404D01*
X137448389Y-72164645D01*
X137449975Y-72166797D01*
X137450078Y-72166970D01*
X137450206Y-72167146D01*
X137451607Y-72169534D01*
X137452977Y-72171832D01*
X137453066Y-72172022D01*
X137453172Y-72172202D01*
X137454301Y-72174646D01*
X137455473Y-72177136D01*
X137455544Y-72177337D01*
X137455631Y-72177524D01*
X137456522Y-72180082D01*
X137457439Y-72182658D01*
X137457489Y-72182860D01*
X137457559Y-72183060D01*
X137458204Y-72185728D01*
X137458857Y-72188346D01*
X137458887Y-72188552D01*
X137458937Y-72188757D01*
X137459312Y-72191426D01*
X137459714Y-72194145D01*
X137459724Y-72194359D01*
X137459753Y-72194562D01*
X137459867Y-72197283D01*
X137460000Y-72200000D01*
X137460000Y-74200000D01*
X137459994Y-74200838D01*
X137459836Y-74203357D01*
X137459713Y-74205857D01*
X137459652Y-74206267D01*
X137459626Y-74206688D01*
X137459222Y-74209182D01*
X137458857Y-74211656D01*
X137458756Y-74212061D01*
X137458689Y-74212475D01*
X137458051Y-74214890D01*
X137457439Y-74217343D01*
X137457296Y-74217744D01*
X137457191Y-74218142D01*
X137456320Y-74220486D01*
X137455472Y-74222866D01*
X137455294Y-74223244D01*
X137455148Y-74223637D01*
X137454049Y-74225890D01*
X137452976Y-74228170D01*
X137452759Y-74228534D01*
X137452578Y-74228905D01*
X137451275Y-74231023D01*
X137449974Y-74233206D01*
X137449724Y-74233544D01*
X137449507Y-74233898D01*
X137447996Y-74235889D01*
X137446496Y-74237923D01*
X137446215Y-74238235D01*
X137445963Y-74238567D01*
X137444238Y-74240430D01*
X137442573Y-74242279D01*
X137442265Y-74242560D01*
X137441980Y-74242868D01*
X137440108Y-74244530D01*
X137438244Y-74246232D01*
X137437906Y-74246485D01*
X137437596Y-74246760D01*
X137435517Y-74248271D01*
X137433549Y-74249743D01*
X137433201Y-74249954D01*
X137432854Y-74250206D01*
X137430650Y-74251499D01*
X137428535Y-74252780D01*
X137428159Y-74252960D01*
X137427798Y-74253172D01*
X137425533Y-74254219D01*
X137423249Y-74255313D01*
X137422850Y-74255458D01*
X137422476Y-74255631D01*
X137420115Y-74256453D01*
X137417741Y-74257317D01*
X137417337Y-74257421D01*
X137416940Y-74257559D01*
X137414502Y-74258149D01*
X137412063Y-74258775D01*
X137411645Y-74258840D01*
X137411243Y-74258937D01*
X137408789Y-74259282D01*
X137406270Y-74259672D01*
X137405846Y-74259696D01*
X137405438Y-74259753D01*
X137402949Y-74259858D01*
X137400417Y-74259999D01*
X137388132Y-74260084D01*
X137295222Y-74265930D01*
X137204577Y-74280611D01*
X137115800Y-74304067D01*
X137029725Y-74336078D01*
X136947183Y-74376336D01*
X136868978Y-74424448D01*
X136795823Y-74479976D01*
X136728446Y-74542368D01*
X136667475Y-74611041D01*
X136613503Y-74685328D01*
X136567034Y-74764531D01*
X136528514Y-74847895D01*
X136498314Y-74934618D01*
X136476720Y-75023879D01*
X136463940Y-75114815D01*
X136460094Y-75206563D01*
X136465220Y-75298241D01*
X136479271Y-75389002D01*
X136502106Y-75477940D01*
X136533517Y-75564241D01*
X136573192Y-75647049D01*
X136620763Y-75725600D01*
X136675778Y-75799139D01*
X136713089Y-75840000D01*
X136556482Y-75840000D01*
X136550597Y-75832133D01*
X136549625Y-75833725D01*
X136546097Y-75838407D01*
X136544632Y-75840000D01*
X136556482Y-75840000D01*
X136713089Y-75840000D01*
X136737690Y-75866941D01*
X136805941Y-75928394D01*
X136879849Y-75982885D01*
X136958727Y-76029906D01*
X137041817Y-76069005D01*
X137128322Y-76099809D01*
X137217439Y-76122028D01*
X137308279Y-76135442D01*
X137402931Y-76140072D01*
X137403768Y-76140119D01*
X137405011Y-76140258D01*
X137406272Y-76140329D01*
X137407933Y-76140586D01*
X137409593Y-76140772D01*
X137410813Y-76141031D01*
X137412065Y-76141225D01*
X137413705Y-76141646D01*
X137415327Y-76141991D01*
X137416513Y-76142367D01*
X137417742Y-76142683D01*
X137419338Y-76143264D01*
X137420914Y-76143764D01*
X137422052Y-76144252D01*
X137423251Y-76144688D01*
X137424775Y-76145418D01*
X137426303Y-76146073D01*
X137427400Y-76146676D01*
X137428537Y-76147221D01*
X137429979Y-76148094D01*
X137431439Y-76148897D01*
X137432470Y-76149603D01*
X137433552Y-76150258D01*
X137434894Y-76151262D01*
X137436276Y-76152208D01*
X137437242Y-76153018D01*
X137438245Y-76153769D01*
X137439481Y-76154897D01*
X137440766Y-76155976D01*
X137441647Y-76156876D01*
X137442574Y-76157722D01*
X137443691Y-76158963D01*
X137444868Y-76160164D01*
X137445656Y-76161144D01*
X137446497Y-76162078D01*
X137447493Y-76163429D01*
X137448541Y-76164733D01*
X137449232Y-76165789D01*
X137449975Y-76166797D01*
X137450828Y-76168227D01*
X137451751Y-76169638D01*
X137452336Y-76170757D01*
X137452977Y-76171832D01*
X137453688Y-76173344D01*
X137454467Y-76174833D01*
X137454939Y-76176000D01*
X137455473Y-76177136D01*
X137456035Y-76178714D01*
X137456663Y-76180269D01*
X137457019Y-76181477D01*
X137457439Y-76182658D01*
X137457842Y-76184276D01*
X137458318Y-76185892D01*
X137458555Y-76187134D01*
X137458857Y-76188346D01*
X137459102Y-76190002D01*
X137459416Y-76191650D01*
X137459529Y-76192894D01*
X137459714Y-76194145D01*
X137459796Y-76195833D01*
X137459947Y-76197488D01*
X137459938Y-76198740D01*
X137460000Y-76200000D01*
X137460000Y-78200000D01*
X137459997Y-78200378D01*
X137459999Y-78200419D01*
X137459997Y-78200460D01*
X137459994Y-78200838D01*
X137459825Y-78203529D01*
X137459671Y-78206272D01*
X137459639Y-78206477D01*
X137459626Y-78206688D01*
X137459194Y-78209358D01*
X137458775Y-78212065D01*
X137458722Y-78212272D01*
X137458689Y-78212475D01*
X137458010Y-78215044D01*
X137457317Y-78217742D01*
X137457243Y-78217945D01*
X137457191Y-78218142D01*
X137456263Y-78220639D01*
X137455312Y-78223251D01*
X137455221Y-78223442D01*
X137455148Y-78223637D01*
X137453967Y-78226058D01*
X137452779Y-78228537D01*
X137452669Y-78228719D01*
X137452578Y-78228905D01*
X137451160Y-78231211D01*
X137449742Y-78233552D01*
X137449617Y-78233719D01*
X137449507Y-78233898D01*
X137447848Y-78236084D01*
X137446231Y-78238245D01*
X137446091Y-78238398D01*
X137445963Y-78238567D01*
X137444097Y-78240582D01*
X137442278Y-78242574D01*
X137442123Y-78242714D01*
X137441980Y-78242868D01*
X137439982Y-78244642D01*
X137437922Y-78246497D01*
X137437747Y-78246626D01*
X137437596Y-78246760D01*
X137435394Y-78248360D01*
X137433203Y-78249975D01*
X137433030Y-78250078D01*
X137432854Y-78250206D01*
X137430466Y-78251607D01*
X137428168Y-78252977D01*
X137427978Y-78253066D01*
X137427798Y-78253172D01*
X137425354Y-78254301D01*
X137422864Y-78255473D01*
X137422663Y-78255544D01*
X137422476Y-78255631D01*
X137419918Y-78256522D01*
X137417342Y-78257439D01*
X137417140Y-78257489D01*
X137416940Y-78257559D01*
X137414272Y-78258204D01*
X137411654Y-78258857D01*
X137411448Y-78258887D01*
X137411243Y-78258937D01*
X137408574Y-78259312D01*
X137405855Y-78259714D01*
X137405641Y-78259724D01*
X137405438Y-78259753D01*
X137402717Y-78259867D01*
X137400000Y-78260000D01*
X135400000Y-78260000D01*
X135399622Y-78259997D01*
G37*
G36*
X135199622Y-70759997D02*
G01*
X135199581Y-70759999D01*
X135199540Y-70759997D01*
X135199162Y-70759994D01*
X135196471Y-70759825D01*
X135193728Y-70759671D01*
X135193523Y-70759639D01*
X135193312Y-70759626D01*
X135190642Y-70759194D01*
X135187935Y-70758775D01*
X135187728Y-70758722D01*
X135187525Y-70758689D01*
X135184956Y-70758010D01*
X135182258Y-70757317D01*
X135182055Y-70757243D01*
X135181858Y-70757191D01*
X135179361Y-70756263D01*
X135176749Y-70755312D01*
X135176558Y-70755221D01*
X135176363Y-70755148D01*
X135173942Y-70753967D01*
X135171463Y-70752779D01*
X135171281Y-70752669D01*
X135171095Y-70752578D01*
X135168789Y-70751160D01*
X135166448Y-70749742D01*
X135166281Y-70749617D01*
X135166102Y-70749507D01*
X135163916Y-70747848D01*
X135161755Y-70746231D01*
X135161602Y-70746091D01*
X135161433Y-70745963D01*
X135159418Y-70744097D01*
X135157426Y-70742278D01*
X135157286Y-70742123D01*
X135157132Y-70741980D01*
X135155358Y-70739982D01*
X135153503Y-70737922D01*
X135153374Y-70737747D01*
X135153240Y-70737596D01*
X135151640Y-70735394D01*
X135150025Y-70733203D01*
X135149922Y-70733030D01*
X135149794Y-70732854D01*
X135148393Y-70730466D01*
X135147023Y-70728168D01*
X135146934Y-70727978D01*
X135146828Y-70727798D01*
X135145699Y-70725354D01*
X135144527Y-70722864D01*
X135144456Y-70722663D01*
X135144369Y-70722476D01*
X135143478Y-70719918D01*
X135142561Y-70717342D01*
X135142511Y-70717140D01*
X135142441Y-70716940D01*
X135141796Y-70714272D01*
X135141143Y-70711654D01*
X135141113Y-70711448D01*
X135141063Y-70711243D01*
X135140688Y-70708574D01*
X135140286Y-70705855D01*
X135140276Y-70705641D01*
X135140247Y-70705438D01*
X135140133Y-70702717D01*
X135140000Y-70700000D01*
X135140000Y-64700000D01*
X135140003Y-64699622D01*
X135140001Y-64699581D01*
X135140003Y-64699540D01*
X135140006Y-64699162D01*
X135140175Y-64696471D01*
X135140329Y-64693728D01*
X135140361Y-64693523D01*
X135140374Y-64693312D01*
X135140806Y-64690642D01*
X135141225Y-64687935D01*
X135141278Y-64687728D01*
X135141311Y-64687525D01*
X135141990Y-64684956D01*
X135142683Y-64682258D01*
X135142757Y-64682055D01*
X135142809Y-64681858D01*
X135143737Y-64679361D01*
X135144688Y-64676749D01*
X135144779Y-64676558D01*
X135144852Y-64676363D01*
X135146033Y-64673942D01*
X135147221Y-64671463D01*
X135147331Y-64671281D01*
X135147422Y-64671095D01*
X135148840Y-64668789D01*
X135150258Y-64666448D01*
X135150383Y-64666281D01*
X135150493Y-64666102D01*
X135152152Y-64663916D01*
X135153769Y-64661755D01*
X135153909Y-64661602D01*
X135154037Y-64661433D01*
X135155903Y-64659418D01*
X135157722Y-64657426D01*
X135157877Y-64657286D01*
X135158020Y-64657132D01*
X135160018Y-64655358D01*
X135162078Y-64653503D01*
X135162253Y-64653374D01*
X135162404Y-64653240D01*
X135164606Y-64651640D01*
X135166797Y-64650025D01*
X135166970Y-64649922D01*
X135167146Y-64649794D01*
X135169534Y-64648393D01*
X135171832Y-64647023D01*
X135172022Y-64646934D01*
X135172202Y-64646828D01*
X135174646Y-64645699D01*
X135177136Y-64644527D01*
X135177337Y-64644456D01*
X135177524Y-64644369D01*
X135180082Y-64643478D01*
X135182658Y-64642561D01*
X135182860Y-64642511D01*
X135183060Y-64642441D01*
X135185728Y-64641796D01*
X135188346Y-64641143D01*
X135188552Y-64641113D01*
X135188757Y-64641063D01*
X135191426Y-64640688D01*
X135194145Y-64640286D01*
X135194359Y-64640276D01*
X135194562Y-64640247D01*
X135197283Y-64640133D01*
X135200000Y-64640000D01*
X137200000Y-64640000D01*
X137200378Y-64640003D01*
X137200419Y-64640001D01*
X137200460Y-64640003D01*
X137200838Y-64640006D01*
X137203529Y-64640175D01*
X137206272Y-64640329D01*
X137206477Y-64640361D01*
X137206688Y-64640374D01*
X137209358Y-64640806D01*
X137212065Y-64641225D01*
X137212272Y-64641278D01*
X137212475Y-64641311D01*
X137215044Y-64641990D01*
X137217742Y-64642683D01*
X137217945Y-64642757D01*
X137218142Y-64642809D01*
X137220639Y-64643737D01*
X137223251Y-64644688D01*
X137223442Y-64644779D01*
X137223637Y-64644852D01*
X137226058Y-64646033D01*
X137228537Y-64647221D01*
X137228719Y-64647331D01*
X137228905Y-64647422D01*
X137231211Y-64648840D01*
X137233552Y-64650258D01*
X137233719Y-64650383D01*
X137233898Y-64650493D01*
X137236084Y-64652152D01*
X137238245Y-64653769D01*
X137238398Y-64653909D01*
X137238567Y-64654037D01*
X137240582Y-64655903D01*
X137242574Y-64657722D01*
X137242714Y-64657877D01*
X137242868Y-64658020D01*
X137244642Y-64660018D01*
X137246497Y-64662078D01*
X137246626Y-64662253D01*
X137246760Y-64662404D01*
X137248389Y-64664645D01*
X137249975Y-64666797D01*
X137250078Y-64666970D01*
X137250206Y-64667146D01*
X137251607Y-64669534D01*
X137252977Y-64671832D01*
X137253066Y-64672022D01*
X137253172Y-64672202D01*
X137254301Y-64674646D01*
X137255473Y-64677136D01*
X137255544Y-64677337D01*
X137255631Y-64677524D01*
X137256522Y-64680082D01*
X137257439Y-64682658D01*
X137257489Y-64682860D01*
X137257559Y-64683060D01*
X137258204Y-64685728D01*
X137258857Y-64688346D01*
X137258887Y-64688552D01*
X137258937Y-64688757D01*
X137259312Y-64691426D01*
X137259714Y-64694145D01*
X137259724Y-64694359D01*
X137259753Y-64694562D01*
X137259867Y-64697283D01*
X137260000Y-64700000D01*
X137260000Y-66700000D01*
X137259994Y-66700838D01*
X137259836Y-66703357D01*
X137259713Y-66705857D01*
X137259652Y-66706267D01*
X137259626Y-66706688D01*
X137259222Y-66709182D01*
X137258857Y-66711656D01*
X137258756Y-66712061D01*
X137258689Y-66712475D01*
X137258051Y-66714890D01*
X137257439Y-66717343D01*
X137257296Y-66717744D01*
X137257191Y-66718142D01*
X137256320Y-66720486D01*
X137255472Y-66722866D01*
X137255294Y-66723244D01*
X137255148Y-66723637D01*
X137254049Y-66725890D01*
X137252976Y-66728170D01*
X137252759Y-66728534D01*
X137252578Y-66728905D01*
X137251275Y-66731023D01*
X137249974Y-66733206D01*
X137249724Y-66733544D01*
X137249507Y-66733898D01*
X137247996Y-66735889D01*
X137246496Y-66737923D01*
X137246215Y-66738235D01*
X137245963Y-66738567D01*
X137244238Y-66740430D01*
X137242573Y-66742279D01*
X137242265Y-66742560D01*
X137241980Y-66742868D01*
X137240108Y-66744530D01*
X137238244Y-66746232D01*
X137237906Y-66746485D01*
X137237596Y-66746760D01*
X137235517Y-66748271D01*
X137233549Y-66749743D01*
X137233201Y-66749954D01*
X137232854Y-66750206D01*
X137230650Y-66751499D01*
X137228535Y-66752780D01*
X137228159Y-66752960D01*
X137227798Y-66753172D01*
X137225533Y-66754219D01*
X137223249Y-66755313D01*
X137222850Y-66755458D01*
X137222476Y-66755631D01*
X137220115Y-66756453D01*
X137217741Y-66757317D01*
X137217337Y-66757421D01*
X137216940Y-66757559D01*
X137214502Y-66758149D01*
X137212063Y-66758775D01*
X137211645Y-66758840D01*
X137211243Y-66758937D01*
X137208789Y-66759282D01*
X137206270Y-66759672D01*
X137205846Y-66759696D01*
X137205438Y-66759753D01*
X137202949Y-66759858D01*
X137200417Y-66759999D01*
X137188132Y-66760084D01*
X137095222Y-66765930D01*
X137004577Y-66780611D01*
X136915800Y-66804067D01*
X136829725Y-66836078D01*
X136747183Y-66876336D01*
X136668978Y-66924448D01*
X136595823Y-66979976D01*
X136528446Y-67042368D01*
X136467475Y-67111041D01*
X136413503Y-67185328D01*
X136367034Y-67264531D01*
X136328514Y-67347895D01*
X136298314Y-67434618D01*
X136276720Y-67523879D01*
X136263940Y-67614815D01*
X136260094Y-67706563D01*
X136265220Y-67798241D01*
X136279271Y-67889002D01*
X136302106Y-67977940D01*
X136333517Y-68064241D01*
X136373192Y-68147049D01*
X136420763Y-68225600D01*
X136475778Y-68299139D01*
X136513089Y-68340000D01*
X136356482Y-68340000D01*
X136350597Y-68332133D01*
X136349625Y-68333725D01*
X136346097Y-68338407D01*
X136344632Y-68340000D01*
X136356482Y-68340000D01*
X136513089Y-68340000D01*
X136537690Y-68366941D01*
X136605941Y-68428394D01*
X136679849Y-68482885D01*
X136758727Y-68529906D01*
X136841817Y-68569005D01*
X136928322Y-68599809D01*
X137017439Y-68622028D01*
X137108279Y-68635442D01*
X137202931Y-68640072D01*
X137203768Y-68640119D01*
X137205011Y-68640258D01*
X137206272Y-68640329D01*
X137207933Y-68640586D01*
X137209593Y-68640772D01*
X137210813Y-68641031D01*
X137212065Y-68641225D01*
X137213705Y-68641646D01*
X137215327Y-68641991D01*
X137216513Y-68642367D01*
X137217742Y-68642683D01*
X137219338Y-68643264D01*
X137220914Y-68643764D01*
X137222052Y-68644252D01*
X137223251Y-68644688D01*
X137224775Y-68645418D01*
X137226303Y-68646073D01*
X137227400Y-68646676D01*
X137228537Y-68647221D01*
X137229979Y-68648094D01*
X137231439Y-68648897D01*
X137232470Y-68649603D01*
X137233552Y-68650258D01*
X137234894Y-68651262D01*
X137236276Y-68652208D01*
X137237242Y-68653018D01*
X137238245Y-68653769D01*
X137239481Y-68654897D01*
X137240766Y-68655976D01*
X137241647Y-68656876D01*
X137242574Y-68657722D01*
X137243691Y-68658963D01*
X137244868Y-68660164D01*
X137245656Y-68661144D01*
X137246497Y-68662078D01*
X137247493Y-68663429D01*
X137248541Y-68664733D01*
X137249232Y-68665789D01*
X137249975Y-68666797D01*
X137250828Y-68668227D01*
X137251751Y-68669638D01*
X137252336Y-68670757D01*
X137252977Y-68671832D01*
X137253688Y-68673344D01*
X137254467Y-68674833D01*
X137254939Y-68676000D01*
X137255473Y-68677136D01*
X137256035Y-68678714D01*
X137256663Y-68680269D01*
X137257019Y-68681477D01*
X137257439Y-68682658D01*
X137257842Y-68684276D01*
X137258318Y-68685892D01*
X137258555Y-68687134D01*
X137258857Y-68688346D01*
X137259102Y-68690002D01*
X137259416Y-68691650D01*
X137259529Y-68692894D01*
X137259714Y-68694145D01*
X137259796Y-68695833D01*
X137259947Y-68697488D01*
X137259938Y-68698740D01*
X137260000Y-68700000D01*
X137260000Y-70700000D01*
X137259997Y-70700378D01*
X137259999Y-70700419D01*
X137259997Y-70700460D01*
X137259994Y-70700838D01*
X137259825Y-70703529D01*
X137259671Y-70706272D01*
X137259639Y-70706477D01*
X137259626Y-70706688D01*
X137259194Y-70709358D01*
X137258775Y-70712065D01*
X137258722Y-70712272D01*
X137258689Y-70712475D01*
X137258010Y-70715044D01*
X137257317Y-70717742D01*
X137257243Y-70717945D01*
X137257191Y-70718142D01*
X137256263Y-70720639D01*
X137255312Y-70723251D01*
X137255221Y-70723442D01*
X137255148Y-70723637D01*
X137253967Y-70726058D01*
X137252779Y-70728537D01*
X137252669Y-70728719D01*
X137252578Y-70728905D01*
X137251160Y-70731211D01*
X137249742Y-70733552D01*
X137249617Y-70733719D01*
X137249507Y-70733898D01*
X137247848Y-70736084D01*
X137246231Y-70738245D01*
X137246091Y-70738398D01*
X137245963Y-70738567D01*
X137244097Y-70740582D01*
X137242278Y-70742574D01*
X137242123Y-70742714D01*
X137241980Y-70742868D01*
X137239982Y-70744642D01*
X137237922Y-70746497D01*
X137237747Y-70746626D01*
X137237596Y-70746760D01*
X137235394Y-70748360D01*
X137233203Y-70749975D01*
X137233030Y-70750078D01*
X137232854Y-70750206D01*
X137230466Y-70751607D01*
X137228168Y-70752977D01*
X137227978Y-70753066D01*
X137227798Y-70753172D01*
X137225354Y-70754301D01*
X137222864Y-70755473D01*
X137222663Y-70755544D01*
X137222476Y-70755631D01*
X137219918Y-70756522D01*
X137217342Y-70757439D01*
X137217140Y-70757489D01*
X137216940Y-70757559D01*
X137214272Y-70758204D01*
X137211654Y-70758857D01*
X137211448Y-70758887D01*
X137211243Y-70758937D01*
X137208574Y-70759312D01*
X137205855Y-70759714D01*
X137205641Y-70759724D01*
X137205438Y-70759753D01*
X137202717Y-70759867D01*
X137200000Y-70760000D01*
X135200000Y-70760000D01*
X135199622Y-70759997D01*
G37*
M02*
