M48
; DRILL file {KiCad (5.1.5)-3} date 5/4/2020 5:56:12 PM
; FORMAT={-:-/ absolute / inch / decimal}
; #@! TF.CreationDate,2020-05-04T17:56:12+05:30
; #@! TF.GenerationSoftware,Kicad,Pcbnew,(5.1.5)-3
; #@! TF.FileFunction,Plated,1,2,PTH
FMAT,2
INCH
T1C0.0079
T2C0.0157
%
G90
G05
T1
X4.16Y-3.5015
X4.1639Y-3.2022
X4.1643Y-3.0029
X4.197Y-2.654
X4.2093Y-3.3971
X4.3669Y-3.0875
X4.3685Y-3.0433
X4.3768Y-3.5406
X4.4049Y-3.1543
X4.4163Y-3.4757
X4.4301Y-3.2881
X4.4394Y-3.0307
X4.4528Y-3.5472
X4.4765Y-3.1586
X4.481Y-2.9499
X4.4922Y-3.5561
X4.4961Y-3.5148
X4.5072Y-3.3907
X4.5082Y-2.8949
X4.5399Y-3.2846
X4.5497Y-3.4304
X4.5551Y-3.3543
X4.5738Y-3.5085
X4.6204Y-3.3672
X4.6285Y-3.6156
X4.6494Y-3.3372
X4.7173Y-3.1836
X4.755Y-3.343
X4.7651Y-3.394
X4.7663Y-2.9822
X4.7881Y-3.0279
X4.793Y-3.1729
X4.8199Y-3.3344
X4.832Y-3.5566
X4.8621Y-3.4604
X4.9265Y-3.1398
X5.0589Y-2.9814
X5.122Y-3.0276
X5.1654Y-2.9488
X5.1845Y-2.9139
X5.1891Y-2.9672
X5.2677Y-3.0512
X5.2958Y-2.6693
X5.2992Y-3.1063
X5.3002Y-3.5089
X5.3039Y-3.2638
T2
X5.0118Y-3.3386
X5.0394Y-3.0787
X5.0441Y-3.3821
X5.0486Y-3.0262
X5.0495Y-3.1161
X5.1339Y-2.9252
X5.148Y-3.0716
X5.1846Y-3.0827
X5.2377Y-3.0751
T0
M30
