G04 #@! TF.GenerationSoftware,KiCad,Pcbnew,(5.1.5)-3*
G04 #@! TF.CreationDate,2020-05-04T17:56:07+05:30*
G04 #@! TF.ProjectId,Battery_Charger,42617474-6572-4795-9f43-686172676572,rev?*
G04 #@! TF.SameCoordinates,Original*
G04 #@! TF.FileFunction,Profile,NP*
%FSLAX46Y46*%
G04 Gerber Fmt 4.6, Leading zero omitted, Abs format (unit mm)*
G04 Created by KiCad (PCBNEW (5.1.5)-3) date 2020-05-04 17:56:07*
%MOMM*%
%LPD*%
G04 APERTURE LIST*
%ADD10C,0.050000*%
G04 APERTURE END LIST*
D10*
X137500000Y-91100000D02*
G75*
G02X137500000Y-89300000I0J900000D01*
G01*
X137600000Y-83700000D02*
G75*
G02X137600000Y-81900000I0J900000D01*
G01*
X137600000Y-76100000D02*
G75*
G02X137600000Y-74300000I0J900000D01*
G01*
X137400000Y-68600000D02*
G75*
G02X137400000Y-66800000I0J900000D01*
G01*
X135200000Y-64500000D02*
X135200000Y-64000000D01*
X137400000Y-64500000D02*
X135200000Y-64500000D01*
X137400000Y-66800000D02*
X137400000Y-64500000D01*
X137400000Y-70900000D02*
X137400000Y-68600000D01*
X135300000Y-70900000D02*
X137400000Y-70900000D01*
X135300000Y-72000000D02*
X135300000Y-70900000D01*
X137600000Y-72000000D02*
X135300000Y-72000000D01*
X137600000Y-74300000D02*
X137600000Y-72000000D01*
X137600000Y-78400000D02*
X137600000Y-76100000D01*
X135300000Y-78400000D02*
X137600000Y-78400000D01*
X135300000Y-79600000D02*
X135300000Y-78400000D01*
X137600000Y-79600000D02*
X135300000Y-79600000D01*
X137600000Y-81900000D02*
X137600000Y-79600000D01*
X137600000Y-86000000D02*
X137600000Y-83700000D01*
X135200000Y-86000000D02*
X137600000Y-86000000D01*
X135200000Y-87000000D02*
X135200000Y-86000000D01*
X137500000Y-87000000D02*
X135200000Y-87000000D01*
X137500000Y-89300000D02*
X137500000Y-87000000D01*
X137500000Y-93400000D02*
X137500000Y-91100000D01*
X135200000Y-93400000D02*
X137500000Y-93400000D01*
X135200000Y-94000000D02*
X135200000Y-93400000D01*
X105200000Y-64500000D02*
X105200000Y-64000000D01*
X102800000Y-66800000D02*
X102800000Y-66700000D01*
X102800000Y-66800000D02*
G75*
G02X102800000Y-68600000I0J-900000D01*
G01*
X102900000Y-74300000D02*
G75*
G02X102900000Y-76100000I0J-900000D01*
G01*
X102900000Y-81700000D02*
G75*
G02X102900000Y-83500000I0J-900000D01*
G01*
X102800000Y-89300000D02*
G75*
G02X102800000Y-91100000I0J-900000D01*
G01*
X102800000Y-64500000D02*
X105200000Y-64500000D01*
X102800000Y-66700000D02*
X102800000Y-64500000D01*
X102800000Y-70900000D02*
X102800000Y-68600000D01*
X105200000Y-70900000D02*
X102800000Y-70900000D01*
X105200000Y-72000000D02*
X105200000Y-70900000D01*
X102900000Y-72000000D02*
X105200000Y-72000000D01*
X102900000Y-74300000D02*
X102900000Y-72000000D01*
X102900000Y-78400000D02*
X102900000Y-76100000D01*
X105200000Y-78400000D02*
X102900000Y-78400000D01*
X105200000Y-79400000D02*
X105200000Y-78400000D01*
X102900000Y-79400000D02*
X105200000Y-79400000D01*
X102900000Y-81700000D02*
X102900000Y-79400000D01*
X102900000Y-85800000D02*
X102900000Y-83500000D01*
X105100000Y-85800000D02*
X102900000Y-85800000D01*
X105100000Y-87000000D02*
X105100000Y-85800000D01*
X102800000Y-87000000D02*
X105100000Y-87000000D01*
X102800000Y-89300000D02*
X102800000Y-87000000D01*
X102800000Y-93400000D02*
X102800000Y-91100000D01*
X105200000Y-93400000D02*
X102800000Y-93400000D01*
X105200000Y-94000000D02*
X105200000Y-93400000D01*
X105200000Y-94000000D02*
X135200000Y-94000000D01*
X105200000Y-64000000D02*
X135200000Y-64000000D01*
M02*
