G04 #@! TF.GenerationSoftware,KiCad,Pcbnew,(5.1.5)-3*
G04 #@! TF.CreationDate,2020-05-04T17:56:06+05:30*
G04 #@! TF.ProjectId,Battery_Charger,42617474-6572-4795-9f43-686172676572,rev?*
G04 #@! TF.SameCoordinates,Original*
G04 #@! TF.FileFunction,Legend,Top*
G04 #@! TF.FilePolarity,Positive*
%FSLAX46Y46*%
G04 Gerber Fmt 4.6, Leading zero omitted, Abs format (unit mm)*
G04 Created by KiCad (PCBNEW (5.1.5)-3) date 2020-05-04 17:56:06*
%MOMM*%
%LPD*%
G04 APERTURE LIST*
%ADD10C,0.170000*%
%ADD11C,0.125000*%
%ADD12C,0.120000*%
%ADD13C,0.100000*%
%ADD14C,0.200000*%
%ADD15C,0.254000*%
%ADD16C,0.152400*%
G04 APERTURE END LIST*
D10*
X123050000Y-65650000D02*
X123016666Y-65750000D01*
X122983333Y-65783333D01*
X122916666Y-65816666D01*
X122816666Y-65816666D01*
X122750000Y-65783333D01*
X122716666Y-65750000D01*
X122683333Y-65683333D01*
X122683333Y-65416666D01*
X123383333Y-65416666D01*
X123383333Y-65650000D01*
X123350000Y-65716666D01*
X123316666Y-65750000D01*
X123250000Y-65783333D01*
X123183333Y-65783333D01*
X123116666Y-65750000D01*
X123083333Y-65716666D01*
X123050000Y-65650000D01*
X123050000Y-65416666D01*
X122683333Y-66416666D02*
X123050000Y-66416666D01*
X123116666Y-66383333D01*
X123150000Y-66316666D01*
X123150000Y-66183333D01*
X123116666Y-66116666D01*
X122716666Y-66416666D02*
X122683333Y-66350000D01*
X122683333Y-66183333D01*
X122716666Y-66116666D01*
X122783333Y-66083333D01*
X122850000Y-66083333D01*
X122916666Y-66116666D01*
X122950000Y-66183333D01*
X122950000Y-66350000D01*
X122983333Y-66416666D01*
X123150000Y-66650000D02*
X123150000Y-66916666D01*
X123383333Y-66750000D02*
X122783333Y-66750000D01*
X122716666Y-66783333D01*
X122683333Y-66850000D01*
X122683333Y-66916666D01*
X123150000Y-67050000D02*
X123150000Y-67316666D01*
X123383333Y-67150000D02*
X122783333Y-67150000D01*
X122716666Y-67183333D01*
X122683333Y-67250000D01*
X122683333Y-67316666D01*
X122716666Y-67816666D02*
X122683333Y-67750000D01*
X122683333Y-67616666D01*
X122716666Y-67550000D01*
X122783333Y-67516666D01*
X123050000Y-67516666D01*
X123116666Y-67550000D01*
X123150000Y-67616666D01*
X123150000Y-67750000D01*
X123116666Y-67816666D01*
X123050000Y-67850000D01*
X122983333Y-67850000D01*
X122916666Y-67516666D01*
X122683333Y-68150000D02*
X123150000Y-68150000D01*
X123016666Y-68150000D02*
X123083333Y-68183333D01*
X123116666Y-68216666D01*
X123150000Y-68283333D01*
X123150000Y-68350000D01*
X123150000Y-68516666D02*
X122683333Y-68683333D01*
X123150000Y-68850000D02*
X122683333Y-68683333D01*
X122516666Y-68616666D01*
X122483333Y-68583333D01*
X122450000Y-68516666D01*
X122750000Y-70050000D02*
X122716666Y-70016666D01*
X122683333Y-69916666D01*
X122683333Y-69850000D01*
X122716666Y-69750000D01*
X122783333Y-69683333D01*
X122850000Y-69650000D01*
X122983333Y-69616666D01*
X123083333Y-69616666D01*
X123216666Y-69650000D01*
X123283333Y-69683333D01*
X123350000Y-69750000D01*
X123383333Y-69850000D01*
X123383333Y-69916666D01*
X123350000Y-70016666D01*
X123316666Y-70050000D01*
X122683333Y-70450000D02*
X122716666Y-70383333D01*
X122750000Y-70350000D01*
X122816666Y-70316666D01*
X123016666Y-70316666D01*
X123083333Y-70350000D01*
X123116666Y-70383333D01*
X123150000Y-70450000D01*
X123150000Y-70550000D01*
X123116666Y-70616666D01*
X123083333Y-70650000D01*
X123016666Y-70683333D01*
X122816666Y-70683333D01*
X122750000Y-70650000D01*
X122716666Y-70616666D01*
X122683333Y-70550000D01*
X122683333Y-70450000D01*
X123150000Y-70983333D02*
X122683333Y-70983333D01*
X123083333Y-70983333D02*
X123116666Y-71016666D01*
X123150000Y-71083333D01*
X123150000Y-71183333D01*
X123116666Y-71250000D01*
X123050000Y-71283333D01*
X122683333Y-71283333D01*
X123150000Y-71616666D02*
X122683333Y-71616666D01*
X123083333Y-71616666D02*
X123116666Y-71650000D01*
X123150000Y-71716666D01*
X123150000Y-71816666D01*
X123116666Y-71883333D01*
X123050000Y-71916666D01*
X122683333Y-71916666D01*
X122716666Y-72516666D02*
X122683333Y-72450000D01*
X122683333Y-72316666D01*
X122716666Y-72250000D01*
X122783333Y-72216666D01*
X123050000Y-72216666D01*
X123116666Y-72250000D01*
X123150000Y-72316666D01*
X123150000Y-72450000D01*
X123116666Y-72516666D01*
X123050000Y-72550000D01*
X122983333Y-72550000D01*
X122916666Y-72216666D01*
X122716666Y-73150000D02*
X122683333Y-73083333D01*
X122683333Y-72950000D01*
X122716666Y-72883333D01*
X122750000Y-72850000D01*
X122816666Y-72816666D01*
X123016666Y-72816666D01*
X123083333Y-72850000D01*
X123116666Y-72883333D01*
X123150000Y-72950000D01*
X123150000Y-73083333D01*
X123116666Y-73150000D01*
X123150000Y-73350000D02*
X123150000Y-73616666D01*
X123383333Y-73450000D02*
X122783333Y-73450000D01*
X122716666Y-73483333D01*
X122683333Y-73550000D01*
X122683333Y-73616666D01*
X122683333Y-73950000D02*
X122716666Y-73883333D01*
X122750000Y-73850000D01*
X122816666Y-73816666D01*
X123016666Y-73816666D01*
X123083333Y-73850000D01*
X123116666Y-73883333D01*
X123150000Y-73950000D01*
X123150000Y-74050000D01*
X123116666Y-74116666D01*
X123083333Y-74150000D01*
X123016666Y-74183333D01*
X122816666Y-74183333D01*
X122750000Y-74150000D01*
X122716666Y-74116666D01*
X122683333Y-74050000D01*
X122683333Y-73950000D01*
X122683333Y-74483333D02*
X123150000Y-74483333D01*
X123016666Y-74483333D02*
X123083333Y-74516666D01*
X123116666Y-74550000D01*
X123150000Y-74616666D01*
X123150000Y-74683333D01*
X117983333Y-71766666D02*
X118016666Y-71666666D01*
X118016666Y-71500000D01*
X117983333Y-71433333D01*
X117950000Y-71400000D01*
X117883333Y-71366666D01*
X117816666Y-71366666D01*
X117750000Y-71400000D01*
X117716666Y-71433333D01*
X117683333Y-71500000D01*
X117650000Y-71633333D01*
X117616666Y-71700000D01*
X117583333Y-71733333D01*
X117516666Y-71766666D01*
X117450000Y-71766666D01*
X117383333Y-71733333D01*
X117350000Y-71700000D01*
X117316666Y-71633333D01*
X117316666Y-71466666D01*
X117350000Y-71366666D01*
X118016666Y-70966666D02*
X117983333Y-71033333D01*
X117950000Y-71066666D01*
X117883333Y-71100000D01*
X117683333Y-71100000D01*
X117616666Y-71066666D01*
X117583333Y-71033333D01*
X117550000Y-70966666D01*
X117550000Y-70866666D01*
X117583333Y-70800000D01*
X117616666Y-70766666D01*
X117683333Y-70733333D01*
X117883333Y-70733333D01*
X117950000Y-70766666D01*
X117983333Y-70800000D01*
X118016666Y-70866666D01*
X118016666Y-70966666D01*
X118016666Y-70333333D02*
X117983333Y-70400000D01*
X117916666Y-70433333D01*
X117316666Y-70433333D01*
X118016666Y-69766666D02*
X117650000Y-69766666D01*
X117583333Y-69800000D01*
X117550000Y-69866666D01*
X117550000Y-70000000D01*
X117583333Y-70066666D01*
X117983333Y-69766666D02*
X118016666Y-69833333D01*
X118016666Y-70000000D01*
X117983333Y-70066666D01*
X117916666Y-70100000D01*
X117850000Y-70100000D01*
X117783333Y-70066666D01*
X117750000Y-70000000D01*
X117750000Y-69833333D01*
X117716666Y-69766666D01*
X118016666Y-69433333D02*
X117550000Y-69433333D01*
X117683333Y-69433333D02*
X117616666Y-69400000D01*
X117583333Y-69366666D01*
X117550000Y-69300000D01*
X117550000Y-69233333D01*
X118016666Y-68466666D02*
X117316666Y-68466666D01*
X117316666Y-68200000D01*
X117350000Y-68133333D01*
X117383333Y-68100000D01*
X117450000Y-68066666D01*
X117550000Y-68066666D01*
X117616666Y-68100000D01*
X117650000Y-68133333D01*
X117683333Y-68200000D01*
X117683333Y-68466666D01*
X118016666Y-67466666D02*
X117650000Y-67466666D01*
X117583333Y-67500000D01*
X117550000Y-67566666D01*
X117550000Y-67700000D01*
X117583333Y-67766666D01*
X117983333Y-67466666D02*
X118016666Y-67533333D01*
X118016666Y-67700000D01*
X117983333Y-67766666D01*
X117916666Y-67800000D01*
X117850000Y-67800000D01*
X117783333Y-67766666D01*
X117750000Y-67700000D01*
X117750000Y-67533333D01*
X117716666Y-67466666D01*
X117550000Y-67133333D02*
X118016666Y-67133333D01*
X117616666Y-67133333D02*
X117583333Y-67100000D01*
X117550000Y-67033333D01*
X117550000Y-66933333D01*
X117583333Y-66866666D01*
X117650000Y-66833333D01*
X118016666Y-66833333D01*
X117983333Y-66233333D02*
X118016666Y-66300000D01*
X118016666Y-66433333D01*
X117983333Y-66500000D01*
X117916666Y-66533333D01*
X117650000Y-66533333D01*
X117583333Y-66500000D01*
X117550000Y-66433333D01*
X117550000Y-66300000D01*
X117583333Y-66233333D01*
X117650000Y-66200000D01*
X117716666Y-66200000D01*
X117783333Y-66533333D01*
X118016666Y-65800000D02*
X117983333Y-65866666D01*
X117916666Y-65900000D01*
X117316666Y-65900000D01*
D11*
X133326190Y-68561904D02*
X133826190Y-68395238D01*
X133326190Y-68228571D01*
X133826190Y-67990476D02*
X133802380Y-68038095D01*
X133778571Y-68061904D01*
X133730952Y-68085714D01*
X133588095Y-68085714D01*
X133540476Y-68061904D01*
X133516666Y-68038095D01*
X133492857Y-67990476D01*
X133492857Y-67919047D01*
X133516666Y-67871428D01*
X133540476Y-67847619D01*
X133588095Y-67823809D01*
X133730952Y-67823809D01*
X133778571Y-67847619D01*
X133802380Y-67871428D01*
X133826190Y-67919047D01*
X133826190Y-67990476D01*
X133492857Y-67395238D02*
X133826190Y-67395238D01*
X133492857Y-67609523D02*
X133754761Y-67609523D01*
X133802380Y-67585714D01*
X133826190Y-67538095D01*
X133826190Y-67466666D01*
X133802380Y-67419047D01*
X133778571Y-67395238D01*
X133492857Y-67228571D02*
X133492857Y-67038095D01*
X133326190Y-67157142D02*
X133754761Y-67157142D01*
X133802380Y-67133333D01*
X133826190Y-67085714D01*
X133826190Y-67038095D01*
X133350000Y-75380952D02*
X133326190Y-75428571D01*
X133326190Y-75500000D01*
X133350000Y-75571428D01*
X133397619Y-75619047D01*
X133445238Y-75642857D01*
X133540476Y-75666666D01*
X133611904Y-75666666D01*
X133707142Y-75642857D01*
X133754761Y-75619047D01*
X133802380Y-75571428D01*
X133826190Y-75500000D01*
X133826190Y-75452380D01*
X133802380Y-75380952D01*
X133778571Y-75357142D01*
X133611904Y-75357142D01*
X133611904Y-75452380D01*
X133826190Y-75142857D02*
X133326190Y-75142857D01*
X133826190Y-74857142D01*
X133326190Y-74857142D01*
X133826190Y-74619047D02*
X133326190Y-74619047D01*
X133326190Y-74500000D01*
X133350000Y-74428571D01*
X133397619Y-74380952D01*
X133445238Y-74357142D01*
X133540476Y-74333333D01*
X133611904Y-74333333D01*
X133707142Y-74357142D01*
X133754761Y-74380952D01*
X133802380Y-74428571D01*
X133826190Y-74500000D01*
X133826190Y-74619047D01*
X133602380Y-83307142D02*
X133626190Y-83235714D01*
X133626190Y-83116666D01*
X133602380Y-83069047D01*
X133578571Y-83045238D01*
X133530952Y-83021428D01*
X133483333Y-83021428D01*
X133435714Y-83045238D01*
X133411904Y-83069047D01*
X133388095Y-83116666D01*
X133364285Y-83211904D01*
X133340476Y-83259523D01*
X133316666Y-83283333D01*
X133269047Y-83307142D01*
X133221428Y-83307142D01*
X133173809Y-83283333D01*
X133150000Y-83259523D01*
X133126190Y-83211904D01*
X133126190Y-83092857D01*
X133150000Y-83021428D01*
X133626190Y-82807142D02*
X133126190Y-82807142D01*
X133126190Y-82688095D01*
X133150000Y-82616666D01*
X133197619Y-82569047D01*
X133245238Y-82545238D01*
X133340476Y-82521428D01*
X133411904Y-82521428D01*
X133507142Y-82545238D01*
X133554761Y-82569047D01*
X133602380Y-82616666D01*
X133626190Y-82688095D01*
X133626190Y-82807142D01*
X133483333Y-82330952D02*
X133483333Y-82092857D01*
X133626190Y-82378571D02*
X133126190Y-82211904D01*
X133626190Y-82045238D01*
X133602380Y-90295238D02*
X133626190Y-90223809D01*
X133626190Y-90104761D01*
X133602380Y-90057142D01*
X133578571Y-90033333D01*
X133530952Y-90009523D01*
X133483333Y-90009523D01*
X133435714Y-90033333D01*
X133411904Y-90057142D01*
X133388095Y-90104761D01*
X133364285Y-90200000D01*
X133340476Y-90247619D01*
X133316666Y-90271428D01*
X133269047Y-90295238D01*
X133221428Y-90295238D01*
X133173809Y-90271428D01*
X133150000Y-90247619D01*
X133126190Y-90200000D01*
X133126190Y-90080952D01*
X133150000Y-90009523D01*
X133578571Y-89509523D02*
X133602380Y-89533333D01*
X133626190Y-89604761D01*
X133626190Y-89652380D01*
X133602380Y-89723809D01*
X133554761Y-89771428D01*
X133507142Y-89795238D01*
X133411904Y-89819047D01*
X133340476Y-89819047D01*
X133245238Y-89795238D01*
X133197619Y-89771428D01*
X133150000Y-89723809D01*
X133126190Y-89652380D01*
X133126190Y-89604761D01*
X133150000Y-89533333D01*
X133173809Y-89509523D01*
X133626190Y-89057142D02*
X133626190Y-89295238D01*
X133126190Y-89295238D01*
X106716666Y-89335714D02*
X106716666Y-89573809D01*
X106573809Y-89288095D02*
X107073809Y-89454761D01*
X106573809Y-89621428D01*
X106573809Y-89859523D02*
X106597619Y-89811904D01*
X106645238Y-89788095D01*
X107073809Y-89788095D01*
X106573809Y-90264285D02*
X106835714Y-90264285D01*
X106883333Y-90240476D01*
X106907142Y-90192857D01*
X106907142Y-90097619D01*
X106883333Y-90050000D01*
X106597619Y-90264285D02*
X106573809Y-90216666D01*
X106573809Y-90097619D01*
X106597619Y-90050000D01*
X106645238Y-90026190D01*
X106692857Y-90026190D01*
X106740476Y-90050000D01*
X106764285Y-90097619D01*
X106764285Y-90216666D01*
X106788095Y-90264285D01*
X106573809Y-90502380D02*
X106907142Y-90502380D01*
X106811904Y-90502380D02*
X106859523Y-90526190D01*
X106883333Y-90550000D01*
X106907142Y-90597619D01*
X106907142Y-90645238D01*
X106573809Y-90811904D02*
X106907142Y-90811904D01*
X106859523Y-90811904D02*
X106883333Y-90835714D01*
X106907142Y-90883333D01*
X106907142Y-90954761D01*
X106883333Y-91002380D01*
X106835714Y-91026190D01*
X106573809Y-91026190D01*
X106835714Y-91026190D02*
X106883333Y-91050000D01*
X106907142Y-91097619D01*
X106907142Y-91169047D01*
X106883333Y-91216666D01*
X106835714Y-91240476D01*
X106573809Y-91240476D01*
X106573809Y-79845238D02*
X107073809Y-79845238D01*
X107073809Y-80035714D01*
X107050000Y-80083333D01*
X107026190Y-80107142D01*
X106978571Y-80130952D01*
X106907142Y-80130952D01*
X106859523Y-80107142D01*
X106835714Y-80083333D01*
X106811904Y-80035714D01*
X106811904Y-79845238D01*
X106573809Y-80416666D02*
X106597619Y-80369047D01*
X106621428Y-80345238D01*
X106669047Y-80321428D01*
X106811904Y-80321428D01*
X106859523Y-80345238D01*
X106883333Y-80369047D01*
X106907142Y-80416666D01*
X106907142Y-80488095D01*
X106883333Y-80535714D01*
X106859523Y-80559523D01*
X106811904Y-80583333D01*
X106669047Y-80583333D01*
X106621428Y-80559523D01*
X106597619Y-80535714D01*
X106573809Y-80488095D01*
X106573809Y-80416666D01*
X106907142Y-80750000D02*
X106573809Y-80845238D01*
X106811904Y-80940476D01*
X106573809Y-81035714D01*
X106907142Y-81130952D01*
X106597619Y-81511904D02*
X106573809Y-81464285D01*
X106573809Y-81369047D01*
X106597619Y-81321428D01*
X106645238Y-81297619D01*
X106835714Y-81297619D01*
X106883333Y-81321428D01*
X106907142Y-81369047D01*
X106907142Y-81464285D01*
X106883333Y-81511904D01*
X106835714Y-81535714D01*
X106788095Y-81535714D01*
X106740476Y-81297619D01*
X106573809Y-81750000D02*
X106907142Y-81750000D01*
X106811904Y-81750000D02*
X106859523Y-81773809D01*
X106883333Y-81797619D01*
X106907142Y-81845238D01*
X106907142Y-81892857D01*
X107073809Y-82535714D02*
X107073809Y-82630952D01*
X107050000Y-82678571D01*
X107002380Y-82726190D01*
X106907142Y-82750000D01*
X106740476Y-82750000D01*
X106645238Y-82726190D01*
X106597619Y-82678571D01*
X106573809Y-82630952D01*
X106573809Y-82535714D01*
X106597619Y-82488095D01*
X106645238Y-82440476D01*
X106740476Y-82416666D01*
X106907142Y-82416666D01*
X107002380Y-82440476D01*
X107050000Y-82488095D01*
X107073809Y-82535714D01*
X106573809Y-82964285D02*
X107073809Y-82964285D01*
X106573809Y-83250000D01*
X107073809Y-83250000D01*
X107097619Y-83845238D02*
X106454761Y-83416666D01*
X107073809Y-84107142D02*
X107073809Y-84202380D01*
X107050000Y-84250000D01*
X107002380Y-84297619D01*
X106907142Y-84321428D01*
X106740476Y-84321428D01*
X106645238Y-84297619D01*
X106597619Y-84250000D01*
X106573809Y-84202380D01*
X106573809Y-84107142D01*
X106597619Y-84059523D01*
X106645238Y-84011904D01*
X106740476Y-83988095D01*
X106907142Y-83988095D01*
X107002380Y-84011904D01*
X107050000Y-84059523D01*
X107073809Y-84107142D01*
X106835714Y-84702380D02*
X106835714Y-84535714D01*
X106573809Y-84535714D02*
X107073809Y-84535714D01*
X107073809Y-84773809D01*
X106835714Y-85130952D02*
X106835714Y-84964285D01*
X106573809Y-84964285D02*
X107073809Y-84964285D01*
X107073809Y-85202380D01*
X106907142Y-73816666D02*
X106573809Y-73816666D01*
X106859523Y-73816666D02*
X106883333Y-73840476D01*
X106907142Y-73888095D01*
X106907142Y-73959523D01*
X106883333Y-74007142D01*
X106835714Y-74030952D01*
X106573809Y-74030952D01*
X106621428Y-74554761D02*
X106597619Y-74530952D01*
X106573809Y-74459523D01*
X106573809Y-74411904D01*
X106597619Y-74340476D01*
X106645238Y-74292857D01*
X106692857Y-74269047D01*
X106788095Y-74245238D01*
X106859523Y-74245238D01*
X106954761Y-74269047D01*
X107002380Y-74292857D01*
X107050000Y-74340476D01*
X107073809Y-74411904D01*
X107073809Y-74459523D01*
X107050000Y-74530952D01*
X107026190Y-74554761D01*
X106835714Y-74769047D02*
X106835714Y-74935714D01*
X106573809Y-75007142D02*
X106573809Y-74769047D01*
X107073809Y-74769047D01*
X107073809Y-75007142D01*
X107173809Y-68188095D02*
X106673809Y-68354761D01*
X107173809Y-68521428D01*
X106673809Y-68688095D02*
X107007142Y-68688095D01*
X107173809Y-68688095D02*
X107150000Y-68664285D01*
X107126190Y-68688095D01*
X107150000Y-68711904D01*
X107173809Y-68688095D01*
X107126190Y-68688095D01*
X107007142Y-68926190D02*
X106673809Y-68926190D01*
X106959523Y-68926190D02*
X106983333Y-68950000D01*
X107007142Y-68997619D01*
X107007142Y-69069047D01*
X106983333Y-69116666D01*
X106935714Y-69140476D01*
X106673809Y-69140476D01*
D12*
X134200000Y-93000000D02*
X106200000Y-93000000D01*
X106200000Y-93000000D02*
X106200000Y-65000000D01*
X134200000Y-65000000D02*
X134200000Y-93000000D01*
X106200000Y-65000000D02*
X134200000Y-65000000D01*
D13*
X107441889Y-85208112D02*
G75*
G03X107441889Y-85208112I-50001J0D01*
G01*
X110241889Y-88191888D02*
G75*
G03X110241889Y-88191888I-50001J0D01*
G01*
X118050000Y-89340000D02*
G75*
G03X118050000Y-89340000I-50000J0D01*
G01*
X129490000Y-87000000D02*
G75*
G03X129490000Y-87000000I-50000J0D01*
G01*
X133250000Y-75240000D02*
G75*
G03X133250000Y-75240000I-50000J0D01*
G01*
X114041889Y-88408112D02*
G75*
G03X114041889Y-88408112I-50001J0D01*
G01*
X114050000Y-77660000D02*
G75*
G03X114050000Y-77660000I-50000J0D01*
G01*
D14*
X130854000Y-76400000D02*
X130854000Y-77654000D01*
X130854000Y-77654000D02*
X129146000Y-77654000D01*
X129146000Y-77654000D02*
X129146000Y-75946000D01*
X129146000Y-75946000D02*
X130400000Y-75946000D01*
X130400000Y-75946000D02*
X130854000Y-76400000D01*
D15*
X130954000Y-75946000D02*
G75*
G03X130954000Y-75946000I-100000J0D01*
G01*
D12*
X118580000Y-77440000D02*
X118580000Y-78900000D01*
X115420000Y-77440000D02*
X115420000Y-79600000D01*
X115420000Y-77440000D02*
X116350000Y-77440000D01*
X118580000Y-77440000D02*
X117650000Y-77440000D01*
X122180000Y-77440000D02*
X121250000Y-77440000D01*
X119020000Y-77440000D02*
X119950000Y-77440000D01*
X119020000Y-77440000D02*
X119020000Y-79600000D01*
X122180000Y-77440000D02*
X122180000Y-78900000D01*
X107420000Y-79060000D02*
X108350000Y-79060000D01*
X110580000Y-79060000D02*
X109650000Y-79060000D01*
X110580000Y-79060000D02*
X110580000Y-76900000D01*
X107420000Y-79060000D02*
X107420000Y-77600000D01*
X108115000Y-71010000D02*
X108115000Y-71860000D01*
X108115000Y-71860000D02*
X110440000Y-71860000D01*
X110440000Y-71860000D02*
X110440000Y-74250000D01*
X116285000Y-71010000D02*
X116285000Y-71860000D01*
X116285000Y-71860000D02*
X113960000Y-71860000D01*
X108115000Y-67490000D02*
X108115000Y-66640000D01*
X108115000Y-66640000D02*
X116285000Y-66640000D01*
X116285000Y-66640000D02*
X116285000Y-67490000D01*
X132285000Y-66640000D02*
X132285000Y-67490000D01*
X124115000Y-66640000D02*
X132285000Y-66640000D01*
X124115000Y-67490000D02*
X124115000Y-66640000D01*
X132285000Y-71860000D02*
X129960000Y-71860000D01*
X132285000Y-71010000D02*
X132285000Y-71860000D01*
X126440000Y-71860000D02*
X126440000Y-74250000D01*
X124115000Y-71860000D02*
X126440000Y-71860000D01*
X124115000Y-71010000D02*
X124115000Y-71860000D01*
X122600000Y-92360000D02*
X124550000Y-92360000D01*
X122600000Y-92360000D02*
X120650000Y-92360000D01*
X122600000Y-87240000D02*
X124550000Y-87240000D01*
X122600000Y-87240000D02*
X119150000Y-87240000D01*
D16*
X110044739Y-85604869D02*
X109649607Y-86000000D01*
X112200000Y-83449607D02*
X111804869Y-83844739D01*
X114750393Y-86000000D02*
X114355261Y-85604869D01*
X112200000Y-88550393D02*
X112595131Y-88155261D01*
X109649607Y-86000000D02*
X110044739Y-86395131D01*
X112595131Y-83844739D02*
X112200000Y-83449607D01*
X111804869Y-88155261D02*
X112200000Y-88550393D01*
X114355261Y-86395131D02*
X114750393Y-86000000D01*
M02*
