G04 #@! TF.GenerationSoftware,KiCad,Pcbnew,(5.1.5)-3*
G04 #@! TF.CreationDate,2020-05-04T17:56:07+05:30*
G04 #@! TF.ProjectId,Battery_Charger,42617474-6572-4795-9f43-686172676572,rev?*
G04 #@! TF.SameCoordinates,Original*
G04 #@! TF.FileFunction,Soldermask,Bot*
G04 #@! TF.FilePolarity,Negative*
%FSLAX46Y46*%
G04 Gerber Fmt 4.6, Leading zero omitted, Abs format (unit mm)*
G04 Created by KiCad (PCBNEW (5.1.5)-3) date 2020-05-04 17:56:07*
%MOMM*%
%LPD*%
G04 APERTURE LIST*
%ADD10C,0.100000*%
G04 APERTURE END LIST*
D10*
G36*
X137299050Y-87088753D02*
G01*
X137300000Y-87088753D01*
X137300385Y-87088754D01*
X137300784Y-87088757D01*
X137300783Y-87088931D01*
X137300823Y-87088935D01*
X137300824Y-87088757D01*
X137301223Y-87088760D01*
X137303244Y-87088881D01*
X137305992Y-87088610D01*
X137309253Y-87088805D01*
X137309643Y-87088817D01*
X137311519Y-87089027D01*
X137312012Y-87089080D01*
X137318125Y-87090376D01*
X137318134Y-87090377D01*
X137322362Y-87091273D01*
X137322665Y-87091337D01*
X137325583Y-87091937D01*
X137333276Y-87093519D01*
X137338975Y-87095954D01*
X137339034Y-87095973D01*
X137343182Y-87097745D01*
X137347706Y-87099652D01*
X137347752Y-87099677D01*
X137353529Y-87102112D01*
X137353650Y-87102178D01*
X137362346Y-87108140D01*
X137363165Y-87108697D01*
X137371251Y-87114148D01*
X137371468Y-87114329D01*
X137378317Y-87121320D01*
X137378928Y-87121939D01*
X137386614Y-87129676D01*
X137386859Y-87129979D01*
X137392416Y-87138480D01*
X137392965Y-87139312D01*
X137398579Y-87147753D01*
X137398663Y-87147913D01*
X137401012Y-87153715D01*
X137401018Y-87153727D01*
X137402782Y-87158087D01*
X137404552Y-87162388D01*
X137404559Y-87162412D01*
X137406875Y-87168041D01*
X137408029Y-87174051D01*
X137408063Y-87174165D01*
X137408936Y-87178712D01*
X137409871Y-87183464D01*
X137409879Y-87183551D01*
X137411092Y-87189713D01*
X137411113Y-87189937D01*
X137411306Y-87191904D01*
X137411852Y-87203051D01*
X137411852Y-89198197D01*
X137411158Y-89209870D01*
X137411055Y-89210787D01*
X137410914Y-89212130D01*
X137408911Y-89221547D01*
X137408555Y-89223282D01*
X137406718Y-89232561D01*
X137406476Y-89233342D01*
X137402648Y-89242279D01*
X137401995Y-89243832D01*
X137398307Y-89252771D01*
X137397977Y-89253382D01*
X137392660Y-89261150D01*
X137391704Y-89262567D01*
X137386230Y-89270804D01*
X137385720Y-89271420D01*
X137378824Y-89278175D01*
X137377616Y-89279375D01*
X137370812Y-89286224D01*
X137370024Y-89286866D01*
X137361604Y-89292367D01*
X137360052Y-89293398D01*
X137352804Y-89298289D01*
X137352018Y-89298706D01*
X137343137Y-89302296D01*
X137341544Y-89302952D01*
X137332637Y-89306696D01*
X137331836Y-89306937D01*
X137322370Y-89308743D01*
X137320664Y-89309080D01*
X137311297Y-89311002D01*
X137310008Y-89311128D01*
X137308869Y-89311248D01*
X137294664Y-89312042D01*
X137294669Y-89312131D01*
X137286159Y-89312637D01*
X137127631Y-89330418D01*
X137103767Y-89335490D01*
X136962017Y-89380457D01*
X136939595Y-89390067D01*
X136809273Y-89461712D01*
X136789144Y-89475495D01*
X136675211Y-89571096D01*
X136658143Y-89588526D01*
X136564957Y-89704426D01*
X136551598Y-89724840D01*
X136482700Y-89856631D01*
X136473562Y-89879250D01*
X136431571Y-90021923D01*
X136426999Y-90045886D01*
X136413520Y-90193991D01*
X136413691Y-90218386D01*
X136429236Y-90366287D01*
X136434141Y-90390184D01*
X136478120Y-90532258D01*
X136487574Y-90554748D01*
X136536171Y-90644626D01*
X136558307Y-90685565D01*
X136571948Y-90705789D01*
X136655631Y-90806945D01*
X136655634Y-90806949D01*
X136666750Y-90820385D01*
X136684059Y-90837572D01*
X136799306Y-90931564D01*
X136819624Y-90945063D01*
X136950937Y-91014884D01*
X136973492Y-91024181D01*
X137115859Y-91067164D01*
X137139790Y-91071902D01*
X137309166Y-91088510D01*
X137317046Y-91089760D01*
X137320896Y-91090967D01*
X137326620Y-91092141D01*
X137328039Y-91092289D01*
X137329398Y-91092867D01*
X137334975Y-91094636D01*
X137337837Y-91095243D01*
X137339171Y-91095734D01*
X137341677Y-91097102D01*
X137347048Y-91099360D01*
X137348431Y-91099788D01*
X137349658Y-91100622D01*
X137354804Y-91103451D01*
X137357440Y-91104579D01*
X137358661Y-91105324D01*
X137360889Y-91107180D01*
X137365722Y-91110437D01*
X137366998Y-91111125D01*
X137368023Y-91112167D01*
X137372515Y-91115936D01*
X137374933Y-91117590D01*
X137375902Y-91118481D01*
X137377699Y-91120704D01*
X137381811Y-91124846D01*
X137382956Y-91125793D01*
X137383792Y-91127061D01*
X137387423Y-91131578D01*
X137389483Y-91133680D01*
X137390324Y-91134830D01*
X137391664Y-91137370D01*
X137394895Y-91142231D01*
X137395791Y-91143328D01*
X137396343Y-91144682D01*
X137399059Y-91149877D01*
X137400663Y-91152326D01*
X137401252Y-91153588D01*
X137402067Y-91156327D01*
X137404301Y-91161747D01*
X137404976Y-91163015D01*
X137405255Y-91164453D01*
X137406909Y-91170075D01*
X137408008Y-91172793D01*
X137408342Y-91174152D01*
X137408608Y-91176986D01*
X137409746Y-91182734D01*
X137410160Y-91184102D01*
X137410154Y-91185564D01*
X137410685Y-91191401D01*
X137411486Y-91195593D01*
X137411852Y-91203064D01*
X137411852Y-93193151D01*
X137411247Y-93199050D01*
X137411247Y-93200000D01*
X137411246Y-93200385D01*
X137411243Y-93200784D01*
X137411069Y-93200783D01*
X137411065Y-93200823D01*
X137411243Y-93200824D01*
X137411240Y-93201223D01*
X137411119Y-93203244D01*
X137411390Y-93205992D01*
X137411195Y-93209253D01*
X137411183Y-93209643D01*
X137410973Y-93211519D01*
X137410920Y-93212012D01*
X137409624Y-93218125D01*
X137409623Y-93218134D01*
X137408727Y-93222362D01*
X137408648Y-93222738D01*
X137406481Y-93233276D01*
X137404046Y-93238975D01*
X137404027Y-93239034D01*
X137402255Y-93243182D01*
X137400348Y-93247706D01*
X137400323Y-93247752D01*
X137397888Y-93253529D01*
X137397822Y-93253650D01*
X137391860Y-93262346D01*
X137391303Y-93263165D01*
X137385852Y-93271251D01*
X137385671Y-93271468D01*
X137378680Y-93278317D01*
X137378061Y-93278928D01*
X137370324Y-93286614D01*
X137370022Y-93286858D01*
X137361614Y-93292354D01*
X137360781Y-93292903D01*
X137352249Y-93298577D01*
X137352082Y-93298665D01*
X137346285Y-93301012D01*
X137346273Y-93301018D01*
X137341913Y-93302782D01*
X137337612Y-93304552D01*
X137337588Y-93304559D01*
X137331959Y-93306875D01*
X137325949Y-93308029D01*
X137325835Y-93308063D01*
X137321288Y-93308936D01*
X137316536Y-93309871D01*
X137316449Y-93309879D01*
X137310287Y-93311092D01*
X137310063Y-93311113D01*
X137308096Y-93311306D01*
X137296949Y-93311852D01*
X135306849Y-93311852D01*
X135300950Y-93311247D01*
X135300000Y-93311247D01*
X135299615Y-93311246D01*
X135299216Y-93311243D01*
X135299217Y-93311069D01*
X135299177Y-93311065D01*
X135299176Y-93311243D01*
X135298777Y-93311240D01*
X135296756Y-93311119D01*
X135294008Y-93311390D01*
X135290747Y-93311195D01*
X135290357Y-93311183D01*
X135288481Y-93310973D01*
X135287988Y-93310920D01*
X135281875Y-93309624D01*
X135281866Y-93309623D01*
X135277638Y-93308727D01*
X135277335Y-93308663D01*
X135273712Y-93307918D01*
X135266724Y-93306481D01*
X135261025Y-93304046D01*
X135260966Y-93304027D01*
X135256818Y-93302255D01*
X135252294Y-93300348D01*
X135252248Y-93300323D01*
X135246471Y-93297888D01*
X135246350Y-93297822D01*
X135237654Y-93291860D01*
X135236835Y-93291303D01*
X135228749Y-93285852D01*
X135228532Y-93285671D01*
X135221683Y-93278680D01*
X135221072Y-93278061D01*
X135213386Y-93270324D01*
X135213142Y-93270022D01*
X135207646Y-93261614D01*
X135207097Y-93260781D01*
X135201423Y-93252249D01*
X135201335Y-93252082D01*
X135198988Y-93246285D01*
X135198982Y-93246273D01*
X135197218Y-93241913D01*
X135195448Y-93237612D01*
X135195441Y-93237588D01*
X135193125Y-93231959D01*
X135191971Y-93225949D01*
X135191937Y-93225835D01*
X135191064Y-93221288D01*
X135190129Y-93216536D01*
X135190121Y-93216449D01*
X135188908Y-93210287D01*
X135188887Y-93210063D01*
X135188694Y-93208096D01*
X135188148Y-93196949D01*
X135188148Y-87206849D01*
X135188753Y-87200950D01*
X135188753Y-87200000D01*
X135188754Y-87199615D01*
X135188757Y-87199216D01*
X135188931Y-87199217D01*
X135188935Y-87199177D01*
X135188757Y-87199176D01*
X135188760Y-87198777D01*
X135188881Y-87196756D01*
X135188610Y-87194008D01*
X135188805Y-87190747D01*
X135188817Y-87190357D01*
X135189027Y-87188481D01*
X135189080Y-87187988D01*
X135190376Y-87181875D01*
X135190377Y-87181866D01*
X135191311Y-87177460D01*
X135192281Y-87172745D01*
X135193519Y-87166724D01*
X135195954Y-87161025D01*
X135195973Y-87160966D01*
X135197745Y-87156818D01*
X135199652Y-87152294D01*
X135199677Y-87152248D01*
X135202112Y-87146471D01*
X135202178Y-87146350D01*
X135208140Y-87137654D01*
X135208697Y-87136835D01*
X135214148Y-87128749D01*
X135214329Y-87128532D01*
X135221320Y-87121683D01*
X135221939Y-87121072D01*
X135229676Y-87113386D01*
X135229978Y-87113142D01*
X135238386Y-87107646D01*
X135239219Y-87107097D01*
X135247751Y-87101423D01*
X135247918Y-87101335D01*
X135253715Y-87098988D01*
X135253727Y-87098982D01*
X135258087Y-87097218D01*
X135262388Y-87095448D01*
X135262412Y-87095441D01*
X135268041Y-87093125D01*
X135274051Y-87091971D01*
X135274165Y-87091937D01*
X135278712Y-87091064D01*
X135283464Y-87090129D01*
X135283551Y-87090121D01*
X135289713Y-87088908D01*
X135289937Y-87088887D01*
X135291904Y-87088694D01*
X135303051Y-87088148D01*
X137293151Y-87088148D01*
X137299050Y-87088753D01*
G37*
G36*
X104999050Y-87088753D02*
G01*
X105000000Y-87088753D01*
X105000385Y-87088754D01*
X105000784Y-87088757D01*
X105000783Y-87088931D01*
X105000823Y-87088935D01*
X105000824Y-87088757D01*
X105001223Y-87088760D01*
X105003244Y-87088881D01*
X105005992Y-87088610D01*
X105009253Y-87088805D01*
X105009643Y-87088817D01*
X105011519Y-87089027D01*
X105012012Y-87089080D01*
X105018125Y-87090376D01*
X105018134Y-87090377D01*
X105022362Y-87091273D01*
X105022665Y-87091337D01*
X105025583Y-87091937D01*
X105033276Y-87093519D01*
X105038975Y-87095954D01*
X105039034Y-87095973D01*
X105043182Y-87097745D01*
X105047706Y-87099652D01*
X105047752Y-87099677D01*
X105053529Y-87102112D01*
X105053650Y-87102178D01*
X105062346Y-87108140D01*
X105063165Y-87108697D01*
X105071251Y-87114148D01*
X105071468Y-87114329D01*
X105078317Y-87121320D01*
X105078928Y-87121939D01*
X105086614Y-87129676D01*
X105086858Y-87129978D01*
X105092354Y-87138386D01*
X105092903Y-87139219D01*
X105098577Y-87147751D01*
X105098665Y-87147918D01*
X105101012Y-87153715D01*
X105101018Y-87153727D01*
X105102782Y-87158087D01*
X105104552Y-87162388D01*
X105104559Y-87162412D01*
X105106875Y-87168041D01*
X105108029Y-87174051D01*
X105108063Y-87174165D01*
X105108936Y-87178712D01*
X105109871Y-87183464D01*
X105109879Y-87183551D01*
X105111092Y-87189713D01*
X105111113Y-87189937D01*
X105111306Y-87191904D01*
X105111852Y-87203051D01*
X105111852Y-93193151D01*
X105111247Y-93199050D01*
X105111247Y-93200000D01*
X105111246Y-93200385D01*
X105111243Y-93200784D01*
X105111069Y-93200783D01*
X105111065Y-93200823D01*
X105111243Y-93200824D01*
X105111240Y-93201223D01*
X105111119Y-93203244D01*
X105111390Y-93205992D01*
X105111195Y-93209253D01*
X105111183Y-93209643D01*
X105110973Y-93211519D01*
X105110920Y-93212012D01*
X105109624Y-93218125D01*
X105109623Y-93218134D01*
X105108727Y-93222362D01*
X105108648Y-93222738D01*
X105106481Y-93233276D01*
X105104046Y-93238975D01*
X105104027Y-93239034D01*
X105102255Y-93243182D01*
X105100348Y-93247706D01*
X105100323Y-93247752D01*
X105097888Y-93253529D01*
X105097822Y-93253650D01*
X105091860Y-93262346D01*
X105091303Y-93263165D01*
X105085852Y-93271251D01*
X105085671Y-93271468D01*
X105078680Y-93278317D01*
X105078061Y-93278928D01*
X105070324Y-93286614D01*
X105070022Y-93286858D01*
X105061614Y-93292354D01*
X105060781Y-93292903D01*
X105052249Y-93298577D01*
X105052082Y-93298665D01*
X105046285Y-93301012D01*
X105046273Y-93301018D01*
X105041913Y-93302782D01*
X105037612Y-93304552D01*
X105037588Y-93304559D01*
X105031959Y-93306875D01*
X105025949Y-93308029D01*
X105025835Y-93308063D01*
X105021288Y-93308936D01*
X105016536Y-93309871D01*
X105016449Y-93309879D01*
X105010287Y-93311092D01*
X105010063Y-93311113D01*
X105008096Y-93311306D01*
X104996949Y-93311852D01*
X103006849Y-93311852D01*
X103000950Y-93311247D01*
X103000000Y-93311247D01*
X102999615Y-93311246D01*
X102999216Y-93311243D01*
X102999217Y-93311069D01*
X102999177Y-93311065D01*
X102999176Y-93311243D01*
X102998777Y-93311240D01*
X102996756Y-93311119D01*
X102994008Y-93311390D01*
X102990747Y-93311195D01*
X102990357Y-93311183D01*
X102988481Y-93310973D01*
X102987988Y-93310920D01*
X102981875Y-93309624D01*
X102981866Y-93309623D01*
X102977638Y-93308727D01*
X102977335Y-93308663D01*
X102973712Y-93307918D01*
X102966724Y-93306481D01*
X102961025Y-93304046D01*
X102960966Y-93304027D01*
X102956818Y-93302255D01*
X102952294Y-93300348D01*
X102952248Y-93300323D01*
X102946471Y-93297888D01*
X102946350Y-93297822D01*
X102937654Y-93291860D01*
X102936835Y-93291303D01*
X102928749Y-93285852D01*
X102928532Y-93285671D01*
X102921683Y-93278680D01*
X102921072Y-93278061D01*
X102913386Y-93270324D01*
X102913141Y-93270021D01*
X102907584Y-93261520D01*
X102907035Y-93260688D01*
X102901421Y-93252247D01*
X102901337Y-93252087D01*
X102898988Y-93246285D01*
X102898982Y-93246273D01*
X102897218Y-93241913D01*
X102895448Y-93237612D01*
X102895441Y-93237588D01*
X102893125Y-93231959D01*
X102891971Y-93225949D01*
X102891937Y-93225835D01*
X102891064Y-93221288D01*
X102890129Y-93216536D01*
X102890121Y-93216449D01*
X102888908Y-93210287D01*
X102888887Y-93210063D01*
X102888694Y-93208096D01*
X102888148Y-93196949D01*
X102888148Y-91201803D01*
X102888842Y-91190130D01*
X102888945Y-91189213D01*
X102889086Y-91187870D01*
X102891089Y-91178453D01*
X102891445Y-91176718D01*
X102893282Y-91167439D01*
X102893524Y-91166658D01*
X102897352Y-91157721D01*
X102898005Y-91156168D01*
X102901693Y-91147229D01*
X102902023Y-91146618D01*
X102907340Y-91138850D01*
X102908296Y-91137433D01*
X102913770Y-91129196D01*
X102914280Y-91128580D01*
X102921176Y-91121825D01*
X102922384Y-91120625D01*
X102929188Y-91113776D01*
X102929976Y-91113134D01*
X102938396Y-91107633D01*
X102939948Y-91106602D01*
X102947196Y-91101711D01*
X102947982Y-91101294D01*
X102956863Y-91097704D01*
X102958456Y-91097048D01*
X102967363Y-91093304D01*
X102968164Y-91093063D01*
X102977630Y-91091257D01*
X102979336Y-91090920D01*
X102988703Y-91088998D01*
X102989992Y-91088872D01*
X102991131Y-91088752D01*
X103005336Y-91087958D01*
X103005331Y-91087869D01*
X103013841Y-91087363D01*
X103172369Y-91069582D01*
X103196233Y-91064510D01*
X103337983Y-91019543D01*
X103360405Y-91009933D01*
X103490727Y-90938288D01*
X103510856Y-90924505D01*
X103624789Y-90828904D01*
X103641857Y-90811474D01*
X103735043Y-90695574D01*
X103748402Y-90675160D01*
X103817300Y-90543369D01*
X103826438Y-90520750D01*
X103868429Y-90378077D01*
X103873001Y-90354114D01*
X103886480Y-90206009D01*
X103886309Y-90181614D01*
X103870764Y-90033713D01*
X103865859Y-90009816D01*
X103821880Y-89867742D01*
X103812426Y-89845252D01*
X103763828Y-89755372D01*
X103741693Y-89714435D01*
X103728052Y-89694211D01*
X103644366Y-89593051D01*
X103644362Y-89593046D01*
X103633249Y-89579614D01*
X103615941Y-89562428D01*
X103500694Y-89468436D01*
X103480376Y-89454937D01*
X103349063Y-89385116D01*
X103326508Y-89375819D01*
X103184141Y-89332836D01*
X103160210Y-89328098D01*
X102990834Y-89311490D01*
X102982954Y-89310240D01*
X102979104Y-89309033D01*
X102973380Y-89307859D01*
X102971961Y-89307711D01*
X102970602Y-89307133D01*
X102965025Y-89305364D01*
X102962163Y-89304757D01*
X102960829Y-89304266D01*
X102958323Y-89302898D01*
X102952952Y-89300640D01*
X102951569Y-89300212D01*
X102950342Y-89299378D01*
X102945196Y-89296549D01*
X102942560Y-89295421D01*
X102941339Y-89294676D01*
X102939111Y-89292820D01*
X102934278Y-89289563D01*
X102933002Y-89288875D01*
X102931977Y-89287833D01*
X102927485Y-89284064D01*
X102925067Y-89282410D01*
X102924098Y-89281519D01*
X102922301Y-89279296D01*
X102918189Y-89275154D01*
X102917044Y-89274207D01*
X102916208Y-89272939D01*
X102912577Y-89268422D01*
X102910517Y-89266320D01*
X102909676Y-89265170D01*
X102908336Y-89262630D01*
X102905105Y-89257769D01*
X102904209Y-89256672D01*
X102903657Y-89255318D01*
X102900941Y-89250123D01*
X102899337Y-89247674D01*
X102898748Y-89246412D01*
X102897933Y-89243673D01*
X102895699Y-89238253D01*
X102895024Y-89236985D01*
X102894745Y-89235547D01*
X102893091Y-89229925D01*
X102891992Y-89227207D01*
X102891658Y-89225848D01*
X102891392Y-89223014D01*
X102890254Y-89217266D01*
X102889840Y-89215898D01*
X102889846Y-89214436D01*
X102889315Y-89208599D01*
X102888514Y-89204407D01*
X102888148Y-89196936D01*
X102888148Y-87206849D01*
X102888753Y-87200950D01*
X102888753Y-87200000D01*
X102888754Y-87199615D01*
X102888757Y-87199216D01*
X102888931Y-87199217D01*
X102888935Y-87199177D01*
X102888757Y-87199176D01*
X102888760Y-87198777D01*
X102888881Y-87196756D01*
X102888610Y-87194008D01*
X102888805Y-87190747D01*
X102888817Y-87190357D01*
X102889027Y-87188481D01*
X102889080Y-87187988D01*
X102890376Y-87181875D01*
X102890377Y-87181866D01*
X102891311Y-87177460D01*
X102892281Y-87172745D01*
X102893519Y-87166724D01*
X102895954Y-87161025D01*
X102895973Y-87160966D01*
X102897745Y-87156818D01*
X102899652Y-87152294D01*
X102899677Y-87152248D01*
X102902112Y-87146471D01*
X102902178Y-87146350D01*
X102908140Y-87137654D01*
X102908697Y-87136835D01*
X102914148Y-87128749D01*
X102914329Y-87128532D01*
X102921320Y-87121683D01*
X102921939Y-87121072D01*
X102929676Y-87113386D01*
X102929978Y-87113142D01*
X102938386Y-87107646D01*
X102939219Y-87107097D01*
X102947751Y-87101423D01*
X102947918Y-87101335D01*
X102953715Y-87098988D01*
X102953727Y-87098982D01*
X102958087Y-87097218D01*
X102962388Y-87095448D01*
X102962412Y-87095441D01*
X102968041Y-87093125D01*
X102974051Y-87091971D01*
X102974165Y-87091937D01*
X102978712Y-87091064D01*
X102983464Y-87090129D01*
X102983551Y-87090121D01*
X102989713Y-87088908D01*
X102989937Y-87088887D01*
X102991904Y-87088694D01*
X103003051Y-87088148D01*
X104993151Y-87088148D01*
X104999050Y-87088753D01*
G37*
G36*
X137399050Y-79688753D02*
G01*
X137400000Y-79688753D01*
X137400385Y-79688754D01*
X137400784Y-79688757D01*
X137400783Y-79688931D01*
X137400823Y-79688935D01*
X137400824Y-79688757D01*
X137401223Y-79688760D01*
X137403244Y-79688881D01*
X137405992Y-79688610D01*
X137409253Y-79688805D01*
X137409643Y-79688817D01*
X137411519Y-79689027D01*
X137412012Y-79689080D01*
X137418125Y-79690376D01*
X137418134Y-79690377D01*
X137422362Y-79691273D01*
X137422665Y-79691337D01*
X137425583Y-79691937D01*
X137433276Y-79693519D01*
X137438975Y-79695954D01*
X137439034Y-79695973D01*
X137443182Y-79697745D01*
X137447706Y-79699652D01*
X137447752Y-79699677D01*
X137453529Y-79702112D01*
X137453650Y-79702178D01*
X137462346Y-79708140D01*
X137463165Y-79708697D01*
X137471251Y-79714148D01*
X137471468Y-79714329D01*
X137478317Y-79721320D01*
X137478928Y-79721939D01*
X137486614Y-79729676D01*
X137486859Y-79729979D01*
X137492416Y-79738480D01*
X137492965Y-79739312D01*
X137498579Y-79747753D01*
X137498663Y-79747913D01*
X137501012Y-79753715D01*
X137501018Y-79753727D01*
X137502782Y-79758087D01*
X137504552Y-79762388D01*
X137504559Y-79762412D01*
X137506875Y-79768041D01*
X137508029Y-79774051D01*
X137508063Y-79774165D01*
X137508936Y-79778712D01*
X137509871Y-79783464D01*
X137509879Y-79783551D01*
X137511092Y-79789713D01*
X137511113Y-79789937D01*
X137511306Y-79791904D01*
X137511852Y-79803051D01*
X137511852Y-81798197D01*
X137511158Y-81809870D01*
X137511055Y-81810787D01*
X137510914Y-81812130D01*
X137508911Y-81821547D01*
X137508555Y-81823282D01*
X137506718Y-81832561D01*
X137506476Y-81833342D01*
X137502648Y-81842279D01*
X137501995Y-81843832D01*
X137498307Y-81852771D01*
X137497977Y-81853382D01*
X137492660Y-81861150D01*
X137491704Y-81862567D01*
X137486230Y-81870804D01*
X137485720Y-81871420D01*
X137478824Y-81878175D01*
X137477616Y-81879375D01*
X137470812Y-81886224D01*
X137470024Y-81886866D01*
X137461604Y-81892367D01*
X137460052Y-81893398D01*
X137452804Y-81898289D01*
X137452018Y-81898706D01*
X137443137Y-81902296D01*
X137441544Y-81902952D01*
X137432637Y-81906696D01*
X137431836Y-81906937D01*
X137422370Y-81908743D01*
X137420664Y-81909080D01*
X137411297Y-81911002D01*
X137410008Y-81911128D01*
X137408869Y-81911248D01*
X137394664Y-81912042D01*
X137394669Y-81912131D01*
X137386159Y-81912637D01*
X137227631Y-81930418D01*
X137203767Y-81935490D01*
X137062017Y-81980457D01*
X137039595Y-81990067D01*
X136909273Y-82061712D01*
X136889144Y-82075495D01*
X136775211Y-82171096D01*
X136758143Y-82188526D01*
X136664957Y-82304426D01*
X136651598Y-82324840D01*
X136582700Y-82456631D01*
X136573562Y-82479250D01*
X136531571Y-82621923D01*
X136526999Y-82645886D01*
X136513520Y-82793991D01*
X136513691Y-82818386D01*
X136529236Y-82966287D01*
X136534141Y-82990184D01*
X136578120Y-83132258D01*
X136587574Y-83154748D01*
X136636171Y-83244626D01*
X136658307Y-83285565D01*
X136671948Y-83305789D01*
X136755631Y-83406945D01*
X136755634Y-83406949D01*
X136766750Y-83420385D01*
X136784059Y-83437572D01*
X136899306Y-83531564D01*
X136919624Y-83545063D01*
X137050937Y-83614884D01*
X137073492Y-83624181D01*
X137215859Y-83667164D01*
X137239790Y-83671902D01*
X137409166Y-83688510D01*
X137417046Y-83689760D01*
X137420896Y-83690967D01*
X137426620Y-83692141D01*
X137428039Y-83692289D01*
X137429398Y-83692867D01*
X137434975Y-83694636D01*
X137437837Y-83695243D01*
X137439171Y-83695734D01*
X137441677Y-83697102D01*
X137447048Y-83699360D01*
X137448431Y-83699788D01*
X137449658Y-83700622D01*
X137454804Y-83703451D01*
X137457440Y-83704579D01*
X137458661Y-83705324D01*
X137460889Y-83707180D01*
X137465722Y-83710437D01*
X137466998Y-83711125D01*
X137468023Y-83712167D01*
X137472515Y-83715936D01*
X137474933Y-83717590D01*
X137475902Y-83718481D01*
X137477699Y-83720704D01*
X137481811Y-83724846D01*
X137482956Y-83725793D01*
X137483792Y-83727061D01*
X137487423Y-83731578D01*
X137489483Y-83733680D01*
X137490324Y-83734830D01*
X137491664Y-83737370D01*
X137494895Y-83742231D01*
X137495791Y-83743328D01*
X137496343Y-83744682D01*
X137499059Y-83749877D01*
X137500663Y-83752326D01*
X137501252Y-83753588D01*
X137502067Y-83756327D01*
X137504301Y-83761747D01*
X137504976Y-83763015D01*
X137505255Y-83764453D01*
X137506909Y-83770075D01*
X137508008Y-83772793D01*
X137508342Y-83774152D01*
X137508608Y-83776986D01*
X137509746Y-83782734D01*
X137510160Y-83784102D01*
X137510154Y-83785564D01*
X137510685Y-83791401D01*
X137511486Y-83795593D01*
X137511852Y-83803064D01*
X137511852Y-85793151D01*
X137511247Y-85799050D01*
X137511247Y-85800000D01*
X137511246Y-85800385D01*
X137511243Y-85800784D01*
X137511069Y-85800783D01*
X137511065Y-85800823D01*
X137511243Y-85800824D01*
X137511240Y-85801223D01*
X137511119Y-85803244D01*
X137511390Y-85805992D01*
X137511195Y-85809253D01*
X137511183Y-85809643D01*
X137510973Y-85811519D01*
X137510920Y-85812012D01*
X137509624Y-85818125D01*
X137509623Y-85818134D01*
X137508727Y-85822362D01*
X137508648Y-85822738D01*
X137506481Y-85833276D01*
X137504046Y-85838975D01*
X137504027Y-85839034D01*
X137502255Y-85843182D01*
X137500348Y-85847706D01*
X137500323Y-85847752D01*
X137497888Y-85853529D01*
X137497822Y-85853650D01*
X137491860Y-85862346D01*
X137491303Y-85863165D01*
X137485852Y-85871251D01*
X137485671Y-85871468D01*
X137478680Y-85878317D01*
X137478061Y-85878928D01*
X137470324Y-85886614D01*
X137470022Y-85886858D01*
X137461614Y-85892354D01*
X137460781Y-85892903D01*
X137452249Y-85898577D01*
X137452082Y-85898665D01*
X137446285Y-85901012D01*
X137446273Y-85901018D01*
X137441913Y-85902782D01*
X137437612Y-85904552D01*
X137437588Y-85904559D01*
X137431959Y-85906875D01*
X137425949Y-85908029D01*
X137425835Y-85908063D01*
X137421288Y-85908936D01*
X137416536Y-85909871D01*
X137416449Y-85909879D01*
X137410287Y-85911092D01*
X137410063Y-85911113D01*
X137408096Y-85911306D01*
X137396949Y-85911852D01*
X135406849Y-85911852D01*
X135400950Y-85911247D01*
X135400000Y-85911247D01*
X135399615Y-85911246D01*
X135399216Y-85911243D01*
X135399217Y-85911069D01*
X135399177Y-85911065D01*
X135399176Y-85911243D01*
X135398777Y-85911240D01*
X135396756Y-85911119D01*
X135394008Y-85911390D01*
X135390747Y-85911195D01*
X135390357Y-85911183D01*
X135388481Y-85910973D01*
X135387988Y-85910920D01*
X135381875Y-85909624D01*
X135381866Y-85909623D01*
X135377638Y-85908727D01*
X135377335Y-85908663D01*
X135373712Y-85907918D01*
X135366724Y-85906481D01*
X135361025Y-85904046D01*
X135360966Y-85904027D01*
X135356818Y-85902255D01*
X135352294Y-85900348D01*
X135352248Y-85900323D01*
X135346471Y-85897888D01*
X135346350Y-85897822D01*
X135337654Y-85891860D01*
X135336835Y-85891303D01*
X135328749Y-85885852D01*
X135328532Y-85885671D01*
X135321683Y-85878680D01*
X135321072Y-85878061D01*
X135313386Y-85870324D01*
X135313142Y-85870022D01*
X135307646Y-85861614D01*
X135307097Y-85860781D01*
X135301423Y-85852249D01*
X135301335Y-85852082D01*
X135298988Y-85846285D01*
X135298982Y-85846273D01*
X135297218Y-85841913D01*
X135295448Y-85837612D01*
X135295441Y-85837588D01*
X135293125Y-85831959D01*
X135291971Y-85825949D01*
X135291937Y-85825835D01*
X135291064Y-85821288D01*
X135290129Y-85816536D01*
X135290121Y-85816449D01*
X135288908Y-85810287D01*
X135288887Y-85810063D01*
X135288694Y-85808096D01*
X135288148Y-85796949D01*
X135288148Y-79806849D01*
X135288753Y-79800950D01*
X135288753Y-79800000D01*
X135288754Y-79799615D01*
X135288757Y-79799216D01*
X135288931Y-79799217D01*
X135288935Y-79799177D01*
X135288757Y-79799176D01*
X135288760Y-79798777D01*
X135288881Y-79796756D01*
X135288610Y-79794008D01*
X135288805Y-79790747D01*
X135288817Y-79790357D01*
X135289027Y-79788481D01*
X135289080Y-79787988D01*
X135290376Y-79781875D01*
X135290377Y-79781866D01*
X135291311Y-79777460D01*
X135292281Y-79772745D01*
X135293519Y-79766724D01*
X135295954Y-79761025D01*
X135295973Y-79760966D01*
X135297745Y-79756818D01*
X135299652Y-79752294D01*
X135299677Y-79752248D01*
X135302112Y-79746471D01*
X135302178Y-79746350D01*
X135308140Y-79737654D01*
X135308697Y-79736835D01*
X135314148Y-79728749D01*
X135314329Y-79728532D01*
X135321320Y-79721683D01*
X135321939Y-79721072D01*
X135329676Y-79713386D01*
X135329978Y-79713142D01*
X135338386Y-79707646D01*
X135339219Y-79707097D01*
X135347751Y-79701423D01*
X135347918Y-79701335D01*
X135353715Y-79698988D01*
X135353727Y-79698982D01*
X135358087Y-79697218D01*
X135362388Y-79695448D01*
X135362412Y-79695441D01*
X135368041Y-79693125D01*
X135374051Y-79691971D01*
X135374165Y-79691937D01*
X135378712Y-79691064D01*
X135383464Y-79690129D01*
X135383551Y-79690121D01*
X135389713Y-79688908D01*
X135389937Y-79688887D01*
X135391904Y-79688694D01*
X135403051Y-79688148D01*
X137393151Y-79688148D01*
X137399050Y-79688753D01*
G37*
G36*
X105099050Y-79488753D02*
G01*
X105100000Y-79488753D01*
X105100385Y-79488754D01*
X105100784Y-79488757D01*
X105100783Y-79488931D01*
X105100823Y-79488935D01*
X105100824Y-79488757D01*
X105101223Y-79488760D01*
X105103244Y-79488881D01*
X105105992Y-79488610D01*
X105109253Y-79488805D01*
X105109643Y-79488817D01*
X105111519Y-79489027D01*
X105112012Y-79489080D01*
X105118125Y-79490376D01*
X105118134Y-79490377D01*
X105122362Y-79491273D01*
X105122665Y-79491337D01*
X105125583Y-79491937D01*
X105133276Y-79493519D01*
X105138975Y-79495954D01*
X105139034Y-79495973D01*
X105143182Y-79497745D01*
X105147706Y-79499652D01*
X105147752Y-79499677D01*
X105153529Y-79502112D01*
X105153650Y-79502178D01*
X105162346Y-79508140D01*
X105163165Y-79508697D01*
X105171251Y-79514148D01*
X105171468Y-79514329D01*
X105178317Y-79521320D01*
X105178928Y-79521939D01*
X105186614Y-79529676D01*
X105186858Y-79529978D01*
X105192354Y-79538386D01*
X105192903Y-79539219D01*
X105198577Y-79547751D01*
X105198665Y-79547918D01*
X105201012Y-79553715D01*
X105201018Y-79553727D01*
X105202782Y-79558087D01*
X105204552Y-79562388D01*
X105204559Y-79562412D01*
X105206875Y-79568041D01*
X105208029Y-79574051D01*
X105208063Y-79574165D01*
X105208936Y-79578712D01*
X105209871Y-79583464D01*
X105209879Y-79583551D01*
X105211092Y-79589713D01*
X105211113Y-79589937D01*
X105211306Y-79591904D01*
X105211852Y-79603051D01*
X105211852Y-85593151D01*
X105211247Y-85599050D01*
X105211247Y-85600000D01*
X105211246Y-85600385D01*
X105211243Y-85600784D01*
X105211069Y-85600783D01*
X105211065Y-85600823D01*
X105211243Y-85600824D01*
X105211240Y-85601223D01*
X105211119Y-85603244D01*
X105211390Y-85605992D01*
X105211195Y-85609253D01*
X105211183Y-85609643D01*
X105210973Y-85611519D01*
X105210920Y-85612012D01*
X105209624Y-85618125D01*
X105209623Y-85618134D01*
X105208727Y-85622362D01*
X105208648Y-85622738D01*
X105206481Y-85633276D01*
X105204046Y-85638975D01*
X105204027Y-85639034D01*
X105202255Y-85643182D01*
X105200348Y-85647706D01*
X105200323Y-85647752D01*
X105197888Y-85653529D01*
X105197822Y-85653650D01*
X105191860Y-85662346D01*
X105191303Y-85663165D01*
X105185852Y-85671251D01*
X105185671Y-85671468D01*
X105178680Y-85678317D01*
X105178061Y-85678928D01*
X105170324Y-85686614D01*
X105170022Y-85686858D01*
X105161614Y-85692354D01*
X105160781Y-85692903D01*
X105152249Y-85698577D01*
X105152082Y-85698665D01*
X105146285Y-85701012D01*
X105146273Y-85701018D01*
X105141913Y-85702782D01*
X105137612Y-85704552D01*
X105137588Y-85704559D01*
X105131959Y-85706875D01*
X105125949Y-85708029D01*
X105125835Y-85708063D01*
X105121288Y-85708936D01*
X105116536Y-85709871D01*
X105116449Y-85709879D01*
X105110287Y-85711092D01*
X105110063Y-85711113D01*
X105108096Y-85711306D01*
X105096949Y-85711852D01*
X103106849Y-85711852D01*
X103100950Y-85711247D01*
X103100000Y-85711247D01*
X103099615Y-85711246D01*
X103099216Y-85711243D01*
X103099217Y-85711069D01*
X103099177Y-85711065D01*
X103099176Y-85711243D01*
X103098777Y-85711240D01*
X103096756Y-85711119D01*
X103094008Y-85711390D01*
X103090747Y-85711195D01*
X103090357Y-85711183D01*
X103088481Y-85710973D01*
X103087988Y-85710920D01*
X103081875Y-85709624D01*
X103081866Y-85709623D01*
X103077638Y-85708727D01*
X103077335Y-85708663D01*
X103073712Y-85707918D01*
X103066724Y-85706481D01*
X103061025Y-85704046D01*
X103060966Y-85704027D01*
X103056818Y-85702255D01*
X103052294Y-85700348D01*
X103052248Y-85700323D01*
X103046471Y-85697888D01*
X103046350Y-85697822D01*
X103037654Y-85691860D01*
X103036835Y-85691303D01*
X103028749Y-85685852D01*
X103028532Y-85685671D01*
X103021683Y-85678680D01*
X103021072Y-85678061D01*
X103013386Y-85670324D01*
X103013141Y-85670021D01*
X103007584Y-85661520D01*
X103007035Y-85660688D01*
X103001421Y-85652247D01*
X103001337Y-85652087D01*
X102998988Y-85646285D01*
X102998982Y-85646273D01*
X102997218Y-85641913D01*
X102995448Y-85637612D01*
X102995441Y-85637588D01*
X102993125Y-85631959D01*
X102991971Y-85625949D01*
X102991937Y-85625835D01*
X102991064Y-85621288D01*
X102990129Y-85616536D01*
X102990121Y-85616449D01*
X102988908Y-85610287D01*
X102988887Y-85610063D01*
X102988694Y-85608096D01*
X102988148Y-85596949D01*
X102988148Y-83601803D01*
X102988842Y-83590130D01*
X102988945Y-83589213D01*
X102989086Y-83587870D01*
X102991089Y-83578453D01*
X102991445Y-83576718D01*
X102993282Y-83567439D01*
X102993524Y-83566658D01*
X102997352Y-83557721D01*
X102998005Y-83556168D01*
X103001693Y-83547229D01*
X103002023Y-83546618D01*
X103007340Y-83538850D01*
X103008296Y-83537433D01*
X103013770Y-83529196D01*
X103014280Y-83528580D01*
X103021176Y-83521825D01*
X103022384Y-83520625D01*
X103029188Y-83513776D01*
X103029976Y-83513134D01*
X103038396Y-83507633D01*
X103039948Y-83506602D01*
X103047196Y-83501711D01*
X103047982Y-83501294D01*
X103056863Y-83497704D01*
X103058456Y-83497048D01*
X103067363Y-83493304D01*
X103068164Y-83493063D01*
X103077630Y-83491257D01*
X103079336Y-83490920D01*
X103088703Y-83488998D01*
X103089992Y-83488872D01*
X103091131Y-83488752D01*
X103105336Y-83487958D01*
X103105331Y-83487869D01*
X103113841Y-83487363D01*
X103272369Y-83469582D01*
X103296233Y-83464510D01*
X103437983Y-83419543D01*
X103460405Y-83409933D01*
X103590727Y-83338288D01*
X103610856Y-83324505D01*
X103724789Y-83228904D01*
X103741857Y-83211474D01*
X103835043Y-83095574D01*
X103848402Y-83075160D01*
X103917300Y-82943369D01*
X103926438Y-82920750D01*
X103968429Y-82778077D01*
X103973001Y-82754114D01*
X103986480Y-82606009D01*
X103986309Y-82581614D01*
X103970764Y-82433713D01*
X103965859Y-82409816D01*
X103921880Y-82267742D01*
X103912426Y-82245252D01*
X103863828Y-82155372D01*
X103841693Y-82114435D01*
X103828052Y-82094211D01*
X103744366Y-81993051D01*
X103744362Y-81993046D01*
X103733249Y-81979614D01*
X103715941Y-81962428D01*
X103600694Y-81868436D01*
X103580376Y-81854937D01*
X103449063Y-81785116D01*
X103426508Y-81775819D01*
X103284141Y-81732836D01*
X103260210Y-81728098D01*
X103090834Y-81711490D01*
X103082954Y-81710240D01*
X103079104Y-81709033D01*
X103073380Y-81707859D01*
X103071961Y-81707711D01*
X103070602Y-81707133D01*
X103065025Y-81705364D01*
X103062163Y-81704757D01*
X103060829Y-81704266D01*
X103058323Y-81702898D01*
X103052952Y-81700640D01*
X103051569Y-81700212D01*
X103050342Y-81699378D01*
X103045196Y-81696549D01*
X103042560Y-81695421D01*
X103041339Y-81694676D01*
X103039111Y-81692820D01*
X103034278Y-81689563D01*
X103033002Y-81688875D01*
X103031977Y-81687833D01*
X103027485Y-81684064D01*
X103025067Y-81682410D01*
X103024098Y-81681519D01*
X103022301Y-81679296D01*
X103018189Y-81675154D01*
X103017044Y-81674207D01*
X103016208Y-81672939D01*
X103012577Y-81668422D01*
X103010517Y-81666320D01*
X103009676Y-81665170D01*
X103008336Y-81662630D01*
X103005105Y-81657769D01*
X103004209Y-81656672D01*
X103003657Y-81655318D01*
X103000941Y-81650123D01*
X102999337Y-81647674D01*
X102998748Y-81646412D01*
X102997933Y-81643673D01*
X102995699Y-81638253D01*
X102995024Y-81636985D01*
X102994745Y-81635547D01*
X102993091Y-81629925D01*
X102991992Y-81627207D01*
X102991658Y-81625848D01*
X102991392Y-81623014D01*
X102990254Y-81617266D01*
X102989840Y-81615898D01*
X102989846Y-81614436D01*
X102989315Y-81608599D01*
X102988514Y-81604407D01*
X102988148Y-81596936D01*
X102988148Y-79606849D01*
X102988753Y-79600950D01*
X102988753Y-79600000D01*
X102988754Y-79599615D01*
X102988757Y-79599216D01*
X102988931Y-79599217D01*
X102988935Y-79599177D01*
X102988757Y-79599176D01*
X102988760Y-79598777D01*
X102988881Y-79596756D01*
X102988610Y-79594008D01*
X102988805Y-79590747D01*
X102988817Y-79590357D01*
X102989027Y-79588481D01*
X102989080Y-79587988D01*
X102990376Y-79581875D01*
X102990377Y-79581866D01*
X102991311Y-79577460D01*
X102992281Y-79572745D01*
X102993519Y-79566724D01*
X102995954Y-79561025D01*
X102995973Y-79560966D01*
X102997745Y-79556818D01*
X102999652Y-79552294D01*
X102999677Y-79552248D01*
X103002112Y-79546471D01*
X103002178Y-79546350D01*
X103008140Y-79537654D01*
X103008697Y-79536835D01*
X103014148Y-79528749D01*
X103014329Y-79528532D01*
X103021320Y-79521683D01*
X103021939Y-79521072D01*
X103029676Y-79513386D01*
X103029978Y-79513142D01*
X103038386Y-79507646D01*
X103039219Y-79507097D01*
X103047751Y-79501423D01*
X103047918Y-79501335D01*
X103053715Y-79498988D01*
X103053727Y-79498982D01*
X103058087Y-79497218D01*
X103062388Y-79495448D01*
X103062412Y-79495441D01*
X103068041Y-79493125D01*
X103074051Y-79491971D01*
X103074165Y-79491937D01*
X103078712Y-79491064D01*
X103083464Y-79490129D01*
X103083551Y-79490121D01*
X103089713Y-79488908D01*
X103089937Y-79488887D01*
X103091904Y-79488694D01*
X103103051Y-79488148D01*
X105093151Y-79488148D01*
X105099050Y-79488753D01*
G37*
G36*
X137399050Y-72088753D02*
G01*
X137400000Y-72088753D01*
X137400385Y-72088754D01*
X137400784Y-72088757D01*
X137400783Y-72088931D01*
X137400823Y-72088935D01*
X137400824Y-72088757D01*
X137401223Y-72088760D01*
X137403244Y-72088881D01*
X137405992Y-72088610D01*
X137409253Y-72088805D01*
X137409643Y-72088817D01*
X137411519Y-72089027D01*
X137412012Y-72089080D01*
X137418125Y-72090376D01*
X137418134Y-72090377D01*
X137422362Y-72091273D01*
X137422665Y-72091337D01*
X137425583Y-72091937D01*
X137433276Y-72093519D01*
X137438975Y-72095954D01*
X137439034Y-72095973D01*
X137443182Y-72097745D01*
X137447706Y-72099652D01*
X137447752Y-72099677D01*
X137453529Y-72102112D01*
X137453650Y-72102178D01*
X137462346Y-72108140D01*
X137463165Y-72108697D01*
X137471251Y-72114148D01*
X137471468Y-72114329D01*
X137478317Y-72121320D01*
X137478928Y-72121939D01*
X137486614Y-72129676D01*
X137486859Y-72129979D01*
X137492416Y-72138480D01*
X137492965Y-72139312D01*
X137498579Y-72147753D01*
X137498663Y-72147913D01*
X137501012Y-72153715D01*
X137501018Y-72153727D01*
X137502782Y-72158087D01*
X137504552Y-72162388D01*
X137504559Y-72162412D01*
X137506875Y-72168041D01*
X137508029Y-72174051D01*
X137508063Y-72174165D01*
X137508936Y-72178712D01*
X137509871Y-72183464D01*
X137509879Y-72183551D01*
X137511092Y-72189713D01*
X137511113Y-72189937D01*
X137511306Y-72191904D01*
X137511852Y-72203051D01*
X137511852Y-74198197D01*
X137511158Y-74209870D01*
X137511055Y-74210787D01*
X137510914Y-74212130D01*
X137508911Y-74221547D01*
X137508555Y-74223282D01*
X137506718Y-74232561D01*
X137506476Y-74233342D01*
X137502648Y-74242279D01*
X137501995Y-74243832D01*
X137498307Y-74252771D01*
X137497977Y-74253382D01*
X137492660Y-74261150D01*
X137491704Y-74262567D01*
X137486230Y-74270804D01*
X137485720Y-74271420D01*
X137478824Y-74278175D01*
X137477616Y-74279375D01*
X137470812Y-74286224D01*
X137470024Y-74286866D01*
X137461604Y-74292367D01*
X137460052Y-74293398D01*
X137452804Y-74298289D01*
X137452018Y-74298706D01*
X137443137Y-74302296D01*
X137441544Y-74302952D01*
X137432637Y-74306696D01*
X137431836Y-74306937D01*
X137422370Y-74308743D01*
X137420664Y-74309080D01*
X137411297Y-74311002D01*
X137410008Y-74311128D01*
X137408869Y-74311248D01*
X137394664Y-74312042D01*
X137394669Y-74312131D01*
X137386159Y-74312637D01*
X137227631Y-74330418D01*
X137203767Y-74335490D01*
X137062017Y-74380457D01*
X137039595Y-74390067D01*
X136909273Y-74461712D01*
X136889144Y-74475495D01*
X136775211Y-74571096D01*
X136758143Y-74588526D01*
X136664957Y-74704426D01*
X136651598Y-74724840D01*
X136582700Y-74856631D01*
X136573562Y-74879250D01*
X136531571Y-75021923D01*
X136526999Y-75045886D01*
X136513520Y-75193991D01*
X136513691Y-75218386D01*
X136529236Y-75366287D01*
X136534141Y-75390184D01*
X136578120Y-75532258D01*
X136587574Y-75554748D01*
X136636171Y-75644626D01*
X136658307Y-75685565D01*
X136671948Y-75705789D01*
X136755631Y-75806945D01*
X136755634Y-75806949D01*
X136766750Y-75820385D01*
X136784059Y-75837572D01*
X136899306Y-75931564D01*
X136919624Y-75945063D01*
X137050937Y-76014884D01*
X137073492Y-76024181D01*
X137215859Y-76067164D01*
X137239790Y-76071902D01*
X137409166Y-76088510D01*
X137417046Y-76089760D01*
X137420896Y-76090967D01*
X137426620Y-76092141D01*
X137428039Y-76092289D01*
X137429398Y-76092867D01*
X137434975Y-76094636D01*
X137437837Y-76095243D01*
X137439171Y-76095734D01*
X137441677Y-76097102D01*
X137447048Y-76099360D01*
X137448431Y-76099788D01*
X137449658Y-76100622D01*
X137454804Y-76103451D01*
X137457440Y-76104579D01*
X137458661Y-76105324D01*
X137460889Y-76107180D01*
X137465722Y-76110437D01*
X137466998Y-76111125D01*
X137468023Y-76112167D01*
X137472515Y-76115936D01*
X137474933Y-76117590D01*
X137475902Y-76118481D01*
X137477699Y-76120704D01*
X137481811Y-76124846D01*
X137482956Y-76125793D01*
X137483792Y-76127061D01*
X137487423Y-76131578D01*
X137489483Y-76133680D01*
X137490324Y-76134830D01*
X137491664Y-76137370D01*
X137494895Y-76142231D01*
X137495791Y-76143328D01*
X137496343Y-76144682D01*
X137499059Y-76149877D01*
X137500663Y-76152326D01*
X137501252Y-76153588D01*
X137502067Y-76156327D01*
X137504301Y-76161747D01*
X137504976Y-76163015D01*
X137505255Y-76164453D01*
X137506909Y-76170075D01*
X137508008Y-76172793D01*
X137508342Y-76174152D01*
X137508608Y-76176986D01*
X137509746Y-76182734D01*
X137510160Y-76184102D01*
X137510154Y-76185564D01*
X137510685Y-76191401D01*
X137511486Y-76195593D01*
X137511852Y-76203064D01*
X137511852Y-78193151D01*
X137511247Y-78199050D01*
X137511247Y-78200000D01*
X137511246Y-78200385D01*
X137511243Y-78200784D01*
X137511069Y-78200783D01*
X137511065Y-78200823D01*
X137511243Y-78200824D01*
X137511240Y-78201223D01*
X137511119Y-78203244D01*
X137511390Y-78205992D01*
X137511195Y-78209253D01*
X137511183Y-78209643D01*
X137510973Y-78211519D01*
X137510920Y-78212012D01*
X137509624Y-78218125D01*
X137509623Y-78218134D01*
X137508727Y-78222362D01*
X137508648Y-78222738D01*
X137506481Y-78233276D01*
X137504046Y-78238975D01*
X137504027Y-78239034D01*
X137502255Y-78243182D01*
X137500348Y-78247706D01*
X137500323Y-78247752D01*
X137497888Y-78253529D01*
X137497822Y-78253650D01*
X137491860Y-78262346D01*
X137491303Y-78263165D01*
X137485852Y-78271251D01*
X137485671Y-78271468D01*
X137478680Y-78278317D01*
X137478061Y-78278928D01*
X137470324Y-78286614D01*
X137470022Y-78286858D01*
X137461614Y-78292354D01*
X137460781Y-78292903D01*
X137452249Y-78298577D01*
X137452082Y-78298665D01*
X137446285Y-78301012D01*
X137446273Y-78301018D01*
X137441913Y-78302782D01*
X137437612Y-78304552D01*
X137437588Y-78304559D01*
X137431959Y-78306875D01*
X137425949Y-78308029D01*
X137425835Y-78308063D01*
X137421288Y-78308936D01*
X137416536Y-78309871D01*
X137416449Y-78309879D01*
X137410287Y-78311092D01*
X137410063Y-78311113D01*
X137408096Y-78311306D01*
X137396949Y-78311852D01*
X135406849Y-78311852D01*
X135400950Y-78311247D01*
X135400000Y-78311247D01*
X135399615Y-78311246D01*
X135399216Y-78311243D01*
X135399217Y-78311069D01*
X135399177Y-78311065D01*
X135399176Y-78311243D01*
X135398777Y-78311240D01*
X135396756Y-78311119D01*
X135394008Y-78311390D01*
X135390747Y-78311195D01*
X135390357Y-78311183D01*
X135388481Y-78310973D01*
X135387988Y-78310920D01*
X135381875Y-78309624D01*
X135381866Y-78309623D01*
X135377638Y-78308727D01*
X135377335Y-78308663D01*
X135373712Y-78307918D01*
X135366724Y-78306481D01*
X135361025Y-78304046D01*
X135360966Y-78304027D01*
X135356818Y-78302255D01*
X135352294Y-78300348D01*
X135352248Y-78300323D01*
X135346471Y-78297888D01*
X135346350Y-78297822D01*
X135337654Y-78291860D01*
X135336835Y-78291303D01*
X135328749Y-78285852D01*
X135328532Y-78285671D01*
X135321683Y-78278680D01*
X135321072Y-78278061D01*
X135313386Y-78270324D01*
X135313142Y-78270022D01*
X135307646Y-78261614D01*
X135307097Y-78260781D01*
X135301423Y-78252249D01*
X135301335Y-78252082D01*
X135298988Y-78246285D01*
X135298982Y-78246273D01*
X135297218Y-78241913D01*
X135295448Y-78237612D01*
X135295441Y-78237588D01*
X135293125Y-78231959D01*
X135291971Y-78225949D01*
X135291937Y-78225835D01*
X135291064Y-78221288D01*
X135290129Y-78216536D01*
X135290121Y-78216449D01*
X135288908Y-78210287D01*
X135288887Y-78210063D01*
X135288694Y-78208096D01*
X135288148Y-78196949D01*
X135288148Y-72206849D01*
X135288753Y-72200950D01*
X135288753Y-72200000D01*
X135288754Y-72199615D01*
X135288757Y-72199216D01*
X135288931Y-72199217D01*
X135288935Y-72199177D01*
X135288757Y-72199176D01*
X135288760Y-72198777D01*
X135288881Y-72196756D01*
X135288610Y-72194008D01*
X135288805Y-72190747D01*
X135288817Y-72190357D01*
X135289027Y-72188481D01*
X135289080Y-72187988D01*
X135290376Y-72181875D01*
X135290377Y-72181866D01*
X135291311Y-72177460D01*
X135292281Y-72172745D01*
X135293519Y-72166724D01*
X135295954Y-72161025D01*
X135295973Y-72160966D01*
X135297745Y-72156818D01*
X135299652Y-72152294D01*
X135299677Y-72152248D01*
X135302112Y-72146471D01*
X135302178Y-72146350D01*
X135308140Y-72137654D01*
X135308697Y-72136835D01*
X135314148Y-72128749D01*
X135314329Y-72128532D01*
X135321320Y-72121683D01*
X135321939Y-72121072D01*
X135329676Y-72113386D01*
X135329978Y-72113142D01*
X135338386Y-72107646D01*
X135339219Y-72107097D01*
X135347751Y-72101423D01*
X135347918Y-72101335D01*
X135353715Y-72098988D01*
X135353727Y-72098982D01*
X135358087Y-72097218D01*
X135362388Y-72095448D01*
X135362412Y-72095441D01*
X135368041Y-72093125D01*
X135374051Y-72091971D01*
X135374165Y-72091937D01*
X135378712Y-72091064D01*
X135383464Y-72090129D01*
X135383551Y-72090121D01*
X135389713Y-72088908D01*
X135389937Y-72088887D01*
X135391904Y-72088694D01*
X135403051Y-72088148D01*
X137393151Y-72088148D01*
X137399050Y-72088753D01*
G37*
G36*
X105099050Y-72088753D02*
G01*
X105100000Y-72088753D01*
X105100385Y-72088754D01*
X105100784Y-72088757D01*
X105100783Y-72088931D01*
X105100823Y-72088935D01*
X105100824Y-72088757D01*
X105101223Y-72088760D01*
X105103244Y-72088881D01*
X105105992Y-72088610D01*
X105109253Y-72088805D01*
X105109643Y-72088817D01*
X105111519Y-72089027D01*
X105112012Y-72089080D01*
X105118125Y-72090376D01*
X105118134Y-72090377D01*
X105122362Y-72091273D01*
X105122665Y-72091337D01*
X105125583Y-72091937D01*
X105133276Y-72093519D01*
X105138975Y-72095954D01*
X105139034Y-72095973D01*
X105143182Y-72097745D01*
X105147706Y-72099652D01*
X105147752Y-72099677D01*
X105153529Y-72102112D01*
X105153650Y-72102178D01*
X105162346Y-72108140D01*
X105163165Y-72108697D01*
X105171251Y-72114148D01*
X105171468Y-72114329D01*
X105178317Y-72121320D01*
X105178928Y-72121939D01*
X105186614Y-72129676D01*
X105186858Y-72129978D01*
X105192354Y-72138386D01*
X105192903Y-72139219D01*
X105198577Y-72147751D01*
X105198665Y-72147918D01*
X105201012Y-72153715D01*
X105201018Y-72153727D01*
X105202782Y-72158087D01*
X105204552Y-72162388D01*
X105204559Y-72162412D01*
X105206875Y-72168041D01*
X105208029Y-72174051D01*
X105208063Y-72174165D01*
X105208936Y-72178712D01*
X105209871Y-72183464D01*
X105209879Y-72183551D01*
X105211092Y-72189713D01*
X105211113Y-72189937D01*
X105211306Y-72191904D01*
X105211852Y-72203051D01*
X105211852Y-78193151D01*
X105211247Y-78199050D01*
X105211247Y-78200000D01*
X105211246Y-78200385D01*
X105211243Y-78200784D01*
X105211069Y-78200783D01*
X105211065Y-78200823D01*
X105211243Y-78200824D01*
X105211240Y-78201223D01*
X105211119Y-78203244D01*
X105211390Y-78205992D01*
X105211195Y-78209253D01*
X105211183Y-78209643D01*
X105210973Y-78211519D01*
X105210920Y-78212012D01*
X105209624Y-78218125D01*
X105209623Y-78218134D01*
X105208727Y-78222362D01*
X105208648Y-78222738D01*
X105206481Y-78233276D01*
X105204046Y-78238975D01*
X105204027Y-78239034D01*
X105202255Y-78243182D01*
X105200348Y-78247706D01*
X105200323Y-78247752D01*
X105197888Y-78253529D01*
X105197822Y-78253650D01*
X105191860Y-78262346D01*
X105191303Y-78263165D01*
X105185852Y-78271251D01*
X105185671Y-78271468D01*
X105178680Y-78278317D01*
X105178061Y-78278928D01*
X105170324Y-78286614D01*
X105170022Y-78286858D01*
X105161614Y-78292354D01*
X105160781Y-78292903D01*
X105152249Y-78298577D01*
X105152082Y-78298665D01*
X105146285Y-78301012D01*
X105146273Y-78301018D01*
X105141913Y-78302782D01*
X105137612Y-78304552D01*
X105137588Y-78304559D01*
X105131959Y-78306875D01*
X105125949Y-78308029D01*
X105125835Y-78308063D01*
X105121288Y-78308936D01*
X105116536Y-78309871D01*
X105116449Y-78309879D01*
X105110287Y-78311092D01*
X105110063Y-78311113D01*
X105108096Y-78311306D01*
X105096949Y-78311852D01*
X103106849Y-78311852D01*
X103100950Y-78311247D01*
X103100000Y-78311247D01*
X103099615Y-78311246D01*
X103099216Y-78311243D01*
X103099217Y-78311069D01*
X103099177Y-78311065D01*
X103099176Y-78311243D01*
X103098777Y-78311240D01*
X103096756Y-78311119D01*
X103094008Y-78311390D01*
X103090747Y-78311195D01*
X103090357Y-78311183D01*
X103088481Y-78310973D01*
X103087988Y-78310920D01*
X103081875Y-78309624D01*
X103081866Y-78309623D01*
X103077638Y-78308727D01*
X103077335Y-78308663D01*
X103073712Y-78307918D01*
X103066724Y-78306481D01*
X103061025Y-78304046D01*
X103060966Y-78304027D01*
X103056818Y-78302255D01*
X103052294Y-78300348D01*
X103052248Y-78300323D01*
X103046471Y-78297888D01*
X103046350Y-78297822D01*
X103037654Y-78291860D01*
X103036835Y-78291303D01*
X103028749Y-78285852D01*
X103028532Y-78285671D01*
X103021683Y-78278680D01*
X103021072Y-78278061D01*
X103013386Y-78270324D01*
X103013141Y-78270021D01*
X103007584Y-78261520D01*
X103007035Y-78260688D01*
X103001421Y-78252247D01*
X103001337Y-78252087D01*
X102998988Y-78246285D01*
X102998982Y-78246273D01*
X102997218Y-78241913D01*
X102995448Y-78237612D01*
X102995441Y-78237588D01*
X102993125Y-78231959D01*
X102991971Y-78225949D01*
X102991937Y-78225835D01*
X102991064Y-78221288D01*
X102990129Y-78216536D01*
X102990121Y-78216449D01*
X102988908Y-78210287D01*
X102988887Y-78210063D01*
X102988694Y-78208096D01*
X102988148Y-78196949D01*
X102988148Y-76201803D01*
X102988842Y-76190130D01*
X102988945Y-76189213D01*
X102989086Y-76187870D01*
X102991089Y-76178453D01*
X102991445Y-76176718D01*
X102993282Y-76167439D01*
X102993524Y-76166658D01*
X102997352Y-76157721D01*
X102998005Y-76156168D01*
X103001693Y-76147229D01*
X103002023Y-76146618D01*
X103007340Y-76138850D01*
X103008296Y-76137433D01*
X103013770Y-76129196D01*
X103014280Y-76128580D01*
X103021176Y-76121825D01*
X103022384Y-76120625D01*
X103029188Y-76113776D01*
X103029976Y-76113134D01*
X103038396Y-76107633D01*
X103039948Y-76106602D01*
X103047196Y-76101711D01*
X103047982Y-76101294D01*
X103056863Y-76097704D01*
X103058456Y-76097048D01*
X103067363Y-76093304D01*
X103068164Y-76093063D01*
X103077630Y-76091257D01*
X103079336Y-76090920D01*
X103088703Y-76088998D01*
X103089992Y-76088872D01*
X103091131Y-76088752D01*
X103105336Y-76087958D01*
X103105331Y-76087869D01*
X103113841Y-76087363D01*
X103272369Y-76069582D01*
X103296233Y-76064510D01*
X103437983Y-76019543D01*
X103460405Y-76009933D01*
X103590727Y-75938288D01*
X103610856Y-75924505D01*
X103724789Y-75828904D01*
X103741857Y-75811474D01*
X103835043Y-75695574D01*
X103848402Y-75675160D01*
X103917300Y-75543369D01*
X103926438Y-75520750D01*
X103968429Y-75378077D01*
X103973001Y-75354114D01*
X103986480Y-75206009D01*
X103986309Y-75181614D01*
X103970764Y-75033713D01*
X103965859Y-75009816D01*
X103921880Y-74867742D01*
X103912426Y-74845252D01*
X103863828Y-74755372D01*
X103841693Y-74714435D01*
X103828052Y-74694211D01*
X103744366Y-74593051D01*
X103744362Y-74593046D01*
X103733249Y-74579614D01*
X103715941Y-74562428D01*
X103600694Y-74468436D01*
X103580376Y-74454937D01*
X103449063Y-74385116D01*
X103426508Y-74375819D01*
X103284141Y-74332836D01*
X103260210Y-74328098D01*
X103090834Y-74311490D01*
X103082954Y-74310240D01*
X103079104Y-74309033D01*
X103073380Y-74307859D01*
X103071961Y-74307711D01*
X103070602Y-74307133D01*
X103065025Y-74305364D01*
X103062163Y-74304757D01*
X103060829Y-74304266D01*
X103058323Y-74302898D01*
X103052952Y-74300640D01*
X103051569Y-74300212D01*
X103050342Y-74299378D01*
X103045196Y-74296549D01*
X103042560Y-74295421D01*
X103041339Y-74294676D01*
X103039111Y-74292820D01*
X103034278Y-74289563D01*
X103033002Y-74288875D01*
X103031977Y-74287833D01*
X103027485Y-74284064D01*
X103025067Y-74282410D01*
X103024098Y-74281519D01*
X103022301Y-74279296D01*
X103018189Y-74275154D01*
X103017044Y-74274207D01*
X103016208Y-74272939D01*
X103012577Y-74268422D01*
X103010517Y-74266320D01*
X103009676Y-74265170D01*
X103008336Y-74262630D01*
X103005105Y-74257769D01*
X103004209Y-74256672D01*
X103003657Y-74255318D01*
X103000941Y-74250123D01*
X102999337Y-74247674D01*
X102998748Y-74246412D01*
X102997933Y-74243673D01*
X102995699Y-74238253D01*
X102995024Y-74236985D01*
X102994745Y-74235547D01*
X102993091Y-74229925D01*
X102991992Y-74227207D01*
X102991658Y-74225848D01*
X102991392Y-74223014D01*
X102990254Y-74217266D01*
X102989840Y-74215898D01*
X102989846Y-74214436D01*
X102989315Y-74208599D01*
X102988514Y-74204407D01*
X102988148Y-74196936D01*
X102988148Y-72206849D01*
X102988753Y-72200950D01*
X102988753Y-72200000D01*
X102988754Y-72199615D01*
X102988757Y-72199216D01*
X102988931Y-72199217D01*
X102988935Y-72199177D01*
X102988757Y-72199176D01*
X102988760Y-72198777D01*
X102988881Y-72196756D01*
X102988610Y-72194008D01*
X102988805Y-72190747D01*
X102988817Y-72190357D01*
X102989027Y-72188481D01*
X102989080Y-72187988D01*
X102990376Y-72181875D01*
X102990377Y-72181866D01*
X102991311Y-72177460D01*
X102992281Y-72172745D01*
X102993519Y-72166724D01*
X102995954Y-72161025D01*
X102995973Y-72160966D01*
X102997745Y-72156818D01*
X102999652Y-72152294D01*
X102999677Y-72152248D01*
X103002112Y-72146471D01*
X103002178Y-72146350D01*
X103008140Y-72137654D01*
X103008697Y-72136835D01*
X103014148Y-72128749D01*
X103014329Y-72128532D01*
X103021320Y-72121683D01*
X103021939Y-72121072D01*
X103029676Y-72113386D01*
X103029978Y-72113142D01*
X103038386Y-72107646D01*
X103039219Y-72107097D01*
X103047751Y-72101423D01*
X103047918Y-72101335D01*
X103053715Y-72098988D01*
X103053727Y-72098982D01*
X103058087Y-72097218D01*
X103062388Y-72095448D01*
X103062412Y-72095441D01*
X103068041Y-72093125D01*
X103074051Y-72091971D01*
X103074165Y-72091937D01*
X103078712Y-72091064D01*
X103083464Y-72090129D01*
X103083551Y-72090121D01*
X103089713Y-72088908D01*
X103089937Y-72088887D01*
X103091904Y-72088694D01*
X103103051Y-72088148D01*
X105093151Y-72088148D01*
X105099050Y-72088753D01*
G37*
G36*
X137199050Y-64588753D02*
G01*
X137200000Y-64588753D01*
X137200385Y-64588754D01*
X137200784Y-64588757D01*
X137200783Y-64588931D01*
X137200823Y-64588935D01*
X137200824Y-64588757D01*
X137201223Y-64588760D01*
X137203244Y-64588881D01*
X137205992Y-64588610D01*
X137209253Y-64588805D01*
X137209643Y-64588817D01*
X137211519Y-64589027D01*
X137212012Y-64589080D01*
X137218125Y-64590376D01*
X137218134Y-64590377D01*
X137222362Y-64591273D01*
X137222665Y-64591337D01*
X137225583Y-64591937D01*
X137233276Y-64593519D01*
X137238975Y-64595954D01*
X137239034Y-64595973D01*
X137243182Y-64597745D01*
X137247706Y-64599652D01*
X137247752Y-64599677D01*
X137253529Y-64602112D01*
X137253650Y-64602178D01*
X137262346Y-64608140D01*
X137263165Y-64608697D01*
X137271251Y-64614148D01*
X137271468Y-64614329D01*
X137278317Y-64621320D01*
X137278928Y-64621939D01*
X137286614Y-64629676D01*
X137286859Y-64629979D01*
X137292416Y-64638480D01*
X137292965Y-64639312D01*
X137298579Y-64647753D01*
X137298663Y-64647913D01*
X137301012Y-64653715D01*
X137301018Y-64653727D01*
X137302782Y-64658087D01*
X137304552Y-64662388D01*
X137304559Y-64662412D01*
X137306875Y-64668041D01*
X137308029Y-64674051D01*
X137308063Y-64674165D01*
X137308936Y-64678712D01*
X137309871Y-64683464D01*
X137309879Y-64683551D01*
X137311092Y-64689713D01*
X137311113Y-64689937D01*
X137311306Y-64691904D01*
X137311852Y-64703051D01*
X137311852Y-66698197D01*
X137311158Y-66709870D01*
X137311055Y-66710787D01*
X137310914Y-66712130D01*
X137308911Y-66721547D01*
X137308555Y-66723282D01*
X137306718Y-66732561D01*
X137306476Y-66733342D01*
X137302648Y-66742279D01*
X137301995Y-66743832D01*
X137298307Y-66752771D01*
X137297977Y-66753382D01*
X137292660Y-66761150D01*
X137291704Y-66762567D01*
X137286230Y-66770804D01*
X137285720Y-66771420D01*
X137278824Y-66778175D01*
X137277616Y-66779375D01*
X137270812Y-66786224D01*
X137270024Y-66786866D01*
X137261604Y-66792367D01*
X137260052Y-66793398D01*
X137252804Y-66798289D01*
X137252018Y-66798706D01*
X137243137Y-66802296D01*
X137241544Y-66802952D01*
X137232637Y-66806696D01*
X137231836Y-66806937D01*
X137222370Y-66808743D01*
X137220664Y-66809080D01*
X137211297Y-66811002D01*
X137210008Y-66811128D01*
X137208869Y-66811248D01*
X137194664Y-66812042D01*
X137194669Y-66812131D01*
X137186159Y-66812637D01*
X137027631Y-66830418D01*
X137003767Y-66835490D01*
X136862017Y-66880457D01*
X136839595Y-66890067D01*
X136709273Y-66961712D01*
X136689144Y-66975495D01*
X136575211Y-67071096D01*
X136558143Y-67088526D01*
X136464957Y-67204426D01*
X136451598Y-67224840D01*
X136382700Y-67356631D01*
X136373562Y-67379250D01*
X136331571Y-67521923D01*
X136326999Y-67545886D01*
X136313520Y-67693991D01*
X136313691Y-67718386D01*
X136329236Y-67866287D01*
X136334141Y-67890184D01*
X136378120Y-68032258D01*
X136387574Y-68054748D01*
X136436171Y-68144626D01*
X136458307Y-68185565D01*
X136471948Y-68205789D01*
X136555631Y-68306945D01*
X136555634Y-68306949D01*
X136566750Y-68320385D01*
X136584059Y-68337572D01*
X136699306Y-68431564D01*
X136719624Y-68445063D01*
X136850937Y-68514884D01*
X136873492Y-68524181D01*
X137015859Y-68567164D01*
X137039790Y-68571902D01*
X137209166Y-68588510D01*
X137217046Y-68589760D01*
X137220896Y-68590967D01*
X137226620Y-68592141D01*
X137228039Y-68592289D01*
X137229398Y-68592867D01*
X137234975Y-68594636D01*
X137237837Y-68595243D01*
X137239171Y-68595734D01*
X137241677Y-68597102D01*
X137247048Y-68599360D01*
X137248431Y-68599788D01*
X137249658Y-68600622D01*
X137254804Y-68603451D01*
X137257440Y-68604579D01*
X137258661Y-68605324D01*
X137260889Y-68607180D01*
X137265722Y-68610437D01*
X137266998Y-68611125D01*
X137268023Y-68612167D01*
X137272515Y-68615936D01*
X137274933Y-68617590D01*
X137275902Y-68618481D01*
X137277699Y-68620704D01*
X137281811Y-68624846D01*
X137282956Y-68625793D01*
X137283792Y-68627061D01*
X137287423Y-68631578D01*
X137289483Y-68633680D01*
X137290324Y-68634830D01*
X137291664Y-68637370D01*
X137294895Y-68642231D01*
X137295791Y-68643328D01*
X137296343Y-68644682D01*
X137299059Y-68649877D01*
X137300663Y-68652326D01*
X137301252Y-68653588D01*
X137302067Y-68656327D01*
X137304301Y-68661747D01*
X137304976Y-68663015D01*
X137305255Y-68664453D01*
X137306909Y-68670075D01*
X137308008Y-68672793D01*
X137308342Y-68674152D01*
X137308608Y-68676986D01*
X137309746Y-68682734D01*
X137310160Y-68684102D01*
X137310154Y-68685564D01*
X137310685Y-68691401D01*
X137311486Y-68695593D01*
X137311852Y-68703064D01*
X137311852Y-70693151D01*
X137311247Y-70699050D01*
X137311247Y-70700000D01*
X137311246Y-70700385D01*
X137311243Y-70700784D01*
X137311069Y-70700783D01*
X137311065Y-70700823D01*
X137311243Y-70700824D01*
X137311240Y-70701223D01*
X137311119Y-70703244D01*
X137311390Y-70705992D01*
X137311195Y-70709253D01*
X137311183Y-70709643D01*
X137310973Y-70711519D01*
X137310920Y-70712012D01*
X137309624Y-70718125D01*
X137309623Y-70718134D01*
X137308727Y-70722362D01*
X137308648Y-70722738D01*
X137306481Y-70733276D01*
X137304046Y-70738975D01*
X137304027Y-70739034D01*
X137302255Y-70743182D01*
X137300348Y-70747706D01*
X137300323Y-70747752D01*
X137297888Y-70753529D01*
X137297822Y-70753650D01*
X137291860Y-70762346D01*
X137291303Y-70763165D01*
X137285852Y-70771251D01*
X137285671Y-70771468D01*
X137278680Y-70778317D01*
X137278061Y-70778928D01*
X137270324Y-70786614D01*
X137270022Y-70786858D01*
X137261614Y-70792354D01*
X137260781Y-70792903D01*
X137252249Y-70798577D01*
X137252082Y-70798665D01*
X137246285Y-70801012D01*
X137246273Y-70801018D01*
X137241913Y-70802782D01*
X137237612Y-70804552D01*
X137237588Y-70804559D01*
X137231959Y-70806875D01*
X137225949Y-70808029D01*
X137225835Y-70808063D01*
X137221288Y-70808936D01*
X137216536Y-70809871D01*
X137216449Y-70809879D01*
X137210287Y-70811092D01*
X137210063Y-70811113D01*
X137208096Y-70811306D01*
X137196949Y-70811852D01*
X135206849Y-70811852D01*
X135200950Y-70811247D01*
X135200000Y-70811247D01*
X135199615Y-70811246D01*
X135199216Y-70811243D01*
X135199217Y-70811069D01*
X135199177Y-70811065D01*
X135199176Y-70811243D01*
X135198777Y-70811240D01*
X135196756Y-70811119D01*
X135194008Y-70811390D01*
X135190747Y-70811195D01*
X135190357Y-70811183D01*
X135188481Y-70810973D01*
X135187988Y-70810920D01*
X135181875Y-70809624D01*
X135181866Y-70809623D01*
X135177638Y-70808727D01*
X135177335Y-70808663D01*
X135173712Y-70807918D01*
X135166724Y-70806481D01*
X135161025Y-70804046D01*
X135160966Y-70804027D01*
X135156818Y-70802255D01*
X135152294Y-70800348D01*
X135152248Y-70800323D01*
X135146471Y-70797888D01*
X135146350Y-70797822D01*
X135137654Y-70791860D01*
X135136835Y-70791303D01*
X135128749Y-70785852D01*
X135128532Y-70785671D01*
X135121683Y-70778680D01*
X135121072Y-70778061D01*
X135113386Y-70770324D01*
X135113142Y-70770022D01*
X135107646Y-70761614D01*
X135107097Y-70760781D01*
X135101423Y-70752249D01*
X135101335Y-70752082D01*
X135098988Y-70746285D01*
X135098982Y-70746273D01*
X135097218Y-70741913D01*
X135095448Y-70737612D01*
X135095441Y-70737588D01*
X135093125Y-70731959D01*
X135091971Y-70725949D01*
X135091937Y-70725835D01*
X135091064Y-70721288D01*
X135090129Y-70716536D01*
X135090121Y-70716449D01*
X135088908Y-70710287D01*
X135088887Y-70710063D01*
X135088694Y-70708096D01*
X135088148Y-70696949D01*
X135088148Y-64706849D01*
X135088753Y-64700950D01*
X135088753Y-64700000D01*
X135088754Y-64699615D01*
X135088757Y-64699216D01*
X135088931Y-64699217D01*
X135088935Y-64699177D01*
X135088757Y-64699176D01*
X135088760Y-64698777D01*
X135088881Y-64696756D01*
X135088610Y-64694008D01*
X135088805Y-64690747D01*
X135088817Y-64690357D01*
X135089027Y-64688481D01*
X135089080Y-64687988D01*
X135090376Y-64681875D01*
X135090377Y-64681866D01*
X135091311Y-64677460D01*
X135092281Y-64672745D01*
X135093519Y-64666724D01*
X135095954Y-64661025D01*
X135095973Y-64660966D01*
X135097745Y-64656818D01*
X135099652Y-64652294D01*
X135099677Y-64652248D01*
X135102112Y-64646471D01*
X135102178Y-64646350D01*
X135108140Y-64637654D01*
X135108697Y-64636835D01*
X135114148Y-64628749D01*
X135114329Y-64628532D01*
X135121320Y-64621683D01*
X135121939Y-64621072D01*
X135129676Y-64613386D01*
X135129978Y-64613142D01*
X135138386Y-64607646D01*
X135139219Y-64607097D01*
X135147751Y-64601423D01*
X135147918Y-64601335D01*
X135153715Y-64598988D01*
X135153727Y-64598982D01*
X135158087Y-64597218D01*
X135162388Y-64595448D01*
X135162412Y-64595441D01*
X135168041Y-64593125D01*
X135174051Y-64591971D01*
X135174165Y-64591937D01*
X135178712Y-64591064D01*
X135183464Y-64590129D01*
X135183551Y-64590121D01*
X135189713Y-64588908D01*
X135189937Y-64588887D01*
X135191904Y-64588694D01*
X135203051Y-64588148D01*
X137193151Y-64588148D01*
X137199050Y-64588753D01*
G37*
G36*
X104999050Y-64588753D02*
G01*
X105000000Y-64588753D01*
X105000385Y-64588754D01*
X105000784Y-64588757D01*
X105000783Y-64588931D01*
X105000823Y-64588935D01*
X105000824Y-64588757D01*
X105001223Y-64588760D01*
X105003244Y-64588881D01*
X105005992Y-64588610D01*
X105009253Y-64588805D01*
X105009643Y-64588817D01*
X105011519Y-64589027D01*
X105012012Y-64589080D01*
X105018125Y-64590376D01*
X105018134Y-64590377D01*
X105022362Y-64591273D01*
X105022665Y-64591337D01*
X105025583Y-64591937D01*
X105033276Y-64593519D01*
X105038975Y-64595954D01*
X105039034Y-64595973D01*
X105043182Y-64597745D01*
X105047706Y-64599652D01*
X105047752Y-64599677D01*
X105053529Y-64602112D01*
X105053650Y-64602178D01*
X105062346Y-64608140D01*
X105063165Y-64608697D01*
X105071251Y-64614148D01*
X105071468Y-64614329D01*
X105078317Y-64621320D01*
X105078928Y-64621939D01*
X105086614Y-64629676D01*
X105086858Y-64629978D01*
X105092354Y-64638386D01*
X105092903Y-64639219D01*
X105098577Y-64647751D01*
X105098665Y-64647918D01*
X105101012Y-64653715D01*
X105101018Y-64653727D01*
X105102782Y-64658087D01*
X105104552Y-64662388D01*
X105104559Y-64662412D01*
X105106875Y-64668041D01*
X105108029Y-64674051D01*
X105108063Y-64674165D01*
X105108936Y-64678712D01*
X105109871Y-64683464D01*
X105109879Y-64683551D01*
X105111092Y-64689713D01*
X105111113Y-64689937D01*
X105111306Y-64691904D01*
X105111852Y-64703051D01*
X105111852Y-70693151D01*
X105111247Y-70699050D01*
X105111247Y-70700000D01*
X105111246Y-70700385D01*
X105111243Y-70700784D01*
X105111069Y-70700783D01*
X105111065Y-70700823D01*
X105111243Y-70700824D01*
X105111240Y-70701223D01*
X105111119Y-70703244D01*
X105111390Y-70705992D01*
X105111195Y-70709253D01*
X105111183Y-70709643D01*
X105110973Y-70711519D01*
X105110920Y-70712012D01*
X105109624Y-70718125D01*
X105109623Y-70718134D01*
X105108727Y-70722362D01*
X105108648Y-70722738D01*
X105106481Y-70733276D01*
X105104046Y-70738975D01*
X105104027Y-70739034D01*
X105102255Y-70743182D01*
X105100348Y-70747706D01*
X105100323Y-70747752D01*
X105097888Y-70753529D01*
X105097822Y-70753650D01*
X105091860Y-70762346D01*
X105091303Y-70763165D01*
X105085852Y-70771251D01*
X105085671Y-70771468D01*
X105078680Y-70778317D01*
X105078061Y-70778928D01*
X105070324Y-70786614D01*
X105070022Y-70786858D01*
X105061614Y-70792354D01*
X105060781Y-70792903D01*
X105052249Y-70798577D01*
X105052082Y-70798665D01*
X105046285Y-70801012D01*
X105046273Y-70801018D01*
X105041913Y-70802782D01*
X105037612Y-70804552D01*
X105037588Y-70804559D01*
X105031959Y-70806875D01*
X105025949Y-70808029D01*
X105025835Y-70808063D01*
X105021288Y-70808936D01*
X105016536Y-70809871D01*
X105016449Y-70809879D01*
X105010287Y-70811092D01*
X105010063Y-70811113D01*
X105008096Y-70811306D01*
X104996949Y-70811852D01*
X103006849Y-70811852D01*
X103000950Y-70811247D01*
X103000000Y-70811247D01*
X102999615Y-70811246D01*
X102999216Y-70811243D01*
X102999217Y-70811069D01*
X102999177Y-70811065D01*
X102999176Y-70811243D01*
X102998777Y-70811240D01*
X102996756Y-70811119D01*
X102994008Y-70811390D01*
X102990747Y-70811195D01*
X102990357Y-70811183D01*
X102988481Y-70810973D01*
X102987988Y-70810920D01*
X102981875Y-70809624D01*
X102981866Y-70809623D01*
X102977638Y-70808727D01*
X102977335Y-70808663D01*
X102973712Y-70807918D01*
X102966724Y-70806481D01*
X102961025Y-70804046D01*
X102960966Y-70804027D01*
X102956818Y-70802255D01*
X102952294Y-70800348D01*
X102952248Y-70800323D01*
X102946471Y-70797888D01*
X102946350Y-70797822D01*
X102937654Y-70791860D01*
X102936835Y-70791303D01*
X102928749Y-70785852D01*
X102928532Y-70785671D01*
X102921683Y-70778680D01*
X102921072Y-70778061D01*
X102913386Y-70770324D01*
X102913141Y-70770021D01*
X102907584Y-70761520D01*
X102907035Y-70760688D01*
X102901421Y-70752247D01*
X102901337Y-70752087D01*
X102898988Y-70746285D01*
X102898982Y-70746273D01*
X102897218Y-70741913D01*
X102895448Y-70737612D01*
X102895441Y-70737588D01*
X102893125Y-70731959D01*
X102891971Y-70725949D01*
X102891937Y-70725835D01*
X102891064Y-70721288D01*
X102890129Y-70716536D01*
X102890121Y-70716449D01*
X102888908Y-70710287D01*
X102888887Y-70710063D01*
X102888694Y-70708096D01*
X102888148Y-70696949D01*
X102888148Y-68701803D01*
X102888842Y-68690130D01*
X102888945Y-68689213D01*
X102889086Y-68687870D01*
X102891089Y-68678453D01*
X102891445Y-68676718D01*
X102893282Y-68667439D01*
X102893524Y-68666658D01*
X102897352Y-68657721D01*
X102898005Y-68656168D01*
X102901693Y-68647229D01*
X102902023Y-68646618D01*
X102907340Y-68638850D01*
X102908296Y-68637433D01*
X102913770Y-68629196D01*
X102914280Y-68628580D01*
X102921176Y-68621825D01*
X102922384Y-68620625D01*
X102929188Y-68613776D01*
X102929976Y-68613134D01*
X102938396Y-68607633D01*
X102939948Y-68606602D01*
X102947196Y-68601711D01*
X102947982Y-68601294D01*
X102956863Y-68597704D01*
X102958456Y-68597048D01*
X102967363Y-68593304D01*
X102968164Y-68593063D01*
X102977630Y-68591257D01*
X102979336Y-68590920D01*
X102988703Y-68588998D01*
X102989992Y-68588872D01*
X102991131Y-68588752D01*
X103005336Y-68587958D01*
X103005331Y-68587869D01*
X103013841Y-68587363D01*
X103172369Y-68569582D01*
X103196233Y-68564510D01*
X103337983Y-68519543D01*
X103360405Y-68509933D01*
X103490727Y-68438288D01*
X103510856Y-68424505D01*
X103624789Y-68328904D01*
X103641857Y-68311474D01*
X103735043Y-68195574D01*
X103748402Y-68175160D01*
X103817300Y-68043369D01*
X103826438Y-68020750D01*
X103868429Y-67878077D01*
X103873001Y-67854114D01*
X103886480Y-67706009D01*
X103886309Y-67681614D01*
X103870764Y-67533713D01*
X103865859Y-67509816D01*
X103821880Y-67367742D01*
X103812426Y-67345252D01*
X103763828Y-67255372D01*
X103741693Y-67214435D01*
X103728052Y-67194211D01*
X103644366Y-67093051D01*
X103644362Y-67093046D01*
X103633249Y-67079614D01*
X103615941Y-67062428D01*
X103500694Y-66968436D01*
X103480376Y-66954937D01*
X103349063Y-66885116D01*
X103326508Y-66875819D01*
X103184141Y-66832836D01*
X103160210Y-66828098D01*
X102990834Y-66811490D01*
X102982954Y-66810240D01*
X102979104Y-66809033D01*
X102973380Y-66807859D01*
X102971961Y-66807711D01*
X102970602Y-66807133D01*
X102965025Y-66805364D01*
X102962163Y-66804757D01*
X102960829Y-66804266D01*
X102958323Y-66802898D01*
X102952952Y-66800640D01*
X102951569Y-66800212D01*
X102950342Y-66799378D01*
X102945196Y-66796549D01*
X102942560Y-66795421D01*
X102941339Y-66794676D01*
X102939111Y-66792820D01*
X102934278Y-66789563D01*
X102933002Y-66788875D01*
X102931977Y-66787833D01*
X102927485Y-66784064D01*
X102925067Y-66782410D01*
X102924098Y-66781519D01*
X102922301Y-66779296D01*
X102918189Y-66775154D01*
X102917044Y-66774207D01*
X102916208Y-66772939D01*
X102912577Y-66768422D01*
X102910517Y-66766320D01*
X102909676Y-66765170D01*
X102908336Y-66762630D01*
X102905105Y-66757769D01*
X102904209Y-66756672D01*
X102903657Y-66755318D01*
X102900941Y-66750123D01*
X102899337Y-66747674D01*
X102898748Y-66746412D01*
X102897933Y-66743673D01*
X102895699Y-66738253D01*
X102895024Y-66736985D01*
X102894745Y-66735547D01*
X102893091Y-66729925D01*
X102891992Y-66727207D01*
X102891658Y-66725848D01*
X102891392Y-66723014D01*
X102890254Y-66717266D01*
X102889840Y-66715898D01*
X102889846Y-66714436D01*
X102889315Y-66708599D01*
X102888514Y-66704407D01*
X102888148Y-66696936D01*
X102888148Y-64706849D01*
X102888753Y-64700950D01*
X102888753Y-64700000D01*
X102888754Y-64699615D01*
X102888757Y-64699216D01*
X102888931Y-64699217D01*
X102888935Y-64699177D01*
X102888757Y-64699176D01*
X102888760Y-64698777D01*
X102888881Y-64696756D01*
X102888610Y-64694008D01*
X102888805Y-64690747D01*
X102888817Y-64690357D01*
X102889027Y-64688481D01*
X102889080Y-64687988D01*
X102890376Y-64681875D01*
X102890377Y-64681866D01*
X102891311Y-64677460D01*
X102892281Y-64672745D01*
X102893519Y-64666724D01*
X102895954Y-64661025D01*
X102895973Y-64660966D01*
X102897745Y-64656818D01*
X102899652Y-64652294D01*
X102899677Y-64652248D01*
X102902112Y-64646471D01*
X102902178Y-64646350D01*
X102908140Y-64637654D01*
X102908697Y-64636835D01*
X102914148Y-64628749D01*
X102914329Y-64628532D01*
X102921320Y-64621683D01*
X102921939Y-64621072D01*
X102929676Y-64613386D01*
X102929978Y-64613142D01*
X102938386Y-64607646D01*
X102939219Y-64607097D01*
X102947751Y-64601423D01*
X102947918Y-64601335D01*
X102953715Y-64598988D01*
X102953727Y-64598982D01*
X102958087Y-64597218D01*
X102962388Y-64595448D01*
X102962412Y-64595441D01*
X102968041Y-64593125D01*
X102974051Y-64591971D01*
X102974165Y-64591937D01*
X102978712Y-64591064D01*
X102983464Y-64590129D01*
X102983551Y-64590121D01*
X102989713Y-64588908D01*
X102989937Y-64588887D01*
X102991904Y-64588694D01*
X103003051Y-64588148D01*
X104993151Y-64588148D01*
X104999050Y-64588753D01*
G37*
M02*
