G04 #@! TF.GenerationSoftware,KiCad,Pcbnew,(5.1.5)-3*
G04 #@! TF.CreationDate,2020-05-12T16:51:07+05:30*
G04 #@! TF.ProjectId,Teseo_Mod,54657365-6f5f-44d6-9f64-2e6b69636164,rev?*
G04 #@! TF.SameCoordinates,Original*
G04 #@! TF.FileFunction,Paste,Top*
G04 #@! TF.FilePolarity,Positive*
%FSLAX46Y46*%
G04 Gerber Fmt 4.6, Leading zero omitted, Abs format (unit mm)*
G04 Created by KiCad (PCBNEW (5.1.5)-3) date 2020-05-12 16:51:07*
%MOMM*%
%LPD*%
G04 APERTURE LIST*
%ADD10R,0.200000X0.200000*%
%ADD11C,0.100000*%
%ADD12R,4.200000X1.350000*%
%ADD13R,3.600000X1.270000*%
%ADD14R,0.180000X0.250000*%
%ADD15R,1.600000X0.900000*%
G04 APERTURE END LIST*
D10*
X164400000Y-112200000D03*
X164400000Y-112600000D03*
X164400000Y-113000000D03*
X164800000Y-113000000D03*
X164800000Y-112600000D03*
X164800000Y-112200000D03*
D11*
G36*
X164432292Y-110320383D02*
G01*
X164440010Y-110321528D01*
X164447578Y-110323423D01*
X164454923Y-110326052D01*
X164461976Y-110329387D01*
X164468668Y-110333398D01*
X164474934Y-110338046D01*
X164480715Y-110343285D01*
X164485954Y-110349066D01*
X164490602Y-110355332D01*
X164494613Y-110362024D01*
X164497948Y-110369077D01*
X164500577Y-110376422D01*
X164502472Y-110383990D01*
X164503617Y-110391708D01*
X164504000Y-110399500D01*
X164504000Y-110600500D01*
X164503617Y-110608292D01*
X164502472Y-110616010D01*
X164500577Y-110623578D01*
X164497948Y-110630923D01*
X164494613Y-110637976D01*
X164490602Y-110644668D01*
X164485954Y-110650934D01*
X164480715Y-110656715D01*
X164474934Y-110661954D01*
X164468668Y-110666602D01*
X164461976Y-110670613D01*
X164454923Y-110673948D01*
X164447578Y-110676577D01*
X164440010Y-110678472D01*
X164432292Y-110679617D01*
X164424500Y-110680000D01*
X164265500Y-110680000D01*
X164257708Y-110679617D01*
X164249990Y-110678472D01*
X164242422Y-110676577D01*
X164235077Y-110673948D01*
X164228024Y-110670613D01*
X164221332Y-110666602D01*
X164215066Y-110661954D01*
X164209285Y-110656715D01*
X164204046Y-110650934D01*
X164199398Y-110644668D01*
X164195387Y-110637976D01*
X164192052Y-110630923D01*
X164189423Y-110623578D01*
X164187528Y-110616010D01*
X164186383Y-110608292D01*
X164186000Y-110600500D01*
X164186000Y-110399500D01*
X164186383Y-110391708D01*
X164187528Y-110383990D01*
X164189423Y-110376422D01*
X164192052Y-110369077D01*
X164195387Y-110362024D01*
X164199398Y-110355332D01*
X164204046Y-110349066D01*
X164209285Y-110343285D01*
X164215066Y-110338046D01*
X164221332Y-110333398D01*
X164228024Y-110329387D01*
X164235077Y-110326052D01*
X164242422Y-110323423D01*
X164249990Y-110321528D01*
X164257708Y-110320383D01*
X164265500Y-110320000D01*
X164424500Y-110320000D01*
X164432292Y-110320383D01*
G37*
G36*
X163742292Y-110320383D02*
G01*
X163750010Y-110321528D01*
X163757578Y-110323423D01*
X163764923Y-110326052D01*
X163771976Y-110329387D01*
X163778668Y-110333398D01*
X163784934Y-110338046D01*
X163790715Y-110343285D01*
X163795954Y-110349066D01*
X163800602Y-110355332D01*
X163804613Y-110362024D01*
X163807948Y-110369077D01*
X163810577Y-110376422D01*
X163812472Y-110383990D01*
X163813617Y-110391708D01*
X163814000Y-110399500D01*
X163814000Y-110600500D01*
X163813617Y-110608292D01*
X163812472Y-110616010D01*
X163810577Y-110623578D01*
X163807948Y-110630923D01*
X163804613Y-110637976D01*
X163800602Y-110644668D01*
X163795954Y-110650934D01*
X163790715Y-110656715D01*
X163784934Y-110661954D01*
X163778668Y-110666602D01*
X163771976Y-110670613D01*
X163764923Y-110673948D01*
X163757578Y-110676577D01*
X163750010Y-110678472D01*
X163742292Y-110679617D01*
X163734500Y-110680000D01*
X163575500Y-110680000D01*
X163567708Y-110679617D01*
X163559990Y-110678472D01*
X163552422Y-110676577D01*
X163545077Y-110673948D01*
X163538024Y-110670613D01*
X163531332Y-110666602D01*
X163525066Y-110661954D01*
X163519285Y-110656715D01*
X163514046Y-110650934D01*
X163509398Y-110644668D01*
X163505387Y-110637976D01*
X163502052Y-110630923D01*
X163499423Y-110623578D01*
X163497528Y-110616010D01*
X163496383Y-110608292D01*
X163496000Y-110600500D01*
X163496000Y-110399500D01*
X163496383Y-110391708D01*
X163497528Y-110383990D01*
X163499423Y-110376422D01*
X163502052Y-110369077D01*
X163505387Y-110362024D01*
X163509398Y-110355332D01*
X163514046Y-110349066D01*
X163519285Y-110343285D01*
X163525066Y-110338046D01*
X163531332Y-110333398D01*
X163538024Y-110329387D01*
X163545077Y-110326052D01*
X163552422Y-110323423D01*
X163559990Y-110321528D01*
X163567708Y-110320383D01*
X163575500Y-110320000D01*
X163734500Y-110320000D01*
X163742292Y-110320383D01*
G37*
G36*
X165608292Y-111651383D02*
G01*
X165616010Y-111652528D01*
X165623578Y-111654423D01*
X165630923Y-111657052D01*
X165637976Y-111660387D01*
X165644668Y-111664398D01*
X165650934Y-111669046D01*
X165656715Y-111674285D01*
X165661954Y-111680066D01*
X165666602Y-111686332D01*
X165670613Y-111693024D01*
X165673948Y-111700077D01*
X165676577Y-111707422D01*
X165678472Y-111714990D01*
X165679617Y-111722708D01*
X165680000Y-111730500D01*
X165680000Y-111889500D01*
X165679617Y-111897292D01*
X165678472Y-111905010D01*
X165676577Y-111912578D01*
X165673948Y-111919923D01*
X165670613Y-111926976D01*
X165666602Y-111933668D01*
X165661954Y-111939934D01*
X165656715Y-111945715D01*
X165650934Y-111950954D01*
X165644668Y-111955602D01*
X165637976Y-111959613D01*
X165630923Y-111962948D01*
X165623578Y-111965577D01*
X165616010Y-111967472D01*
X165608292Y-111968617D01*
X165600500Y-111969000D01*
X165399500Y-111969000D01*
X165391708Y-111968617D01*
X165383990Y-111967472D01*
X165376422Y-111965577D01*
X165369077Y-111962948D01*
X165362024Y-111959613D01*
X165355332Y-111955602D01*
X165349066Y-111950954D01*
X165343285Y-111945715D01*
X165338046Y-111939934D01*
X165333398Y-111933668D01*
X165329387Y-111926976D01*
X165326052Y-111919923D01*
X165323423Y-111912578D01*
X165321528Y-111905010D01*
X165320383Y-111897292D01*
X165320000Y-111889500D01*
X165320000Y-111730500D01*
X165320383Y-111722708D01*
X165321528Y-111714990D01*
X165323423Y-111707422D01*
X165326052Y-111700077D01*
X165329387Y-111693024D01*
X165333398Y-111686332D01*
X165338046Y-111680066D01*
X165343285Y-111674285D01*
X165349066Y-111669046D01*
X165355332Y-111664398D01*
X165362024Y-111660387D01*
X165369077Y-111657052D01*
X165376422Y-111654423D01*
X165383990Y-111652528D01*
X165391708Y-111651383D01*
X165399500Y-111651000D01*
X165600500Y-111651000D01*
X165608292Y-111651383D01*
G37*
G36*
X165608292Y-112341383D02*
G01*
X165616010Y-112342528D01*
X165623578Y-112344423D01*
X165630923Y-112347052D01*
X165637976Y-112350387D01*
X165644668Y-112354398D01*
X165650934Y-112359046D01*
X165656715Y-112364285D01*
X165661954Y-112370066D01*
X165666602Y-112376332D01*
X165670613Y-112383024D01*
X165673948Y-112390077D01*
X165676577Y-112397422D01*
X165678472Y-112404990D01*
X165679617Y-112412708D01*
X165680000Y-112420500D01*
X165680000Y-112579500D01*
X165679617Y-112587292D01*
X165678472Y-112595010D01*
X165676577Y-112602578D01*
X165673948Y-112609923D01*
X165670613Y-112616976D01*
X165666602Y-112623668D01*
X165661954Y-112629934D01*
X165656715Y-112635715D01*
X165650934Y-112640954D01*
X165644668Y-112645602D01*
X165637976Y-112649613D01*
X165630923Y-112652948D01*
X165623578Y-112655577D01*
X165616010Y-112657472D01*
X165608292Y-112658617D01*
X165600500Y-112659000D01*
X165399500Y-112659000D01*
X165391708Y-112658617D01*
X165383990Y-112657472D01*
X165376422Y-112655577D01*
X165369077Y-112652948D01*
X165362024Y-112649613D01*
X165355332Y-112645602D01*
X165349066Y-112640954D01*
X165343285Y-112635715D01*
X165338046Y-112629934D01*
X165333398Y-112623668D01*
X165329387Y-112616976D01*
X165326052Y-112609923D01*
X165323423Y-112602578D01*
X165321528Y-112595010D01*
X165320383Y-112587292D01*
X165320000Y-112579500D01*
X165320000Y-112420500D01*
X165320383Y-112412708D01*
X165321528Y-112404990D01*
X165323423Y-112397422D01*
X165326052Y-112390077D01*
X165329387Y-112383024D01*
X165333398Y-112376332D01*
X165338046Y-112370066D01*
X165343285Y-112364285D01*
X165349066Y-112359046D01*
X165355332Y-112354398D01*
X165362024Y-112350387D01*
X165369077Y-112347052D01*
X165376422Y-112344423D01*
X165383990Y-112342528D01*
X165391708Y-112341383D01*
X165399500Y-112341000D01*
X165600500Y-112341000D01*
X165608292Y-112341383D01*
G37*
G36*
X162342292Y-114120383D02*
G01*
X162350010Y-114121528D01*
X162357578Y-114123423D01*
X162364923Y-114126052D01*
X162371976Y-114129387D01*
X162378668Y-114133398D01*
X162384934Y-114138046D01*
X162390715Y-114143285D01*
X162395954Y-114149066D01*
X162400602Y-114155332D01*
X162404613Y-114162024D01*
X162407948Y-114169077D01*
X162410577Y-114176422D01*
X162412472Y-114183990D01*
X162413617Y-114191708D01*
X162414000Y-114199500D01*
X162414000Y-114400500D01*
X162413617Y-114408292D01*
X162412472Y-114416010D01*
X162410577Y-114423578D01*
X162407948Y-114430923D01*
X162404613Y-114437976D01*
X162400602Y-114444668D01*
X162395954Y-114450934D01*
X162390715Y-114456715D01*
X162384934Y-114461954D01*
X162378668Y-114466602D01*
X162371976Y-114470613D01*
X162364923Y-114473948D01*
X162357578Y-114476577D01*
X162350010Y-114478472D01*
X162342292Y-114479617D01*
X162334500Y-114480000D01*
X162175500Y-114480000D01*
X162167708Y-114479617D01*
X162159990Y-114478472D01*
X162152422Y-114476577D01*
X162145077Y-114473948D01*
X162138024Y-114470613D01*
X162131332Y-114466602D01*
X162125066Y-114461954D01*
X162119285Y-114456715D01*
X162114046Y-114450934D01*
X162109398Y-114444668D01*
X162105387Y-114437976D01*
X162102052Y-114430923D01*
X162099423Y-114423578D01*
X162097528Y-114416010D01*
X162096383Y-114408292D01*
X162096000Y-114400500D01*
X162096000Y-114199500D01*
X162096383Y-114191708D01*
X162097528Y-114183990D01*
X162099423Y-114176422D01*
X162102052Y-114169077D01*
X162105387Y-114162024D01*
X162109398Y-114155332D01*
X162114046Y-114149066D01*
X162119285Y-114143285D01*
X162125066Y-114138046D01*
X162131332Y-114133398D01*
X162138024Y-114129387D01*
X162145077Y-114126052D01*
X162152422Y-114123423D01*
X162159990Y-114121528D01*
X162167708Y-114120383D01*
X162175500Y-114120000D01*
X162334500Y-114120000D01*
X162342292Y-114120383D01*
G37*
G36*
X163032292Y-114120383D02*
G01*
X163040010Y-114121528D01*
X163047578Y-114123423D01*
X163054923Y-114126052D01*
X163061976Y-114129387D01*
X163068668Y-114133398D01*
X163074934Y-114138046D01*
X163080715Y-114143285D01*
X163085954Y-114149066D01*
X163090602Y-114155332D01*
X163094613Y-114162024D01*
X163097948Y-114169077D01*
X163100577Y-114176422D01*
X163102472Y-114183990D01*
X163103617Y-114191708D01*
X163104000Y-114199500D01*
X163104000Y-114400500D01*
X163103617Y-114408292D01*
X163102472Y-114416010D01*
X163100577Y-114423578D01*
X163097948Y-114430923D01*
X163094613Y-114437976D01*
X163090602Y-114444668D01*
X163085954Y-114450934D01*
X163080715Y-114456715D01*
X163074934Y-114461954D01*
X163068668Y-114466602D01*
X163061976Y-114470613D01*
X163054923Y-114473948D01*
X163047578Y-114476577D01*
X163040010Y-114478472D01*
X163032292Y-114479617D01*
X163024500Y-114480000D01*
X162865500Y-114480000D01*
X162857708Y-114479617D01*
X162849990Y-114478472D01*
X162842422Y-114476577D01*
X162835077Y-114473948D01*
X162828024Y-114470613D01*
X162821332Y-114466602D01*
X162815066Y-114461954D01*
X162809285Y-114456715D01*
X162804046Y-114450934D01*
X162799398Y-114444668D01*
X162795387Y-114437976D01*
X162792052Y-114430923D01*
X162789423Y-114423578D01*
X162787528Y-114416010D01*
X162786383Y-114408292D01*
X162786000Y-114400500D01*
X162786000Y-114199500D01*
X162786383Y-114191708D01*
X162787528Y-114183990D01*
X162789423Y-114176422D01*
X162792052Y-114169077D01*
X162795387Y-114162024D01*
X162799398Y-114155332D01*
X162804046Y-114149066D01*
X162809285Y-114143285D01*
X162815066Y-114138046D01*
X162821332Y-114133398D01*
X162828024Y-114129387D01*
X162835077Y-114126052D01*
X162842422Y-114123423D01*
X162849990Y-114121528D01*
X162857708Y-114120383D01*
X162865500Y-114120000D01*
X163024500Y-114120000D01*
X163032292Y-114120383D01*
G37*
G36*
X148408292Y-111451383D02*
G01*
X148416010Y-111452528D01*
X148423578Y-111454423D01*
X148430923Y-111457052D01*
X148437976Y-111460387D01*
X148444668Y-111464398D01*
X148450934Y-111469046D01*
X148456715Y-111474285D01*
X148461954Y-111480066D01*
X148466602Y-111486332D01*
X148470613Y-111493024D01*
X148473948Y-111500077D01*
X148476577Y-111507422D01*
X148478472Y-111514990D01*
X148479617Y-111522708D01*
X148480000Y-111530500D01*
X148480000Y-111689500D01*
X148479617Y-111697292D01*
X148478472Y-111705010D01*
X148476577Y-111712578D01*
X148473948Y-111719923D01*
X148470613Y-111726976D01*
X148466602Y-111733668D01*
X148461954Y-111739934D01*
X148456715Y-111745715D01*
X148450934Y-111750954D01*
X148444668Y-111755602D01*
X148437976Y-111759613D01*
X148430923Y-111762948D01*
X148423578Y-111765577D01*
X148416010Y-111767472D01*
X148408292Y-111768617D01*
X148400500Y-111769000D01*
X148199500Y-111769000D01*
X148191708Y-111768617D01*
X148183990Y-111767472D01*
X148176422Y-111765577D01*
X148169077Y-111762948D01*
X148162024Y-111759613D01*
X148155332Y-111755602D01*
X148149066Y-111750954D01*
X148143285Y-111745715D01*
X148138046Y-111739934D01*
X148133398Y-111733668D01*
X148129387Y-111726976D01*
X148126052Y-111719923D01*
X148123423Y-111712578D01*
X148121528Y-111705010D01*
X148120383Y-111697292D01*
X148120000Y-111689500D01*
X148120000Y-111530500D01*
X148120383Y-111522708D01*
X148121528Y-111514990D01*
X148123423Y-111507422D01*
X148126052Y-111500077D01*
X148129387Y-111493024D01*
X148133398Y-111486332D01*
X148138046Y-111480066D01*
X148143285Y-111474285D01*
X148149066Y-111469046D01*
X148155332Y-111464398D01*
X148162024Y-111460387D01*
X148169077Y-111457052D01*
X148176422Y-111454423D01*
X148183990Y-111452528D01*
X148191708Y-111451383D01*
X148199500Y-111451000D01*
X148400500Y-111451000D01*
X148408292Y-111451383D01*
G37*
G36*
X148408292Y-112141383D02*
G01*
X148416010Y-112142528D01*
X148423578Y-112144423D01*
X148430923Y-112147052D01*
X148437976Y-112150387D01*
X148444668Y-112154398D01*
X148450934Y-112159046D01*
X148456715Y-112164285D01*
X148461954Y-112170066D01*
X148466602Y-112176332D01*
X148470613Y-112183024D01*
X148473948Y-112190077D01*
X148476577Y-112197422D01*
X148478472Y-112204990D01*
X148479617Y-112212708D01*
X148480000Y-112220500D01*
X148480000Y-112379500D01*
X148479617Y-112387292D01*
X148478472Y-112395010D01*
X148476577Y-112402578D01*
X148473948Y-112409923D01*
X148470613Y-112416976D01*
X148466602Y-112423668D01*
X148461954Y-112429934D01*
X148456715Y-112435715D01*
X148450934Y-112440954D01*
X148444668Y-112445602D01*
X148437976Y-112449613D01*
X148430923Y-112452948D01*
X148423578Y-112455577D01*
X148416010Y-112457472D01*
X148408292Y-112458617D01*
X148400500Y-112459000D01*
X148199500Y-112459000D01*
X148191708Y-112458617D01*
X148183990Y-112457472D01*
X148176422Y-112455577D01*
X148169077Y-112452948D01*
X148162024Y-112449613D01*
X148155332Y-112445602D01*
X148149066Y-112440954D01*
X148143285Y-112435715D01*
X148138046Y-112429934D01*
X148133398Y-112423668D01*
X148129387Y-112416976D01*
X148126052Y-112409923D01*
X148123423Y-112402578D01*
X148121528Y-112395010D01*
X148120383Y-112387292D01*
X148120000Y-112379500D01*
X148120000Y-112220500D01*
X148120383Y-112212708D01*
X148121528Y-112204990D01*
X148123423Y-112197422D01*
X148126052Y-112190077D01*
X148129387Y-112183024D01*
X148133398Y-112176332D01*
X148138046Y-112170066D01*
X148143285Y-112164285D01*
X148149066Y-112159046D01*
X148155332Y-112154398D01*
X148162024Y-112150387D01*
X148169077Y-112147052D01*
X148176422Y-112144423D01*
X148183990Y-112142528D01*
X148191708Y-112141383D01*
X148199500Y-112141000D01*
X148400500Y-112141000D01*
X148408292Y-112141383D01*
G37*
G36*
X162408292Y-110866383D02*
G01*
X162416010Y-110867528D01*
X162423578Y-110869423D01*
X162430923Y-110872052D01*
X162437976Y-110875387D01*
X162444668Y-110879398D01*
X162450934Y-110884046D01*
X162456715Y-110889285D01*
X162461954Y-110895066D01*
X162466602Y-110901332D01*
X162470613Y-110908024D01*
X162473948Y-110915077D01*
X162476577Y-110922422D01*
X162478472Y-110929990D01*
X162479617Y-110937708D01*
X162480000Y-110945500D01*
X162480000Y-111104500D01*
X162479617Y-111112292D01*
X162478472Y-111120010D01*
X162476577Y-111127578D01*
X162473948Y-111134923D01*
X162470613Y-111141976D01*
X162466602Y-111148668D01*
X162461954Y-111154934D01*
X162456715Y-111160715D01*
X162450934Y-111165954D01*
X162444668Y-111170602D01*
X162437976Y-111174613D01*
X162430923Y-111177948D01*
X162423578Y-111180577D01*
X162416010Y-111182472D01*
X162408292Y-111183617D01*
X162400500Y-111184000D01*
X162199500Y-111184000D01*
X162191708Y-111183617D01*
X162183990Y-111182472D01*
X162176422Y-111180577D01*
X162169077Y-111177948D01*
X162162024Y-111174613D01*
X162155332Y-111170602D01*
X162149066Y-111165954D01*
X162143285Y-111160715D01*
X162138046Y-111154934D01*
X162133398Y-111148668D01*
X162129387Y-111141976D01*
X162126052Y-111134923D01*
X162123423Y-111127578D01*
X162121528Y-111120010D01*
X162120383Y-111112292D01*
X162120000Y-111104500D01*
X162120000Y-110945500D01*
X162120383Y-110937708D01*
X162121528Y-110929990D01*
X162123423Y-110922422D01*
X162126052Y-110915077D01*
X162129387Y-110908024D01*
X162133398Y-110901332D01*
X162138046Y-110895066D01*
X162143285Y-110889285D01*
X162149066Y-110884046D01*
X162155332Y-110879398D01*
X162162024Y-110875387D01*
X162169077Y-110872052D01*
X162176422Y-110869423D01*
X162183990Y-110867528D01*
X162191708Y-110866383D01*
X162199500Y-110866000D01*
X162400500Y-110866000D01*
X162408292Y-110866383D01*
G37*
G36*
X162408292Y-110176383D02*
G01*
X162416010Y-110177528D01*
X162423578Y-110179423D01*
X162430923Y-110182052D01*
X162437976Y-110185387D01*
X162444668Y-110189398D01*
X162450934Y-110194046D01*
X162456715Y-110199285D01*
X162461954Y-110205066D01*
X162466602Y-110211332D01*
X162470613Y-110218024D01*
X162473948Y-110225077D01*
X162476577Y-110232422D01*
X162478472Y-110239990D01*
X162479617Y-110247708D01*
X162480000Y-110255500D01*
X162480000Y-110414500D01*
X162479617Y-110422292D01*
X162478472Y-110430010D01*
X162476577Y-110437578D01*
X162473948Y-110444923D01*
X162470613Y-110451976D01*
X162466602Y-110458668D01*
X162461954Y-110464934D01*
X162456715Y-110470715D01*
X162450934Y-110475954D01*
X162444668Y-110480602D01*
X162437976Y-110484613D01*
X162430923Y-110487948D01*
X162423578Y-110490577D01*
X162416010Y-110492472D01*
X162408292Y-110493617D01*
X162400500Y-110494000D01*
X162199500Y-110494000D01*
X162191708Y-110493617D01*
X162183990Y-110492472D01*
X162176422Y-110490577D01*
X162169077Y-110487948D01*
X162162024Y-110484613D01*
X162155332Y-110480602D01*
X162149066Y-110475954D01*
X162143285Y-110470715D01*
X162138046Y-110464934D01*
X162133398Y-110458668D01*
X162129387Y-110451976D01*
X162126052Y-110444923D01*
X162123423Y-110437578D01*
X162121528Y-110430010D01*
X162120383Y-110422292D01*
X162120000Y-110414500D01*
X162120000Y-110255500D01*
X162120383Y-110247708D01*
X162121528Y-110239990D01*
X162123423Y-110232422D01*
X162126052Y-110225077D01*
X162129387Y-110218024D01*
X162133398Y-110211332D01*
X162138046Y-110205066D01*
X162143285Y-110199285D01*
X162149066Y-110194046D01*
X162155332Y-110189398D01*
X162162024Y-110185387D01*
X162169077Y-110182052D01*
X162176422Y-110179423D01*
X162183990Y-110177528D01*
X162191708Y-110176383D01*
X162199500Y-110176000D01*
X162400500Y-110176000D01*
X162408292Y-110176383D01*
G37*
G36*
X148908292Y-113886383D02*
G01*
X148916010Y-113887528D01*
X148923578Y-113889423D01*
X148930923Y-113892052D01*
X148937976Y-113895387D01*
X148944668Y-113899398D01*
X148950934Y-113904046D01*
X148956715Y-113909285D01*
X148961954Y-113915066D01*
X148966602Y-113921332D01*
X148970613Y-113928024D01*
X148973948Y-113935077D01*
X148976577Y-113942422D01*
X148978472Y-113949990D01*
X148979617Y-113957708D01*
X148980000Y-113965500D01*
X148980000Y-114124500D01*
X148979617Y-114132292D01*
X148978472Y-114140010D01*
X148976577Y-114147578D01*
X148973948Y-114154923D01*
X148970613Y-114161976D01*
X148966602Y-114168668D01*
X148961954Y-114174934D01*
X148956715Y-114180715D01*
X148950934Y-114185954D01*
X148944668Y-114190602D01*
X148937976Y-114194613D01*
X148930923Y-114197948D01*
X148923578Y-114200577D01*
X148916010Y-114202472D01*
X148908292Y-114203617D01*
X148900500Y-114204000D01*
X148699500Y-114204000D01*
X148691708Y-114203617D01*
X148683990Y-114202472D01*
X148676422Y-114200577D01*
X148669077Y-114197948D01*
X148662024Y-114194613D01*
X148655332Y-114190602D01*
X148649066Y-114185954D01*
X148643285Y-114180715D01*
X148638046Y-114174934D01*
X148633398Y-114168668D01*
X148629387Y-114161976D01*
X148626052Y-114154923D01*
X148623423Y-114147578D01*
X148621528Y-114140010D01*
X148620383Y-114132292D01*
X148620000Y-114124500D01*
X148620000Y-113965500D01*
X148620383Y-113957708D01*
X148621528Y-113949990D01*
X148623423Y-113942422D01*
X148626052Y-113935077D01*
X148629387Y-113928024D01*
X148633398Y-113921332D01*
X148638046Y-113915066D01*
X148643285Y-113909285D01*
X148649066Y-113904046D01*
X148655332Y-113899398D01*
X148662024Y-113895387D01*
X148669077Y-113892052D01*
X148676422Y-113889423D01*
X148683990Y-113887528D01*
X148691708Y-113886383D01*
X148699500Y-113886000D01*
X148900500Y-113886000D01*
X148908292Y-113886383D01*
G37*
G36*
X148908292Y-113196383D02*
G01*
X148916010Y-113197528D01*
X148923578Y-113199423D01*
X148930923Y-113202052D01*
X148937976Y-113205387D01*
X148944668Y-113209398D01*
X148950934Y-113214046D01*
X148956715Y-113219285D01*
X148961954Y-113225066D01*
X148966602Y-113231332D01*
X148970613Y-113238024D01*
X148973948Y-113245077D01*
X148976577Y-113252422D01*
X148978472Y-113259990D01*
X148979617Y-113267708D01*
X148980000Y-113275500D01*
X148980000Y-113434500D01*
X148979617Y-113442292D01*
X148978472Y-113450010D01*
X148976577Y-113457578D01*
X148973948Y-113464923D01*
X148970613Y-113471976D01*
X148966602Y-113478668D01*
X148961954Y-113484934D01*
X148956715Y-113490715D01*
X148950934Y-113495954D01*
X148944668Y-113500602D01*
X148937976Y-113504613D01*
X148930923Y-113507948D01*
X148923578Y-113510577D01*
X148916010Y-113512472D01*
X148908292Y-113513617D01*
X148900500Y-113514000D01*
X148699500Y-113514000D01*
X148691708Y-113513617D01*
X148683990Y-113512472D01*
X148676422Y-113510577D01*
X148669077Y-113507948D01*
X148662024Y-113504613D01*
X148655332Y-113500602D01*
X148649066Y-113495954D01*
X148643285Y-113490715D01*
X148638046Y-113484934D01*
X148633398Y-113478668D01*
X148629387Y-113471976D01*
X148626052Y-113464923D01*
X148623423Y-113457578D01*
X148621528Y-113450010D01*
X148620383Y-113442292D01*
X148620000Y-113434500D01*
X148620000Y-113275500D01*
X148620383Y-113267708D01*
X148621528Y-113259990D01*
X148623423Y-113252422D01*
X148626052Y-113245077D01*
X148629387Y-113238024D01*
X148633398Y-113231332D01*
X148638046Y-113225066D01*
X148643285Y-113219285D01*
X148649066Y-113214046D01*
X148655332Y-113209398D01*
X148662024Y-113205387D01*
X148669077Y-113202052D01*
X148676422Y-113199423D01*
X148683990Y-113197528D01*
X148691708Y-113196383D01*
X148699500Y-113196000D01*
X148900500Y-113196000D01*
X148908292Y-113196383D01*
G37*
G36*
X146508292Y-113196383D02*
G01*
X146516010Y-113197528D01*
X146523578Y-113199423D01*
X146530923Y-113202052D01*
X146537976Y-113205387D01*
X146544668Y-113209398D01*
X146550934Y-113214046D01*
X146556715Y-113219285D01*
X146561954Y-113225066D01*
X146566602Y-113231332D01*
X146570613Y-113238024D01*
X146573948Y-113245077D01*
X146576577Y-113252422D01*
X146578472Y-113259990D01*
X146579617Y-113267708D01*
X146580000Y-113275500D01*
X146580000Y-113434500D01*
X146579617Y-113442292D01*
X146578472Y-113450010D01*
X146576577Y-113457578D01*
X146573948Y-113464923D01*
X146570613Y-113471976D01*
X146566602Y-113478668D01*
X146561954Y-113484934D01*
X146556715Y-113490715D01*
X146550934Y-113495954D01*
X146544668Y-113500602D01*
X146537976Y-113504613D01*
X146530923Y-113507948D01*
X146523578Y-113510577D01*
X146516010Y-113512472D01*
X146508292Y-113513617D01*
X146500500Y-113514000D01*
X146299500Y-113514000D01*
X146291708Y-113513617D01*
X146283990Y-113512472D01*
X146276422Y-113510577D01*
X146269077Y-113507948D01*
X146262024Y-113504613D01*
X146255332Y-113500602D01*
X146249066Y-113495954D01*
X146243285Y-113490715D01*
X146238046Y-113484934D01*
X146233398Y-113478668D01*
X146229387Y-113471976D01*
X146226052Y-113464923D01*
X146223423Y-113457578D01*
X146221528Y-113450010D01*
X146220383Y-113442292D01*
X146220000Y-113434500D01*
X146220000Y-113275500D01*
X146220383Y-113267708D01*
X146221528Y-113259990D01*
X146223423Y-113252422D01*
X146226052Y-113245077D01*
X146229387Y-113238024D01*
X146233398Y-113231332D01*
X146238046Y-113225066D01*
X146243285Y-113219285D01*
X146249066Y-113214046D01*
X146255332Y-113209398D01*
X146262024Y-113205387D01*
X146269077Y-113202052D01*
X146276422Y-113199423D01*
X146283990Y-113197528D01*
X146291708Y-113196383D01*
X146299500Y-113196000D01*
X146500500Y-113196000D01*
X146508292Y-113196383D01*
G37*
G36*
X146508292Y-113886383D02*
G01*
X146516010Y-113887528D01*
X146523578Y-113889423D01*
X146530923Y-113892052D01*
X146537976Y-113895387D01*
X146544668Y-113899398D01*
X146550934Y-113904046D01*
X146556715Y-113909285D01*
X146561954Y-113915066D01*
X146566602Y-113921332D01*
X146570613Y-113928024D01*
X146573948Y-113935077D01*
X146576577Y-113942422D01*
X146578472Y-113949990D01*
X146579617Y-113957708D01*
X146580000Y-113965500D01*
X146580000Y-114124500D01*
X146579617Y-114132292D01*
X146578472Y-114140010D01*
X146576577Y-114147578D01*
X146573948Y-114154923D01*
X146570613Y-114161976D01*
X146566602Y-114168668D01*
X146561954Y-114174934D01*
X146556715Y-114180715D01*
X146550934Y-114185954D01*
X146544668Y-114190602D01*
X146537976Y-114194613D01*
X146530923Y-114197948D01*
X146523578Y-114200577D01*
X146516010Y-114202472D01*
X146508292Y-114203617D01*
X146500500Y-114204000D01*
X146299500Y-114204000D01*
X146291708Y-114203617D01*
X146283990Y-114202472D01*
X146276422Y-114200577D01*
X146269077Y-114197948D01*
X146262024Y-114194613D01*
X146255332Y-114190602D01*
X146249066Y-114185954D01*
X146243285Y-114180715D01*
X146238046Y-114174934D01*
X146233398Y-114168668D01*
X146229387Y-114161976D01*
X146226052Y-114154923D01*
X146223423Y-114147578D01*
X146221528Y-114140010D01*
X146220383Y-114132292D01*
X146220000Y-114124500D01*
X146220000Y-113965500D01*
X146220383Y-113957708D01*
X146221528Y-113949990D01*
X146223423Y-113942422D01*
X146226052Y-113935077D01*
X146229387Y-113928024D01*
X146233398Y-113921332D01*
X146238046Y-113915066D01*
X146243285Y-113909285D01*
X146249066Y-113904046D01*
X146255332Y-113899398D01*
X146262024Y-113895387D01*
X146269077Y-113892052D01*
X146276422Y-113889423D01*
X146283990Y-113887528D01*
X146291708Y-113886383D01*
X146299500Y-113886000D01*
X146500500Y-113886000D01*
X146508292Y-113886383D01*
G37*
D12*
X169800000Y-113325000D03*
X169800000Y-107675000D03*
D13*
X169600000Y-110500000D03*
D11*
G36*
X163808292Y-111696383D02*
G01*
X163816010Y-111697528D01*
X163823578Y-111699423D01*
X163830923Y-111702052D01*
X163837976Y-111705387D01*
X163844668Y-111709398D01*
X163850934Y-111714046D01*
X163856715Y-111719285D01*
X163861954Y-111725066D01*
X163866602Y-111731332D01*
X163870613Y-111738024D01*
X163873948Y-111745077D01*
X163876577Y-111752422D01*
X163878472Y-111759990D01*
X163879617Y-111767708D01*
X163880000Y-111775500D01*
X163880000Y-111934500D01*
X163879617Y-111942292D01*
X163878472Y-111950010D01*
X163876577Y-111957578D01*
X163873948Y-111964923D01*
X163870613Y-111971976D01*
X163866602Y-111978668D01*
X163861954Y-111984934D01*
X163856715Y-111990715D01*
X163850934Y-111995954D01*
X163844668Y-112000602D01*
X163837976Y-112004613D01*
X163830923Y-112007948D01*
X163823578Y-112010577D01*
X163816010Y-112012472D01*
X163808292Y-112013617D01*
X163800500Y-112014000D01*
X163599500Y-112014000D01*
X163591708Y-112013617D01*
X163583990Y-112012472D01*
X163576422Y-112010577D01*
X163569077Y-112007948D01*
X163562024Y-112004613D01*
X163555332Y-112000602D01*
X163549066Y-111995954D01*
X163543285Y-111990715D01*
X163538046Y-111984934D01*
X163533398Y-111978668D01*
X163529387Y-111971976D01*
X163526052Y-111964923D01*
X163523423Y-111957578D01*
X163521528Y-111950010D01*
X163520383Y-111942292D01*
X163520000Y-111934500D01*
X163520000Y-111775500D01*
X163520383Y-111767708D01*
X163521528Y-111759990D01*
X163523423Y-111752422D01*
X163526052Y-111745077D01*
X163529387Y-111738024D01*
X163533398Y-111731332D01*
X163538046Y-111725066D01*
X163543285Y-111719285D01*
X163549066Y-111714046D01*
X163555332Y-111709398D01*
X163562024Y-111705387D01*
X163569077Y-111702052D01*
X163576422Y-111699423D01*
X163583990Y-111697528D01*
X163591708Y-111696383D01*
X163599500Y-111696000D01*
X163800500Y-111696000D01*
X163808292Y-111696383D01*
G37*
G36*
X163808292Y-112386383D02*
G01*
X163816010Y-112387528D01*
X163823578Y-112389423D01*
X163830923Y-112392052D01*
X163837976Y-112395387D01*
X163844668Y-112399398D01*
X163850934Y-112404046D01*
X163856715Y-112409285D01*
X163861954Y-112415066D01*
X163866602Y-112421332D01*
X163870613Y-112428024D01*
X163873948Y-112435077D01*
X163876577Y-112442422D01*
X163878472Y-112449990D01*
X163879617Y-112457708D01*
X163880000Y-112465500D01*
X163880000Y-112624500D01*
X163879617Y-112632292D01*
X163878472Y-112640010D01*
X163876577Y-112647578D01*
X163873948Y-112654923D01*
X163870613Y-112661976D01*
X163866602Y-112668668D01*
X163861954Y-112674934D01*
X163856715Y-112680715D01*
X163850934Y-112685954D01*
X163844668Y-112690602D01*
X163837976Y-112694613D01*
X163830923Y-112697948D01*
X163823578Y-112700577D01*
X163816010Y-112702472D01*
X163808292Y-112703617D01*
X163800500Y-112704000D01*
X163599500Y-112704000D01*
X163591708Y-112703617D01*
X163583990Y-112702472D01*
X163576422Y-112700577D01*
X163569077Y-112697948D01*
X163562024Y-112694613D01*
X163555332Y-112690602D01*
X163549066Y-112685954D01*
X163543285Y-112680715D01*
X163538046Y-112674934D01*
X163533398Y-112668668D01*
X163529387Y-112661976D01*
X163526052Y-112654923D01*
X163523423Y-112647578D01*
X163521528Y-112640010D01*
X163520383Y-112632292D01*
X163520000Y-112624500D01*
X163520000Y-112465500D01*
X163520383Y-112457708D01*
X163521528Y-112449990D01*
X163523423Y-112442422D01*
X163526052Y-112435077D01*
X163529387Y-112428024D01*
X163533398Y-112421332D01*
X163538046Y-112415066D01*
X163543285Y-112409285D01*
X163549066Y-112404046D01*
X163555332Y-112399398D01*
X163562024Y-112395387D01*
X163569077Y-112392052D01*
X163576422Y-112389423D01*
X163583990Y-112387528D01*
X163591708Y-112386383D01*
X163599500Y-112386000D01*
X163800500Y-112386000D01*
X163808292Y-112386383D01*
G37*
G36*
X148032292Y-113120383D02*
G01*
X148040010Y-113121528D01*
X148047578Y-113123423D01*
X148054923Y-113126052D01*
X148061976Y-113129387D01*
X148068668Y-113133398D01*
X148074934Y-113138046D01*
X148080715Y-113143285D01*
X148085954Y-113149066D01*
X148090602Y-113155332D01*
X148094613Y-113162024D01*
X148097948Y-113169077D01*
X148100577Y-113176422D01*
X148102472Y-113183990D01*
X148103617Y-113191708D01*
X148104000Y-113199500D01*
X148104000Y-113400500D01*
X148103617Y-113408292D01*
X148102472Y-113416010D01*
X148100577Y-113423578D01*
X148097948Y-113430923D01*
X148094613Y-113437976D01*
X148090602Y-113444668D01*
X148085954Y-113450934D01*
X148080715Y-113456715D01*
X148074934Y-113461954D01*
X148068668Y-113466602D01*
X148061976Y-113470613D01*
X148054923Y-113473948D01*
X148047578Y-113476577D01*
X148040010Y-113478472D01*
X148032292Y-113479617D01*
X148024500Y-113480000D01*
X147865500Y-113480000D01*
X147857708Y-113479617D01*
X147849990Y-113478472D01*
X147842422Y-113476577D01*
X147835077Y-113473948D01*
X147828024Y-113470613D01*
X147821332Y-113466602D01*
X147815066Y-113461954D01*
X147809285Y-113456715D01*
X147804046Y-113450934D01*
X147799398Y-113444668D01*
X147795387Y-113437976D01*
X147792052Y-113430923D01*
X147789423Y-113423578D01*
X147787528Y-113416010D01*
X147786383Y-113408292D01*
X147786000Y-113400500D01*
X147786000Y-113199500D01*
X147786383Y-113191708D01*
X147787528Y-113183990D01*
X147789423Y-113176422D01*
X147792052Y-113169077D01*
X147795387Y-113162024D01*
X147799398Y-113155332D01*
X147804046Y-113149066D01*
X147809285Y-113143285D01*
X147815066Y-113138046D01*
X147821332Y-113133398D01*
X147828024Y-113129387D01*
X147835077Y-113126052D01*
X147842422Y-113123423D01*
X147849990Y-113121528D01*
X147857708Y-113120383D01*
X147865500Y-113120000D01*
X148024500Y-113120000D01*
X148032292Y-113120383D01*
G37*
G36*
X147342292Y-113120383D02*
G01*
X147350010Y-113121528D01*
X147357578Y-113123423D01*
X147364923Y-113126052D01*
X147371976Y-113129387D01*
X147378668Y-113133398D01*
X147384934Y-113138046D01*
X147390715Y-113143285D01*
X147395954Y-113149066D01*
X147400602Y-113155332D01*
X147404613Y-113162024D01*
X147407948Y-113169077D01*
X147410577Y-113176422D01*
X147412472Y-113183990D01*
X147413617Y-113191708D01*
X147414000Y-113199500D01*
X147414000Y-113400500D01*
X147413617Y-113408292D01*
X147412472Y-113416010D01*
X147410577Y-113423578D01*
X147407948Y-113430923D01*
X147404613Y-113437976D01*
X147400602Y-113444668D01*
X147395954Y-113450934D01*
X147390715Y-113456715D01*
X147384934Y-113461954D01*
X147378668Y-113466602D01*
X147371976Y-113470613D01*
X147364923Y-113473948D01*
X147357578Y-113476577D01*
X147350010Y-113478472D01*
X147342292Y-113479617D01*
X147334500Y-113480000D01*
X147175500Y-113480000D01*
X147167708Y-113479617D01*
X147159990Y-113478472D01*
X147152422Y-113476577D01*
X147145077Y-113473948D01*
X147138024Y-113470613D01*
X147131332Y-113466602D01*
X147125066Y-113461954D01*
X147119285Y-113456715D01*
X147114046Y-113450934D01*
X147109398Y-113444668D01*
X147105387Y-113437976D01*
X147102052Y-113430923D01*
X147099423Y-113423578D01*
X147097528Y-113416010D01*
X147096383Y-113408292D01*
X147096000Y-113400500D01*
X147096000Y-113199500D01*
X147096383Y-113191708D01*
X147097528Y-113183990D01*
X147099423Y-113176422D01*
X147102052Y-113169077D01*
X147105387Y-113162024D01*
X147109398Y-113155332D01*
X147114046Y-113149066D01*
X147119285Y-113143285D01*
X147125066Y-113138046D01*
X147131332Y-113133398D01*
X147138024Y-113129387D01*
X147145077Y-113126052D01*
X147152422Y-113123423D01*
X147159990Y-113121528D01*
X147167708Y-113120383D01*
X147175500Y-113120000D01*
X147334500Y-113120000D01*
X147342292Y-113120383D01*
G37*
G36*
X162632292Y-111920383D02*
G01*
X162640010Y-111921528D01*
X162647578Y-111923423D01*
X162654923Y-111926052D01*
X162661976Y-111929387D01*
X162668668Y-111933398D01*
X162674934Y-111938046D01*
X162680715Y-111943285D01*
X162685954Y-111949066D01*
X162690602Y-111955332D01*
X162694613Y-111962024D01*
X162697948Y-111969077D01*
X162700577Y-111976422D01*
X162702472Y-111983990D01*
X162703617Y-111991708D01*
X162704000Y-111999500D01*
X162704000Y-112200500D01*
X162703617Y-112208292D01*
X162702472Y-112216010D01*
X162700577Y-112223578D01*
X162697948Y-112230923D01*
X162694613Y-112237976D01*
X162690602Y-112244668D01*
X162685954Y-112250934D01*
X162680715Y-112256715D01*
X162674934Y-112261954D01*
X162668668Y-112266602D01*
X162661976Y-112270613D01*
X162654923Y-112273948D01*
X162647578Y-112276577D01*
X162640010Y-112278472D01*
X162632292Y-112279617D01*
X162624500Y-112280000D01*
X162465500Y-112280000D01*
X162457708Y-112279617D01*
X162449990Y-112278472D01*
X162442422Y-112276577D01*
X162435077Y-112273948D01*
X162428024Y-112270613D01*
X162421332Y-112266602D01*
X162415066Y-112261954D01*
X162409285Y-112256715D01*
X162404046Y-112250934D01*
X162399398Y-112244668D01*
X162395387Y-112237976D01*
X162392052Y-112230923D01*
X162389423Y-112223578D01*
X162387528Y-112216010D01*
X162386383Y-112208292D01*
X162386000Y-112200500D01*
X162386000Y-111999500D01*
X162386383Y-111991708D01*
X162387528Y-111983990D01*
X162389423Y-111976422D01*
X162392052Y-111969077D01*
X162395387Y-111962024D01*
X162399398Y-111955332D01*
X162404046Y-111949066D01*
X162409285Y-111943285D01*
X162415066Y-111938046D01*
X162421332Y-111933398D01*
X162428024Y-111929387D01*
X162435077Y-111926052D01*
X162442422Y-111923423D01*
X162449990Y-111921528D01*
X162457708Y-111920383D01*
X162465500Y-111920000D01*
X162624500Y-111920000D01*
X162632292Y-111920383D01*
G37*
G36*
X161942292Y-111920383D02*
G01*
X161950010Y-111921528D01*
X161957578Y-111923423D01*
X161964923Y-111926052D01*
X161971976Y-111929387D01*
X161978668Y-111933398D01*
X161984934Y-111938046D01*
X161990715Y-111943285D01*
X161995954Y-111949066D01*
X162000602Y-111955332D01*
X162004613Y-111962024D01*
X162007948Y-111969077D01*
X162010577Y-111976422D01*
X162012472Y-111983990D01*
X162013617Y-111991708D01*
X162014000Y-111999500D01*
X162014000Y-112200500D01*
X162013617Y-112208292D01*
X162012472Y-112216010D01*
X162010577Y-112223578D01*
X162007948Y-112230923D01*
X162004613Y-112237976D01*
X162000602Y-112244668D01*
X161995954Y-112250934D01*
X161990715Y-112256715D01*
X161984934Y-112261954D01*
X161978668Y-112266602D01*
X161971976Y-112270613D01*
X161964923Y-112273948D01*
X161957578Y-112276577D01*
X161950010Y-112278472D01*
X161942292Y-112279617D01*
X161934500Y-112280000D01*
X161775500Y-112280000D01*
X161767708Y-112279617D01*
X161759990Y-112278472D01*
X161752422Y-112276577D01*
X161745077Y-112273948D01*
X161738024Y-112270613D01*
X161731332Y-112266602D01*
X161725066Y-112261954D01*
X161719285Y-112256715D01*
X161714046Y-112250934D01*
X161709398Y-112244668D01*
X161705387Y-112237976D01*
X161702052Y-112230923D01*
X161699423Y-112223578D01*
X161697528Y-112216010D01*
X161696383Y-112208292D01*
X161696000Y-112200500D01*
X161696000Y-111999500D01*
X161696383Y-111991708D01*
X161697528Y-111983990D01*
X161699423Y-111976422D01*
X161702052Y-111969077D01*
X161705387Y-111962024D01*
X161709398Y-111955332D01*
X161714046Y-111949066D01*
X161719285Y-111943285D01*
X161725066Y-111938046D01*
X161731332Y-111933398D01*
X161738024Y-111929387D01*
X161745077Y-111926052D01*
X161752422Y-111923423D01*
X161759990Y-111921528D01*
X161767708Y-111920383D01*
X161775500Y-111920000D01*
X161934500Y-111920000D01*
X161942292Y-111920383D01*
G37*
D14*
X164000000Y-114300000D03*
X164000000Y-113800000D03*
X164385000Y-114300000D03*
X164385000Y-113800000D03*
X164770000Y-114050000D03*
D15*
X160200000Y-115400000D03*
X160200000Y-114300000D03*
X160200000Y-113200000D03*
X160200000Y-112100000D03*
X160200000Y-111000000D03*
X160200000Y-109900000D03*
X160200000Y-108800000D03*
X160200000Y-107700000D03*
X160200000Y-106600000D03*
X151000000Y-115400000D03*
X151000000Y-114300000D03*
X151000000Y-113200000D03*
X151000000Y-112100000D03*
X151000000Y-106600000D03*
X151000000Y-107700000D03*
X151000000Y-108800000D03*
X151000000Y-109900000D03*
X151000000Y-111000000D03*
M02*
