G04 #@! TF.GenerationSoftware,KiCad,Pcbnew,(5.1.5)-3*
G04 #@! TF.CreationDate,2020-05-12T16:51:08+05:30*
G04 #@! TF.ProjectId,Teseo_Mod,54657365-6f5f-44d6-9f64-2e6b69636164,rev?*
G04 #@! TF.SameCoordinates,Original*
G04 #@! TF.FileFunction,Soldermask,Bot*
G04 #@! TF.FilePolarity,Negative*
%FSLAX46Y46*%
G04 Gerber Fmt 4.6, Leading zero omitted, Abs format (unit mm)*
G04 Created by KiCad (PCBNEW (5.1.5)-3) date 2020-05-12 16:51:08*
%MOMM*%
%LPD*%
G04 APERTURE LIST*
%ADD10C,0.100000*%
G04 APERTURE END LIST*
D10*
G36*
X141173512Y-115383927D02*
G01*
X141322812Y-115413624D01*
X141486784Y-115481544D01*
X141634354Y-115580147D01*
X141759853Y-115705646D01*
X141858456Y-115853216D01*
X141926376Y-116017188D01*
X141961000Y-116191259D01*
X141961000Y-116368741D01*
X141926376Y-116542812D01*
X141858456Y-116706784D01*
X141759853Y-116854354D01*
X141634354Y-116979853D01*
X141486784Y-117078456D01*
X141322812Y-117146376D01*
X141173512Y-117176073D01*
X141148742Y-117181000D01*
X140971258Y-117181000D01*
X140946488Y-117176073D01*
X140797188Y-117146376D01*
X140633216Y-117078456D01*
X140485646Y-116979853D01*
X140360147Y-116854354D01*
X140261544Y-116706784D01*
X140193624Y-116542812D01*
X140159000Y-116368741D01*
X140159000Y-116191259D01*
X140193624Y-116017188D01*
X140261544Y-115853216D01*
X140360147Y-115705646D01*
X140485646Y-115580147D01*
X140633216Y-115481544D01*
X140797188Y-115413624D01*
X140946488Y-115383927D01*
X140971258Y-115379000D01*
X141148742Y-115379000D01*
X141173512Y-115383927D01*
G37*
G36*
X144501000Y-117181000D02*
G01*
X142699000Y-117181000D01*
X142699000Y-115379000D01*
X144501000Y-115379000D01*
X144501000Y-117181000D01*
G37*
G36*
X141173512Y-112843927D02*
G01*
X141322812Y-112873624D01*
X141486784Y-112941544D01*
X141634354Y-113040147D01*
X141759853Y-113165646D01*
X141858456Y-113313216D01*
X141926376Y-113477188D01*
X141961000Y-113651259D01*
X141961000Y-113828741D01*
X141926376Y-114002812D01*
X141858456Y-114166784D01*
X141759853Y-114314354D01*
X141634354Y-114439853D01*
X141486784Y-114538456D01*
X141322812Y-114606376D01*
X141173512Y-114636073D01*
X141148742Y-114641000D01*
X140971258Y-114641000D01*
X140946488Y-114636073D01*
X140797188Y-114606376D01*
X140633216Y-114538456D01*
X140485646Y-114439853D01*
X140360147Y-114314354D01*
X140261544Y-114166784D01*
X140193624Y-114002812D01*
X140159000Y-113828741D01*
X140159000Y-113651259D01*
X140193624Y-113477188D01*
X140261544Y-113313216D01*
X140360147Y-113165646D01*
X140485646Y-113040147D01*
X140633216Y-112941544D01*
X140797188Y-112873624D01*
X140946488Y-112843927D01*
X140971258Y-112839000D01*
X141148742Y-112839000D01*
X141173512Y-112843927D01*
G37*
G36*
X143713512Y-112843927D02*
G01*
X143862812Y-112873624D01*
X144026784Y-112941544D01*
X144174354Y-113040147D01*
X144299853Y-113165646D01*
X144398456Y-113313216D01*
X144466376Y-113477188D01*
X144501000Y-113651259D01*
X144501000Y-113828741D01*
X144466376Y-114002812D01*
X144398456Y-114166784D01*
X144299853Y-114314354D01*
X144174354Y-114439853D01*
X144026784Y-114538456D01*
X143862812Y-114606376D01*
X143713512Y-114636073D01*
X143688742Y-114641000D01*
X143511258Y-114641000D01*
X143486488Y-114636073D01*
X143337188Y-114606376D01*
X143173216Y-114538456D01*
X143025646Y-114439853D01*
X142900147Y-114314354D01*
X142801544Y-114166784D01*
X142733624Y-114002812D01*
X142699000Y-113828741D01*
X142699000Y-113651259D01*
X142733624Y-113477188D01*
X142801544Y-113313216D01*
X142900147Y-113165646D01*
X143025646Y-113040147D01*
X143173216Y-112941544D01*
X143337188Y-112873624D01*
X143486488Y-112843927D01*
X143511258Y-112839000D01*
X143688742Y-112839000D01*
X143713512Y-112843927D01*
G37*
G36*
X171951000Y-114051000D02*
G01*
X167649000Y-114051000D01*
X167649000Y-112599000D01*
X171951000Y-112599000D01*
X171951000Y-114051000D01*
G37*
G36*
X143713512Y-110303927D02*
G01*
X143862812Y-110333624D01*
X144026784Y-110401544D01*
X144174354Y-110500147D01*
X144299853Y-110625646D01*
X144398456Y-110773216D01*
X144466376Y-110937188D01*
X144501000Y-111111259D01*
X144501000Y-111288741D01*
X144466376Y-111462812D01*
X144398456Y-111626784D01*
X144299853Y-111774354D01*
X144174354Y-111899853D01*
X144026784Y-111998456D01*
X143862812Y-112066376D01*
X143713512Y-112096073D01*
X143688742Y-112101000D01*
X143511258Y-112101000D01*
X143486488Y-112096073D01*
X143337188Y-112066376D01*
X143173216Y-111998456D01*
X143025646Y-111899853D01*
X142900147Y-111774354D01*
X142801544Y-111626784D01*
X142733624Y-111462812D01*
X142699000Y-111288741D01*
X142699000Y-111111259D01*
X142733624Y-110937188D01*
X142801544Y-110773216D01*
X142900147Y-110625646D01*
X143025646Y-110500147D01*
X143173216Y-110401544D01*
X143337188Y-110333624D01*
X143486488Y-110303927D01*
X143511258Y-110299000D01*
X143688742Y-110299000D01*
X143713512Y-110303927D01*
G37*
G36*
X141173512Y-110303927D02*
G01*
X141322812Y-110333624D01*
X141486784Y-110401544D01*
X141634354Y-110500147D01*
X141759853Y-110625646D01*
X141858456Y-110773216D01*
X141926376Y-110937188D01*
X141961000Y-111111259D01*
X141961000Y-111288741D01*
X141926376Y-111462812D01*
X141858456Y-111626784D01*
X141759853Y-111774354D01*
X141634354Y-111899853D01*
X141486784Y-111998456D01*
X141322812Y-112066376D01*
X141173512Y-112096073D01*
X141148742Y-112101000D01*
X140971258Y-112101000D01*
X140946488Y-112096073D01*
X140797188Y-112066376D01*
X140633216Y-111998456D01*
X140485646Y-111899853D01*
X140360147Y-111774354D01*
X140261544Y-111626784D01*
X140193624Y-111462812D01*
X140159000Y-111288741D01*
X140159000Y-111111259D01*
X140193624Y-110937188D01*
X140261544Y-110773216D01*
X140360147Y-110625646D01*
X140485646Y-110500147D01*
X140633216Y-110401544D01*
X140797188Y-110333624D01*
X140946488Y-110303927D01*
X140971258Y-110299000D01*
X141148742Y-110299000D01*
X141173512Y-110303927D01*
G37*
G36*
X143713512Y-107763927D02*
G01*
X143862812Y-107793624D01*
X144026784Y-107861544D01*
X144174354Y-107960147D01*
X144299853Y-108085646D01*
X144398456Y-108233216D01*
X144466376Y-108397188D01*
X144501000Y-108571259D01*
X144501000Y-108748741D01*
X144466376Y-108922812D01*
X144398456Y-109086784D01*
X144299853Y-109234354D01*
X144174354Y-109359853D01*
X144026784Y-109458456D01*
X143862812Y-109526376D01*
X143713512Y-109556073D01*
X143688742Y-109561000D01*
X143511258Y-109561000D01*
X143486488Y-109556073D01*
X143337188Y-109526376D01*
X143173216Y-109458456D01*
X143025646Y-109359853D01*
X142900147Y-109234354D01*
X142801544Y-109086784D01*
X142733624Y-108922812D01*
X142699000Y-108748741D01*
X142699000Y-108571259D01*
X142733624Y-108397188D01*
X142801544Y-108233216D01*
X142900147Y-108085646D01*
X143025646Y-107960147D01*
X143173216Y-107861544D01*
X143337188Y-107793624D01*
X143486488Y-107763927D01*
X143511258Y-107759000D01*
X143688742Y-107759000D01*
X143713512Y-107763927D01*
G37*
G36*
X141173512Y-107763927D02*
G01*
X141322812Y-107793624D01*
X141486784Y-107861544D01*
X141634354Y-107960147D01*
X141759853Y-108085646D01*
X141858456Y-108233216D01*
X141926376Y-108397188D01*
X141961000Y-108571259D01*
X141961000Y-108748741D01*
X141926376Y-108922812D01*
X141858456Y-109086784D01*
X141759853Y-109234354D01*
X141634354Y-109359853D01*
X141486784Y-109458456D01*
X141322812Y-109526376D01*
X141173512Y-109556073D01*
X141148742Y-109561000D01*
X140971258Y-109561000D01*
X140946488Y-109556073D01*
X140797188Y-109526376D01*
X140633216Y-109458456D01*
X140485646Y-109359853D01*
X140360147Y-109234354D01*
X140261544Y-109086784D01*
X140193624Y-108922812D01*
X140159000Y-108748741D01*
X140159000Y-108571259D01*
X140193624Y-108397188D01*
X140261544Y-108233216D01*
X140360147Y-108085646D01*
X140485646Y-107960147D01*
X140633216Y-107861544D01*
X140797188Y-107793624D01*
X140946488Y-107763927D01*
X140971258Y-107759000D01*
X141148742Y-107759000D01*
X141173512Y-107763927D01*
G37*
G36*
X171951000Y-108401000D02*
G01*
X167649000Y-108401000D01*
X167649000Y-106949000D01*
X171951000Y-106949000D01*
X171951000Y-108401000D01*
G37*
G36*
X143713512Y-105223927D02*
G01*
X143862812Y-105253624D01*
X144026784Y-105321544D01*
X144174354Y-105420147D01*
X144299853Y-105545646D01*
X144398456Y-105693216D01*
X144466376Y-105857188D01*
X144501000Y-106031259D01*
X144501000Y-106208741D01*
X144466376Y-106382812D01*
X144398456Y-106546784D01*
X144299853Y-106694354D01*
X144174354Y-106819853D01*
X144026784Y-106918456D01*
X143862812Y-106986376D01*
X143713512Y-107016073D01*
X143688742Y-107021000D01*
X143511258Y-107021000D01*
X143486488Y-107016073D01*
X143337188Y-106986376D01*
X143173216Y-106918456D01*
X143025646Y-106819853D01*
X142900147Y-106694354D01*
X142801544Y-106546784D01*
X142733624Y-106382812D01*
X142699000Y-106208741D01*
X142699000Y-106031259D01*
X142733624Y-105857188D01*
X142801544Y-105693216D01*
X142900147Y-105545646D01*
X143025646Y-105420147D01*
X143173216Y-105321544D01*
X143337188Y-105253624D01*
X143486488Y-105223927D01*
X143511258Y-105219000D01*
X143688742Y-105219000D01*
X143713512Y-105223927D01*
G37*
G36*
X141173512Y-105223927D02*
G01*
X141322812Y-105253624D01*
X141486784Y-105321544D01*
X141634354Y-105420147D01*
X141759853Y-105545646D01*
X141858456Y-105693216D01*
X141926376Y-105857188D01*
X141961000Y-106031259D01*
X141961000Y-106208741D01*
X141926376Y-106382812D01*
X141858456Y-106546784D01*
X141759853Y-106694354D01*
X141634354Y-106819853D01*
X141486784Y-106918456D01*
X141322812Y-106986376D01*
X141173512Y-107016073D01*
X141148742Y-107021000D01*
X140971258Y-107021000D01*
X140946488Y-107016073D01*
X140797188Y-106986376D01*
X140633216Y-106918456D01*
X140485646Y-106819853D01*
X140360147Y-106694354D01*
X140261544Y-106546784D01*
X140193624Y-106382812D01*
X140159000Y-106208741D01*
X140159000Y-106031259D01*
X140193624Y-105857188D01*
X140261544Y-105693216D01*
X140360147Y-105545646D01*
X140485646Y-105420147D01*
X140633216Y-105321544D01*
X140797188Y-105253624D01*
X140946488Y-105223927D01*
X140971258Y-105219000D01*
X141148742Y-105219000D01*
X141173512Y-105223927D01*
G37*
M02*
