G04 #@! TF.GenerationSoftware,KiCad,Pcbnew,(5.1.5)-3*
G04 #@! TF.CreationDate,2020-05-12T16:51:07+05:30*
G04 #@! TF.ProjectId,Teseo_Mod,54657365-6f5f-44d6-9f64-2e6b69636164,rev?*
G04 #@! TF.SameCoordinates,Original*
G04 #@! TF.FileFunction,Copper,L1,Top*
G04 #@! TF.FilePolarity,Positive*
%FSLAX46Y46*%
G04 Gerber Fmt 4.6, Leading zero omitted, Abs format (unit mm)*
G04 Created by KiCad (PCBNEW (5.1.5)-3) date 2020-05-12 16:51:07*
%MOMM*%
%LPD*%
G04 APERTURE LIST*
%ADD10O,1.700000X1.700000*%
%ADD11R,1.700000X1.700000*%
%ADD12R,0.200000X0.200000*%
%ADD13C,0.100000*%
%ADD14R,4.200000X1.350000*%
%ADD15R,3.600000X1.270000*%
%ADD16R,0.180000X0.250000*%
%ADD17R,1.600000X0.900000*%
%ADD18C,0.800000*%
%ADD19C,0.250000*%
%ADD20C,0.180000*%
%ADD21C,0.254000*%
G04 APERTURE END LIST*
D10*
X141060000Y-106120000D03*
X143600000Y-106120000D03*
X141060000Y-108660000D03*
X143600000Y-108660000D03*
X141060000Y-111200000D03*
X143600000Y-111200000D03*
X141060000Y-113740000D03*
X143600000Y-113740000D03*
X141060000Y-116280000D03*
D11*
X143600000Y-116280000D03*
D12*
X164400000Y-112200000D03*
X164400000Y-112600000D03*
X164400000Y-113000000D03*
X164800000Y-113000000D03*
X164800000Y-112600000D03*
X164800000Y-112200000D03*
G04 #@! TA.AperFunction,SMDPad,CuDef*
D13*
G36*
X164459802Y-110300482D02*
G01*
X164469509Y-110301921D01*
X164479028Y-110304306D01*
X164488268Y-110307612D01*
X164497140Y-110311808D01*
X164505557Y-110316853D01*
X164513439Y-110322699D01*
X164520711Y-110329289D01*
X164527301Y-110336561D01*
X164533147Y-110344443D01*
X164538192Y-110352860D01*
X164542388Y-110361732D01*
X164545694Y-110370972D01*
X164548079Y-110380491D01*
X164549518Y-110390198D01*
X164550000Y-110400000D01*
X164550000Y-110600000D01*
X164549518Y-110609802D01*
X164548079Y-110619509D01*
X164545694Y-110629028D01*
X164542388Y-110638268D01*
X164538192Y-110647140D01*
X164533147Y-110655557D01*
X164527301Y-110663439D01*
X164520711Y-110670711D01*
X164513439Y-110677301D01*
X164505557Y-110683147D01*
X164497140Y-110688192D01*
X164488268Y-110692388D01*
X164479028Y-110695694D01*
X164469509Y-110698079D01*
X164459802Y-110699518D01*
X164450000Y-110700000D01*
X164190000Y-110700000D01*
X164180198Y-110699518D01*
X164170491Y-110698079D01*
X164160972Y-110695694D01*
X164151732Y-110692388D01*
X164142860Y-110688192D01*
X164134443Y-110683147D01*
X164126561Y-110677301D01*
X164119289Y-110670711D01*
X164112699Y-110663439D01*
X164106853Y-110655557D01*
X164101808Y-110647140D01*
X164097612Y-110638268D01*
X164094306Y-110629028D01*
X164091921Y-110619509D01*
X164090482Y-110609802D01*
X164090000Y-110600000D01*
X164090000Y-110400000D01*
X164090482Y-110390198D01*
X164091921Y-110380491D01*
X164094306Y-110370972D01*
X164097612Y-110361732D01*
X164101808Y-110352860D01*
X164106853Y-110344443D01*
X164112699Y-110336561D01*
X164119289Y-110329289D01*
X164126561Y-110322699D01*
X164134443Y-110316853D01*
X164142860Y-110311808D01*
X164151732Y-110307612D01*
X164160972Y-110304306D01*
X164170491Y-110301921D01*
X164180198Y-110300482D01*
X164190000Y-110300000D01*
X164450000Y-110300000D01*
X164459802Y-110300482D01*
G37*
G04 #@! TD.AperFunction*
G04 #@! TA.AperFunction,SMDPad,CuDef*
G36*
X163819802Y-110300482D02*
G01*
X163829509Y-110301921D01*
X163839028Y-110304306D01*
X163848268Y-110307612D01*
X163857140Y-110311808D01*
X163865557Y-110316853D01*
X163873439Y-110322699D01*
X163880711Y-110329289D01*
X163887301Y-110336561D01*
X163893147Y-110344443D01*
X163898192Y-110352860D01*
X163902388Y-110361732D01*
X163905694Y-110370972D01*
X163908079Y-110380491D01*
X163909518Y-110390198D01*
X163910000Y-110400000D01*
X163910000Y-110600000D01*
X163909518Y-110609802D01*
X163908079Y-110619509D01*
X163905694Y-110629028D01*
X163902388Y-110638268D01*
X163898192Y-110647140D01*
X163893147Y-110655557D01*
X163887301Y-110663439D01*
X163880711Y-110670711D01*
X163873439Y-110677301D01*
X163865557Y-110683147D01*
X163857140Y-110688192D01*
X163848268Y-110692388D01*
X163839028Y-110695694D01*
X163829509Y-110698079D01*
X163819802Y-110699518D01*
X163810000Y-110700000D01*
X163550000Y-110700000D01*
X163540198Y-110699518D01*
X163530491Y-110698079D01*
X163520972Y-110695694D01*
X163511732Y-110692388D01*
X163502860Y-110688192D01*
X163494443Y-110683147D01*
X163486561Y-110677301D01*
X163479289Y-110670711D01*
X163472699Y-110663439D01*
X163466853Y-110655557D01*
X163461808Y-110647140D01*
X163457612Y-110638268D01*
X163454306Y-110629028D01*
X163451921Y-110619509D01*
X163450482Y-110609802D01*
X163450000Y-110600000D01*
X163450000Y-110400000D01*
X163450482Y-110390198D01*
X163451921Y-110380491D01*
X163454306Y-110370972D01*
X163457612Y-110361732D01*
X163461808Y-110352860D01*
X163466853Y-110344443D01*
X163472699Y-110336561D01*
X163479289Y-110329289D01*
X163486561Y-110322699D01*
X163494443Y-110316853D01*
X163502860Y-110311808D01*
X163511732Y-110307612D01*
X163520972Y-110304306D01*
X163530491Y-110301921D01*
X163540198Y-110300482D01*
X163550000Y-110300000D01*
X163810000Y-110300000D01*
X163819802Y-110300482D01*
G37*
G04 #@! TD.AperFunction*
G04 #@! TA.AperFunction,SMDPad,CuDef*
G36*
X165609802Y-111605482D02*
G01*
X165619509Y-111606921D01*
X165629028Y-111609306D01*
X165638268Y-111612612D01*
X165647140Y-111616808D01*
X165655557Y-111621853D01*
X165663439Y-111627699D01*
X165670711Y-111634289D01*
X165677301Y-111641561D01*
X165683147Y-111649443D01*
X165688192Y-111657860D01*
X165692388Y-111666732D01*
X165695694Y-111675972D01*
X165698079Y-111685491D01*
X165699518Y-111695198D01*
X165700000Y-111705000D01*
X165700000Y-111965000D01*
X165699518Y-111974802D01*
X165698079Y-111984509D01*
X165695694Y-111994028D01*
X165692388Y-112003268D01*
X165688192Y-112012140D01*
X165683147Y-112020557D01*
X165677301Y-112028439D01*
X165670711Y-112035711D01*
X165663439Y-112042301D01*
X165655557Y-112048147D01*
X165647140Y-112053192D01*
X165638268Y-112057388D01*
X165629028Y-112060694D01*
X165619509Y-112063079D01*
X165609802Y-112064518D01*
X165600000Y-112065000D01*
X165400000Y-112065000D01*
X165390198Y-112064518D01*
X165380491Y-112063079D01*
X165370972Y-112060694D01*
X165361732Y-112057388D01*
X165352860Y-112053192D01*
X165344443Y-112048147D01*
X165336561Y-112042301D01*
X165329289Y-112035711D01*
X165322699Y-112028439D01*
X165316853Y-112020557D01*
X165311808Y-112012140D01*
X165307612Y-112003268D01*
X165304306Y-111994028D01*
X165301921Y-111984509D01*
X165300482Y-111974802D01*
X165300000Y-111965000D01*
X165300000Y-111705000D01*
X165300482Y-111695198D01*
X165301921Y-111685491D01*
X165304306Y-111675972D01*
X165307612Y-111666732D01*
X165311808Y-111657860D01*
X165316853Y-111649443D01*
X165322699Y-111641561D01*
X165329289Y-111634289D01*
X165336561Y-111627699D01*
X165344443Y-111621853D01*
X165352860Y-111616808D01*
X165361732Y-111612612D01*
X165370972Y-111609306D01*
X165380491Y-111606921D01*
X165390198Y-111605482D01*
X165400000Y-111605000D01*
X165600000Y-111605000D01*
X165609802Y-111605482D01*
G37*
G04 #@! TD.AperFunction*
G04 #@! TA.AperFunction,SMDPad,CuDef*
G36*
X165609802Y-112245482D02*
G01*
X165619509Y-112246921D01*
X165629028Y-112249306D01*
X165638268Y-112252612D01*
X165647140Y-112256808D01*
X165655557Y-112261853D01*
X165663439Y-112267699D01*
X165670711Y-112274289D01*
X165677301Y-112281561D01*
X165683147Y-112289443D01*
X165688192Y-112297860D01*
X165692388Y-112306732D01*
X165695694Y-112315972D01*
X165698079Y-112325491D01*
X165699518Y-112335198D01*
X165700000Y-112345000D01*
X165700000Y-112605000D01*
X165699518Y-112614802D01*
X165698079Y-112624509D01*
X165695694Y-112634028D01*
X165692388Y-112643268D01*
X165688192Y-112652140D01*
X165683147Y-112660557D01*
X165677301Y-112668439D01*
X165670711Y-112675711D01*
X165663439Y-112682301D01*
X165655557Y-112688147D01*
X165647140Y-112693192D01*
X165638268Y-112697388D01*
X165629028Y-112700694D01*
X165619509Y-112703079D01*
X165609802Y-112704518D01*
X165600000Y-112705000D01*
X165400000Y-112705000D01*
X165390198Y-112704518D01*
X165380491Y-112703079D01*
X165370972Y-112700694D01*
X165361732Y-112697388D01*
X165352860Y-112693192D01*
X165344443Y-112688147D01*
X165336561Y-112682301D01*
X165329289Y-112675711D01*
X165322699Y-112668439D01*
X165316853Y-112660557D01*
X165311808Y-112652140D01*
X165307612Y-112643268D01*
X165304306Y-112634028D01*
X165301921Y-112624509D01*
X165300482Y-112614802D01*
X165300000Y-112605000D01*
X165300000Y-112345000D01*
X165300482Y-112335198D01*
X165301921Y-112325491D01*
X165304306Y-112315972D01*
X165307612Y-112306732D01*
X165311808Y-112297860D01*
X165316853Y-112289443D01*
X165322699Y-112281561D01*
X165329289Y-112274289D01*
X165336561Y-112267699D01*
X165344443Y-112261853D01*
X165352860Y-112256808D01*
X165361732Y-112252612D01*
X165370972Y-112249306D01*
X165380491Y-112246921D01*
X165390198Y-112245482D01*
X165400000Y-112245000D01*
X165600000Y-112245000D01*
X165609802Y-112245482D01*
G37*
G04 #@! TD.AperFunction*
G04 #@! TA.AperFunction,SMDPad,CuDef*
G36*
X162419802Y-114100482D02*
G01*
X162429509Y-114101921D01*
X162439028Y-114104306D01*
X162448268Y-114107612D01*
X162457140Y-114111808D01*
X162465557Y-114116853D01*
X162473439Y-114122699D01*
X162480711Y-114129289D01*
X162487301Y-114136561D01*
X162493147Y-114144443D01*
X162498192Y-114152860D01*
X162502388Y-114161732D01*
X162505694Y-114170972D01*
X162508079Y-114180491D01*
X162509518Y-114190198D01*
X162510000Y-114200000D01*
X162510000Y-114400000D01*
X162509518Y-114409802D01*
X162508079Y-114419509D01*
X162505694Y-114429028D01*
X162502388Y-114438268D01*
X162498192Y-114447140D01*
X162493147Y-114455557D01*
X162487301Y-114463439D01*
X162480711Y-114470711D01*
X162473439Y-114477301D01*
X162465557Y-114483147D01*
X162457140Y-114488192D01*
X162448268Y-114492388D01*
X162439028Y-114495694D01*
X162429509Y-114498079D01*
X162419802Y-114499518D01*
X162410000Y-114500000D01*
X162150000Y-114500000D01*
X162140198Y-114499518D01*
X162130491Y-114498079D01*
X162120972Y-114495694D01*
X162111732Y-114492388D01*
X162102860Y-114488192D01*
X162094443Y-114483147D01*
X162086561Y-114477301D01*
X162079289Y-114470711D01*
X162072699Y-114463439D01*
X162066853Y-114455557D01*
X162061808Y-114447140D01*
X162057612Y-114438268D01*
X162054306Y-114429028D01*
X162051921Y-114419509D01*
X162050482Y-114409802D01*
X162050000Y-114400000D01*
X162050000Y-114200000D01*
X162050482Y-114190198D01*
X162051921Y-114180491D01*
X162054306Y-114170972D01*
X162057612Y-114161732D01*
X162061808Y-114152860D01*
X162066853Y-114144443D01*
X162072699Y-114136561D01*
X162079289Y-114129289D01*
X162086561Y-114122699D01*
X162094443Y-114116853D01*
X162102860Y-114111808D01*
X162111732Y-114107612D01*
X162120972Y-114104306D01*
X162130491Y-114101921D01*
X162140198Y-114100482D01*
X162150000Y-114100000D01*
X162410000Y-114100000D01*
X162419802Y-114100482D01*
G37*
G04 #@! TD.AperFunction*
G04 #@! TA.AperFunction,SMDPad,CuDef*
G36*
X163059802Y-114100482D02*
G01*
X163069509Y-114101921D01*
X163079028Y-114104306D01*
X163088268Y-114107612D01*
X163097140Y-114111808D01*
X163105557Y-114116853D01*
X163113439Y-114122699D01*
X163120711Y-114129289D01*
X163127301Y-114136561D01*
X163133147Y-114144443D01*
X163138192Y-114152860D01*
X163142388Y-114161732D01*
X163145694Y-114170972D01*
X163148079Y-114180491D01*
X163149518Y-114190198D01*
X163150000Y-114200000D01*
X163150000Y-114400000D01*
X163149518Y-114409802D01*
X163148079Y-114419509D01*
X163145694Y-114429028D01*
X163142388Y-114438268D01*
X163138192Y-114447140D01*
X163133147Y-114455557D01*
X163127301Y-114463439D01*
X163120711Y-114470711D01*
X163113439Y-114477301D01*
X163105557Y-114483147D01*
X163097140Y-114488192D01*
X163088268Y-114492388D01*
X163079028Y-114495694D01*
X163069509Y-114498079D01*
X163059802Y-114499518D01*
X163050000Y-114500000D01*
X162790000Y-114500000D01*
X162780198Y-114499518D01*
X162770491Y-114498079D01*
X162760972Y-114495694D01*
X162751732Y-114492388D01*
X162742860Y-114488192D01*
X162734443Y-114483147D01*
X162726561Y-114477301D01*
X162719289Y-114470711D01*
X162712699Y-114463439D01*
X162706853Y-114455557D01*
X162701808Y-114447140D01*
X162697612Y-114438268D01*
X162694306Y-114429028D01*
X162691921Y-114419509D01*
X162690482Y-114409802D01*
X162690000Y-114400000D01*
X162690000Y-114200000D01*
X162690482Y-114190198D01*
X162691921Y-114180491D01*
X162694306Y-114170972D01*
X162697612Y-114161732D01*
X162701808Y-114152860D01*
X162706853Y-114144443D01*
X162712699Y-114136561D01*
X162719289Y-114129289D01*
X162726561Y-114122699D01*
X162734443Y-114116853D01*
X162742860Y-114111808D01*
X162751732Y-114107612D01*
X162760972Y-114104306D01*
X162770491Y-114101921D01*
X162780198Y-114100482D01*
X162790000Y-114100000D01*
X163050000Y-114100000D01*
X163059802Y-114100482D01*
G37*
G04 #@! TD.AperFunction*
G04 #@! TA.AperFunction,SMDPad,CuDef*
G36*
X148409802Y-111405482D02*
G01*
X148419509Y-111406921D01*
X148429028Y-111409306D01*
X148438268Y-111412612D01*
X148447140Y-111416808D01*
X148455557Y-111421853D01*
X148463439Y-111427699D01*
X148470711Y-111434289D01*
X148477301Y-111441561D01*
X148483147Y-111449443D01*
X148488192Y-111457860D01*
X148492388Y-111466732D01*
X148495694Y-111475972D01*
X148498079Y-111485491D01*
X148499518Y-111495198D01*
X148500000Y-111505000D01*
X148500000Y-111765000D01*
X148499518Y-111774802D01*
X148498079Y-111784509D01*
X148495694Y-111794028D01*
X148492388Y-111803268D01*
X148488192Y-111812140D01*
X148483147Y-111820557D01*
X148477301Y-111828439D01*
X148470711Y-111835711D01*
X148463439Y-111842301D01*
X148455557Y-111848147D01*
X148447140Y-111853192D01*
X148438268Y-111857388D01*
X148429028Y-111860694D01*
X148419509Y-111863079D01*
X148409802Y-111864518D01*
X148400000Y-111865000D01*
X148200000Y-111865000D01*
X148190198Y-111864518D01*
X148180491Y-111863079D01*
X148170972Y-111860694D01*
X148161732Y-111857388D01*
X148152860Y-111853192D01*
X148144443Y-111848147D01*
X148136561Y-111842301D01*
X148129289Y-111835711D01*
X148122699Y-111828439D01*
X148116853Y-111820557D01*
X148111808Y-111812140D01*
X148107612Y-111803268D01*
X148104306Y-111794028D01*
X148101921Y-111784509D01*
X148100482Y-111774802D01*
X148100000Y-111765000D01*
X148100000Y-111505000D01*
X148100482Y-111495198D01*
X148101921Y-111485491D01*
X148104306Y-111475972D01*
X148107612Y-111466732D01*
X148111808Y-111457860D01*
X148116853Y-111449443D01*
X148122699Y-111441561D01*
X148129289Y-111434289D01*
X148136561Y-111427699D01*
X148144443Y-111421853D01*
X148152860Y-111416808D01*
X148161732Y-111412612D01*
X148170972Y-111409306D01*
X148180491Y-111406921D01*
X148190198Y-111405482D01*
X148200000Y-111405000D01*
X148400000Y-111405000D01*
X148409802Y-111405482D01*
G37*
G04 #@! TD.AperFunction*
G04 #@! TA.AperFunction,SMDPad,CuDef*
G36*
X148409802Y-112045482D02*
G01*
X148419509Y-112046921D01*
X148429028Y-112049306D01*
X148438268Y-112052612D01*
X148447140Y-112056808D01*
X148455557Y-112061853D01*
X148463439Y-112067699D01*
X148470711Y-112074289D01*
X148477301Y-112081561D01*
X148483147Y-112089443D01*
X148488192Y-112097860D01*
X148492388Y-112106732D01*
X148495694Y-112115972D01*
X148498079Y-112125491D01*
X148499518Y-112135198D01*
X148500000Y-112145000D01*
X148500000Y-112405000D01*
X148499518Y-112414802D01*
X148498079Y-112424509D01*
X148495694Y-112434028D01*
X148492388Y-112443268D01*
X148488192Y-112452140D01*
X148483147Y-112460557D01*
X148477301Y-112468439D01*
X148470711Y-112475711D01*
X148463439Y-112482301D01*
X148455557Y-112488147D01*
X148447140Y-112493192D01*
X148438268Y-112497388D01*
X148429028Y-112500694D01*
X148419509Y-112503079D01*
X148409802Y-112504518D01*
X148400000Y-112505000D01*
X148200000Y-112505000D01*
X148190198Y-112504518D01*
X148180491Y-112503079D01*
X148170972Y-112500694D01*
X148161732Y-112497388D01*
X148152860Y-112493192D01*
X148144443Y-112488147D01*
X148136561Y-112482301D01*
X148129289Y-112475711D01*
X148122699Y-112468439D01*
X148116853Y-112460557D01*
X148111808Y-112452140D01*
X148107612Y-112443268D01*
X148104306Y-112434028D01*
X148101921Y-112424509D01*
X148100482Y-112414802D01*
X148100000Y-112405000D01*
X148100000Y-112145000D01*
X148100482Y-112135198D01*
X148101921Y-112125491D01*
X148104306Y-112115972D01*
X148107612Y-112106732D01*
X148111808Y-112097860D01*
X148116853Y-112089443D01*
X148122699Y-112081561D01*
X148129289Y-112074289D01*
X148136561Y-112067699D01*
X148144443Y-112061853D01*
X148152860Y-112056808D01*
X148161732Y-112052612D01*
X148170972Y-112049306D01*
X148180491Y-112046921D01*
X148190198Y-112045482D01*
X148200000Y-112045000D01*
X148400000Y-112045000D01*
X148409802Y-112045482D01*
G37*
G04 #@! TD.AperFunction*
G04 #@! TA.AperFunction,SMDPad,CuDef*
G36*
X162409802Y-110770482D02*
G01*
X162419509Y-110771921D01*
X162429028Y-110774306D01*
X162438268Y-110777612D01*
X162447140Y-110781808D01*
X162455557Y-110786853D01*
X162463439Y-110792699D01*
X162470711Y-110799289D01*
X162477301Y-110806561D01*
X162483147Y-110814443D01*
X162488192Y-110822860D01*
X162492388Y-110831732D01*
X162495694Y-110840972D01*
X162498079Y-110850491D01*
X162499518Y-110860198D01*
X162500000Y-110870000D01*
X162500000Y-111130000D01*
X162499518Y-111139802D01*
X162498079Y-111149509D01*
X162495694Y-111159028D01*
X162492388Y-111168268D01*
X162488192Y-111177140D01*
X162483147Y-111185557D01*
X162477301Y-111193439D01*
X162470711Y-111200711D01*
X162463439Y-111207301D01*
X162455557Y-111213147D01*
X162447140Y-111218192D01*
X162438268Y-111222388D01*
X162429028Y-111225694D01*
X162419509Y-111228079D01*
X162409802Y-111229518D01*
X162400000Y-111230000D01*
X162200000Y-111230000D01*
X162190198Y-111229518D01*
X162180491Y-111228079D01*
X162170972Y-111225694D01*
X162161732Y-111222388D01*
X162152860Y-111218192D01*
X162144443Y-111213147D01*
X162136561Y-111207301D01*
X162129289Y-111200711D01*
X162122699Y-111193439D01*
X162116853Y-111185557D01*
X162111808Y-111177140D01*
X162107612Y-111168268D01*
X162104306Y-111159028D01*
X162101921Y-111149509D01*
X162100482Y-111139802D01*
X162100000Y-111130000D01*
X162100000Y-110870000D01*
X162100482Y-110860198D01*
X162101921Y-110850491D01*
X162104306Y-110840972D01*
X162107612Y-110831732D01*
X162111808Y-110822860D01*
X162116853Y-110814443D01*
X162122699Y-110806561D01*
X162129289Y-110799289D01*
X162136561Y-110792699D01*
X162144443Y-110786853D01*
X162152860Y-110781808D01*
X162161732Y-110777612D01*
X162170972Y-110774306D01*
X162180491Y-110771921D01*
X162190198Y-110770482D01*
X162200000Y-110770000D01*
X162400000Y-110770000D01*
X162409802Y-110770482D01*
G37*
G04 #@! TD.AperFunction*
G04 #@! TA.AperFunction,SMDPad,CuDef*
G36*
X162409802Y-110130482D02*
G01*
X162419509Y-110131921D01*
X162429028Y-110134306D01*
X162438268Y-110137612D01*
X162447140Y-110141808D01*
X162455557Y-110146853D01*
X162463439Y-110152699D01*
X162470711Y-110159289D01*
X162477301Y-110166561D01*
X162483147Y-110174443D01*
X162488192Y-110182860D01*
X162492388Y-110191732D01*
X162495694Y-110200972D01*
X162498079Y-110210491D01*
X162499518Y-110220198D01*
X162500000Y-110230000D01*
X162500000Y-110490000D01*
X162499518Y-110499802D01*
X162498079Y-110509509D01*
X162495694Y-110519028D01*
X162492388Y-110528268D01*
X162488192Y-110537140D01*
X162483147Y-110545557D01*
X162477301Y-110553439D01*
X162470711Y-110560711D01*
X162463439Y-110567301D01*
X162455557Y-110573147D01*
X162447140Y-110578192D01*
X162438268Y-110582388D01*
X162429028Y-110585694D01*
X162419509Y-110588079D01*
X162409802Y-110589518D01*
X162400000Y-110590000D01*
X162200000Y-110590000D01*
X162190198Y-110589518D01*
X162180491Y-110588079D01*
X162170972Y-110585694D01*
X162161732Y-110582388D01*
X162152860Y-110578192D01*
X162144443Y-110573147D01*
X162136561Y-110567301D01*
X162129289Y-110560711D01*
X162122699Y-110553439D01*
X162116853Y-110545557D01*
X162111808Y-110537140D01*
X162107612Y-110528268D01*
X162104306Y-110519028D01*
X162101921Y-110509509D01*
X162100482Y-110499802D01*
X162100000Y-110490000D01*
X162100000Y-110230000D01*
X162100482Y-110220198D01*
X162101921Y-110210491D01*
X162104306Y-110200972D01*
X162107612Y-110191732D01*
X162111808Y-110182860D01*
X162116853Y-110174443D01*
X162122699Y-110166561D01*
X162129289Y-110159289D01*
X162136561Y-110152699D01*
X162144443Y-110146853D01*
X162152860Y-110141808D01*
X162161732Y-110137612D01*
X162170972Y-110134306D01*
X162180491Y-110131921D01*
X162190198Y-110130482D01*
X162200000Y-110130000D01*
X162400000Y-110130000D01*
X162409802Y-110130482D01*
G37*
G04 #@! TD.AperFunction*
G04 #@! TA.AperFunction,SMDPad,CuDef*
G36*
X148909802Y-113790482D02*
G01*
X148919509Y-113791921D01*
X148929028Y-113794306D01*
X148938268Y-113797612D01*
X148947140Y-113801808D01*
X148955557Y-113806853D01*
X148963439Y-113812699D01*
X148970711Y-113819289D01*
X148977301Y-113826561D01*
X148983147Y-113834443D01*
X148988192Y-113842860D01*
X148992388Y-113851732D01*
X148995694Y-113860972D01*
X148998079Y-113870491D01*
X148999518Y-113880198D01*
X149000000Y-113890000D01*
X149000000Y-114150000D01*
X148999518Y-114159802D01*
X148998079Y-114169509D01*
X148995694Y-114179028D01*
X148992388Y-114188268D01*
X148988192Y-114197140D01*
X148983147Y-114205557D01*
X148977301Y-114213439D01*
X148970711Y-114220711D01*
X148963439Y-114227301D01*
X148955557Y-114233147D01*
X148947140Y-114238192D01*
X148938268Y-114242388D01*
X148929028Y-114245694D01*
X148919509Y-114248079D01*
X148909802Y-114249518D01*
X148900000Y-114250000D01*
X148700000Y-114250000D01*
X148690198Y-114249518D01*
X148680491Y-114248079D01*
X148670972Y-114245694D01*
X148661732Y-114242388D01*
X148652860Y-114238192D01*
X148644443Y-114233147D01*
X148636561Y-114227301D01*
X148629289Y-114220711D01*
X148622699Y-114213439D01*
X148616853Y-114205557D01*
X148611808Y-114197140D01*
X148607612Y-114188268D01*
X148604306Y-114179028D01*
X148601921Y-114169509D01*
X148600482Y-114159802D01*
X148600000Y-114150000D01*
X148600000Y-113890000D01*
X148600482Y-113880198D01*
X148601921Y-113870491D01*
X148604306Y-113860972D01*
X148607612Y-113851732D01*
X148611808Y-113842860D01*
X148616853Y-113834443D01*
X148622699Y-113826561D01*
X148629289Y-113819289D01*
X148636561Y-113812699D01*
X148644443Y-113806853D01*
X148652860Y-113801808D01*
X148661732Y-113797612D01*
X148670972Y-113794306D01*
X148680491Y-113791921D01*
X148690198Y-113790482D01*
X148700000Y-113790000D01*
X148900000Y-113790000D01*
X148909802Y-113790482D01*
G37*
G04 #@! TD.AperFunction*
G04 #@! TA.AperFunction,SMDPad,CuDef*
G36*
X148909802Y-113150482D02*
G01*
X148919509Y-113151921D01*
X148929028Y-113154306D01*
X148938268Y-113157612D01*
X148947140Y-113161808D01*
X148955557Y-113166853D01*
X148963439Y-113172699D01*
X148970711Y-113179289D01*
X148977301Y-113186561D01*
X148983147Y-113194443D01*
X148988192Y-113202860D01*
X148992388Y-113211732D01*
X148995694Y-113220972D01*
X148998079Y-113230491D01*
X148999518Y-113240198D01*
X149000000Y-113250000D01*
X149000000Y-113510000D01*
X148999518Y-113519802D01*
X148998079Y-113529509D01*
X148995694Y-113539028D01*
X148992388Y-113548268D01*
X148988192Y-113557140D01*
X148983147Y-113565557D01*
X148977301Y-113573439D01*
X148970711Y-113580711D01*
X148963439Y-113587301D01*
X148955557Y-113593147D01*
X148947140Y-113598192D01*
X148938268Y-113602388D01*
X148929028Y-113605694D01*
X148919509Y-113608079D01*
X148909802Y-113609518D01*
X148900000Y-113610000D01*
X148700000Y-113610000D01*
X148690198Y-113609518D01*
X148680491Y-113608079D01*
X148670972Y-113605694D01*
X148661732Y-113602388D01*
X148652860Y-113598192D01*
X148644443Y-113593147D01*
X148636561Y-113587301D01*
X148629289Y-113580711D01*
X148622699Y-113573439D01*
X148616853Y-113565557D01*
X148611808Y-113557140D01*
X148607612Y-113548268D01*
X148604306Y-113539028D01*
X148601921Y-113529509D01*
X148600482Y-113519802D01*
X148600000Y-113510000D01*
X148600000Y-113250000D01*
X148600482Y-113240198D01*
X148601921Y-113230491D01*
X148604306Y-113220972D01*
X148607612Y-113211732D01*
X148611808Y-113202860D01*
X148616853Y-113194443D01*
X148622699Y-113186561D01*
X148629289Y-113179289D01*
X148636561Y-113172699D01*
X148644443Y-113166853D01*
X148652860Y-113161808D01*
X148661732Y-113157612D01*
X148670972Y-113154306D01*
X148680491Y-113151921D01*
X148690198Y-113150482D01*
X148700000Y-113150000D01*
X148900000Y-113150000D01*
X148909802Y-113150482D01*
G37*
G04 #@! TD.AperFunction*
G04 #@! TA.AperFunction,SMDPad,CuDef*
G36*
X146509802Y-113150482D02*
G01*
X146519509Y-113151921D01*
X146529028Y-113154306D01*
X146538268Y-113157612D01*
X146547140Y-113161808D01*
X146555557Y-113166853D01*
X146563439Y-113172699D01*
X146570711Y-113179289D01*
X146577301Y-113186561D01*
X146583147Y-113194443D01*
X146588192Y-113202860D01*
X146592388Y-113211732D01*
X146595694Y-113220972D01*
X146598079Y-113230491D01*
X146599518Y-113240198D01*
X146600000Y-113250000D01*
X146600000Y-113510000D01*
X146599518Y-113519802D01*
X146598079Y-113529509D01*
X146595694Y-113539028D01*
X146592388Y-113548268D01*
X146588192Y-113557140D01*
X146583147Y-113565557D01*
X146577301Y-113573439D01*
X146570711Y-113580711D01*
X146563439Y-113587301D01*
X146555557Y-113593147D01*
X146547140Y-113598192D01*
X146538268Y-113602388D01*
X146529028Y-113605694D01*
X146519509Y-113608079D01*
X146509802Y-113609518D01*
X146500000Y-113610000D01*
X146300000Y-113610000D01*
X146290198Y-113609518D01*
X146280491Y-113608079D01*
X146270972Y-113605694D01*
X146261732Y-113602388D01*
X146252860Y-113598192D01*
X146244443Y-113593147D01*
X146236561Y-113587301D01*
X146229289Y-113580711D01*
X146222699Y-113573439D01*
X146216853Y-113565557D01*
X146211808Y-113557140D01*
X146207612Y-113548268D01*
X146204306Y-113539028D01*
X146201921Y-113529509D01*
X146200482Y-113519802D01*
X146200000Y-113510000D01*
X146200000Y-113250000D01*
X146200482Y-113240198D01*
X146201921Y-113230491D01*
X146204306Y-113220972D01*
X146207612Y-113211732D01*
X146211808Y-113202860D01*
X146216853Y-113194443D01*
X146222699Y-113186561D01*
X146229289Y-113179289D01*
X146236561Y-113172699D01*
X146244443Y-113166853D01*
X146252860Y-113161808D01*
X146261732Y-113157612D01*
X146270972Y-113154306D01*
X146280491Y-113151921D01*
X146290198Y-113150482D01*
X146300000Y-113150000D01*
X146500000Y-113150000D01*
X146509802Y-113150482D01*
G37*
G04 #@! TD.AperFunction*
G04 #@! TA.AperFunction,SMDPad,CuDef*
G36*
X146509802Y-113790482D02*
G01*
X146519509Y-113791921D01*
X146529028Y-113794306D01*
X146538268Y-113797612D01*
X146547140Y-113801808D01*
X146555557Y-113806853D01*
X146563439Y-113812699D01*
X146570711Y-113819289D01*
X146577301Y-113826561D01*
X146583147Y-113834443D01*
X146588192Y-113842860D01*
X146592388Y-113851732D01*
X146595694Y-113860972D01*
X146598079Y-113870491D01*
X146599518Y-113880198D01*
X146600000Y-113890000D01*
X146600000Y-114150000D01*
X146599518Y-114159802D01*
X146598079Y-114169509D01*
X146595694Y-114179028D01*
X146592388Y-114188268D01*
X146588192Y-114197140D01*
X146583147Y-114205557D01*
X146577301Y-114213439D01*
X146570711Y-114220711D01*
X146563439Y-114227301D01*
X146555557Y-114233147D01*
X146547140Y-114238192D01*
X146538268Y-114242388D01*
X146529028Y-114245694D01*
X146519509Y-114248079D01*
X146509802Y-114249518D01*
X146500000Y-114250000D01*
X146300000Y-114250000D01*
X146290198Y-114249518D01*
X146280491Y-114248079D01*
X146270972Y-114245694D01*
X146261732Y-114242388D01*
X146252860Y-114238192D01*
X146244443Y-114233147D01*
X146236561Y-114227301D01*
X146229289Y-114220711D01*
X146222699Y-114213439D01*
X146216853Y-114205557D01*
X146211808Y-114197140D01*
X146207612Y-114188268D01*
X146204306Y-114179028D01*
X146201921Y-114169509D01*
X146200482Y-114159802D01*
X146200000Y-114150000D01*
X146200000Y-113890000D01*
X146200482Y-113880198D01*
X146201921Y-113870491D01*
X146204306Y-113860972D01*
X146207612Y-113851732D01*
X146211808Y-113842860D01*
X146216853Y-113834443D01*
X146222699Y-113826561D01*
X146229289Y-113819289D01*
X146236561Y-113812699D01*
X146244443Y-113806853D01*
X146252860Y-113801808D01*
X146261732Y-113797612D01*
X146270972Y-113794306D01*
X146280491Y-113791921D01*
X146290198Y-113790482D01*
X146300000Y-113790000D01*
X146500000Y-113790000D01*
X146509802Y-113790482D01*
G37*
G04 #@! TD.AperFunction*
D14*
X169800000Y-113325000D03*
X169800000Y-107675000D03*
D15*
X169600000Y-110500000D03*
G04 #@! TA.AperFunction,SMDPad,CuDef*
D13*
G36*
X163809802Y-111650482D02*
G01*
X163819509Y-111651921D01*
X163829028Y-111654306D01*
X163838268Y-111657612D01*
X163847140Y-111661808D01*
X163855557Y-111666853D01*
X163863439Y-111672699D01*
X163870711Y-111679289D01*
X163877301Y-111686561D01*
X163883147Y-111694443D01*
X163888192Y-111702860D01*
X163892388Y-111711732D01*
X163895694Y-111720972D01*
X163898079Y-111730491D01*
X163899518Y-111740198D01*
X163900000Y-111750000D01*
X163900000Y-112010000D01*
X163899518Y-112019802D01*
X163898079Y-112029509D01*
X163895694Y-112039028D01*
X163892388Y-112048268D01*
X163888192Y-112057140D01*
X163883147Y-112065557D01*
X163877301Y-112073439D01*
X163870711Y-112080711D01*
X163863439Y-112087301D01*
X163855557Y-112093147D01*
X163847140Y-112098192D01*
X163838268Y-112102388D01*
X163829028Y-112105694D01*
X163819509Y-112108079D01*
X163809802Y-112109518D01*
X163800000Y-112110000D01*
X163600000Y-112110000D01*
X163590198Y-112109518D01*
X163580491Y-112108079D01*
X163570972Y-112105694D01*
X163561732Y-112102388D01*
X163552860Y-112098192D01*
X163544443Y-112093147D01*
X163536561Y-112087301D01*
X163529289Y-112080711D01*
X163522699Y-112073439D01*
X163516853Y-112065557D01*
X163511808Y-112057140D01*
X163507612Y-112048268D01*
X163504306Y-112039028D01*
X163501921Y-112029509D01*
X163500482Y-112019802D01*
X163500000Y-112010000D01*
X163500000Y-111750000D01*
X163500482Y-111740198D01*
X163501921Y-111730491D01*
X163504306Y-111720972D01*
X163507612Y-111711732D01*
X163511808Y-111702860D01*
X163516853Y-111694443D01*
X163522699Y-111686561D01*
X163529289Y-111679289D01*
X163536561Y-111672699D01*
X163544443Y-111666853D01*
X163552860Y-111661808D01*
X163561732Y-111657612D01*
X163570972Y-111654306D01*
X163580491Y-111651921D01*
X163590198Y-111650482D01*
X163600000Y-111650000D01*
X163800000Y-111650000D01*
X163809802Y-111650482D01*
G37*
G04 #@! TD.AperFunction*
G04 #@! TA.AperFunction,SMDPad,CuDef*
G36*
X163809802Y-112290482D02*
G01*
X163819509Y-112291921D01*
X163829028Y-112294306D01*
X163838268Y-112297612D01*
X163847140Y-112301808D01*
X163855557Y-112306853D01*
X163863439Y-112312699D01*
X163870711Y-112319289D01*
X163877301Y-112326561D01*
X163883147Y-112334443D01*
X163888192Y-112342860D01*
X163892388Y-112351732D01*
X163895694Y-112360972D01*
X163898079Y-112370491D01*
X163899518Y-112380198D01*
X163900000Y-112390000D01*
X163900000Y-112650000D01*
X163899518Y-112659802D01*
X163898079Y-112669509D01*
X163895694Y-112679028D01*
X163892388Y-112688268D01*
X163888192Y-112697140D01*
X163883147Y-112705557D01*
X163877301Y-112713439D01*
X163870711Y-112720711D01*
X163863439Y-112727301D01*
X163855557Y-112733147D01*
X163847140Y-112738192D01*
X163838268Y-112742388D01*
X163829028Y-112745694D01*
X163819509Y-112748079D01*
X163809802Y-112749518D01*
X163800000Y-112750000D01*
X163600000Y-112750000D01*
X163590198Y-112749518D01*
X163580491Y-112748079D01*
X163570972Y-112745694D01*
X163561732Y-112742388D01*
X163552860Y-112738192D01*
X163544443Y-112733147D01*
X163536561Y-112727301D01*
X163529289Y-112720711D01*
X163522699Y-112713439D01*
X163516853Y-112705557D01*
X163511808Y-112697140D01*
X163507612Y-112688268D01*
X163504306Y-112679028D01*
X163501921Y-112669509D01*
X163500482Y-112659802D01*
X163500000Y-112650000D01*
X163500000Y-112390000D01*
X163500482Y-112380198D01*
X163501921Y-112370491D01*
X163504306Y-112360972D01*
X163507612Y-112351732D01*
X163511808Y-112342860D01*
X163516853Y-112334443D01*
X163522699Y-112326561D01*
X163529289Y-112319289D01*
X163536561Y-112312699D01*
X163544443Y-112306853D01*
X163552860Y-112301808D01*
X163561732Y-112297612D01*
X163570972Y-112294306D01*
X163580491Y-112291921D01*
X163590198Y-112290482D01*
X163600000Y-112290000D01*
X163800000Y-112290000D01*
X163809802Y-112290482D01*
G37*
G04 #@! TD.AperFunction*
G04 #@! TA.AperFunction,SMDPad,CuDef*
G36*
X148059802Y-113100482D02*
G01*
X148069509Y-113101921D01*
X148079028Y-113104306D01*
X148088268Y-113107612D01*
X148097140Y-113111808D01*
X148105557Y-113116853D01*
X148113439Y-113122699D01*
X148120711Y-113129289D01*
X148127301Y-113136561D01*
X148133147Y-113144443D01*
X148138192Y-113152860D01*
X148142388Y-113161732D01*
X148145694Y-113170972D01*
X148148079Y-113180491D01*
X148149518Y-113190198D01*
X148150000Y-113200000D01*
X148150000Y-113400000D01*
X148149518Y-113409802D01*
X148148079Y-113419509D01*
X148145694Y-113429028D01*
X148142388Y-113438268D01*
X148138192Y-113447140D01*
X148133147Y-113455557D01*
X148127301Y-113463439D01*
X148120711Y-113470711D01*
X148113439Y-113477301D01*
X148105557Y-113483147D01*
X148097140Y-113488192D01*
X148088268Y-113492388D01*
X148079028Y-113495694D01*
X148069509Y-113498079D01*
X148059802Y-113499518D01*
X148050000Y-113500000D01*
X147790000Y-113500000D01*
X147780198Y-113499518D01*
X147770491Y-113498079D01*
X147760972Y-113495694D01*
X147751732Y-113492388D01*
X147742860Y-113488192D01*
X147734443Y-113483147D01*
X147726561Y-113477301D01*
X147719289Y-113470711D01*
X147712699Y-113463439D01*
X147706853Y-113455557D01*
X147701808Y-113447140D01*
X147697612Y-113438268D01*
X147694306Y-113429028D01*
X147691921Y-113419509D01*
X147690482Y-113409802D01*
X147690000Y-113400000D01*
X147690000Y-113200000D01*
X147690482Y-113190198D01*
X147691921Y-113180491D01*
X147694306Y-113170972D01*
X147697612Y-113161732D01*
X147701808Y-113152860D01*
X147706853Y-113144443D01*
X147712699Y-113136561D01*
X147719289Y-113129289D01*
X147726561Y-113122699D01*
X147734443Y-113116853D01*
X147742860Y-113111808D01*
X147751732Y-113107612D01*
X147760972Y-113104306D01*
X147770491Y-113101921D01*
X147780198Y-113100482D01*
X147790000Y-113100000D01*
X148050000Y-113100000D01*
X148059802Y-113100482D01*
G37*
G04 #@! TD.AperFunction*
G04 #@! TA.AperFunction,SMDPad,CuDef*
G36*
X147419802Y-113100482D02*
G01*
X147429509Y-113101921D01*
X147439028Y-113104306D01*
X147448268Y-113107612D01*
X147457140Y-113111808D01*
X147465557Y-113116853D01*
X147473439Y-113122699D01*
X147480711Y-113129289D01*
X147487301Y-113136561D01*
X147493147Y-113144443D01*
X147498192Y-113152860D01*
X147502388Y-113161732D01*
X147505694Y-113170972D01*
X147508079Y-113180491D01*
X147509518Y-113190198D01*
X147510000Y-113200000D01*
X147510000Y-113400000D01*
X147509518Y-113409802D01*
X147508079Y-113419509D01*
X147505694Y-113429028D01*
X147502388Y-113438268D01*
X147498192Y-113447140D01*
X147493147Y-113455557D01*
X147487301Y-113463439D01*
X147480711Y-113470711D01*
X147473439Y-113477301D01*
X147465557Y-113483147D01*
X147457140Y-113488192D01*
X147448268Y-113492388D01*
X147439028Y-113495694D01*
X147429509Y-113498079D01*
X147419802Y-113499518D01*
X147410000Y-113500000D01*
X147150000Y-113500000D01*
X147140198Y-113499518D01*
X147130491Y-113498079D01*
X147120972Y-113495694D01*
X147111732Y-113492388D01*
X147102860Y-113488192D01*
X147094443Y-113483147D01*
X147086561Y-113477301D01*
X147079289Y-113470711D01*
X147072699Y-113463439D01*
X147066853Y-113455557D01*
X147061808Y-113447140D01*
X147057612Y-113438268D01*
X147054306Y-113429028D01*
X147051921Y-113419509D01*
X147050482Y-113409802D01*
X147050000Y-113400000D01*
X147050000Y-113200000D01*
X147050482Y-113190198D01*
X147051921Y-113180491D01*
X147054306Y-113170972D01*
X147057612Y-113161732D01*
X147061808Y-113152860D01*
X147066853Y-113144443D01*
X147072699Y-113136561D01*
X147079289Y-113129289D01*
X147086561Y-113122699D01*
X147094443Y-113116853D01*
X147102860Y-113111808D01*
X147111732Y-113107612D01*
X147120972Y-113104306D01*
X147130491Y-113101921D01*
X147140198Y-113100482D01*
X147150000Y-113100000D01*
X147410000Y-113100000D01*
X147419802Y-113100482D01*
G37*
G04 #@! TD.AperFunction*
G04 #@! TA.AperFunction,SMDPad,CuDef*
G36*
X162659802Y-111900482D02*
G01*
X162669509Y-111901921D01*
X162679028Y-111904306D01*
X162688268Y-111907612D01*
X162697140Y-111911808D01*
X162705557Y-111916853D01*
X162713439Y-111922699D01*
X162720711Y-111929289D01*
X162727301Y-111936561D01*
X162733147Y-111944443D01*
X162738192Y-111952860D01*
X162742388Y-111961732D01*
X162745694Y-111970972D01*
X162748079Y-111980491D01*
X162749518Y-111990198D01*
X162750000Y-112000000D01*
X162750000Y-112200000D01*
X162749518Y-112209802D01*
X162748079Y-112219509D01*
X162745694Y-112229028D01*
X162742388Y-112238268D01*
X162738192Y-112247140D01*
X162733147Y-112255557D01*
X162727301Y-112263439D01*
X162720711Y-112270711D01*
X162713439Y-112277301D01*
X162705557Y-112283147D01*
X162697140Y-112288192D01*
X162688268Y-112292388D01*
X162679028Y-112295694D01*
X162669509Y-112298079D01*
X162659802Y-112299518D01*
X162650000Y-112300000D01*
X162390000Y-112300000D01*
X162380198Y-112299518D01*
X162370491Y-112298079D01*
X162360972Y-112295694D01*
X162351732Y-112292388D01*
X162342860Y-112288192D01*
X162334443Y-112283147D01*
X162326561Y-112277301D01*
X162319289Y-112270711D01*
X162312699Y-112263439D01*
X162306853Y-112255557D01*
X162301808Y-112247140D01*
X162297612Y-112238268D01*
X162294306Y-112229028D01*
X162291921Y-112219509D01*
X162290482Y-112209802D01*
X162290000Y-112200000D01*
X162290000Y-112000000D01*
X162290482Y-111990198D01*
X162291921Y-111980491D01*
X162294306Y-111970972D01*
X162297612Y-111961732D01*
X162301808Y-111952860D01*
X162306853Y-111944443D01*
X162312699Y-111936561D01*
X162319289Y-111929289D01*
X162326561Y-111922699D01*
X162334443Y-111916853D01*
X162342860Y-111911808D01*
X162351732Y-111907612D01*
X162360972Y-111904306D01*
X162370491Y-111901921D01*
X162380198Y-111900482D01*
X162390000Y-111900000D01*
X162650000Y-111900000D01*
X162659802Y-111900482D01*
G37*
G04 #@! TD.AperFunction*
G04 #@! TA.AperFunction,SMDPad,CuDef*
G36*
X162019802Y-111900482D02*
G01*
X162029509Y-111901921D01*
X162039028Y-111904306D01*
X162048268Y-111907612D01*
X162057140Y-111911808D01*
X162065557Y-111916853D01*
X162073439Y-111922699D01*
X162080711Y-111929289D01*
X162087301Y-111936561D01*
X162093147Y-111944443D01*
X162098192Y-111952860D01*
X162102388Y-111961732D01*
X162105694Y-111970972D01*
X162108079Y-111980491D01*
X162109518Y-111990198D01*
X162110000Y-112000000D01*
X162110000Y-112200000D01*
X162109518Y-112209802D01*
X162108079Y-112219509D01*
X162105694Y-112229028D01*
X162102388Y-112238268D01*
X162098192Y-112247140D01*
X162093147Y-112255557D01*
X162087301Y-112263439D01*
X162080711Y-112270711D01*
X162073439Y-112277301D01*
X162065557Y-112283147D01*
X162057140Y-112288192D01*
X162048268Y-112292388D01*
X162039028Y-112295694D01*
X162029509Y-112298079D01*
X162019802Y-112299518D01*
X162010000Y-112300000D01*
X161750000Y-112300000D01*
X161740198Y-112299518D01*
X161730491Y-112298079D01*
X161720972Y-112295694D01*
X161711732Y-112292388D01*
X161702860Y-112288192D01*
X161694443Y-112283147D01*
X161686561Y-112277301D01*
X161679289Y-112270711D01*
X161672699Y-112263439D01*
X161666853Y-112255557D01*
X161661808Y-112247140D01*
X161657612Y-112238268D01*
X161654306Y-112229028D01*
X161651921Y-112219509D01*
X161650482Y-112209802D01*
X161650000Y-112200000D01*
X161650000Y-112000000D01*
X161650482Y-111990198D01*
X161651921Y-111980491D01*
X161654306Y-111970972D01*
X161657612Y-111961732D01*
X161661808Y-111952860D01*
X161666853Y-111944443D01*
X161672699Y-111936561D01*
X161679289Y-111929289D01*
X161686561Y-111922699D01*
X161694443Y-111916853D01*
X161702860Y-111911808D01*
X161711732Y-111907612D01*
X161720972Y-111904306D01*
X161730491Y-111901921D01*
X161740198Y-111900482D01*
X161750000Y-111900000D01*
X162010000Y-111900000D01*
X162019802Y-111900482D01*
G37*
G04 #@! TD.AperFunction*
D16*
X164000000Y-114300000D03*
X164000000Y-113800000D03*
X164385000Y-114300000D03*
X164385000Y-113800000D03*
X164770000Y-114050000D03*
D17*
X160200000Y-115400000D03*
X160200000Y-114300000D03*
X160200000Y-113200000D03*
X160200000Y-112100000D03*
X160200000Y-111000000D03*
X160200000Y-109900000D03*
X160200000Y-108800000D03*
X160200000Y-107700000D03*
X160200000Y-106600000D03*
X151000000Y-115400000D03*
X151000000Y-114300000D03*
X151000000Y-113200000D03*
X151000000Y-112100000D03*
X151000000Y-106600000D03*
X151000000Y-107700000D03*
X151000000Y-108800000D03*
X151000000Y-109900000D03*
X151000000Y-111000000D03*
D18*
X146100000Y-115000000D03*
X148600000Y-115000000D03*
X170800000Y-105700000D03*
X169600000Y-105700000D03*
X168400000Y-105700000D03*
X167000000Y-105700000D03*
X165500000Y-105700000D03*
X164200000Y-105700000D03*
X162800000Y-105700000D03*
X162800000Y-106800000D03*
X164200000Y-106800000D03*
X165500000Y-106800000D03*
X162800000Y-107900000D03*
X164200000Y-107900000D03*
X165500000Y-107900000D03*
X164200000Y-109000000D03*
X165600000Y-109000000D03*
X166000000Y-114600000D03*
X171100000Y-115100000D03*
X170100000Y-115100000D03*
X168800000Y-115100000D03*
X167500000Y-115100000D03*
X171200000Y-116100000D03*
X170200000Y-116200000D03*
X169000000Y-116300000D03*
X167800000Y-116200000D03*
X166500000Y-116200000D03*
X165200000Y-116200000D03*
X163600000Y-116200000D03*
X162200000Y-116200000D03*
X158100000Y-105600000D03*
X157000000Y-105600000D03*
X155900000Y-105600000D03*
X154800000Y-105600000D03*
X153500000Y-105500000D03*
X149600000Y-113900000D03*
X149200000Y-111700000D03*
X166400000Y-112600000D03*
X163025000Y-111100000D03*
X147100000Y-116000000D03*
X147200000Y-112300000D03*
X148100000Y-106975000D03*
X157100000Y-109000000D03*
X146100000Y-106500000D03*
X157600000Y-108000000D03*
X146100000Y-117005000D03*
X164566605Y-111566420D03*
X161900000Y-113000000D03*
D19*
X169600000Y-110500000D02*
X164320000Y-110500000D01*
X163700000Y-110520000D02*
X163680000Y-110500000D01*
X163700000Y-111880000D02*
X163700000Y-110520000D01*
X146400000Y-114020000D02*
X146400000Y-114700000D01*
X146400000Y-114700000D02*
X146100000Y-115000000D01*
X148800000Y-114020000D02*
X148800000Y-114800000D01*
X148800000Y-114800000D02*
X148600000Y-115000000D01*
X141909999Y-115430001D02*
X141909999Y-115190001D01*
X141060000Y-116280000D02*
X141909999Y-115430001D01*
X142100000Y-115000000D02*
X146100000Y-115000000D01*
X141909999Y-115190001D02*
X142100000Y-115000000D01*
X164000000Y-113800000D02*
X164354999Y-113800000D01*
X146665685Y-115000000D02*
X148600000Y-115000000D01*
X146100000Y-115000000D02*
X146665685Y-115000000D01*
X169800000Y-114800000D02*
X170100000Y-115100000D01*
X169800000Y-113325000D02*
X169800000Y-114800000D01*
X165300000Y-111835000D02*
X165500000Y-111835000D01*
X164935000Y-112200000D02*
X165300000Y-111835000D01*
X164800000Y-112200000D02*
X164935000Y-112200000D01*
X169800000Y-112400000D02*
X169800000Y-113325000D01*
X169235000Y-111835000D02*
X169800000Y-112400000D01*
X165500000Y-111835000D02*
X169235000Y-111835000D01*
X163980346Y-113000000D02*
X163680346Y-113300000D01*
X164400000Y-113000000D02*
X163980346Y-113000000D01*
X162520000Y-112300000D02*
X162520000Y-112100000D01*
X163520000Y-113300000D02*
X162520000Y-112300000D01*
X163680346Y-113300000D02*
X163520000Y-113300000D01*
X163875000Y-113300000D02*
X163680346Y-113300000D01*
X164000000Y-113425000D02*
X163875000Y-113300000D01*
X164000000Y-113800000D02*
X164000000Y-113425000D01*
X164369992Y-113815008D02*
X164385000Y-113800000D01*
X164369992Y-114215690D02*
X164369992Y-113815008D01*
X164385000Y-114230698D02*
X164369992Y-114215690D01*
X164385000Y-114300000D02*
X164385000Y-114230698D01*
X164685000Y-114600000D02*
X166000000Y-114600000D01*
X164385000Y-114300000D02*
X164685000Y-114600000D01*
X148800000Y-114020000D02*
X149480000Y-114020000D01*
X149480000Y-114020000D02*
X149600000Y-113900000D01*
X148365000Y-111700000D02*
X148300000Y-111635000D01*
X149200000Y-111700000D02*
X148365000Y-111700000D01*
X162800000Y-108900000D02*
X162800000Y-107900000D01*
X162300000Y-110360000D02*
X162300000Y-109400000D01*
X162300000Y-109400000D02*
X162800000Y-108900000D01*
X160200000Y-111000000D02*
X161920000Y-111000000D01*
X165375000Y-112600000D02*
X165500000Y-112475000D01*
X164800000Y-112600000D02*
X165375000Y-112600000D01*
X161920000Y-111000000D02*
X162300000Y-111000000D01*
X165500000Y-112475000D02*
X166275000Y-112475000D01*
X166275000Y-112475000D02*
X166400000Y-112600000D01*
X162400000Y-111100000D02*
X162300000Y-111000000D01*
X163025000Y-111100000D02*
X162400000Y-111100000D01*
X162280000Y-114300000D02*
X160200000Y-114300000D01*
X162920000Y-114300000D02*
X163969999Y-114300000D01*
X143600000Y-116280000D02*
X146820000Y-116280000D01*
X146820000Y-116280000D02*
X147100000Y-116000000D01*
X147525000Y-111975000D02*
X147200000Y-112300000D01*
X147825000Y-112275000D02*
X148300000Y-112275000D01*
X147525000Y-111975000D02*
X147825000Y-112275000D01*
X148750000Y-112275000D02*
X148300000Y-112275000D01*
X149400000Y-112600000D02*
X149075000Y-112600000D01*
X151000000Y-112100000D02*
X149900000Y-112100000D01*
X149075000Y-112600000D02*
X148750000Y-112275000D01*
X149900000Y-112100000D02*
X149400000Y-112600000D01*
X148720000Y-113300000D02*
X148800000Y-113380000D01*
X147920000Y-113300000D02*
X148720000Y-113300000D01*
X148980000Y-113200000D02*
X148800000Y-113380000D01*
X151000000Y-113200000D02*
X148980000Y-113200000D01*
X151000000Y-114300000D02*
X151000000Y-113200000D01*
X143960000Y-113380000D02*
X143600000Y-113740000D01*
X146400000Y-113380000D02*
X143960000Y-113380000D01*
X146480000Y-113300000D02*
X146400000Y-113380000D01*
X147280000Y-113300000D02*
X146480000Y-113300000D01*
X151000000Y-111000000D02*
X149600000Y-111000000D01*
X149600000Y-111000000D02*
X149100000Y-110500000D01*
X149100000Y-110500000D02*
X147600000Y-110500000D01*
X147600000Y-110500000D02*
X145600000Y-112500000D01*
X142300000Y-112500000D02*
X141060000Y-113740000D01*
X145600000Y-112500000D02*
X142300000Y-112500000D01*
X143600000Y-111200000D02*
X145900000Y-111200000D01*
X147200000Y-109900000D02*
X151000000Y-109900000D01*
X145900000Y-111200000D02*
X147200000Y-109900000D01*
X141060000Y-111200000D02*
X142260000Y-110000000D01*
X142260000Y-110000000D02*
X145600000Y-110000000D01*
X146800000Y-108800000D02*
X151000000Y-108800000D01*
X145600000Y-110000000D02*
X146800000Y-108800000D01*
X144560000Y-107700000D02*
X151000000Y-107700000D01*
X143600000Y-108660000D02*
X144560000Y-107700000D01*
X144138591Y-107484999D02*
X144373600Y-107249990D01*
X141060000Y-108660000D02*
X142235001Y-107484999D01*
X142235001Y-107484999D02*
X144138591Y-107484999D01*
X144373600Y-107249990D02*
X147850010Y-107249990D01*
X147850010Y-107249990D02*
X148100000Y-107000000D01*
X148100000Y-107000000D02*
X148100000Y-106975000D01*
X160000000Y-109000000D02*
X160200000Y-108800000D01*
X157100000Y-109000000D02*
X160000000Y-109000000D01*
X143600000Y-106120000D02*
X145720000Y-106120000D01*
X145720000Y-106120000D02*
X146100000Y-106500000D01*
X160000000Y-107500000D02*
X160200000Y-107700000D01*
X157600000Y-108000000D02*
X158100000Y-107500000D01*
X158100000Y-107500000D02*
X160000000Y-107500000D01*
X149950000Y-115400000D02*
X149100000Y-116250000D01*
X151000000Y-115400000D02*
X149950000Y-115400000D01*
X149100000Y-116250000D02*
X148345000Y-117005000D01*
X148345000Y-117005000D02*
X146100000Y-117005000D01*
X163780000Y-112600000D02*
X164400000Y-112600000D01*
X163700000Y-112520000D02*
X163780000Y-112600000D01*
X160200000Y-112100000D02*
X161880000Y-112100000D01*
X164400000Y-112200000D02*
X164400000Y-111733025D01*
X164400000Y-111733025D02*
X164566605Y-111566420D01*
X161900000Y-112120000D02*
X161880000Y-112100000D01*
X161900000Y-113000000D02*
X161900000Y-112120000D01*
D20*
X164770000Y-113030000D02*
X164800000Y-113000000D01*
D19*
X164800000Y-114020000D02*
X164800000Y-113000000D01*
X164770000Y-114050000D02*
X164800000Y-114020000D01*
D21*
G36*
X171740000Y-106362199D02*
G01*
X170085750Y-106365000D01*
X169927000Y-106523750D01*
X169927000Y-107548000D01*
X169947000Y-107548000D01*
X169947000Y-107802000D01*
X169927000Y-107802000D01*
X169927000Y-108826250D01*
X170085750Y-108985000D01*
X171740000Y-108987801D01*
X171740000Y-109326716D01*
X171644180Y-109275498D01*
X171524482Y-109239188D01*
X171400000Y-109226928D01*
X167800000Y-109226928D01*
X167675518Y-109239188D01*
X167555820Y-109275498D01*
X167445506Y-109334463D01*
X167348815Y-109413815D01*
X167269463Y-109510506D01*
X167210498Y-109620820D01*
X167174345Y-109740000D01*
X164773401Y-109740000D01*
X164732448Y-109718110D01*
X164593991Y-109676110D01*
X164450000Y-109661928D01*
X164190000Y-109661928D01*
X164046009Y-109676110D01*
X164000000Y-109690067D01*
X163953991Y-109676110D01*
X163810000Y-109661928D01*
X163550000Y-109661928D01*
X163406009Y-109676110D01*
X163267552Y-109718110D01*
X163139949Y-109786316D01*
X163067741Y-109845575D01*
X163040589Y-109791032D01*
X162964072Y-109692081D01*
X162869722Y-109609960D01*
X162761163Y-109547823D01*
X162642567Y-109508059D01*
X162531750Y-109495000D01*
X162373000Y-109653750D01*
X162373000Y-110131928D01*
X162227000Y-110131928D01*
X162227000Y-109653750D01*
X162068250Y-109495000D01*
X161957433Y-109508059D01*
X161838837Y-109547823D01*
X161730278Y-109609960D01*
X161638072Y-109690215D01*
X161638072Y-109450000D01*
X161628223Y-109350000D01*
X161638072Y-109250000D01*
X161638072Y-108350000D01*
X167061928Y-108350000D01*
X167074188Y-108474482D01*
X167110498Y-108594180D01*
X167169463Y-108704494D01*
X167248815Y-108801185D01*
X167345506Y-108880537D01*
X167455820Y-108939502D01*
X167575518Y-108975812D01*
X167700000Y-108988072D01*
X169514250Y-108985000D01*
X169673000Y-108826250D01*
X169673000Y-107802000D01*
X167223750Y-107802000D01*
X167065000Y-107960750D01*
X167061928Y-108350000D01*
X161638072Y-108350000D01*
X161628223Y-108250000D01*
X161638072Y-108150000D01*
X161638072Y-107250000D01*
X161628223Y-107150000D01*
X161638072Y-107050000D01*
X161638072Y-107000000D01*
X167061928Y-107000000D01*
X167065000Y-107389250D01*
X167223750Y-107548000D01*
X169673000Y-107548000D01*
X169673000Y-106523750D01*
X169514250Y-106365000D01*
X167700000Y-106361928D01*
X167575518Y-106374188D01*
X167455820Y-106410498D01*
X167345506Y-106469463D01*
X167248815Y-106548815D01*
X167169463Y-106645506D01*
X167110498Y-106755820D01*
X167074188Y-106875518D01*
X167061928Y-107000000D01*
X161638072Y-107000000D01*
X161638072Y-106150000D01*
X161625812Y-106025518D01*
X161589502Y-105905820D01*
X161530537Y-105795506D01*
X161451185Y-105698815D01*
X161354494Y-105619463D01*
X161244180Y-105560498D01*
X161124482Y-105524188D01*
X161000000Y-105511928D01*
X159400000Y-105511928D01*
X159275518Y-105524188D01*
X159155820Y-105560498D01*
X159045506Y-105619463D01*
X158948815Y-105698815D01*
X158869463Y-105795506D01*
X158810498Y-105905820D01*
X158774188Y-106025518D01*
X158761928Y-106150000D01*
X158761928Y-106740000D01*
X158137325Y-106740000D01*
X158100000Y-106736324D01*
X158062675Y-106740000D01*
X158062667Y-106740000D01*
X157951014Y-106750997D01*
X157807753Y-106794454D01*
X157675724Y-106865026D01*
X157559999Y-106959999D01*
X157555895Y-106965000D01*
X157498061Y-106965000D01*
X157298102Y-107004774D01*
X157109744Y-107082795D01*
X156940226Y-107196063D01*
X156796063Y-107340226D01*
X156682795Y-107509744D01*
X156604774Y-107698102D01*
X156565000Y-107898061D01*
X156565000Y-108101939D01*
X156566888Y-108111430D01*
X156440226Y-108196063D01*
X156296063Y-108340226D01*
X156182795Y-108509744D01*
X156104774Y-108698102D01*
X156065000Y-108898061D01*
X156065000Y-109101939D01*
X156104774Y-109301898D01*
X156182795Y-109490256D01*
X156296063Y-109659774D01*
X156440226Y-109803937D01*
X156609744Y-109917205D01*
X156798102Y-109995226D01*
X156998061Y-110035000D01*
X157201939Y-110035000D01*
X157401898Y-109995226D01*
X157590256Y-109917205D01*
X157759774Y-109803937D01*
X157803711Y-109760000D01*
X158761928Y-109760000D01*
X158761928Y-110350000D01*
X158771777Y-110450000D01*
X158761928Y-110550000D01*
X158761928Y-111450000D01*
X158771777Y-111550000D01*
X158761928Y-111650000D01*
X158761928Y-112550000D01*
X158771777Y-112650000D01*
X158761928Y-112750000D01*
X158765000Y-112914250D01*
X158923750Y-113073000D01*
X159036322Y-113073000D01*
X159045506Y-113080537D01*
X159155820Y-113139502D01*
X159275518Y-113175812D01*
X159400000Y-113188072D01*
X160347000Y-113188072D01*
X160347000Y-113211928D01*
X159400000Y-113211928D01*
X159275518Y-113224188D01*
X159155820Y-113260498D01*
X159045506Y-113319463D01*
X159036322Y-113327000D01*
X158923750Y-113327000D01*
X158765000Y-113485750D01*
X158761928Y-113650000D01*
X158771777Y-113750000D01*
X158761928Y-113850000D01*
X158761928Y-114750000D01*
X158771777Y-114850000D01*
X158761928Y-114950000D01*
X158765000Y-115114250D01*
X158923750Y-115273000D01*
X159036322Y-115273000D01*
X159045506Y-115280537D01*
X159155820Y-115339502D01*
X159275518Y-115375812D01*
X159400000Y-115388072D01*
X161000000Y-115388072D01*
X161124482Y-115375812D01*
X161244180Y-115339502D01*
X161354494Y-115280537D01*
X161363678Y-115273000D01*
X161476250Y-115273000D01*
X161635000Y-115114250D01*
X161636015Y-115060000D01*
X161826599Y-115060000D01*
X161867552Y-115081890D01*
X162006009Y-115123890D01*
X162150000Y-115138072D01*
X162410000Y-115138072D01*
X162553991Y-115123890D01*
X162600000Y-115109933D01*
X162646009Y-115123890D01*
X162790000Y-115138072D01*
X163050000Y-115138072D01*
X163193991Y-115123890D01*
X163332448Y-115081890D01*
X163373401Y-115060000D01*
X163878808Y-115060000D01*
X163910000Y-115063072D01*
X164090000Y-115063072D01*
X164191522Y-115053073D01*
X164226250Y-115060000D01*
X164244563Y-115041687D01*
X164334180Y-115014502D01*
X164441101Y-114957351D01*
X164543750Y-115060000D01*
X164647577Y-115039291D01*
X164764103Y-114993819D01*
X164869519Y-114926488D01*
X164959774Y-114839885D01*
X164987760Y-114799818D01*
X165104180Y-114764502D01*
X165214494Y-114705537D01*
X165311185Y-114626185D01*
X165390537Y-114529494D01*
X165449502Y-114419180D01*
X165450963Y-114414362D01*
X165505546Y-114312247D01*
X165549003Y-114168986D01*
X165560000Y-114057333D01*
X165560000Y-114057323D01*
X165563676Y-114020001D01*
X165560000Y-113982678D01*
X165560000Y-113343072D01*
X165600000Y-113343072D01*
X165672245Y-113335956D01*
X165740226Y-113403937D01*
X165909744Y-113517205D01*
X166098102Y-113595226D01*
X166298061Y-113635000D01*
X166501939Y-113635000D01*
X166701898Y-113595226D01*
X166890256Y-113517205D01*
X167059774Y-113403937D01*
X167065000Y-113398711D01*
X167065000Y-113452002D01*
X167223748Y-113452002D01*
X167065000Y-113610750D01*
X167061928Y-114000000D01*
X167074188Y-114124482D01*
X167110498Y-114244180D01*
X167169463Y-114354494D01*
X167248815Y-114451185D01*
X167345506Y-114530537D01*
X167455820Y-114589502D01*
X167575518Y-114625812D01*
X167700000Y-114638072D01*
X169514250Y-114635000D01*
X169673000Y-114476250D01*
X169673000Y-113452000D01*
X169653000Y-113452000D01*
X169653000Y-113198000D01*
X169673000Y-113198000D01*
X169673000Y-112173750D01*
X169514250Y-112015000D01*
X167700000Y-112011928D01*
X167575518Y-112024188D01*
X167455820Y-112060498D01*
X167345506Y-112119463D01*
X167327389Y-112134331D01*
X167317205Y-112109744D01*
X167203937Y-111940226D01*
X167059774Y-111796063D01*
X166890256Y-111682795D01*
X166701898Y-111604774D01*
X166501939Y-111565000D01*
X166334353Y-111565000D01*
X166329157Y-111498709D01*
X166296331Y-111378009D01*
X166240589Y-111266032D01*
X166235925Y-111260000D01*
X167174345Y-111260000D01*
X167210498Y-111379180D01*
X167269463Y-111489494D01*
X167348815Y-111586185D01*
X167445506Y-111665537D01*
X167555820Y-111724502D01*
X167675518Y-111760812D01*
X167800000Y-111773072D01*
X171400000Y-111773072D01*
X171524482Y-111760812D01*
X171644180Y-111724502D01*
X171740001Y-111673284D01*
X171740001Y-112012199D01*
X170085750Y-112015000D01*
X169927000Y-112173750D01*
X169927000Y-113198000D01*
X169947000Y-113198000D01*
X169947000Y-113452000D01*
X169927000Y-113452000D01*
X169927000Y-114476250D01*
X170085750Y-114635000D01*
X171740001Y-114637801D01*
X171740001Y-117340000D01*
X149084801Y-117340000D01*
X149663799Y-116761003D01*
X149663803Y-116760998D01*
X149978438Y-116446363D01*
X150075518Y-116475812D01*
X150200000Y-116488072D01*
X151800000Y-116488072D01*
X151924482Y-116475812D01*
X152044180Y-116439502D01*
X152154494Y-116380537D01*
X152251185Y-116301185D01*
X152330537Y-116204494D01*
X152389502Y-116094180D01*
X152425812Y-115974482D01*
X152438072Y-115850000D01*
X158761928Y-115850000D01*
X158774188Y-115974482D01*
X158810498Y-116094180D01*
X158869463Y-116204494D01*
X158948815Y-116301185D01*
X159045506Y-116380537D01*
X159155820Y-116439502D01*
X159275518Y-116475812D01*
X159400000Y-116488072D01*
X159914250Y-116485000D01*
X160073000Y-116326250D01*
X160073000Y-115527000D01*
X160327000Y-115527000D01*
X160327000Y-116326250D01*
X160485750Y-116485000D01*
X161000000Y-116488072D01*
X161124482Y-116475812D01*
X161244180Y-116439502D01*
X161354494Y-116380537D01*
X161451185Y-116301185D01*
X161530537Y-116204494D01*
X161589502Y-116094180D01*
X161625812Y-115974482D01*
X161638072Y-115850000D01*
X161635000Y-115685750D01*
X161476250Y-115527000D01*
X160327000Y-115527000D01*
X160073000Y-115527000D01*
X158923750Y-115527000D01*
X158765000Y-115685750D01*
X158761928Y-115850000D01*
X152438072Y-115850000D01*
X152438072Y-114950000D01*
X152428223Y-114850000D01*
X152438072Y-114750000D01*
X152438072Y-113850000D01*
X152428223Y-113750000D01*
X152438072Y-113650000D01*
X152438072Y-112750000D01*
X152428223Y-112650000D01*
X152438072Y-112550000D01*
X152438072Y-111650000D01*
X152428223Y-111550000D01*
X152438072Y-111450000D01*
X152438072Y-110550000D01*
X152428223Y-110450000D01*
X152438072Y-110350000D01*
X152438072Y-109450000D01*
X152428223Y-109350000D01*
X152438072Y-109250000D01*
X152438072Y-108350000D01*
X152428223Y-108250000D01*
X152438072Y-108150000D01*
X152438072Y-107250000D01*
X152428223Y-107150000D01*
X152438072Y-107050000D01*
X152435000Y-106885750D01*
X152276250Y-106727000D01*
X152163678Y-106727000D01*
X152154494Y-106719463D01*
X152044180Y-106660498D01*
X151924482Y-106624188D01*
X151800000Y-106611928D01*
X150200000Y-106611928D01*
X150075518Y-106624188D01*
X149955820Y-106660498D01*
X149845506Y-106719463D01*
X149836322Y-106727000D01*
X149723750Y-106727000D01*
X149565000Y-106885750D01*
X149563985Y-106940000D01*
X149135000Y-106940000D01*
X149135000Y-106873061D01*
X149095226Y-106673102D01*
X149017205Y-106484744D01*
X148903937Y-106315226D01*
X148759774Y-106171063D01*
X148728251Y-106150000D01*
X149561928Y-106150000D01*
X149565000Y-106314250D01*
X149723750Y-106473000D01*
X150873000Y-106473000D01*
X150873000Y-105673750D01*
X151127000Y-105673750D01*
X151127000Y-106473000D01*
X152276250Y-106473000D01*
X152435000Y-106314250D01*
X152438072Y-106150000D01*
X152425812Y-106025518D01*
X152389502Y-105905820D01*
X152330537Y-105795506D01*
X152251185Y-105698815D01*
X152154494Y-105619463D01*
X152044180Y-105560498D01*
X151924482Y-105524188D01*
X151800000Y-105511928D01*
X151285750Y-105515000D01*
X151127000Y-105673750D01*
X150873000Y-105673750D01*
X150714250Y-105515000D01*
X150200000Y-105511928D01*
X150075518Y-105524188D01*
X149955820Y-105560498D01*
X149845506Y-105619463D01*
X149748815Y-105698815D01*
X149669463Y-105795506D01*
X149610498Y-105905820D01*
X149574188Y-106025518D01*
X149561928Y-106150000D01*
X148728251Y-106150000D01*
X148590256Y-106057795D01*
X148401898Y-105979774D01*
X148201939Y-105940000D01*
X147998061Y-105940000D01*
X147798102Y-105979774D01*
X147609744Y-106057795D01*
X147440226Y-106171063D01*
X147296063Y-106315226D01*
X147182795Y-106484744D01*
X147180622Y-106489990D01*
X147135000Y-106489990D01*
X147135000Y-106398061D01*
X147095226Y-106198102D01*
X147017205Y-106009744D01*
X146903937Y-105840226D01*
X146759774Y-105696063D01*
X146590256Y-105582795D01*
X146401898Y-105504774D01*
X146201939Y-105465000D01*
X146106811Y-105465000D01*
X146012247Y-105414454D01*
X145868986Y-105370997D01*
X145757333Y-105360000D01*
X145757322Y-105360000D01*
X145720000Y-105356324D01*
X145682678Y-105360000D01*
X144878178Y-105360000D01*
X144753475Y-105173368D01*
X144740107Y-105160000D01*
X171740000Y-105160000D01*
X171740000Y-106362199D01*
G37*
X171740000Y-106362199D02*
X170085750Y-106365000D01*
X169927000Y-106523750D01*
X169927000Y-107548000D01*
X169947000Y-107548000D01*
X169947000Y-107802000D01*
X169927000Y-107802000D01*
X169927000Y-108826250D01*
X170085750Y-108985000D01*
X171740000Y-108987801D01*
X171740000Y-109326716D01*
X171644180Y-109275498D01*
X171524482Y-109239188D01*
X171400000Y-109226928D01*
X167800000Y-109226928D01*
X167675518Y-109239188D01*
X167555820Y-109275498D01*
X167445506Y-109334463D01*
X167348815Y-109413815D01*
X167269463Y-109510506D01*
X167210498Y-109620820D01*
X167174345Y-109740000D01*
X164773401Y-109740000D01*
X164732448Y-109718110D01*
X164593991Y-109676110D01*
X164450000Y-109661928D01*
X164190000Y-109661928D01*
X164046009Y-109676110D01*
X164000000Y-109690067D01*
X163953991Y-109676110D01*
X163810000Y-109661928D01*
X163550000Y-109661928D01*
X163406009Y-109676110D01*
X163267552Y-109718110D01*
X163139949Y-109786316D01*
X163067741Y-109845575D01*
X163040589Y-109791032D01*
X162964072Y-109692081D01*
X162869722Y-109609960D01*
X162761163Y-109547823D01*
X162642567Y-109508059D01*
X162531750Y-109495000D01*
X162373000Y-109653750D01*
X162373000Y-110131928D01*
X162227000Y-110131928D01*
X162227000Y-109653750D01*
X162068250Y-109495000D01*
X161957433Y-109508059D01*
X161838837Y-109547823D01*
X161730278Y-109609960D01*
X161638072Y-109690215D01*
X161638072Y-109450000D01*
X161628223Y-109350000D01*
X161638072Y-109250000D01*
X161638072Y-108350000D01*
X167061928Y-108350000D01*
X167074188Y-108474482D01*
X167110498Y-108594180D01*
X167169463Y-108704494D01*
X167248815Y-108801185D01*
X167345506Y-108880537D01*
X167455820Y-108939502D01*
X167575518Y-108975812D01*
X167700000Y-108988072D01*
X169514250Y-108985000D01*
X169673000Y-108826250D01*
X169673000Y-107802000D01*
X167223750Y-107802000D01*
X167065000Y-107960750D01*
X167061928Y-108350000D01*
X161638072Y-108350000D01*
X161628223Y-108250000D01*
X161638072Y-108150000D01*
X161638072Y-107250000D01*
X161628223Y-107150000D01*
X161638072Y-107050000D01*
X161638072Y-107000000D01*
X167061928Y-107000000D01*
X167065000Y-107389250D01*
X167223750Y-107548000D01*
X169673000Y-107548000D01*
X169673000Y-106523750D01*
X169514250Y-106365000D01*
X167700000Y-106361928D01*
X167575518Y-106374188D01*
X167455820Y-106410498D01*
X167345506Y-106469463D01*
X167248815Y-106548815D01*
X167169463Y-106645506D01*
X167110498Y-106755820D01*
X167074188Y-106875518D01*
X167061928Y-107000000D01*
X161638072Y-107000000D01*
X161638072Y-106150000D01*
X161625812Y-106025518D01*
X161589502Y-105905820D01*
X161530537Y-105795506D01*
X161451185Y-105698815D01*
X161354494Y-105619463D01*
X161244180Y-105560498D01*
X161124482Y-105524188D01*
X161000000Y-105511928D01*
X159400000Y-105511928D01*
X159275518Y-105524188D01*
X159155820Y-105560498D01*
X159045506Y-105619463D01*
X158948815Y-105698815D01*
X158869463Y-105795506D01*
X158810498Y-105905820D01*
X158774188Y-106025518D01*
X158761928Y-106150000D01*
X158761928Y-106740000D01*
X158137325Y-106740000D01*
X158100000Y-106736324D01*
X158062675Y-106740000D01*
X158062667Y-106740000D01*
X157951014Y-106750997D01*
X157807753Y-106794454D01*
X157675724Y-106865026D01*
X157559999Y-106959999D01*
X157555895Y-106965000D01*
X157498061Y-106965000D01*
X157298102Y-107004774D01*
X157109744Y-107082795D01*
X156940226Y-107196063D01*
X156796063Y-107340226D01*
X156682795Y-107509744D01*
X156604774Y-107698102D01*
X156565000Y-107898061D01*
X156565000Y-108101939D01*
X156566888Y-108111430D01*
X156440226Y-108196063D01*
X156296063Y-108340226D01*
X156182795Y-108509744D01*
X156104774Y-108698102D01*
X156065000Y-108898061D01*
X156065000Y-109101939D01*
X156104774Y-109301898D01*
X156182795Y-109490256D01*
X156296063Y-109659774D01*
X156440226Y-109803937D01*
X156609744Y-109917205D01*
X156798102Y-109995226D01*
X156998061Y-110035000D01*
X157201939Y-110035000D01*
X157401898Y-109995226D01*
X157590256Y-109917205D01*
X157759774Y-109803937D01*
X157803711Y-109760000D01*
X158761928Y-109760000D01*
X158761928Y-110350000D01*
X158771777Y-110450000D01*
X158761928Y-110550000D01*
X158761928Y-111450000D01*
X158771777Y-111550000D01*
X158761928Y-111650000D01*
X158761928Y-112550000D01*
X158771777Y-112650000D01*
X158761928Y-112750000D01*
X158765000Y-112914250D01*
X158923750Y-113073000D01*
X159036322Y-113073000D01*
X159045506Y-113080537D01*
X159155820Y-113139502D01*
X159275518Y-113175812D01*
X159400000Y-113188072D01*
X160347000Y-113188072D01*
X160347000Y-113211928D01*
X159400000Y-113211928D01*
X159275518Y-113224188D01*
X159155820Y-113260498D01*
X159045506Y-113319463D01*
X159036322Y-113327000D01*
X158923750Y-113327000D01*
X158765000Y-113485750D01*
X158761928Y-113650000D01*
X158771777Y-113750000D01*
X158761928Y-113850000D01*
X158761928Y-114750000D01*
X158771777Y-114850000D01*
X158761928Y-114950000D01*
X158765000Y-115114250D01*
X158923750Y-115273000D01*
X159036322Y-115273000D01*
X159045506Y-115280537D01*
X159155820Y-115339502D01*
X159275518Y-115375812D01*
X159400000Y-115388072D01*
X161000000Y-115388072D01*
X161124482Y-115375812D01*
X161244180Y-115339502D01*
X161354494Y-115280537D01*
X161363678Y-115273000D01*
X161476250Y-115273000D01*
X161635000Y-115114250D01*
X161636015Y-115060000D01*
X161826599Y-115060000D01*
X161867552Y-115081890D01*
X162006009Y-115123890D01*
X162150000Y-115138072D01*
X162410000Y-115138072D01*
X162553991Y-115123890D01*
X162600000Y-115109933D01*
X162646009Y-115123890D01*
X162790000Y-115138072D01*
X163050000Y-115138072D01*
X163193991Y-115123890D01*
X163332448Y-115081890D01*
X163373401Y-115060000D01*
X163878808Y-115060000D01*
X163910000Y-115063072D01*
X164090000Y-115063072D01*
X164191522Y-115053073D01*
X164226250Y-115060000D01*
X164244563Y-115041687D01*
X164334180Y-115014502D01*
X164441101Y-114957351D01*
X164543750Y-115060000D01*
X164647577Y-115039291D01*
X164764103Y-114993819D01*
X164869519Y-114926488D01*
X164959774Y-114839885D01*
X164987760Y-114799818D01*
X165104180Y-114764502D01*
X165214494Y-114705537D01*
X165311185Y-114626185D01*
X165390537Y-114529494D01*
X165449502Y-114419180D01*
X165450963Y-114414362D01*
X165505546Y-114312247D01*
X165549003Y-114168986D01*
X165560000Y-114057333D01*
X165560000Y-114057323D01*
X165563676Y-114020001D01*
X165560000Y-113982678D01*
X165560000Y-113343072D01*
X165600000Y-113343072D01*
X165672245Y-113335956D01*
X165740226Y-113403937D01*
X165909744Y-113517205D01*
X166098102Y-113595226D01*
X166298061Y-113635000D01*
X166501939Y-113635000D01*
X166701898Y-113595226D01*
X166890256Y-113517205D01*
X167059774Y-113403937D01*
X167065000Y-113398711D01*
X167065000Y-113452002D01*
X167223748Y-113452002D01*
X167065000Y-113610750D01*
X167061928Y-114000000D01*
X167074188Y-114124482D01*
X167110498Y-114244180D01*
X167169463Y-114354494D01*
X167248815Y-114451185D01*
X167345506Y-114530537D01*
X167455820Y-114589502D01*
X167575518Y-114625812D01*
X167700000Y-114638072D01*
X169514250Y-114635000D01*
X169673000Y-114476250D01*
X169673000Y-113452000D01*
X169653000Y-113452000D01*
X169653000Y-113198000D01*
X169673000Y-113198000D01*
X169673000Y-112173750D01*
X169514250Y-112015000D01*
X167700000Y-112011928D01*
X167575518Y-112024188D01*
X167455820Y-112060498D01*
X167345506Y-112119463D01*
X167327389Y-112134331D01*
X167317205Y-112109744D01*
X167203937Y-111940226D01*
X167059774Y-111796063D01*
X166890256Y-111682795D01*
X166701898Y-111604774D01*
X166501939Y-111565000D01*
X166334353Y-111565000D01*
X166329157Y-111498709D01*
X166296331Y-111378009D01*
X166240589Y-111266032D01*
X166235925Y-111260000D01*
X167174345Y-111260000D01*
X167210498Y-111379180D01*
X167269463Y-111489494D01*
X167348815Y-111586185D01*
X167445506Y-111665537D01*
X167555820Y-111724502D01*
X167675518Y-111760812D01*
X167800000Y-111773072D01*
X171400000Y-111773072D01*
X171524482Y-111760812D01*
X171644180Y-111724502D01*
X171740001Y-111673284D01*
X171740001Y-112012199D01*
X170085750Y-112015000D01*
X169927000Y-112173750D01*
X169927000Y-113198000D01*
X169947000Y-113198000D01*
X169947000Y-113452000D01*
X169927000Y-113452000D01*
X169927000Y-114476250D01*
X170085750Y-114635000D01*
X171740001Y-114637801D01*
X171740001Y-117340000D01*
X149084801Y-117340000D01*
X149663799Y-116761003D01*
X149663803Y-116760998D01*
X149978438Y-116446363D01*
X150075518Y-116475812D01*
X150200000Y-116488072D01*
X151800000Y-116488072D01*
X151924482Y-116475812D01*
X152044180Y-116439502D01*
X152154494Y-116380537D01*
X152251185Y-116301185D01*
X152330537Y-116204494D01*
X152389502Y-116094180D01*
X152425812Y-115974482D01*
X152438072Y-115850000D01*
X158761928Y-115850000D01*
X158774188Y-115974482D01*
X158810498Y-116094180D01*
X158869463Y-116204494D01*
X158948815Y-116301185D01*
X159045506Y-116380537D01*
X159155820Y-116439502D01*
X159275518Y-116475812D01*
X159400000Y-116488072D01*
X159914250Y-116485000D01*
X160073000Y-116326250D01*
X160073000Y-115527000D01*
X160327000Y-115527000D01*
X160327000Y-116326250D01*
X160485750Y-116485000D01*
X161000000Y-116488072D01*
X161124482Y-116475812D01*
X161244180Y-116439502D01*
X161354494Y-116380537D01*
X161451185Y-116301185D01*
X161530537Y-116204494D01*
X161589502Y-116094180D01*
X161625812Y-115974482D01*
X161638072Y-115850000D01*
X161635000Y-115685750D01*
X161476250Y-115527000D01*
X160327000Y-115527000D01*
X160073000Y-115527000D01*
X158923750Y-115527000D01*
X158765000Y-115685750D01*
X158761928Y-115850000D01*
X152438072Y-115850000D01*
X152438072Y-114950000D01*
X152428223Y-114850000D01*
X152438072Y-114750000D01*
X152438072Y-113850000D01*
X152428223Y-113750000D01*
X152438072Y-113650000D01*
X152438072Y-112750000D01*
X152428223Y-112650000D01*
X152438072Y-112550000D01*
X152438072Y-111650000D01*
X152428223Y-111550000D01*
X152438072Y-111450000D01*
X152438072Y-110550000D01*
X152428223Y-110450000D01*
X152438072Y-110350000D01*
X152438072Y-109450000D01*
X152428223Y-109350000D01*
X152438072Y-109250000D01*
X152438072Y-108350000D01*
X152428223Y-108250000D01*
X152438072Y-108150000D01*
X152438072Y-107250000D01*
X152428223Y-107150000D01*
X152438072Y-107050000D01*
X152435000Y-106885750D01*
X152276250Y-106727000D01*
X152163678Y-106727000D01*
X152154494Y-106719463D01*
X152044180Y-106660498D01*
X151924482Y-106624188D01*
X151800000Y-106611928D01*
X150200000Y-106611928D01*
X150075518Y-106624188D01*
X149955820Y-106660498D01*
X149845506Y-106719463D01*
X149836322Y-106727000D01*
X149723750Y-106727000D01*
X149565000Y-106885750D01*
X149563985Y-106940000D01*
X149135000Y-106940000D01*
X149135000Y-106873061D01*
X149095226Y-106673102D01*
X149017205Y-106484744D01*
X148903937Y-106315226D01*
X148759774Y-106171063D01*
X148728251Y-106150000D01*
X149561928Y-106150000D01*
X149565000Y-106314250D01*
X149723750Y-106473000D01*
X150873000Y-106473000D01*
X150873000Y-105673750D01*
X151127000Y-105673750D01*
X151127000Y-106473000D01*
X152276250Y-106473000D01*
X152435000Y-106314250D01*
X152438072Y-106150000D01*
X152425812Y-106025518D01*
X152389502Y-105905820D01*
X152330537Y-105795506D01*
X152251185Y-105698815D01*
X152154494Y-105619463D01*
X152044180Y-105560498D01*
X151924482Y-105524188D01*
X151800000Y-105511928D01*
X151285750Y-105515000D01*
X151127000Y-105673750D01*
X150873000Y-105673750D01*
X150714250Y-105515000D01*
X150200000Y-105511928D01*
X150075518Y-105524188D01*
X149955820Y-105560498D01*
X149845506Y-105619463D01*
X149748815Y-105698815D01*
X149669463Y-105795506D01*
X149610498Y-105905820D01*
X149574188Y-106025518D01*
X149561928Y-106150000D01*
X148728251Y-106150000D01*
X148590256Y-106057795D01*
X148401898Y-105979774D01*
X148201939Y-105940000D01*
X147998061Y-105940000D01*
X147798102Y-105979774D01*
X147609744Y-106057795D01*
X147440226Y-106171063D01*
X147296063Y-106315226D01*
X147182795Y-106484744D01*
X147180622Y-106489990D01*
X147135000Y-106489990D01*
X147135000Y-106398061D01*
X147095226Y-106198102D01*
X147017205Y-106009744D01*
X146903937Y-105840226D01*
X146759774Y-105696063D01*
X146590256Y-105582795D01*
X146401898Y-105504774D01*
X146201939Y-105465000D01*
X146106811Y-105465000D01*
X146012247Y-105414454D01*
X145868986Y-105370997D01*
X145757333Y-105360000D01*
X145757322Y-105360000D01*
X145720000Y-105356324D01*
X145682678Y-105360000D01*
X144878178Y-105360000D01*
X144753475Y-105173368D01*
X144740107Y-105160000D01*
X171740000Y-105160000D01*
X171740000Y-106362199D01*
G36*
X141187000Y-116153000D02*
G01*
X141207000Y-116153000D01*
X141207000Y-116407000D01*
X141187000Y-116407000D01*
X141187000Y-116427000D01*
X140933000Y-116427000D01*
X140933000Y-116407000D01*
X140913000Y-116407000D01*
X140913000Y-116153000D01*
X140933000Y-116153000D01*
X140933000Y-116133000D01*
X141187000Y-116133000D01*
X141187000Y-116153000D01*
G37*
X141187000Y-116153000D02*
X141207000Y-116153000D01*
X141207000Y-116407000D01*
X141187000Y-116407000D01*
X141187000Y-116427000D01*
X140933000Y-116427000D01*
X140933000Y-116407000D01*
X140913000Y-116407000D01*
X140913000Y-116153000D01*
X140933000Y-116153000D01*
X140933000Y-116133000D01*
X141187000Y-116133000D01*
X141187000Y-116153000D01*
G36*
X147646009Y-114123890D02*
G01*
X147790000Y-114138072D01*
X147965000Y-114138072D01*
X147965000Y-114147002D01*
X148099748Y-114147002D01*
X147965000Y-114281750D01*
X147970843Y-114356291D01*
X148003669Y-114476991D01*
X148059411Y-114588968D01*
X148135928Y-114687919D01*
X148230278Y-114770040D01*
X148338837Y-114832177D01*
X148457433Y-114871941D01*
X148568250Y-114885000D01*
X148727000Y-114726250D01*
X148727000Y-114248072D01*
X148873000Y-114248072D01*
X148873000Y-114726250D01*
X149031750Y-114885000D01*
X149142567Y-114871941D01*
X149261163Y-114832177D01*
X149369722Y-114770040D01*
X149464072Y-114687919D01*
X149540589Y-114588968D01*
X149561928Y-114546101D01*
X149561928Y-114745674D01*
X149525724Y-114765026D01*
X149409999Y-114859999D01*
X149386201Y-114888997D01*
X148589002Y-115686197D01*
X148588997Y-115686201D01*
X148125500Y-116149698D01*
X148135000Y-116101939D01*
X148135000Y-115898061D01*
X148095226Y-115698102D01*
X148017205Y-115509744D01*
X147903937Y-115340226D01*
X147759774Y-115196063D01*
X147590256Y-115082795D01*
X147401898Y-115004774D01*
X147201939Y-114965000D01*
X146998061Y-114965000D01*
X146798102Y-115004774D01*
X146609744Y-115082795D01*
X146440226Y-115196063D01*
X146296063Y-115340226D01*
X146182795Y-115509744D01*
X146178547Y-115520000D01*
X145088072Y-115520000D01*
X145088072Y-115430000D01*
X145075812Y-115305518D01*
X145039502Y-115185820D01*
X144980537Y-115075506D01*
X144901185Y-114978815D01*
X144804494Y-114899463D01*
X144694180Y-114840498D01*
X144621620Y-114818487D01*
X144753475Y-114686632D01*
X144915990Y-114443411D01*
X145027932Y-114173158D01*
X145034528Y-114140000D01*
X145565000Y-114140000D01*
X145565000Y-114147002D01*
X145699748Y-114147002D01*
X145565000Y-114281750D01*
X145570843Y-114356291D01*
X145603669Y-114476991D01*
X145659411Y-114588968D01*
X145735928Y-114687919D01*
X145830278Y-114770040D01*
X145938837Y-114832177D01*
X146057433Y-114871941D01*
X146168250Y-114885000D01*
X146327000Y-114726250D01*
X146327000Y-114248072D01*
X146473000Y-114248072D01*
X146473000Y-114726250D01*
X146631750Y-114885000D01*
X146742567Y-114871941D01*
X146861163Y-114832177D01*
X146969722Y-114770040D01*
X147064072Y-114687919D01*
X147140589Y-114588968D01*
X147196331Y-114476991D01*
X147229157Y-114356291D01*
X147235000Y-114281750D01*
X147100252Y-114147002D01*
X147235000Y-114147002D01*
X147235000Y-114138072D01*
X147410000Y-114138072D01*
X147553991Y-114123890D01*
X147600000Y-114109933D01*
X147646009Y-114123890D01*
G37*
X147646009Y-114123890D02*
X147790000Y-114138072D01*
X147965000Y-114138072D01*
X147965000Y-114147002D01*
X148099748Y-114147002D01*
X147965000Y-114281750D01*
X147970843Y-114356291D01*
X148003669Y-114476991D01*
X148059411Y-114588968D01*
X148135928Y-114687919D01*
X148230278Y-114770040D01*
X148338837Y-114832177D01*
X148457433Y-114871941D01*
X148568250Y-114885000D01*
X148727000Y-114726250D01*
X148727000Y-114248072D01*
X148873000Y-114248072D01*
X148873000Y-114726250D01*
X149031750Y-114885000D01*
X149142567Y-114871941D01*
X149261163Y-114832177D01*
X149369722Y-114770040D01*
X149464072Y-114687919D01*
X149540589Y-114588968D01*
X149561928Y-114546101D01*
X149561928Y-114745674D01*
X149525724Y-114765026D01*
X149409999Y-114859999D01*
X149386201Y-114888997D01*
X148589002Y-115686197D01*
X148588997Y-115686201D01*
X148125500Y-116149698D01*
X148135000Y-116101939D01*
X148135000Y-115898061D01*
X148095226Y-115698102D01*
X148017205Y-115509744D01*
X147903937Y-115340226D01*
X147759774Y-115196063D01*
X147590256Y-115082795D01*
X147401898Y-115004774D01*
X147201939Y-114965000D01*
X146998061Y-114965000D01*
X146798102Y-115004774D01*
X146609744Y-115082795D01*
X146440226Y-115196063D01*
X146296063Y-115340226D01*
X146182795Y-115509744D01*
X146178547Y-115520000D01*
X145088072Y-115520000D01*
X145088072Y-115430000D01*
X145075812Y-115305518D01*
X145039502Y-115185820D01*
X144980537Y-115075506D01*
X144901185Y-114978815D01*
X144804494Y-114899463D01*
X144694180Y-114840498D01*
X144621620Y-114818487D01*
X144753475Y-114686632D01*
X144915990Y-114443411D01*
X145027932Y-114173158D01*
X145034528Y-114140000D01*
X145565000Y-114140000D01*
X145565000Y-114147002D01*
X145699748Y-114147002D01*
X145565000Y-114281750D01*
X145570843Y-114356291D01*
X145603669Y-114476991D01*
X145659411Y-114588968D01*
X145735928Y-114687919D01*
X145830278Y-114770040D01*
X145938837Y-114832177D01*
X146057433Y-114871941D01*
X146168250Y-114885000D01*
X146327000Y-114726250D01*
X146327000Y-114248072D01*
X146473000Y-114248072D01*
X146473000Y-114726250D01*
X146631750Y-114885000D01*
X146742567Y-114871941D01*
X146861163Y-114832177D01*
X146969722Y-114770040D01*
X147064072Y-114687919D01*
X147140589Y-114588968D01*
X147196331Y-114476991D01*
X147229157Y-114356291D01*
X147235000Y-114281750D01*
X147100252Y-114147002D01*
X147235000Y-114147002D01*
X147235000Y-114138072D01*
X147410000Y-114138072D01*
X147553991Y-114123890D01*
X147600000Y-114109933D01*
X147646009Y-114123890D01*
G36*
X142446525Y-114686632D02*
G01*
X142578380Y-114818487D01*
X142505820Y-114840498D01*
X142395506Y-114899463D01*
X142298815Y-114978815D01*
X142219463Y-115075506D01*
X142160498Y-115185820D01*
X142137502Y-115261626D01*
X141941355Y-115084822D01*
X141824466Y-115015195D01*
X142006632Y-114893475D01*
X142213475Y-114686632D01*
X142330000Y-114512240D01*
X142446525Y-114686632D01*
G37*
X142446525Y-114686632D02*
X142578380Y-114818487D01*
X142505820Y-114840498D01*
X142395506Y-114899463D01*
X142298815Y-114978815D01*
X142219463Y-115075506D01*
X142160498Y-115185820D01*
X142137502Y-115261626D01*
X141941355Y-115084822D01*
X141824466Y-115015195D01*
X142006632Y-114893475D01*
X142213475Y-114686632D01*
X142330000Y-114512240D01*
X142446525Y-114686632D01*
G36*
X149175724Y-111634974D02*
G01*
X149250341Y-111674858D01*
X149235186Y-111690013D01*
X149174276Y-111640026D01*
X149135000Y-111619032D01*
X149135000Y-111601553D01*
X149175724Y-111634974D01*
G37*
X149175724Y-111634974D02*
X149250341Y-111674858D01*
X149235186Y-111690013D01*
X149174276Y-111640026D01*
X149135000Y-111619032D01*
X149135000Y-111601553D01*
X149175724Y-111634974D01*
M02*
