M48
; DRILL file {KiCad (5.1.5)-3} date 5/12/2020 4:51:12 PM
; FORMAT={-:-/ absolute / inch / decimal}
; #@! TF.CreationDate,2020-05-12T16:51:12+05:30
; #@! TF.GenerationSoftware,Kicad,Pcbnew,(5.1.5)-3
; #@! TF.FileFunction,Plated,1,2,PTH
FMAT,2
INCH
T1C0.0157
T2C0.0394
%
G90
G05
T1
X5.752Y-4.1929
X5.752Y-4.5276
X5.752Y-4.6065
X5.7913Y-4.5669
X5.7953Y-4.4213
X5.8307Y-4.2116
X5.8504Y-4.5276
X5.874Y-4.3976
X5.8898Y-4.4843
X6.0433Y-4.1535
X6.0945Y-4.1575
X6.1378Y-4.1575
X6.1811Y-4.1575
X6.185Y-4.2913
X6.2047Y-4.252
X6.2244Y-4.1575
X6.374Y-4.4488
X6.3858Y-4.5748
X6.4094Y-4.1614
X6.4094Y-4.2047
X6.4094Y-4.248
X6.4183Y-4.374
X6.4409Y-4.5748
X6.4646Y-4.1614
X6.4646Y-4.2047
X6.4646Y-4.248
X6.4646Y-4.2913
X6.479Y-4.3924
X6.5039Y-4.5748
X6.5157Y-4.1614
X6.5157Y-4.2047
X6.5157Y-4.248
X6.5197Y-4.2913
X6.5354Y-4.5118
X6.5512Y-4.4331
X6.5551Y-4.5748
X6.5748Y-4.1614
X6.5945Y-4.5315
X6.6063Y-4.5748
X6.6299Y-4.1614
X6.6457Y-4.5315
X6.6535Y-4.5787
X6.6772Y-4.1614
X6.6969Y-4.5315
X6.7008Y-4.5748
X6.7244Y-4.1614
X6.7362Y-4.5315
X6.7402Y-4.5709
T2
X5.5535Y-4.178
X5.5535Y-4.278
X5.5535Y-4.378
X5.5535Y-4.478
X5.5535Y-4.578
X5.6535Y-4.178
X5.6535Y-4.278
X5.6535Y-4.378
X5.6535Y-4.478
X5.6535Y-4.578
T0
M30
