G04 #@! TF.GenerationSoftware,KiCad,Pcbnew,(5.1.5)-3*
G04 #@! TF.CreationDate,2020-05-12T16:51:07+05:30*
G04 #@! TF.ProjectId,Teseo_Mod,54657365-6f5f-44d6-9f64-2e6b69636164,rev?*
G04 #@! TF.SameCoordinates,Original*
G04 #@! TF.FileFunction,Legend,Bot*
G04 #@! TF.FilePolarity,Positive*
%FSLAX46Y46*%
G04 Gerber Fmt 4.6, Leading zero omitted, Abs format (unit mm)*
G04 Created by KiCad (PCBNEW (5.1.5)-3) date 2020-05-12 16:51:07*
%MOMM*%
%LPD*%
G04 APERTURE LIST*
%ADD10C,0.125000*%
%ADD11C,0.010000*%
G04 APERTURE END LIST*
D10*
X152197619Y-112323809D02*
X152102380Y-112323809D01*
X152054761Y-112300000D01*
X152030952Y-112276190D01*
X151983333Y-112204761D01*
X151959523Y-112109523D01*
X151959523Y-111919047D01*
X151983333Y-111871428D01*
X152007142Y-111847619D01*
X152054761Y-111823809D01*
X152150000Y-111823809D01*
X152197619Y-111847619D01*
X152221428Y-111871428D01*
X152245238Y-111919047D01*
X152245238Y-112038095D01*
X152221428Y-112085714D01*
X152197619Y-112109523D01*
X152150000Y-112133333D01*
X152054761Y-112133333D01*
X152007142Y-112109523D01*
X151983333Y-112085714D01*
X151959523Y-112038095D01*
X152459523Y-111871428D02*
X152483333Y-111847619D01*
X152459523Y-111823809D01*
X152435714Y-111847619D01*
X152459523Y-111871428D01*
X152459523Y-111823809D01*
X152459523Y-112133333D02*
X152483333Y-112109523D01*
X152459523Y-112085714D01*
X152435714Y-112109523D01*
X152459523Y-112133333D01*
X152459523Y-112085714D01*
X153364285Y-111823809D02*
X153197619Y-112061904D01*
X153078571Y-111823809D02*
X153078571Y-112323809D01*
X153269047Y-112323809D01*
X153316666Y-112300000D01*
X153340476Y-112276190D01*
X153364285Y-112228571D01*
X153364285Y-112157142D01*
X153340476Y-112109523D01*
X153316666Y-112085714D01*
X153269047Y-112061904D01*
X153078571Y-112061904D01*
X153530952Y-112323809D02*
X153864285Y-111823809D01*
X153864285Y-112323809D02*
X153530952Y-111823809D01*
X151995238Y-111448809D02*
X152328571Y-111448809D01*
X152114285Y-110948809D01*
X152519047Y-110996428D02*
X152542857Y-110972619D01*
X152519047Y-110948809D01*
X152495238Y-110972619D01*
X152519047Y-110996428D01*
X152519047Y-110948809D01*
X152519047Y-111258333D02*
X152542857Y-111234523D01*
X152519047Y-111210714D01*
X152495238Y-111234523D01*
X152519047Y-111258333D01*
X152519047Y-111210714D01*
X153066666Y-111448809D02*
X153352380Y-111448809D01*
X153209523Y-110948809D02*
X153209523Y-111448809D01*
X153471428Y-111448809D02*
X153804761Y-110948809D01*
X153804761Y-111448809D02*
X153471428Y-110948809D01*
X151840476Y-110359523D02*
X151792857Y-110383333D01*
X151769047Y-110407142D01*
X151745238Y-110454761D01*
X151745238Y-110478571D01*
X151769047Y-110526190D01*
X151792857Y-110550000D01*
X151840476Y-110573809D01*
X151935714Y-110573809D01*
X151983333Y-110550000D01*
X152007142Y-110526190D01*
X152030952Y-110478571D01*
X152030952Y-110454761D01*
X152007142Y-110407142D01*
X151983333Y-110383333D01*
X151935714Y-110359523D01*
X151840476Y-110359523D01*
X151792857Y-110335714D01*
X151769047Y-110311904D01*
X151745238Y-110264285D01*
X151745238Y-110169047D01*
X151769047Y-110121428D01*
X151792857Y-110097619D01*
X151840476Y-110073809D01*
X151935714Y-110073809D01*
X151983333Y-110097619D01*
X152007142Y-110121428D01*
X152030952Y-110169047D01*
X152030952Y-110264285D01*
X152007142Y-110311904D01*
X151983333Y-110335714D01*
X151935714Y-110359523D01*
X152245238Y-110121428D02*
X152269047Y-110097619D01*
X152245238Y-110073809D01*
X152221428Y-110097619D01*
X152245238Y-110121428D01*
X152245238Y-110073809D01*
X152245238Y-110383333D02*
X152269047Y-110359523D01*
X152245238Y-110335714D01*
X152221428Y-110359523D01*
X152245238Y-110383333D01*
X152245238Y-110335714D01*
X152840476Y-110097619D02*
X152911904Y-110073809D01*
X153030952Y-110073809D01*
X153078571Y-110097619D01*
X153102380Y-110121428D01*
X153126190Y-110169047D01*
X153126190Y-110216666D01*
X153102380Y-110264285D01*
X153078571Y-110288095D01*
X153030952Y-110311904D01*
X152935714Y-110335714D01*
X152888095Y-110359523D01*
X152864285Y-110383333D01*
X152840476Y-110430952D01*
X152840476Y-110478571D01*
X152864285Y-110526190D01*
X152888095Y-110550000D01*
X152935714Y-110573809D01*
X153054761Y-110573809D01*
X153126190Y-110550000D01*
X153340476Y-110073809D02*
X153340476Y-110573809D01*
X153459523Y-110573809D01*
X153530952Y-110550000D01*
X153578571Y-110502380D01*
X153602380Y-110454761D01*
X153626190Y-110359523D01*
X153626190Y-110288095D01*
X153602380Y-110192857D01*
X153578571Y-110145238D01*
X153530952Y-110097619D01*
X153459523Y-110073809D01*
X153340476Y-110073809D01*
X153816666Y-110216666D02*
X154054761Y-110216666D01*
X153769047Y-110073809D02*
X153935714Y-110573809D01*
X154102380Y-110073809D01*
X151804761Y-109198809D02*
X151900000Y-109198809D01*
X151947619Y-109222619D01*
X151971428Y-109246428D01*
X152019047Y-109317857D01*
X152042857Y-109413095D01*
X152042857Y-109603571D01*
X152019047Y-109651190D01*
X151995238Y-109675000D01*
X151947619Y-109698809D01*
X151852380Y-109698809D01*
X151804761Y-109675000D01*
X151780952Y-109651190D01*
X151757142Y-109603571D01*
X151757142Y-109484523D01*
X151780952Y-109436904D01*
X151804761Y-109413095D01*
X151852380Y-109389285D01*
X151947619Y-109389285D01*
X151995238Y-109413095D01*
X152019047Y-109436904D01*
X152042857Y-109484523D01*
X152257142Y-109246428D02*
X152280952Y-109222619D01*
X152257142Y-109198809D01*
X152233333Y-109222619D01*
X152257142Y-109246428D01*
X152257142Y-109198809D01*
X152257142Y-109508333D02*
X152280952Y-109484523D01*
X152257142Y-109460714D01*
X152233333Y-109484523D01*
X152257142Y-109508333D01*
X152257142Y-109460714D01*
X152852380Y-109222619D02*
X152923809Y-109198809D01*
X153042857Y-109198809D01*
X153090476Y-109222619D01*
X153114285Y-109246428D01*
X153138095Y-109294047D01*
X153138095Y-109341666D01*
X153114285Y-109389285D01*
X153090476Y-109413095D01*
X153042857Y-109436904D01*
X152947619Y-109460714D01*
X152900000Y-109484523D01*
X152876190Y-109508333D01*
X152852380Y-109555952D01*
X152852380Y-109603571D01*
X152876190Y-109651190D01*
X152900000Y-109675000D01*
X152947619Y-109698809D01*
X153066666Y-109698809D01*
X153138095Y-109675000D01*
X153638095Y-109246428D02*
X153614285Y-109222619D01*
X153542857Y-109198809D01*
X153495238Y-109198809D01*
X153423809Y-109222619D01*
X153376190Y-109270238D01*
X153352380Y-109317857D01*
X153328571Y-109413095D01*
X153328571Y-109484523D01*
X153352380Y-109579761D01*
X153376190Y-109627380D01*
X153423809Y-109675000D01*
X153495238Y-109698809D01*
X153542857Y-109698809D01*
X153614285Y-109675000D01*
X153638095Y-109651190D01*
X154090476Y-109198809D02*
X153852380Y-109198809D01*
X153852380Y-109698809D01*
X151364285Y-108323809D02*
X151078571Y-108323809D01*
X151221428Y-108323809D02*
X151221428Y-108823809D01*
X151173809Y-108752380D01*
X151126190Y-108704761D01*
X151078571Y-108680952D01*
X151673809Y-108823809D02*
X151721428Y-108823809D01*
X151769047Y-108800000D01*
X151792857Y-108776190D01*
X151816666Y-108728571D01*
X151840476Y-108633333D01*
X151840476Y-108514285D01*
X151816666Y-108419047D01*
X151792857Y-108371428D01*
X151769047Y-108347619D01*
X151721428Y-108323809D01*
X151673809Y-108323809D01*
X151626190Y-108347619D01*
X151602380Y-108371428D01*
X151578571Y-108419047D01*
X151554761Y-108514285D01*
X151554761Y-108633333D01*
X151578571Y-108728571D01*
X151602380Y-108776190D01*
X151626190Y-108800000D01*
X151673809Y-108823809D01*
X152054761Y-108371428D02*
X152078571Y-108347619D01*
X152054761Y-108323809D01*
X152030952Y-108347619D01*
X152054761Y-108371428D01*
X152054761Y-108323809D01*
X152054761Y-108633333D02*
X152078571Y-108609523D01*
X152054761Y-108585714D01*
X152030952Y-108609523D01*
X152054761Y-108633333D01*
X152054761Y-108585714D01*
X152959523Y-108323809D02*
X152792857Y-108561904D01*
X152673809Y-108323809D02*
X152673809Y-108823809D01*
X152864285Y-108823809D01*
X152911904Y-108800000D01*
X152935714Y-108776190D01*
X152959523Y-108728571D01*
X152959523Y-108657142D01*
X152935714Y-108609523D01*
X152911904Y-108585714D01*
X152864285Y-108561904D01*
X152673809Y-108561904D01*
X153173809Y-108585714D02*
X153340476Y-108585714D01*
X153411904Y-108323809D02*
X153173809Y-108323809D01*
X153173809Y-108823809D01*
X153411904Y-108823809D01*
X153602380Y-108347619D02*
X153673809Y-108323809D01*
X153792857Y-108323809D01*
X153840476Y-108347619D01*
X153864285Y-108371428D01*
X153888095Y-108419047D01*
X153888095Y-108466666D01*
X153864285Y-108514285D01*
X153840476Y-108538095D01*
X153792857Y-108561904D01*
X153697619Y-108585714D01*
X153650000Y-108609523D01*
X153626190Y-108633333D01*
X153602380Y-108680952D01*
X153602380Y-108728571D01*
X153626190Y-108776190D01*
X153650000Y-108800000D01*
X153697619Y-108823809D01*
X153816666Y-108823809D01*
X153888095Y-108800000D01*
X154102380Y-108585714D02*
X154269047Y-108585714D01*
X154340476Y-108323809D02*
X154102380Y-108323809D01*
X154102380Y-108823809D01*
X154340476Y-108823809D01*
X154483333Y-108823809D02*
X154769047Y-108823809D01*
X154626190Y-108323809D02*
X154626190Y-108823809D01*
X152064285Y-116223809D02*
X151778571Y-116223809D01*
X151921428Y-116223809D02*
X151921428Y-116723809D01*
X151873809Y-116652380D01*
X151826190Y-116604761D01*
X151778571Y-116580952D01*
X152278571Y-116271428D02*
X152302380Y-116247619D01*
X152278571Y-116223809D01*
X152254761Y-116247619D01*
X152278571Y-116271428D01*
X152278571Y-116223809D01*
X152278571Y-116533333D02*
X152302380Y-116509523D01*
X152278571Y-116485714D01*
X152254761Y-116509523D01*
X152278571Y-116533333D01*
X152278571Y-116485714D01*
X152826190Y-116723809D02*
X152992857Y-116223809D01*
X153159523Y-116723809D01*
X153492857Y-116485714D02*
X153564285Y-116461904D01*
X153588095Y-116438095D01*
X153611904Y-116390476D01*
X153611904Y-116319047D01*
X153588095Y-116271428D01*
X153564285Y-116247619D01*
X153516666Y-116223809D01*
X153326190Y-116223809D01*
X153326190Y-116723809D01*
X153492857Y-116723809D01*
X153540476Y-116700000D01*
X153564285Y-116676190D01*
X153588095Y-116628571D01*
X153588095Y-116580952D01*
X153564285Y-116533333D01*
X153540476Y-116509523D01*
X153492857Y-116485714D01*
X153326190Y-116485714D01*
X153802380Y-116366666D02*
X154040476Y-116366666D01*
X153754761Y-116223809D02*
X153921428Y-116723809D01*
X154088095Y-116223809D01*
X154183333Y-116723809D02*
X154469047Y-116723809D01*
X154326190Y-116223809D02*
X154326190Y-116723809D01*
X151885714Y-115801190D02*
X151909523Y-115825000D01*
X151957142Y-115848809D01*
X152076190Y-115848809D01*
X152123809Y-115825000D01*
X152147619Y-115801190D01*
X152171428Y-115753571D01*
X152171428Y-115705952D01*
X152147619Y-115634523D01*
X151861904Y-115348809D01*
X152171428Y-115348809D01*
X152385714Y-115396428D02*
X152409523Y-115372619D01*
X152385714Y-115348809D01*
X152361904Y-115372619D01*
X152385714Y-115396428D01*
X152385714Y-115348809D01*
X152385714Y-115658333D02*
X152409523Y-115634523D01*
X152385714Y-115610714D01*
X152361904Y-115634523D01*
X152385714Y-115658333D01*
X152385714Y-115610714D01*
X153266666Y-115825000D02*
X153219047Y-115848809D01*
X153147619Y-115848809D01*
X153076190Y-115825000D01*
X153028571Y-115777380D01*
X153004761Y-115729761D01*
X152980952Y-115634523D01*
X152980952Y-115563095D01*
X153004761Y-115467857D01*
X153028571Y-115420238D01*
X153076190Y-115372619D01*
X153147619Y-115348809D01*
X153195238Y-115348809D01*
X153266666Y-115372619D01*
X153290476Y-115396428D01*
X153290476Y-115563095D01*
X153195238Y-115563095D01*
X153504761Y-115348809D02*
X153504761Y-115848809D01*
X153790476Y-115348809D01*
X153790476Y-115848809D01*
X154028571Y-115348809D02*
X154028571Y-115848809D01*
X154147619Y-115848809D01*
X154219047Y-115825000D01*
X154266666Y-115777380D01*
X154290476Y-115729761D01*
X154314285Y-115634523D01*
X154314285Y-115563095D01*
X154290476Y-115467857D01*
X154266666Y-115420238D01*
X154219047Y-115372619D01*
X154147619Y-115348809D01*
X154028571Y-115348809D01*
X151814285Y-114973809D02*
X152123809Y-114973809D01*
X151957142Y-114783333D01*
X152028571Y-114783333D01*
X152076190Y-114759523D01*
X152100000Y-114735714D01*
X152123809Y-114688095D01*
X152123809Y-114569047D01*
X152100000Y-114521428D01*
X152076190Y-114497619D01*
X152028571Y-114473809D01*
X151885714Y-114473809D01*
X151838095Y-114497619D01*
X151814285Y-114521428D01*
X152338095Y-114521428D02*
X152361904Y-114497619D01*
X152338095Y-114473809D01*
X152314285Y-114497619D01*
X152338095Y-114521428D01*
X152338095Y-114473809D01*
X152338095Y-114783333D02*
X152361904Y-114759523D01*
X152338095Y-114735714D01*
X152314285Y-114759523D01*
X152338095Y-114783333D01*
X152338095Y-114735714D01*
X152909523Y-114973809D02*
X153219047Y-114973809D01*
X153052380Y-114783333D01*
X153123809Y-114783333D01*
X153171428Y-114759523D01*
X153195238Y-114735714D01*
X153219047Y-114688095D01*
X153219047Y-114569047D01*
X153195238Y-114521428D01*
X153171428Y-114497619D01*
X153123809Y-114473809D01*
X152980952Y-114473809D01*
X152933333Y-114497619D01*
X152909523Y-114521428D01*
X153433333Y-114521428D02*
X153457142Y-114497619D01*
X153433333Y-114473809D01*
X153409523Y-114497619D01*
X153433333Y-114521428D01*
X153433333Y-114473809D01*
X153623809Y-114973809D02*
X153933333Y-114973809D01*
X153766666Y-114783333D01*
X153838095Y-114783333D01*
X153885714Y-114759523D01*
X153909523Y-114735714D01*
X153933333Y-114688095D01*
X153933333Y-114569047D01*
X153909523Y-114521428D01*
X153885714Y-114497619D01*
X153838095Y-114473809D01*
X153695238Y-114473809D01*
X153647619Y-114497619D01*
X153623809Y-114521428D01*
X154076190Y-114973809D02*
X154242857Y-114473809D01*
X154409523Y-114973809D01*
X151397619Y-113932142D02*
X151397619Y-113598809D01*
X151278571Y-114122619D02*
X151159523Y-113765476D01*
X151469047Y-113765476D01*
X151659523Y-113646428D02*
X151683333Y-113622619D01*
X151659523Y-113598809D01*
X151635714Y-113622619D01*
X151659523Y-113646428D01*
X151659523Y-113598809D01*
X151659523Y-113908333D02*
X151683333Y-113884523D01*
X151659523Y-113860714D01*
X151635714Y-113884523D01*
X151659523Y-113908333D01*
X151659523Y-113860714D01*
X152230952Y-114098809D02*
X152350000Y-113598809D01*
X152445238Y-113955952D01*
X152540476Y-113598809D01*
X152659523Y-114098809D01*
X152826190Y-113741666D02*
X153064285Y-113741666D01*
X152778571Y-113598809D02*
X152945238Y-114098809D01*
X153111904Y-113598809D01*
X153278571Y-113598809D02*
X153278571Y-114098809D01*
X153564285Y-113598809D02*
X153350000Y-113884523D01*
X153564285Y-114098809D02*
X153278571Y-113813095D01*
X153778571Y-113860714D02*
X153945238Y-113860714D01*
X154016666Y-113598809D02*
X153778571Y-113598809D01*
X153778571Y-114098809D01*
X154016666Y-114098809D01*
X154230952Y-114098809D02*
X154230952Y-113694047D01*
X154254761Y-113646428D01*
X154278571Y-113622619D01*
X154326190Y-113598809D01*
X154421428Y-113598809D01*
X154469047Y-113622619D01*
X154492857Y-113646428D01*
X154516666Y-113694047D01*
X154516666Y-114098809D01*
X154754761Y-113598809D02*
X154754761Y-114098809D01*
X154945238Y-114098809D01*
X154992857Y-114075000D01*
X155016666Y-114051190D01*
X155040476Y-114003571D01*
X155040476Y-113932142D01*
X155016666Y-113884523D01*
X154992857Y-113860714D01*
X154945238Y-113836904D01*
X154754761Y-113836904D01*
X152171428Y-113223809D02*
X151933333Y-113223809D01*
X151909523Y-112985714D01*
X151933333Y-113009523D01*
X151980952Y-113033333D01*
X152100000Y-113033333D01*
X152147619Y-113009523D01*
X152171428Y-112985714D01*
X152195238Y-112938095D01*
X152195238Y-112819047D01*
X152171428Y-112771428D01*
X152147619Y-112747619D01*
X152100000Y-112723809D01*
X151980952Y-112723809D01*
X151933333Y-112747619D01*
X151909523Y-112771428D01*
X152409523Y-112771428D02*
X152433333Y-112747619D01*
X152409523Y-112723809D01*
X152385714Y-112747619D01*
X152409523Y-112771428D01*
X152409523Y-112723809D01*
X152409523Y-113033333D02*
X152433333Y-113009523D01*
X152409523Y-112985714D01*
X152385714Y-113009523D01*
X152409523Y-113033333D01*
X152409523Y-112985714D01*
X153028571Y-112723809D02*
X153028571Y-113223809D01*
X153219047Y-113223809D01*
X153266666Y-113200000D01*
X153290476Y-113176190D01*
X153314285Y-113128571D01*
X153314285Y-113057142D01*
X153290476Y-113009523D01*
X153266666Y-112985714D01*
X153219047Y-112961904D01*
X153028571Y-112961904D01*
X153528571Y-112723809D02*
X153528571Y-113223809D01*
X153719047Y-113223809D01*
X153766666Y-113200000D01*
X153790476Y-113176190D01*
X153814285Y-113128571D01*
X153814285Y-113057142D01*
X153790476Y-113009523D01*
X153766666Y-112985714D01*
X153719047Y-112961904D01*
X153528571Y-112961904D01*
X154004761Y-112747619D02*
X154076190Y-112723809D01*
X154195238Y-112723809D01*
X154242857Y-112747619D01*
X154266666Y-112771428D01*
X154290476Y-112819047D01*
X154290476Y-112866666D01*
X154266666Y-112914285D01*
X154242857Y-112938095D01*
X154195238Y-112961904D01*
X154100000Y-112985714D01*
X154052380Y-113009523D01*
X154028571Y-113033333D01*
X154004761Y-113080952D01*
X154004761Y-113128571D01*
X154028571Y-113176190D01*
X154052380Y-113200000D01*
X154100000Y-113223809D01*
X154219047Y-113223809D01*
X154290476Y-113200000D01*
D11*
G36*
X158403910Y-115957652D02*
G01*
X158482454Y-115957222D01*
X158539298Y-115956058D01*
X158578105Y-115953793D01*
X158602538Y-115950060D01*
X158616262Y-115944494D01*
X158622940Y-115936727D01*
X158626236Y-115926395D01*
X158626556Y-115925057D01*
X158631562Y-115900921D01*
X158640829Y-115853299D01*
X158653392Y-115787259D01*
X158668287Y-115707872D01*
X158684551Y-115620204D01*
X158685119Y-115617125D01*
X158701410Y-115531211D01*
X158716652Y-115455304D01*
X158729861Y-115393955D01*
X158740054Y-115351718D01*
X158746248Y-115333145D01*
X158746543Y-115332816D01*
X158764788Y-115323747D01*
X158802405Y-115308633D01*
X158851271Y-115290738D01*
X158851543Y-115290642D01*
X158913093Y-115267507D01*
X158985657Y-115238035D01*
X159054057Y-115208403D01*
X159057294Y-115206938D01*
X159168702Y-115156374D01*
X159415399Y-115324840D01*
X159491077Y-115376197D01*
X159559631Y-115422111D01*
X159617088Y-115459970D01*
X159659476Y-115487163D01*
X159682825Y-115501079D01*
X159685042Y-115502111D01*
X159702010Y-115497516D01*
X159733701Y-115475345D01*
X159781352Y-115434553D01*
X159846198Y-115374095D01*
X159912397Y-115309773D01*
X159976214Y-115246388D01*
X160033329Y-115188549D01*
X160080305Y-115139825D01*
X160113703Y-115103790D01*
X160130085Y-115084016D01*
X160130694Y-115082998D01*
X160132505Y-115069428D01*
X160125683Y-115047267D01*
X160108540Y-115013522D01*
X160079393Y-114965200D01*
X160036555Y-114899308D01*
X159979448Y-114814483D01*
X159928766Y-114739823D01*
X159883461Y-114672860D01*
X159846150Y-114617484D01*
X159819452Y-114577580D01*
X159805985Y-114557038D01*
X159805137Y-114555644D01*
X159806781Y-114535962D01*
X159819245Y-114497707D01*
X159840048Y-114448111D01*
X159847462Y-114432272D01*
X159879814Y-114361710D01*
X159914328Y-114281647D01*
X159942365Y-114212371D01*
X159962568Y-114160955D01*
X159978615Y-114121881D01*
X159987888Y-114101459D01*
X159989041Y-114099886D01*
X160006096Y-114097279D01*
X160046298Y-114090137D01*
X160104302Y-114079477D01*
X160174763Y-114066315D01*
X160252335Y-114051667D01*
X160331672Y-114036551D01*
X160407431Y-114021982D01*
X160474264Y-114008978D01*
X160526828Y-113998555D01*
X160559776Y-113991730D01*
X160567857Y-113989801D01*
X160576205Y-113985038D01*
X160582506Y-113974282D01*
X160587045Y-113953902D01*
X160590104Y-113920266D01*
X160591967Y-113869745D01*
X160592918Y-113798708D01*
X160593240Y-113703524D01*
X160593257Y-113664508D01*
X160593257Y-113347201D01*
X160517057Y-113332161D01*
X160474663Y-113324005D01*
X160411400Y-113312101D01*
X160334962Y-113297884D01*
X160253043Y-113282790D01*
X160230400Y-113278645D01*
X160154806Y-113263947D01*
X160088953Y-113249495D01*
X160038366Y-113236625D01*
X160008574Y-113226678D01*
X160003612Y-113223713D01*
X159991426Y-113202717D01*
X159973953Y-113162033D01*
X159954577Y-113109678D01*
X159950734Y-113098400D01*
X159925339Y-113028477D01*
X159893817Y-112949582D01*
X159862969Y-112878734D01*
X159862817Y-112878405D01*
X159811447Y-112767267D01*
X159980399Y-112518747D01*
X160149352Y-112270228D01*
X159932429Y-112052942D01*
X159866819Y-111988274D01*
X159806979Y-111931267D01*
X159756267Y-111884967D01*
X159718046Y-111852416D01*
X159695675Y-111836657D01*
X159692466Y-111835657D01*
X159673626Y-111843531D01*
X159635180Y-111865422D01*
X159581330Y-111898733D01*
X159516276Y-111940869D01*
X159445940Y-111988057D01*
X159374555Y-112036190D01*
X159310908Y-112078072D01*
X159259041Y-112111129D01*
X159222995Y-112132782D01*
X159206867Y-112140457D01*
X159187189Y-112133963D01*
X159149875Y-112116850D01*
X159102621Y-112092674D01*
X159097612Y-112089987D01*
X159033977Y-112058073D01*
X158990341Y-112042421D01*
X158963202Y-112042255D01*
X158949057Y-112056796D01*
X158948975Y-112057000D01*
X158941905Y-112074221D01*
X158925042Y-112115101D01*
X158899695Y-112176475D01*
X158867171Y-112255181D01*
X158828778Y-112348053D01*
X158785822Y-112451928D01*
X158744222Y-112552498D01*
X158698504Y-112663484D01*
X158656526Y-112766297D01*
X158619548Y-112857785D01*
X158588827Y-112934799D01*
X158565622Y-112994185D01*
X158551190Y-113032791D01*
X158546743Y-113047200D01*
X158557896Y-113063728D01*
X158587069Y-113090070D01*
X158625971Y-113119113D01*
X158736757Y-113210961D01*
X158823351Y-113316241D01*
X158884716Y-113432734D01*
X158919815Y-113558224D01*
X158927608Y-113690493D01*
X158921943Y-113751543D01*
X158891078Y-113878205D01*
X158837920Y-113990059D01*
X158765767Y-114085999D01*
X158677917Y-114164924D01*
X158577665Y-114225730D01*
X158468310Y-114267313D01*
X158353147Y-114288572D01*
X158235475Y-114288401D01*
X158118590Y-114265699D01*
X158005789Y-114219362D01*
X157900369Y-114148287D01*
X157856368Y-114108089D01*
X157771979Y-114004871D01*
X157713222Y-113892075D01*
X157679704Y-113772990D01*
X157671035Y-113650905D01*
X157686823Y-113529107D01*
X157726678Y-113410884D01*
X157790207Y-113299525D01*
X157877021Y-113198316D01*
X157974029Y-113119113D01*
X158014437Y-113088838D01*
X158042982Y-113062781D01*
X158053257Y-113047175D01*
X158047877Y-113030157D01*
X158032575Y-112989500D01*
X158008612Y-112928358D01*
X157977244Y-112849881D01*
X157939732Y-112757220D01*
X157897333Y-112653528D01*
X157855663Y-112552474D01*
X157809690Y-112441393D01*
X157767107Y-112338459D01*
X157729221Y-112246835D01*
X157697340Y-112169684D01*
X157672771Y-112110169D01*
X157656820Y-112071456D01*
X157650910Y-112057000D01*
X157636948Y-112042315D01*
X157609940Y-112042358D01*
X157566413Y-112057901D01*
X157502890Y-112089716D01*
X157502388Y-112089987D01*
X157454560Y-112114677D01*
X157415897Y-112132662D01*
X157394095Y-112140386D01*
X157393133Y-112140457D01*
X157376721Y-112132622D01*
X157340487Y-112110835D01*
X157288474Y-112077672D01*
X157224725Y-112035709D01*
X157154060Y-111988057D01*
X157082116Y-111939809D01*
X157017274Y-111897849D01*
X156963735Y-111864773D01*
X156925697Y-111843179D01*
X156907533Y-111835657D01*
X156890808Y-111845543D01*
X156857180Y-111873174D01*
X156810010Y-111915505D01*
X156752658Y-111969495D01*
X156688484Y-112032101D01*
X156667497Y-112053017D01*
X156450499Y-112270377D01*
X156615668Y-112512780D01*
X156665864Y-112587219D01*
X156709919Y-112654028D01*
X156745362Y-112709335D01*
X156769719Y-112749271D01*
X156780522Y-112769964D01*
X156780838Y-112771437D01*
X156775143Y-112790942D01*
X156759826Y-112830178D01*
X156737537Y-112882570D01*
X156721893Y-112917645D01*
X156692641Y-112984799D01*
X156665094Y-113052642D01*
X156643737Y-113109966D01*
X156637935Y-113127428D01*
X156621452Y-113174062D01*
X156605340Y-113210095D01*
X156596490Y-113223713D01*
X156576960Y-113232048D01*
X156534334Y-113243863D01*
X156474145Y-113257819D01*
X156401922Y-113272578D01*
X156369600Y-113278645D01*
X156287522Y-113293727D01*
X156208795Y-113308331D01*
X156141109Y-113321020D01*
X156092160Y-113330358D01*
X156082943Y-113332161D01*
X156006743Y-113347201D01*
X156006743Y-113664508D01*
X156006914Y-113768846D01*
X156007616Y-113847787D01*
X156009134Y-113904962D01*
X156011749Y-113944001D01*
X156015746Y-113968535D01*
X156021409Y-113982195D01*
X156029020Y-113988611D01*
X156032143Y-113989801D01*
X156050978Y-113994020D01*
X156092588Y-114002438D01*
X156151630Y-114014039D01*
X156222757Y-114027805D01*
X156300625Y-114042720D01*
X156379887Y-114057768D01*
X156455198Y-114071931D01*
X156521213Y-114084194D01*
X156572587Y-114093539D01*
X156603975Y-114098950D01*
X156610959Y-114099886D01*
X156617285Y-114112404D01*
X156631290Y-114145754D01*
X156650355Y-114193623D01*
X156657634Y-114212371D01*
X156686996Y-114284805D01*
X156721571Y-114364830D01*
X156752537Y-114432272D01*
X156775323Y-114483841D01*
X156790482Y-114526215D01*
X156795542Y-114552166D01*
X156794736Y-114555644D01*
X156784041Y-114572064D01*
X156759620Y-114608583D01*
X156724095Y-114661313D01*
X156680087Y-114726365D01*
X156630217Y-114799849D01*
X156620356Y-114814355D01*
X156562492Y-114900296D01*
X156519956Y-114965739D01*
X156491054Y-115013696D01*
X156474090Y-115047180D01*
X156467367Y-115069205D01*
X156469190Y-115082783D01*
X156469236Y-115082869D01*
X156483586Y-115100703D01*
X156515323Y-115135183D01*
X156561010Y-115182732D01*
X156617204Y-115239778D01*
X156680468Y-115302745D01*
X156687602Y-115309773D01*
X156767330Y-115386980D01*
X156828857Y-115443670D01*
X156873421Y-115480890D01*
X156902257Y-115499685D01*
X156914958Y-115502111D01*
X156933494Y-115491529D01*
X156971961Y-115467084D01*
X157026386Y-115431388D01*
X157092798Y-115387053D01*
X157167225Y-115336689D01*
X157184601Y-115324840D01*
X157431297Y-115156374D01*
X157542706Y-115206938D01*
X157610457Y-115236405D01*
X157683183Y-115266041D01*
X157745703Y-115289670D01*
X157748457Y-115290642D01*
X157797360Y-115308543D01*
X157835057Y-115323680D01*
X157853425Y-115332790D01*
X157853456Y-115332816D01*
X157859285Y-115349283D01*
X157869192Y-115389781D01*
X157882195Y-115449758D01*
X157897309Y-115524660D01*
X157913552Y-115609936D01*
X157914881Y-115617125D01*
X157931175Y-115704986D01*
X157946133Y-115784740D01*
X157958791Y-115851319D01*
X157968186Y-115899653D01*
X157973354Y-115924675D01*
X157973444Y-115925057D01*
X157976589Y-115935701D01*
X157982704Y-115943738D01*
X157995453Y-115949533D01*
X158018500Y-115953453D01*
X158055509Y-115955865D01*
X158110144Y-115957135D01*
X158186067Y-115957629D01*
X158286944Y-115957714D01*
X158300000Y-115957714D01*
X158403910Y-115957652D01*
G37*
X158403910Y-115957652D02*
X158482454Y-115957222D01*
X158539298Y-115956058D01*
X158578105Y-115953793D01*
X158602538Y-115950060D01*
X158616262Y-115944494D01*
X158622940Y-115936727D01*
X158626236Y-115926395D01*
X158626556Y-115925057D01*
X158631562Y-115900921D01*
X158640829Y-115853299D01*
X158653392Y-115787259D01*
X158668287Y-115707872D01*
X158684551Y-115620204D01*
X158685119Y-115617125D01*
X158701410Y-115531211D01*
X158716652Y-115455304D01*
X158729861Y-115393955D01*
X158740054Y-115351718D01*
X158746248Y-115333145D01*
X158746543Y-115332816D01*
X158764788Y-115323747D01*
X158802405Y-115308633D01*
X158851271Y-115290738D01*
X158851543Y-115290642D01*
X158913093Y-115267507D01*
X158985657Y-115238035D01*
X159054057Y-115208403D01*
X159057294Y-115206938D01*
X159168702Y-115156374D01*
X159415399Y-115324840D01*
X159491077Y-115376197D01*
X159559631Y-115422111D01*
X159617088Y-115459970D01*
X159659476Y-115487163D01*
X159682825Y-115501079D01*
X159685042Y-115502111D01*
X159702010Y-115497516D01*
X159733701Y-115475345D01*
X159781352Y-115434553D01*
X159846198Y-115374095D01*
X159912397Y-115309773D01*
X159976214Y-115246388D01*
X160033329Y-115188549D01*
X160080305Y-115139825D01*
X160113703Y-115103790D01*
X160130085Y-115084016D01*
X160130694Y-115082998D01*
X160132505Y-115069428D01*
X160125683Y-115047267D01*
X160108540Y-115013522D01*
X160079393Y-114965200D01*
X160036555Y-114899308D01*
X159979448Y-114814483D01*
X159928766Y-114739823D01*
X159883461Y-114672860D01*
X159846150Y-114617484D01*
X159819452Y-114577580D01*
X159805985Y-114557038D01*
X159805137Y-114555644D01*
X159806781Y-114535962D01*
X159819245Y-114497707D01*
X159840048Y-114448111D01*
X159847462Y-114432272D01*
X159879814Y-114361710D01*
X159914328Y-114281647D01*
X159942365Y-114212371D01*
X159962568Y-114160955D01*
X159978615Y-114121881D01*
X159987888Y-114101459D01*
X159989041Y-114099886D01*
X160006096Y-114097279D01*
X160046298Y-114090137D01*
X160104302Y-114079477D01*
X160174763Y-114066315D01*
X160252335Y-114051667D01*
X160331672Y-114036551D01*
X160407431Y-114021982D01*
X160474264Y-114008978D01*
X160526828Y-113998555D01*
X160559776Y-113991730D01*
X160567857Y-113989801D01*
X160576205Y-113985038D01*
X160582506Y-113974282D01*
X160587045Y-113953902D01*
X160590104Y-113920266D01*
X160591967Y-113869745D01*
X160592918Y-113798708D01*
X160593240Y-113703524D01*
X160593257Y-113664508D01*
X160593257Y-113347201D01*
X160517057Y-113332161D01*
X160474663Y-113324005D01*
X160411400Y-113312101D01*
X160334962Y-113297884D01*
X160253043Y-113282790D01*
X160230400Y-113278645D01*
X160154806Y-113263947D01*
X160088953Y-113249495D01*
X160038366Y-113236625D01*
X160008574Y-113226678D01*
X160003612Y-113223713D01*
X159991426Y-113202717D01*
X159973953Y-113162033D01*
X159954577Y-113109678D01*
X159950734Y-113098400D01*
X159925339Y-113028477D01*
X159893817Y-112949582D01*
X159862969Y-112878734D01*
X159862817Y-112878405D01*
X159811447Y-112767267D01*
X159980399Y-112518747D01*
X160149352Y-112270228D01*
X159932429Y-112052942D01*
X159866819Y-111988274D01*
X159806979Y-111931267D01*
X159756267Y-111884967D01*
X159718046Y-111852416D01*
X159695675Y-111836657D01*
X159692466Y-111835657D01*
X159673626Y-111843531D01*
X159635180Y-111865422D01*
X159581330Y-111898733D01*
X159516276Y-111940869D01*
X159445940Y-111988057D01*
X159374555Y-112036190D01*
X159310908Y-112078072D01*
X159259041Y-112111129D01*
X159222995Y-112132782D01*
X159206867Y-112140457D01*
X159187189Y-112133963D01*
X159149875Y-112116850D01*
X159102621Y-112092674D01*
X159097612Y-112089987D01*
X159033977Y-112058073D01*
X158990341Y-112042421D01*
X158963202Y-112042255D01*
X158949057Y-112056796D01*
X158948975Y-112057000D01*
X158941905Y-112074221D01*
X158925042Y-112115101D01*
X158899695Y-112176475D01*
X158867171Y-112255181D01*
X158828778Y-112348053D01*
X158785822Y-112451928D01*
X158744222Y-112552498D01*
X158698504Y-112663484D01*
X158656526Y-112766297D01*
X158619548Y-112857785D01*
X158588827Y-112934799D01*
X158565622Y-112994185D01*
X158551190Y-113032791D01*
X158546743Y-113047200D01*
X158557896Y-113063728D01*
X158587069Y-113090070D01*
X158625971Y-113119113D01*
X158736757Y-113210961D01*
X158823351Y-113316241D01*
X158884716Y-113432734D01*
X158919815Y-113558224D01*
X158927608Y-113690493D01*
X158921943Y-113751543D01*
X158891078Y-113878205D01*
X158837920Y-113990059D01*
X158765767Y-114085999D01*
X158677917Y-114164924D01*
X158577665Y-114225730D01*
X158468310Y-114267313D01*
X158353147Y-114288572D01*
X158235475Y-114288401D01*
X158118590Y-114265699D01*
X158005789Y-114219362D01*
X157900369Y-114148287D01*
X157856368Y-114108089D01*
X157771979Y-114004871D01*
X157713222Y-113892075D01*
X157679704Y-113772990D01*
X157671035Y-113650905D01*
X157686823Y-113529107D01*
X157726678Y-113410884D01*
X157790207Y-113299525D01*
X157877021Y-113198316D01*
X157974029Y-113119113D01*
X158014437Y-113088838D01*
X158042982Y-113062781D01*
X158053257Y-113047175D01*
X158047877Y-113030157D01*
X158032575Y-112989500D01*
X158008612Y-112928358D01*
X157977244Y-112849881D01*
X157939732Y-112757220D01*
X157897333Y-112653528D01*
X157855663Y-112552474D01*
X157809690Y-112441393D01*
X157767107Y-112338459D01*
X157729221Y-112246835D01*
X157697340Y-112169684D01*
X157672771Y-112110169D01*
X157656820Y-112071456D01*
X157650910Y-112057000D01*
X157636948Y-112042315D01*
X157609940Y-112042358D01*
X157566413Y-112057901D01*
X157502890Y-112089716D01*
X157502388Y-112089987D01*
X157454560Y-112114677D01*
X157415897Y-112132662D01*
X157394095Y-112140386D01*
X157393133Y-112140457D01*
X157376721Y-112132622D01*
X157340487Y-112110835D01*
X157288474Y-112077672D01*
X157224725Y-112035709D01*
X157154060Y-111988057D01*
X157082116Y-111939809D01*
X157017274Y-111897849D01*
X156963735Y-111864773D01*
X156925697Y-111843179D01*
X156907533Y-111835657D01*
X156890808Y-111845543D01*
X156857180Y-111873174D01*
X156810010Y-111915505D01*
X156752658Y-111969495D01*
X156688484Y-112032101D01*
X156667497Y-112053017D01*
X156450499Y-112270377D01*
X156615668Y-112512780D01*
X156665864Y-112587219D01*
X156709919Y-112654028D01*
X156745362Y-112709335D01*
X156769719Y-112749271D01*
X156780522Y-112769964D01*
X156780838Y-112771437D01*
X156775143Y-112790942D01*
X156759826Y-112830178D01*
X156737537Y-112882570D01*
X156721893Y-112917645D01*
X156692641Y-112984799D01*
X156665094Y-113052642D01*
X156643737Y-113109966D01*
X156637935Y-113127428D01*
X156621452Y-113174062D01*
X156605340Y-113210095D01*
X156596490Y-113223713D01*
X156576960Y-113232048D01*
X156534334Y-113243863D01*
X156474145Y-113257819D01*
X156401922Y-113272578D01*
X156369600Y-113278645D01*
X156287522Y-113293727D01*
X156208795Y-113308331D01*
X156141109Y-113321020D01*
X156092160Y-113330358D01*
X156082943Y-113332161D01*
X156006743Y-113347201D01*
X156006743Y-113664508D01*
X156006914Y-113768846D01*
X156007616Y-113847787D01*
X156009134Y-113904962D01*
X156011749Y-113944001D01*
X156015746Y-113968535D01*
X156021409Y-113982195D01*
X156029020Y-113988611D01*
X156032143Y-113989801D01*
X156050978Y-113994020D01*
X156092588Y-114002438D01*
X156151630Y-114014039D01*
X156222757Y-114027805D01*
X156300625Y-114042720D01*
X156379887Y-114057768D01*
X156455198Y-114071931D01*
X156521213Y-114084194D01*
X156572587Y-114093539D01*
X156603975Y-114098950D01*
X156610959Y-114099886D01*
X156617285Y-114112404D01*
X156631290Y-114145754D01*
X156650355Y-114193623D01*
X156657634Y-114212371D01*
X156686996Y-114284805D01*
X156721571Y-114364830D01*
X156752537Y-114432272D01*
X156775323Y-114483841D01*
X156790482Y-114526215D01*
X156795542Y-114552166D01*
X156794736Y-114555644D01*
X156784041Y-114572064D01*
X156759620Y-114608583D01*
X156724095Y-114661313D01*
X156680087Y-114726365D01*
X156630217Y-114799849D01*
X156620356Y-114814355D01*
X156562492Y-114900296D01*
X156519956Y-114965739D01*
X156491054Y-115013696D01*
X156474090Y-115047180D01*
X156467367Y-115069205D01*
X156469190Y-115082783D01*
X156469236Y-115082869D01*
X156483586Y-115100703D01*
X156515323Y-115135183D01*
X156561010Y-115182732D01*
X156617204Y-115239778D01*
X156680468Y-115302745D01*
X156687602Y-115309773D01*
X156767330Y-115386980D01*
X156828857Y-115443670D01*
X156873421Y-115480890D01*
X156902257Y-115499685D01*
X156914958Y-115502111D01*
X156933494Y-115491529D01*
X156971961Y-115467084D01*
X157026386Y-115431388D01*
X157092798Y-115387053D01*
X157167225Y-115336689D01*
X157184601Y-115324840D01*
X157431297Y-115156374D01*
X157542706Y-115206938D01*
X157610457Y-115236405D01*
X157683183Y-115266041D01*
X157745703Y-115289670D01*
X157748457Y-115290642D01*
X157797360Y-115308543D01*
X157835057Y-115323680D01*
X157853425Y-115332790D01*
X157853456Y-115332816D01*
X157859285Y-115349283D01*
X157869192Y-115389781D01*
X157882195Y-115449758D01*
X157897309Y-115524660D01*
X157913552Y-115609936D01*
X157914881Y-115617125D01*
X157931175Y-115704986D01*
X157946133Y-115784740D01*
X157958791Y-115851319D01*
X157968186Y-115899653D01*
X157973354Y-115924675D01*
X157973444Y-115925057D01*
X157976589Y-115935701D01*
X157982704Y-115943738D01*
X157995453Y-115949533D01*
X158018500Y-115953453D01*
X158055509Y-115955865D01*
X158110144Y-115957135D01*
X158186067Y-115957629D01*
X158286944Y-115957714D01*
X158300000Y-115957714D01*
X158403910Y-115957652D01*
G36*
X161453595Y-111233034D02*
G01*
X161511021Y-111195503D01*
X161538719Y-111161904D01*
X161560662Y-111100936D01*
X161562405Y-111052692D01*
X161558457Y-110988184D01*
X161409686Y-110923066D01*
X161337349Y-110889798D01*
X161290084Y-110863036D01*
X161265507Y-110839856D01*
X161261237Y-110817333D01*
X161274889Y-110792545D01*
X161289943Y-110776114D01*
X161333746Y-110749765D01*
X161381389Y-110747919D01*
X161425145Y-110768454D01*
X161457289Y-110809248D01*
X161463038Y-110823653D01*
X161490576Y-110868644D01*
X161522258Y-110887818D01*
X161565714Y-110904221D01*
X161565714Y-110842034D01*
X161561872Y-110799717D01*
X161546823Y-110764031D01*
X161515280Y-110723057D01*
X161510592Y-110717733D01*
X161475506Y-110681280D01*
X161445347Y-110661717D01*
X161407615Y-110652717D01*
X161376335Y-110649770D01*
X161320385Y-110649035D01*
X161280555Y-110658340D01*
X161255708Y-110672154D01*
X161216656Y-110702533D01*
X161189625Y-110735387D01*
X161172517Y-110776706D01*
X161163238Y-110832479D01*
X161159693Y-110908695D01*
X161159410Y-110947378D01*
X161160372Y-110993753D01*
X161248007Y-110993753D01*
X161249023Y-110968874D01*
X161251556Y-110964800D01*
X161268274Y-110970335D01*
X161304249Y-110984983D01*
X161352331Y-111005810D01*
X161362386Y-111010286D01*
X161423152Y-111041186D01*
X161456632Y-111068343D01*
X161463990Y-111093780D01*
X161446391Y-111119519D01*
X161431856Y-111130891D01*
X161379410Y-111153636D01*
X161330322Y-111149878D01*
X161289227Y-111122116D01*
X161260758Y-111072848D01*
X161251631Y-111033743D01*
X161248007Y-110993753D01*
X161160372Y-110993753D01*
X161161285Y-111037751D01*
X161168196Y-111104616D01*
X161181884Y-111153305D01*
X161204096Y-111189151D01*
X161236574Y-111217487D01*
X161250733Y-111226645D01*
X161315053Y-111250493D01*
X161385473Y-111251994D01*
X161453595Y-111233034D01*
G37*
X161453595Y-111233034D02*
X161511021Y-111195503D01*
X161538719Y-111161904D01*
X161560662Y-111100936D01*
X161562405Y-111052692D01*
X161558457Y-110988184D01*
X161409686Y-110923066D01*
X161337349Y-110889798D01*
X161290084Y-110863036D01*
X161265507Y-110839856D01*
X161261237Y-110817333D01*
X161274889Y-110792545D01*
X161289943Y-110776114D01*
X161333746Y-110749765D01*
X161381389Y-110747919D01*
X161425145Y-110768454D01*
X161457289Y-110809248D01*
X161463038Y-110823653D01*
X161490576Y-110868644D01*
X161522258Y-110887818D01*
X161565714Y-110904221D01*
X161565714Y-110842034D01*
X161561872Y-110799717D01*
X161546823Y-110764031D01*
X161515280Y-110723057D01*
X161510592Y-110717733D01*
X161475506Y-110681280D01*
X161445347Y-110661717D01*
X161407615Y-110652717D01*
X161376335Y-110649770D01*
X161320385Y-110649035D01*
X161280555Y-110658340D01*
X161255708Y-110672154D01*
X161216656Y-110702533D01*
X161189625Y-110735387D01*
X161172517Y-110776706D01*
X161163238Y-110832479D01*
X161159693Y-110908695D01*
X161159410Y-110947378D01*
X161160372Y-110993753D01*
X161248007Y-110993753D01*
X161249023Y-110968874D01*
X161251556Y-110964800D01*
X161268274Y-110970335D01*
X161304249Y-110984983D01*
X161352331Y-111005810D01*
X161362386Y-111010286D01*
X161423152Y-111041186D01*
X161456632Y-111068343D01*
X161463990Y-111093780D01*
X161446391Y-111119519D01*
X161431856Y-111130891D01*
X161379410Y-111153636D01*
X161330322Y-111149878D01*
X161289227Y-111122116D01*
X161260758Y-111072848D01*
X161251631Y-111033743D01*
X161248007Y-110993753D01*
X161160372Y-110993753D01*
X161161285Y-111037751D01*
X161168196Y-111104616D01*
X161181884Y-111153305D01*
X161204096Y-111189151D01*
X161236574Y-111217487D01*
X161250733Y-111226645D01*
X161315053Y-111250493D01*
X161385473Y-111251994D01*
X161453595Y-111233034D01*
G36*
X160952600Y-111241248D02*
G01*
X160969948Y-111233666D01*
X161011356Y-111200872D01*
X161046765Y-111153453D01*
X161068664Y-111102849D01*
X161072229Y-111077902D01*
X161060279Y-111043073D01*
X161034067Y-111024643D01*
X161005964Y-111013484D01*
X160993095Y-111011428D01*
X160986829Y-111026351D01*
X160974456Y-111058825D01*
X160969028Y-111073498D01*
X160938590Y-111124256D01*
X160894520Y-111149573D01*
X160838010Y-111148794D01*
X160833825Y-111147797D01*
X160803655Y-111133493D01*
X160781476Y-111105607D01*
X160766327Y-111060713D01*
X160757250Y-110995385D01*
X160753286Y-110906196D01*
X160752914Y-110858739D01*
X160752730Y-110783929D01*
X160751522Y-110732931D01*
X160748309Y-110700529D01*
X160742109Y-110681505D01*
X160731940Y-110670644D01*
X160716819Y-110662728D01*
X160715946Y-110662330D01*
X160686828Y-110650019D01*
X160672403Y-110645486D01*
X160670186Y-110659191D01*
X160668289Y-110697075D01*
X160666847Y-110754285D01*
X160665998Y-110825973D01*
X160665829Y-110878435D01*
X160666692Y-110979953D01*
X160670070Y-111056968D01*
X160677142Y-111113977D01*
X160689088Y-111155474D01*
X160707090Y-111185957D01*
X160732327Y-111209920D01*
X160757247Y-111226645D01*
X160817171Y-111248903D01*
X160886911Y-111253924D01*
X160952600Y-111241248D01*
G37*
X160952600Y-111241248D02*
X160969948Y-111233666D01*
X161011356Y-111200872D01*
X161046765Y-111153453D01*
X161068664Y-111102849D01*
X161072229Y-111077902D01*
X161060279Y-111043073D01*
X161034067Y-111024643D01*
X161005964Y-111013484D01*
X160993095Y-111011428D01*
X160986829Y-111026351D01*
X160974456Y-111058825D01*
X160969028Y-111073498D01*
X160938590Y-111124256D01*
X160894520Y-111149573D01*
X160838010Y-111148794D01*
X160833825Y-111147797D01*
X160803655Y-111133493D01*
X160781476Y-111105607D01*
X160766327Y-111060713D01*
X160757250Y-110995385D01*
X160753286Y-110906196D01*
X160752914Y-110858739D01*
X160752730Y-110783929D01*
X160751522Y-110732931D01*
X160748309Y-110700529D01*
X160742109Y-110681505D01*
X160731940Y-110670644D01*
X160716819Y-110662728D01*
X160715946Y-110662330D01*
X160686828Y-110650019D01*
X160672403Y-110645486D01*
X160670186Y-110659191D01*
X160668289Y-110697075D01*
X160666847Y-110754285D01*
X160665998Y-110825973D01*
X160665829Y-110878435D01*
X160666692Y-110979953D01*
X160670070Y-111056968D01*
X160677142Y-111113977D01*
X160689088Y-111155474D01*
X160707090Y-111185957D01*
X160732327Y-111209920D01*
X160757247Y-111226645D01*
X160817171Y-111248903D01*
X160886911Y-111253924D01*
X160952600Y-111241248D01*
G36*
X160444876Y-111243665D02*
G01*
X160486667Y-111224656D01*
X160519469Y-111201622D01*
X160543503Y-111175867D01*
X160560097Y-111142642D01*
X160570577Y-111097200D01*
X160576271Y-111034793D01*
X160578507Y-110950673D01*
X160578743Y-110895279D01*
X160578743Y-110679174D01*
X160541774Y-110662330D01*
X160512656Y-110650019D01*
X160498231Y-110645486D01*
X160495472Y-110658975D01*
X160493282Y-110695347D01*
X160491942Y-110748458D01*
X160491657Y-110790628D01*
X160490434Y-110851553D01*
X160487136Y-110899885D01*
X160482321Y-110929482D01*
X160478496Y-110935771D01*
X160452783Y-110929348D01*
X160412418Y-110912875D01*
X160365679Y-110890542D01*
X160320845Y-110866543D01*
X160286193Y-110845070D01*
X160270002Y-110830315D01*
X160269938Y-110830155D01*
X160271330Y-110802848D01*
X160283818Y-110776781D01*
X160305743Y-110755608D01*
X160337743Y-110748526D01*
X160365092Y-110749351D01*
X160403826Y-110749958D01*
X160424158Y-110740884D01*
X160436369Y-110716908D01*
X160437909Y-110712387D01*
X160443203Y-110678194D01*
X160429047Y-110657432D01*
X160392148Y-110647538D01*
X160352289Y-110645708D01*
X160280562Y-110659273D01*
X160243432Y-110678645D01*
X160197576Y-110724155D01*
X160173256Y-110780017D01*
X160171073Y-110839043D01*
X160191629Y-110894047D01*
X160222549Y-110928514D01*
X160253420Y-110947811D01*
X160301942Y-110972241D01*
X160358485Y-110997015D01*
X160367910Y-111000801D01*
X160430019Y-111028209D01*
X160465822Y-111052366D01*
X160477337Y-111076381D01*
X160466580Y-111103365D01*
X160448114Y-111124457D01*
X160404469Y-111150428D01*
X160356446Y-111152376D01*
X160312406Y-111132363D01*
X160280709Y-111092449D01*
X160276549Y-111082152D01*
X160252327Y-111044276D01*
X160216965Y-111016158D01*
X160172343Y-110993083D01*
X160172343Y-111058515D01*
X160174969Y-111098494D01*
X160186230Y-111130003D01*
X160211199Y-111163622D01*
X160235169Y-111189516D01*
X160272441Y-111226183D01*
X160301401Y-111245879D01*
X160332505Y-111253780D01*
X160367713Y-111255086D01*
X160444876Y-111243665D01*
G37*
X160444876Y-111243665D02*
X160486667Y-111224656D01*
X160519469Y-111201622D01*
X160543503Y-111175867D01*
X160560097Y-111142642D01*
X160570577Y-111097200D01*
X160576271Y-111034793D01*
X160578507Y-110950673D01*
X160578743Y-110895279D01*
X160578743Y-110679174D01*
X160541774Y-110662330D01*
X160512656Y-110650019D01*
X160498231Y-110645486D01*
X160495472Y-110658975D01*
X160493282Y-110695347D01*
X160491942Y-110748458D01*
X160491657Y-110790628D01*
X160490434Y-110851553D01*
X160487136Y-110899885D01*
X160482321Y-110929482D01*
X160478496Y-110935771D01*
X160452783Y-110929348D01*
X160412418Y-110912875D01*
X160365679Y-110890542D01*
X160320845Y-110866543D01*
X160286193Y-110845070D01*
X160270002Y-110830315D01*
X160269938Y-110830155D01*
X160271330Y-110802848D01*
X160283818Y-110776781D01*
X160305743Y-110755608D01*
X160337743Y-110748526D01*
X160365092Y-110749351D01*
X160403826Y-110749958D01*
X160424158Y-110740884D01*
X160436369Y-110716908D01*
X160437909Y-110712387D01*
X160443203Y-110678194D01*
X160429047Y-110657432D01*
X160392148Y-110647538D01*
X160352289Y-110645708D01*
X160280562Y-110659273D01*
X160243432Y-110678645D01*
X160197576Y-110724155D01*
X160173256Y-110780017D01*
X160171073Y-110839043D01*
X160191629Y-110894047D01*
X160222549Y-110928514D01*
X160253420Y-110947811D01*
X160301942Y-110972241D01*
X160358485Y-110997015D01*
X160367910Y-111000801D01*
X160430019Y-111028209D01*
X160465822Y-111052366D01*
X160477337Y-111076381D01*
X160466580Y-111103365D01*
X160448114Y-111124457D01*
X160404469Y-111150428D01*
X160356446Y-111152376D01*
X160312406Y-111132363D01*
X160280709Y-111092449D01*
X160276549Y-111082152D01*
X160252327Y-111044276D01*
X160216965Y-111016158D01*
X160172343Y-110993083D01*
X160172343Y-111058515D01*
X160174969Y-111098494D01*
X160186230Y-111130003D01*
X160211199Y-111163622D01*
X160235169Y-111189516D01*
X160272441Y-111226183D01*
X160301401Y-111245879D01*
X160332505Y-111253780D01*
X160367713Y-111255086D01*
X160444876Y-111243665D01*
G36*
X160079833Y-111241337D02*
G01*
X160082048Y-111203150D01*
X160083784Y-111145114D01*
X160084899Y-111071820D01*
X160085257Y-110994945D01*
X160085257Y-110734804D01*
X160039326Y-110688873D01*
X160007675Y-110660571D01*
X159979890Y-110649107D01*
X159941915Y-110649832D01*
X159926840Y-110651679D01*
X159879726Y-110657052D01*
X159840756Y-110660131D01*
X159831257Y-110660415D01*
X159799233Y-110658555D01*
X159753432Y-110653886D01*
X159735674Y-110651679D01*
X159692057Y-110648265D01*
X159662745Y-110655680D01*
X159633680Y-110678573D01*
X159623188Y-110688873D01*
X159577257Y-110734804D01*
X159577257Y-111221398D01*
X159614226Y-111238242D01*
X159646059Y-111250718D01*
X159664683Y-111255086D01*
X159669458Y-111241282D01*
X159673921Y-111202714D01*
X159677775Y-111143644D01*
X159680722Y-111068337D01*
X159682143Y-111004714D01*
X159686114Y-110754343D01*
X159720759Y-110749444D01*
X159752268Y-110752869D01*
X159767708Y-110763959D01*
X159772023Y-110784692D01*
X159775708Y-110828855D01*
X159778469Y-110890854D01*
X159780012Y-110965091D01*
X159780235Y-111003294D01*
X159780457Y-111223217D01*
X159826166Y-111239151D01*
X159858518Y-111249985D01*
X159876115Y-111255038D01*
X159876623Y-111255086D01*
X159878388Y-111241352D01*
X159880329Y-111203270D01*
X159882282Y-111145518D01*
X159884084Y-111072773D01*
X159885343Y-111004714D01*
X159889314Y-110754343D01*
X159976400Y-110754343D01*
X159980396Y-110982760D01*
X159984392Y-111211178D01*
X160026847Y-111233132D01*
X160058192Y-111248207D01*
X160076744Y-111255049D01*
X160077279Y-111255086D01*
X160079833Y-111241337D01*
G37*
X160079833Y-111241337D02*
X160082048Y-111203150D01*
X160083784Y-111145114D01*
X160084899Y-111071820D01*
X160085257Y-110994945D01*
X160085257Y-110734804D01*
X160039326Y-110688873D01*
X160007675Y-110660571D01*
X159979890Y-110649107D01*
X159941915Y-110649832D01*
X159926840Y-110651679D01*
X159879726Y-110657052D01*
X159840756Y-110660131D01*
X159831257Y-110660415D01*
X159799233Y-110658555D01*
X159753432Y-110653886D01*
X159735674Y-110651679D01*
X159692057Y-110648265D01*
X159662745Y-110655680D01*
X159633680Y-110678573D01*
X159623188Y-110688873D01*
X159577257Y-110734804D01*
X159577257Y-111221398D01*
X159614226Y-111238242D01*
X159646059Y-111250718D01*
X159664683Y-111255086D01*
X159669458Y-111241282D01*
X159673921Y-111202714D01*
X159677775Y-111143644D01*
X159680722Y-111068337D01*
X159682143Y-111004714D01*
X159686114Y-110754343D01*
X159720759Y-110749444D01*
X159752268Y-110752869D01*
X159767708Y-110763959D01*
X159772023Y-110784692D01*
X159775708Y-110828855D01*
X159778469Y-110890854D01*
X159780012Y-110965091D01*
X159780235Y-111003294D01*
X159780457Y-111223217D01*
X159826166Y-111239151D01*
X159858518Y-111249985D01*
X159876115Y-111255038D01*
X159876623Y-111255086D01*
X159878388Y-111241352D01*
X159880329Y-111203270D01*
X159882282Y-111145518D01*
X159884084Y-111072773D01*
X159885343Y-111004714D01*
X159889314Y-110754343D01*
X159976400Y-110754343D01*
X159980396Y-110982760D01*
X159984392Y-111211178D01*
X160026847Y-111233132D01*
X160058192Y-111248207D01*
X160076744Y-111255049D01*
X160077279Y-111255086D01*
X160079833Y-111241337D01*
G36*
X159490117Y-111134642D02*
G01*
X159489933Y-111026163D01*
X159489219Y-110942713D01*
X159487675Y-110880296D01*
X159485001Y-110834915D01*
X159480894Y-110802571D01*
X159475055Y-110779267D01*
X159467182Y-110761005D01*
X159461221Y-110750582D01*
X159411855Y-110694055D01*
X159349264Y-110658623D01*
X159280013Y-110645910D01*
X159210668Y-110657537D01*
X159169375Y-110678432D01*
X159126025Y-110714578D01*
X159096481Y-110758724D01*
X159078655Y-110816538D01*
X159070463Y-110893687D01*
X159069302Y-110950286D01*
X159069458Y-110954353D01*
X159170857Y-110954353D01*
X159171476Y-110889450D01*
X159174314Y-110846486D01*
X159180840Y-110818378D01*
X159192523Y-110798047D01*
X159206483Y-110782712D01*
X159253365Y-110753110D01*
X159303701Y-110750581D01*
X159351276Y-110775295D01*
X159354979Y-110778644D01*
X159370783Y-110796065D01*
X159380693Y-110816791D01*
X159386058Y-110847638D01*
X159388228Y-110895423D01*
X159388571Y-110948252D01*
X159387827Y-111014619D01*
X159384748Y-111058894D01*
X159378061Y-111087991D01*
X159366496Y-111108827D01*
X159357013Y-111119893D01*
X159312960Y-111147802D01*
X159262224Y-111151157D01*
X159213796Y-111129841D01*
X159204450Y-111121927D01*
X159188540Y-111104353D01*
X159178610Y-111083413D01*
X159173278Y-111052218D01*
X159171163Y-111003878D01*
X159170857Y-110954353D01*
X159069458Y-110954353D01*
X159072810Y-111041432D01*
X159084726Y-111109914D01*
X159107135Y-111161400D01*
X159142124Y-111201557D01*
X159169375Y-111222139D01*
X159218907Y-111244375D01*
X159276316Y-111254696D01*
X159329682Y-111251933D01*
X159359543Y-111240788D01*
X159371261Y-111237617D01*
X159379037Y-111249443D01*
X159384465Y-111281134D01*
X159388571Y-111329407D01*
X159393067Y-111383171D01*
X159399313Y-111415518D01*
X159410676Y-111434015D01*
X159430528Y-111446230D01*
X159443000Y-111451638D01*
X159490171Y-111471399D01*
X159490117Y-111134642D01*
G37*
X159490117Y-111134642D02*
X159489933Y-111026163D01*
X159489219Y-110942713D01*
X159487675Y-110880296D01*
X159485001Y-110834915D01*
X159480894Y-110802571D01*
X159475055Y-110779267D01*
X159467182Y-110761005D01*
X159461221Y-110750582D01*
X159411855Y-110694055D01*
X159349264Y-110658623D01*
X159280013Y-110645910D01*
X159210668Y-110657537D01*
X159169375Y-110678432D01*
X159126025Y-110714578D01*
X159096481Y-110758724D01*
X159078655Y-110816538D01*
X159070463Y-110893687D01*
X159069302Y-110950286D01*
X159069458Y-110954353D01*
X159170857Y-110954353D01*
X159171476Y-110889450D01*
X159174314Y-110846486D01*
X159180840Y-110818378D01*
X159192523Y-110798047D01*
X159206483Y-110782712D01*
X159253365Y-110753110D01*
X159303701Y-110750581D01*
X159351276Y-110775295D01*
X159354979Y-110778644D01*
X159370783Y-110796065D01*
X159380693Y-110816791D01*
X159386058Y-110847638D01*
X159388228Y-110895423D01*
X159388571Y-110948252D01*
X159387827Y-111014619D01*
X159384748Y-111058894D01*
X159378061Y-111087991D01*
X159366496Y-111108827D01*
X159357013Y-111119893D01*
X159312960Y-111147802D01*
X159262224Y-111151157D01*
X159213796Y-111129841D01*
X159204450Y-111121927D01*
X159188540Y-111104353D01*
X159178610Y-111083413D01*
X159173278Y-111052218D01*
X159171163Y-111003878D01*
X159170857Y-110954353D01*
X159069458Y-110954353D01*
X159072810Y-111041432D01*
X159084726Y-111109914D01*
X159107135Y-111161400D01*
X159142124Y-111201557D01*
X159169375Y-111222139D01*
X159218907Y-111244375D01*
X159276316Y-111254696D01*
X159329682Y-111251933D01*
X159359543Y-111240788D01*
X159371261Y-111237617D01*
X159379037Y-111249443D01*
X159384465Y-111281134D01*
X159388571Y-111329407D01*
X159393067Y-111383171D01*
X159399313Y-111415518D01*
X159410676Y-111434015D01*
X159430528Y-111446230D01*
X159443000Y-111451638D01*
X159490171Y-111471399D01*
X159490117Y-111134642D01*
G36*
X158829926Y-111250245D02*
G01*
X158895858Y-111225916D01*
X158949273Y-111182883D01*
X158970164Y-111152591D01*
X158992939Y-111097006D01*
X158992466Y-111056814D01*
X158968562Y-111029783D01*
X158959717Y-111025187D01*
X158921530Y-111010856D01*
X158902028Y-111014528D01*
X158895422Y-111038593D01*
X158895086Y-111051886D01*
X158882992Y-111100790D01*
X158851471Y-111135001D01*
X158807659Y-111151524D01*
X158758695Y-111147366D01*
X158718894Y-111125773D01*
X158705450Y-111113456D01*
X158695921Y-111098513D01*
X158689485Y-111075925D01*
X158685317Y-111040672D01*
X158682597Y-110987734D01*
X158680502Y-110912093D01*
X158679960Y-110888143D01*
X158677981Y-110806210D01*
X158675731Y-110748545D01*
X158672357Y-110710392D01*
X158667006Y-110686996D01*
X158658824Y-110673602D01*
X158646959Y-110665455D01*
X158639362Y-110661856D01*
X158607102Y-110649548D01*
X158588111Y-110645486D01*
X158581836Y-110659052D01*
X158578006Y-110700066D01*
X158576600Y-110769001D01*
X158577598Y-110866331D01*
X158577908Y-110881343D01*
X158580101Y-110970141D01*
X158582693Y-111034981D01*
X158586382Y-111080933D01*
X158591864Y-111113065D01*
X158599835Y-111136447D01*
X158610993Y-111156148D01*
X158616830Y-111164590D01*
X158650296Y-111201943D01*
X158687727Y-111230997D01*
X158692309Y-111233533D01*
X158759426Y-111253557D01*
X158829926Y-111250245D01*
G37*
X158829926Y-111250245D02*
X158895858Y-111225916D01*
X158949273Y-111182883D01*
X158970164Y-111152591D01*
X158992939Y-111097006D01*
X158992466Y-111056814D01*
X158968562Y-111029783D01*
X158959717Y-111025187D01*
X158921530Y-111010856D01*
X158902028Y-111014528D01*
X158895422Y-111038593D01*
X158895086Y-111051886D01*
X158882992Y-111100790D01*
X158851471Y-111135001D01*
X158807659Y-111151524D01*
X158758695Y-111147366D01*
X158718894Y-111125773D01*
X158705450Y-111113456D01*
X158695921Y-111098513D01*
X158689485Y-111075925D01*
X158685317Y-111040672D01*
X158682597Y-110987734D01*
X158680502Y-110912093D01*
X158679960Y-110888143D01*
X158677981Y-110806210D01*
X158675731Y-110748545D01*
X158672357Y-110710392D01*
X158667006Y-110686996D01*
X158658824Y-110673602D01*
X158646959Y-110665455D01*
X158639362Y-110661856D01*
X158607102Y-110649548D01*
X158588111Y-110645486D01*
X158581836Y-110659052D01*
X158578006Y-110700066D01*
X158576600Y-110769001D01*
X158577598Y-110866331D01*
X158577908Y-110881343D01*
X158580101Y-110970141D01*
X158582693Y-111034981D01*
X158586382Y-111080933D01*
X158591864Y-111113065D01*
X158599835Y-111136447D01*
X158610993Y-111156148D01*
X158616830Y-111164590D01*
X158650296Y-111201943D01*
X158687727Y-111230997D01*
X158692309Y-111233533D01*
X158759426Y-111253557D01*
X158829926Y-111250245D01*
G36*
X158339744Y-111249032D02*
G01*
X158396616Y-111227913D01*
X158397267Y-111227507D01*
X158432440Y-111201620D01*
X158458407Y-111171367D01*
X158476670Y-111131942D01*
X158488732Y-111078538D01*
X158496096Y-111006349D01*
X158500264Y-110910568D01*
X158500629Y-110896922D01*
X158505876Y-110691158D01*
X158461716Y-110668322D01*
X158429763Y-110652890D01*
X158410470Y-110645577D01*
X158409578Y-110645486D01*
X158406239Y-110658978D01*
X158403587Y-110695374D01*
X158401956Y-110748548D01*
X158401600Y-110791607D01*
X158401592Y-110861359D01*
X158398403Y-110905163D01*
X158387288Y-110926056D01*
X158363501Y-110927075D01*
X158322296Y-110911259D01*
X158260086Y-110882185D01*
X158214341Y-110858037D01*
X158190813Y-110837087D01*
X158183896Y-110814253D01*
X158183886Y-110813123D01*
X158195299Y-110773788D01*
X158229092Y-110752538D01*
X158280809Y-110749461D01*
X158318061Y-110749994D01*
X158337703Y-110739265D01*
X158349952Y-110713495D01*
X158357002Y-110680663D01*
X158346842Y-110662034D01*
X158343017Y-110659368D01*
X158307001Y-110648660D01*
X158256566Y-110647144D01*
X158204626Y-110654241D01*
X158167822Y-110667212D01*
X158116938Y-110710415D01*
X158088014Y-110770554D01*
X158082286Y-110817538D01*
X158086657Y-110859918D01*
X158102475Y-110894512D01*
X158133797Y-110925237D01*
X158184678Y-110956010D01*
X158259176Y-110990748D01*
X158263714Y-110992712D01*
X158330821Y-111023713D01*
X158372232Y-111049138D01*
X158389981Y-111071986D01*
X158386107Y-111095255D01*
X158362643Y-111121944D01*
X158355627Y-111128086D01*
X158308630Y-111151900D01*
X158259933Y-111150897D01*
X158217522Y-111127549D01*
X158189384Y-111084325D01*
X158186769Y-111075840D01*
X158161308Y-111034692D01*
X158129001Y-111014872D01*
X158082286Y-110995230D01*
X158082286Y-111046050D01*
X158096496Y-111119918D01*
X158138675Y-111187673D01*
X158160624Y-111210339D01*
X158210517Y-111239431D01*
X158273967Y-111252600D01*
X158339744Y-111249032D01*
G37*
X158339744Y-111249032D02*
X158396616Y-111227913D01*
X158397267Y-111227507D01*
X158432440Y-111201620D01*
X158458407Y-111171367D01*
X158476670Y-111131942D01*
X158488732Y-111078538D01*
X158496096Y-111006349D01*
X158500264Y-110910568D01*
X158500629Y-110896922D01*
X158505876Y-110691158D01*
X158461716Y-110668322D01*
X158429763Y-110652890D01*
X158410470Y-110645577D01*
X158409578Y-110645486D01*
X158406239Y-110658978D01*
X158403587Y-110695374D01*
X158401956Y-110748548D01*
X158401600Y-110791607D01*
X158401592Y-110861359D01*
X158398403Y-110905163D01*
X158387288Y-110926056D01*
X158363501Y-110927075D01*
X158322296Y-110911259D01*
X158260086Y-110882185D01*
X158214341Y-110858037D01*
X158190813Y-110837087D01*
X158183896Y-110814253D01*
X158183886Y-110813123D01*
X158195299Y-110773788D01*
X158229092Y-110752538D01*
X158280809Y-110749461D01*
X158318061Y-110749994D01*
X158337703Y-110739265D01*
X158349952Y-110713495D01*
X158357002Y-110680663D01*
X158346842Y-110662034D01*
X158343017Y-110659368D01*
X158307001Y-110648660D01*
X158256566Y-110647144D01*
X158204626Y-110654241D01*
X158167822Y-110667212D01*
X158116938Y-110710415D01*
X158088014Y-110770554D01*
X158082286Y-110817538D01*
X158086657Y-110859918D01*
X158102475Y-110894512D01*
X158133797Y-110925237D01*
X158184678Y-110956010D01*
X158259176Y-110990748D01*
X158263714Y-110992712D01*
X158330821Y-111023713D01*
X158372232Y-111049138D01*
X158389981Y-111071986D01*
X158386107Y-111095255D01*
X158362643Y-111121944D01*
X158355627Y-111128086D01*
X158308630Y-111151900D01*
X158259933Y-111150897D01*
X158217522Y-111127549D01*
X158189384Y-111084325D01*
X158186769Y-111075840D01*
X158161308Y-111034692D01*
X158129001Y-111014872D01*
X158082286Y-110995230D01*
X158082286Y-111046050D01*
X158096496Y-111119918D01*
X158138675Y-111187673D01*
X158160624Y-111210339D01*
X158210517Y-111239431D01*
X158273967Y-111252600D01*
X158339744Y-111249032D01*
G36*
X157675886Y-111348711D02*
G01*
X157680139Y-111289387D01*
X157685025Y-111254428D01*
X157691795Y-111239180D01*
X157701702Y-111238985D01*
X157704914Y-111240805D01*
X157747644Y-111253985D01*
X157803227Y-111253215D01*
X157859737Y-111239667D01*
X157895082Y-111222139D01*
X157931321Y-111194139D01*
X157957813Y-111162451D01*
X157975999Y-111122187D01*
X157987322Y-111068457D01*
X157993222Y-110996374D01*
X157995143Y-110901049D01*
X157995177Y-110882763D01*
X157995200Y-110677354D01*
X157949491Y-110661420D01*
X157917027Y-110650580D01*
X157899215Y-110645532D01*
X157898691Y-110645486D01*
X157896937Y-110659172D01*
X157895444Y-110696924D01*
X157894326Y-110753776D01*
X157893697Y-110824766D01*
X157893600Y-110867927D01*
X157893398Y-110953027D01*
X157892358Y-111014019D01*
X157889831Y-111055823D01*
X157885164Y-111083358D01*
X157877707Y-111101544D01*
X157866811Y-111115302D01*
X157860007Y-111121927D01*
X157813272Y-111148625D01*
X157762272Y-111150625D01*
X157716001Y-111128045D01*
X157707444Y-111119893D01*
X157694893Y-111104564D01*
X157686188Y-111086382D01*
X157680631Y-111060091D01*
X157677526Y-111020438D01*
X157676176Y-110962168D01*
X157675886Y-110881827D01*
X157675886Y-110677354D01*
X157630177Y-110661420D01*
X157597713Y-110650580D01*
X157579901Y-110645532D01*
X157579377Y-110645486D01*
X157578037Y-110659377D01*
X157576828Y-110698561D01*
X157575801Y-110759300D01*
X157575002Y-110837859D01*
X157574481Y-110930502D01*
X157574286Y-111033491D01*
X157574286Y-111430658D01*
X157621457Y-111450556D01*
X157668629Y-111470453D01*
X157675886Y-111348711D01*
G37*
X157675886Y-111348711D02*
X157680139Y-111289387D01*
X157685025Y-111254428D01*
X157691795Y-111239180D01*
X157701702Y-111238985D01*
X157704914Y-111240805D01*
X157747644Y-111253985D01*
X157803227Y-111253215D01*
X157859737Y-111239667D01*
X157895082Y-111222139D01*
X157931321Y-111194139D01*
X157957813Y-111162451D01*
X157975999Y-111122187D01*
X157987322Y-111068457D01*
X157993222Y-110996374D01*
X157995143Y-110901049D01*
X157995177Y-110882763D01*
X157995200Y-110677354D01*
X157949491Y-110661420D01*
X157917027Y-110650580D01*
X157899215Y-110645532D01*
X157898691Y-110645486D01*
X157896937Y-110659172D01*
X157895444Y-110696924D01*
X157894326Y-110753776D01*
X157893697Y-110824766D01*
X157893600Y-110867927D01*
X157893398Y-110953027D01*
X157892358Y-111014019D01*
X157889831Y-111055823D01*
X157885164Y-111083358D01*
X157877707Y-111101544D01*
X157866811Y-111115302D01*
X157860007Y-111121927D01*
X157813272Y-111148625D01*
X157762272Y-111150625D01*
X157716001Y-111128045D01*
X157707444Y-111119893D01*
X157694893Y-111104564D01*
X157686188Y-111086382D01*
X157680631Y-111060091D01*
X157677526Y-111020438D01*
X157676176Y-110962168D01*
X157675886Y-110881827D01*
X157675886Y-110677354D01*
X157630177Y-110661420D01*
X157597713Y-110650580D01*
X157579901Y-110645532D01*
X157579377Y-110645486D01*
X157578037Y-110659377D01*
X157576828Y-110698561D01*
X157575801Y-110759300D01*
X157575002Y-110837859D01*
X157574481Y-110930502D01*
X157574286Y-111033491D01*
X157574286Y-111430658D01*
X157621457Y-111450556D01*
X157668629Y-111470453D01*
X157675886Y-111348711D01*
G36*
X156468303Y-111268761D02*
G01*
X156525527Y-111230265D01*
X156569749Y-111174665D01*
X156596167Y-111103914D01*
X156601510Y-111051838D01*
X156600903Y-111030107D01*
X156595822Y-111013469D01*
X156581855Y-110998563D01*
X156554589Y-110982027D01*
X156509612Y-110960502D01*
X156442511Y-110930626D01*
X156442171Y-110930476D01*
X156380407Y-110902187D01*
X156329759Y-110877067D01*
X156295404Y-110857821D01*
X156282518Y-110847152D01*
X156282514Y-110847066D01*
X156293872Y-110823834D01*
X156320431Y-110798226D01*
X156350923Y-110779779D01*
X156366370Y-110776114D01*
X156408515Y-110788788D01*
X156444808Y-110820529D01*
X156462517Y-110855428D01*
X156479552Y-110881155D01*
X156512922Y-110910454D01*
X156552149Y-110935765D01*
X156586756Y-110949529D01*
X156593993Y-110950286D01*
X156602139Y-110937840D01*
X156602630Y-110906028D01*
X156596643Y-110863134D01*
X156585357Y-110817442D01*
X156569950Y-110777239D01*
X156569171Y-110775678D01*
X156522804Y-110710938D01*
X156462711Y-110666903D01*
X156394465Y-110645289D01*
X156323638Y-110647815D01*
X156255804Y-110676196D01*
X156252788Y-110678192D01*
X156199427Y-110726552D01*
X156164340Y-110789648D01*
X156144922Y-110872613D01*
X156142316Y-110895922D01*
X156137701Y-111005945D01*
X156143233Y-111057252D01*
X156282514Y-111057252D01*
X156284324Y-111025247D01*
X156294222Y-111015907D01*
X156318898Y-111022895D01*
X156357795Y-111039413D01*
X156401275Y-111060119D01*
X156402356Y-111060667D01*
X156439209Y-111080051D01*
X156454000Y-111092987D01*
X156450353Y-111106549D01*
X156434995Y-111124368D01*
X156395923Y-111150155D01*
X156353846Y-111152050D01*
X156316103Y-111133283D01*
X156290034Y-111097085D01*
X156282514Y-111057252D01*
X156143233Y-111057252D01*
X156147194Y-111093973D01*
X156171550Y-111163788D01*
X156205456Y-111212698D01*
X156266653Y-111262122D01*
X156334063Y-111286641D01*
X156402880Y-111288203D01*
X156468303Y-111268761D01*
G37*
X156468303Y-111268761D02*
X156525527Y-111230265D01*
X156569749Y-111174665D01*
X156596167Y-111103914D01*
X156601510Y-111051838D01*
X156600903Y-111030107D01*
X156595822Y-111013469D01*
X156581855Y-110998563D01*
X156554589Y-110982027D01*
X156509612Y-110960502D01*
X156442511Y-110930626D01*
X156442171Y-110930476D01*
X156380407Y-110902187D01*
X156329759Y-110877067D01*
X156295404Y-110857821D01*
X156282518Y-110847152D01*
X156282514Y-110847066D01*
X156293872Y-110823834D01*
X156320431Y-110798226D01*
X156350923Y-110779779D01*
X156366370Y-110776114D01*
X156408515Y-110788788D01*
X156444808Y-110820529D01*
X156462517Y-110855428D01*
X156479552Y-110881155D01*
X156512922Y-110910454D01*
X156552149Y-110935765D01*
X156586756Y-110949529D01*
X156593993Y-110950286D01*
X156602139Y-110937840D01*
X156602630Y-110906028D01*
X156596643Y-110863134D01*
X156585357Y-110817442D01*
X156569950Y-110777239D01*
X156569171Y-110775678D01*
X156522804Y-110710938D01*
X156462711Y-110666903D01*
X156394465Y-110645289D01*
X156323638Y-110647815D01*
X156255804Y-110676196D01*
X156252788Y-110678192D01*
X156199427Y-110726552D01*
X156164340Y-110789648D01*
X156144922Y-110872613D01*
X156142316Y-110895922D01*
X156137701Y-111005945D01*
X156143233Y-111057252D01*
X156282514Y-111057252D01*
X156284324Y-111025247D01*
X156294222Y-111015907D01*
X156318898Y-111022895D01*
X156357795Y-111039413D01*
X156401275Y-111060119D01*
X156402356Y-111060667D01*
X156439209Y-111080051D01*
X156454000Y-111092987D01*
X156450353Y-111106549D01*
X156434995Y-111124368D01*
X156395923Y-111150155D01*
X156353846Y-111152050D01*
X156316103Y-111133283D01*
X156290034Y-111097085D01*
X156282514Y-111057252D01*
X156143233Y-111057252D01*
X156147194Y-111093973D01*
X156171550Y-111163788D01*
X156205456Y-111212698D01*
X156266653Y-111262122D01*
X156334063Y-111286641D01*
X156402880Y-111288203D01*
X156468303Y-111268761D01*
G36*
X155341115Y-111278038D02*
G01*
X155409145Y-111242267D01*
X155459351Y-111184699D01*
X155477185Y-111147688D01*
X155491063Y-111092118D01*
X155498167Y-111021904D01*
X155498840Y-110945273D01*
X155493427Y-110870448D01*
X155482270Y-110805658D01*
X155465714Y-110759127D01*
X155460626Y-110751113D01*
X155400355Y-110691293D01*
X155328769Y-110655465D01*
X155251092Y-110644980D01*
X155172548Y-110661190D01*
X155150689Y-110670908D01*
X155108122Y-110700857D01*
X155070763Y-110740567D01*
X155067232Y-110745603D01*
X155052881Y-110769876D01*
X155043394Y-110795822D01*
X155037790Y-110829978D01*
X155035086Y-110878881D01*
X155034299Y-110949065D01*
X155034286Y-110964800D01*
X155034322Y-110969808D01*
X155179429Y-110969808D01*
X155180273Y-110903570D01*
X155183596Y-110859614D01*
X155190583Y-110831221D01*
X155202416Y-110811675D01*
X155208457Y-110805143D01*
X155243186Y-110780320D01*
X155276903Y-110781452D01*
X155310995Y-110802984D01*
X155331329Y-110825971D01*
X155343371Y-110859522D01*
X155350134Y-110912431D01*
X155350598Y-110918601D01*
X155351752Y-111014487D01*
X155339688Y-111085701D01*
X155314570Y-111131806D01*
X155276560Y-111152365D01*
X155262992Y-111153486D01*
X155227364Y-111147848D01*
X155202994Y-111128314D01*
X155188093Y-111090958D01*
X155180875Y-111031850D01*
X155179429Y-110969808D01*
X155034322Y-110969808D01*
X155034826Y-111039587D01*
X155037096Y-111091841D01*
X155042068Y-111128051D01*
X155050713Y-111154701D01*
X155064005Y-111178278D01*
X155066943Y-111182662D01*
X155116313Y-111241751D01*
X155170109Y-111276053D01*
X155235602Y-111289669D01*
X155257842Y-111290335D01*
X155341115Y-111278038D01*
G37*
X155341115Y-111278038D02*
X155409145Y-111242267D01*
X155459351Y-111184699D01*
X155477185Y-111147688D01*
X155491063Y-111092118D01*
X155498167Y-111021904D01*
X155498840Y-110945273D01*
X155493427Y-110870448D01*
X155482270Y-110805658D01*
X155465714Y-110759127D01*
X155460626Y-110751113D01*
X155400355Y-110691293D01*
X155328769Y-110655465D01*
X155251092Y-110644980D01*
X155172548Y-110661190D01*
X155150689Y-110670908D01*
X155108122Y-110700857D01*
X155070763Y-110740567D01*
X155067232Y-110745603D01*
X155052881Y-110769876D01*
X155043394Y-110795822D01*
X155037790Y-110829978D01*
X155035086Y-110878881D01*
X155034299Y-110949065D01*
X155034286Y-110964800D01*
X155034322Y-110969808D01*
X155179429Y-110969808D01*
X155180273Y-110903570D01*
X155183596Y-110859614D01*
X155190583Y-110831221D01*
X155202416Y-110811675D01*
X155208457Y-110805143D01*
X155243186Y-110780320D01*
X155276903Y-110781452D01*
X155310995Y-110802984D01*
X155331329Y-110825971D01*
X155343371Y-110859522D01*
X155350134Y-110912431D01*
X155350598Y-110918601D01*
X155351752Y-111014487D01*
X155339688Y-111085701D01*
X155314570Y-111131806D01*
X155276560Y-111152365D01*
X155262992Y-111153486D01*
X155227364Y-111147848D01*
X155202994Y-111128314D01*
X155188093Y-111090958D01*
X155180875Y-111031850D01*
X155179429Y-110969808D01*
X155034322Y-110969808D01*
X155034826Y-111039587D01*
X155037096Y-111091841D01*
X155042068Y-111128051D01*
X155050713Y-111154701D01*
X155064005Y-111178278D01*
X155066943Y-111182662D01*
X155116313Y-111241751D01*
X155170109Y-111276053D01*
X155235602Y-111289669D01*
X155257842Y-111290335D01*
X155341115Y-111278038D01*
G36*
X157016093Y-111272220D02*
G01*
X157062672Y-111245277D01*
X157095057Y-111218534D01*
X157118742Y-111190516D01*
X157135059Y-111156252D01*
X157145339Y-111110773D01*
X157150914Y-111049108D01*
X157153116Y-110966289D01*
X157153371Y-110906754D01*
X157153371Y-110687609D01*
X157091686Y-110659956D01*
X157030000Y-110632303D01*
X157022743Y-110872330D01*
X157019744Y-110961972D01*
X157016598Y-111027038D01*
X157012701Y-111071974D01*
X157007447Y-111101230D01*
X157000231Y-111119252D01*
X156990450Y-111130489D01*
X156987312Y-111132921D01*
X156939761Y-111151917D01*
X156891697Y-111144400D01*
X156863086Y-111124457D01*
X156851447Y-111110325D01*
X156843391Y-111091780D01*
X156838271Y-111063666D01*
X156835441Y-111020827D01*
X156834256Y-110958105D01*
X156834057Y-110892739D01*
X156834018Y-110810732D01*
X156832614Y-110752684D01*
X156827914Y-110713535D01*
X156817987Y-110688220D01*
X156800903Y-110671677D01*
X156774732Y-110658844D01*
X156739775Y-110645509D01*
X156701596Y-110630993D01*
X156706141Y-110888611D01*
X156707971Y-110981481D01*
X156710112Y-111050111D01*
X156713181Y-111099289D01*
X156717794Y-111133802D01*
X156724568Y-111158438D01*
X156734119Y-111177984D01*
X156745634Y-111195230D01*
X156801190Y-111250320D01*
X156868980Y-111282178D01*
X156942713Y-111289809D01*
X157016093Y-111272220D01*
G37*
X157016093Y-111272220D02*
X157062672Y-111245277D01*
X157095057Y-111218534D01*
X157118742Y-111190516D01*
X157135059Y-111156252D01*
X157145339Y-111110773D01*
X157150914Y-111049108D01*
X157153116Y-110966289D01*
X157153371Y-110906754D01*
X157153371Y-110687609D01*
X157091686Y-110659956D01*
X157030000Y-110632303D01*
X157022743Y-110872330D01*
X157019744Y-110961972D01*
X157016598Y-111027038D01*
X157012701Y-111071974D01*
X157007447Y-111101230D01*
X157000231Y-111119252D01*
X156990450Y-111130489D01*
X156987312Y-111132921D01*
X156939761Y-111151917D01*
X156891697Y-111144400D01*
X156863086Y-111124457D01*
X156851447Y-111110325D01*
X156843391Y-111091780D01*
X156838271Y-111063666D01*
X156835441Y-111020827D01*
X156834256Y-110958105D01*
X156834057Y-110892739D01*
X156834018Y-110810732D01*
X156832614Y-110752684D01*
X156827914Y-110713535D01*
X156817987Y-110688220D01*
X156800903Y-110671677D01*
X156774732Y-110658844D01*
X156739775Y-110645509D01*
X156701596Y-110630993D01*
X156706141Y-110888611D01*
X156707971Y-110981481D01*
X156710112Y-111050111D01*
X156713181Y-111099289D01*
X156717794Y-111133802D01*
X156724568Y-111158438D01*
X156734119Y-111177984D01*
X156745634Y-111195230D01*
X156801190Y-111250320D01*
X156868980Y-111282178D01*
X156942713Y-111289809D01*
X157016093Y-111272220D01*
G36*
X155899744Y-111280082D02*
G01*
X155955201Y-111252432D01*
X156004148Y-111201520D01*
X156017629Y-111182662D01*
X156032314Y-111157985D01*
X156041842Y-111131184D01*
X156047293Y-111095413D01*
X156049747Y-111043831D01*
X156050286Y-110975733D01*
X156047852Y-110882412D01*
X156039394Y-110812343D01*
X156023174Y-110760069D01*
X155997454Y-110720131D01*
X155960497Y-110687071D01*
X155957782Y-110685114D01*
X155921360Y-110665092D01*
X155877502Y-110655185D01*
X155821724Y-110652743D01*
X155731048Y-110652743D01*
X155731010Y-110564717D01*
X155730166Y-110515692D01*
X155725024Y-110486935D01*
X155711587Y-110469689D01*
X155685858Y-110455192D01*
X155679679Y-110452231D01*
X155650764Y-110438352D01*
X155628376Y-110429586D01*
X155611729Y-110428829D01*
X155600036Y-110438977D01*
X155592510Y-110462927D01*
X155588366Y-110503574D01*
X155586815Y-110563814D01*
X155587071Y-110646545D01*
X155588349Y-110754661D01*
X155588748Y-110787000D01*
X155590185Y-110898476D01*
X155591472Y-110971397D01*
X155730971Y-110971397D01*
X155731755Y-110909501D01*
X155735240Y-110869003D01*
X155743124Y-110842292D01*
X155757105Y-110821756D01*
X155766597Y-110811740D01*
X155805404Y-110782433D01*
X155839763Y-110780048D01*
X155875216Y-110804250D01*
X155876114Y-110805143D01*
X155890539Y-110823847D01*
X155899313Y-110849268D01*
X155903739Y-110888416D01*
X155905118Y-110948303D01*
X155905143Y-110961570D01*
X155901812Y-111044099D01*
X155890969Y-111101309D01*
X155871340Y-111136234D01*
X155841650Y-111151906D01*
X155824491Y-111153486D01*
X155783766Y-111146074D01*
X155755832Y-111121670D01*
X155739017Y-111077020D01*
X155731650Y-111008870D01*
X155730971Y-110971397D01*
X155591472Y-110971397D01*
X155591708Y-110984755D01*
X155593677Y-111049667D01*
X155596450Y-111097042D01*
X155600388Y-111130710D01*
X155605849Y-111154502D01*
X155613192Y-111172247D01*
X155622777Y-111187776D01*
X155626887Y-111193619D01*
X155681405Y-111248815D01*
X155750336Y-111280110D01*
X155830072Y-111288835D01*
X155899744Y-111280082D01*
G37*
X155899744Y-111280082D02*
X155955201Y-111252432D01*
X156004148Y-111201520D01*
X156017629Y-111182662D01*
X156032314Y-111157985D01*
X156041842Y-111131184D01*
X156047293Y-111095413D01*
X156049747Y-111043831D01*
X156050286Y-110975733D01*
X156047852Y-110882412D01*
X156039394Y-110812343D01*
X156023174Y-110760069D01*
X155997454Y-110720131D01*
X155960497Y-110687071D01*
X155957782Y-110685114D01*
X155921360Y-110665092D01*
X155877502Y-110655185D01*
X155821724Y-110652743D01*
X155731048Y-110652743D01*
X155731010Y-110564717D01*
X155730166Y-110515692D01*
X155725024Y-110486935D01*
X155711587Y-110469689D01*
X155685858Y-110455192D01*
X155679679Y-110452231D01*
X155650764Y-110438352D01*
X155628376Y-110429586D01*
X155611729Y-110428829D01*
X155600036Y-110438977D01*
X155592510Y-110462927D01*
X155588366Y-110503574D01*
X155586815Y-110563814D01*
X155587071Y-110646545D01*
X155588349Y-110754661D01*
X155588748Y-110787000D01*
X155590185Y-110898476D01*
X155591472Y-110971397D01*
X155730971Y-110971397D01*
X155731755Y-110909501D01*
X155735240Y-110869003D01*
X155743124Y-110842292D01*
X155757105Y-110821756D01*
X155766597Y-110811740D01*
X155805404Y-110782433D01*
X155839763Y-110780048D01*
X155875216Y-110804250D01*
X155876114Y-110805143D01*
X155890539Y-110823847D01*
X155899313Y-110849268D01*
X155903739Y-110888416D01*
X155905118Y-110948303D01*
X155905143Y-110961570D01*
X155901812Y-111044099D01*
X155890969Y-111101309D01*
X155871340Y-111136234D01*
X155841650Y-111151906D01*
X155824491Y-111153486D01*
X155783766Y-111146074D01*
X155755832Y-111121670D01*
X155739017Y-111077020D01*
X155731650Y-111008870D01*
X155730971Y-110971397D01*
X155591472Y-110971397D01*
X155591708Y-110984755D01*
X155593677Y-111049667D01*
X155596450Y-111097042D01*
X155600388Y-111130710D01*
X155605849Y-111154502D01*
X155613192Y-111172247D01*
X155622777Y-111187776D01*
X155626887Y-111193619D01*
X155681405Y-111248815D01*
X155750336Y-111280110D01*
X155830072Y-111288835D01*
X155899744Y-111280082D01*
M02*
